{
    "asset" : {
        "generator" : "Khronos glTF Blender I/O v1.6.16",
        "version" : "2.0"
    },
    "scene" : 0,
    "scenes" : [
        {
            "name" : "Scene",
            "nodes" : [
                0
            ]
        }
    ],
    "nodes" : [
        {
            "mesh" : 0,
            "name" : "Cube",
            "rotation" : [
                0,
                -0.7071068286895752,
                0,
                0.7071068286895752
            ],
            "scale" : [
                0.06282395124435425,
                0.06282422691583633,
                0.06282422691583633
            ],
            "translation" : [
                0.014794165268540382,
                1.0371177196502686,
                0.003707830561324954
            ]
        }
    ],
    "materials" : [
        {
            "doubleSided" : true,
            "name" : "Material.008",
            "pbrMetallicRoughness" : {
                "baseColorFactor" : [
                    0.8000000715255737,
                    0.009249579161405563,
                    0,
                    1
                ],
                "metallicFactor" : 0,
                "roughnessFactor" : 0.5
            }
        },
        {
            "doubleSided" : true,
            "name" : "Material.005",
            "pbrMetallicRoughness" : {
                "baseColorFactor" : [
                    0.800000011920929,
                    0.800000011920929,
                    0.800000011920929,
                    1
                ],
                "metallicFactor" : 0,
                "roughnessFactor" : 0.5
            }
        },
        {
            "doubleSided" : true,
            "name" : "Material.007",
            "pbrMetallicRoughness" : {
                "baseColorFactor" : [
                    0,
                    0,
                    0,
                    1
                ],
                "metallicFactor" : 0,
                "roughnessFactor" : 0.5
            }
        }
    ],
    "meshes" : [
        {
            "name" : "Cube.001",
            "primitives" : [
                {
                    "attributes" : {
                        "POSITION" : 0,
                        "TEXCOORD_0" : 1
                    },
                    "indices" : 2,
                    "material" : 0
                },
                {
                    "attributes" : {
                        "POSITION" : 3,
                        "TEXCOORD_0" : 4
                    },
                    "indices" : 5,
                    "material" : 1
                },
                {
                    "attributes" : {
                        "POSITION" : 6,
                        "TEXCOORD_0" : 7
                    },
                    "indices" : 8,
                    "material" : 2
                }
            ]
        }
    ],
    "accessors" : [
        {
            "bufferView" : 0,
            "componentType" : 5126,
            "count" : 869,
            "max" : [
                2.2637271881103516,
                8.912626266479492,
                2.558220386505127
            ],
            "min" : [
                -2.3817644119262695,
                -16.42715835571289,
                -4.354478359222412
            ],
            "type" : "VEC3"
        },
        {
            "bufferView" : 1,
            "componentType" : 5126,
            "count" : 869,
            "type" : "VEC2"
        },
        {
            "bufferView" : 2,
            "componentType" : 5123,
            "count" : 4056,
            "type" : "SCALAR"
        },
        {
            "bufferView" : 3,
            "componentType" : 5126,
            "count" : 59,
            "max" : [
                2.3638525009155273,
                -1.288616418838501,
                2.6117916107177734
            ],
            "min" : [
                0.41365936398506165,
                -5.177603244781494,
                -2.1408214569091797
            ],
            "type" : "VEC3"
        },
        {
            "bufferView" : 4,
            "componentType" : 5126,
            "count" : 59,
            "type" : "VEC2"
        },
        {
            "bufferView" : 5,
            "componentType" : 5123,
            "count" : 168,
            "type" : "SCALAR"
        },
        {
            "bufferView" : 6,
            "componentType" : 5126,
            "count" : 260,
            "max" : [
                2.4792275428771973,
                4.571635723114014,
                2.7737207412719727
            ],
            "min" : [
                -2.59726619720459,
                -6.578946590423584,
                -2.302750587463379
            ],
            "type" : "VEC3"
        },
        {
            "bufferView" : 7,
            "componentType" : 5126,
            "count" : 260,
            "type" : "VEC2"
        },
        {
            "bufferView" : 8,
            "componentType" : 5123,
            "count" : 744,
            "type" : "SCALAR"
        }
    ],
    "bufferViews" : [
        {
            "buffer" : 0,
            "byteLength" : 10428,
            "byteOffset" : 0
        },
        {
            "buffer" : 0,
            "byteLength" : 6952,
            "byteOffset" : 10428
        },
        {
            "buffer" : 0,
            "byteLength" : 8112,
            "byteOffset" : 17380
        },
        {
            "buffer" : 0,
            "byteLength" : 708,
            "byteOffset" : 25492
        },
        {
            "buffer" : 0,
            "byteLength" : 472,
            "byteOffset" : 26200
        },
        {
            "buffer" : 0,
            "byteLength" : 336,
            "byteOffset" : 26672
        },
        {
            "buffer" : 0,
            "byteLength" : 3120,
            "byteOffset" : 27008
        },
        {
            "buffer" : 0,
            "byteLength" : 2080,
            "byteOffset" : 30128
        },
        {
            "buffer" : 0,
            "byteLength" : 1488,
            "byteOffset" : 32208
        }
    ],
    "buffers" : [
        {
            "byteLength" : 33696,
            "uri" : "data:application/octet-stream;base64,"
        }
    ]
}
