{
    "asset" : {
        "generator" : "Khronos glTF Blender I/O v1.6.16",
        "version" : "2.0"
    },
    "scene" : 0,
    "scenes" : [
        {
            "name" : "Scene",
            "nodes" : [
                0,
                1
            ]
        }
    ],
    "nodes" : [
        {
            "name" : "Empty",
            "rotation" : [
                0.7071068286895752,
                0,
                0,
                0.7071068286895752
            ]
        },
        {
            "mesh" : 0,
            "name" : "Cube.001",
            "scale" : [
                0.03290000185370445,
                0.1632104068994522,
                0.22321003675460815
            ],
            "translation" : [
                -0.3275904953479767,
                2.0293128490448,
                0
            ]
        }
    ],
    "materials" : [
        {
            "doubleSided" : true,
            "name" : "Material.001",
            "pbrMetallicRoughness" : {
                "baseColorFactor" : [
                    0.4845164716243744,
                    0.5160338282585144,
                    0.8000000715255737,
                    1
                ],
                "metallicFactor" : 0,
                "roughnessFactor" : 0.5
            }
        },
        {
            "doubleSided" : true,
            "name" : "Material.003",
            "pbrMetallicRoughness" : {
                "baseColorFactor" : [
                    0.08001096546649933,
                    0.08001096546649933,
                    0.08001096546649933,
                    1
                ],
                "metallicFactor" : 0,
                "roughnessFactor" : 0.5
            }
        },
        {
            "doubleSided" : true,
            "name" : "Material.002",
            "pbrMetallicRoughness" : {
                "baseColorFactor" : [
                    0.8000000715255737,
                    0.4504585862159729,
                    0.1991296112537384,
                    1
                ],
                "metallicFactor" : 0,
                "roughnessFactor" : 0.5
            }
        }
    ],
    "meshes" : [
        {
            "name" : "Cube.003",
            "primitives" : [
                {
                    "attributes" : {
                        "POSITION" : 0,
                        "NORMAL" : 1,
                        "TEXCOORD_0" : 2
                    },
                    "indices" : 3,
                    "material" : 0
                },
                {
                    "attributes" : {
                        "POSITION" : 4,
                        "NORMAL" : 5,
                        "TEXCOORD_0" : 6
                    },
                    "indices" : 7,
                    "material" : 1
                },
                {
                    "attributes" : {
                        "POSITION" : 8,
                        "NORMAL" : 9,
                        "TEXCOORD_0" : 10
                    },
                    "indices" : 11,
                    "material" : 2
                }
            ]
        }
    ],
    "accessors" : [
        {
            "bufferView" : 0,
            "componentType" : 5126,
            "count" : 1234,
            "max" : [
                29.576129913330078,
                0.8755587339401245,
                0.9180328249931335
            ],
            "min" : [
                -11.975963592529297,
                -3.41802978515625,
                -0.9180329442024231
            ],
            "type" : "VEC3"
        },
        {
            "bufferView" : 1,
            "componentType" : 5126,
            "count" : 1234,
            "type" : "VEC3"
        },
        {
            "bufferView" : 2,
            "componentType" : 5126,
            "count" : 1234,
            "type" : "VEC2"
        },
        {
            "bufferView" : 3,
            "componentType" : 5123,
            "count" : 1848,
            "type" : "SCALAR"
        },
        {
            "bufferView" : 4,
            "componentType" : 5126,
            "count" : 252,
            "max" : [
                30.23542022705078,
                0.7826038599014282,
                0.9180327653884888
            ],
            "min" : [
                25.197711944580078,
                -3.418503999710083,
                -0.9180329442024231
            ],
            "type" : "VEC3"
        },
        {
            "bufferView" : 5,
            "componentType" : 5126,
            "count" : 252,
            "type" : "VEC3"
        },
        {
            "bufferView" : 6,
            "componentType" : 5126,
            "count" : 252,
            "type" : "VEC2"
        },
        {
            "bufferView" : 7,
            "componentType" : 5123,
            "count" : 372,
            "type" : "SCALAR"
        },
        {
            "bufferView" : 8,
            "componentType" : 5126,
            "count" : 924,
            "max" : [
                12.877161979675293,
                1.0302629470825195,
                0.6323421597480774
            ],
            "min" : [
                -4.998862266540527,
                -25.573387145996094,
                -0.6323395371437073
            ],
            "type" : "VEC3"
        },
        {
            "bufferView" : 9,
            "componentType" : 5126,
            "count" : 924,
            "type" : "VEC3"
        },
        {
            "bufferView" : 10,
            "componentType" : 5126,
            "count" : 924,
            "type" : "VEC2"
        },
        {
            "bufferView" : 11,
            "componentType" : 5123,
            "count" : 1380,
            "type" : "SCALAR"
        }
    ],
    "bufferViews" : [
        {
            "buffer" : 0,
            "byteLength" : 14808,
            "byteOffset" : 0
        },
        {
            "buffer" : 0,
            "byteLength" : 14808,
            "byteOffset" : 14808
        },
        {
            "buffer" : 0,
            "byteLength" : 9872,
            "byteOffset" : 29616
        },
        {
            "buffer" : 0,
            "byteLength" : 3696,
            "byteOffset" : 39488
        },
        {
            "buffer" : 0,
            "byteLength" : 3024,
            "byteOffset" : 43184
        },
        {
            "buffer" : 0,
            "byteLength" : 3024,
            "byteOffset" : 46208
        },
        {
            "buffer" : 0,
            "byteLength" : 2016,
            "byteOffset" : 49232
        },
        {
            "buffer" : 0,
            "byteLength" : 744,
            "byteOffset" : 51248
        },
        {
            "buffer" : 0,
            "byteLength" : 11088,
            "byteOffset" : 51992
        },
        {
            "buffer" : 0,
            "byteLength" : 11088,
            "byteOffset" : 63080
        },
        {
            "buffer" : 0,
            "byteLength" : 7392,
            "byteOffset" : 74168
        },
        {
            "buffer" : 0,
            "byteLength" : 2760,
            "byteOffset" : 81560
        }
    ],
    "buffers" : [
        {
            "byteLength" : 84320,
            "uri" : "data:application/octet-stream;base64,"
        }
    ]
}
