{
    "asset" : {
        "generator" : "Khronos glTF Blender I/O v1.6.16",
        "version" : "2.0"
    },
    "scene" : 0,
    "scenes" : [
        {
            "name" : "Scene",
            "nodes" : [
                0
            ]
        }
    ],
    "nodes" : [
        {
            "mesh" : 0,
            "name" : "Cube",
            "rotation" : [
                0,
                -0.7071068286895752,
                0,
                0.7071068286895752
            ],
            "scale" : [
                0.003366780001670122,
                0.003366794902831316,
                0.003366794902831316
            ]
        }
    ],
    "materials" : [
        {
            "doubleSided" : true,
            "name" : "Material.008",
            "pbrMetallicRoughness" : {
                "baseColorFactor" : [
                    0.8000000715255737,
                    0.009249579161405563,
                    0,
                    1
                ],
                "metallicFactor" : 0,
                "roughnessFactor" : 0.5
            }
        },
        {
            "doubleSided" : true,
            "name" : "Material.007",
            "pbrMetallicRoughness" : {
                "baseColorFactor" : [
                    0,
                    0,
                    0,
                    1
                ],
                "metallicFactor" : 0,
                "roughnessFactor" : 0.5
            }
        }
    ],
    "meshes" : [
        {
            "name" : "Cube.001",
            "primitives" : [
                {
                    "attributes" : {
                        "POSITION" : 0,
                        "NORMAL" : 1,
                        "TEXCOORD_0" : 2
                    },
                    "indices" : 3,
                    "material" : 0
                },
                {
                    "attributes" : {
                        "POSITION" : 4,
                        "NORMAL" : 5,
                        "TEXCOORD_0" : 6
                    },
                    "indices" : 7,
                    "material" : 1
                }
            ]
        }
    ],
    "accessors" : [
        {
            "bufferView" : 0,
            "componentType" : 5126,
            "count" : 935,
            "max" : [
                2.530705451965332,
                25.34015464782715,
                2.82519793510437
            ],
            "min" : [
                -2.6487441062927246,
                0.000370025634765625,
                -4.354478359222412
            ],
            "type" : "VEC3"
        },
        {
            "bufferView" : 1,
            "componentType" : 5126,
            "count" : 935,
            "type" : "VEC3"
        },
        {
            "bufferView" : 2,
            "componentType" : 5126,
            "count" : 935,
            "type" : "VEC2"
        },
        {
            "bufferView" : 3,
            "componentType" : 5123,
            "count" : 4440,
            "type" : "SCALAR"
        },
        {
            "bufferView" : 4,
            "componentType" : 5126,
            "count" : 260,
            "max" : [
                2.4792275428771973,
                20.999164581298828,
                2.7737207412719727
            ],
            "min" : [
                -2.59726619720459,
                9.848581314086914,
                -2.302750587463379
            ],
            "type" : "VEC3"
        },
        {
            "bufferView" : 5,
            "componentType" : 5126,
            "count" : 260,
            "type" : "VEC3"
        },
        {
            "bufferView" : 6,
            "componentType" : 5126,
            "count" : 260,
            "type" : "VEC2"
        },
        {
            "bufferView" : 7,
            "componentType" : 5123,
            "count" : 744,
            "type" : "SCALAR"
        }
    ],
    "bufferViews" : [
        {
            "buffer" : 0,
            "byteLength" : 11220,
            "byteOffset" : 0
        },
        {
            "buffer" : 0,
            "byteLength" : 11220,
            "byteOffset" : 11220
        },
        {
            "buffer" : 0,
            "byteLength" : 7480,
            "byteOffset" : 22440
        },
        {
            "buffer" : 0,
            "byteLength" : 8880,
            "byteOffset" : 29920
        },
        {
            "buffer" : 0,
            "byteLength" : 3120,
            "byteOffset" : 38800
        },
        {
            "buffer" : 0,
            "byteLength" : 3120,
            "byteOffset" : 41920
        },
        {
            "buffer" : 0,
            "byteLength" : 2080,
            "byteOffset" : 45040
        },
        {
            "buffer" : 0,
            "byteLength" : 1488,
            "byteOffset" : 47120
        }
    ],
    "buffers" : [
        {
            "byteLength" : 48608,
            "uri" : "data:application/octet-stream;base64,"
        }
    ]
}
