{
    "asset" : {
        "generator" : "Khronos glTF Blender I/O v1.6.16",
        "version" : "2.0"
    },
    "scene" : 0,
    "scenes" : [
        {
            "name" : "Scene",
            "nodes" : [
                0,
                1,
                2
            ]
        }
    ],
    "nodes" : [
        {
            "mesh" : 0,
            "name" : "Cube",
            "rotation" : [
                0,
                -0.7071068286895752,
                0,
                0.7071068286895752
            ],
            "scale" : [
                0.06282395124435425,
                0.06282422691583633,
                0.06282422691583633
            ],
            "translation" : [
                0.014794165268540382,
                1.0371177196502686,
                0.003707830561324954
            ]
        },
        {
            "name" : "Camera",
            "rotation" : [
                0.7071068286895752,
                0,
                0,
                0.7071067094802856
            ],
            "translation" : [
                0.017476016655564308,
                0.713315486907959,
                4.840208053588867
            ]
        },
        {
            "name" : "Point",
            "scale" : [
                3.135484218597412,
                3.135484218597412,
                3.135484218597412
            ],
            "translation" : [
                -0.04699810594320297,
                0.8682687282562256,
                0.5685949921607971
            ]
        }
    ],
    "materials" : [
        {
            "doubleSided" : true,
            "name" : "Material.008",
            "pbrMetallicRoughness" : {
                "baseColorFactor" : [
                    0.8000000715255737,
                    0.009249579161405563,
                    0,
                    1
                ],
                "metallicFactor" : 0,
                "roughnessFactor" : 0.5
            }
        },
        {
            "doubleSided" : true,
            "name" : "Material.007",
            "pbrMetallicRoughness" : {
                "baseColorFactor" : [
                    0,
                    0,
                    0,
                    1
                ],
                "metallicFactor" : 0,
                "roughnessFactor" : 0.5
            }
        }
    ],
    "meshes" : [
        {
            "name" : "Cube.001",
            "primitives" : [
                {
                    "attributes" : {
                        "POSITION" : 0,
                        "NORMAL" : 1,
                        "TEXCOORD_0" : 2
                    },
                    "indices" : 3,
                    "material" : 0
                },
                {
                    "attributes" : {
                        "POSITION" : 4,
                        "NORMAL" : 5,
                        "TEXCOORD_0" : 6
                    },
                    "indices" : 7,
                    "material" : 1
                }
            ]
        }
    ],
    "accessors" : [
        {
            "bufferView" : 0,
            "componentType" : 5126,
            "count" : 869,
            "max" : [
                2.2637271881103516,
                8.912626266479492,
                2.558220386505127
            ],
            "min" : [
                -2.3817644119262695,
                -16.42715835571289,
                -4.354478359222412
            ],
            "type" : "VEC3"
        },
        {
            "bufferView" : 1,
            "componentType" : 5126,
            "count" : 869,
            "type" : "VEC3"
        },
        {
            "bufferView" : 2,
            "componentType" : 5126,
            "count" : 869,
            "type" : "VEC2"
        },
        {
            "bufferView" : 3,
            "componentType" : 5123,
            "count" : 4056,
            "type" : "SCALAR"
        },
        {
            "bufferView" : 4,
            "componentType" : 5126,
            "count" : 260,
            "max" : [
                2.4792275428771973,
                4.571635723114014,
                2.7737207412719727
            ],
            "min" : [
                -2.59726619720459,
                -6.578946590423584,
                -2.302750587463379
            ],
            "type" : "VEC3"
        },
        {
            "bufferView" : 5,
            "componentType" : 5126,
            "count" : 260,
            "type" : "VEC3"
        },
        {
            "bufferView" : 6,
            "componentType" : 5126,
            "count" : 260,
            "type" : "VEC2"
        },
        {
            "bufferView" : 7,
            "componentType" : 5123,
            "count" : 744,
            "type" : "SCALAR"
        }
    ],
    "bufferViews" : [
        {
            "buffer" : 0,
            "byteLength" : 10428,
            "byteOffset" : 0
        },
        {
            "buffer" : 0,
            "byteLength" : 10428,
            "byteOffset" : 10428
        },
        {
            "buffer" : 0,
            "byteLength" : 6952,
            "byteOffset" : 20856
        },
        {
            "buffer" : 0,
            "byteLength" : 8112,
            "byteOffset" : 27808
        },
        {
            "buffer" : 0,
            "byteLength" : 3120,
            "byteOffset" : 35920
        },
        {
            "buffer" : 0,
            "byteLength" : 3120,
            "byteOffset" : 39040
        },
        {
            "buffer" : 0,
            "byteLength" : 2080,
            "byteOffset" : 42160
        },
        {
            "buffer" : 0,
            "byteLength" : 1488,
            "byteOffset" : 44240
        }
    ],
    "buffers" : [
        {
            "byteLength" : 45728,
            "uri" : "data:application/octet-stream;base64,"
        }
    ]
}
