<svg width="34" height="37" viewBox="0 0 34 37" fill="none" xmlns="http://www.w3.org/2000/svg">
<path fill-rule="evenodd" clip-rule="evenodd" d="M0 0H25.2258V13.5094C30.2896 14.9305 34 19.55 34 25.0294C34 31.6406 28.5985 37 21.9355 37C16.8201 37 12.4484 33.8412 10.6934 29.3824H0V0ZM11.8803 29.3824C13.5728 33.2258 17.438 35.9118 21.9354 35.9118C27.9928 35.9118 32.9032 31.0396 32.9032 25.0294C32.9032 20.1567 29.6755 16.032 25.2258 14.6453V29.3824H11.8803ZM24.129 14.3648V28.2941H11.4698C11.1436 27.2635 10.9677 26.1668 10.9677 25.0294C10.9677 19.0193 15.8781 14.1471 21.9354 14.1471C22.6867 14.1471 23.4203 14.222 24.129 14.3648ZM24.129 13.2562C23.4177 13.1266 22.6846 13.0588 21.9355 13.0588C15.2724 13.0588 9.87095 18.4182 9.87095 25.0294C9.87095 26.1612 10.0293 27.2563 10.3251 28.2941H1.09677V1.08823H24.129V13.2562Z" fill="white"/>
</svg>
