<svg width="30" height="30" viewBox="0 0 30 30" fill="none" xmlns="http://www.w3.org/2000/svg">
<path fill-rule="evenodd" clip-rule="evenodd" d="M18.6272 0.441498C19.9908 0.780112 21.2806 1.30528 22.4682 1.98835C22.2992 3.45261 22.7763 4.97728 23.8995 6.1005C25.0227 7.22373 26.5474 7.70083 28.0116 7.53181C28.6947 8.71937 29.2199 10.0093 29.5585 11.3729C28.5986 12.284 28 13.5721 28 15C28 16.4279 28.5986 17.716 29.5585 18.6271C29.2199 19.9907 28.6947 21.2806 28.0116 22.4682C26.5474 22.2992 25.0227 22.7763 23.8995 23.8995C22.7763 25.0227 22.2992 26.5474 22.4682 28.0116C21.2807 28.6947 19.9908 29.2199 18.6272 29.5585C17.7161 28.5986 16.428 28 15 28C13.5721 28 12.284 28.5986 11.3729 29.5585C10.0093 29.2199 8.71937 28.6947 7.5318 28.0116C7.7008 26.5473 7.22371 25.0227 6.1005 23.8995C4.97729 22.7763 3.45265 22.2992 1.98841 22.4682C1.30533 21.2806 0.780148 19.9907 0.441531 18.6271C1.40145 17.7161 2.00003 16.4279 2.00003 15C2.00003 13.5721 1.40145 12.2839 0.441528 11.3729C0.780144 10.0093 1.30532 8.71937 1.9884 7.53182C3.45266 7.70084 4.97732 7.22374 6.10054 6.10052C7.22376 4.9773 7.70086 3.45263 7.53185 1.98837C8.7194 1.30529 10.0093 0.780114 11.3729 0.441498C12.284 1.40142 13.5721 2 15 2C16.428 2 17.7161 1.40142 18.6272 0.441498ZM15 25C20.5229 25 25 20.5228 25 15C25 9.47715 20.5229 4.99999 15 4.99999C9.47718 4.99999 5.00003 9.47715 5.00003 15C5.00003 20.5228 9.47718 25 15 25Z" fill="white"/>
</svg>
