<svg width="50" height="50" viewBox="0 0 50 50" fill="none" xmlns="http://www.w3.org/2000/svg">
<rect width="50" height="50" rx="25" fill="#484A4D"/>
<path fill-rule="evenodd" clip-rule="evenodd" d="M8 7H33.2258V20.5094C38.2896 21.9305 42 26.55 42 32.0294C42 38.6406 36.5985 44 29.9355 44C24.8201 44 20.4484 40.8412 18.6934 36.3824H8V7ZM19.8803 36.3824C21.5728 40.2258 25.438 42.9118 29.9354 42.9118C35.9928 42.9118 40.9032 38.0396 40.9032 32.0294C40.9032 27.1567 37.6755 23.032 33.2258 21.6453V36.3824H19.8803ZM32.129 21.3648V35.2941H19.4698C19.1436 34.2635 18.9677 33.1668 18.9677 32.0294C18.9677 26.0193 23.8781 21.1471 29.9354 21.1471C30.6867 21.1471 31.4203 21.222 32.129 21.3648ZM32.129 20.2562C31.4177 20.1266 30.6846 20.0588 29.9355 20.0588C23.2724 20.0588 17.8709 25.4182 17.8709 32.0294C17.8709 33.1612 18.0293 34.2563 18.3251 35.2941H9.09677V8.08823H32.129V20.2562Z" fill="white"/>
</svg>
