<svg width="50" height="50" viewBox="0 0 50 50" fill="none" xmlns="http://www.w3.org/2000/svg">
<rect width="50" height="50" rx="25" fill="#484A4D"/>
<path fill-rule="evenodd" clip-rule="evenodd" d="M43 18.8333C43 18.1667 42.36 17.6867 41.72 17.8733L31.72 20.79C31.2933 20.9144 31 21.3056 31 21.75V29.1869C31 29.6605 31.3323 30.0692 31.796 30.1658L41.796 32.2492C42.417 32.3785 43 31.9045 43 31.2702V18.8333ZM42 20.3185C42 19.6563 41.368 19.177 40.7304 19.3555L32.7304 21.5955C32.2985 21.7164 32 22.11 32 22.5585V28.1802C32 28.6569 32.3365 29.0673 32.8039 29.1608L40.8039 30.7608C41.4227 30.8845 42 30.4112 42 29.7802V20.3185Z" fill="white"/>
<path fill-rule="evenodd" clip-rule="evenodd" d="M32 15C32 12.7909 30.2091 11 28 11H11C8.79086 11 7 12.7909 7 15V34C7 36.2091 8.79086 38 11 38H28C30.2091 38 32 36.2091 32 34V15ZM31.2857 16C31.2857 13.7909 29.4948 12 27.2857 12H11.7143C9.50515 12 7.71429 13.7909 7.71429 16V33C7.71429 35.2091 9.50515 37 11.7143 37H27.2857C29.4949 37 31.2857 35.2091 31.2857 33V16Z" fill="white"/>
</svg>
