<?xml version="1.0" encoding="UTF-8" standalone="no"?>
<!-- Created with Inkscape (http://www.inkscape.org/) -->

<svg
   width="50"
   height="50"
   viewBox="0 0 13.229166 13.229167"
   version="1.1"
   id="svg5"
   inkscape:version="1.1.1 (3bf5ae0d25, 2021-09-20)"
   sodipodi:docname="screenshot.svg"
   xmlns:inkscape="http://www.inkscape.org/namespaces/inkscape"
   xmlns:sodipodi="http://sodipodi.sourceforge.net/DTD/sodipodi-0.dtd"
   xmlns="http://www.w3.org/2000/svg"
   xmlns:svg="http://www.w3.org/2000/svg">
  <sodipodi:namedview
     id="namedview7"
     pagecolor="#8e00ff"
     bordercolor="#999999"
     borderopacity="1"
     inkscape:pageshadow="0"
     inkscape:pageopacity="0"
     inkscape:pagecheckerboard="0"
     inkscape:document-units="px"
     showgrid="false"
     units="px"
     inkscape:zoom="10.248373"
     inkscape:cx="29.614457"
     inkscape:cy="22.101069"
     inkscape:window-width="1920"
     inkscape:window-height="1017"
     inkscape:window-x="-8"
     inkscape:window-y="-8"
     inkscape:window-maximized="1"
     inkscape:current-layer="layer1" />
  <defs
     id="defs2" />
  <g
     inkscape:label="Layer 1"
     inkscape:groupmode="layer"
     id="layer1">
    <g
       id="g933">
      <rect
         style="fill:#ffffff;fill-opacity:1;stroke:#ffffff;stroke-width:0;stroke-miterlimit:4;stroke-dasharray:none"
         id="rect3168"
         width="0.39687422"
         height="3.9687502"
         x="-13.229166"
         y="-13.229167"
         ry="0.19843711"
         transform="scale(-1)" />
      <rect
         style="fill:#ffffff;fill-opacity:1;stroke:#ffffff;stroke-width:0;stroke-miterlimit:4;stroke-dasharray:none"
         id="rect3170"
         width="3.9687481"
         height="0.39687392"
         x="-13.229166"
         y="-13.229166"
         ry="0.19843696"
         transform="scale(-1)" />
    </g>
    <path
       id="rect4236"
       style="fill:#ffffff;fill-opacity:1;stroke:#000000;stroke-width:0;stroke-miterlimit:4;stroke-dasharray:none;stroke-opacity:1"
       d="m 5.5717531,2.0505207 c -0.6522775,0 -1.1771892,0.5249119 -1.1771892,1.1771892 0,0.00451 -4.94e-5,0.00892 0,0.013436 H 2.9166181 c -0.8828405,-2e-7 -1.5937013,0.7108603 -1.5937013,1.5937011 v 4.7500973 c 0,0.8828407 0.7108608,1.5937017 1.5937013,1.5937017 h 7.3959309 c 0.882842,0 1.593701,-0.710861 1.593701,-1.5937017 V 4.834847 c 0,-0.8828408 -0.710859,-1.5937013 -1.593701,-1.5937013 H 8.8346029 c 5e-5,-0.0045 0,-0.0089 0,-0.013436 0,-0.6522773 -0.5249116,-1.1771892 -1.1771891,-1.1771892 z m 0.091467,0.4165121 h 1.9027261 c 0.5952175,0 1.0743531,0.4769181 1.0743531,1.0697022 0,0.00412 4.57e-5,0.0078 0,0.011885 h 1.3487548 c 0.8056119,0 1.4541759,0.6461717 1.4541759,1.4484905 v 4.3170494 c 0,0.8023191 -0.648564,1.4479741 -1.4541759,1.4479741 H 3.2401125 c -0.8056111,0 -1.4541749,-0.645655 -1.4541749,-1.4479741 v -4.317049 c 0,-0.8023185 0.6485638,-1.4484905 1.4541749,-1.4484905 h 1.3487548 c -4.52e-5,-0.00411 0,-0.00779 0,-0.011885 0,-0.5927844 0.4791356,-1.0697022 1.0743528,-1.0697026 z" />
    <g
       id="g1419"
       transform="matrix(-1,0,0,1,13.229167,0)">
      <rect
         style="fill:#ffffff;fill-opacity:1;stroke:#ffffff;stroke-width:0;stroke-miterlimit:4;stroke-dasharray:none"
         id="rect1415"
         width="0.39687422"
         height="3.9687502"
         x="-13.229166"
         y="-13.229167"
         ry="0.19843711"
         transform="scale(-1)" />
      <rect
         style="fill:#ffffff;fill-opacity:1;stroke:#ffffff;stroke-width:0;stroke-miterlimit:4;stroke-dasharray:none"
         id="rect1417"
         width="3.9687481"
         height="0.39687392"
         x="-13.229166"
         y="-13.229166"
         ry="0.19843696"
         transform="scale(-1)" />
    </g>
    <g
       id="g1425"
       transform="rotate(180,6.6145835,6.6145837)">
      <rect
         style="fill:#ffffff;fill-opacity:1;stroke:#ffffff;stroke-width:0;stroke-miterlimit:4;stroke-dasharray:none"
         id="rect1421"
         width="0.39687422"
         height="3.9687502"
         x="-13.229166"
         y="-13.229167"
         ry="0.19843711"
         transform="scale(-1)" />
      <rect
         style="fill:#ffffff;fill-opacity:1;stroke:#ffffff;stroke-width:0;stroke-miterlimit:4;stroke-dasharray:none"
         id="rect1423"
         width="3.9687481"
         height="0.39687392"
         x="-13.229166"
         y="-13.229166"
         ry="0.19843696"
         transform="scale(-1)" />
    </g>
    <g
       id="g1431"
       transform="matrix(1,0,0,-1,-3.088381e-8,13.229167)">
      <rect
         style="fill:#ffffff;fill-opacity:1;stroke:#ffffff;stroke-width:0;stroke-miterlimit:4;stroke-dasharray:none"
         id="rect1427"
         width="0.39687422"
         height="3.9687502"
         x="-13.229166"
         y="-13.229167"
         ry="0.19843711"
         transform="scale(-1)" />
      <rect
         style="fill:#ffffff;fill-opacity:1;stroke:#ffffff;stroke-width:0;stroke-miterlimit:4;stroke-dasharray:none"
         id="rect1429"
         width="3.9687481"
         height="0.39687392"
         x="-13.229166"
         y="-13.229166"
         ry="0.19843696"
         transform="scale(-1)" />
    </g>
    <path
       id="path2460"
       style="fill:#ffffff;stroke:#000000;stroke-width:0"
       d="M 6.6145832,4.2524536 A 2.3622651,2.3622651 0 0 0 4.2524536,6.6145832 2.3622651,2.3622651 0 0 0 6.6145832,8.9767128 2.3622651,2.3622651 0 0 0 8.9767128,6.6145832 2.3622651,2.3622651 0 0 0 6.6145832,4.2524536 Z m 0,0.464571 A 1.8975572,1.8975572 0 0 1 8.5121417,6.6145832 1.8975572,1.8975572 0 0 1 6.6145832,8.5121418 1.8975572,1.8975572 0 0 1 4.7170246,6.6145832 1.8975572,1.8975572 0 0 1 6.6145832,4.7170246 Z" />
  </g>
</svg>
