<?xml version="1.0" encoding="UTF-8" standalone="no"?>
<!-- Created with Inkscape (http://www.inkscape.org/) -->

<svg
   width="50"
   height="50"
   viewBox="0 0 13.229167 13.229167"
   version="1.1"
   id="svg734"
   inkscape:version="1.1.1 (3bf5ae0d25, 2021-09-20)"
   sodipodi:docname="zoominf.svg"
   xmlns:inkscape="http://www.inkscape.org/namespaces/inkscape"
   xmlns:sodipodi="http://sodipodi.sourceforge.net/DTD/sodipodi-0.dtd"
   xmlns="http://www.w3.org/2000/svg"
   xmlns:svg="http://www.w3.org/2000/svg">
  <sodipodi:namedview
     id="namedview736"
     pagecolor="#000000"
     bordercolor="#999999"
     borderopacity="1"
     inkscape:pageshadow="0"
     inkscape:pageopacity="0"
     inkscape:pagecheckerboard="0"
     inkscape:document-units="mm"
     showgrid="false"
     showguides="true"
     inkscape:zoom="11.313709"
     inkscape:cx="15.688932"
     inkscape:cy="27.179417"
     inkscape:window-width="1920"
     inkscape:window-height="1017"
     inkscape:window-x="-8"
     inkscape:window-y="-8"
     inkscape:window-maximized="1"
     inkscape:current-layer="layer4"
     units="px"
     fit-margin-top="0"
     fit-margin-left="0"
     fit-margin-right="0"
     fit-margin-bottom="0"
     width="50px" />
  <defs
     id="defs731" />
  <g
     inkscape:groupmode="layer"
     id="layer2"
     inkscape:label="Layer 2"
     style="display:inline"
     transform="translate(-0.01374245,-0.00284516)" />
  <g
     inkscape:groupmode="layer"
     id="layer4"
     inkscape:label="Layer 3"
     style="display:inline"
     transform="translate(-0.01374245,-0.00284516)">
    <path
       id="rect347"
       style="display:inline;fill:#ffffff;stroke:#ffffff;stroke-width:0;stroke-opacity:0"
       d="m 1.679753,1.7894496 a 5.7519967,5.7519967 0 0 0 0.092612,8.1338342 5.7519967,5.7519967 0 0 0 6.9620255,0.8254212 l 2.0167295,1.971322 c 0.584625,0.571461 1.515221,0.560866 2.086682,-0.02376 0.571461,-0.584624 0.560865,-1.51522 -0.02376,-2.086681 L 10.797313,8.6382644 A 5.7519967,5.7519967 0 0 0 9.8135873,1.6968378 5.7519967,5.7519967 0 0 0 1.679753,1.7894496 Z M 2.3104442,2.4059405 A 4.8701771,4.8701771 0 0 1 9.1970964,2.3275291 4.8701771,4.8701771 0 0 1 9.2759434,9.214607 4.8701771,4.8701771 0 0 1 2.3888557,9.2925926 4.8701771,4.8701771 0 0 1 2.3104442,2.4059405 Z" />
    <rect
       style="fill:#ffffff;stroke:#ffffff;stroke-width:0;stroke-opacity:0"
       id="rect1645"
       width="1.002537"
       height="8.0266151"
       x="-0.60675973"
       y="4.1907449"
       ry="0.49649209"
       transform="rotate(-45.652341)" />
    <rect
       style="display:inline;fill:#ffffff;stroke:#ffffff;stroke-width:0;stroke-opacity:0"
       id="rect1645-9"
       width="8.0261993"
       height="1.0025378"
       x="-4.1185913"
       y="7.7027836"
       ry="0.50126892"
       transform="rotate(-45.652341)" />
  </g>
  <g
     inkscape:label="Layer 1"
     inkscape:groupmode="layer"
     id="layer1"
     style="display:none"
     transform="translate(-0.01374245,-0.00284516)">
    <g
       id="g14031"
       transform="matrix(1.3056892,0,0,1.3056892,-3.4106699,-1.972317)">
      <path
         id="rect4984"
         style="display:inline;fill:#ffffff;fill-opacity:1;stroke:#000000;stroke-width:0;stroke-miterlimit:4;stroke-dasharray:none;stroke-opacity:1"
         d="M 18.003906,2.1425781 A 16.568434,16.568434 0 0 0 10.703125,3.9609375 16.568434,16.568434 0 0 0 3.5058594,26.259766 16.568434,16.568434 0 0 0 25.804688,33.455078 16.568434,16.568434 0 0 0 27.03125,32.759766 l 13.876953,14.507812 c 1.488784,1.556508 3.640915,1.898159 4.824219,0.765625 1.183303,-1.132533 0.938003,-3.297009 -0.550781,-4.853515 L 31.410156,28.779297 A 16.568434,16.568434 0 0 0 33.001953,11.15625 16.568434,16.568434 0 0 0 18.003906,2.1425781 Z m -0.0078,1.1992188 A 15.524185,15.460214 62.885092 0 1 32.015625,11.804688 15.524185,15.460214 62.885092 0 1 25.330078,32.669922 15.524185,15.460214 62.885092 0 1 4.4941406,25.898438 15.524185,15.460214 62.885092 0 1 11.179688,5.0332031 15.524185,15.460214 62.885092 0 1 17.996094,3.3417969 Z"
         transform="matrix(0.20263883,0,0,0.20263883,2.6226857,1.5127353)" />
      <rect
         style="display:inline;fill:#ffffff;fill-opacity:1;stroke:#000000;stroke-width:0;stroke-miterlimit:4;stroke-dasharray:none"
         id="rect2314"
         width="0.32159975"
         height="5.0019379"
         x="1.3127952"
         y="5.6269727"
         ry="0.34052041"
         rx="0.16079988"
         transform="matrix(0.77196528,-0.6356647,0.63573955,0.77190364,0,0)" />
      <rect
         style="display:inline;fill:#ffffff;fill-opacity:1;stroke:#000000;stroke-width:0;stroke-miterlimit:4;stroke-dasharray:none"
         id="rect11110"
         width="0.32159975"
         height="5.0019374"
         x="-8.2809048"
         y="-0.98323447"
         ry="0.34052038"
         rx="0.16079988"
         transform="matrix(-0.63153634,-0.77534628,0.77528504,-0.63161151,0,0)" />
    </g>
    <g
       id="g18303"
       style="stroke-width:0.4;stroke-miterlimit:4;stroke-dasharray:none">
      <g
         id="g18364"
         style="stroke-width:0.4;stroke-miterlimit:4;stroke-dasharray:none" />
    </g>
  </g>
</svg>
