<?xml version="1.0" encoding="UTF-8"?>
<!-- 2020-09-03 16:39:08 Generated by QCAD 3.24.3 SVG Exporter PG -->
<svg width="882.5518mm" height="533.5857mm" viewBox="-436.3459 -167.0615 44.1276 26.6793" version="1.1" xmlns="http://www.w3.org/2000/svg" style="stroke-linecap:round;stroke-linejoin:round;fill:none">
    <g transform="scale(1,-1)">
        <!-- Line -->
        <line x1="-420.2533" y1="165.1972" x2="-420.2533" y2="149.4972" style="stroke:#333333;stroke-width:0.0125;"/>
        <!-- Line -->
        <line x1="-420.2533" y1="165.1972" x2="-410.1533" y2="165.1972" style="stroke:#333333;stroke-width:0.0125;"/>
        <!-- Line -->
        <line x1="-419.9533" y1="164.8972" x2="-410.4533" y2="164.8972" style="stroke:#000000;stroke-width:0.0125;"/>
        <!-- Line -->
        <line x1="-419.9533" y1="164.8972" x2="-419.9533" y2="149.7972" style="stroke:#333333;stroke-width:0.0125;"/>
        <!-- Line -->
        <line x1="-420.2533" y1="149.4972" x2="-414.7033" y2="149.4972" style="stroke:#333333;stroke-width:0.0125;"/>
        <!-- Line -->
        <line x1="-419.9533" y1="149.7972" x2="-414.7033" y2="149.7972" style="stroke:#333333;stroke-width:0.0125;"/>
        <!-- Line -->
        <line x1="-410.1533" y1="149.4972" x2="-410.1533" y2="157.6972" style="stroke:#000000;stroke-width:0.0125;"/>
        <!-- Line -->
        <line x1="-410.4533" y1="149.4972" x2="-410.4533" y2="158.4972" style="stroke:#000000;stroke-width:0.0125;"/>
        <!-- Line -->
        <line x1="-407.6533" y1="157.9972" x2="-407.6533" y2="162.9972" style="stroke:#000000;stroke-width:0.0125;"/>
        <!-- Line -->
        <line x1="-407.3533" y1="157.6972" x2="-407.3533" y2="163.2972" style="stroke:#000000;stroke-width:0.0125;"/>
        <!-- Line -->
        <line x1="-410.1533" y1="163.2972" x2="-407.3533" y2="163.2972" style="stroke:#000000;stroke-width:0.0125;"/>
        <!-- Line -->
        <line x1="-410.1533" y1="162.9972" x2="-407.6533" y2="162.9972" style="stroke:#000000;stroke-width:0.0125;"/>
        <!-- Line -->
        <line x1="-410.1533" y1="157.9972" x2="-407.6533" y2="157.9972" style="stroke:#333333;stroke-width:0.0125;"/>
        <!-- Line -->
        <line x1="-410.1533" y1="157.6972" x2="-407.3533" y2="157.6972" style="stroke:#333333;stroke-width:0.0125;"/>
        <!-- Line -->
        <line x1="-410.1533" y1="163.2972" x2="-410.1533" y2="165.1972" style="stroke:#000000;stroke-width:0.0125;"/>
        <!-- Line -->
        <line x1="-410.1533" y1="157.9972" x2="-410.1533" y2="158.4972" style="stroke:#333333;stroke-width:0.0125;"/>
        <!-- Line -->
        <line x1="-414.4033" y1="151.4865" x2="-414.4033" y2="149.1472" style="stroke:#333333;stroke-width:0.0125;"/>
        <!-- Line -->
        <line x1="-412.2033" y1="155.3972" x2="-412.2033" y2="149.4972" style="stroke:#000000;stroke-width:0.0125;"/>
        <!-- Line -->
        <line x1="-411.9533" y1="155.5472" x2="-411.9533" y2="149.4972" style="stroke:#000000;stroke-width:0.0125;"/>
        <!-- Line -->
        <line x1="-410.4533" y1="149.4972" x2="-410.1533" y2="149.4972" style="stroke:#333333;stroke-width:0.0125;"/>
        <!-- Line -->
        <line x1="-412.2033" y1="149.4972" x2="-411.9533" y2="149.4972" style="stroke:#333333;stroke-width:0.0125;"/>
        <!-- Line -->
        <line x1="-418.1533" y1="151.9972" x2="-415.3382" y2="151.9972" style="stroke:#333333;stroke-width:0.0125;"/>
        <!-- Line -->
        <line x1="-418.0033" y1="152.2972" x2="-415.214" y2="152.2972" style="stroke:#333333;stroke-width:0.0125;"/>
        <!-- Line -->
        <line x1="-418.0033" y1="155.3972" x2="-412.2033" y2="155.3972" style="stroke:#333333;stroke-width:0.0125;"/>
        <!-- Line -->
        <line x1="-418.1533" y1="155.5472" x2="-411.9533" y2="155.5472" style="stroke:#333333;stroke-width:0.0125;"/>
        <!-- Line -->
        <line x1="-418.1533" y1="155.5472" x2="-418.1533" y2="155.0972" style="stroke:#333333;stroke-width:0.0125;"/>
        <!-- Line -->
        <line x1="-418.0033" y1="155.3972" x2="-418.0033" y2="155.0972" style="stroke:#333333;stroke-width:0.0125;"/>
        <!-- Line -->
        <line x1="-414.4033" y1="151.4865" x2="-415.214" y2="152.2972" style="stroke:#333333;stroke-width:0.0125;"/>
        <!-- Line -->
        <line x1="-414.7033" y1="151.3622" x2="-415.3382" y2="151.9972" style="stroke:#333333;stroke-width:0.0125;"/>
        <!-- Line -->
        <line x1="-414.7033" y1="151.3622" x2="-414.7033" y2="149.7972" style="stroke:#333333;stroke-width:0.0125;"/>
        <!-- Line -->
        <line x1="-414.7033" y1="149.1472" x2="-414.4033" y2="149.1472" style="stroke:#333333;stroke-width:0.0125;"/>
        <!-- Line -->
        <line x1="-414.7033" y1="149.4972" x2="-414.7033" y2="149.1472" style="stroke:#333333;stroke-width:0.0125;"/>
        <!-- Line -->
        <line x1="-410.4533" y1="158.4972" x2="-410.1533" y2="158.4972" style="stroke:#333333;stroke-width:0.0125;"/>
        <!-- Line -->
        <line x1="-410.4533" y1="161.7472" x2="-410.1533" y2="161.7472" style="stroke:#ff0000;stroke-width:0.0125;"/>
        <!-- Line -->
        <line x1="-410.4533" y1="162.5472" x2="-410.1533" y2="162.5472" style="stroke:#333333;stroke-width:0.0125;"/>
        <!-- Line -->
        <line x1="-410.1533" y1="162.5472" x2="-410.1533" y2="162.9972" style="stroke:#000000;stroke-width:0.0125;"/>
        <!-- Line -->
        <line x1="-410.4533" y1="162.5472" x2="-410.4533" y2="164.8972" style="stroke:#000000;stroke-width:0.0125;"/>
        <!-- Line -->
        <line x1="-410.4533" y1="161.7472" x2="-410.4533" y2="158.4972" style="stroke:#ff0000;stroke-width:0.0125;"/>
        <!-- Line -->
        <line x1="-410.1533" y1="158.4972" x2="-410.1533" y2="161.7472" style="stroke:#ff0000;stroke-width:0.0125;"/>
        <!-- Line -->
        <line x1="-410.4533" y1="162.5472" x2="-410.4533" y2="161.7472" style="stroke:#808080;stroke-width:0.0125;"/>
        <!-- Line -->
        <line x1="-410.1533" y1="162.5472" x2="-409.3533" y2="162.5472" style="stroke:#808080;stroke-width:0.0125;"/>
        <!-- Line -->
        <line x1="-409.3533" y1="162.5472" x2="-409.3533" y2="162.4972" style="stroke:#808080;stroke-width:0.0125;"/>
        <!-- Line -->
        <line x1="-410.1533" y1="162.4972" x2="-409.3533" y2="162.4972" style="stroke:#808080;stroke-width:0.0125;"/>
        <!-- Line -->
        <line x1="-410.1533" y1="162.5472" x2="-410.1533" y2="162.4972" style="stroke:#808080;stroke-width:0.0125;"/>
        <!-- Arc -->
        <path d="M-410.1533,161.7472 A0.9268,0.9268 0 0,1 -409.3533,162.4972" style="stroke:#808080;stroke-width:0.0125;"/>
        <!-- Line -->
        <line x1="-410.2033" y1="162.5472" x2="-410.2033" y2="161.7472" style="stroke:#808080;stroke-width:0.0125;"/>
        <!-- Line -->
        <line x1="-410.5726" y1="162.1566" x2="-410.4533" y2="162.1566" style="stroke:#808080;stroke-width:0.0125;"/>
        <!-- Line -->
        <line x1="-410.4533" y1="162.2133" x2="-410.2033" y2="162.2133" style="stroke:#808080;stroke-width:0.0125;"/>
        <!-- Line -->
        <line x1="-410.2033" y1="162.1566" x2="-410.0839" y2="162.1566" style="stroke:#808080;stroke-width:0.0125;"/>
        <!-- Line -->
        <line x1="-418.1533" y1="155.0972" x2="-418.9533" y2="155.0972" style="stroke:#808080;stroke-width:0.0125;"/>
        <!-- Line -->
        <line x1="-418.9533" y1="155.0972" x2="-418.9533" y2="155.0472" style="stroke:#808080;stroke-width:0.0125;"/>
        <!-- Line -->
        <line x1="-418.1533" y1="155.0472" x2="-418.9533" y2="155.0472" style="stroke:#808080;stroke-width:0.0125;"/>
        <!-- Arc -->
        <path d="M-418.9533,155.0472 A0.9268,0.9268 0 0,1 -418.1533,154.2972" style="stroke:#808080;stroke-width:0.0125;"/>
        <!-- Line -->
        <line x1="-418.1533" y1="155.0972" x2="-418.0033" y2="155.0972" style="stroke:#333333;stroke-width:0.0125;"/>
        <!-- Line -->
        <line x1="-418.1533" y1="154.2972" x2="-418.0033" y2="154.2972" style="stroke:#333333;stroke-width:0.0125;"/>
        <!-- Line -->
        <line x1="-418.0033" y1="154.2972" x2="-418.0033" y2="152.2972" style="stroke:#333333;stroke-width:0.0125;"/>
        <!-- Line -->
        <line x1="-418.1533" y1="154.2972" x2="-418.1533" y2="151.9972" style="stroke:#333333;stroke-width:0.0125;"/>
        <!-- Line -->
        <line x1="-418.1533" y1="155.0972" x2="-418.1533" y2="155.0972" style="stroke:#808080;stroke-width:0.0125;"/>
        <!-- Line -->
        <line x1="-418.1533" y1="155.0972" x2="-418.1533" y2="155.0472" style="stroke:#808080;stroke-width:0.0125;"/>
        <!-- Line -->
        <line x1="-418.0033" y1="155.0972" x2="-418.0033" y2="154.2972" style="stroke:#808080;stroke-width:0.0125;"/>
        <!-- Line -->
        <line x1="-418.1333" y1="155.0972" x2="-418.1333" y2="154.2972" style="stroke:#808080;stroke-width:0.0125;"/>
        <!-- Line -->
        <line x1="-408.7319" y1="159.0074" x2="-408.7319" y2="160.3572" style="stroke:#808080;stroke-width:0.0125;"/>
        <!-- Line -->
        <line x1="-408.6819" y1="158.9574" x2="-408.6819" y2="160.386" style="stroke:#808080;stroke-width:0.0125;"/>
        <!-- Line -->
        <line x1="-407.6533" y1="159.9259" x2="-408.6819" y2="159.9259" style="stroke:#000000;stroke-width:0.0125;"/>
        <!-- Line -->
        <line x1="-407.6533" y1="159.7059" x2="-408.6819" y2="159.7059" style="stroke:#000000;stroke-width:0.0125;"/>
        <!-- Line -->
        <line x1="-407.6533" y1="159.4859" x2="-408.6819" y2="159.4859" style="stroke:#000000;stroke-width:0.0125;"/>
        <!-- Line -->
        <line x1="-407.6533" y1="159.2659" x2="-408.6819" y2="159.2659" style="stroke:#000000;stroke-width:0.0125;"/>
        <!-- Line -->
        <line x1="-407.6533" y1="159.0459" x2="-408.6819" y2="159.0459" style="stroke:#000000;stroke-width:0.0125;"/>
        <!-- Line -->
        <line x1="-409.1657" y1="159.0459" x2="-410.1533" y2="159.0459" style="stroke:#000000;stroke-width:0.0125;"/>
        <!-- Line -->
        <line x1="-409.1657" y1="159.2659" x2="-410.1533" y2="159.2659" style="stroke:#000000;stroke-width:0.0125;"/>
        <!-- Line -->
        <line x1="-409.1657" y1="159.4859" x2="-410.1533" y2="159.4859" style="stroke:#000000;stroke-width:0.0125;"/>
        <!-- Line -->
        <line x1="-409.1657" y1="159.7863" x2="-409.1157" y2="159.7863" style="stroke:#808080;stroke-width:0.0125;"/>
        <!-- Line -->
        <line x1="-409.1157" y1="159.0074" x2="-408.7319" y2="159.0074" style="stroke:#808080;stroke-width:0.0125;"/>
        <!-- Line -->
        <line x1="-409.1157" y1="159.7863" x2="-409.1157" y2="159.0074" style="stroke:#808080;stroke-width:0.0125;"/>
        <!-- Line -->
        <line x1="-409.1657" y1="158.9574" x2="-408.6819" y2="158.9574" style="stroke:#808080;stroke-width:0.0125;"/>
        <!-- Line -->
        <line x1="-409.1657" y1="159.7863" x2="-409.1657" y2="158.9574" style="stroke:#808080;stroke-width:0.0125;"/>
        <!-- Line -->
        <line x1="-410.1533" y1="159.7863" x2="-409.1657" y2="159.7863" style="stroke:#000000;stroke-width:0.0125;"/>
        <!-- Line -->
        <line x1="-407.6533" y1="160.3659" x2="-408.6819" y2="160.3659" style="stroke:#000000;stroke-width:0.0125;"/>
        <!-- Line -->
        <line x1="-407.6533" y1="160.1459" x2="-408.6819" y2="160.1459" style="stroke:#000000;stroke-width:0.0125;"/>
        <!-- Line -->
        <line x1="-408.1676" y1="160.3659" x2="-408.1676" y2="158.4327" style="stroke:#000000;stroke-width:0.0125;"/>
        <!-- Line -->
        <line x1="-409.6595" y1="159.7863" x2="-409.6595" y2="158.4327" style="stroke:#000000;stroke-width:0.0125;"/>
        <!-- Line -->
        <line x1="-408.1676" y1="158.4327" x2="-409.6595" y2="158.4327" style="stroke:#000000;stroke-width:0.0125;"/>
        <!-- Line -->
        <line x1="-408.1399" y1="160.6952" x2="-407.6044" y2="161.004" style="stroke:#000000;stroke-width:0.0125;"/>
        <!-- Line -->
        <line x1="-408.2145" y1="160.7467" x2="-408.1399" y2="160.6952" style="stroke:#000000;stroke-width:0.0125;"/>
        <!-- Line -->
        <line x1="-408.1836" y1="160.564" x2="-408.2145" y2="160.7467" style="stroke:#000000;stroke-width:0.0125;"/>
        <!-- Line -->
        <line x1="-408.266" y1="160.6258" x2="-408.1836" y2="160.564" style="stroke:#000000;stroke-width:0.0125;"/>
        <!-- Line -->
        <line x1="-408.8015" y1="160.317" x2="-408.266" y2="160.6258" style="stroke:#000000;stroke-width:0.0125;"/>
        <!-- Line -->
        <line x1="-417.4133" y1="151.9972" x2="-417.4133" y2="151.0255" style="stroke:#808080;stroke-width:0.0125;"/>
        <!-- Line -->
        <line x1="-417.4133" y1="151.0755" x2="-415.788" y2="151.0755" style="stroke:#808080;stroke-width:0.0125;"/>
        <!-- Line -->
        <line x1="-417.1933" y1="151.9972" x2="-417.1933" y2="151.0755" style="stroke:#000000;stroke-width:0.0125;"/>
        <!-- Line -->
        <line x1="-416.9733" y1="151.9972" x2="-416.9733" y2="151.0755" style="stroke:#000000;stroke-width:0.0125;"/>
        <!-- Line -->
        <line x1="-416.7533" y1="151.9972" x2="-416.7533" y2="151.0755" style="stroke:#000000;stroke-width:0.0125;"/>
        <!-- Line -->
        <line x1="-416.5333" y1="151.9972" x2="-416.5333" y2="151.0755" style="stroke:#000000;stroke-width:0.0125;"/>
        <!-- Line -->
        <line x1="-416.3133" y1="151.9972" x2="-416.3133" y2="151.0755" style="stroke:#000000;stroke-width:0.0125;"/>
        <!-- Line -->
        <line x1="-416.0933" y1="151.8139" x2="-416.0933" y2="151.0755" style="stroke:#000000;stroke-width:0.0125;"/>
        <!-- Line -->
        <line x1="-414.8533" y1="150.7172" x2="-414.8533" y2="149.9972" style="stroke:#808080;stroke-width:0.0125;"/>
        <!-- Line -->
        <line x1="-414.8533" y1="149.9972" x2="-415.5733" y2="149.9972" style="stroke:#808080;stroke-width:0.0125;"/>
        <!-- Line -->
        <line x1="-414.8533" y1="150.7172" x2="-415.5733" y2="150.7172" style="stroke:#808080;stroke-width:0.0125;"/>
        <!-- Line -->
        <line x1="-415.5733" y1="150.7172" x2="-415.5733" y2="149.9972" style="stroke:#808080;stroke-width:0.0125;"/>
        <!-- Line -->
        <line x1="-414.9033" y1="150.6672" x2="-415.5233" y2="150.6672" style="stroke:#808080;stroke-width:0.0125;"/>
        <!-- Line -->
        <line x1="-415.5233" y1="150.6672" x2="-415.5233" y2="150.0472" style="stroke:#808080;stroke-width:0.0125;"/>
        <!-- Line -->
        <line x1="-414.9033" y1="150.0472" x2="-415.5233" y2="150.0472" style="stroke:#808080;stroke-width:0.0125;"/>
        <!-- Line -->
        <line x1="-414.9033" y1="150.6672" x2="-414.9033" y2="150.0472" style="stroke:#808080;stroke-width:0.0125;"/>
        <!-- Line -->
        <line x1="-417.4133" y1="151.0255" x2="-415.7699" y2="151.0255" style="stroke:#808080;stroke-width:0.0125;"/>
        <!-- Hatch -->
        <path d="M-410.1533,165.1972 L-420.2533,165.1972 L-420.2533,149.4972 L-414.7033,149.4972 L-414.7033,149.1472 L-414.4033,149.1472 L-414.4033,151.4865 L-415.214,152.2972 L-418.0033,152.2972 L-418.0033,154.2972 L-418.1533,154.2972 L-418.1533,151.9972 L-415.3382,151.9972 L-414.7033,151.3622 L-414.7033,149.7972 L-419.9533,149.7972 L-419.9533,164.8972 L-410.4533,164.8972 L-410.4533,162.5472 L-410.1533,162.5472 L-410.1533,162.9972 L-407.6533,162.9972 L-407.6533,157.9972 L-410.1533,157.9972 L-410.1533,158.4972 L-410.4533,158.4972 L-410.4533,149.4972 L-410.1533,149.4972 L-410.1533,157.6972 L-407.3533,157.6972 L-407.3533,163.2972 L-410.1533,163.2972 ZM-411.9533,155.5472 L-418.1533,155.5472 L-418.1533,155.0972 L-418.0033,155.0972 L-418.0033,155.3972 L-412.2033,155.3972 L-412.2033,149.4972 L-411.9533,149.4972 Z" style="fill:#000000;fill-rule:evenodd;"/>
        <!-- Line -->
        <line x1="-416.2051" y1="152.1658" x2="-416.043" y2="151.6559" style="stroke:#808080;stroke-width:0.0125;"/>
        <!-- Line -->
        <line x1="-416.043" y1="151.6559" x2="-416.0869" y2="151.5611" style="stroke:#808080;stroke-width:0.0125;"/>
        <!-- Line -->
        <line x1="-416.0869" y1="151.5611" x2="-415.9665" y2="151.5675" style="stroke:#808080;stroke-width:0.0125;"/>
        <!-- Line -->
        <line x1="-415.9665" y1="151.5675" x2="-415.7076" y2="150.854" style="stroke:#808080;stroke-width:0.0125;"/>
        <!-- Line -->
        <line x1="-418.1333" y1="154.7523" x2="-418.0033" y2="154.7523" style="stroke:#808080;stroke-width:0.0125;"/>
        <!-- Line -->
        <line x1="-418.0033" y1="154.6956" x2="-417.8839" y2="154.6956" style="stroke:#808080;stroke-width:0.0125;"/>
        <!-- Line -->
        <line x1="-418.2526" y1="154.6956" x2="-418.1333" y2="154.6956" style="stroke:#808080;stroke-width:0.0125;"/>
        <!-- Line -->
        <line x1="-418.1333" y1="154.7523" x2="-418.1333" y2="154.6956" style="stroke:#808080;stroke-width:0.0125;"/>
        <!-- Line -->
        <line x1="-418.0033" y1="154.7523" x2="-418.0033" y2="154.6956" style="stroke:#808080;stroke-width:0.0125;"/>
        <!-- Line -->
        <line x1="-410.4533" y1="162.2133" x2="-410.4533" y2="162.1566" style="stroke:#808080;stroke-width:0.0125;"/>
        <!-- Line -->
        <line x1="-410.2033" y1="162.2133" x2="-410.2033" y2="162.1566" style="stroke:#808080;stroke-width:0.0125;"/>
        <!-- Line -->
        <line x1="-418.2533" y1="162.3972" x2="-417.4033" y2="162.3972" style="stroke:#808080;stroke-width:0.0125;"/>
        <!-- Line -->
        <line x1="-418.2533" y1="161.0972" x2="-417.4033" y2="161.0972" style="stroke:#808080;stroke-width:0.0125;"/>
        <!-- Line -->
        <line x1="-416.9033" y1="162.3972" x2="-416.9033" y2="161.0972" style="stroke:#808080;stroke-width:0.0125;"/>
        <!-- Line -->
        <line x1="-416.0533" y1="162.3972" x2="-416.0533" y2="161.0972" style="stroke:#808080;stroke-width:0.0125;"/>
        <!-- Line -->
        <line x1="-415.5533" y1="162.3972" x2="-415.5533" y2="161.0972" style="stroke:#808080;stroke-width:0.0125;"/>
        <!-- Line -->
        <line x1="-414.7033" y1="162.3972" x2="-414.7033" y2="161.0972" style="stroke:#808080;stroke-width:0.0125;"/>
        <!-- Line -->
        <line x1="-414.2033" y1="162.3972" x2="-414.2033" y2="161.0972" style="stroke:#808080;stroke-width:0.0125;"/>
        <!-- Line -->
        <line x1="-413.3533" y1="162.3972" x2="-413.3533" y2="161.0972" style="stroke:#808080;stroke-width:0.0125;"/>
        <!-- Line -->
        <line x1="-417.4033" y1="162.3972" x2="-417.4033" y2="161.0972" style="stroke:#808080;stroke-width:0.0125;"/>
        <!-- Line -->
        <line x1="-418.2533" y1="162.3972" x2="-418.2533" y2="161.0972" style="stroke:#808080;stroke-width:0.0125;"/>
        <!-- Line -->
        <line x1="-416.9033" y1="162.3972" x2="-416.0533" y2="162.3972" style="stroke:#808080;stroke-width:0.0125;"/>
        <!-- Line -->
        <line x1="-416.9033" y1="161.0972" x2="-416.0533" y2="161.0972" style="stroke:#808080;stroke-width:0.0125;"/>
        <!-- Line -->
        <line x1="-415.5533" y1="161.0972" x2="-414.7033" y2="161.0972" style="stroke:#808080;stroke-width:0.0125;"/>
        <!-- Line -->
        <line x1="-415.5533" y1="162.3972" x2="-414.7033" y2="162.3972" style="stroke:#808080;stroke-width:0.0125;"/>
        <!-- Line -->
        <line x1="-414.2033" y1="162.3972" x2="-413.3533" y2="162.3972" style="stroke:#808080;stroke-width:0.0125;"/>
        <!-- Line -->
        <line x1="-414.2033" y1="161.0972" x2="-413.3533" y2="161.0972" style="stroke:#808080;stroke-width:0.0125;"/>
        <!-- Line -->
        <line x1="-412.8991" y1="162.1608" x2="-411.0491" y2="162.1608" style="stroke:#808080;stroke-width:0.0125;"/>
        <!-- Line -->
        <line x1="-411.0491" y1="162.1608" x2="-411.0491" y2="161.3108" style="stroke:#808080;stroke-width:0.0125;"/>
        <!-- Line -->
        <line x1="-412.8991" y1="161.3108" x2="-411.0491" y2="161.3108" style="stroke:#808080;stroke-width:0.0125;"/>
        <!-- Line -->
        <line x1="-412.8991" y1="162.1608" x2="-412.8991" y2="161.3108" style="stroke:#808080;stroke-width:0.0125;"/>
        <!-- Line -->
        <line x1="-413.3146" y1="159.3766" x2="-411.8146" y2="159.3766" style="stroke:#808080;stroke-width:0.0125;"/>
        <!-- Line -->
        <line x1="-411.8146" y1="159.3766" x2="-411.8146" y2="156.5566" style="stroke:#808080;stroke-width:0.0125;"/>
        <!-- Line -->
        <line x1="-413.3146" y1="159.3766" x2="-413.3146" y2="156.5566" style="stroke:#808080;stroke-width:0.0125;"/>
        <!-- Line -->
        <line x1="-413.3146" y1="156.5566" x2="-411.8146" y2="156.5566" style="stroke:#808080;stroke-width:0.0125;"/>
        <!-- Line -->
        <line x1="-417.9144" y1="157.8245" x2="-417.5644" y2="157.8245" style="stroke:#808080;stroke-width:0.0125;"/>
        <!-- Line -->
        <line x1="-417.9144" y1="156.5745" x2="-417.9144" y2="157.8245" style="stroke:#808080;stroke-width:0.0125;"/>
        <!-- Line -->
        <line x1="-417.9144" y1="156.5745" x2="-417.5644" y2="156.5745" style="stroke:#808080;stroke-width:0.0125;"/>
        <!-- Line -->
        <line x1="-417.5644" y1="156.5745" x2="-417.5644" y2="157.8245" style="stroke:#808080;stroke-width:0.0125;"/>
        <!-- Line -->
        <line x1="-415.7644" y1="156.5745" x2="-415.7644" y2="157.8245" style="stroke:#808080;stroke-width:0.0125;"/>
        <!-- Line -->
        <line x1="-415.7644" y1="157.8245" x2="-415.4144" y2="157.8245" style="stroke:#808080;stroke-width:0.0125;"/>
        <!-- Line -->
        <line x1="-415.7644" y1="156.5745" x2="-415.4144" y2="156.5745" style="stroke:#808080;stroke-width:0.0125;"/>
        <!-- Line -->
        <line x1="-415.4144" y1="156.5745" x2="-415.4144" y2="157.8245" style="stroke:#808080;stroke-width:0.0125;"/>
        <!-- Line -->
        <line x1="-409.672" y1="159.7863" x2="-409.647" y2="159.7863" style="stroke:#808080;stroke-width:0.0125;"/>
        <!-- Line -->
        <line x1="-409.647" y1="159.7863" x2="-409.647" y2="159.5863" style="stroke:#808080;stroke-width:0.0125;"/>
        <!-- Line -->
        <line x1="-409.672" y1="159.5863" x2="-409.647" y2="159.5863" style="stroke:#808080;stroke-width:0.0125;"/>
        <!-- Line -->
        <line x1="-409.672" y1="159.7863" x2="-409.672" y2="159.5863" style="stroke:#808080;stroke-width:0.0125;"/>
        <!-- Hatch -->
        <path d="M-409.647,159.7863 L-409.672,159.7863 L-409.672,159.5863 L-409.647,159.5863 Z" style="fill:#808080;fill-rule:evenodd;"/>
        <!-- Hatch -->
        <path d="M-417.4133,151.5238 L-417.4133,151.4988 L-417.2133,151.4988 L-417.2133,151.5238 Z" style="fill:#000000;fill-rule:evenodd;"/>
        <!-- Line -->
        <line x1="-417.4133" y1="151.4988" x2="-417.4133" y2="151.5238" style="stroke:#808080;stroke-width:0.0125;"/>
        <!-- Line -->
        <line x1="-417.2133" y1="151.4988" x2="-417.2133" y2="151.5238" style="stroke:#000000;stroke-width:0.0125;"/>
        <!-- Line -->
        <line x1="-417.4133" y1="151.5238" x2="-417.2133" y2="151.5238" style="stroke:#000000;stroke-width:0.0125;"/>
        <!-- Line -->
        <line x1="-417.4133" y1="151.4988" x2="-417.2133" y2="151.4988" style="stroke:#000000;stroke-width:0.0125;"/>
        <!-- Line -->
        <line x1="-417.2133" y1="151.5113" x2="-415.9461" y2="151.5113" style="stroke:#000000;stroke-width:0.0125;"/>
        <!-- Text: PLANTA NIVEL +3.75 -->
        <text x="-392.5614" dx="0" y="-147.9445" dy="0.15" font-family="arial" font-size="0.21" line-height="1.1" fill="#ff00ff" transform="scale(1,-1) rotate(360 -392.5614,-147.9445)" text-anchor="end">PLANTA NIVEL +3.75</text>
        <!-- Line -->
        <line x1="-422.8197" y1="155.4372" x2="-406.126" y2="155.4372" style="stroke:#636466;stroke-width:0.0125;stroke-dasharray:0.2381,0.0397,0.0397,0.0397;stroke-dashoffset:0.1661"/>
        <!-- Circle -->
        <circle cx="-405.826" cy="155.4372" r="0.3" style="stroke:#636466;stroke-width:0.0125;"/>
        <!-- Text: 23 -->
        <text x="-405.6688" dx="0" y="-155.5501" dy="0.2" font-family="arial" font-size="0.28" line-height="1.1" fill="#636466" transform="scale(1,-1) rotate(360 -405.6688,-155.5501)" text-anchor="end">23</text>
        <!-- Line -->
        <line x1="-416.7333" y1="166.3634" x2="-416.7333" y2="148.1229" style="stroke:#636466;stroke-width:0.0125;stroke-dasharray:0.2381,0.0397,0.0397,0.0397;stroke-dashoffset:0.1071"/>
        <!-- Text: 23 -->
        <text x="-422.9625" dx="0" y="-155.5501" dy="0.2" font-family="arial" font-size="0.28" line-height="1.1" fill="#636466" transform="scale(1,-1) rotate(360 -422.9625,-155.5501)" text-anchor="end">23</text>
        <!-- Circle -->
        <circle cx="-423.1197" cy="155.4372" r="0.3" style="stroke:#636466;stroke-width:0.0125;"/>
        <!-- Text: LII' -->
        <text x="-416.4734" dx="0" y="-147.9279" dy="0.2" font-family="arial" font-size="0.28" line-height="1.1" fill="#636466" transform="scale(1,-1) rotate(360 -416.4734,-147.9279)" text-anchor="end">LII'</text>
        <!-- Circle -->
        <circle cx="-416.7333" cy="147.8229" r="0.3" style="stroke:#636466;stroke-width:0.0125;"/>
        <!-- Text: LII' -->
        <text x="-416.4734" dx="0" y="-166.7415" dy="0.2" font-family="arial" font-size="0.28" line-height="1.1" fill="#636466" transform="scale(1,-1) rotate(360 -416.4734,-166.7415)" text-anchor="end">LII'</text>
        <!-- Circle -->
        <circle cx="-416.7333" cy="166.6365" r="0.3" style="stroke:#636466;stroke-width:0.0125;"/>
        <!-- Line -->
        <line x1="-395.7433" y1="147.7772" x2="-392.6433" y2="147.7772" style="stroke:#c0c0c0;stroke-width:0.0125;"/>
        <!-- Line -->
        <line x1="-396.0433" y1="148.0772" x2="-392.3433" y2="148.0772" style="stroke:#c0c0c0;stroke-width:0.0125;"/>
        <!-- Line -->
        <line x1="-395.7433" y1="143.2772" x2="-394.1933" y2="143.2772" style="stroke:#c0c0c0;stroke-width:0.0125;"/>
        <!-- Line -->
        <line x1="-410.1533" y1="140.8072" x2="-392.6433" y2="140.8072" style="stroke:#c0c0c0;stroke-width:0.0125;"/>
        <!-- Line -->
        <line x1="-410.4533" y1="140.5072" x2="-392.3433" y2="140.5072" style="stroke:#c0c0c0;stroke-width:0.0125;"/>
        <!-- Line -->
        <line x1="-406.7133" y1="142.2772" x2="-394.1933" y2="142.2772" style="stroke:#c0c0c0;stroke-width:0.0125;"/>
        <!-- Line -->
        <line x1="-394.1933" y1="142.2772" x2="-394.1933" y2="143.2772" style="stroke:#c0c0c0;stroke-width:0.0125;"/>
        <!-- Line -->
        <line x1="-412.2033" y1="155.3972" x2="-412.2033" y2="141.3172" style="stroke:#c0c0c0;stroke-width:0.0125;"/>
        <!-- Line -->
        <line x1="-411.9533" y1="155.5472" x2="-411.9533" y2="141.6172" style="stroke:#c0c0c0;stroke-width:0.0125;"/>
        <!-- Line -->
        <line x1="-410.4533" y1="143.1472" x2="-410.4533" y2="158.4972" style="stroke:#c0c0c0;stroke-width:0.0125;"/>
        <!-- Line -->
        <line x1="-410.1533" y1="143.9472" x2="-410.1533" y2="157.6972" style="stroke:#c0c0c0;stroke-width:0.0125;"/>
        <!-- Line -->
        <line x1="-395.7433" y1="143.2772" x2="-395.7433" y2="147.7772" style="stroke:#c0c0c0;stroke-width:0.0125;"/>
        <!-- Line -->
        <line x1="-396.0433" y1="142.9772" x2="-396.0433" y2="148.0772" style="stroke:#c0c0c0;stroke-width:0.0125;"/>
        <!-- Line -->
        <line x1="-406.4133" y1="142.5772" x2="-394.4933" y2="142.5772" style="stroke:#c0c0c0;stroke-width:0.0125;"/>
        <!-- Line -->
        <line x1="-394.4933" y1="142.5772" x2="-394.4933" y2="142.9772" style="stroke:#c0c0c0;stroke-width:0.0125;"/>
        <!-- Line -->
        <line x1="-396.0433" y1="142.9772" x2="-394.4933" y2="142.9772" style="stroke:#c0c0c0;stroke-width:0.0125;"/>
        <!-- Line -->
        <line x1="-406.7133" y1="142.2772" x2="-406.7133" y2="143.6472" style="stroke:#c0c0c0;stroke-width:0.0125;"/>
        <!-- Line -->
        <line x1="-406.4133" y1="142.5772" x2="-406.4133" y2="143.9472" style="stroke:#c0c0c0;stroke-width:0.0125;"/>
        <!-- Line -->
        <line x1="-410.4533" y1="143.1472" x2="-410.1533" y2="143.1472" style="stroke:#c0c0c0;stroke-width:0.0125;"/>
        <!-- Line -->
        <line x1="-410.1533" y1="143.1472" x2="-410.1533" y2="143.6472" style="stroke:#c0c0c0;stroke-width:0.0125;"/>
        <!-- Line -->
        <line x1="-410.4533" y1="142.4572" x2="-410.1533" y2="142.4572" style="stroke:#c0c0c0;stroke-width:0.0125;"/>
        <!-- Line -->
        <line x1="-410.4533" y1="141.3172" x2="-410.4533" y2="140.5072" style="stroke:#c0c0c0;stroke-width:0.0125;"/>
        <!-- Line -->
        <line x1="-410.1533" y1="142.4572" x2="-410.1533" y2="140.8072" style="stroke:#c0c0c0;stroke-width:0.0125;"/>
        <!-- Line -->
        <line x1="-410.4533" y1="142.4572" x2="-410.4533" y2="141.6172" style="stroke:#c0c0c0;stroke-width:0.0125;"/>
        <!-- Line -->
        <line x1="-411.9533" y1="141.6172" x2="-410.4533" y2="141.6172" style="stroke:#c0c0c0;stroke-width:0.0125;"/>
        <!-- Line -->
        <line x1="-412.2033" y1="141.3172" x2="-410.4533" y2="141.3172" style="stroke:#c0c0c0;stroke-width:0.0125;"/>
        <!-- Line -->
        <line x1="-410.1533" y1="143.6472" x2="-406.7133" y2="143.6472" style="stroke:#c0c0c0;stroke-width:0.0125;"/>
        <!-- Line -->
        <line x1="-410.1533" y1="143.9472" x2="-406.4133" y2="143.9472" style="stroke:#c0c0c0;stroke-width:0.0125;"/>
        <!-- Line -->
        <line x1="-410.4533" y1="158.4972" x2="-410.1533" y2="158.4972" style="stroke:#c0c0c0;stroke-width:0.0125;"/>
        <!-- Line -->
        <line x1="-410.1533" y1="157.9972" x2="-410.1533" y2="158.4972" style="stroke:#c0c0c0;stroke-width:0.0125;"/>
        <!-- Hatch -->
        <path d="M-411.9533,149.4972 L-412.2033,149.4972 L-412.2033,141.3172 L-410.4533,141.3172 L-410.4533,140.5072 L-392.3433,140.5072 L-392.3433,148.0772 L-396.0433,148.0772 L-396.0433,142.9772 L-394.4933,142.9772 L-394.4933,142.5772 L-406.4133,142.5772 L-406.4133,143.9472 L-410.1533,143.9472 L-410.1533,149.4972 L-410.4533,149.4972 L-410.4533,143.1472 L-410.1533,143.1472 L-410.1533,143.6472 L-406.7133,143.6472 L-406.7133,142.2772 L-394.1933,142.2772 L-394.1933,143.2772 L-395.7433,143.2772 L-395.7433,147.7772 L-392.6433,147.7772 L-392.6433,140.8072 L-410.1533,140.8072 L-410.1533,142.4572 L-410.4533,142.4572 L-410.4533,141.6172 L-411.9533,141.6172 Z" style="fill:#000000;fill-rule:evenodd;"/>
        <!-- Hatch -->
        <path d="M-417.4033,162.3972 L-418.2533,162.3972 L-418.2533,161.0972 L-417.4033,161.0972 ZM-416.0533,162.3972 L-416.9033,162.3972 L-416.9033,161.0972 L-416.0533,161.0972 ZM-414.7033,162.3972 L-415.5533,162.3972 L-415.5533,161.0972 L-414.7033,161.0972 ZM-413.3533,162.3972 L-414.2033,162.3972 L-414.2033,161.0972 L-413.3533,161.0972 ZM-411.0491,162.1608 L-412.8991,162.1608 L-412.8991,161.3108 L-411.0491,161.3108 ZM-411.8146,159.3766 L-413.3146,159.3766 L-413.3146,156.5566 L-411.8146,156.5566 ZM-415.4144,157.8245 L-415.7644,157.8245 L-415.7644,156.5745 L-415.4144,156.5745 ZM-417.5644,157.8245 L-417.9144,157.8245 L-417.9144,156.5745 L-417.5644,156.5745 Z" style="fill:#2776bb;fill-rule:evenodd;"/>
        <!-- Hatch -->
        <path d="M-415.788,151.0755 L-417.4133,151.0755 L-417.4133,151.0255 L-415.7699,151.0255 ZM-414.8533,150.7172 L-415.5733,150.7172 L-415.5733,149.9972 L-414.8533,149.9972 ZM-415.5233,150.6672 L-414.9033,150.6672 L-414.9033,150.0472 L-415.5233,150.0472 Z" style="fill:#00994c;fill-rule:evenodd;"/>
        <!-- Line -->
        <line x1="-409.1157" y1="159.7863" x2="-409.1157" y2="160.3437" style="stroke:#333333;stroke-width:0.0125;"/>
        <!-- Line -->
        <line x1="-409.1157" y1="160.3437" x2="-408.7168" y2="160.3659" style="stroke:#333333;stroke-width:0.0125;"/>
        <!-- Hatch -->
        <path d="M-408.7319,160.3651 L-409.1157,160.3437 L-409.1157,159.7863 L-409.1157,159.0074 L-408.7319,159.0074 Z" style="fill:#00994c;fill-rule:evenodd;"/>
        <!-- Hatch -->
        <path d="M-408.6819,160.386 L-408.7319,160.3572 L-408.7319,159.0074 L-409.1157,159.0074 L-409.1157,159.7863 L-409.1657,159.7863 L-409.1657,158.9574 L-408.6819,158.9574 Z" style="fill:#636466;fill-rule:evenodd;"/>
        <!-- Hatch -->
        <path d="M-409.3533,162.5472 L-410.1533,162.5472 L-410.1533,162.4972 L-409.3533,162.4972 ZM-418.1533,155.0972 L-418.9533,155.0972 L-418.9533,155.0472 L-418.1533,155.0472 Z" style="fill:#636466;fill-rule:evenodd;"/>
        <!-- Hatch -->
        <path d="M-417.1933,151.9972 L-417.4133,151.9972 L-417.4133,151.5238 L-417.2133,151.5238 L-417.2133,151.5113 L-417.1933,151.5113 ZM-416.9733,151.9972 L-417.1933,151.9972 L-417.1933,151.5113 L-416.9733,151.5113 ZM-417.1933,151.5113 L-417.2133,151.5113 L-417.2133,151.4988 L-417.4133,151.4988 L-417.4133,151.0755 L-417.1933,151.0755 ZM-416.9733,151.5113 L-417.1933,151.5113 L-417.1933,151.0755 L-416.9733,151.0755 ZM-416.7533,151.5113 L-416.9733,151.5113 L-416.9733,151.0755 L-416.7533,151.0755 ZM-416.7533,151.9972 L-416.9733,151.9972 L-416.9733,151.5113 L-416.7533,151.5113 ZM-416.5333,151.9972 L-416.7533,151.9972 L-416.7533,151.5113 L-416.5333,151.5113 ZM-416.3133,151.9972 L-416.5333,151.9972 L-416.5333,151.5113 L-416.3133,151.5113 ZM-416.0933,151.8139 L-416.1515,151.9972 L-416.3133,151.9972 L-416.3133,151.5113 L-416.0933,151.5113 ZM-416.0933,151.8139 L-416.0933,151.5113 L-415.9461,151.5113 L-415.9665,151.5675 L-416.0869,151.5611 L-416.043,151.6559 ZM-415.9461,151.5113 L-416.0933,151.5113 L-416.0933,151.0755 L-415.788,151.0755 ZM-416.0933,151.5113 L-416.3133,151.5113 L-416.3133,151.0755 L-416.0933,151.0755 ZM-416.3133,151.5113 L-416.5333,151.5113 L-416.5333,151.0755 L-416.3133,151.0755 ZM-416.5333,151.5113 L-416.7533,151.5113 L-416.7533,151.0755 L-416.5333,151.0755 Z" style="fill:#c0c0c0;fill-rule:evenodd;"/>
        <!-- Hatch -->
        <path d="M-407.6533,160.3659 L-408.1676,160.3659 L-408.1676,160.1459 L-407.6533,160.1459 ZM-408.1676,160.3659 L-408.6819,160.3659 L-408.6819,160.1459 L-408.1676,160.1459 ZM-408.1676,160.1459 L-408.6819,160.1459 L-408.6819,159.9259 L-408.1676,159.9259 ZM-407.6533,160.1459 L-408.1676,160.1459 L-408.1676,159.9259 L-407.6533,159.9259 ZM-407.6533,159.9259 L-408.1676,159.9259 L-408.1676,159.7059 L-407.6533,159.7059 ZM-407.6533,159.7059 L-408.1676,159.7059 L-408.1676,159.4859 L-407.6533,159.4859 ZM-407.6533,159.4859 L-408.1676,159.4859 L-408.1676,159.2659 L-407.6533,159.2659 ZM-407.6533,159.2659 L-408.1676,159.2659 L-408.1676,159.0459 L-407.6533,159.0459 ZM-408.1676,159.2659 L-408.6819,159.2659 L-408.6819,159.0459 L-408.1676,159.0459 ZM-408.1676,159.4859 L-408.6819,159.4859 L-408.6819,159.2659 L-408.1676,159.2659 ZM-408.1676,159.7059 L-408.6819,159.7059 L-408.6819,159.4859 L-408.1676,159.4859 ZM-408.1676,159.9259 L-408.6819,159.9259 L-408.6819,159.7059 L-408.1676,159.7059 Z" style="fill:#c0c0c0;fill-rule:evenodd;"/>
        <!-- Hatch -->
        <path d="M-409.672,159.7863 L-410.1533,159.7863 L-410.1533,159.4859 L-409.6595,159.4859 L-409.6595,159.5863 L-409.672,159.5863 ZM-409.1657,159.7863 L-409.647,159.7863 L-409.647,159.5863 L-409.6595,159.5863 L-409.6595,159.4859 L-409.1657,159.4859 ZM-409.1657,159.4859 L-409.6595,159.4859 L-409.6595,159.2659 L-409.1657,159.2659 ZM-409.1657,159.2659 L-409.6595,159.2659 L-409.6595,159.0459 L-409.1657,159.0459 ZM-409.6595,159.2659 L-410.1533,159.2659 L-410.1533,159.0459 L-409.6595,159.0459 ZM-409.6595,159.4859 L-410.1533,159.4859 L-410.1533,159.2659 L-409.6595,159.2659 Z" style="fill:#c0c0c0;fill-rule:evenodd;"/>
        <!-- Hatch -->
        <path d="M-407.6533,162.9972 L-410.1533,162.9972 L-410.1533,162.5472 L-409.3533,162.5472 L-409.3533,162.4972 A0.926758,0.926758 0 0 0 -410.1533,161.7472 L-410.1533,159.7863 L-409.1657,159.7863 L-409.1157,159.7863 L-409.1157,160.3437 L-408.7168,160.3659 L-408.266,160.6258 L-408.1836,160.564 L-408.2145,160.7467 L-408.1399,160.6952 L-407.6533,160.9758 ZM-407.6533,160.9758 L-408.1399,160.6952 L-408.2145,160.7467 L-408.1836,160.564 L-408.266,160.6258 L-408.6819,160.386 L-408.6819,160.3659 L-407.6533,160.3659 ZM-408.1676,159.0459 L-408.6819,159.0459 L-408.6819,158.9574 L-409.1657,158.9574 L-409.1657,159.0459 L-409.6595,159.0459 L-409.6595,158.4327 L-408.1676,158.4327 ZM-407.6533,159.0459 L-408.1676,159.0459 L-408.1676,158.4327 L-409.6595,158.4327 L-409.6595,159.0459 L-410.1533,159.0459 L-410.1533,158.4972 L-410.1533,157.9972 L-407.6533,157.9972 ZM-409.3533,162.4972 L-410.1533,162.4972 L-410.1533,162.5472 L-410.2033,162.5472 L-410.2033,161.7472 L-410.1533,161.7472 A0.926758,0.926758 0 0 1 -409.3533,162.4972M-410.2033,162.2133 L-410.4533,162.2133 L-410.4533,162.1566 L-410.4533,161.7472 L-410.2033,161.7472 ZM-410.2033,162.5472 L-410.4533,162.5472 L-410.4533,162.2133 L-410.2033,162.2133 Z" style="fill:#d7ebd2;fill-rule:evenodd;"/>
        <!-- Hatch -->
        <path d="M-410.1533,161.7472 L-410.4533,161.7472 L-410.4533,158.4972 L-410.1533,158.4972 Z" style="fill:#000000;fill-rule:evenodd;"/>
        <!-- Hatch -->
        <path d="M-418.1333,155.0972 L-418.1533,155.0972 L-418.1533,155.0472 L-418.9533,155.0472 A0.926758,0.926758 0 0 1 -418.1533,154.2972 L-418.1333,154.2972 ZM-418.0033,155.0972 L-418.1333,155.0972 L-418.1333,154.7523 L-418.0033,154.7523 ZM-418.0033,154.7523 L-418.1333,154.7523 L-418.1333,154.2972 L-418.0033,154.2972 Z" style="fill:#d7ebd2;fill-rule:evenodd;"/>
        <!-- Hatch -->
        <path d="M-409.0814,153.4239 L-409.9133,151.7566 L-408.2495,151.7595 ZM-408.6655,151.7588 L-409.4974,151.7574 L-409.4974,149.8409 L-408.6655,149.8409 Z" style="fill:#009900;fill-rule:evenodd;"/>
        <!-- Hatch -->
        <path d="M-413.0327,160.1058 L-414.6999,160.9378 L-414.6971,159.2739 ZM-414.6978,159.6899 L-414.6992,160.5218 L-416.6157,160.5218 L-416.6157,159.6899 Z" style="fill:#009900;fill-rule:evenodd;"/>
        <!-- Line -->
        <line x1="-412.1252" y1="141.5379" x2="-412.1252" y2="155.3879" style="stroke:#004c26;stroke-width:0.0125;"/>
        <!-- Line -->
        <line x1="-412.1252" y1="155.3879" x2="-417.9852" y2="155.3879" style="stroke:#004c26;stroke-width:0.0125;"/>
        <!-- Line -->
        <line x1="-413.9252" y1="152.2379" x2="-417.9852" y2="152.2379" style="stroke:#004c26;stroke-width:0.0125;"/>
        <!-- Line -->
        <line x1="-417.9852" y1="152.2379" x2="-417.9852" y2="154.2429" style="stroke:#004c26;stroke-width:0.0125;"/>
        <!-- Line -->
        <line x1="-413.9509" y1="143.3379" x2="-413.9509" y2="152.2379" style="stroke:#004c26;stroke-width:0.0125;"/>
        <!-- Line -->
        <line x1="-414.1509" y1="143.5379" x2="-414.1509" y2="152.0379" style="stroke:#004c26;stroke-width:0.0125;"/>
        <!-- Line -->
        <line x1="-414.1252" y1="152.0379" x2="-415.0625" y2="152.0379" style="stroke:#004c26;stroke-width:0.0125;"/>
        <!-- Line -->
        <line x1="-417.9852" y1="155.0929" x2="-418.1852" y2="155.0929" style="stroke:#004c26;stroke-width:0.0125;"/>
        <!-- Line -->
        <line x1="-417.9852" y1="155.0929" x2="-417.9852" y2="155.3879" style="stroke:#004c26;stroke-width:0.0125;"/>
        <!-- Line -->
        <line x1="-417.9852" y1="155.3879" x2="-417.486" y2="155.3879" style="stroke:#ff0000;stroke-width:0.0125;"/>
        <!-- Line -->
        <line x1="-435.9576" y1="141.5422" x2="-412.1576" y2="141.5422" style="stroke:#004c26;stroke-width:0.0125;stroke-dasharray:0.0397,0.0198;stroke-dashoffset:0.0261"/>
        <!-- Line -->
        <line x1="-436.1945" y1="143.3422" x2="-413.9576" y2="143.3422" style="stroke:#004c26;stroke-width:0.0125;stroke-dasharray:0.0397,0.0198;stroke-dashoffset:0.0039"/>
        <!-- Line -->
        <line x1="-435.9312" y1="141.3422" x2="-411.9576" y2="141.3422" style="stroke:#004c26;stroke-width:0.0125;stroke-dasharray:0.0397,0.0198;stroke-dashoffset:0.0286"/>
        <!-- Line -->
        <line x1="-436.2209" y1="143.5422" x2="-414.1576" y2="143.5422" style="stroke:#004c26;stroke-width:0.0125;stroke-dasharray:0.0397,0.0198;stroke-dashoffset:0.0015"/>
        <!-- Line -->
        <line x1="-436.2209" y1="143.5422" x2="-436.1945" y2="143.3422" style="stroke:#333333;stroke-width:0.0125;"/>
        <!-- Line -->
        <line x1="-436.1945" y1="143.3422" x2="-435.9537" y2="141.5127" style="stroke:#333333;stroke-width:0.0125;"/>
        <!-- Line -->
        <line x1="-435.9537" y1="141.5127" x2="-435.9537" y2="141.3422" style="stroke:#333333;stroke-width:0.0125;"/>
        <!-- Hatch -->
        <g>
            <path d="M-410.9685,141.3172 L-410.9601,141.3256" style="stroke:#c0c0c0;stroke-width:0.0125;stroke-dasharray:0.0397,0.0198;stroke-dashoffset:0.0239"/>
            <path d="M-415.4552,141.3206 L-415.2336,141.5422" style="stroke:#c0c0c0;stroke-width:0.0125;stroke-dasharray:0.0397,0.0198;stroke-dashoffset:-0.0356"/>
            <path d="M-419.9406,141.3254 L-419.7238,141.5422" style="stroke:#c0c0c0;stroke-width:0.0125;stroke-dasharray:0.0397,0.0198;stroke-dashoffset:-0.0356"/>
            <path d="M-417.9238,143.3422 L-417.7238,143.5422" style="stroke:#c0c0c0;stroke-width:0.0125;stroke-dasharray:0.0397,0.0198;stroke-dashoffset:-0.0356"/>
            <path d="M-414.1509,147.1151 L-413.9509,147.3151" style="stroke:#c0c0c0;stroke-width:0.0125;stroke-dasharray:0.0397,0.0198;stroke-dashoffset:-0.0356"/>
            <path d="M-413.515,147.751 L-413.29,147.976" style="stroke:#c0c0c0;stroke-width:0.0125;stroke-dasharray:0.0397,0.0198;stroke-dashoffset:-0.0356"/>
            <path d="M-424.426,141.3301 L-424.2139,141.5422" style="stroke:#c0c0c0;stroke-width:0.0125;stroke-dasharray:0.0397,0.0198;stroke-dashoffset:-0.0356"/>
            <path d="M-422.4139,143.3422 L-422.2139,143.5422" style="stroke:#c0c0c0;stroke-width:0.0125;stroke-dasharray:0.0397,0.0198;stroke-dashoffset:-0.0356"/>
            <path d="M-414.1509,151.6053 L-413.9509,151.8053" style="stroke:#c0c0c0;stroke-width:0.0125;stroke-dasharray:0.0397,0.0198;stroke-dashoffset:-0.0356"/>
            <path d="M-428.9114,141.3348 L-428.704,141.5422" style="stroke:#c0c0c0;stroke-width:0.0125;stroke-dasharray:0.0397,0.0198;stroke-dashoffset:-0.0356"/>
            <path d="M-426.904,143.3422 L-426.704,143.5422" style="stroke:#c0c0c0;stroke-width:0.0125;stroke-dasharray:0.0397,0.0198;stroke-dashoffset:-0.0356"/>
            <path d="M-433.3968,141.3396 L-433.1942,141.5422" style="stroke:#c0c0c0;stroke-width:0.0125;stroke-dasharray:0.0397,0.0198;stroke-dashoffset:-0.0356"/>
            <path d="M-431.3942,143.3422 L-431.1942,143.5422" style="stroke:#c0c0c0;stroke-width:0.0125;stroke-dasharray:0.0397,0.0198;stroke-dashoffset:-0.0356"/>
            <path d="M-435.8843,143.3422 L-435.6843,143.5422" style="stroke:#c0c0c0;stroke-width:0.0125;stroke-dasharray:0.0397,0.0198;stroke-dashoffset:-0.0356"/>
        </g>
        <!-- Hatch -->
        <g>
            <path d="M-417.9238,143.3422 L-417.7238,143.5422" style="stroke:#c0c0c0;stroke-width:0.0125;stroke-dasharray:0.0397,0.0198;stroke-dashoffset:-0.0356"/>
            <path d="M-414.1509,147.1151 L-413.9509,147.3151" style="stroke:#c0c0c0;stroke-width:0.0125;stroke-dasharray:0.0397,0.0198;stroke-dashoffset:-0.0356"/>
            <path d="M-422.4139,143.3422 L-422.2139,143.5422" style="stroke:#c0c0c0;stroke-width:0.0125;stroke-dasharray:0.0397,0.0198;stroke-dashoffset:-0.0356"/>
            <path d="M-414.1509,151.6053 L-413.9509,151.8053" style="stroke:#c0c0c0;stroke-width:0.0125;stroke-dasharray:0.0397,0.0198;stroke-dashoffset:-0.0356"/>
            <path d="M-426.904,143.3422 L-426.704,143.5422" style="stroke:#c0c0c0;stroke-width:0.0125;stroke-dasharray:0.0397,0.0198;stroke-dashoffset:-0.0356"/>
            <path d="M-431.3942,143.3422 L-431.1942,143.5422" style="stroke:#c0c0c0;stroke-width:0.0125;stroke-dasharray:0.0397,0.0198;stroke-dashoffset:-0.0356"/>
        </g>
        <!-- Hatch -->
        <g>
            <path d="M-417.9238,143.3422 L-417.7238,143.5422" style="stroke:#c0c0c0;stroke-width:0.0125;stroke-dasharray:0.0397,0.0198;stroke-dashoffset:-0.0356"/>
            <path d="M-414.1509,147.1151 L-413.9509,147.3151" style="stroke:#c0c0c0;stroke-width:0.0125;stroke-dasharray:0.0397,0.0198;stroke-dashoffset:-0.0356"/>
            <path d="M-413.515,147.751 L-413.29,147.976" style="stroke:#c0c0c0;stroke-width:0.0125;stroke-dasharray:0.0397,0.0198;stroke-dashoffset:-0.0356"/>
            <path d="M-422.4139,143.3422 L-422.2139,143.5422" style="stroke:#c0c0c0;stroke-width:0.0125;stroke-dasharray:0.0397,0.0198;stroke-dashoffset:-0.0356"/>
            <path d="M-414.1509,151.6053 L-413.9509,151.8053" style="stroke:#c0c0c0;stroke-width:0.0125;stroke-dasharray:0.0397,0.0198;stroke-dashoffset:-0.0356"/>
            <path d="M-426.904,143.3422 L-426.704,143.5422" style="stroke:#c0c0c0;stroke-width:0.0125;stroke-dasharray:0.0397,0.0198;stroke-dashoffset:-0.0356"/>
            <path d="M-431.3942,143.3422 L-431.1942,143.5422" style="stroke:#c0c0c0;stroke-width:0.0125;stroke-dasharray:0.0397,0.0198;stroke-dashoffset:-0.0356"/>
        </g>
        <!-- Hatch -->
        <path d="M-419.0257,157.3408 L-419.4642,156.462 L-418.5872,156.4635 ZM-418.8065,156.4631 L-419.245,156.4623 L-419.245,155.4522 L-418.8065,155.4522 Z" style="fill:#009900;fill-rule:evenodd;"/>
        <!-- Line -->
        <line x1="-419.0257" y1="157.3408" x2="-418.5872" y2="156.4635" style="stroke:#000000;stroke-width:0.0125;"/>
        <!-- Line -->
        <line x1="-418.8065" y1="156.4631" x2="-418.8065" y2="155.4522" style="stroke:#000000;stroke-width:0.0125;"/>
        <!-- Line -->
        <line x1="-419.245" y1="155.4522" x2="-418.8065" y2="155.4522" style="stroke:#000000;stroke-width:0.0125;"/>
        <!-- Line -->
        <line x1="-419.245" y1="156.4623" x2="-419.245" y2="155.4522" style="stroke:#000000;stroke-width:0.0125;"/>
        <!-- Line -->
        <line x1="-419.0169" y1="152.1689" x2="-419.4554" y2="153.0462" style="stroke:#000000;stroke-width:0.0125;"/>
        <!-- Line -->
        <line x1="-419.2362" y1="153.0465" x2="-419.2362" y2="154.0575" style="stroke:#000000;stroke-width:0.0125;"/>
        <!-- Hatch -->
        <path d="M-419.0169,152.1689 L-418.5784,153.0477 L-419.4554,153.0462 ZM-419.2362,153.0465 L-418.7976,153.0473 L-418.7976,154.0575 L-419.2362,154.0575 Z" style="fill:#009900;fill-rule:evenodd;"/>
        <!-- Line -->
        <line x1="-418.7976" y1="153.0473" x2="-418.7976" y2="154.0575" style="stroke:#000000;stroke-width:0.0125;"/>
        <!-- Line -->
        <line x1="-419.0257" y1="157.3408" x2="-419.4642" y2="156.462" style="stroke:#000000;stroke-width:0.0125;"/>
        <!-- Line -->
        <line x1="-418.7976" y1="154.0575" x2="-419.2362" y2="154.0575" style="stroke:#000000;stroke-width:0.0125;"/>
        <!-- Line -->
        <line x1="-419.0169" y1="152.1689" x2="-418.5784" y2="153.0477" style="stroke:#000000;stroke-width:0.0125;"/>
        <!-- Line -->
        <line x1="-411.9533" y1="155.5472" x2="-410.4533" y2="155.5472" style="stroke:#ededed;stroke-width:0.0125;"/>
        <!-- Line -->
        <line x1="-410.4533" y1="142.4572" x2="-410.4533" y2="143.1472" style="stroke:#ededed;stroke-width:0.0125;"/>
        <!-- Line -->
        <line x1="-406.7133" y1="142.2772" x2="-406.6833" y2="140.8072" style="stroke:#ededed;stroke-width:0.0125;"/>
        <!-- Line -->
        <line x1="-394.1933" y1="142.2772" x2="-392.6433" y2="140.8072" style="stroke:#ededed;stroke-width:0.0125;"/>
        <!-- Line -->
        <line x1="-394.2088" y1="143.2772" x2="-392.6433" y2="147.7772" style="stroke:#ededed;stroke-width:0.0125;"/>
        <!-- Line -->
        <line x1="-394.1933" y1="142.2772" x2="-394.1933" y2="143.2772" style="stroke:#333333;stroke-width:0.0125;"/>
        <!-- Line -->
        <line x1="-394.1933" y1="143.2772" x2="-394.2088" y2="143.2772" style="stroke:#333333;stroke-width:0.0125;"/>
        <!-- Line -->
        <line x1="-394.2271" y1="143.2995" x2="-392.6433" y2="147.7772" style="stroke:#ededed;stroke-width:0.0125;"/>
        <!-- Line -->
        <line x1="-394.1933" y1="143.2772" x2="-392.6365" y2="143.2772" style="stroke:#ededed;stroke-width:0.0125;"/>
        <!-- Line -->
        <line x1="-392.6433" y1="140.8072" x2="-392.6433" y2="147.7772" style="stroke:#333333;stroke-width:0.0125;"/>
    </g>
</svg>
