<?xml version="1.0" encoding="UTF-8"?>
<!-- 2020-09-03 16:46:18 Generated by QCAD 3.24.3 SVG Exporter PG -->
<svg width="370.0974mm" height="400.2716mm" viewBox="-403.9936 -167.2265 18.5049 20.0136" version="1.1" xmlns="http://www.w3.org/2000/svg" style="stroke-linecap:round;stroke-linejoin:round;fill:none">
    <g transform="scale(1,-1)">
        <!-- Line -->
        <line x1="-400.548" y1="165.1972" x2="-390.4072" y2="165.1978" style="stroke:#004c26;stroke-width:0.0125;"/>
        <!-- Line -->
        <line x1="-400.2672" y1="164.9172" x2="-390.6872" y2="164.9172" style="stroke:#004c26;stroke-width:0.0125;"/>
        <!-- Line -->
        <line x1="-400.2672" y1="164.9172" x2="-400.2672" y2="158.8272" style="stroke:#004c26;stroke-width:0.0125;"/>
        <!-- Line -->
        <line x1="-400.2689" y1="164.916" x2="-400.2689" y2="165.196" style="stroke:#00ff00;stroke-width:0.0125;"/>
        <!-- Line -->
        <line x1="-400.2689" y1="165.196" x2="-400.5489" y2="165.196" style="stroke:#00ff00;stroke-width:0.0125;"/>
        <!-- Line -->
        <line x1="-400.5489" y1="164.916" x2="-400.5489" y2="165.196" style="stroke:#00ff00;stroke-width:0.0125;"/>
        <!-- Line -->
        <line x1="-400.5489" y1="164.916" x2="-400.2689" y2="164.916" style="stroke:#00ff00;stroke-width:0.0125;"/>
        <!-- Line -->
        <line x1="-390.6872" y1="164.9172" x2="-390.6872" y2="158.8272" style="stroke:#004c26;stroke-width:0.0125;"/>
        <!-- Line -->
        <line x1="-390.4084" y1="164.9114" x2="-390.4084" y2="165.1914" style="stroke:#00ff00;stroke-width:0.0125;"/>
        <!-- Line -->
        <line x1="-390.6884" y1="164.9114" x2="-390.4084" y2="164.9114" style="stroke:#00ff00;stroke-width:0.0125;"/>
        <!-- Line -->
        <line x1="-390.6884" y1="164.9114" x2="-390.6884" y2="165.1914" style="stroke:#00ff00;stroke-width:0.0125;"/>
        <!-- Line -->
        <line x1="-390.4084" y1="165.1914" x2="-390.6884" y2="165.1914" style="stroke:#00ff00;stroke-width:0.0125;"/>
        <!-- Line -->
        <line x1="-390.4072" y1="165.1978" x2="-390.4068" y2="157.5853" style="stroke:#004c26;stroke-width:0.0125;"/>
        <!-- Line -->
        <line x1="-400.2272" y1="151.9572" x2="-398.3772" y2="151.9572" style="stroke:#004c26;stroke-width:0.0125;"/>
        <!-- Line -->
        <line x1="-400.2272" y1="151.9572" x2="-400.2272" y2="152.2372" style="stroke:#00ff00;stroke-width:0.0125;"/>
        <!-- Line -->
        <line x1="-400.5656" y1="151.9572" x2="-400.2272" y2="151.9572" style="stroke:#00ff00;stroke-width:0.0125;"/>
        <!-- Line -->
        <line x1="-400.5656" y1="151.9572" x2="-400.5656" y2="152.2372" style="stroke:#00ff00;stroke-width:0.0125;"/>
        <!-- Line -->
        <line x1="-400.2272" y1="152.2372" x2="-400.5656" y2="152.2372" style="stroke:#00ff00;stroke-width:0.0125;"/>
        <!-- Line -->
        <line x1="-400.2272" y1="152.2372" x2="-398.3772" y2="152.2372" style="stroke:#004c26;stroke-width:0.0125;"/>
        <!-- Line -->
        <line x1="-390.7272" y1="152.2372" x2="-390.7272" y2="151.9572" style="stroke:#00ff00;stroke-width:0.0125;"/>
        <!-- Line -->
        <line x1="-390.7272" y1="152.2372" x2="-390.4072" y2="152.2372" style="stroke:#00ff00;stroke-width:0.0125;"/>
        <!-- Line -->
        <line x1="-390.4072" y1="152.2372" x2="-390.4072" y2="151.9572" style="stroke:#00ff00;stroke-width:0.0125;"/>
        <!-- Line -->
        <line x1="-390.7272" y1="151.9572" x2="-390.4072" y2="151.9572" style="stroke:#00ff00;stroke-width:0.0125;"/>
        <!-- Line -->
        <line x1="-400.5072" y1="149.4772" x2="-394.6174" y2="149.4772" style="stroke:#808080;stroke-width:0.0125;"/>
        <!-- Line -->
        <line x1="-400.2272" y1="149.7572" x2="-394.6174" y2="149.7572" style="stroke:#808080;stroke-width:0.0125;"/>
        <!-- Line -->
        <line x1="-396.4741" y1="151.5323" x2="-394.7592" y2="151.5323" style="stroke:#000000;stroke-width:0.0125;"/>
        <!-- Line -->
        <line x1="-394.7241" y1="151.9572" x2="-394.7241" y2="151.0572" style="stroke:#000000;stroke-width:0.0125;"/>
        <!-- Line -->
        <line x1="-394.9741" y1="151.9572" x2="-394.9741" y2="151.0572" style="stroke:#000000;stroke-width:0.0125;"/>
        <!-- Line -->
        <line x1="-395.2241" y1="151.9572" x2="-395.2241" y2="151.0572" style="stroke:#000000;stroke-width:0.0125;"/>
        <!-- Line -->
        <line x1="-395.4741" y1="151.9572" x2="-395.4741" y2="151.0572" style="stroke:#000000;stroke-width:0.0125;"/>
        <!-- Line -->
        <line x1="-395.7241" y1="151.9572" x2="-395.7241" y2="151.0572" style="stroke:#000000;stroke-width:0.0125;"/>
        <!-- Line -->
        <line x1="-395.9741" y1="151.9572" x2="-395.9741" y2="151.0572" style="stroke:#000000;stroke-width:0.0125;"/>
        <!-- Line -->
        <line x1="-396.2241" y1="151.9572" x2="-396.2241" y2="151.0572" style="stroke:#000000;stroke-width:0.0125;"/>
        <!-- Line -->
        <line x1="-396.4741" y1="151.9572" x2="-396.4741" y2="150.7572" style="stroke:#808080;stroke-width:0.0125;"/>
        <!-- Line -->
        <line x1="-396.4741" y1="151.0072" x2="-394.6174" y2="151.0072" style="stroke:#808080;stroke-width:0.0125;"/>
        <!-- Line -->
        <line x1="-396.5241" y1="150.7072" x2="-394.6174" y2="150.7072" style="stroke:#808080;stroke-width:0.0125;"/>
        <!-- Line -->
        <line x1="-394.7592" y1="151.5323" x2="-394.8974" y2="151.5871" style="stroke:#000000;stroke-width:0.0125;"/>
        <!-- Line -->
        <line x1="-394.7592" y1="151.5323" x2="-394.8974" y2="151.4775" style="stroke:#000000;stroke-width:0.0125;"/>
        <!-- Line -->
        <line x1="-388.4015" y1="162.5617" x2="-388.4015" y2="158.4654" style="stroke:#000000;stroke-width:0.0125;"/>
        <!-- Line -->
        <line x1="-387.8872" y1="157.9972" x2="-387.8872" y2="162.9972" style="stroke:#808080;stroke-width:0.0125;"/>
        <!-- Line -->
        <line x1="-387.5872" y1="157.6972" x2="-387.5872" y2="163.2972" style="stroke:#808080;stroke-width:0.0125;"/>
        <!-- Line -->
        <line x1="-390.6872" y1="161.7472" x2="-390.6872" y2="158.8272" style="stroke:#004c26;stroke-width:0.0125;"/>
        <!-- Line -->
        <line x1="-390.4072" y1="163.2972" x2="-387.5872" y2="163.2972" style="stroke:#808080;stroke-width:0.0125;"/>
        <!-- Line -->
        <line x1="-390.4072" y1="162.9972" x2="-387.8872" y2="162.9972" style="stroke:#808080;stroke-width:0.0125;"/>
        <!-- Line -->
        <line x1="-400.5476" y1="158.3272" x2="-400.2272" y2="158.3272" style="stroke:#00ff00;stroke-width:0.0125;"/>
        <!-- Line -->
        <line x1="-400.5476" y1="158.8272" x2="-400.2272" y2="158.8272" style="stroke:#00ff00;stroke-width:0.0125;"/>
        <!-- Line -->
        <line x1="-400.2672" y1="158.3272" x2="-400.2672" y2="152.2372" style="stroke:#004c26;stroke-width:0.0125;"/>
        <!-- Line -->
        <line x1="-400.548" y1="165.1972" x2="-400.5472" y2="152.2372" style="stroke:#004c26;stroke-width:0.0125;"/>
        <!-- Line -->
        <line x1="-400.5476" y1="158.8272" x2="-400.5476" y2="158.3272" style="stroke:#00ff00;stroke-width:0.0125;"/>
        <!-- Line -->
        <line x1="-400.2272" y1="158.8272" x2="-400.2272" y2="158.3272" style="stroke:#00ff00;stroke-width:0.0125;"/>
        <!-- Line -->
        <line x1="-390.7158" y1="158.3272" x2="-390.405" y2="158.3272" style="stroke:#00ff00;stroke-width:0.0125;"/>
        <!-- Line -->
        <line x1="-390.7158" y1="158.8272" x2="-390.405" y2="158.8272" style="stroke:#00ff00;stroke-width:0.0125;"/>
        <!-- Line -->
        <line x1="-390.405" y1="158.8272" x2="-390.405" y2="158.3272" style="stroke:#00ff00;stroke-width:0.0125;"/>
        <!-- Line -->
        <line x1="-390.7158" y1="158.8272" x2="-390.7158" y2="158.3272" style="stroke:#00ff00;stroke-width:0.0125;"/>
        <!-- Line -->
        <line x1="-390.6872" y1="158.3272" x2="-390.6872" y2="157.5853" style="stroke:#004c26;stroke-width:0.0125;"/>
        <!-- Line -->
        <line x1="-390.4072" y1="156.7853" x2="-390.4072" y2="149.1071" style="stroke:#004c26;stroke-width:0.0125;"/>
        <!-- Line -->
        <line x1="-389.3561" y1="162.1335" x2="-388.9561" y2="162.1335" style="stroke:#808080;stroke-width:0.0125;"/>
        <!-- Line -->
        <line x1="-388.9561" y1="162.1335" x2="-388.9561" y2="158.9335" style="stroke:#808080;stroke-width:0.0125;"/>
        <!-- Line -->
        <line x1="-389.3561" y1="162.1335" x2="-389.3561" y2="156.7853" style="stroke:#808080;stroke-width:0.0125;"/>
        <!-- Line -->
        <line x1="-389.3061" y1="158.9335" x2="-388.9561" y2="158.9335" style="stroke:#808080;stroke-width:0.0125;"/>
        <!-- Line -->
        <line x1="-390.4072" y1="161.8232" x2="-389.3561" y2="161.8232" style="stroke:#000000;stroke-width:0.0125;"/>
        <!-- Line -->
        <line x1="-390.4072" y1="161.5732" x2="-389.3561" y2="161.5732" style="stroke:#000000;stroke-width:0.0125;"/>
        <!-- Line -->
        <line x1="-390.4072" y1="161.3232" x2="-389.3561" y2="161.3232" style="stroke:#000000;stroke-width:0.0125;"/>
        <!-- Line -->
        <line x1="-390.4072" y1="159.5732" x2="-389.3561" y2="159.5732" style="stroke:#000000;stroke-width:0.0125;"/>
        <!-- Line -->
        <line x1="-390.4072" y1="159.3232" x2="-389.3561" y2="159.3232" style="stroke:#000000;stroke-width:0.0125;"/>
        <!-- Line -->
        <line x1="-390.4072" y1="159.0732" x2="-389.3561" y2="159.0732" style="stroke:#000000;stroke-width:0.0125;"/>
        <!-- Line -->
        <line x1="-388.9561" y1="159.8232" x2="-387.8872" y2="159.8232" style="stroke:#000000;stroke-width:0.0125;"/>
        <!-- Line -->
        <line x1="-388.9561" y1="159.5732" x2="-387.8872" y2="159.5732" style="stroke:#000000;stroke-width:0.0125;"/>
        <!-- Line -->
        <line x1="-388.9561" y1="159.3232" x2="-387.8872" y2="159.3232" style="stroke:#000000;stroke-width:0.0125;"/>
        <!-- Line -->
        <line x1="-388.9561" y1="159.0732" x2="-387.8872" y2="159.0732" style="stroke:#000000;stroke-width:0.0125;"/>
        <!-- Line -->
        <line x1="-388.9561" y1="162.0732" x2="-387.8872" y2="162.0732" style="stroke:#000000;stroke-width:0.0125;"/>
        <!-- Line -->
        <line x1="-388.9561" y1="161.8232" x2="-387.8872" y2="161.8232" style="stroke:#000000;stroke-width:0.0125;"/>
        <!-- Line -->
        <line x1="-388.9561" y1="161.5732" x2="-387.8872" y2="161.5732" style="stroke:#000000;stroke-width:0.0125;"/>
        <!-- Line -->
        <line x1="-388.9561" y1="161.3232" x2="-387.8872" y2="161.3232" style="stroke:#000000;stroke-width:0.0125;"/>
        <!-- Line -->
        <line x1="-388.9561" y1="161.0732" x2="-387.8872" y2="161.0732" style="stroke:#000000;stroke-width:0.0125;"/>
        <!-- Line -->
        <line x1="-388.9561" y1="160.8232" x2="-387.8872" y2="160.8232" style="stroke:#000000;stroke-width:0.0125;"/>
        <!-- Line -->
        <line x1="-388.9561" y1="160.5732" x2="-387.8872" y2="160.5732" style="stroke:#000000;stroke-width:0.0125;"/>
        <!-- Line -->
        <line x1="-388.9561" y1="160.3232" x2="-387.8872" y2="160.3232" style="stroke:#000000;stroke-width:0.0125;"/>
        <!-- Line -->
        <line x1="-388.9561" y1="160.0732" x2="-387.8872" y2="160.0732" style="stroke:#000000;stroke-width:0.0125;"/>
        <!-- Line -->
        <line x1="-388.4015" y1="162.5617" x2="-389.8934" y2="162.5617" style="stroke:#000000;stroke-width:0.0125;"/>
        <!-- Line -->
        <line x1="-389.8934" y1="162.5617" x2="-389.8934" y2="157.8232" style="stroke:#000000;stroke-width:0.0125;"/>
        <!-- Line -->
        <line x1="-390.6872" y1="157.5853" x2="-390.6872" y2="158.3272" style="stroke:#004c26;stroke-width:0.0125;"/>
        <!-- Line -->
        <line x1="-390.6872" y1="157.5853" x2="-390.6872" y2="158.3272" style="stroke:#004c26;stroke-width:0.0125;"/>
        <!-- Line -->
        <line x1="-403.0936" y1="155.4272" x2="-386.3999" y2="155.4272" style="stroke:#808080;stroke-width:0.0125;stroke-dasharray:0.2381,0.0397,0.0397,0.0397;stroke-dashoffset:0.1661"/>
        <!-- Text: LII' -->
        <text x="-396.4674" dx="0" y="-166.7315" dy="0.2" font-family="arial" font-size="0.28" line-height="1.1" fill="#808080" transform="scale(1,-1) rotate(360 -396.4674,-166.7315)" text-anchor="end">LII'</text>
        <!-- Circle -->
        <circle cx="-396.7272" cy="166.6265" r="0.3" style="stroke:#808080;stroke-width:0.0125;"/>
        <!-- Text: LII' -->
        <text x="-396.4674" dx="0" y="-147.9179" dy="0.2" font-family="arial" font-size="0.28" line-height="1.1" fill="#808080" transform="scale(1,-1) rotate(360 -396.4674,-147.9179)" text-anchor="end">LII'</text>
        <!-- Circle -->
        <circle cx="-396.7272" cy="147.8129" r="0.3" style="stroke:#808080;stroke-width:0.0125;"/>
        <!-- Text: 23 -->
        <text x="-385.9315" dx="0" y="-155.5178" dy="0.2" font-family="arial" font-size="0.28" line-height="1.1" fill="#808080" transform="scale(1,-1) rotate(360 -385.9315,-155.5178)" text-anchor="end">23</text>
        <!-- Circle -->
        <circle cx="-386.0888" cy="155.4049" r="0.3" style="stroke:#808080;stroke-width:0.0125;"/>
        <!-- Circle -->
        <circle cx="-403.3936" cy="155.4272" r="0.3" style="stroke:#808080;stroke-width:0.0125;"/>
        <!-- Text: 23 -->
        <text x="-403.2364" dx="0" y="-155.5401" dy="0.2" font-family="arial" font-size="0.28" line-height="1.1" fill="#808080" transform="scale(1,-1) rotate(360 -403.2364,-155.5401)" text-anchor="end">23</text>
        <!-- Hatch -->
        <g>
            <path d="M-390.4119,164.9114 L-390.4084,164.9148" style="stroke:#808080;stroke-width:0.0125;"/>
            <path d="M-390.5242,164.9114 L-390.4084,165.0271" style="stroke:#808080;stroke-width:0.0125;"/>
            <path d="M-390.6364,164.9114 L-390.4084,165.1393" style="stroke:#808080;stroke-width:0.0125;"/>
            <path d="M-390.6884,164.9716 L-390.4687,165.1914" style="stroke:#808080;stroke-width:0.0125;"/>
            <path d="M-390.6884,165.0838 L-390.5809,165.1914" style="stroke:#808080;stroke-width:0.0125;"/>
            <path d="M-400.2855,164.916 L-400.2689,164.9326" style="stroke:#808080;stroke-width:0.0125;"/>
            <path d="M-400.3978,164.916 L-400.2689,165.0449" style="stroke:#808080;stroke-width:0.0125;"/>
            <path d="M-400.51,164.916 L-400.2689,165.1571" style="stroke:#808080;stroke-width:0.0125;"/>
            <path d="M-400.5489,164.9894 L-400.3423,165.196" style="stroke:#808080;stroke-width:0.0125;"/>
            <path d="M-400.5489,165.1016 L-400.4545,165.196" style="stroke:#808080;stroke-width:0.0125;"/>
        </g>
        <!-- Hatch -->
        <g>
            <path d="M-390.4503,151.9572 L-390.4072,152.0002" style="stroke:#808080;stroke-width:0.0125;"/>
            <path d="M-390.5625,151.9572 L-390.4072,152.1125" style="stroke:#808080;stroke-width:0.0125;"/>
            <path d="M-390.6748,151.9572 L-390.4072,152.2247" style="stroke:#808080;stroke-width:0.0125;"/>
            <path d="M-390.7272,152.017 L-390.507,152.2372" style="stroke:#808080;stroke-width:0.0125;"/>
            <path d="M-390.7272,152.1293 L-390.6193,152.2372" style="stroke:#808080;stroke-width:0.0125;"/>
            <path d="M-390.4792,158.3267 L-390.4472,158.3587" style="stroke:#808080;stroke-width:0.0125;"/>
            <path d="M-390.5933,158.3248 L-390.4472,158.4709" style="stroke:#808080;stroke-width:0.0125;"/>
            <path d="M-390.7074,158.323 L-390.4472,158.5832" style="stroke:#808080;stroke-width:0.0125;"/>
            <path d="M-390.7158,158.4269 L-390.4472,158.6954" style="stroke:#808080;stroke-width:0.0125;"/>
            <path d="M-390.7158,158.5391 L-390.4472,158.8077" style="stroke:#808080;stroke-width:0.0125;"/>
            <path d="M-390.7158,158.6514 L-390.5415,158.8257" style="stroke:#808080;stroke-width:0.0125;"/>
            <path d="M-390.7158,158.7636 L-390.6556,158.8238" style="stroke:#808080;stroke-width:0.0125;"/>
            <path d="M-400.3285,151.9572 L-400.2272,152.0585" style="stroke:#808080;stroke-width:0.0125;"/>
            <path d="M-400.4408,151.9572 L-400.2272,152.1708" style="stroke:#808080;stroke-width:0.0125;"/>
            <path d="M-400.5531,151.9572 L-400.2731,152.2372" style="stroke:#808080;stroke-width:0.0125;"/>
            <path d="M-400.5646,152.0579 L-400.3853,152.2372" style="stroke:#808080;stroke-width:0.0125;"/>
            <path d="M-400.5646,152.1701 L-400.4976,152.2372" style="stroke:#808080;stroke-width:0.0125;"/>
            <path d="M-400.2447,158.3272 L-400.2272,158.3447" style="stroke:#808080;stroke-width:0.0125;"/>
            <path d="M-400.357,158.3272 L-400.2272,158.457" style="stroke:#808080;stroke-width:0.0125;"/>
            <path d="M-400.4692,158.3272 L-400.2272,158.5692" style="stroke:#808080;stroke-width:0.0125;"/>
            <path d="M-400.5476,158.3611 L-400.2272,158.6815" style="stroke:#808080;stroke-width:0.0125;"/>
            <path d="M-400.5476,158.4734 L-400.2272,158.7937" style="stroke:#808080;stroke-width:0.0125;"/>
            <path d="M-400.5476,158.5856 L-400.306,158.8272" style="stroke:#808080;stroke-width:0.0125;"/>
            <path d="M-400.5476,158.6979 L-400.4182,158.8272" style="stroke:#808080;stroke-width:0.0125;"/>
            <path d="M-400.5476,158.8101 L-400.5305,158.8272" style="stroke:#808080;stroke-width:0.0125;"/>
        </g>
        <!-- Line -->
        <line x1="-390.6872" y1="158.3272" x2="-390.6872" y2="157.5853" style="stroke:#004c26;stroke-width:0.0125;"/>
        <!-- Line -->
        <line x1="-390.6872" y1="158.3272" x2="-390.6872" y2="157.5853" style="stroke:#004c26;stroke-width:0.0125;"/>
        <!-- Line -->
        <line x1="-390.4072" y1="156.7853" x2="-389.3561" y2="156.7853" style="stroke:#808080;stroke-width:0.0125;"/>
        <!-- Line -->
        <line x1="-390.4072" y1="156.7353" x2="-389.3061" y2="156.7353" style="stroke:#808080;stroke-width:0.0125;"/>
        <!-- Line -->
        <line x1="-389.3061" y1="162.0835" x2="-389.3061" y2="158.9835" style="stroke:#808080;stroke-width:0.0125;"/>
        <!-- Line -->
        <line x1="-389.3061" y1="158.9835" x2="-389.0061" y2="158.9835" style="stroke:#808080;stroke-width:0.0125;"/>
        <!-- Line -->
        <line x1="-389.3061" y1="162.0835" x2="-389.0061" y2="162.0835" style="stroke:#808080;stroke-width:0.0125;"/>
        <!-- Line -->
        <line x1="-389.0061" y1="162.0835" x2="-389.0061" y2="158.9835" style="stroke:#808080;stroke-width:0.0125;"/>
        <!-- Line -->
        <line x1="-389.3061" y1="158.9335" x2="-389.3061" y2="156.7353" style="stroke:#808080;stroke-width:0.0125;"/>
        <!-- Line -->
        <line x1="-389.3061" y1="157.9972" x2="-387.8872" y2="157.9972" style="stroke:#808080;stroke-width:0.0125;"/>
        <!-- Line -->
        <line x1="-389.3061" y1="157.6972" x2="-387.5872" y2="157.6972" style="stroke:#808080;stroke-width:0.0125;"/>
        <!-- Line -->
        <line x1="-400.5072" y1="152.2372" x2="-400.5472" y2="152.2372" style="stroke:#004c26;stroke-width:0.0125;"/>
        <!-- Line -->
        <line x1="-400.5072" y1="151.9572" x2="-400.5072" y2="149.4772" style="stroke:#808080;stroke-width:0.0125;"/>
        <!-- Line -->
        <line x1="-400.2272" y1="151.9572" x2="-400.2272" y2="149.7572" style="stroke:#808080;stroke-width:0.0125;"/>
        <!-- Line -->
        <line x1="-387.7622" y1="157.8722" x2="-387.7622" y2="163.1472" style="stroke:#808080;stroke-width:0.0125;"/>
        <!-- Line -->
        <line x1="-387.7122" y1="157.8222" x2="-387.7122" y2="163.1472" style="stroke:#808080;stroke-width:0.0125;"/>
        <!-- Line -->
        <line x1="-388.7316" y1="157.9972" x2="-388.7316" y2="157.6972" style="stroke:#808080;stroke-width:0.0125;"/>
        <!-- Line -->
        <line x1="-388.7316" y1="157.8722" x2="-387.7622" y2="157.8722" style="stroke:#808080;stroke-width:0.0125;"/>
        <!-- Line -->
        <line x1="-388.7316" y1="157.8222" x2="-387.7122" y2="157.8222" style="stroke:#808080;stroke-width:0.0125;"/>
        <!-- Line -->
        <line x1="-387.7622" y1="163.1472" x2="-387.7122" y2="163.1472" style="stroke:#808080;stroke-width:0.0125;"/>
        <!-- Line -->
        <line x1="-389.3561" y1="160.0732" x2="-390.4072" y2="160.0732" style="stroke:#000000;stroke-width:0.0125;"/>
        <!-- Line -->
        <line x1="-389.3561" y1="159.8232" x2="-390.4072" y2="159.8232" style="stroke:#000000;stroke-width:0.0125;"/>
        <!-- Line -->
        <line x1="-390.4072" y1="158.8232" x2="-389.3561" y2="158.8232" style="stroke:#000000;stroke-width:0.0125;"/>
        <!-- Line -->
        <line x1="-390.4072" y1="158.5732" x2="-389.3561" y2="158.5732" style="stroke:#000000;stroke-width:0.0125;"/>
        <!-- Line -->
        <line x1="-390.4072" y1="158.3232" x2="-389.3561" y2="158.3232" style="stroke:#000000;stroke-width:0.0125;"/>
        <!-- Line -->
        <line x1="-390.4072" y1="158.0732" x2="-389.3561" y2="158.0732" style="stroke:#000000;stroke-width:0.0125;"/>
        <!-- Line -->
        <line x1="-390.4072" y1="158.3232" x2="-389.3561" y2="158.3232" style="stroke:#000000;stroke-width:0.0125;"/>
        <!-- Line -->
        <line x1="-390.4072" y1="157.8232" x2="-389.3561" y2="157.8232" style="stroke:#000000;stroke-width:0.0125;"/>
        <!-- Line -->
        <line x1="-389.3061" y1="158.4654" x2="-388.4015" y2="158.4654" style="stroke:#000000;stroke-width:0.0125;"/>
        <!-- Line -->
        <line x1="-389.8934" y1="157.8232" x2="-389.8005" y2="157.9973" style="stroke:#000000;stroke-width:0.0125;"/>
        <!-- Line -->
        <line x1="-389.8934" y1="157.8232" x2="-389.9863" y2="157.9973" style="stroke:#000000;stroke-width:0.0125;"/>
        <!-- Line -->
        <line x1="-390.6872" y1="156.747" x2="-390.6872" y2="152.2372" style="stroke:#004c26;stroke-width:0.0125;"/>
        <!-- Line -->
        <line x1="-396.7272" y1="166.3534" x2="-396.7272" y2="148.1129" style="stroke:#808080;stroke-width:0.0125;stroke-dasharray:0.2381,0.0397,0.0397,0.0397;stroke-dashoffset:0.1071"/>
        <!-- Line -->
        <line x1="-394.3374" y1="151.9572" x2="-392.4946" y2="151.9572" style="stroke:#004c26;stroke-width:0.0125;"/>
        <!-- Line -->
        <line x1="-396.5772" y1="152.2372" x2="-392.4946" y2="152.2372" style="stroke:#004c26;stroke-width:0.0125;"/>
        <!-- Line -->
        <line x1="-398.3772" y1="152.2372" x2="-398.3772" y2="151.9572" style="stroke:#004c26;stroke-width:0.0125;"/>
        <!-- Line -->
        <line x1="-396.5772" y1="152.2372" x2="-396.5772" y2="151.9572" style="stroke:#004c26;stroke-width:0.0125;"/>
        <!-- Line -->
        <line x1="-398.3772" y1="151.9572" x2="-398.3772" y2="149.8072" style="stroke:#808080;stroke-width:0.0125;"/>
        <!-- Line -->
        <line x1="-398.4272" y1="151.9572" x2="-398.4272" y2="149.7572" style="stroke:#808080;stroke-width:0.0125;"/>
        <!-- Line -->
        <line x1="-398.4272" y1="149.7572" x2="-400.2272" y2="151.9572" style="stroke:#808080;stroke-width:0.0125;"/>
        <!-- Line -->
        <line x1="-398.4272" y1="151.9572" x2="-400.2272" y2="149.7572" style="stroke:#808080;stroke-width:0.0125;"/>
        <!-- Line -->
        <line x1="-400.3922" y1="151.9572" x2="-400.3922" y2="149.5922" style="stroke:#808080;stroke-width:0.0125;"/>
        <!-- Line -->
        <line x1="-400.3422" y1="151.9572" x2="-400.3422" y2="149.6422" style="stroke:#808080;stroke-width:0.0125;"/>
        <!-- Line -->
        <line x1="-398.3772" y1="152.2372" x2="-398.3272" y2="152.2372" style="stroke:#808080;stroke-width:0.0125;"/>
        <!-- Line -->
        <line x1="-398.3272" y1="151.9572" x2="-398.3772" y2="151.9572" style="stroke:#808080;stroke-width:0.0125;"/>
        <!-- Line -->
        <line x1="-396.5772" y1="151.9572" x2="-396.6272" y2="151.9572" style="stroke:#808080;stroke-width:0.0125;"/>
        <!-- Line -->
        <line x1="-398.3272" y1="151.9572" x2="-398.3272" y2="151.1072" style="stroke:#808080;stroke-width:0.0125;"/>
        <!-- Line -->
        <line x1="-398.3272" y1="151.9572" x2="-398.2772" y2="151.9572" style="stroke:#808080;stroke-width:0.0125;"/>
        <!-- Line -->
        <line x1="-398.3272" y1="152.2372" x2="-398.3272" y2="151.9572" style="stroke:#808080;stroke-width:0.0125;"/>
        <!-- Line -->
        <line x1="-396.6272" y1="152.2372" x2="-396.6272" y2="151.9572" style="stroke:#808080;stroke-width:0.0125;"/>
        <!-- Line -->
        <line x1="-398.2772" y1="151.9572" x2="-398.2772" y2="151.1072" style="stroke:#808080;stroke-width:0.0125;"/>
        <!-- Line -->
        <line x1="-398.3272" y1="151.1072" x2="-398.2772" y2="151.1072" style="stroke:#808080;stroke-width:0.0125;"/>
        <!-- Line -->
        <line x1="-396.6772" y1="151.9572" x2="-396.6772" y2="151.1072" style="stroke:#808080;stroke-width:0.0125;"/>
        <!-- Line -->
        <line x1="-396.6272" y1="151.9572" x2="-396.6272" y2="151.1072" style="stroke:#808080;stroke-width:0.0125;"/>
        <!-- Line -->
        <line x1="-396.6772" y1="151.1072" x2="-396.6272" y2="151.1072" style="stroke:#808080;stroke-width:0.0125;"/>
        <!-- Line -->
        <line x1="-396.6772" y1="151.9572" x2="-396.6272" y2="151.9572" style="stroke:#808080;stroke-width:0.0125;"/>
        <!-- Line -->
        <line x1="-398.3272" y1="152.2372" x2="-396.6272" y2="152.2372" style="stroke:#808080;stroke-width:0.0125;"/>
        <!-- Line -->
        <line x1="-398.2772" y1="151.9572" x2="-396.6772" y2="151.9572" style="stroke:#ff0000;stroke-width:0.0125;"/>
        <!-- Line -->
        <line x1="-398.2772" y1="151.1072" x2="-397.4772" y2="151.9572" style="stroke:#ff0000;stroke-width:0.0125;"/>
        <!-- Line -->
        <line x1="-397.4772" y1="151.9572" x2="-396.6772" y2="151.1072" style="stroke:#ff0000;stroke-width:0.0125;"/>
        <!-- Line -->
        <line x1="-398.3772" y1="149.8072" x2="-394.6174" y2="149.8072" style="stroke:#808080;stroke-width:0.0125;"/>
        <!-- Line -->
        <line x1="-396.4741" y1="151.0572" x2="-394.6174" y2="151.0572" style="stroke:#808080;stroke-width:0.0125;"/>
        <!-- Line -->
        <line x1="-396.4741" y1="150.7572" x2="-394.6174" y2="150.7572" style="stroke:#808080;stroke-width:0.0125;"/>
        <!-- Line -->
        <line x1="-396.5241" y1="151.9572" x2="-396.5241" y2="150.7072" style="stroke:#808080;stroke-width:0.0125;"/>
        <!-- Line -->
        <line x1="-396.2241" y1="150.7072" x2="-396.2241" y2="149.8072" style="stroke:#000000;stroke-width:0.0125;"/>
        <!-- Line -->
        <line x1="-395.9741" y1="150.7072" x2="-395.9741" y2="149.8072" style="stroke:#000000;stroke-width:0.0125;"/>
        <!-- Line -->
        <line x1="-395.7241" y1="150.7072" x2="-395.7241" y2="149.8072" style="stroke:#000000;stroke-width:0.0125;"/>
        <!-- Line -->
        <line x1="-395.4741" y1="150.7072" x2="-395.4741" y2="149.8072" style="stroke:#000000;stroke-width:0.0125;"/>
        <!-- Line -->
        <line x1="-395.2241" y1="150.7072" x2="-395.2241" y2="149.8072" style="stroke:#000000;stroke-width:0.0125;"/>
        <!-- Line -->
        <line x1="-394.9741" y1="150.7072" x2="-394.9741" y2="149.8072" style="stroke:#000000;stroke-width:0.0125;"/>
        <!-- Line -->
        <line x1="-394.7241" y1="150.7072" x2="-394.7241" y2="149.8072" style="stroke:#000000;stroke-width:0.0125;"/>
        <!-- Line -->
        <line x1="-396.5241" y1="150.7072" x2="-396.5241" y2="149.8072" style="stroke:#808080;stroke-width:0.0125;"/>
        <!-- Line -->
        <line x1="-396.5241" y1="150.2322" x2="-396.269" y2="150.3305" style="stroke:#000000;stroke-width:0.0125;"/>
        <!-- Line -->
        <line x1="-396.5241" y1="150.2322" x2="-396.269" y2="150.1339" style="stroke:#000000;stroke-width:0.0125;"/>
        <!-- Line -->
        <line x1="-390.6872" y1="161.8472" x2="-400.2672" y2="161.8472" style="stroke:#808080;stroke-width:0.0125;"/>
        <!-- Line -->
        <line x1="-390.6872" y1="161.6472" x2="-400.2672" y2="161.6472" style="stroke:#808080;stroke-width:0.0125;"/>
        <!-- Line -->
        <line x1="-390.7158" y1="158.6772" x2="-400.2272" y2="158.6772" style="stroke:#808080;stroke-width:0.0125;"/>
        <!-- Line -->
        <line x1="-390.7158" y1="158.4772" x2="-400.2272" y2="158.4772" style="stroke:#808080;stroke-width:0.0125;"/>
        <!-- Line -->
        <line x1="-390.6872" y1="155.5072" x2="-400.2672" y2="155.5072" style="stroke:#808080;stroke-width:0.0125;"/>
        <!-- Line -->
        <line x1="-390.6872" y1="155.3072" x2="-400.2672" y2="155.3072" style="stroke:#808080;stroke-width:0.0125;"/>
        <!-- Line -->
        <line x1="-394.6174" y1="151.9572" x2="-394.6174" y2="149.1071" style="stroke:#004c26;stroke-width:0.0125;"/>
        <!-- Line -->
        <line x1="-394.3374" y1="151.9572" x2="-394.3374" y2="149.3871" style="stroke:#004c26;stroke-width:0.0125;"/>
        <!-- Line -->
        <line x1="-394.3374" y1="149.3871" x2="-390.6872" y2="149.3871" style="stroke:#004c26;stroke-width:0.0125;"/>
        <!-- Line -->
        <line x1="-394.6174" y1="149.1071" x2="-390.4072" y2="149.1071" style="stroke:#004c26;stroke-width:0.0125;"/>
        <!-- Line -->
        <line x1="-392.4946" y1="152.2372" x2="-392.4946" y2="151.9572" style="stroke:#004c26;stroke-width:0.0125;"/>
        <!-- Line -->
        <line x1="-396.5772" y1="151.9572" x2="-394.6174" y2="151.9572" style="stroke:#004c26;stroke-width:0.0125;"/>
        <!-- Line -->
        <line x1="-390.6872" y1="151.9572" x2="-390.6872" y2="149.3871" style="stroke:#004c26;stroke-width:0.0125;"/>
        <!-- Line -->
        <line x1="-394.6174" y1="150.2322" x2="-396.5241" y2="150.2322" style="stroke:#000000;stroke-width:0.0125;"/>
        <!-- Line -->
        <line x1="-394.6174" y1="149.7572" x2="-395.2933" y2="149.7572" style="stroke:#808080;stroke-width:0.0125;"/>
        <!-- Line -->
        <line x1="-394.6174" y1="149.6422" x2="-400.3422" y2="149.6422" style="stroke:#808080;stroke-width:0.0125;"/>
        <!-- Line -->
        <line x1="-394.6174" y1="149.5922" x2="-400.3922" y2="149.5922" style="stroke:#808080;stroke-width:0.0125;"/>
        <!-- Line -->
        <line x1="-390.4072" y1="156.7853" x2="-390.6868" y2="156.7853" style="stroke:#004c26;stroke-width:0.0125;"/>
        <!-- Line -->
        <line x1="-390.6868" y1="156.7853" x2="-390.6872" y2="156.747" style="stroke:#004c26;stroke-width:0.0125;"/>
        <!-- Line -->
        <line x1="-390.6868" y1="157.5853" x2="-390.4068" y2="157.5853" style="stroke:#004c26;stroke-width:0.0125;"/>
        <!-- Line -->
        <line x1="-390.6868" y1="156.7853" x2="-390.4068" y2="156.7853" style="stroke:#004c26;stroke-width:0.0125;"/>
        <!-- Line -->
        <line x1="-390.4068" y1="157.5603" x2="-389.9662" y2="157.5603" style="stroke:#808080;stroke-width:0.0125;"/>
        <!-- Line -->
        <line x1="-390.4068" y1="157.5603" x2="-390.4068" y2="157.5103" style="stroke:#808080;stroke-width:0.0125;"/>
        <!-- Line -->
        <line x1="-390.4068" y1="156.8103" x2="-389.7564" y2="156.8103" style="stroke:#808080;stroke-width:0.0125;"/>
        <!-- Line -->
        <line x1="-390.4068" y1="156.8603" x2="-390.4068" y2="156.8103" style="stroke:#808080;stroke-width:0.0125;"/>
        <!-- Line -->
        <line x1="-389.9662" y1="157.5603" x2="-389.9662" y2="157.5103" style="stroke:#808080;stroke-width:0.0125;"/>
        <!-- Line -->
        <line x1="-389.7564" y1="156.8103" x2="-389.7564" y2="156.8603" style="stroke:#808080;stroke-width:0.0125;"/>
        <!-- Line -->
        <line x1="-389.9662" y1="157.5103" x2="-390.4068" y2="157.5103" style="stroke:#808080;stroke-width:0.0125;"/>
        <!-- Line -->
        <line x1="-389.7564" y1="156.8603" x2="-390.4068" y2="156.8603" style="stroke:#808080;stroke-width:0.0125;"/>
        <!-- Line -->
        <line x1="-390.6868" y1="157.5603" x2="-390.4068" y2="157.5603" style="stroke:#000000;stroke-width:0.0125;"/>
        <!-- Line -->
        <line x1="-390.6868" y1="156.8103" x2="-390.4068" y2="156.8103" style="stroke:#000000;stroke-width:0.0125;"/>
        <!-- Line -->
        <line x1="-390.4068" y1="157.5853" x2="-390.4068" y2="157.5603" style="stroke:#808080;stroke-width:0.0125;"/>
        <!-- Line -->
        <line x1="-390.4068" y1="156.8103" x2="-390.4068" y2="156.7853" style="stroke:#808080;stroke-width:0.0125;"/>
        <!-- Line -->
        <line x1="-390.6868" y1="157.5853" x2="-390.6868" y2="157.5603" style="stroke:#808080;stroke-width:0.0125;"/>
        <!-- Line -->
        <line x1="-390.6868" y1="156.8103" x2="-390.6868" y2="156.7853" style="stroke:#808080;stroke-width:0.0125;"/>
        <!-- Line -->
        <line x1="-390.4068" y1="157.5103" x2="-390.4068" y2="156.8603" style="stroke:#ff0000;stroke-width:0.0125;"/>
        <!-- Line -->
        <line x1="-390.6868" y1="157.5603" x2="-390.6868" y2="156.8103" style="stroke:#808080;stroke-width:0.0125;"/>
        <!-- Line -->
        <line x1="-389.7564" y1="156.8603" x2="-390.4068" y2="157.286" style="stroke:#ff0000;stroke-width:0.0125;"/>
        <!-- Line -->
        <line x1="-390.4068" y1="157.286" x2="-389.9662" y2="157.5103" style="stroke:#ff0000;stroke-width:0.0125;"/>
        <!-- Hatch -->
        <g>
            <path d="M-391.16,164.9172 L-391.16,165.1977" style="stroke:#000000;stroke-width:0.0125;"/>
            <path d="M-398.145,164.9172 L-398.145,165.1973" style="stroke:#000000;stroke-width:0.0125;"/>
        </g>
        <!-- Hatch -->
        <g>
            <path d="M-400.5473,153.67 L-400.2672,153.67" style="stroke:#000000;stroke-width:0.0125;"/>
            <path d="M-390.6872,153.67 L-390.4072,153.67" style="stroke:#000000;stroke-width:0.0125;"/>
            <path d="M-400.5477,160.655 L-400.2672,160.655" style="stroke:#000000;stroke-width:0.0125;"/>
            <path d="M-390.6872,160.655 L-390.407,160.655" style="stroke:#000000;stroke-width:0.0125;"/>
            <path d="M-387.8872,160.655 L-387.7622,160.655" style="stroke:#000000;stroke-width:0.0125;"/>
            <path d="M-387.7122,160.655 L-387.5872,160.655" style="stroke:#000000;stroke-width:0.0125;"/>
            <path d="M-391.16,149.1071 L-391.16,149.3871" style="stroke:#000000;stroke-width:0.0125;"/>
        </g>
        <!-- Hatch -->
        <g>
            <path d="M-389.3561,160.655 L-389.3061,160.655" style="stroke:#808080;stroke-width:0.0125;"/>
            <path d="M-389.0061,160.655 L-388.9561,160.655" style="stroke:#808080;stroke-width:0.0125;"/>
        </g>
        <!-- Hatch -->
        <!-- Hatch -->
        <!-- Hatch -->
        <path d="M-398.145,149.7572 L-398.145,149.8072" style="stroke:#808080;stroke-width:0.0125;"/>
        <!-- Hatch -->
        <path d="M-398.145,149.4772 L-398.145,149.5922" style="stroke:#808080;stroke-width:0.0125;"/>
        <!-- Hatch -->
        <!-- Hatch -->
        <!-- Line -->
        <line x1="-396.6272" y1="152.2372" x2="-396.5753" y2="152.2372" style="stroke:#004c26;stroke-width:0.0125;"/>
        <!-- Line -->
        <line x1="-396.5753" y1="152.2372" x2="-396.6272" y2="152.2372" style="stroke:#004c26;stroke-width:0.0125;"/>
        <!-- Line -->
        <line x1="-396.6272" y1="152.2372" x2="-396.5772" y2="152.2372" style="stroke:#004c26;stroke-width:0.0125;"/>
        <!-- Hatch -->
        <g>
            <path d="M-398.145,149.8072 L-398.145,151.2477" style="stroke:#c7c8ca;stroke-width:0.0125;"/>
            <path d="M-398.145,151.2477 L-398.145,151.765" style="stroke:#c7c8ca;stroke-width:0.0125;"/>
        </g>
        <!-- Hatch -->
        <!-- Hatch -->
        <g>
            <path d="M-398.145,149.8072 L-398.145,151.2477" style="stroke:#afd9aa;stroke-width:0.0125;"/>
            <path d="M-398.145,151.2477 L-398.145,151.765" style="stroke:#afd9aa;stroke-width:0.0125;"/>
        </g>
        <!-- Hatch -->
        <!-- Hatch -->
        <path d="M-396.7272,161.8472 L-400.2672,161.8472 L-400.2672,161.6472 L-396.7272,161.6472 ZM-390.6872,161.8472 L-396.7272,161.8472 L-396.7272,161.6472 L-390.6872,161.6472 ZM-396.7272,158.6772 L-400.2272,158.6772 L-400.2272,158.4772 L-396.7272,158.4772 ZM-390.7158,158.6772 L-396.7272,158.6772 L-396.7272,158.4772 L-390.7158,158.4772 ZM-400.2272,158.8272 L-400.5476,158.8272 L-400.5476,158.3272 L-400.2272,158.3272 Z" style="fill:#009900;fill-rule:evenodd;"/>
        <!-- Hatch -->
        <path d="M-396.7272,155.4272 L-400.2672,155.4272 L-400.2672,155.3072 L-396.7272,155.3072 ZM-396.7272,155.5072 L-400.2672,155.5072 L-400.2672,155.4272 L-396.7272,155.4272 ZM-390.6872,155.4272 L-396.7272,155.4272 L-396.7272,155.3072 L-390.6872,155.3072 ZM-390.6872,155.5072 L-396.7272,155.5072 L-396.7272,155.4272 L-390.6872,155.4272 ZM-400.2272,152.2372 L-400.5656,152.2372 L-400.5656,151.9572 L-400.2272,151.9572 Z" style="fill:#009900;fill-rule:evenodd;"/>
        <!-- Hatch -->
        <path d="M-390.4072,152.2372 L-390.7272,152.2372 L-390.7272,151.9572 L-390.4072,151.9572 ZM-390.4068,158.8272 L-390.7158,158.8272 L-390.7158,158.3272 L-390.4068,158.3272 ZM-390.4084,165.1914 L-390.6884,165.1914 L-390.6884,164.9172 L-390.6872,164.9172 L-390.4084,164.9114 ZM-400.2689,165.196 L-400.548,165.196 L-400.548,164.916 L-400.2689,164.916 Z" style="fill:#009900;fill-rule:evenodd;"/>
        <!-- Hatch -->
        <path d="M-389.8934,161.8232 L-390.407,161.8232 L-390.407,161.5732 L-389.8934,161.5732 ZM-389.3561,161.8232 L-389.8934,161.8232 L-389.8934,161.5732 L-389.3561,161.5732 ZM-389.3561,161.5732 L-389.8934,161.5732 L-389.8934,161.3232 L-389.3561,161.3232 ZM-389.8934,161.5732 L-390.407,161.5732 L-390.407,161.3232 L-389.8934,161.3232 Z" style="fill:#c7c8ca;fill-rule:evenodd;"/>
        <!-- Hatch -->
        <path d="M-389.8934,160.0732 L-390.4069,160.0732 L-390.4069,159.8232 L-389.8934,159.8232 ZM-389.3561,160.0732 L-389.8934,160.0732 L-389.8934,159.8232 L-389.3561,159.8232 ZM-389.3561,159.8232 L-389.8934,159.8232 L-389.8934,159.5732 L-389.3561,159.5732 ZM-389.3561,159.5732 L-389.8934,159.5732 L-389.8934,159.3232 L-389.3561,159.3232 ZM-389.3561,159.3232 L-389.8934,159.3232 L-389.8934,159.0732 L-389.3561,159.0732 ZM-389.3561,159.0732 L-389.8934,159.0732 L-389.8934,158.8232 L-389.3561,158.8232 ZM-389.3561,158.8232 L-389.8934,158.8232 L-389.8934,158.5732 L-389.3561,158.5732 ZM-389.3561,158.5732 L-389.8934,158.5732 L-389.8934,158.3232 L-389.3561,158.3232 ZM-389.3561,158.3232 L-389.8934,158.3232 L-389.8934,158.0732 L-389.3561,158.0732 ZM-389.3561,158.0732 L-389.8934,158.0732 L-389.8934,157.8232 L-389.3561,157.8232 ZM-389.8934,158.0732 L-390.4068,158.0732 L-390.4068,157.8232 L-389.8934,157.8232 ZM-389.8934,158.3232 L-390.4068,158.3232 L-390.4068,158.0732 L-389.8934,158.0732 ZM-389.8934,158.5732 L-390.405,158.5732 L-390.405,158.3232 L-389.8934,158.3232 ZM-389.8934,158.8232 L-390.405,158.8232 L-390.405,158.5732 L-389.8934,158.5732 ZM-389.8934,159.0732 L-390.4069,159.0732 L-390.4068,158.8272 L-390.405,158.8272 L-389.8934,158.8252 ZM-389.8934,159.3232 L-390.4069,159.3232 L-390.4069,159.0732 L-389.8934,159.0732 ZM-389.8934,159.5732 L-390.4069,159.5732 L-390.4069,159.3232 L-389.8934,159.3232 ZM-389.8934,159.8232 L-390.4069,159.8232 L-390.4069,159.5732 L-389.8934,159.5732 Z" style="fill:#c7c8ca;fill-rule:evenodd;"/>
        <!-- Hatch -->
        <path d="M-388.4015,161.5732 L-388.9561,161.5732 L-388.9561,161.3232 L-388.4015,161.3232 ZM-387.8872,161.5732 L-388.4015,161.5732 L-388.4015,161.3232 L-387.8872,161.3232 ZM-387.8872,161.3232 L-388.4015,161.3232 L-388.4015,161.0732 L-387.8872,161.0732 ZM-388.4015,161.3232 L-388.9561,161.3232 L-388.9561,161.0732 L-388.4015,161.0732 ZM-388.4015,161.0732 L-388.9561,161.0732 L-388.9561,160.8232 L-388.4015,160.8232 ZM-387.8872,161.0732 L-388.4015,161.0732 L-388.4015,160.8232 L-387.8872,160.8232 ZM-387.8872,160.8232 L-388.4015,160.8232 L-388.4015,160.5732 L-387.8872,160.5732 ZM-388.4015,160.8232 L-388.9561,160.8232 L-388.9561,160.5732 L-388.4015,160.5732 ZM-388.4015,160.5732 L-388.9561,160.5732 L-388.9561,160.3232 L-388.4015,160.3232 ZM-387.8872,160.5732 L-388.4015,160.5732 L-388.4015,160.3232 L-387.8872,160.3232 ZM-387.8872,160.3232 L-388.4015,160.3232 L-388.4015,160.0732 L-387.8872,160.0732 ZM-388.4015,160.3232 L-388.9561,160.3232 L-388.9561,160.0732 L-388.4015,160.0732 ZM-388.4015,160.0732 L-388.9561,160.0732 L-388.9561,159.8232 L-388.4015,159.8232 ZM-387.8872,160.0732 L-388.4015,160.0732 L-388.4015,159.8232 L-387.8872,159.8232 ZM-387.8872,159.8232 L-388.4015,159.8232 L-388.4015,159.5732 L-387.8872,159.5732 ZM-388.4015,159.8232 L-388.9561,159.8232 L-388.9561,159.5732 L-388.4015,159.5732 ZM-388.4015,159.5732 L-388.9561,159.5732 L-388.9561,159.3232 L-388.4015,159.3232 ZM-387.8872,159.5732 L-388.4015,159.5732 L-388.4015,159.3232 L-387.8872,159.3232 ZM-387.8872,159.3232 L-388.4015,159.3232 L-388.4015,159.0732 L-387.8872,159.0732 ZM-388.4015,159.3232 L-388.9561,159.3232 L-388.9561,159.0732 L-388.4015,159.0732 ZM-388.4015,161.8232 L-388.9561,161.8232 L-388.9561,161.5732 L-388.4015,161.5732 ZM-387.8872,161.8232 L-388.4015,161.8232 L-388.4015,161.5732 L-387.8872,161.5732 ZM-387.8872,162.0732 L-388.4015,162.0732 L-388.4015,161.8232 L-387.8872,161.8232 ZM-388.4015,162.0732 L-388.9561,162.0732 L-388.9561,161.8232 L-388.4015,161.8232 Z" style="fill:#c7c8ca;fill-rule:evenodd;"/>
        <!-- Hatch -->
        <path d="M-387.8872,162.9972 L-390.4071,162.9972 L-390.407,161.8232 L-389.8934,161.8232 L-389.8934,162.5617 L-388.4015,162.5617 L-388.4015,162.0732 L-387.8872,162.0732 ZM-388.4015,162.5617 L-389.8934,162.5617 L-389.8934,161.8232 L-389.3561,161.8232 L-389.3561,162.1335 L-388.9561,162.1335 L-388.9561,162.0732 L-388.4015,162.0732 ZM-389.3561,161.3232 L-389.8934,161.3232 L-389.8934,160.0732 L-389.3561,160.0732 ZM-389.8934,161.3232 L-390.407,161.3232 L-390.4069,160.0732 L-389.8934,160.0732 ZM-388.4015,159.0732 L-388.9561,159.0732 L-388.9561,158.9335 L-389.3061,158.9335 L-389.3061,158.4654 L-388.4015,158.4654 ZM-387.8872,159.0732 L-388.4015,159.0732 L-388.4015,158.4654 L-389.3061,158.4654 L-389.3061,157.9972 L-387.8872,157.9972 ZM-389.3561,157.8232 L-390.4068,157.8232 L-390.4068,157.5853 L-390.4068,157.5603 L-389.9662,157.5603 L-389.9662,157.5103 L-390.4068,157.286 L-389.7564,156.8603 L-389.7564,156.8103 L-390.4068,156.8103 L-390.4068,156.7853 L-389.3561,156.7853 Z" style="fill:#d7ebd2;fill-rule:evenodd;"/>
        <!-- Hatch -->
        <path d="M-396.2241,151.9572 L-396.4741,151.9572 L-396.4741,151.5323 L-396.2241,151.5323 ZM-395.9741,151.9572 L-396.2241,151.9572 L-396.2241,151.5323 L-395.9741,151.5323 ZM-395.7241,151.9572 L-395.9741,151.9572 L-395.9741,151.5323 L-395.7241,151.5323 ZM-395.4741,151.9572 L-395.7241,151.9572 L-395.7241,151.5323 L-395.4741,151.5323 ZM-395.2241,151.9572 L-395.4741,151.9572 L-395.4741,151.5323 L-395.2241,151.5323 ZM-394.9741,151.9572 L-395.2241,151.9572 L-395.2241,151.5323 L-394.9741,151.5323 ZM-394.7241,151.9572 L-394.9741,151.9572 L-394.9741,151.5323 L-394.9741,151.0572 L-394.7241,151.0572 ZM-394.6174,151.9572 L-394.7241,151.9572 L-394.7241,151.0572 L-394.6174,151.0572 ZM-394.9741,151.5323 L-395.2241,151.5323 L-395.2241,151.0572 L-394.9741,151.0572 ZM-395.2241,151.5323 L-395.4741,151.5323 L-395.4741,151.0572 L-395.2241,151.0572 ZM-395.4741,151.5323 L-395.7241,151.5323 L-395.7241,151.0572 L-395.4741,151.0572 ZM-395.7241,151.5323 L-395.9741,151.5323 L-395.9741,151.0572 L-395.7241,151.0572 ZM-395.9741,151.5323 L-396.2241,151.5323 L-396.2241,151.0572 L-395.9741,151.0572 ZM-396.2241,151.5323 L-396.4741,151.5323 L-396.4741,151.0572 L-396.2241,151.0572 Z" style="fill:#c7c8ca;fill-rule:evenodd;"/>
        <!-- Hatch -->
        <path d="M-396.2241,150.7072 L-396.5241,150.7072 L-396.5241,150.2322 L-396.2241,150.2322 ZM-395.9741,150.7072 L-396.2241,150.7072 L-396.2241,150.2322 L-395.9741,150.2322 ZM-395.7241,150.7072 L-395.9741,150.7072 L-395.9741,150.2322 L-395.7241,150.2322 ZM-395.4741,150.7072 L-395.7241,150.7072 L-395.7241,150.2322 L-395.4741,150.2322 ZM-395.2241,150.7072 L-395.4741,150.7072 L-395.4741,150.2322 L-395.2241,150.2322 ZM-394.9741,150.7072 L-395.2241,150.7072 L-395.2241,150.2322 L-394.9741,150.2322 ZM-394.7241,150.7072 L-394.9741,150.7072 L-394.9741,150.2322 L-394.7241,150.2322 ZM-394.6174,150.7072 L-394.7241,150.7072 L-394.7241,150.2322 L-394.6174,150.2322 ZM-394.6174,150.2322 L-394.7241,150.2322 L-394.7241,149.8072 L-394.6174,149.8072 ZM-394.7241,150.2322 L-394.9741,150.2322 L-394.9741,149.8072 L-394.7241,149.8072 ZM-394.9741,150.2322 L-395.2241,150.2322 L-395.2241,149.8072 L-394.9741,149.8072 ZM-395.2241,150.2322 L-395.4741,150.2322 L-395.4741,149.8072 L-395.2241,149.8072 ZM-395.4741,150.2322 L-395.7241,150.2322 L-395.7241,149.8072 L-395.4741,149.8072 ZM-395.7241,150.2322 L-395.9741,150.2322 L-395.9741,149.8072 L-395.7241,149.8072 ZM-395.9741,150.2322 L-396.2241,150.2322 L-396.2241,149.8072 L-395.9741,149.8072 ZM-396.2241,150.2322 L-396.5241,150.2322 L-396.5241,149.8072 L-396.2241,149.8072 Z" style="fill:#c7c8ca;fill-rule:evenodd;"/>
        <!-- Hatch -->
        <path d="M-396.5772,152.2372 L-396.6272,152.2372 L-396.6272,151.9572 L-396.5772,151.9572 Z" style="fill:#c7c8ca;fill-rule:evenodd;"/>
    </g>
</svg>
