<?xml version="1.0" encoding="UTF-8"?>
<!-- 2020-09-03 16:44:34 Generated by QCAD 3.24.3 SVG Exporter PG -->
<svg width="314.1291mm" height="400.2716mm" viewBox="-402.7137 -167.2265 15.7065 20.0136" version="1.1" xmlns="http://www.w3.org/2000/svg" style="stroke-linecap:round;stroke-linejoin:round;fill:none">
    <g transform="scale(1,-1)">
        <!-- Line -->
        <line x1="-399.9931" y1="165.1972" x2="-390.4072" y2="165.1972" style="stroke:#004c26;stroke-width:0.0125;"/>
        <!-- Line -->
        <line x1="-399.9874" y1="164.9172" x2="-390.4472" y2="164.9172" style="stroke:#004c26;stroke-width:0.0125;"/>
        <!-- Line -->
        <line x1="-399.9872" y1="164.8872" x2="-399.9872" y2="158.8272" style="stroke:#004c26;stroke-width:0.0125;"/>
        <!-- Line -->
        <line x1="-399.9874" y1="164.9174" x2="-399.9874" y2="165.1974" style="stroke:#00ff00;stroke-width:0.0125;"/>
        <!-- Line -->
        <line x1="-399.9874" y1="165.1974" x2="-400.2674" y2="165.1974" style="stroke:#00ff00;stroke-width:0.0125;"/>
        <!-- Line -->
        <line x1="-400.2674" y1="164.9174" x2="-400.2674" y2="165.1974" style="stroke:#00ff00;stroke-width:0.0125;"/>
        <!-- Line -->
        <line x1="-400.2674" y1="164.9174" x2="-399.9874" y2="164.9174" style="stroke:#00ff00;stroke-width:0.0125;"/>
        <!-- Line -->
        <line x1="-390.4072" y1="164.8872" x2="-390.4072" y2="161.1372" style="stroke:#004c26;stroke-width:0.0125;"/>
        <!-- Line -->
        <line x1="-390.1272" y1="164.9172" x2="-390.1252" y2="165.1966" style="stroke:#00ff00;stroke-width:0.0125;"/>
        <!-- Line -->
        <line x1="-390.4052" y1="164.9166" x2="-390.1252" y2="164.9166" style="stroke:#00ff00;stroke-width:0.0125;"/>
        <!-- Line -->
        <line x1="-390.4052" y1="164.9166" x2="-390.4052" y2="165.1966" style="stroke:#00ff00;stroke-width:0.0125;"/>
        <!-- Line -->
        <line x1="-390.1252" y1="165.1966" x2="-390.4052" y2="165.1966" style="stroke:#00ff00;stroke-width:0.0125;"/>
        <!-- Line -->
        <line x1="-390.1272" y1="164.9172" x2="-390.1272" y2="161.1372" style="stroke:#004c26;stroke-width:0.0125;"/>
        <!-- Line -->
        <line x1="-399.9872" y1="151.9572" x2="-390.4072" y2="151.9572" style="stroke:#004c26;stroke-width:0.0125;"/>
        <!-- Line -->
        <line x1="-399.9472" y1="151.9572" x2="-399.9472" y2="152.2372" style="stroke:#00ff00;stroke-width:0.0125;"/>
        <!-- Line -->
        <line x1="-400.2672" y1="151.9572" x2="-399.9472" y2="151.9572" style="stroke:#00ff00;stroke-width:0.0125;"/>
        <!-- Line -->
        <line x1="-400.2672" y1="151.9572" x2="-400.2672" y2="152.2372" style="stroke:#00ff00;stroke-width:0.0125;"/>
        <!-- Line -->
        <line x1="-399.9472" y1="152.2372" x2="-400.2672" y2="152.2372" style="stroke:#00ff00;stroke-width:0.0125;"/>
        <!-- Line -->
        <line x1="-399.9872" y1="152.2372" x2="-390.4072" y2="152.2372" style="stroke:#004c26;stroke-width:0.0125;"/>
        <!-- Line -->
        <line x1="-390.4472" y1="152.2372" x2="-390.4472" y2="151.9572" style="stroke:#00ff00;stroke-width:0.0125;"/>
        <!-- Line -->
        <line x1="-390.4472" y1="152.2372" x2="-390.1272" y2="152.2371" style="stroke:#00ff00;stroke-width:0.0125;"/>
        <!-- Line -->
        <line x1="-390.1272" y1="152.2372" x2="-390.1244" y2="151.9566" style="stroke:#00ff00;stroke-width:0.0125;"/>
        <!-- Line -->
        <line x1="-390.4472" y1="151.9572" x2="-390.1244" y2="151.9566" style="stroke:#00ff00;stroke-width:0.0125;"/>
        <!-- Line -->
        <line x1="-400.2672" y1="149.4772" x2="-393.4172" y2="149.4772" style="stroke:#004c26;stroke-width:0.0125;"/>
        <!-- Line -->
        <line x1="-399.9872" y1="151.9572" x2="-399.9872" y2="149.7572" style="stroke:#004c26;stroke-width:0.0125;"/>
        <!-- Line -->
        <line x1="-399.9872" y1="149.7572" x2="-393.4172" y2="149.7572" style="stroke:#004c26;stroke-width:0.0125;"/>
        <!-- Line -->
        <line x1="-397.4741" y1="151.5323" x2="-394.4741" y2="151.5323" style="stroke:#000000;stroke-width:0.0125;"/>
        <!-- Line -->
        <line x1="-395.2933" y1="149.7572" x2="-395.2933" y2="151.0072" style="stroke:#000000;stroke-width:0.0125;"/>
        <!-- Line -->
        <line x1="-395.0433" y1="149.7572" x2="-395.0433" y2="150.7072" style="stroke:#000000;stroke-width:0.0125;"/>
        <!-- Line -->
        <line x1="-394.7933" y1="149.7572" x2="-394.7933" y2="150.7072" style="stroke:#000000;stroke-width:0.0125;"/>
        <!-- Line -->
        <line x1="-394.5433" y1="149.7572" x2="-394.5433" y2="150.7072" style="stroke:#000000;stroke-width:0.0125;"/>
        <!-- Line -->
        <line x1="-394.2933" y1="149.7572" x2="-394.2933" y2="150.7072" style="stroke:#000000;stroke-width:0.0125;"/>
        <!-- Line -->
        <line x1="-394.0433" y1="149.7572" x2="-394.0433" y2="150.7072" style="stroke:#000000;stroke-width:0.0125;"/>
        <!-- Line -->
        <line x1="-393.7933" y1="149.7572" x2="-393.7933" y2="150.7072" style="stroke:#000000;stroke-width:0.0125;"/>
        <!-- Line -->
        <line x1="-393.5433" y1="149.7572" x2="-393.5433" y2="150.7072" style="stroke:#000000;stroke-width:0.0125;"/>
        <!-- Line -->
        <line x1="-393.2933" y1="149.7572" x2="-393.2933" y2="150.7072" style="stroke:#000000;stroke-width:0.0125;"/>
        <!-- Line -->
        <line x1="-393.0433" y1="149.7572" x2="-393.0433" y2="150.7072" style="stroke:#000000;stroke-width:0.0125;"/>
        <!-- Line -->
        <line x1="-392.7933" y1="149.7572" x2="-392.7933" y2="150.7072" style="stroke:#000000;stroke-width:0.0125;"/>
        <!-- Line -->
        <line x1="-394.2241" y1="151.9572" x2="-394.2241" y2="151.0072" style="stroke:#000000;stroke-width:0.0125;"/>
        <!-- Line -->
        <line x1="-394.4741" y1="151.9572" x2="-394.4741" y2="151.0072" style="stroke:#000000;stroke-width:0.0125;"/>
        <!-- Line -->
        <line x1="-394.7241" y1="151.9572" x2="-394.7241" y2="151.0072" style="stroke:#000000;stroke-width:0.0125;"/>
        <!-- Line -->
        <line x1="-394.9741" y1="151.9572" x2="-394.9741" y2="151.0072" style="stroke:#000000;stroke-width:0.0125;"/>
        <!-- Line -->
        <line x1="-395.2241" y1="151.9572" x2="-395.2241" y2="151.0072" style="stroke:#000000;stroke-width:0.0125;"/>
        <!-- Line -->
        <line x1="-395.4741" y1="151.9572" x2="-395.4741" y2="151.0072" style="stroke:#000000;stroke-width:0.0125;"/>
        <!-- Line -->
        <line x1="-395.7241" y1="151.9572" x2="-395.7241" y2="151.0072" style="stroke:#000000;stroke-width:0.0125;"/>
        <!-- Line -->
        <line x1="-395.9741" y1="151.9572" x2="-395.9741" y2="151.0072" style="stroke:#000000;stroke-width:0.0125;"/>
        <!-- Line -->
        <line x1="-396.2241" y1="151.9572" x2="-396.2241" y2="151.0072" style="stroke:#000000;stroke-width:0.0125;"/>
        <!-- Line -->
        <line x1="-396.4741" y1="151.9572" x2="-396.4741" y2="151.0072" style="stroke:#000000;stroke-width:0.0125;"/>
        <!-- Line -->
        <line x1="-396.7241" y1="151.9572" x2="-396.7241" y2="151.0072" style="stroke:#808080;stroke-width:0.0125;"/>
        <!-- Line -->
        <line x1="-396.9741" y1="151.9572" x2="-396.9741" y2="151.0072" style="stroke:#000000;stroke-width:0.0125;"/>
        <!-- Line -->
        <line x1="-397.2241" y1="151.9572" x2="-397.2241" y2="151.0072" style="stroke:#000000;stroke-width:0.0125;"/>
        <!-- Line -->
        <line x1="-393.6062" y1="151.0072" x2="-393.6062" y2="150.7072" style="stroke:#808080;stroke-width:0.0125;"/>
        <!-- Line -->
        <line x1="-397.4741" y1="151.9572" x2="-397.4741" y2="151.0072" style="stroke:#000000;stroke-width:0.0125;"/>
        <!-- Line -->
        <line x1="-397.4741" y1="151.0072" x2="-393.6062" y2="151.0072" style="stroke:#000000;stroke-width:0.0125;"/>
        <!-- Line -->
        <line x1="-395.2933" y1="150.7072" x2="-392.7933" y2="150.7072" style="stroke:#808080;stroke-width:0.0125;"/>
        <!-- Line -->
        <line x1="-392.7933" y1="149.7572" x2="-395.2933" y2="149.7572" style="stroke:#808080;stroke-width:0.0125;"/>
        <!-- Line -->
        <line x1="-394.4741" y1="151.5323" x2="-394.6123" y2="151.5871" style="stroke:#000000;stroke-width:0.0125;"/>
        <!-- Line -->
        <line x1="-394.4741" y1="151.5323" x2="-394.6123" y2="151.4775" style="stroke:#000000;stroke-width:0.0125;"/>
        <!-- Hatch -->
        <path d="M-397.4741,151.5448 L-397.4741,151.5198 L-397.2741,151.5198 L-397.2741,151.5448 Z" style="fill:#000000;fill-rule:evenodd;"/>
        <!-- Line -->
        <line x1="-397.4741" y1="151.5198" x2="-397.4741" y2="151.5448" style="stroke:#000000;stroke-width:0.0125;"/>
        <!-- Line -->
        <line x1="-397.2741" y1="151.5198" x2="-397.2741" y2="151.5448" style="stroke:#808080;stroke-width:0.0125;"/>
        <!-- Line -->
        <line x1="-397.4741" y1="151.5448" x2="-397.2741" y2="151.5448" style="stroke:#000000;stroke-width:0.0125;"/>
        <!-- Line -->
        <line x1="-397.4741" y1="151.5198" x2="-397.2741" y2="151.5198" style="stroke:#000000;stroke-width:0.0125;"/>
        <!-- Line -->
        <line x1="-392.9933" y1="150.2197" x2="-392.7933" y2="150.2197" style="stroke:#808080;stroke-width:0.0125;"/>
        <!-- Line -->
        <line x1="-392.9933" y1="150.2447" x2="-392.7933" y2="150.2447" style="stroke:#808080;stroke-width:0.0125;"/>
        <!-- Line -->
        <line x1="-392.7933" y1="150.2197" x2="-392.7933" y2="150.2447" style="stroke:#808080;stroke-width:0.0125;"/>
        <!-- Line -->
        <line x1="-392.9933" y1="150.2197" x2="-392.9933" y2="150.2447" style="stroke:#808080;stroke-width:0.0125;"/>
        <!-- Hatch -->
        <path d="M-392.9933,150.2447 L-392.9933,150.2197 L-392.7933,150.2197 L-392.7933,150.2447 Z" style="fill:#808080;fill-rule:evenodd;"/>
        <!-- Line -->
        <line x1="-392.9933" y1="150.2322" x2="-395.2933" y2="150.2322" style="stroke:#000000;stroke-width:0.0125;"/>
        <!-- Line -->
        <line x1="-393.6062" y1="150.7072" x2="-395.1377" y2="151.0072" style="stroke:#808080;stroke-width:0.0125;"/>
        <!-- Line -->
        <line x1="-393.6062" y1="151.0072" x2="-395.1377" y2="150.7072" style="stroke:#808080;stroke-width:0.0125;"/>
        <!-- Line -->
        <line x1="-395.2933" y1="149.7572" x2="-399.9872" y2="151.9572" style="stroke:#808080;stroke-width:0.0125;"/>
        <!-- Line -->
        <line x1="-397.3202" y1="151.0072" x2="-399.9872" y2="149.7572" style="stroke:#808080;stroke-width:0.0125;"/>
        <!-- Line -->
        <line x1="-388.1215" y1="162.5617" x2="-388.1215" y2="158.4327" style="stroke:#000000;stroke-width:0.0125;"/>
        <!-- Line -->
        <line x1="-387.6072" y1="157.9972" x2="-387.6072" y2="162.9972" style="stroke:#004c26;stroke-width:0.0125;"/>
        <!-- Line -->
        <line x1="-387.3072" y1="157.6972" x2="-387.3072" y2="163.2972" style="stroke:#004c26;stroke-width:0.0125;"/>
        <!-- Line -->
        <line x1="-390.4072" y1="161.7472" x2="-390.4072" y2="161.1372" style="stroke:#004c26;stroke-width:0.0125;"/>
        <!-- Hatch -->
        <path d="M-389.6009,159.7863 L-389.6259,159.7863 L-389.6259,159.5863 L-389.6009,159.5863 Z" style="fill:#808080;fill-rule:evenodd;"/>
        <!-- Line -->
        <line x1="-389.6259" y1="159.7863" x2="-389.6009" y2="159.7863" style="stroke:#808080;stroke-width:0.0125;"/>
        <!-- Line -->
        <line x1="-389.6259" y1="159.5863" x2="-389.6009" y2="159.5863" style="stroke:#808080;stroke-width:0.0125;"/>
        <!-- Line -->
        <line x1="-389.6009" y1="159.7863" x2="-389.6009" y2="159.5863" style="stroke:#808080;stroke-width:0.0125;"/>
        <!-- Line -->
        <line x1="-389.6259" y1="159.7863" x2="-389.6259" y2="159.5863" style="stroke:#808080;stroke-width:0.0125;"/>
        <!-- Line -->
        <line x1="-390.1272" y1="157.9972" x2="-387.6072" y2="157.9972" style="stroke:#004c26;stroke-width:0.0125;"/>
        <!-- Line -->
        <line x1="-390.1272" y1="157.6972" x2="-387.3072" y2="157.6972" style="stroke:#004c26;stroke-width:0.0125;"/>
        <!-- Line -->
        <line x1="-389.6134" y1="159.7863" x2="-389.6134" y2="158.4327" style="stroke:#000000;stroke-width:0.0125;"/>
        <!-- Line -->
        <line x1="-388.1215" y1="158.4327" x2="-389.6134" y2="158.4327" style="stroke:#000000;stroke-width:0.0125;"/>
        <!-- Line -->
        <line x1="-390.1272" y1="163.2972" x2="-387.3072" y2="163.2972" style="stroke:#004c26;stroke-width:0.0125;"/>
        <!-- Line -->
        <line x1="-390.1272" y1="162.9972" x2="-387.6072" y2="162.9972" style="stroke:#004c26;stroke-width:0.0125;"/>
        <!-- Line -->
        <line x1="-400.2672" y1="158.3272" x2="-399.9472" y2="158.3272" style="stroke:#00ff00;stroke-width:0.0125;"/>
        <!-- Line -->
        <line x1="-400.2672" y1="158.8272" x2="-399.9472" y2="158.8272" style="stroke:#00ff00;stroke-width:0.0125;"/>
        <!-- Line -->
        <line x1="-399.9872" y1="158.3272" x2="-399.9872" y2="152.2372" style="stroke:#004c26;stroke-width:0.0125;"/>
        <!-- Line -->
        <line x1="-400.2672" y1="164.8872" x2="-400.2672" y2="149.4772" style="stroke:#004c26;stroke-width:0.0125;"/>
        <!-- Line -->
        <line x1="-400.2672" y1="158.8272" x2="-400.2672" y2="158.3272" style="stroke:#00ff00;stroke-width:0.0125;"/>
        <!-- Line -->
        <line x1="-399.9472" y1="158.8272" x2="-399.9472" y2="158.3272" style="stroke:#00ff00;stroke-width:0.0125;"/>
        <!-- Line -->
        <line x1="-390.4472" y1="158.3272" x2="-390.1672" y2="158.3272" style="stroke:#00ff00;stroke-width:0.0125;"/>
        <!-- Line -->
        <line x1="-390.4472" y1="158.8272" x2="-390.1672" y2="158.8272" style="stroke:#00ff00;stroke-width:0.0125;"/>
        <!-- Line -->
        <line x1="-390.1672" y1="158.8272" x2="-390.1672" y2="158.3272" style="stroke:#00ff00;stroke-width:0.0125;"/>
        <!-- Line -->
        <line x1="-390.4472" y1="158.8272" x2="-390.4472" y2="158.3272" style="stroke:#00ff00;stroke-width:0.0125;"/>
        <!-- Line -->
        <line x1="-390.4072" y1="158.3272" x2="-390.4072" y2="152.2372" style="stroke:#004c26;stroke-width:0.0125;"/>
        <!-- Line -->
        <line x1="-390.1272" y1="160.3372" x2="-390.1272" y2="152.2372" style="stroke:#004c26;stroke-width:0.0125;"/>
        <!-- Line -->
        <line x1="-389.0761" y1="162.1335" x2="-388.6761" y2="162.1335" style="stroke:#808080;stroke-width:0.0125;"/>
        <!-- Line -->
        <line x1="-388.6761" y1="162.1335" x2="-388.6761" y2="158.9335" style="stroke:#808080;stroke-width:0.0125;"/>
        <!-- Line -->
        <line x1="-389.0761" y1="162.1335" x2="-389.0761" y2="159.7044" style="stroke:#808080;stroke-width:0.0125;"/>
        <!-- Line -->
        <line x1="-389.0761" y1="158.9335" x2="-388.6761" y2="158.9335" style="stroke:#808080;stroke-width:0.0125;"/>
        <!-- Line -->
        <line x1="-389.0761" y1="162.1335" x2="-388.6761" y2="158.9335" style="stroke:#808080;stroke-width:0.0125;"/>
        <!-- Line -->
        <line x1="-389.0761" y1="158.9335" x2="-388.6761" y2="162.1335" style="stroke:#808080;stroke-width:0.0125;"/>
        <!-- Line -->
        <line x1="-390.1272" y1="162.0732" x2="-389.0761" y2="162.0732" style="stroke:#000000;stroke-width:0.0125;"/>
        <!-- Line -->
        <line x1="-390.1272" y1="161.8232" x2="-389.0761" y2="161.8232" style="stroke:#000000;stroke-width:0.0125;"/>
        <!-- Line -->
        <line x1="-390.1272" y1="161.5732" x2="-389.0761" y2="161.5732" style="stroke:#000000;stroke-width:0.0125;"/>
        <!-- Line -->
        <line x1="-390.1272" y1="161.3232" x2="-389.0761" y2="161.3232" style="stroke:#000000;stroke-width:0.0125;"/>
        <!-- Line -->
        <line x1="-390.1272" y1="159.5732" x2="-389.0761" y2="159.5732" style="stroke:#000000;stroke-width:0.0125;"/>
        <!-- Line -->
        <line x1="-390.1272" y1="159.3232" x2="-389.0761" y2="159.3232" style="stroke:#000000;stroke-width:0.0125;"/>
        <!-- Line -->
        <line x1="-390.1272" y1="159.0732" x2="-389.0761" y2="159.0732" style="stroke:#000000;stroke-width:0.0125;"/>
        <!-- Line -->
        <line x1="-388.6761" y1="159.8232" x2="-387.6072" y2="159.8232" style="stroke:#000000;stroke-width:0.0125;"/>
        <!-- Line -->
        <line x1="-388.6761" y1="159.5732" x2="-387.6072" y2="159.5732" style="stroke:#000000;stroke-width:0.0125;"/>
        <!-- Line -->
        <line x1="-388.6761" y1="159.3232" x2="-387.6072" y2="159.3232" style="stroke:#000000;stroke-width:0.0125;"/>
        <!-- Line -->
        <line x1="-388.6761" y1="159.0732" x2="-387.6072" y2="159.0732" style="stroke:#000000;stroke-width:0.0125;"/>
        <!-- Line -->
        <line x1="-388.6761" y1="162.0732" x2="-387.6072" y2="162.0732" style="stroke:#000000;stroke-width:0.0125;"/>
        <!-- Line -->
        <line x1="-388.6761" y1="161.8232" x2="-387.6072" y2="161.8232" style="stroke:#000000;stroke-width:0.0125;"/>
        <!-- Line -->
        <line x1="-388.6761" y1="161.5732" x2="-387.6072" y2="161.5732" style="stroke:#000000;stroke-width:0.0125;"/>
        <!-- Line -->
        <line x1="-388.6761" y1="161.3232" x2="-387.6072" y2="161.3232" style="stroke:#000000;stroke-width:0.0125;"/>
        <!-- Line -->
        <line x1="-388.6761" y1="161.0732" x2="-387.6072" y2="161.0732" style="stroke:#000000;stroke-width:0.0125;"/>
        <!-- Line -->
        <line x1="-388.6761" y1="160.8232" x2="-387.6072" y2="160.8232" style="stroke:#000000;stroke-width:0.0125;"/>
        <!-- Line -->
        <line x1="-388.6761" y1="160.5732" x2="-387.6072" y2="160.5732" style="stroke:#000000;stroke-width:0.0125;"/>
        <!-- Line -->
        <line x1="-388.6761" y1="160.3232" x2="-387.6072" y2="160.3232" style="stroke:#000000;stroke-width:0.0125;"/>
        <!-- Line -->
        <line x1="-388.6761" y1="160.0732" x2="-387.6072" y2="160.0732" style="stroke:#000000;stroke-width:0.0125;"/>
        <!-- Line -->
        <line x1="-389.6976" y1="159.9232" x2="-390.1272" y2="159.8424" style="stroke:#808080;stroke-width:0.0125;"/>
        <!-- Line -->
        <line x1="-389.0095" y1="159.7044" x2="-390.1272" y2="159.7044" style="stroke:#000000;stroke-width:0.0125;"/>
        <!-- Line -->
        <line x1="-389.0761" y1="159.7044" x2="-389.0761" y2="158.9335" style="stroke:#808080;stroke-width:0.0125;"/>
        <!-- Line -->
        <line x1="-388.1215" y1="162.5617" x2="-389.6134" y2="162.5617" style="stroke:#000000;stroke-width:0.0125;"/>
        <!-- Line -->
        <line x1="-389.6134" y1="162.5617" x2="-389.6134" y2="161.3232" style="stroke:#000000;stroke-width:0.0125;"/>
        <!-- Line -->
        <line x1="-389.6976" y1="159.9232" x2="-389.6432" y2="159.8793" style="stroke:#808080;stroke-width:0.0125;"/>
        <!-- Line -->
        <line x1="-389.6432" y1="159.8793" x2="-389.5763" y2="159.9996" style="stroke:#808080;stroke-width:0.0125;"/>
        <!-- Line -->
        <line x1="-388.9762" y1="160.1125" x2="-389.5763" y2="159.9996" style="stroke:#000000;stroke-width:0.0125;"/>
        <!-- Line -->
        <line x1="-390.4072" y1="161.1372" x2="-390.1272" y2="161.1372" style="stroke:#004c26;stroke-width:0.0125;"/>
        <!-- Line -->
        <line x1="-390.4072" y1="160.3372" x2="-390.1272" y2="160.3372" style="stroke:#004c26;stroke-width:0.0125;"/>
        <!-- Line -->
        <line x1="-390.4072" y1="160.3372" x2="-390.4072" y2="158.8272" style="stroke:#004c26;stroke-width:0.0125;"/>
        <!-- Line -->
        <line x1="-390.4072" y1="160.3372" x2="-390.4072" y2="158.8272" style="stroke:#004c26;stroke-width:0.0125;"/>
        <!-- Line -->
        <line x1="-390.4072" y1="161.129" x2="-389.9667" y2="161.129" style="stroke:#808080;stroke-width:0.0125;"/>
        <!-- Line -->
        <line x1="-390.4072" y1="161.079" x2="-389.9667" y2="161.079" style="stroke:#808080;stroke-width:0.0125;"/>
        <!-- Line -->
        <line x1="-390.4072" y1="161.129" x2="-390.4072" y2="161.079" style="stroke:#808080;stroke-width:0.0125;"/>
        <!-- Line -->
        <line x1="-390.4072" y1="160.3953" x2="-389.7569" y2="160.3953" style="stroke:#808080;stroke-width:0.0125;"/>
        <!-- Line -->
        <line x1="-390.4072" y1="160.3453" x2="-389.7569" y2="160.3453" style="stroke:#808080;stroke-width:0.0125;"/>
        <!-- Line -->
        <line x1="-390.4072" y1="160.3953" x2="-390.4072" y2="160.3453" style="stroke:#808080;stroke-width:0.0125;"/>
        <!-- Line -->
        <line x1="-389.9667" y1="161.129" x2="-389.9667" y2="161.079" style="stroke:#808080;stroke-width:0.0125;"/>
        <!-- Line -->
        <line x1="-389.7569" y1="160.3453" x2="-389.7569" y2="160.3953" style="stroke:#808080;stroke-width:0.0125;"/>
        <!-- Arc -->
        <path d="M-389.7569,160.3953 A0.687,0.687 0 0,1 -390.4072,160.8349" style="stroke:#ff0000;stroke-width:0.0125;"/>
        <!-- Arc -->
        <path d="M-390.4072,160.8349 A0.5686,0.5686 0 0,1 -389.9667,161.079" style="stroke:#ff0000;stroke-width:0.0125;"/>
        <!-- Line -->
        <line x1="-390.4072" y1="161.1372" x2="-390.4072" y2="160.3372" style="stroke:#808080;stroke-width:0.0125;"/>
        <!-- Line -->
        <line x1="-390.1272" y1="161.1372" x2="-390.1272" y2="161.129" style="stroke:#808080;stroke-width:0.0125;"/>
        <!-- Line -->
        <line x1="-390.1272" y1="161.079" x2="-390.1272" y2="160.3953" style="stroke:#808080;stroke-width:0.0125;"/>
        <!-- Line -->
        <line x1="-390.1272" y1="160.3453" x2="-390.1272" y2="160.3372" style="stroke:#808080;stroke-width:0.0125;"/>
        <!-- Line -->
        <line x1="-401.8137" y1="155.4272" x2="-387.9342" y2="155.4272" style="stroke:#808080;stroke-width:0.0125;stroke-dasharray:0.2381,0.0397,0.0397,0.0397;stroke-dashoffset:0.1445"/>
        <!-- Line -->
        <line x1="-396.7272" y1="166.3534" x2="-396.7272" y2="148.1129" style="stroke:#808080;stroke-width:0.0125;stroke-dasharray:0.2381,0.0397,0.0397,0.0397;stroke-dashoffset:0.1071"/>
        <!-- Text: LII' -->
        <text x="-396.4674" dx="0" y="-166.7315" dy="0.2" font-family="arial" font-size="0.28" line-height="1.1" fill="#808080" transform="scale(1,-1) rotate(360 -396.4674,-166.7315)" text-anchor="end">LII'</text>
        <!-- Circle -->
        <circle cx="-396.7272" cy="166.6265" r="0.3" style="stroke:#808080;stroke-width:0.0125;"/>
        <!-- Text: LII' -->
        <text x="-396.4674" dx="0" y="-147.9179" dy="0.2" font-family="arial" font-size="0.28" line-height="1.1" fill="#808080" transform="scale(1,-1) rotate(360 -396.4674,-147.9179)" text-anchor="end">LII'</text>
        <!-- Circle -->
        <circle cx="-396.7272" cy="147.8129" r="0.3" style="stroke:#808080;stroke-width:0.0125;"/>
        <!-- Text: 23 -->
        <text x="-387.477" dx="0" y="-155.5401" dy="0.2" font-family="arial" font-size="0.28" line-height="1.1" fill="#808080" transform="scale(1,-1) rotate(360 -387.477,-155.5401)" text-anchor="end">23</text>
        <!-- Circle -->
        <circle cx="-387.6342" cy="155.4272" r="0.3" style="stroke:#808080;stroke-width:0.0125;"/>
        <!-- Circle -->
        <circle cx="-402.1137" cy="155.4272" r="0.3" style="stroke:#808080;stroke-width:0.0125;"/>
        <!-- Text: 23 -->
        <text x="-401.9564" dx="0" y="-155.5401" dy="0.2" font-family="arial" font-size="0.28" line-height="1.1" fill="#808080" transform="scale(1,-1) rotate(360 -401.9564,-155.5401)" text-anchor="end">23</text>
        <!-- Hatch -->
        <g>
            <path d="M-390.2326,151.957 L-390.1258,152.0639" style="stroke:#000000;stroke-width:0.0125;"/>
            <path d="M-390.3448,151.9571 L-390.1258,152.1761" style="stroke:#000000;stroke-width:0.0125;"/>
            <path d="M-390.4472,151.9669 L-390.1772,152.237" style="stroke:#000000;stroke-width:0.0125;"/>
            <path d="M-390.4472,152.0792 L-390.2894,152.2371" style="stroke:#000000;stroke-width:0.0125;"/>
            <path d="M-390.4472,152.1914 L-390.4015,152.2372" style="stroke:#000000;stroke-width:0.0125;"/>
            <path d="M-390.1486,158.3272 L-390.1272,158.3486" style="stroke:#000000;stroke-width:0.0125;"/>
            <path d="M-390.2609,158.3272 L-390.1272,158.4609" style="stroke:#000000;stroke-width:0.0125;"/>
            <path d="M-390.3731,158.3272 L-390.1272,158.5731" style="stroke:#000000;stroke-width:0.0125;"/>
            <path d="M-390.4472,158.3654 L-390.1272,158.6854" style="stroke:#000000;stroke-width:0.0125;"/>
            <path d="M-390.4472,158.4776 L-390.1272,158.7976" style="stroke:#000000;stroke-width:0.0125;"/>
            <path d="M-390.4472,158.5899 L-390.2099,158.8272" style="stroke:#000000;stroke-width:0.0125;"/>
            <path d="M-390.4472,158.7021 L-390.3222,158.8272" style="stroke:#000000;stroke-width:0.0125;"/>
            <path d="M-390.4472,158.8144 L-390.4344,158.8272" style="stroke:#000000;stroke-width:0.0125;"/>
            <path d="M-399.9985,151.9572 L-399.9472,152.0085" style="stroke:#000000;stroke-width:0.0125;"/>
            <path d="M-400.1107,151.9572 L-399.9472,152.1207" style="stroke:#000000;stroke-width:0.0125;"/>
            <path d="M-400.223,151.9572 L-399.9472,152.233" style="stroke:#000000;stroke-width:0.0125;"/>
            <path d="M-400.2672,152.0252 L-400.0552,152.2372" style="stroke:#000000;stroke-width:0.0125;"/>
            <path d="M-400.2672,152.1375 L-400.1675,152.2372" style="stroke:#000000;stroke-width:0.0125;"/>
            <path d="M-400.0269,158.3272 L-399.9472,158.4069" style="stroke:#000000;stroke-width:0.0125;"/>
            <path d="M-400.1392,158.3272 L-399.9472,158.5191" style="stroke:#000000;stroke-width:0.0125;"/>
            <path d="M-400.2514,158.3272 L-399.9472,158.6314" style="stroke:#000000;stroke-width:0.0125;"/>
            <path d="M-400.2672,158.4236 L-399.9472,158.7436" style="stroke:#000000;stroke-width:0.0125;"/>
            <path d="M-400.2672,158.5359 L-399.9759,158.8272" style="stroke:#000000;stroke-width:0.0125;"/>
            <path d="M-400.2672,158.6482 L-400.0882,158.8272" style="stroke:#000000;stroke-width:0.0125;"/>
            <path d="M-400.2672,158.7604 L-400.2004,158.8272" style="stroke:#000000;stroke-width:0.0125;"/>
        </g>
        <!-- Hatch -->
        <g>
            <path d="M-390.1821,164.9166 L-390.1252,164.9736" style="stroke:#808080;stroke-width:0.0125;"/>
            <path d="M-390.2944,164.9166 L-390.1252,165.0859" style="stroke:#808080;stroke-width:0.0125;"/>
            <path d="M-390.4052,164.9181 L-390.1267,165.1966" style="stroke:#808080;stroke-width:0.0125;"/>
            <path d="M-390.4052,165.0304 L-390.2389,165.1966" style="stroke:#808080;stroke-width:0.0125;"/>
            <path d="M-390.4052,165.1426 L-390.3512,165.1966" style="stroke:#808080;stroke-width:0.0125;"/>
            <path d="M-400.0596,164.9174 L-399.9874,164.9896" style="stroke:#808080;stroke-width:0.0125;"/>
            <path d="M-400.1719,164.9174 L-399.9874,165.1019" style="stroke:#808080;stroke-width:0.0125;"/>
            <path d="M-400.2674,164.9342 L-400.0041,165.1974" style="stroke:#808080;stroke-width:0.0125;"/>
            <path d="M-400.2674,165.0464 L-400.1164,165.1974" style="stroke:#808080;stroke-width:0.0125;"/>
            <path d="M-400.2674,165.1587 L-400.2286,165.1974" style="stroke:#808080;stroke-width:0.0125;"/>
        </g>
        <!-- Line -->
        <line x1="-399.9872" y1="162.4812" x2="-390.4072" y2="162.4812" style="stroke:#808080;stroke-width:0.015;"/>
        <!-- Line -->
        <line x1="-399.9872" y1="162.2812" x2="-390.4072" y2="162.2812" style="stroke:#808080;stroke-width:0.0125;"/>
        <!-- Line -->
        <line x1="-399.9872" y1="159.9452" x2="-390.4072" y2="159.9452" style="stroke:#808080;stroke-width:0.0125;"/>
        <!-- Line -->
        <line x1="-399.9872" y1="159.7452" x2="-390.4072" y2="159.7452" style="stroke:#808080;stroke-width:0.0125;"/>
        <!-- Line -->
        <line x1="-399.9872" y1="157.4092" x2="-390.4072" y2="157.4092" style="stroke:#808080;stroke-width:0.0125;"/>
        <!-- Line -->
        <line x1="-399.9872" y1="157.2092" x2="-390.4072" y2="157.2092" style="stroke:#808080;stroke-width:0.0125;"/>
        <!-- Line -->
        <line x1="-399.9872" y1="154.8732" x2="-390.4072" y2="154.8732" style="stroke:#808080;stroke-width:0.0125;"/>
        <!-- Line -->
        <line x1="-399.9872" y1="154.6732" x2="-390.4072" y2="154.6732" style="stroke:#808080;stroke-width:0.0125;"/>
        <!-- Solid -->
        <path d="M-390.4097,156.9782 L-390.1297,156.9782 L-390.1297,156.9856 L-390.4097,156.9856 Z" style="stroke:#ffbf00;stroke-width:0.0125;fill:#ffbf00;fill-rule:evenodd;stroke-dasharray:0.2381,0.0397,0.0397,0.0397;stroke-dashoffset:0.3675"/>
        <!-- Solid -->
        <path d="M-390.4097,156.9059 L-390.1297,156.9059 L-390.1297,156.9132 L-390.4097,156.9132 Z" style="stroke:#ffbf00;stroke-width:0.0125;fill:#ffbf00;fill-rule:evenodd;stroke-dasharray:0.2381,0.0397,0.0397,0.0397;stroke-dashoffset:0.3675"/>
        <!-- Hatch -->
        <path d="M-399.9874,165.1972 L-399.9874,165.1581 L-399.9909,164.9172 L-390.4055,164.9172 L-390.4072,165.1682 L-390.4072,165.1672 L-390.4072,165.1972 Z" style="fill:#004c26;fill-rule:evenodd;"/>
        <!-- Hatch -->
        <path d="M-399.9872,149.7572 L-399.9872,151.9572 L-400.2672,151.9572 L-400.2672,149.4772 L-393.6972,149.4772 L-393.6972,149.7572 Z" style="fill:#004c26;fill-rule:evenodd;"/>
        <!-- Line -->
        <line x1="-390.4072" y1="162.4812" x2="-390.4055" y2="164.9172" style="stroke:#004c26;stroke-width:0.015;"/>
        <!-- Line -->
        <line x1="-399.9874" y1="164.9174" x2="-390.4472" y2="164.9172" style="stroke:#004c26;stroke-width:0.015;"/>
        <!-- Line -->
        <line x1="-390.4472" y1="164.9172" x2="-390.4072" y2="162.4812" style="stroke:#004c26;stroke-width:0.015;"/>
        <!-- Line -->
        <line x1="-390.4072" y1="162.4812" x2="-399.9872" y2="162.4812" style="stroke:#004c26;stroke-width:0.015;"/>
        <!-- Line -->
        <line x1="-399.9872" y1="162.4812" x2="-399.9872" y2="164.9174" style="stroke:#004c26;stroke-width:0.015;"/>
        <!-- Line -->
        <line x1="-389.7569" y1="160.3453" x2="-389.0761" y2="160.3453" style="stroke:#000000;stroke-width:0.015;"/>
        <!-- Hatch -->
        <path d="M-388.8761,160.5335 L-389.0761,162.1335 L-389.0761,159.7044 L-389.0761,158.9335 ZM-388.8761,160.5335 L-389.0761,158.9335 L-388.6761,158.9335 ZM-388.6761,162.1335 L-388.8761,160.5335 L-388.6761,158.9335 ZM-388.6761,162.1335 L-389.0761,162.1335 L-388.8761,160.5335 Z" style="fill:#009900;fill-rule:evenodd;"/>
        <!-- Hatch -->
        <path d="M-393.3778,160.8579 L-395.045,161.6898 L-395.0422,160.026 ZM-395.0429,160.442 L-395.0443,161.2739 L-396.9608,161.2739 L-396.9608,160.442 Z" style="fill:#009900;fill-rule:evenodd;"/>
        <!-- Line -->
        <line x1="-395.045" y1="161.6898" x2="-395.0422" y2="160.026" style="stroke:#009900;stroke-width:0.0125;"/>
        <!-- Line -->
        <line x1="-393.3778" y1="160.8579" x2="-395.045" y2="161.6898" style="stroke:#000000;stroke-width:0.0125;"/>
        <!-- Line -->
        <line x1="-395.0429" y1="160.442" x2="-396.9608" y2="160.442" style="stroke:#000000;stroke-width:0.0125;"/>
        <!-- Line -->
        <line x1="-395.0443" y1="161.2739" x2="-396.9608" y2="161.2739" style="stroke:#000000;stroke-width:0.0125;"/>
        <!-- Line -->
        <line x1="-393.3778" y1="160.8579" x2="-395.0422" y2="160.026" style="stroke:#000000;stroke-width:0.0125;"/>
        <!-- Line -->
        <line x1="-396.9608" y1="160.442" x2="-396.9608" y2="161.2739" style="stroke:#004c26;stroke-width:0.015;"/>
        <!-- Hatch -->
        <path d="M-390.4072,159.9452 L-399.9872,159.9452 L-399.9872,159.7452 L-390.4072,159.7452 Z" style="fill:#00994c;fill-rule:evenodd;"/>
        <!-- Hatch -->
        <!-- Hatch -->
        <path d="M-388.1215,162.0732 L-388.6761,162.0732 L-388.6761,161.8232 L-388.1215,161.8232 ZM-388.1215,161.8232 L-388.6761,161.8232 L-388.6761,161.5732 L-388.1215,161.5732 ZM-388.1215,161.5732 L-388.6761,161.5732 L-388.6761,161.3232 L-388.1215,161.3232 ZM-388.1215,161.3232 L-388.6761,161.3232 L-388.6761,161.0732 L-388.1215,161.0732 ZM-388.1215,161.0732 L-388.6761,161.0732 L-388.6761,160.8232 L-388.1215,160.8232 ZM-388.1215,160.8232 L-388.6761,160.8232 L-388.6761,160.5732 L-388.1215,160.5732 ZM-388.1215,160.5732 L-388.6761,160.5732 L-388.6761,160.3232 L-388.1215,160.3232 ZM-388.1215,160.3232 L-388.6761,160.3232 L-388.6761,160.0732 L-388.1215,160.0732 ZM-388.1215,160.0732 L-388.6761,160.0732 L-388.6761,159.8232 L-388.1215,159.8232 ZM-388.1215,159.8232 L-388.6761,159.8232 L-388.6761,159.5732 L-388.1215,159.5732 ZM-388.1215,159.5732 L-388.6761,159.5732 L-388.6761,159.3232 L-388.1215,159.3232 ZM-388.1215,159.3232 L-388.6761,159.3232 L-388.6761,159.0732 L-388.1215,159.0732 Z" style="fill:#c7c8ca;fill-rule:evenodd;"/>
        <!-- Hatch -->
        <path d="M-387.6072,162.0732 L-388.1215,162.0732 L-388.1215,161.8232 L-387.6072,161.8232 ZM-387.6072,161.8232 L-388.1215,161.8232 L-388.1215,161.5732 L-387.6072,161.5732 ZM-387.6072,161.5732 L-388.1215,161.5732 L-388.1215,161.3232 L-387.6072,161.3232 ZM-387.6072,161.3232 L-388.1215,161.3232 L-388.1215,161.0732 L-387.6072,161.0732 ZM-387.6072,161.0732 L-388.1215,161.0732 L-388.1215,160.8232 L-387.6072,160.8232 ZM-387.6072,160.8232 L-388.1215,160.8232 L-388.1215,160.5732 L-387.6072,160.5732 ZM-387.6072,160.5732 L-388.1215,160.5732 L-388.1215,160.3232 L-387.6072,160.3232 ZM-387.6072,160.3232 L-388.1215,160.3232 L-388.1215,160.0732 L-387.6072,160.0732 ZM-387.6072,160.0732 L-388.1215,160.0732 L-388.1215,159.8232 L-387.6072,159.8232 ZM-387.6072,159.8232 L-388.1215,159.8232 L-388.1215,159.5732 L-387.6072,159.5732 ZM-387.6072,159.5732 L-388.1215,159.5732 L-388.1215,159.3232 L-387.6072,159.3232 ZM-387.6072,159.3232 L-388.1215,159.3232 L-388.1215,159.0732 L-387.6072,159.0732 Z" style="fill:#c7c8ca;fill-rule:evenodd;"/>
        <!-- Hatch -->
        <path d="M-388.1215,162.5617 L-389.6134,162.5617 L-389.6134,162.0732 L-389.0761,162.0732 L-389.0761,162.1335 L-388.6761,162.1335 L-388.6761,162.0732 L-388.1215,162.0732 ZM-387.6072,162.9972 L-390.1272,162.9972 L-390.1272,162.0732 L-389.6134,162.0732 L-389.6134,162.5617 L-388.1215,162.5617 L-388.1215,162.0732 L-387.6072,162.0732 ZM-389.0761,158.9335 L-389.0761,159.0732 L-389.6134,159.0732 L-389.6134,158.4327 L-388.1215,158.4327 L-388.1215,159.0732 L-388.6761,159.0732 L-388.6761,158.9335 ZM-387.6072,159.0732 L-388.1215,159.0732 L-388.1215,158.4327 L-389.6134,158.4327 L-389.6134,159.0732 L-390.1272,159.0732 L-390.1272,157.9972 L-387.6072,157.9972 Z" style="fill:#d7ebd2;fill-rule:evenodd;"/>
        <!-- Hatch -->
        <path d="M-389.0761,161.3232 L-390.1272,161.3232 L-390.1272,161.129 L-389.9357,161.129 A0.568622,0.568622 0 0 0 -390.1272,160.9241 L-390.1272,160.7794 A0.686976,0.686976 0 0 0 -389.7398,160.3453 L-389.0761,160.3453 ZM-389.0761,160.3453 L-389.7398,160.3453 L-389.7569,160.3453 L-390.1272,160.3453 L-390.1272,160.3372 L-390.1272,159.8424 L-389.6976,159.9232 L-389.6432,159.8793 L-389.5763,159.9996 L-389.0761,160.0937 ZM-389.0761,160.0937 L-389.5763,159.9996 L-389.6432,159.8793 L-389.6976,159.9232 L-390.1272,159.8424 L-390.1272,159.7044 L-389.6259,159.7044 L-389.6259,159.7863 L-389.6009,159.7863 L-389.6009,159.7044 L-389.0761,159.7044 ZM-390.1272,160.7794 L-390.1272,160.3953 L-389.7569,160.3953 A0.686976,0.686976 0 0 1 -390.1272,160.7794" style="fill:#d7ebd2;fill-rule:evenodd;"/>
        <!-- Hatch -->
        <path d="M-389.9667,161.079 L-390.1272,161.079 L-390.1272,160.9241 A0.568622,0.568622 0 0 1 -389.9667,161.079" style="fill:#d7ebd2;fill-rule:evenodd;"/>
        <!-- Hatch -->
        <path d="M-393.4172,151.9572 L-394.2241,151.9572 L-394.2241,151.0072 L-393.6062,151.0072 L-393.6062,150.7072 L-393.4172,150.7072 Z" style="fill:#d7ebd2;fill-rule:evenodd;"/>
        <!-- Hatch -->
        <path d="M-397.2241,151.9572 L-397.4741,151.9572 L-397.4741,151.5448 L-397.2741,151.5448 L-397.2241,151.5446 ZM-396.9741,151.9572 L-397.2241,151.9572 L-397.2241,151.5323 L-396.9741,151.5323 ZM-396.7272,151.9572 L-396.9741,151.9572 L-396.9741,151.5323 L-396.7272,151.5323 ZM-396.4741,151.9572 L-396.7241,151.9572 L-396.7241,151.5323 L-396.4741,151.5323 ZM-396.2241,151.9572 L-396.4741,151.9572 L-396.4741,151.5323 L-396.2241,151.5323 ZM-395.7241,151.9572 L-395.9741,151.9572 L-395.9741,151.5323 L-395.7241,151.5323 ZM-395.9741,151.9572 L-396.2241,151.9572 L-396.2241,151.5323 L-395.9741,151.5323 ZM-395.4741,151.9572 L-395.7241,151.9572 L-395.7241,151.5323 L-395.4741,151.5323 ZM-395.2241,151.9572 L-395.4741,151.9572 L-395.4741,151.5323 L-395.2241,151.5323 ZM-394.9741,151.9572 L-395.2241,151.9572 L-395.2241,151.5323 L-394.9741,151.5323 ZM-394.7241,151.9572 L-394.9741,151.9572 L-394.9741,151.5323 L-394.7241,151.5323 ZM-394.4741,151.9572 L-394.7241,151.9572 L-394.7241,151.5323 L-394.4741,151.5323 ZM-394.2241,151.9572 L-394.4741,151.9572 L-394.4741,151.0072 L-394.2241,151.0072 ZM-394.4741,151.5323 L-394.7241,151.5323 L-394.7241,151.0072 L-394.4741,151.0072 ZM-394.7241,151.5323 L-394.9741,151.5323 L-394.9741,151.0072 L-394.7241,151.0072 ZM-394.9741,151.5323 L-395.2241,151.5323 L-395.2241,151.0072 L-394.9741,151.0072 ZM-395.2241,151.5323 L-395.4741,151.5323 L-395.4741,151.0072 L-395.2241,151.0072 ZM-395.4741,151.5323 L-395.7241,151.5323 L-395.7241,151.0072 L-395.4741,151.0072 ZM-395.7241,151.5323 L-395.9741,151.5323 L-395.9741,151.0072 L-395.7241,151.0072 ZM-395.9741,151.5323 L-396.2241,151.5323 L-396.2241,151.0072 L-395.9741,151.0072 ZM-396.2241,151.5323 L-396.4741,151.5323 L-396.4741,151.0072 L-396.2241,151.0072 ZM-396.4741,151.5323 L-396.7241,151.5323 L-396.7241,151.0072 L-396.4741,151.0072 ZM-396.7272,151.5323 L-396.9741,151.5323 L-396.9741,151.0072 L-396.7272,151.0072 ZM-396.9741,151.5323 L-397.2241,151.5323 L-397.2241,151.0072 L-396.9741,151.0072 ZM-397.2241,151.5323 L-397.2741,151.5323 L-397.2741,151.5198 L-397.4741,151.5198 L-397.4741,151.0072 L-397.2241,151.0072 Z" style="fill:#c7c8ca;fill-rule:evenodd;"/>
        <!-- Hatch -->
        <path d="M-395.0433,150.7072 L-395.2933,150.7072 L-395.2933,150.2322 L-395.0433,150.2322 ZM-395.0433,150.2322 L-395.2933,150.2322 L-395.2933,149.7572 L-395.0433,149.7572 ZM-394.7933,150.2322 L-395.0433,150.2322 L-395.0433,149.7572 L-394.7933,149.7572 ZM-394.7933,150.7072 L-395.0433,150.7072 L-395.0433,150.2322 L-394.7933,150.2322 ZM-394.5433,150.7072 L-394.7933,150.7072 L-394.7933,150.2322 L-394.5433,150.2322 ZM-394.5433,150.2322 L-394.7933,150.2322 L-394.7933,149.7572 L-394.5433,149.7572 ZM-394.2933,150.7072 L-394.5433,150.7072 L-394.5433,150.2322 L-394.2933,150.2322 ZM-394.2933,150.2322 L-394.5433,150.2322 L-394.5433,149.7572 L-394.2933,149.7572 ZM-394.0433,150.7072 L-394.2933,150.7072 L-394.2933,150.2322 L-394.0433,150.2322 ZM-394.0433,150.2322 L-394.2933,150.2322 L-394.2933,149.7572 L-394.0433,149.7572 ZM-393.7933,150.7072 L-394.0433,150.7072 L-394.0433,150.2322 L-393.7933,150.2322 ZM-393.7933,150.2322 L-394.0433,150.2322 L-394.0433,149.7572 L-393.7933,149.7572 ZM-393.5433,150.7072 L-393.7933,150.7072 L-393.7933,150.2322 L-393.5433,150.2322 ZM-393.5433,150.2322 L-393.7933,150.2322 L-393.7933,149.7572 L-393.5433,149.7572 ZM-393.2933,150.7072 L-393.5433,150.7072 L-393.5433,150.2322 L-393.2933,150.2322 ZM-393.2933,150.2322 L-393.5433,150.2322 L-393.5433,149.7572 L-393.2933,149.7572 ZM-393.0433,150.7072 L-393.2933,150.7072 L-393.2933,150.2322 L-393.0433,150.2322 ZM-393.0433,150.2322 L-393.2933,150.2322 L-393.2933,149.7572 L-393.0433,149.7572 ZM-392.7933,150.7072 L-393.0433,150.7072 L-393.0433,150.2322 L-392.9933,150.2322 L-392.9933,150.2447 L-392.7933,150.2447 ZM-392.7933,150.2197 L-392.9933,150.2197 L-393.0433,150.22 L-393.0433,149.7572 L-392.7933,149.7572 Z" style="fill:#c7c8ca;fill-rule:evenodd;"/>
        <!-- Line -->
        <line x1="-393.4172" y1="149.4772" x2="-390.1296" y2="149.4772" style="stroke:#d7ebd2;stroke-width:0.015;"/>
        <!-- Line -->
        <line x1="-390.1296" y1="149.4772" x2="-390.1244" y2="151.9566" style="stroke:#d7ebd2;stroke-width:0.015;"/>
        <!-- Hatch -->
        <path d="M-390.1244,151.9566 L-390.4472,151.9572 L-394.2241,151.9572 L-394.2241,151.0072 L-393.6062,151.0072 L-393.6062,150.7072 L-392.7933,150.7072 L-392.7933,149.7572 L-395.2933,149.7572 L-396.7272,149.7572 L-396.7272,149.4772 L-393.4172,149.4772 L-390.1296,149.4772 Z" style="fill:#d7ebd2;fill-rule:evenodd;"/>
    </g>
</svg>
