<?xml version="1.0" encoding="UTF-8"?>
<!-- 2020-09-04 18:53:17 Generated by QCAD 3.24.3 SVG Exporter PG -->
<svg width="326.9mm" height="220.3241mm" viewBox="-413.1031 -162.9633 16.345 11.0162" version="1.1" xmlns="http://www.w3.org/2000/svg" style="stroke-linecap:round;stroke-linejoin:round;fill:none">
    <g transform="scale(1,-1)">
        <!-- Line -->
        <line x1="-404.2831" y1="154.9746" x2="-412.8031" y2="154.9746" style="stroke:#004c26;stroke-width:0.0125;"/>
        <!-- Line -->
        <line x1="-404.4331" y1="155.1246" x2="-406.2431" y2="155.1246" style="stroke:#004c26;stroke-width:0.0125;"/>
        <!-- Line -->
        <line x1="-404.2831" y1="154.9746" x2="-404.2831" y2="155.3821" style="stroke:#004c26;stroke-width:0.0125;"/>
        <!-- Line -->
        <line x1="-404.4331" y1="155.1246" x2="-404.4331" y2="155.3821" style="stroke:#004c26;stroke-width:0.0125;"/>
        <!-- Line -->
        <line x1="-406.2431" y1="155.1246" x2="-406.2431" y2="155.5596" style="stroke:#004c26;stroke-width:0.0125;"/>
        <!-- Line -->
        <line x1="-406.2431" y1="155.5596" x2="-406.3931" y2="155.5596" style="stroke:#004c26;stroke-width:0.0125;"/>
        <!-- Line -->
        <line x1="-406.2431" y1="156.3396" x2="-406.3931" y2="156.3396" style="stroke:#004c26;stroke-width:0.0125;"/>
        <!-- Line -->
        <line x1="-406.3931" y1="155.1246" x2="-406.3931" y2="155.5596" style="stroke:#004c26;stroke-width:0.0125;"/>
        <!-- Line -->
        <line x1="-406.3931" y1="155.1246" x2="-412.6531" y2="155.1246" style="stroke:#004c26;stroke-width:0.0125;"/>
        <!-- Line -->
        <line x1="-406.2431" y1="156.4896" x2="-406.2431" y2="158.2746" style="stroke:#004c26;stroke-width:0.0125;"/>
        <!-- Line -->
        <line x1="-406.3931" y1="156.3396" x2="-406.3931" y2="158.1246" style="stroke:#004c26;stroke-width:0.0125;"/>
        <!-- Line -->
        <line x1="-407.5406" y1="158.1246" x2="-407.7406" y2="158.1246" style="stroke:#004c26;stroke-width:0.0125;"/>
        <!-- Line -->
        <line x1="-407.5406" y1="158.2746" x2="-407.7406" y2="158.2746" style="stroke:#004c26;stroke-width:0.0125;"/>
        <!-- Line -->
        <line x1="-404.5131" y1="156.3396" x2="-404.4331" y2="156.3396" style="stroke:#004c26;stroke-width:0.0125;"/>
        <!-- Line -->
        <line x1="-404.5131" y1="156.4896" x2="-404.2831" y2="156.4896" style="stroke:#004c26;stroke-width:0.0125;"/>
        <!-- Line -->
        <line x1="-405.2931" y1="156.3396" x2="-405.2931" y2="156.4896" style="stroke:#004c26;stroke-width:0.0125;"/>
        <!-- Line -->
        <line x1="-404.5131" y1="156.3396" x2="-404.5131" y2="156.4896" style="stroke:#004c26;stroke-width:0.0125;"/>
        <!-- Line -->
        <line x1="-405.2931" y1="156.3396" x2="-406.3931" y2="156.3396" style="stroke:#004c26;stroke-width:0.0125;"/>
        <!-- Line -->
        <line x1="-405.2931" y1="156.4896" x2="-406.2431" y2="156.4896" style="stroke:#004c26;stroke-width:0.0125;"/>
        <!-- Line -->
        <line x1="-412.6531" y1="155.1246" x2="-412.6531" y2="158.1246" style="stroke:#004c26;stroke-width:0.0125;"/>
        <!-- Line -->
        <line x1="-412.8031" y1="154.9746" x2="-412.8031" y2="158.2746" style="stroke:#004c26;stroke-width:0.0125;"/>
        <!-- Line -->
        <line x1="-406.4856" y1="158.1246" x2="-406.4856" y2="158.2746" style="stroke:#004c26;stroke-width:0.0125;"/>
        <!-- Line -->
        <line x1="-407.5406" y1="158.1246" x2="-407.5406" y2="158.2746" style="stroke:#004c26;stroke-width:0.0125;"/>
        <!-- Line -->
        <line x1="-407.7406" y1="158.1246" x2="-407.7406" y2="158.2746" style="stroke:#004c26;stroke-width:0.0125;"/>
        <!-- Line -->
        <line x1="-408.7956" y1="158.1246" x2="-408.7956" y2="158.2746" style="stroke:#004c26;stroke-width:0.0125;"/>
        <!-- Line -->
        <line x1="-408.9956" y1="158.1246" x2="-408.9956" y2="158.2746" style="stroke:#004c26;stroke-width:0.0125;"/>
        <!-- Line -->
        <line x1="-410.0506" y1="158.1246" x2="-410.0506" y2="158.2746" style="stroke:#004c26;stroke-width:0.0125;"/>
        <!-- Line -->
        <line x1="-410.2506" y1="158.1246" x2="-410.2506" y2="158.2746" style="stroke:#004c26;stroke-width:0.0125;"/>
        <!-- Line -->
        <line x1="-411.3056" y1="158.1246" x2="-411.3056" y2="158.2746" style="stroke:#004c26;stroke-width:0.0125;"/>
        <!-- Line -->
        <line x1="-411.5056" y1="158.1246" x2="-411.5056" y2="158.2746" style="stroke:#004c26;stroke-width:0.0125;"/>
        <!-- Line -->
        <line x1="-412.5606" y1="158.1246" x2="-412.5606" y2="158.2746" style="stroke:#004c26;stroke-width:0.0125;"/>
        <!-- Line -->
        <line x1="-408.7956" y1="158.1246" x2="-408.9956" y2="158.1246" style="stroke:#004c26;stroke-width:0.0125;"/>
        <!-- Line -->
        <line x1="-408.7956" y1="158.2746" x2="-408.9956" y2="158.2746" style="stroke:#004c26;stroke-width:0.0125;"/>
        <!-- Line -->
        <line x1="-410.0506" y1="158.1246" x2="-410.2506" y2="158.1246" style="stroke:#004c26;stroke-width:0.0125;"/>
        <!-- Line -->
        <line x1="-410.0506" y1="158.2746" x2="-410.2506" y2="158.2746" style="stroke:#004c26;stroke-width:0.0125;"/>
        <!-- Line -->
        <line x1="-411.3056" y1="158.1246" x2="-411.5056" y2="158.1246" style="stroke:#004c26;stroke-width:0.0125;"/>
        <!-- Line -->
        <line x1="-411.3056" y1="158.2746" x2="-411.5056" y2="158.2746" style="stroke:#004c26;stroke-width:0.0125;"/>
        <!-- Line -->
        <line x1="-406.4856" y1="158.1246" x2="-406.3931" y2="158.1246" style="stroke:#004c26;stroke-width:0.0125;"/>
        <!-- Line -->
        <line x1="-406.4856" y1="158.2746" x2="-406.2431" y2="158.2746" style="stroke:#004c26;stroke-width:0.0125;"/>
        <!-- Line -->
        <line x1="-412.5606" y1="158.1246" x2="-412.6531" y2="158.1246" style="stroke:#004c26;stroke-width:0.0125;"/>
        <!-- Line -->
        <line x1="-412.5606" y1="158.2746" x2="-412.8031" y2="158.2746" style="stroke:#004c26;stroke-width:0.0125;"/>
        <!-- Line -->
        <line x1="-406.4856" y1="158.1996" x2="-407.5406" y2="158.1996" style="stroke:#808080;stroke-width:0.0125;"/>
        <!-- Line -->
        <line x1="-407.7406" y1="158.1996" x2="-408.7956" y2="158.1996" style="stroke:#808080;stroke-width:0.0125;"/>
        <!-- Line -->
        <line x1="-408.9956" y1="158.1996" x2="-410.0506" y2="158.1996" style="stroke:#808080;stroke-width:0.0125;"/>
        <!-- Line -->
        <line x1="-410.2506" y1="158.1996" x2="-411.3056" y2="158.1996" style="stroke:#808080;stroke-width:0.0125;"/>
        <!-- Line -->
        <line x1="-411.5056" y1="158.1996" x2="-412.5606" y2="158.1996" style="stroke:#808080;stroke-width:0.0125;"/>
        <!-- Line -->
        <line x1="-411.5056" y1="158.2496" x2="-412.5606" y2="158.2496" style="stroke:#808080;stroke-width:0.0125;"/>
        <!-- Line -->
        <line x1="-411.5056" y1="158.1496" x2="-412.5606" y2="158.1496" style="stroke:#808080;stroke-width:0.0125;"/>
        <!-- Line -->
        <line x1="-410.2506" y1="158.2496" x2="-411.3056" y2="158.2496" style="stroke:#808080;stroke-width:0.0125;"/>
        <!-- Line -->
        <line x1="-410.2506" y1="158.1496" x2="-411.3056" y2="158.1496" style="stroke:#808080;stroke-width:0.0125;"/>
        <!-- Line -->
        <line x1="-408.9956" y1="158.1496" x2="-410.0506" y2="158.1496" style="stroke:#808080;stroke-width:0.0125;"/>
        <!-- Line -->
        <line x1="-408.9956" y1="158.2496" x2="-410.0506" y2="158.2496" style="stroke:#808080;stroke-width:0.0125;"/>
        <!-- Line -->
        <line x1="-407.7406" y1="158.1496" x2="-408.7956" y2="158.1496" style="stroke:#808080;stroke-width:0.0125;"/>
        <!-- Line -->
        <line x1="-407.7406" y1="158.2496" x2="-408.7956" y2="158.2496" style="stroke:#808080;stroke-width:0.0125;"/>
        <!-- Line -->
        <line x1="-406.4856" y1="158.1496" x2="-407.5406" y2="158.1496" style="stroke:#808080;stroke-width:0.0125;"/>
        <!-- Line -->
        <line x1="-406.4856" y1="158.2496" x2="-407.5406" y2="158.2496" style="stroke:#808080;stroke-width:0.0125;"/>
        <!-- Line -->
        <line x1="-406.2431" y1="155.5846" x2="-406.3931" y2="155.5846" style="stroke:#808080;stroke-width:0.0125;"/>
        <!-- Line -->
        <line x1="-406.2431" y1="156.3146" x2="-406.3931" y2="156.3146" style="stroke:#808080;stroke-width:0.0125;"/>
        <!-- Line -->
        <line x1="-406.2431" y1="155.5596" x2="-406.2431" y2="155.5846" style="stroke:#808080;stroke-width:0.0125;"/>
        <!-- Line -->
        <line x1="-406.3931" y1="155.5596" x2="-406.3931" y2="155.5846" style="stroke:#808080;stroke-width:0.0125;"/>
        <!-- Line -->
        <line x1="-406.2431" y1="156.3146" x2="-406.2431" y2="156.3396" style="stroke:#808080;stroke-width:0.0125;"/>
        <!-- Line -->
        <line x1="-406.3931" y1="156.3146" x2="-406.3931" y2="156.3396" style="stroke:#808080;stroke-width:0.0125;"/>
        <!-- Line -->
        <line x1="-406.2431" y1="155.5846" x2="-405.5131" y2="155.5846" style="stroke:#808080;stroke-width:0.0125;"/>
        <!-- Line -->
        <line x1="-406.2431" y1="155.5846" x2="-406.2431" y2="155.6346" style="stroke:#808080;stroke-width:0.0125;"/>
        <!-- Line -->
        <line x1="-406.2431" y1="155.6346" x2="-405.5131" y2="155.6346" style="stroke:#808080;stroke-width:0.0125;"/>
        <!-- Line -->
        <line x1="-405.5131" y1="155.5846" x2="-405.5131" y2="155.6346" style="stroke:#808080;stroke-width:0.0125;"/>
        <!-- Line -->
        <line x1="-405.5131" y1="155.6346" x2="-406.2431" y2="156.3146" style="stroke:#808080;stroke-width:0.0125;"/>
        <!-- Line -->
        <line x1="-404.5381" y1="156.3396" x2="-404.5381" y2="156.4896" style="stroke:#808080;stroke-width:0.0125;"/>
        <!-- Line -->
        <line x1="-405.2681" y1="156.3396" x2="-405.2681" y2="156.4896" style="stroke:#808080;stroke-width:0.0125;"/>
        <!-- Line -->
        <line x1="-404.5131" y1="156.3396" x2="-404.5381" y2="156.3396" style="stroke:#808080;stroke-width:0.0125;"/>
        <!-- Line -->
        <line x1="-404.5131" y1="156.4896" x2="-404.5381" y2="156.4896" style="stroke:#808080;stroke-width:0.0125;"/>
        <!-- Line -->
        <line x1="-405.2931" y1="156.3396" x2="-405.2681" y2="156.3396" style="stroke:#808080;stroke-width:0.0125;"/>
        <!-- Line -->
        <line x1="-405.2681" y1="156.4896" x2="-405.2931" y2="156.4896" style="stroke:#808080;stroke-width:0.0125;"/>
        <!-- Line -->
        <line x1="-405.2681" y1="156.4896" x2="-405.2681" y2="157.2196" style="stroke:#808080;stroke-width:0.0125;"/>
        <!-- Line -->
        <line x1="-405.2681" y1="156.4896" x2="-405.2181" y2="156.4896" style="stroke:#808080;stroke-width:0.0125;"/>
        <!-- Line -->
        <line x1="-405.2181" y1="156.4896" x2="-405.2181" y2="157.2196" style="stroke:#808080;stroke-width:0.0125;"/>
        <!-- Line -->
        <line x1="-405.2681" y1="157.2196" x2="-405.2181" y2="157.2196" style="stroke:#808080;stroke-width:0.0125;"/>
        <!-- Line -->
        <line x1="-404.5381" y1="156.4896" x2="-405.2181" y2="157.2196" style="stroke:#808080;stroke-width:0.0125;"/>
        <!-- Line -->
        <line x1="-404.4331" y1="155.3821" x2="-404.2831" y2="155.3821" style="stroke:#004c26;stroke-width:0.0125;"/>
        <!-- Line -->
        <line x1="-404.4331" y1="156.0821" x2="-404.2831" y2="156.0821" style="stroke:#004c26;stroke-width:0.0125;"/>
        <!-- Line -->
        <line x1="-404.2831" y1="156.0821" x2="-404.2831" y2="156.4896" style="stroke:#004c26;stroke-width:0.0125;"/>
        <!-- Line -->
        <line x1="-404.4331" y1="156.0821" x2="-404.4331" y2="156.3396" style="stroke:#004c26;stroke-width:0.0125;"/>
        <!-- Line -->
        <line x1="-404.3581" y1="155.3821" x2="-404.3581" y2="156.0821" style="stroke:#808080;stroke-width:0.0125;"/>
        <!-- Line -->
        <line x1="-404.4081" y1="155.3821" x2="-404.4081" y2="156.0821" style="stroke:#808080;stroke-width:0.0125;"/>
        <!-- Line -->
        <line x1="-404.3081" y1="155.3821" x2="-404.3081" y2="156.0821" style="stroke:#808080;stroke-width:0.0125;"/>
        <!-- Line -->
        <line x1="-406.3931" y1="157.3746" x2="-412.6531" y2="157.3746" style="stroke:#808080;stroke-width:0.0125;"/>
        <!-- Text: CABINA DE COMANDO -->
        <text x="-408.8472" dx="0" y="-156.3117" dy="0.1" font-family="arial" font-size="0.14" line-height="1.1" fill="#808080" transform="scale(1,-1) rotate(360 -408.8472,-156.3117)" text-anchor="end">CABINA DE COMANDO</text>
        <!-- Text: ESCRITORIO -->
        <text x="-409.3467" dx="0" y="-157.79" dy="0.08" font-family="arial" font-size="0.112" line-height="1.1" fill="#808080" transform="scale(1,-1) rotate(360 -409.3467,-157.79)" text-anchor="end">ESCRITORIO</text>
        <!-- Line -->
        <line x1="-397.0895" y1="156.4871" x2="-397.6895" y2="156.4871" style="stroke:#808080;stroke-width:0.0125;"/>
        <!-- Line -->
        <line x1="-397.0895" y1="156.4621" x2="-397.6895" y2="156.4621" style="stroke:#808080;stroke-width:0.0125;"/>
        <!-- Line -->
        <line x1="-397.0645" y1="156.3246" x2="-397.0645" y2="156.6246" style="stroke:#808080;stroke-width:0.0125;"/>
        <!-- Line -->
        <line x1="-397.0645" y1="156.6246" x2="-397.0895" y2="156.6246" style="stroke:#808080;stroke-width:0.0125;"/>
        <!-- Line -->
        <line x1="-397.0895" y1="156.4871" x2="-397.0895" y2="156.6246" style="stroke:#808080;stroke-width:0.0125;"/>
        <!-- Line -->
        <line x1="-397.0645" y1="156.3246" x2="-397.0895" y2="156.3246" style="stroke:#808080;stroke-width:0.0125;"/>
        <!-- Line -->
        <line x1="-397.0895" y1="156.3246" x2="-397.0895" y2="156.4621" style="stroke:#808080;stroke-width:0.0125;"/>
        <!-- Line -->
        <line x1="-397.0581" y1="154.7401" x2="-397.0581" y2="155.0401" style="stroke:#808080;stroke-width:0.0125;"/>
        <!-- Line -->
        <line x1="-397.0831" y1="154.7401" x2="-397.0831" y2="154.8776" style="stroke:#808080;stroke-width:0.0125;"/>
        <!-- Line -->
        <line x1="-397.0831" y1="154.9026" x2="-397.6831" y2="154.9026" style="stroke:#808080;stroke-width:0.0125;"/>
        <!-- Line -->
        <line x1="-397.0831" y1="154.8776" x2="-397.6831" y2="154.8776" style="stroke:#808080;stroke-width:0.0125;"/>
        <!-- Line -->
        <line x1="-397.0581" y1="155.0401" x2="-397.0831" y2="155.0401" style="stroke:#808080;stroke-width:0.0125;"/>
        <!-- Line -->
        <line x1="-397.0831" y1="154.9026" x2="-397.0831" y2="155.0401" style="stroke:#808080;stroke-width:0.0125;"/>
        <!-- Line -->
        <line x1="-397.0581" y1="154.7401" x2="-397.0831" y2="154.7401" style="stroke:#808080;stroke-width:0.0125;"/>
        <!-- Line -->
        <line x1="-397.6831" y1="154.9026" x2="-397.6831" y2="155.0401" style="stroke:#808080;stroke-width:0.0125;"/>
        <!-- Line -->
        <line x1="-397.6831" y1="154.7401" x2="-397.6831" y2="154.8776" style="stroke:#808080;stroke-width:0.0125;"/>
        <!-- Line -->
        <line x1="-397.7081" y1="154.7401" x2="-397.7081" y2="155.0401" style="stroke:#808080;stroke-width:0.0125;"/>
        <!-- Line -->
        <line x1="-397.7081" y1="155.0401" x2="-397.6831" y2="155.0401" style="stroke:#808080;stroke-width:0.0125;"/>
        <!-- Line -->
        <line x1="-397.6831" y1="154.7401" x2="-397.7081" y2="154.7401" style="stroke:#808080;stroke-width:0.0125;"/>
        <!-- Line -->
        <line x1="-397.7145" y1="156.3246" x2="-397.7145" y2="156.6246" style="stroke:#808080;stroke-width:0.0125;"/>
        <!-- Line -->
        <line x1="-397.7145" y1="156.6246" x2="-397.6895" y2="156.6246" style="stroke:#808080;stroke-width:0.0125;"/>
        <!-- Line -->
        <line x1="-397.6895" y1="156.4871" x2="-397.6895" y2="156.6246" style="stroke:#808080;stroke-width:0.0125;"/>
        <!-- Line -->
        <line x1="-397.6895" y1="156.3246" x2="-397.6895" y2="156.4621" style="stroke:#808080;stroke-width:0.0125;"/>
        <!-- Line -->
        <line x1="-397.6895" y1="156.3246" x2="-397.7145" y2="156.3246" style="stroke:#808080;stroke-width:0.0125;"/>
        <!-- Line -->
        <line x1="-397.3831" y1="152.247" x2="-397.3831" y2="162.6633" style="stroke:#808080;stroke-width:0.0125;stroke-dasharray:0.2381,0.0397,0.0397,0.0397;stroke-dashoffset:0.0902"/>
        <!-- Hatch -->
        <g>
            <path d="M-405.13,154.9746 L-405.13,155.1246" style="stroke:#004c26;stroke-width:0.0125;"/>
            <path d="M-412.115,154.9746 L-412.115,155.1246" style="stroke:#004c26;stroke-width:0.0125;"/>
        </g>
        <!-- Hatch -->
        <!-- Hatch -->
        <!-- Hatch -->
        <!-- Hatch -->
        <path d="M-412.115,157.3746 L-412.115,158.1496" style="stroke:#cc6600;stroke-width:0.0125;"/>
        <!-- Hatch -->
        <g>
            <path d="M-412.115,158.1496 L-412.115,158.1996" style="stroke:#afd9aa;stroke-width:0.0125;"/>
            <path d="M-412.115,158.1996 L-412.115,158.2496" style="stroke:#afd9aa;stroke-width:0.0125;"/>
        </g>
    </g>
</svg>
