<?xml version="1.0" encoding="UTF-8"?>
<!-- 2020-09-03 16:51:53 Generated by QCAD 3.24.3 SVG Exporter PG -->
<svg width="171.5456mm" height="239.5241mm" viewBox="-422.875 -162.6016 8.5773 11.9762" version="1.1" xmlns="http://www.w3.org/2000/svg" style="stroke-linecap:round;stroke-linejoin:round;fill:none">
    <g transform="scale(1,-1)">
        <!-- Line -->
        <line x1="-422.095" y1="153.7339" x2="-415.0777" y2="153.7339" style="stroke:#808080;stroke-width:0.0125;stroke-dasharray:0.2381,0.0397,0.0397,0.0397;stroke-dashoffset:0.0037"/>
        <!-- Line -->
        <line x1="-418.7569" y1="160.3189" x2="-418.0769" y2="160.3189" style="stroke:#004c26;stroke-width:0.0125;"/>
        <!-- Line -->
        <line x1="-418.6169" y1="160.1789" x2="-418.0769" y2="160.1789" style="stroke:#004c26;stroke-width:0.0125;"/>
        <!-- Line -->
        <line x1="-418.6169" y1="160.1789" x2="-418.6169" y2="156.5439" style="stroke:#004c26;stroke-width:0.0125;"/>
        <!-- Line -->
        <line x1="-418.7569" y1="160.3189" x2="-418.7569" y2="156.4039" style="stroke:#004c26;stroke-width:0.0125;"/>
        <!-- Line -->
        <line x1="-416.0669" y1="159.8626" x2="-416.0669" y2="156.5439" style="stroke:#004c26;stroke-width:0.0125;"/>
        <!-- Line -->
        <line x1="-415.9269" y1="159.8626" x2="-415.9269" y2="156.4039" style="stroke:#004c26;stroke-width:0.0125;"/>
        <!-- Line -->
        <line x1="-418.6169" y1="156.5439" x2="-418.0769" y2="156.5439" style="stroke:#004c26;stroke-width:0.0125;"/>
        <!-- Line -->
        <line x1="-418.7569" y1="156.4039" x2="-418.0769" y2="156.4039" style="stroke:#004c26;stroke-width:0.0125;"/>
        <!-- Line -->
        <line x1="-419.0969" y1="161.8216" x2="-419.0969" y2="151.4054" style="stroke:#808080;stroke-width:0.0125;stroke-dasharray:0.2381,0.0397,0.0397,0.0397;stroke-dashoffset:0.0902"/>
        <!-- Circle -->
        <circle cx="-419.0969" cy="162.0616" r="0.24" style="stroke:#808080;stroke-width:0.0125;"/>
        <!-- Text: 20 -->
        <text x="-418.9519" dx="0" y="-162.1755" dy="0.2" font-family="arial" font-size="0.28" line-height="1.1" fill="#808080" transform="scale(1,-1) rotate(360 -418.9519,-162.1755)" text-anchor="end">20</text>
        <!-- Circle -->
        <circle cx="-419.0969" cy="151.1654" r="0.24" style="stroke:#808080;stroke-width:0.0125;"/>
        <!-- Text: 20 -->
        <text x="-418.9519" dx="0" y="-151.2793" dy="0.2" font-family="arial" font-size="0.28" line-height="1.1" fill="#808080" transform="scale(1,-1) rotate(360 -418.9519,-151.2793)" text-anchor="end">20</text>
        <!-- Circle -->
        <circle cx="-422.335" cy="153.7339" r="0.24" style="stroke:#808080;stroke-width:0.0125;"/>
        <!-- Text: F -->
        <text x="-422.2383" dx="0" y="-153.8305" dy="0.2" font-family="arial" font-size="0.28" line-height="1.1" fill="#808080" transform="scale(1,-1) rotate(360 -422.2383,-153.8305)" text-anchor="end">F</text>
        <!-- Text: F -->
        <text x="-414.741" dx="0" y="-153.8305" dy="0.2" font-family="arial" font-size="0.28" line-height="1.1" fill="#808080" transform="scale(1,-1) rotate(360 -414.741,-153.8305)" text-anchor="end">F</text>
        <!-- Circle -->
        <circle cx="-414.8377" cy="153.7339" r="0.24" style="stroke:#808080;stroke-width:0.0125;"/>
        <!-- Line -->
        <line x1="-418.7969" y1="154.6762" x2="-418.7969" y2="154.5387" style="stroke:#808080;stroke-width:0.0125;"/>
        <!-- Line -->
        <line x1="-418.7719" y1="154.6762" x2="-418.7719" y2="154.3762" style="stroke:#808080;stroke-width:0.0125;"/>
        <!-- Line -->
        <line x1="-419.3969" y1="154.6762" x2="-419.3969" y2="154.5387" style="stroke:#808080;stroke-width:0.0125;"/>
        <!-- Line -->
        <line x1="-419.4219" y1="154.6762" x2="-419.4219" y2="154.3762" style="stroke:#808080;stroke-width:0.0125;"/>
        <!-- Line -->
        <line x1="-419.3905" y1="152.9542" x2="-418.7905" y2="152.9542" style="stroke:#808080;stroke-width:0.0125;"/>
        <!-- Line -->
        <line x1="-419.3905" y1="152.9292" x2="-418.7905" y2="152.9292" style="stroke:#808080;stroke-width:0.0125;"/>
        <!-- Line -->
        <line x1="-419.4155" y1="153.0917" x2="-419.4155" y2="152.7917" style="stroke:#808080;stroke-width:0.0125;"/>
        <!-- Line -->
        <line x1="-419.3905" y1="152.9292" x2="-419.3905" y2="152.7917" style="stroke:#808080;stroke-width:0.0125;"/>
        <!-- Line -->
        <line x1="-419.4155" y1="152.7917" x2="-419.3905" y2="152.7917" style="stroke:#808080;stroke-width:0.0125;"/>
        <!-- Line -->
        <line x1="-419.3905" y1="153.0917" x2="-419.3905" y2="152.9542" style="stroke:#808080;stroke-width:0.0125;"/>
        <!-- Line -->
        <line x1="-419.4155" y1="153.0917" x2="-419.3905" y2="153.0917" style="stroke:#808080;stroke-width:0.0125;"/>
        <!-- Line -->
        <line x1="-418.7905" y1="152.9292" x2="-418.7905" y2="152.7917" style="stroke:#808080;stroke-width:0.0125;"/>
        <!-- Line -->
        <line x1="-418.7655" y1="153.0917" x2="-418.7655" y2="152.7917" style="stroke:#808080;stroke-width:0.0125;"/>
        <!-- Line -->
        <line x1="-418.7655" y1="152.7917" x2="-418.7905" y2="152.7917" style="stroke:#808080;stroke-width:0.0125;"/>
        <!-- Line -->
        <line x1="-418.7905" y1="153.0917" x2="-418.7655" y2="153.0917" style="stroke:#808080;stroke-width:0.0125;"/>
        <!-- Line -->
        <line x1="-418.7905" y1="153.0917" x2="-418.7905" y2="152.9542" style="stroke:#808080;stroke-width:0.0125;"/>
        <!-- Line -->
        <line x1="-419.3969" y1="154.5387" x2="-418.7969" y2="154.5387" style="stroke:#808080;stroke-width:0.0125;"/>
        <!-- Line -->
        <line x1="-419.3969" y1="154.5137" x2="-418.7969" y2="154.5137" style="stroke:#808080;stroke-width:0.0125;"/>
        <!-- Line -->
        <line x1="-419.3969" y1="154.5137" x2="-419.3969" y2="154.3762" style="stroke:#808080;stroke-width:0.0125;"/>
        <!-- Line -->
        <line x1="-419.4219" y1="154.3762" x2="-419.3969" y2="154.3762" style="stroke:#808080;stroke-width:0.0125;"/>
        <!-- Line -->
        <line x1="-418.7969" y1="154.5137" x2="-418.7969" y2="154.3762" style="stroke:#808080;stroke-width:0.0125;"/>
        <!-- Line -->
        <line x1="-418.7719" y1="154.3762" x2="-418.7969" y2="154.3762" style="stroke:#808080;stroke-width:0.0125;"/>
        <!-- Line -->
        <line x1="-419.4219" y1="154.6762" x2="-419.3969" y2="154.6762" style="stroke:#808080;stroke-width:0.0125;"/>
        <!-- Line -->
        <line x1="-418.7969" y1="154.6762" x2="-418.7719" y2="154.6762" style="stroke:#808080;stroke-width:0.0125;"/>
        <!-- Line -->
        <line x1="-420.2669" y1="154.7339" x2="-420.2669" y2="152.3362" style="stroke:#808080;stroke-width:0.0125;"/>
        <!-- Line -->
        <line x1="-421.2669" y1="155.7339" x2="-421.2669" y2="152.3362" style="stroke:#808080;stroke-width:0.0125;"/>
        <!-- Line -->
        <line x1="-421.2669" y1="155.7339" x2="-418.7569" y2="155.7339" style="stroke:#808080;stroke-width:0.0125;"/>
        <!-- Line -->
        <line x1="-420.2669" y1="154.7339" x2="-415.5669" y2="154.7339" style="stroke:#808080;stroke-width:0.0125;"/>
        <!-- Line -->
        <line x1="-421.2169" y1="155.6839" x2="-418.7069" y2="155.6839" style="stroke:#808080;stroke-width:0.0125;"/>
        <!-- Line -->
        <line x1="-421.2169" y1="155.6839" x2="-421.2169" y2="152.3362" style="stroke:#808080;stroke-width:0.0125;"/>
        <!-- Line -->
        <line x1="-420.3169" y1="154.7839" x2="-420.3169" y2="152.3362" style="stroke:#808080;stroke-width:0.0125;"/>
        <!-- Line -->
        <line x1="-420.3169" y1="154.7839" x2="-415.5669" y2="154.7839" style="stroke:#808080;stroke-width:0.0125;"/>
        <!-- Line -->
        <line x1="-418.7569" y1="156.4039" x2="-418.7569" y2="155.7339" style="stroke:#808080;stroke-width:0.0125;"/>
        <!-- Line -->
        <line x1="-418.0769" y1="156.5439" x2="-418.0769" y2="156.4039" style="stroke:#ff0000;stroke-width:0.0125;"/>
        <!-- Line -->
        <line x1="-416.6069" y1="156.5439" x2="-416.6069" y2="156.4039" style="stroke:#004c26;stroke-width:0.0125;"/>
        <!-- Line -->
        <line x1="-416.6069" y1="156.5439" x2="-416.0669" y2="156.5439" style="stroke:#004c26;stroke-width:0.0125;"/>
        <!-- Line -->
        <line x1="-416.6069" y1="156.4039" x2="-415.9269" y2="156.4039" style="stroke:#004c26;stroke-width:0.0125;"/>
        <!-- Line -->
        <line x1="-418.0769" y1="160.1789" x2="-418.0769" y2="160.3189" style="stroke:#004c26;stroke-width:0.0125;"/>
        <!-- Line -->
        <line x1="-416.6069" y1="160.1789" x2="-416.6069" y2="160.3189" style="stroke:#004c26;stroke-width:0.0125;"/>
        <!-- Line -->
        <line x1="-416.6069" y1="160.1789" x2="-416.1399" y2="160.1789" style="stroke:#004c26;stroke-width:0.0125;"/>
        <!-- Line -->
        <line x1="-416.6069" y1="160.3189" x2="-416.1399" y2="160.3189" style="stroke:#004c26;stroke-width:0.0125;"/>
        <!-- Line -->
        <line x1="-418.0519" y1="160.1789" x2="-418.0519" y2="160.3189" style="stroke:#808080;stroke-width:0.0125;"/>
        <!-- Line -->
        <line x1="-416.6319" y1="160.1789" x2="-416.6319" y2="160.3189" style="stroke:#808080;stroke-width:0.0125;"/>
        <!-- Line -->
        <line x1="-418.0519" y1="156.5439" x2="-418.0519" y2="156.4039" style="stroke:#808080;stroke-width:0.0125;"/>
        <!-- Line -->
        <line x1="-416.6319" y1="156.5439" x2="-416.6319" y2="156.4039" style="stroke:#808080;stroke-width:0.0125;"/>
        <!-- Line -->
        <line x1="-418.0769" y1="156.5439" x2="-418.0519" y2="156.5439" style="stroke:#808080;stroke-width:0.0125;"/>
        <!-- Line -->
        <line x1="-418.0769" y1="156.4039" x2="-418.0519" y2="156.4039" style="stroke:#808080;stroke-width:0.0125;"/>
        <!-- Line -->
        <line x1="-416.6069" y1="156.5439" x2="-416.6319" y2="156.5439" style="stroke:#808080;stroke-width:0.0125;"/>
        <!-- Line -->
        <line x1="-416.6069" y1="156.4039" x2="-416.6319" y2="156.4039" style="stroke:#808080;stroke-width:0.0125;"/>
        <!-- Line -->
        <line x1="-418.0769" y1="160.3189" x2="-418.0519" y2="160.3189" style="stroke:#808080;stroke-width:0.0125;"/>
        <!-- Line -->
        <line x1="-418.0769" y1="160.1789" x2="-418.0519" y2="160.1789" style="stroke:#808080;stroke-width:0.0125;"/>
        <!-- Line -->
        <line x1="-416.6069" y1="160.3189" x2="-416.6319" y2="160.3189" style="stroke:#808080;stroke-width:0.0125;"/>
        <!-- Line -->
        <line x1="-416.6069" y1="160.1789" x2="-416.6319" y2="160.1789" style="stroke:#808080;stroke-width:0.0125;"/>
        <!-- Line -->
        <line x1="-418.0519" y1="156.4039" x2="-418.0519" y2="155.7039" style="stroke:#808080;stroke-width:0.0125;"/>
        <!-- Line -->
        <line x1="-418.0019" y1="156.4039" x2="-418.0019" y2="155.7039" style="stroke:#808080;stroke-width:0.0125;"/>
        <!-- Line -->
        <line x1="-418.0519" y1="156.4039" x2="-418.0019" y2="156.4039" style="stroke:#808080;stroke-width:0.0125;"/>
        <!-- Line -->
        <line x1="-418.0519" y1="155.7039" x2="-418.0019" y2="155.7039" style="stroke:#808080;stroke-width:0.0125;"/>
        <!-- Line -->
        <line x1="-416.6319" y1="156.4039" x2="-416.6319" y2="155.7039" style="stroke:#808080;stroke-width:0.0125;"/>
        <!-- Line -->
        <line x1="-416.6819" y1="156.4039" x2="-416.6319" y2="156.4039" style="stroke:#808080;stroke-width:0.0125;"/>
        <!-- Line -->
        <line x1="-416.6819" y1="156.4039" x2="-416.6819" y2="155.7039" style="stroke:#808080;stroke-width:0.0125;"/>
        <!-- Line -->
        <line x1="-416.6819" y1="155.7039" x2="-416.6319" y2="155.7039" style="stroke:#808080;stroke-width:0.0125;"/>
        <!-- Line -->
        <line x1="-418.0019" y1="156.4039" x2="-416.6819" y2="156.4039" style="stroke:#808080;stroke-width:0.0125;"/>
        <!-- Line -->
        <line x1="-418.0019" y1="155.7039" x2="-417.3419" y2="156.4039" style="stroke:#808080;stroke-width:0.0125;"/>
        <!-- Line -->
        <line x1="-417.3419" y1="156.4039" x2="-416.6819" y2="155.7039" style="stroke:#808080;stroke-width:0.0125;"/>
        <!-- Line -->
        <line x1="-418.0519" y1="156.5439" x2="-416.6319" y2="156.5439" style="stroke:#808080;stroke-width:0.0125;"/>
        <!-- Line -->
        <line x1="-417.3419" y1="160.3189" x2="-416.6819" y2="161.0189" style="stroke:#808080;stroke-width:0.0125;"/>
        <!-- Line -->
        <line x1="-416.6819" y1="160.3189" x2="-416.6819" y2="161.0189" style="stroke:#808080;stroke-width:0.0125;"/>
        <!-- Line -->
        <line x1="-416.6319" y1="160.3189" x2="-416.6319" y2="161.0189" style="stroke:#808080;stroke-width:0.0125;"/>
        <!-- Line -->
        <line x1="-416.6819" y1="161.0189" x2="-416.6319" y2="161.0189" style="stroke:#808080;stroke-width:0.0125;"/>
        <!-- Line -->
        <line x1="-418.0519" y1="160.1789" x2="-416.6319" y2="160.1789" style="stroke:#808080;stroke-width:0.0125;"/>
        <!-- Line -->
        <line x1="-418.0019" y1="161.0189" x2="-417.3419" y2="160.3189" style="stroke:#808080;stroke-width:0.0125;"/>
        <!-- Line -->
        <line x1="-418.0019" y1="160.3189" x2="-416.6819" y2="160.3189" style="stroke:#808080;stroke-width:0.0125;"/>
        <!-- Line -->
        <line x1="-418.0019" y1="160.3189" x2="-418.0019" y2="161.0189" style="stroke:#808080;stroke-width:0.0125;"/>
        <!-- Line -->
        <line x1="-418.0519" y1="160.3189" x2="-418.0519" y2="161.0189" style="stroke:#808080;stroke-width:0.0125;"/>
        <!-- Line -->
        <line x1="-418.0519" y1="161.0189" x2="-418.0019" y2="161.0189" style="stroke:#808080;stroke-width:0.0125;"/>
        <!-- Line -->
        <line x1="-418.0019" y1="160.3189" x2="-418.0519" y2="160.3189" style="stroke:#808080;stroke-width:0.0125;"/>
        <!-- Line -->
        <line x1="-416.6819" y1="160.3189" x2="-416.6319" y2="160.3189" style="stroke:#808080;stroke-width:0.0125;"/>
        <!-- Polyline -->
        <path d="M-415.9489,153.9089 L-415.9489,153.9008 A0.007,0.007 0 0 1 -415.9419,153.8938 L-415.8669,153.8938 A0.0124652,0.0124652 0 0 0 -415.8611,153.8924 A0.0165145,0.0165145 0 0 0 -415.8558,153.888 A0.0202807,0.0202807 0 0 0 -415.8524,153.8817 A0.0251786,0.0251786 0 0 0 -415.8512,153.8739 L-415.8512,153.5939 A0.0251786,0.0251786 0 0 0 -415.8524,153.5861 A0.0202807,0.0202807 0 0 0 -415.8558,153.5799 A0.0165145,0.0165145 0 0 0 -415.8611,153.5755 A0.0124652,0.0124652 0 0 0 -415.8669,153.574 L-415.9419,153.574 A0.007,0.007 0 0 1 -415.9489,153.567 L-415.9489,153.5589 L-415.7449,153.5589 L-415.7449,153.567 A0.007,0.007 0 0 1 -415.7519,153.574 L-415.8269,153.574 A0.0124652,0.0124652 0 0 0 -415.8327,153.5755 A0.0165145,0.0165145 0 0 0 -415.838,153.5799 A0.0202807,0.0202807 0 0 0 -415.8413,153.5861 A0.0251786,0.0251786 0 0 0 -415.8425,153.5939 L-415.8425,153.8739 A0.0251786,0.0251786 0 0 0 -415.8413,153.8817 A0.0202807,0.0202807 0 0 0 -415.838,153.888 A0.0165145,0.0165145 0 0 0 -415.8327,153.8924 A0.0124652,0.0124652 0 0 0 -415.8269,153.8938 L-415.7519,153.8938 A0.007,0.007 0 0 1 -415.7449,153.9008 L-415.7449,153.9089 Z" style="stroke:#808080;stroke-width:0.0125;"/>
        <!-- Hatch -->
        <path d="M-415.9489,153.9089 L-415.9489,153.9008 A0.007,0.007 0 0 1 -415.9419,153.8938 L-415.8669,153.8938 A0.0124652,0.0124652 0 0 0 -415.8611,153.8924 A0.0165145,0.0165145 0 0 0 -415.8558,153.888 A0.0202807,0.0202807 0 0 0 -415.8524,153.8817 A0.0251786,0.0251786 0 0 0 -415.8512,153.8739 L-415.8512,153.5939 A0.0251786,0.0251786 0 0 0 -415.8524,153.5861 A0.0202807,0.0202807 0 0 0 -415.8558,153.5799 A0.0165145,0.0165145 0 0 0 -415.8611,153.5755 A0.0124652,0.0124652 0 0 0 -415.8669,153.574 L-415.9419,153.574 A0.007,0.007 0 0 1 -415.9489,153.567 L-415.9489,153.5589 L-415.7449,153.5589 L-415.7449,153.567 A0.007,0.007 0 0 1 -415.7519,153.574 L-415.8269,153.574 A0.0124652,0.0124652 0 0 0 -415.8327,153.5755 A0.0165145,0.0165145 0 0 0 -415.838,153.5799 A0.0202807,0.0202807 0 0 0 -415.8413,153.5861 A0.0251786,0.0251786 0 0 0 -415.8425,153.5939 L-415.8425,153.8739 A0.0251786,0.0251786 0 0 0 -415.8413,153.8817 A0.0202807,0.0202807 0 0 0 -415.838,153.888 A0.0165145,0.0165145 0 0 0 -415.8327,153.8924 A0.0124652,0.0124652 0 0 0 -415.8269,153.8938 L-415.7519,153.8938 A0.007,0.007 0 0 1 -415.7449,153.9008 L-415.7449,153.9089 Z" style="fill:#808080;fill-rule:evenodd;"/>
        <!-- Hatch -->
        <path d="M-416.0219,153.4526 L-416.0138,153.4526 A0.007,0.007 0 0 1 -416.0068,153.4596 L-416.0068,153.5346 A0.0124652,0.0124652 0 0 0 -416.0053,153.5404 A0.0165145,0.0165145 0 0 0 -416.0009,153.5457 A0.0202807,0.0202807 0 0 0 -415.9947,153.5491 A0.0251786,0.0251786 0 0 0 -415.9869,153.5503 L-415.7069,153.5503 A0.0251786,0.0251786 0 0 0 -415.6991,153.5491 A0.0202807,0.0202807 0 0 0 -415.6928,153.5457 A0.0165145,0.0165145 0 0 0 -415.6884,153.5404 A0.0124652,0.0124652 0 0 0 -415.687,153.5346 L-415.687,153.4596 A0.007,0.007 0 0 1 -415.68,153.4526 L-415.6719,153.4526 L-415.6719,153.6566 L-415.68,153.6566 A0.007,0.007 0 0 1 -415.687,153.6496 L-415.687,153.5746 A0.0124652,0.0124652 0 0 0 -415.6884,153.5688 A0.0165145,0.0165145 0 0 0 -415.6928,153.5635 A0.0202807,0.0202807 0 0 0 -415.6991,153.5602 A0.0251786,0.0251786 0 0 0 -415.7069,153.5589 L-415.9869,153.5589 A0.0251786,0.0251786 0 0 0 -415.9947,153.5602 A0.0202807,0.0202807 0 0 0 -416.0009,153.5635 A0.0165145,0.0165145 0 0 0 -416.0053,153.5688 A0.0124652,0.0124652 0 0 0 -416.0068,153.5746 L-416.0068,153.6496 A0.007,0.007 0 0 1 -416.0138,153.6566 L-416.0219,153.6566 Z" style="fill:#808080;fill-rule:evenodd;"/>
        <!-- Polyline -->
        <path d="M-416.0219,153.4526 L-416.0138,153.4526 A0.007,0.007 0 0 1 -416.0068,153.4596 L-416.0068,153.5346 A0.0124652,0.0124652 0 0 0 -416.0053,153.5404 A0.0165145,0.0165145 0 0 0 -416.0009,153.5457 A0.0202807,0.0202807 0 0 0 -415.9947,153.5491 A0.0251786,0.0251786 0 0 0 -415.9869,153.5503 L-415.7069,153.5503 A0.0251786,0.0251786 0 0 0 -415.6991,153.5491 A0.0202807,0.0202807 0 0 0 -415.6928,153.5457 A0.0165145,0.0165145 0 0 0 -415.6884,153.5404 A0.0124652,0.0124652 0 0 0 -415.687,153.5346 L-415.687,153.4596 A0.007,0.007 0 0 1 -415.68,153.4526 L-415.6719,153.4526 L-415.6719,153.6566 L-415.68,153.6566 A0.007,0.007 0 0 1 -415.687,153.6496 L-415.687,153.5746 A0.0124652,0.0124652 0 0 0 -415.6884,153.5688 A0.0165145,0.0165145 0 0 0 -415.6928,153.5635 A0.0202807,0.0202807 0 0 0 -415.6991,153.5602 A0.0251786,0.0251786 0 0 0 -415.7069,153.5589 L-415.9869,153.5589 A0.0251786,0.0251786 0 0 0 -415.9947,153.5602 A0.0202807,0.0202807 0 0 0 -416.0009,153.5635 A0.0165145,0.0165145 0 0 0 -416.0053,153.5688 A0.0124652,0.0124652 0 0 0 -416.0068,153.5746 L-416.0068,153.6496 A0.007,0.007 0 0 1 -416.0138,153.6566 L-416.0219,153.6566 Z" style="stroke:#808080;stroke-width:0.0125;"/>
        <!-- Polyline -->
        <path d="M-416.0669,159.8626 L-416.0669,159.8707 A0.007,0.007 0 0 0 -416.0599,159.8777 L-415.9849,159.8777 A0.0124652,0.0124652 0 0 1 -415.9791,159.8791 A0.0165145,0.0165145 0 0 1 -415.9738,159.8835 A0.0202807,0.0202807 0 0 1 -415.9704,159.8898 A0.0251786,0.0251786 0 0 1 -415.9692,159.8976 L-415.9692,160.1776 A0.0251786,0.0251786 0 0 1 -415.9704,160.1854 A0.0202807,0.0202807 0 0 1 -415.9738,160.1917 A0.0165145,0.0165145 0 0 1 -415.9791,160.1961 A0.0124652,0.0124652 0 0 1 -415.9849,160.1975 L-416.0599,160.1975 A0.007,0.007 0 0 0 -416.0669,160.2045 L-416.0669,160.2126 L-415.8629,160.2126 L-415.8629,160.2045 A0.007,0.007 0 0 0 -415.8699,160.1975 L-415.9449,160.1975 A0.0124652,0.0124652 0 0 1 -415.9507,160.1961 A0.0165145,0.0165145 0 0 1 -415.956,160.1917 A0.0202807,0.0202807 0 0 1 -415.9593,160.1854 A0.0251786,0.0251786 0 0 1 -415.9605,160.1776 L-415.9605,159.8976 A0.0251786,0.0251786 0 0 1 -415.9593,159.8898 A0.0202807,0.0202807 0 0 1 -415.956,159.8835 A0.0165145,0.0165145 0 0 1 -415.9507,159.8791 A0.0124652,0.0124652 0 0 1 -415.9449,159.8777 L-415.8699,159.8777 A0.007,0.007 0 0 0 -415.8629,159.8707 L-415.8629,159.8626 Z" style="stroke:#808080;stroke-width:0.0125;"/>
        <!-- Hatch -->
        <path d="M-416.0669,159.8626 L-416.0669,159.8707 A0.007,0.007 0 0 0 -416.0599,159.8777 L-415.9849,159.8777 A0.0124652,0.0124652 0 0 1 -415.9791,159.8791 A0.0165145,0.0165145 0 0 1 -415.9738,159.8835 A0.0202807,0.0202807 0 0 1 -415.9704,159.8898 A0.0251786,0.0251786 0 0 1 -415.9692,159.8976 L-415.9692,160.1776 A0.0251786,0.0251786 0 0 1 -415.9704,160.1854 A0.0202807,0.0202807 0 0 1 -415.9738,160.1917 A0.0165145,0.0165145 0 0 1 -415.9791,160.1961 A0.0124652,0.0124652 0 0 1 -415.9849,160.1975 L-416.0599,160.1975 A0.007,0.007 0 0 0 -416.0669,160.2045 L-416.0669,160.2126 L-415.8629,160.2126 L-415.8629,160.2045 A0.007,0.007 0 0 0 -415.8699,160.1975 L-415.9449,160.1975 A0.0124652,0.0124652 0 0 1 -415.9507,160.1961 A0.0165145,0.0165145 0 0 1 -415.956,160.1917 A0.0202807,0.0202807 0 0 1 -415.9593,160.1854 A0.0251786,0.0251786 0 0 1 -415.9605,160.1776 L-415.9605,159.8976 A0.0251786,0.0251786 0 0 1 -415.9593,159.8898 A0.0202807,0.0202807 0 0 1 -415.956,159.8835 A0.0165145,0.0165145 0 0 1 -415.9507,159.8791 A0.0124652,0.0124652 0 0 1 -415.9449,159.8777 L-415.8699,159.8777 A0.007,0.007 0 0 0 -415.8629,159.8707 L-415.8629,159.8626 Z" style="fill:#808080;fill-rule:evenodd;"/>
        <!-- Polyline -->
        <path d="M-416.1399,160.3189 L-416.1318,160.3189 A0.007,0.007 0 0 0 -416.1248,160.3119 L-416.1248,160.2369 A0.0124652,0.0124652 0 0 1 -416.1233,160.2311 A0.0165145,0.0165145 0 0 1 -416.1189,160.2258 A0.0202807,0.0202807 0 0 1 -416.1127,160.2225 A0.0251786,0.0251786 0 0 1 -416.1049,160.2213 L-415.8249,160.2213 A0.0251786,0.0251786 0 0 1 -415.8171,160.2225 A0.0202807,0.0202807 0 0 1 -415.8108,160.2258 A0.0165145,0.0165145 0 0 1 -415.8064,160.2311 A0.0124652,0.0124652 0 0 1 -415.805,160.2369 L-415.805,160.3119 A0.007,0.007 0 0 0 -415.798,160.3189 L-415.7899,160.3189 L-415.7899,160.1149 L-415.798,160.1149 A0.007,0.007 0 0 0 -415.805,160.1219 L-415.805,160.1969 A0.0124652,0.0124652 0 0 1 -415.8064,160.2027 A0.0165145,0.0165145 0 0 1 -415.8108,160.208 A0.0202807,0.0202807 0 0 1 -415.8171,160.2114 A0.0251786,0.0251786 0 0 1 -415.8249,160.2126 L-416.1049,160.2126 A0.0251786,0.0251786 0 0 1 -416.1127,160.2114 A0.0202807,0.0202807 0 0 1 -416.1189,160.208 A0.0165145,0.0165145 0 0 1 -416.1233,160.2027 A0.0124652,0.0124652 0 0 1 -416.1248,160.1969 L-416.1248,160.1219 A0.007,0.007 0 0 0 -416.1318,160.1149 L-416.1399,160.1149 Z" style="stroke:#808080;stroke-width:0.0125;"/>
        <!-- Hatch -->
        <path d="M-416.1399,160.3189 L-416.1318,160.3189 A0.007,0.007 0 0 0 -416.1248,160.3119 L-416.1248,160.2369 A0.0124652,0.0124652 0 0 1 -416.1233,160.2311 A0.0165145,0.0165145 0 0 1 -416.1189,160.2258 A0.0202807,0.0202807 0 0 1 -416.1127,160.2225 A0.0251786,0.0251786 0 0 1 -416.1049,160.2213 L-415.8249,160.2213 A0.0251786,0.0251786 0 0 1 -415.8171,160.2225 A0.0202807,0.0202807 0 0 1 -415.8108,160.2258 A0.0165145,0.0165145 0 0 1 -415.8064,160.2311 A0.0124652,0.0124652 0 0 1 -415.805,160.2369 L-415.805,160.3119 A0.007,0.007 0 0 0 -415.798,160.3189 L-415.7899,160.3189 L-415.7899,160.1149 L-415.798,160.1149 A0.007,0.007 0 0 0 -415.805,160.1219 L-415.805,160.1969 A0.0124652,0.0124652 0 0 1 -415.8064,160.2027 A0.0165145,0.0165145 0 0 1 -415.8108,160.208 A0.0202807,0.0202807 0 0 1 -415.8171,160.2114 A0.0251786,0.0251786 0 0 1 -415.8249,160.2126 L-416.1049,160.2126 A0.0251786,0.0251786 0 0 1 -416.1127,160.2114 A0.0202807,0.0202807 0 0 1 -416.1189,160.208 A0.0165145,0.0165145 0 0 1 -416.1233,160.2027 A0.0124652,0.0124652 0 0 1 -416.1248,160.1969 L-416.1248,160.1219 A0.007,0.007 0 0 0 -416.1318,160.1149 L-416.1399,160.1149 Z" style="fill:#808080;fill-rule:evenodd;"/>
        <!-- Line -->
        <line x1="-416.1399" y1="160.1149" x2="-416.0669" y2="160.1149" style="stroke:#004c26;stroke-width:0.0125;"/>
        <!-- Line -->
        <line x1="-416.0669" y1="159.8626" x2="-416.0669" y2="160.1149" style="stroke:#004c26;stroke-width:0.0125;"/>
        <!-- Line -->
        <line x1="-416.0779" y1="156.6462" x2="-416.0779" y2="156.541" style="stroke:#808080;stroke-width:0.0125;"/>
        <!-- Line -->
        <line x1="-416.0779" y1="156.541" x2="-415.9159" y2="156.541" style="stroke:#808080;stroke-width:0.0125;"/>
        <!-- Line -->
        <line x1="-415.9159" y1="156.541" x2="-415.9159" y2="156.6462" style="stroke:#808080;stroke-width:0.0125;"/>
        <!-- Line -->
        <line x1="-415.9159" y1="156.6462" x2="-415.9169" y2="156.6462" style="stroke:#808080;stroke-width:0.0125;"/>
        <!-- Line -->
        <line x1="-415.9269" y1="156.6362" x2="-415.9269" y2="156.5613" style="stroke:#808080;stroke-width:0.0125;"/>
        <!-- Line -->
        <line x1="-415.9399" y1="156.5483" x2="-416.0539" y2="156.5483" style="stroke:#808080;stroke-width:0.0125;"/>
        <!-- Arc -->
        <path d="M-416.0669,156.5613 A0.013,0.013 0 0,1 -416.0539,156.5483" style="stroke:#808080;stroke-width:0.0125;"/>
        <!-- Line -->
        <line x1="-416.0669" y1="156.5613" x2="-416.0669" y2="156.6362" style="stroke:#808080;stroke-width:0.0125;"/>
        <!-- Line -->
        <line x1="-416.0769" y1="156.6462" x2="-416.0779" y2="156.6462" style="stroke:#808080;stroke-width:0.0125;"/>
        <!-- Arc -->
        <path d="M-416.0669,156.6362 A0.01,0.01 0 0,1 -416.0769,156.6462" style="stroke:#808080;stroke-width:0.0125;"/>
        <!-- Arc -->
        <path d="M-415.9169,156.6462 A0.01,0.01 0 0,1 -415.9269,156.6362" style="stroke:#808080;stroke-width:0.0125;"/>
        <!-- Hatch -->
        <path d="M-416.0669,156.6362 A0.01,0.01 0 0 1 -416.0769,156.6462 L-416.0779,156.6462 L-416.0779,156.541 L-415.9159,156.541 L-415.9159,156.6462 L-415.9169,156.6462 A0.01,0.01 0 0 1 -415.9269,156.6362 L-415.9269,156.5613 A0.013,0.013 0 0 0 -415.9399,156.5483 L-416.0539,156.5483 A0.013,0.013 0 0 0 -416.0669,156.5613 Z" style="fill:#808080;fill-rule:evenodd;"/>
        <!-- Line -->
        <line x1="-415.9196" y1="156.3929" x2="-415.9196" y2="156.541" style="stroke:#808080;stroke-width:0.0125;"/>
        <!-- Line -->
        <line x1="-415.9269" y1="156.517" x2="-415.9269" y2="156.4169" style="stroke:#808080;stroke-width:0.0125;"/>
        <!-- Line -->
        <line x1="-416.0247" y1="156.3929" x2="-415.9196" y2="156.3929" style="stroke:#808080;stroke-width:0.0125;"/>
        <!-- Arc -->
        <path d="M-415.9399,156.4039 A0.013,0.013 0 0,1 -415.9269,156.4169" style="stroke:#808080;stroke-width:0.0125;"/>
        <!-- Line -->
        <line x1="-415.9399" y1="156.4039" x2="-416.0147" y2="156.4039" style="stroke:#808080;stroke-width:0.0125;"/>
        <!-- Line -->
        <line x1="-416.0247" y1="156.3939" x2="-416.0247" y2="156.3929" style="stroke:#808080;stroke-width:0.0125;"/>
        <!-- Arc -->
        <path d="M-416.0147,156.4039 A0.01,0.01 0 0,1 -416.0247,156.3939" style="stroke:#808080;stroke-width:0.0125;"/>
        <!-- Line -->
        <line x1="-415.9196" y1="156.541" x2="-416.0247" y2="156.541" style="stroke:#808080;stroke-width:0.0125;"/>
        <!-- Line -->
        <line x1="-416.0247" y1="156.541" x2="-416.0247" y2="156.54" style="stroke:#808080;stroke-width:0.0125;"/>
        <!-- Line -->
        <line x1="-416.0147" y1="156.53" x2="-415.9399" y2="156.53" style="stroke:#808080;stroke-width:0.0125;"/>
        <!-- Arc -->
        <path d="M-415.9269,156.517 A0.013,0.013 0 0,1 -415.9399,156.53" style="stroke:#808080;stroke-width:0.0125;"/>
        <!-- Arc -->
        <path d="M-416.0247,156.54 A0.01,0.01 0 0,1 -416.0147,156.53" style="stroke:#808080;stroke-width:0.0125;"/>
        <!-- Hatch -->
        <path d="M-415.9196,156.3929 L-415.9196,156.541 L-415.9269,156.541 L-415.9269,156.4039 L-416.0147,156.4039 A0.01,0.01 0 0 1 -416.0247,156.3939 L-416.0247,156.3929 ZM-416.0247,156.541 L-416.0247,156.54 A0.01,0.01 0 0 1 -416.0147,156.53 L-415.9399,156.53 A0.013,0.013 0 0 0 -415.9269,156.517 L-415.9269,156.541 ZM-415.9269,156.4169 A0.013,0.013 0 0 0 -415.9399,156.4039 L-415.9269,156.4039 Z" style="fill:#808080;fill-rule:evenodd;"/>
        <!-- Hatch -->
        <path d="M-418.7641,156.3929 L-418.7641,156.541 L-418.7569,156.541 L-418.7569,156.4039 L-418.669,156.4039 A0.01,0.01 0 0 0 -418.659,156.3939 L-418.659,156.3929 ZM-418.659,156.541 L-418.659,156.54 A0.01,0.01 0 0 0 -418.669,156.53 L-418.7439,156.53 A0.013,0.013 0 0 1 -418.7569,156.517 L-418.7569,156.541 ZM-418.7569,156.4169 A0.013,0.013 0 0 1 -418.7439,156.4039 L-418.7569,156.4039 Z" style="fill:#808080;fill-rule:evenodd;"/>
        <!-- Line -->
        <line x1="-418.7641" y1="156.541" x2="-418.659" y2="156.541" style="stroke:#808080;stroke-width:0.0125;"/>
        <!-- Line -->
        <line x1="-418.659" y1="156.3929" x2="-418.7641" y2="156.3929" style="stroke:#808080;stroke-width:0.0125;"/>
        <!-- Line -->
        <line x1="-418.669" y1="156.53" x2="-418.7439" y2="156.53" style="stroke:#808080;stroke-width:0.0125;"/>
        <!-- Line -->
        <line x1="-418.7439" y1="156.4039" x2="-418.669" y2="156.4039" style="stroke:#808080;stroke-width:0.0125;"/>
        <!-- Line -->
        <line x1="-418.6059" y1="156.541" x2="-418.7679" y2="156.541" style="stroke:#808080;stroke-width:0.0125;"/>
        <!-- Line -->
        <line x1="-418.7439" y1="156.5483" x2="-418.6299" y2="156.5483" style="stroke:#808080;stroke-width:0.0125;"/>
        <!-- Hatch -->
        <path d="M-418.6169,156.6362 A0.01,0.01 0 0 0 -418.6069,156.6462 L-418.6059,156.6462 L-418.6059,156.541 L-418.7679,156.541 L-418.7679,156.6462 L-418.7669,156.6462 A0.01,0.01 0 0 0 -418.7569,156.6362 L-418.7569,156.5613 A0.013,0.013 0 0 1 -418.7439,156.5483 L-418.6299,156.5483 A0.013,0.013 0 0 1 -418.6169,156.5613 Z" style="fill:#808080;fill-rule:evenodd;"/>
        <!-- Arc -->
        <path d="M-418.659,156.3939 A0.01,0.01 0 0,1 -418.669,156.4039" style="stroke:#808080;stroke-width:0.0125;"/>
        <!-- Line -->
        <line x1="-418.659" y1="156.3939" x2="-418.659" y2="156.3929" style="stroke:#808080;stroke-width:0.0125;"/>
        <!-- Line -->
        <line x1="-418.659" y1="156.541" x2="-418.659" y2="156.54" style="stroke:#808080;stroke-width:0.0125;"/>
        <!-- Arc -->
        <path d="M-418.669,156.53 A0.01,0.01 0 0,1 -418.659,156.54" style="stroke:#808080;stroke-width:0.0125;"/>
        <!-- Line -->
        <line x1="-418.6059" y1="156.6462" x2="-418.6059" y2="156.541" style="stroke:#808080;stroke-width:0.0125;"/>
        <!-- Arc -->
        <path d="M-418.6299,156.5483 A0.013,0.013 0 0,1 -418.6169,156.5613" style="stroke:#808080;stroke-width:0.0125;"/>
        <!-- Line -->
        <line x1="-418.6169" y1="156.5613" x2="-418.6169" y2="156.6362" style="stroke:#808080;stroke-width:0.0125;"/>
        <!-- Line -->
        <line x1="-418.6069" y1="156.6462" x2="-418.6059" y2="156.6462" style="stroke:#808080;stroke-width:0.0125;"/>
        <!-- Arc -->
        <path d="M-418.6069,156.6462 A0.01,0.01 0 0,1 -418.6169,156.6362" style="stroke:#808080;stroke-width:0.0125;"/>
        <!-- Line -->
        <line x1="-418.7641" y1="156.3929" x2="-418.7641" y2="156.541" style="stroke:#808080;stroke-width:0.0125;"/>
        <!-- Arc -->
        <path d="M-418.7439,156.53 A0.013,0.013 0 0,1 -418.7569,156.517" style="stroke:#808080;stroke-width:0.0125;"/>
        <!-- Arc -->
        <path d="M-418.7569,156.4169 A0.013,0.013 0 0,1 -418.7439,156.4039" style="stroke:#808080;stroke-width:0.0125;"/>
        <!-- Line -->
        <line x1="-418.7569" y1="156.517" x2="-418.7569" y2="156.4169" style="stroke:#808080;stroke-width:0.0125;"/>
        <!-- Line -->
        <line x1="-418.7679" y1="156.541" x2="-418.7679" y2="156.6462" style="stroke:#808080;stroke-width:0.0125;"/>
        <!-- Line -->
        <line x1="-418.7679" y1="156.6462" x2="-418.7669" y2="156.6462" style="stroke:#808080;stroke-width:0.0125;"/>
        <!-- Line -->
        <line x1="-418.7569" y1="156.6362" x2="-418.7569" y2="156.5613" style="stroke:#808080;stroke-width:0.0125;"/>
        <!-- Arc -->
        <path d="M-418.7569,156.6362 A0.01,0.01 0 0,1 -418.7669,156.6462" style="stroke:#808080;stroke-width:0.0125;"/>
        <!-- Hatch -->
        <path d="M-418.7641,160.3299 L-418.7641,160.1818 L-418.7569,160.1818 L-418.7569,160.3189 L-418.669,160.3189 A0.01,0.01 0 0 1 -418.659,160.3289 L-418.659,160.3299 ZM-418.659,160.1818 L-418.659,160.1828 A0.01,0.01 0 0 1 -418.669,160.1928 L-418.7439,160.1928 A0.013,0.013 0 0 0 -418.7569,160.2058 L-418.7569,160.1818 ZM-418.7569,160.3059 A0.013,0.013 0 0 0 -418.7439,160.3189 L-418.7569,160.3189 Z" style="fill:#808080;fill-rule:evenodd;"/>
        <!-- Arc -->
        <path d="M-418.7439,160.3189 A0.013,0.013 0 0,1 -418.7569,160.3059" style="stroke:#808080;stroke-width:0.0125;"/>
        <!-- Arc -->
        <path d="M-418.7569,160.2058 A0.013,0.013 0 0,1 -418.7439,160.1928" style="stroke:#808080;stroke-width:0.0125;"/>
        <!-- Hatch -->
        <path d="M-418.6169,160.0867 A0.01,0.01 0 0 1 -418.6069,160.0767 L-418.6059,160.0767 L-418.6059,160.1818 L-418.7679,160.1818 L-418.7679,160.0767 L-418.7669,160.0767 A0.01,0.01 0 0 1 -418.7569,160.0867 L-418.7569,160.1616 A0.013,0.013 0 0 0 -418.7439,160.1746 L-418.6299,160.1746 A0.013,0.013 0 0 0 -418.6169,160.1616 Z" style="fill:#808080;fill-rule:evenodd;"/>
        <!-- Line -->
        <line x1="-418.6059" y1="160.1818" x2="-418.7679" y2="160.1818" style="stroke:#808080;stroke-width:0.0125;"/>
        <!-- Line -->
        <line x1="-418.659" y1="160.3299" x2="-418.7641" y2="160.3299" style="stroke:#808080;stroke-width:0.0125;"/>
        <!-- Line -->
        <line x1="-418.7641" y1="160.1818" x2="-418.659" y2="160.1818" style="stroke:#808080;stroke-width:0.0125;"/>
        <!-- Arc -->
        <path d="M-418.7669,160.0767 A0.01,0.01 0 0,1 -418.7569,160.0867" style="stroke:#808080;stroke-width:0.0125;"/>
        <!-- Line -->
        <line x1="-418.7569" y1="160.0867" x2="-418.7569" y2="160.1616" style="stroke:#808080;stroke-width:0.0125;"/>
        <!-- Line -->
        <line x1="-418.7679" y1="160.0767" x2="-418.7669" y2="160.0767" style="stroke:#808080;stroke-width:0.0125;"/>
        <!-- Line -->
        <line x1="-418.7679" y1="160.1818" x2="-418.7679" y2="160.0767" style="stroke:#808080;stroke-width:0.0125;"/>
        <!-- Line -->
        <line x1="-418.7569" y1="160.2058" x2="-418.7569" y2="160.3059" style="stroke:#808080;stroke-width:0.0125;"/>
        <!-- Line -->
        <line x1="-418.7641" y1="160.3299" x2="-418.7641" y2="160.1818" style="stroke:#808080;stroke-width:0.0125;"/>
        <!-- Arc -->
        <path d="M-418.6169,160.0867 A0.01,0.01 0 0,1 -418.6069,160.0767" style="stroke:#808080;stroke-width:0.0125;"/>
        <!-- Line -->
        <line x1="-418.6069" y1="160.0767" x2="-418.6059" y2="160.0767" style="stroke:#808080;stroke-width:0.0125;"/>
        <!-- Line -->
        <line x1="-418.6169" y1="160.1616" x2="-418.6169" y2="160.0867" style="stroke:#808080;stroke-width:0.0125;"/>
        <!-- Arc -->
        <path d="M-418.6169,160.1616 A0.013,0.013 0 0,1 -418.6299,160.1746" style="stroke:#808080;stroke-width:0.0125;"/>
        <!-- Line -->
        <line x1="-418.6059" y1="160.0767" x2="-418.6059" y2="160.1818" style="stroke:#808080;stroke-width:0.0125;"/>
        <!-- Arc -->
        <path d="M-418.659,160.1828 A0.01,0.01 0 0,1 -418.669,160.1928" style="stroke:#808080;stroke-width:0.0125;"/>
        <!-- Line -->
        <line x1="-418.659" y1="160.1818" x2="-418.659" y2="160.1828" style="stroke:#808080;stroke-width:0.0125;"/>
        <!-- Line -->
        <line x1="-418.659" y1="160.3289" x2="-418.659" y2="160.3299" style="stroke:#808080;stroke-width:0.0125;"/>
        <!-- Arc -->
        <path d="M-418.669,160.3189 A0.01,0.01 0 0,1 -418.659,160.3289" style="stroke:#808080;stroke-width:0.0125;"/>
        <!-- Line -->
        <line x1="-418.7439" y1="160.1746" x2="-418.6299" y2="160.1746" style="stroke:#808080;stroke-width:0.0125;"/>
        <!-- Line -->
        <line x1="-418.7439" y1="160.3189" x2="-418.669" y2="160.3189" style="stroke:#808080;stroke-width:0.0125;"/>
        <!-- Line -->
        <line x1="-418.669" y1="160.1928" x2="-418.7439" y2="160.1928" style="stroke:#808080;stroke-width:0.0125;"/>
        <!-- Line -->
        <line x1="-416.6069" y1="155.6839" x2="-416.6069" y2="154.7839" style="stroke:#000000;stroke-width:0.0125;"/>
        <!-- Line -->
        <line x1="-415.5669" y1="155.7339" x2="-415.5669" y2="155.6839" style="stroke:#808080;stroke-width:0.0125;"/>
        <!-- Line -->
        <line x1="-415.5669" y1="154.7839" x2="-415.5669" y2="154.7339" style="stroke:#808080;stroke-width:0.0125;"/>
        <!-- Line -->
        <line x1="-415.5669" y1="155.6839" x2="-415.5669" y2="154.7839" style="stroke:#000000;stroke-width:0.0125;"/>
        <!-- Line -->
        <line x1="-416.3469" y1="154.7839" x2="-416.3469" y2="155.6839" style="stroke:#000000;stroke-width:0.0125;"/>
        <!-- Line -->
        <line x1="-416.0869" y1="154.7839" x2="-416.0869" y2="155.6839" style="stroke:#000000;stroke-width:0.0125;"/>
        <!-- Line -->
        <line x1="-415.8269" y1="154.7839" x2="-415.8269" y2="155.6839" style="stroke:#000000;stroke-width:0.0125;"/>
        <!-- Line -->
        <line x1="-416.6069" y1="155.2339" x2="-415.5669" y2="155.2339" style="stroke:#000000;stroke-width:0.0125;"/>
        <!-- Line -->
        <line x1="-416.6069" y1="155.2339" x2="-416.382" y2="155.0981" style="stroke:#000000;stroke-width:0.0125;"/>
        <!-- Line -->
        <line x1="-416.6069" y1="155.2339" x2="-416.382" y2="155.3698" style="stroke:#000000;stroke-width:0.0125;"/>
        <!-- Line -->
        <line x1="-418.7069" y1="156.4039" x2="-418.7069" y2="155.6839" style="stroke:#808080;stroke-width:0.0125;"/>
        <!-- Line -->
        <line x1="-416.6069" y1="155.6839" x2="-415.5669" y2="155.6839" style="stroke:#808080;stroke-width:0.0125;"/>
        <!-- Line -->
        <line x1="-416.5569" y1="155.7339" x2="-415.5669" y2="155.7339" style="stroke:#808080;stroke-width:0.0125;"/>
        <!-- Line -->
        <line x1="-416.6069" y1="156.4039" x2="-416.6069" y2="155.6839" style="stroke:#808080;stroke-width:0.0125;"/>
        <!-- Line -->
        <line x1="-416.5569" y1="156.4039" x2="-416.5569" y2="155.7339" style="stroke:#808080;stroke-width:0.0125;"/>
        <!-- Line -->
        <line x1="-418.7719" y1="152.7917" x2="-418.7719" y2="154.6762" style="stroke:#808080;stroke-width:0.0125;"/>
        <!-- Line -->
        <line x1="-416.0219" y1="152.7917" x2="-416.0219" y2="154.6762" style="stroke:#808080;stroke-width:0.0125;"/>
        <!-- Line -->
        <line x1="-418.7219" y1="152.8417" x2="-418.7219" y2="154.6262" style="stroke:#808080;stroke-width:0.0125;"/>
        <!-- Line -->
        <line x1="-416.0719" y1="152.8417" x2="-416.0719" y2="154.6262" style="stroke:#808080;stroke-width:0.0125;"/>
        <!-- Line -->
        <line x1="-418.7719" y1="154.6762" x2="-416.0219" y2="154.6762" style="stroke:#808080;stroke-width:0.0125;"/>
        <!-- Line -->
        <line x1="-418.7219" y1="154.6262" x2="-416.0719" y2="154.6262" style="stroke:#808080;stroke-width:0.0125;"/>
        <!-- Line -->
        <line x1="-418.7719" y1="152.7917" x2="-416.0219" y2="152.7917" style="stroke:#808080;stroke-width:0.0125;"/>
        <!-- Line -->
        <line x1="-418.7219" y1="152.8417" x2="-416.0719" y2="152.8417" style="stroke:#808080;stroke-width:0.0125;"/>
        <!-- Line -->
        <line x1="-418.7219" y1="154.6262" x2="-416.0719" y2="152.8417" style="stroke:#808080;stroke-width:0.0125;"/>
        <!-- Line -->
        <line x1="-418.7219" y1="152.8417" x2="-416.0719" y2="154.6262" style="stroke:#808080;stroke-width:0.0125;"/>
        <!-- Text: SALA DE PLC -->
        <text x="-416.7875" dx="0" y="-159.2906" dy="0.1" font-family="arial" font-size="0.14" line-height="1.1" fill="#000000" transform="scale(1,-1) rotate(360 -416.7875,-159.2906)" text-anchor="end">SALA DE PLC</text>
        <!-- Hatch -->
        <!-- Line -->
        <line x1="-421.2669" y1="152.3362" x2="-421.2169" y2="152.3362" style="stroke:#004c26;stroke-width:0.0125;"/>
        <!-- Line -->
        <line x1="-420.3169" y1="152.3362" x2="-420.2669" y2="152.3362" style="stroke:#004c26;stroke-width:0.0125;"/>
        <!-- Line -->
        <line x1="-416.6069" y1="156.4039" x2="-416.5569" y2="156.4039" style="stroke:#004c26;stroke-width:0.0125;"/>
        <!-- Hatch -->
        <g>
            <path d="M-421.2669,153.67 L-421.2169,153.67" style="stroke:#009926;stroke-width:0.0125;"/>
            <path d="M-419.1,154.7339 L-419.1,154.7839" style="stroke:#009926;stroke-width:0.0125;"/>
            <path d="M-419.1,155.6839 L-419.1,155.7339" style="stroke:#009926;stroke-width:0.0125;"/>
        </g>
        <!-- Hatch -->
        <path d="M-419.1,154.5137 L-419.1,154.5387" style="stroke:#636466;stroke-width:0.0125;"/>
        <!-- Line -->
        <line x1="-421.2169" y1="152.3362" x2="-420.3169" y2="152.3362" style="stroke:#000000;stroke-width:0.0125;"/>
        <!-- Hatch -->
        <!-- Hatch -->
        <g>
            <path d="M-418.7719,153.67 L-418.7219,153.67" style="stroke:#636466;stroke-width:0.0125;"/>
            <path d="M-416.0719,153.67 L-416.0219,153.67" style="stroke:#636466;stroke-width:0.0125;"/>
        </g>
        <!-- Hatch -->
        <g>
            <path d="M-418.0519,160.655 L-418.0019,160.655" style="stroke:#636466;stroke-width:0.0125;"/>
            <path d="M-416.6819,160.655 L-416.6319,160.655" style="stroke:#636466;stroke-width:0.0125;"/>
        </g>
        <!-- Hatch -->
        <!-- Hatch -->
        <g>
            <path d="M-418.0019,160.655 L-417.6587,160.655" style="stroke:#d7ebd2;stroke-width:0.0125;"/>
            <path d="M-417.025,160.655 L-416.6819,160.655" style="stroke:#d7ebd2;stroke-width:0.0125;"/>
        </g>
        <!-- Hatch -->
        <path d="M-418.0019,156.4039 L-418.0519,156.4039 L-418.0519,155.7039 L-418.0019,155.7039 ZM-416.6319,156.4039 L-416.6819,156.4039 L-416.6819,155.7039 L-416.6319,155.7039 ZM-416.6069,156.5439 L-416.6319,156.5439 L-416.6319,156.4039 L-416.6069,156.4039 ZM-418.0519,156.5439 L-418.0769,156.5439 L-418.0769,156.4039 L-418.0519,156.4039 Z" style="fill:#636466;fill-rule:evenodd;"/>
        <!-- Hatch -->
        <path d="M-419.0969,155.6839 L-421.2169,155.6839 L-421.2169,153.7339 L-420.3169,153.7339 L-420.3169,154.7839 L-419.0969,154.7839 ZM-420.3169,153.7339 L-421.2169,153.7339 L-421.2169,152.3362 L-420.3169,152.3362 ZM-416.6069,155.6839 L-416.6069,156.4039 L-416.6319,156.4039 L-416.6319,155.7039 L-416.6819,155.7039 L-417.3419,156.4039 L-418.0019,155.7039 L-418.0519,155.7039 L-418.0519,156.4039 L-418.0769,156.4039 L-418.669,156.4039 A0.01,0.01 0 0 0 -418.659,156.3939 L-418.659,156.3929 L-418.7069,156.3929 L-418.7069,155.6839 L-419.0969,155.6839 L-419.0969,154.7839 L-416.6069,154.7839 ZM-416.6819,156.4039 L-417.3419,156.4039 L-416.6819,155.7039 ZM-417.3419,156.4039 L-418.0019,156.4039 L-418.0019,155.7039 Z" style="fill:#d7ebd2;fill-rule:evenodd;"/>
        <!-- Hatch -->
        <path d="M-416.3469,155.6839 L-416.6069,155.6839 L-416.6069,155.2339 L-416.3469,155.2339 ZM-416.0869,155.6839 L-416.3469,155.6839 L-416.3469,155.2339 L-416.0869,155.2339 ZM-415.8269,155.6839 L-416.0869,155.6839 L-416.0869,155.2339 L-415.8269,155.2339 ZM-415.5669,155.6839 L-415.8269,155.6839 L-415.8269,155.2339 L-415.5669,155.2339 ZM-415.5669,155.2339 L-415.8269,155.2339 L-415.8269,154.7839 L-415.5669,154.7839 ZM-415.8269,155.2339 L-416.0869,155.2339 L-416.0869,154.7839 L-415.8269,154.7839 ZM-416.0869,155.2339 L-416.3469,155.2339 L-416.3469,154.7839 L-416.0869,154.7839 ZM-416.3469,155.2339 L-416.6069,155.2339 L-416.6069,154.7839 L-416.3469,154.7839 Z" style="fill:#c7c8ca;fill-rule:evenodd;"/>
    </g>
</svg>
