<?xml version="1.0" encoding="UTF-8"?>
<!-- 2020-09-03 16:54:45 Generated by QCAD 3.24.3 SVG Exporter PG -->
<svg width="277.4032mm" height="166.8532mm" viewBox="137.8527 -132.0874 13.8702 8.3427" version="1.1" xmlns="http://www.w3.org/2000/svg" style="stroke-linecap:round;stroke-linejoin:round;fill:none">
    <g transform="scale(1,-1)">
        <!-- Line -->
        <line x1="150.0946" y1="124.5447" x2="150.0946" y2="131.2642" style="stroke:#808080;stroke-width:0.0125;stroke-dasharray:0.2381,0.0397,0.0397,0.0397;stroke-dashoffset:0.1526"/>
        <!-- Line -->
        <line x1="141.0946" y1="124.5447" x2="141.0946" y2="131.2642" style="stroke:#808080;stroke-width:0.0125;stroke-dasharray:0.2381,0.0397,0.0397,0.0397;stroke-dashoffset:0.1526"/>
        <!-- Line -->
        <line x1="149.6446" y1="126.3694" x2="149.6446" y2="128.4194" style="stroke:#004c26;stroke-width:0.0125;"/>
        <!-- Line -->
        <line x1="146.8446" y1="126.3694" x2="149.6446" y2="126.3694" style="stroke:#004c26;stroke-width:0.0125;"/>
        <!-- Line -->
        <line x1="141.5446" y1="126.3694" x2="144.3446" y2="126.3694" style="stroke:#004c26;stroke-width:0.0125;"/>
        <!-- Line -->
        <line x1="148.3124" y1="130.3694" x2="145.9456" y2="130.3694" style="stroke:#808080;stroke-width:0.0125;"/>
        <!-- Line -->
        <line x1="145.9456" y1="129.9694" x2="148.1468" y2="129.9694" style="stroke:#808080;stroke-width:0.0125;"/>
        <!-- Line -->
        <line x1="148.3746" y1="130.5194" x2="143.9765" y2="130.5194" style="stroke:#004c26;stroke-width:0.0125;"/>
        <!-- Line -->
        <line x1="143.9765" y1="130.5194" x2="148.3746" y2="130.5194" style="stroke:#004c26;stroke-width:0.0125;"/>
        <!-- Line -->
        <line x1="146.8446" y1="126.6494" x2="149.3646" y2="126.6494" style="stroke:#004c26;stroke-width:0.0125;"/>
        <!-- Line -->
        <line x1="144.0055" y1="130.4494" x2="142.9146" y2="129.4304" style="stroke:#004c26;stroke-width:0.0125;"/>
        <!-- Line -->
        <line x1="143.9766" y1="130.5194" x2="142.8446" y2="129.4594" style="stroke:#004c26;stroke-width:0.0125;"/>
        <!-- Line -->
        <line x1="142.8446" y1="127.3694" x2="142.8446" y2="128.4194" style="stroke:#004c26;stroke-width:0.0125;"/>
        <!-- Line -->
        <line x1="142.9146" y1="127.3694" x2="142.8446" y2="127.3694" style="stroke:#004c26;stroke-width:0.0125;"/>
        <!-- Line -->
        <line x1="142.9146" y1="128.4194" x2="142.9146" y2="127.3694" style="stroke:#004c26;stroke-width:0.0125;"/>
        <!-- Line -->
        <line x1="142.8446" y1="128.4194" x2="142.8446" y2="129.4594" style="stroke:#004c26;stroke-width:0.0125;"/>
        <!-- Line -->
        <line x1="142.8446" y1="128.4194" x2="142.9146" y2="128.4194" style="stroke:#004c26;stroke-width:0.0125;"/>
        <!-- Line -->
        <line x1="142.9146" y1="128.4194" x2="142.9146" y2="129.4304" style="stroke:#004c26;stroke-width:0.0125;"/>
        <!-- Line -->
        <line x1="141.8246" y1="128.4194" x2="141.8246" y2="126.6494" style="stroke:#004c26;stroke-width:0.0125;"/>
        <!-- Line -->
        <line x1="141.5446" y1="128.4194" x2="141.8246" y2="128.4194" style="stroke:#004c26;stroke-width:0.0125;"/>
        <!-- Line -->
        <line x1="141.5446" y1="126.3694" x2="141.5446" y2="128.4194" style="stroke:#004c26;stroke-width:0.0125;"/>
        <!-- Line -->
        <line x1="145.9456" y1="130.3694" x2="145.9456" y2="129.9694" style="stroke:#808080;stroke-width:0.0125;"/>
        <!-- Line -->
        <line x1="138.6527" y1="127.3694" x2="150.9228" y2="127.3694" style="stroke:#808080;stroke-width:0.0125;stroke-dasharray:0.2381,0.0397,0.0397,0.0397;stroke-dashoffset:0.0562"/>
        <!-- Line -->
        <line x1="148.8846" y1="126.7294" x2="149.2846" y2="126.7294" style="stroke:#808080;stroke-width:0.0125;"/>
        <!-- Line -->
        <line x1="148.8846" y1="129.2316" x2="148.8846" y2="126.7294" style="stroke:#808080;stroke-width:0.0125;"/>
        <!-- Line -->
        <line x1="149.2846" y1="129.3973" x2="149.2846" y2="126.7294" style="stroke:#808080;stroke-width:0.0125;"/>
        <!-- Line -->
        <line x1="148.1468" y1="129.9694" x2="148.8846" y2="129.2316" style="stroke:#808080;stroke-width:0.0125;"/>
        <!-- Line -->
        <line x1="148.3124" y1="130.3694" x2="149.2846" y2="129.3973" style="stroke:#808080;stroke-width:0.0125;"/>
        <!-- Line -->
        <line x1="149.3646" y1="128.4194" x2="149.3646" y2="129.4304" style="stroke:#004c26;stroke-width:0.0125;"/>
        <!-- Line -->
        <line x1="148.3456" y1="130.4494" x2="149.3646" y2="129.4304" style="stroke:#004c26;stroke-width:0.0125;"/>
        <!-- Line -->
        <line x1="149.3646" y1="128.4194" x2="149.3646" y2="126.6494" style="stroke:#004c26;stroke-width:0.0125;"/>
        <!-- Line -->
        <line x1="149.6446" y1="128.4194" x2="149.3646" y2="128.4194" style="stroke:#004c26;stroke-width:0.0125;"/>
        <!-- Line -->
        <line x1="148.3746" y1="130.5194" x2="149.4346" y2="129.4594" style="stroke:#004c26;stroke-width:0.0125;"/>
        <!-- Line -->
        <line x1="149.4346" y1="128.4194" x2="149.4346" y2="129.4594" style="stroke:#004c26;stroke-width:0.0125;"/>
        <!-- Circle -->
        <circle cx="141.0946" cy="124.2947" r="0.25" style="stroke:#808080;stroke-width:0.0125;stroke-dasharray:0.2381,0.0397,0.0397,0.0397;stroke-dashoffset:0.048"/>
        <!-- Text: 1 -->
        <text x="141.1318" dx="0" y="-124.3932" dy="0.2" font-family="arial" font-size="0.28" line-height="1.1" fill="#808080" transform="scale(1,-1) rotate(360 141.1318,-124.3932)" text-anchor="end">1</text>
        <!-- Circle -->
        <circle cx="150.0946" cy="124.2947" r="0.25" style="stroke:#808080;stroke-width:0.0125;stroke-dasharray:0.2381,0.0397,0.0397,0.0397;stroke-dashoffset:0.048"/>
        <!-- Text: 2 -->
        <text x="150.1543" dx="0" y="-124.3932" dy="0.2" font-family="arial" font-size="0.28" line-height="1.1" fill="#808080" transform="scale(1,-1) rotate(360 150.1543,-124.3932)" text-anchor="end">2</text>
        <!-- Circle -->
        <circle cx="141.0946" cy="131.5374" r="0.25" style="stroke:#808080;stroke-width:0.0125;stroke-dasharray:0.2381,0.0397,0.0397,0.0397;stroke-dashoffset:0.048"/>
        <!-- Text: 1 -->
        <text x="141.1318" dx="0" y="-131.6359" dy="0.2" font-family="arial" font-size="0.28" line-height="1.1" fill="#808080" transform="scale(1,-1) rotate(360 141.1318,-131.6359)" text-anchor="end">1</text>
        <!-- Text: 2 -->
        <text x="150.1543" dx="0" y="-131.6359" dy="0.2" font-family="arial" font-size="0.28" line-height="1.1" fill="#808080" transform="scale(1,-1) rotate(360 150.1543,-131.6359)" text-anchor="end">2</text>
        <!-- Circle -->
        <circle cx="150.0946" cy="131.5374" r="0.25" style="stroke:#808080;stroke-width:0.0125;stroke-dasharray:0.2381,0.0397,0.0397,0.0397;stroke-dashoffset:0.048"/>
        <!-- Circle -->
        <circle cx="138.4027" cy="127.3694" r="0.25" style="stroke:#808080;stroke-width:0.0125;stroke-dasharray:0.2381,0.0397,0.0397,0.0397;stroke-dashoffset:0.048"/>
        <!-- Text: F -->
        <text x="138.4921" dx="0" y="-127.4744" dy="0.2" font-family="arial" font-size="0.28" line-height="1.1" fill="#808080" transform="scale(1,-1) rotate(360 138.4921,-127.4744)" text-anchor="end">F</text>
        <!-- Text: F -->
        <text x="151.2623" dx="0" y="-127.4744" dy="0.2" font-family="arial" font-size="0.28" line-height="1.1" fill="#808080" transform="scale(1,-1) rotate(360 151.2623,-127.4744)" text-anchor="end">F</text>
        <!-- Circle -->
        <circle cx="151.1728" cy="127.3694" r="0.25" style="stroke:#808080;stroke-width:0.0125;stroke-dasharray:0.2381,0.0397,0.0397,0.0397;stroke-dashoffset:0.048"/>
        <!-- Line -->
        <line x1="144.0055" y1="130.4494" x2="148.3456" y2="130.4494" style="stroke:#004c26;stroke-width:0.0125;"/>
        <!-- Line -->
        <line x1="141.426" y1="126.6674" x2="141.426" y2="126.3674" style="stroke:#808080;stroke-width:0.0125;"/>
        <!-- Line -->
        <line x1="141.401" y1="126.5049" x2="141.401" y2="126.3674" style="stroke:#808080;stroke-width:0.0125;"/>
        <!-- Line -->
        <line x1="140.801" y1="126.5049" x2="140.801" y2="126.3674" style="stroke:#808080;stroke-width:0.0125;"/>
        <!-- Line -->
        <line x1="140.776" y1="126.6674" x2="140.776" y2="126.3674" style="stroke:#808080;stroke-width:0.0125;"/>
        <!-- Hatch -->
        <path d="M141.4196,128.252 L141.3946,128.252 L141.3946,128.1145 L140.7946,128.1145 L140.7946,128.252 L140.7696,128.252 L140.7696,127.952 L140.7946,127.952 L140.7946,128.0895 L141.3946,128.0895 L141.3946,127.952 L141.4196,127.952 ZM141.426,126.6674 L141.401,126.6674 L141.401,126.5299 L140.801,126.5299 L140.801,126.6674 L140.776,126.6674 L140.776,126.3674 L140.801,126.3674 L140.801,126.5049 L141.401,126.5049 L141.401,126.3674 L141.426,126.3674 Z" style="fill:#808080;fill-rule:evenodd;"/>
        <!-- Line -->
        <line x1="140.776" y1="126.3674" x2="140.801" y2="126.3674" style="stroke:#808080;stroke-width:0.0125;"/>
        <!-- Line -->
        <line x1="141.426" y1="126.3674" x2="141.401" y2="126.3674" style="stroke:#808080;stroke-width:0.0125;"/>
        <!-- Line -->
        <line x1="140.801" y1="126.5049" x2="141.401" y2="126.5049" style="stroke:#808080;stroke-width:0.0125;"/>
        <!-- Line -->
        <line x1="140.801" y1="126.5299" x2="141.401" y2="126.5299" style="stroke:#808080;stroke-width:0.0125;"/>
        <!-- Line -->
        <line x1="140.776" y1="126.6674" x2="140.801" y2="126.6674" style="stroke:#808080;stroke-width:0.0125;"/>
        <!-- Line -->
        <line x1="140.801" y1="126.6674" x2="140.801" y2="126.5299" style="stroke:#808080;stroke-width:0.0125;"/>
        <!-- Line -->
        <line x1="141.401" y1="126.6674" x2="141.401" y2="126.5299" style="stroke:#808080;stroke-width:0.0125;"/>
        <!-- Line -->
        <line x1="141.401" y1="126.6674" x2="141.426" y2="126.6674" style="stroke:#808080;stroke-width:0.0125;"/>
        <!-- Line -->
        <line x1="140.7946" y1="128.0895" x2="141.3946" y2="128.0895" style="stroke:#808080;stroke-width:0.0125;"/>
        <!-- Line -->
        <line x1="140.7946" y1="128.1145" x2="141.3946" y2="128.1145" style="stroke:#808080;stroke-width:0.0125;"/>
        <!-- Line -->
        <line x1="140.7696" y1="128.252" x2="140.7696" y2="127.952" style="stroke:#808080;stroke-width:0.0125;"/>
        <!-- Line -->
        <line x1="140.7946" y1="128.252" x2="140.7946" y2="128.1145" style="stroke:#808080;stroke-width:0.0125;"/>
        <!-- Line -->
        <line x1="140.7946" y1="128.0895" x2="140.7946" y2="127.952" style="stroke:#808080;stroke-width:0.0125;"/>
        <!-- Line -->
        <line x1="140.7696" y1="127.952" x2="140.7946" y2="127.952" style="stroke:#808080;stroke-width:0.0125;"/>
        <!-- Line -->
        <line x1="140.7696" y1="128.252" x2="140.7946" y2="128.252" style="stroke:#808080;stroke-width:0.0125;"/>
        <!-- Line -->
        <line x1="141.4196" y1="128.252" x2="141.4196" y2="127.952" style="stroke:#808080;stroke-width:0.0125;"/>
        <!-- Line -->
        <line x1="141.3946" y1="128.252" x2="141.3946" y2="128.1145" style="stroke:#808080;stroke-width:0.0125;"/>
        <!-- Line -->
        <line x1="141.4196" y1="127.952" x2="141.3946" y2="127.952" style="stroke:#808080;stroke-width:0.0125;"/>
        <!-- Line -->
        <line x1="141.3946" y1="128.0895" x2="141.3946" y2="127.952" style="stroke:#808080;stroke-width:0.0125;"/>
        <!-- Line -->
        <line x1="141.3946" y1="128.252" x2="141.4196" y2="128.252" style="stroke:#808080;stroke-width:0.0125;"/>
        <!-- Hatch -->
        <path d="M150.4196,128.292 L150.3946,128.292 L150.3946,128.1545 L149.7946,128.1545 L149.7946,128.292 L149.7696,128.292 L149.7696,127.992 L149.7946,127.992 L149.7946,128.1295 L150.3946,128.1295 L150.3946,127.992 L150.4196,127.992 ZM150.426,126.7074 L150.401,126.7074 L150.401,126.5699 L149.801,126.5699 L149.801,126.7074 L149.776,126.7074 L149.776,126.4074 L149.801,126.4074 L149.801,126.5449 L150.401,126.5449 L150.401,126.4074 L150.426,126.4074 Z" style="fill:#808080;fill-rule:evenodd;"/>
        <!-- Line -->
        <line x1="149.801" y1="126.5699" x2="150.401" y2="126.5699" style="stroke:#808080;stroke-width:0.0125;"/>
        <!-- Line -->
        <line x1="149.801" y1="126.5449" x2="150.401" y2="126.5449" style="stroke:#808080;stroke-width:0.0125;"/>
        <!-- Line -->
        <line x1="149.7946" y1="128.1545" x2="150.3946" y2="128.1545" style="stroke:#808080;stroke-width:0.0125;"/>
        <!-- Line -->
        <line x1="149.7946" y1="128.1295" x2="150.3946" y2="128.1295" style="stroke:#808080;stroke-width:0.0125;"/>
        <!-- Line -->
        <line x1="149.776" y1="126.7074" x2="149.776" y2="126.4074" style="stroke:#808080;stroke-width:0.0125;"/>
        <!-- Line -->
        <line x1="149.801" y1="126.5449" x2="149.801" y2="126.4074" style="stroke:#808080;stroke-width:0.0125;"/>
        <!-- Line -->
        <line x1="149.776" y1="126.4074" x2="149.801" y2="126.4074" style="stroke:#808080;stroke-width:0.0125;"/>
        <!-- Line -->
        <line x1="149.7696" y1="128.292" x2="149.7696" y2="127.992" style="stroke:#808080;stroke-width:0.0125;"/>
        <!-- Line -->
        <line x1="149.7946" y1="128.292" x2="149.7946" y2="128.1545" style="stroke:#808080;stroke-width:0.0125;"/>
        <!-- Line -->
        <line x1="149.801" y1="126.7074" x2="149.801" y2="126.5699" style="stroke:#808080;stroke-width:0.0125;"/>
        <!-- Line -->
        <line x1="149.776" y1="126.7074" x2="149.801" y2="126.7074" style="stroke:#808080;stroke-width:0.0125;"/>
        <!-- Line -->
        <line x1="149.7946" y1="128.1295" x2="149.7946" y2="127.992" style="stroke:#808080;stroke-width:0.0125;"/>
        <!-- Line -->
        <line x1="149.7696" y1="127.992" x2="149.7946" y2="127.992" style="stroke:#808080;stroke-width:0.0125;"/>
        <!-- Line -->
        <line x1="149.7696" y1="128.292" x2="149.7946" y2="128.292" style="stroke:#808080;stroke-width:0.0125;"/>
        <!-- Line -->
        <line x1="150.401" y1="126.5449" x2="150.401" y2="126.4074" style="stroke:#808080;stroke-width:0.0125;"/>
        <!-- Line -->
        <line x1="150.426" y1="126.7074" x2="150.426" y2="126.4074" style="stroke:#808080;stroke-width:0.0125;"/>
        <!-- Line -->
        <line x1="150.426" y1="126.4074" x2="150.401" y2="126.4074" style="stroke:#808080;stroke-width:0.0125;"/>
        <!-- Line -->
        <line x1="150.4196" y1="128.292" x2="150.4196" y2="127.992" style="stroke:#808080;stroke-width:0.0125;"/>
        <!-- Line -->
        <line x1="150.3946" y1="128.292" x2="150.3946" y2="128.1545" style="stroke:#808080;stroke-width:0.0125;"/>
        <!-- Line -->
        <line x1="150.401" y1="126.7074" x2="150.426" y2="126.7074" style="stroke:#808080;stroke-width:0.0125;"/>
        <!-- Line -->
        <line x1="150.401" y1="126.7074" x2="150.401" y2="126.5699" style="stroke:#808080;stroke-width:0.0125;"/>
        <!-- Line -->
        <line x1="150.3946" y1="128.1295" x2="150.3946" y2="127.992" style="stroke:#808080;stroke-width:0.0125;"/>
        <!-- Line -->
        <line x1="150.4196" y1="127.992" x2="150.3946" y2="127.992" style="stroke:#808080;stroke-width:0.0125;"/>
        <!-- Line -->
        <line x1="150.3946" y1="128.292" x2="150.4196" y2="128.292" style="stroke:#808080;stroke-width:0.0125;"/>
        <!-- Line -->
        <line x1="141.8246" y1="126.6494" x2="144.3446" y2="126.6494" style="stroke:#004c26;stroke-width:0.0125;"/>
        <!-- Line -->
        <line x1="144.3446" y1="126.6494" x2="144.3446" y2="126.3694" style="stroke:#004c26;stroke-width:0.0125;"/>
        <!-- Line -->
        <line x1="146.8446" y1="126.6494" x2="146.8446" y2="126.3694" style="stroke:#004c26;stroke-width:0.0125;"/>
        <!-- Line -->
        <line x1="142.7596" y1="128.4194" x2="142.7596" y2="129.3194" style="stroke:#808080;stroke-width:0.0125;"/>
        <!-- Line -->
        <line x1="142.8096" y1="128.4194" x2="142.8096" y2="129.3194" style="stroke:#808080;stroke-width:0.0125;"/>
        <!-- Line -->
        <line x1="144.3446" y1="126.6494" x2="146.8446" y2="126.6494" style="stroke:#808080;stroke-width:0.0125;"/>
        <!-- Line -->
        <line x1="144.3846" y1="126.4353" x2="145.5746" y2="126.4353" style="stroke:#808080;stroke-width:0.0125;"/>
        <!-- Line -->
        <line x1="144.3846" y1="126.4753" x2="145.5746" y2="126.4753" style="stroke:#808080;stroke-width:0.0125;"/>
        <!-- Line -->
        <line x1="144.3446" y1="126.5853" x2="146.8446" y2="126.5853" style="stroke:#808080;stroke-width:0.0125;"/>
        <!-- Line -->
        <line x1="144.3446" y1="126.3694" x2="146.8446" y2="126.3694" style="stroke:#808080;stroke-width:0.0125;"/>
        <!-- Line -->
        <line x1="144.3846" y1="126.3694" x2="144.3846" y2="126.5853" style="stroke:#808080;stroke-width:0.0125;"/>
        <!-- Line -->
        <line x1="145.6146" y1="126.4353" x2="146.8046" y2="126.4353" style="stroke:#808080;stroke-width:0.0125;"/>
        <!-- Line -->
        <line x1="145.6146" y1="126.4753" x2="146.8046" y2="126.4753" style="stroke:#808080;stroke-width:0.0125;"/>
        <!-- Line -->
        <line x1="145.6146" y1="126.3694" x2="145.6146" y2="126.5853" style="stroke:#808080;stroke-width:0.0125;"/>
        <!-- Line -->
        <line x1="145.5746" y1="126.3694" x2="145.5746" y2="126.5853" style="stroke:#808080;stroke-width:0.0125;"/>
        <!-- Line -->
        <line x1="146.8046" y1="126.3694" x2="146.8046" y2="126.5853" style="stroke:#808080;stroke-width:0.0125;"/>
        <!-- Line -->
        <line x1="146.1746" y1="130.4494" x2="146.1746" y2="130.5194" style="stroke:#004c26;stroke-width:0.0125;"/>
        <!-- Line -->
        <line x1="146.2446" y1="130.4494" x2="146.2446" y2="130.5194" style="stroke:#004c26;stroke-width:0.0125;"/>
        <!-- Line -->
        <line x1="143.9788" y1="130.4226" x2="143.9498" y2="130.4926" style="stroke:#004c26;stroke-width:0.0125;"/>
        <!-- Line -->
        <line x1="144.0434" y1="130.4494" x2="144.0144" y2="130.5194" style="stroke:#004c26;stroke-width:0.0125;"/>
        <!-- Line -->
        <line x1="142.9414" y1="129.4572" x2="142.8714" y2="129.4862" style="stroke:#004c26;stroke-width:0.0125;"/>
        <!-- Line -->
        <line x1="142.9146" y1="129.3925" x2="142.8446" y2="129.4215" style="stroke:#004c26;stroke-width:0.0125;"/>
        <!-- Line -->
        <line x1="149.3378" y1="129.4572" x2="149.4078" y2="129.4862" style="stroke:#004c26;stroke-width:0.0125;"/>
        <!-- Line -->
        <line x1="149.3646" y1="129.3925" x2="149.4346" y2="129.4215" style="stroke:#004c26;stroke-width:0.0125;"/>
        <!-- Line -->
        <line x1="148.3077" y1="130.4494" x2="148.3367" y2="130.5194" style="stroke:#004c26;stroke-width:0.0125;"/>
        <!-- Line -->
        <line x1="148.3724" y1="130.4226" x2="148.4014" y2="130.4926" style="stroke:#004c26;stroke-width:0.0125;"/>
        <!-- Line -->
        <line x1="149.4346" y1="128.4894" x2="149.3646" y2="128.4894" style="stroke:#004c26;stroke-width:0.0125;"/>
        <!-- Line -->
        <line x1="141.7546" y1="128.3494" x2="141.8246" y2="128.3494" style="stroke:#004c26;stroke-width:0.0125;"/>
        <!-- Line -->
        <line x1="141.7546" y1="128.4194" x2="141.7546" y2="128.3494" style="stroke:#004c26;stroke-width:0.0125;"/>
        <!-- Line -->
        <line x1="142.8446" y1="128.3494" x2="142.9146" y2="128.3494" style="stroke:#004c26;stroke-width:0.0125;"/>
        <!-- Line -->
        <line x1="142.8096" y1="128.3494" x2="142.8096" y2="128.4194" style="stroke:#808080;stroke-width:0.0125;"/>
        <!-- Line -->
        <line x1="142.8446" y1="128.4194" x2="142.8096" y2="128.4194" style="stroke:#808080;stroke-width:0.0125;"/>
        <!-- Line -->
        <line x1="142.8446" y1="128.3494" x2="142.8096" y2="128.3494" style="stroke:#808080;stroke-width:0.0125;"/>
        <!-- Line -->
        <line x1="142.7596" y1="128.4194" x2="142.8096" y2="128.4194" style="stroke:#808080;stroke-width:0.0125;"/>
        <!-- Line -->
        <line x1="141.8246" y1="128.4194" x2="142.7596" y2="129.3194" style="stroke:#808080;stroke-width:0.0125;"/>
        <!-- Line -->
        <line x1="142.7596" y1="129.3194" x2="142.8096" y2="129.3194" style="stroke:#808080;stroke-width:0.0125;"/>
        <!-- Line -->
        <line x1="142.8446" y1="126.7344" x2="142.1946" y2="126.7344" style="stroke:#808080;stroke-width:0.0125;"/>
        <!-- Line -->
        <line x1="142.8446" y1="126.6844" x2="142.1946" y2="126.6844" style="stroke:#808080;stroke-width:0.0125;"/>
        <!-- Line -->
        <line x1="142.9146" y1="126.6494" x2="142.9146" y2="126.6844" style="stroke:#808080;stroke-width:0.0125;"/>
        <!-- Line -->
        <line x1="142.8446" y1="126.6494" x2="142.8446" y2="126.6844" style="stroke:#808080;stroke-width:0.0125;"/>
        <!-- Line -->
        <line x1="142.8446" y1="126.7344" x2="142.8446" y2="126.6844" style="stroke:#808080;stroke-width:0.0125;"/>
        <!-- Line -->
        <line x1="142.9146" y1="126.6844" x2="142.8446" y2="126.6844" style="stroke:#808080;stroke-width:0.0125;"/>
        <!-- Line -->
        <line x1="142.1946" y1="126.7344" x2="142.1946" y2="126.6844" style="stroke:#808080;stroke-width:0.0125;"/>
        <!-- Line -->
        <line x1="142.9146" y1="127.4394" x2="142.8446" y2="127.4394" style="stroke:#004c26;stroke-width:0.0125;"/>
        <!-- Line -->
        <line x1="142.1946" y1="126.7344" x2="142.8446" y2="127.3694" style="stroke:#808080;stroke-width:0.0125;"/>
        <!-- Line -->
        <line x1="142.9146" y1="129.4304" x2="149.3646" y2="129.4304" style="stroke:#808080;stroke-width:0.0125;"/>
        <!-- Hatch -->
        <g>
            <path d="M149.187,129.4304 L149.2192,129.4627" style="stroke:#808080;stroke-width:0.0125;"/>
            <path d="M149.2192,129.4627 L149.2758,129.5192" style="stroke:#808080;stroke-width:0.0125;"/>
            <path d="M148.9625,129.4304 L149.107,129.5749" style="stroke:#808080;stroke-width:0.0125;"/>
            <path d="M149.107,129.5749 L149.1635,129.6315" style="stroke:#808080;stroke-width:0.0125;"/>
            <path d="M148.738,129.4304 L148.9947,129.6872" style="stroke:#808080;stroke-width:0.0125;"/>
            <path d="M148.9947,129.6872 L149.0513,129.7437" style="stroke:#808080;stroke-width:0.0125;"/>
            <path d="M148.5134,129.4304 L148.5996,129.5166" style="stroke:#808080;stroke-width:0.0125;"/>
            <path d="M148.5996,129.5166 L148.8825,129.7994" style="stroke:#808080;stroke-width:0.0125;"/>
            <path d="M148.8825,129.7994 L148.939,129.856" style="stroke:#808080;stroke-width:0.0125;"/>
            <path d="M148.2889,129.4304 L148.4874,129.6288" style="stroke:#808080;stroke-width:0.0125;"/>
            <path d="M148.4874,129.6288 L148.7702,129.9117" style="stroke:#808080;stroke-width:0.0125;"/>
            <path d="M148.7702,129.9117 L148.8268,129.9682" style="stroke:#808080;stroke-width:0.0125;"/>
            <path d="M148.0644,129.4304 L148.3751,129.7411" style="stroke:#808080;stroke-width:0.0125;"/>
            <path d="M148.3751,129.7411 L148.658,130.0239" style="stroke:#808080;stroke-width:0.0125;"/>
            <path d="M148.658,130.0239 L148.7145,130.0805" style="stroke:#808080;stroke-width:0.0125;"/>
            <path d="M147.8399,129.4304 L148.2629,129.8533" style="stroke:#808080;stroke-width:0.0125;"/>
            <path d="M148.2629,129.8533 L148.5457,130.1362" style="stroke:#808080;stroke-width:0.0125;"/>
            <path d="M148.5457,130.1362 L148.6023,130.1927" style="stroke:#808080;stroke-width:0.0125;"/>
            <path d="M147.6154,129.4304 L148.1506,129.9656" style="stroke:#808080;stroke-width:0.0125;"/>
            <path d="M148.1506,129.9656 L148.4334,130.2484" style="stroke:#808080;stroke-width:0.0125;"/>
            <path d="M148.4334,130.2484 L148.49,130.305" style="stroke:#808080;stroke-width:0.0125;"/>
            <path d="M147.3909,129.4304 L147.9299,129.9694" style="stroke:#808080;stroke-width:0.0125;"/>
            <path d="M147.9299,129.9694 L148.3212,130.3607" style="stroke:#808080;stroke-width:0.0125;"/>
            <path d="M148.3212,130.3607 L148.3778,130.4172" style="stroke:#808080;stroke-width:0.0125;"/>
            <path d="M147.1664,129.4304 L147.7054,129.9694" style="stroke:#808080;stroke-width:0.0125;"/>
            <path d="M147.7054,129.9694 L148.1054,130.3694" style="stroke:#808080;stroke-width:0.0125;"/>
            <path d="M148.1054,130.3694 L148.1854,130.4494" style="stroke:#808080;stroke-width:0.0125;"/>
            <path d="M146.9419,129.4304 L147.4809,129.9694" style="stroke:#808080;stroke-width:0.0125;"/>
            <path d="M147.4809,129.9694 L147.8809,130.3694" style="stroke:#808080;stroke-width:0.0125;"/>
            <path d="M147.8809,130.3694 L147.9609,130.4494" style="stroke:#808080;stroke-width:0.0125;"/>
            <path d="M146.7174,129.4304 L147.2564,129.9694" style="stroke:#808080;stroke-width:0.0125;"/>
            <path d="M147.2564,129.9694 L147.6564,130.3694" style="stroke:#808080;stroke-width:0.0125;"/>
            <path d="M147.6564,130.3694 L147.7364,130.4494" style="stroke:#808080;stroke-width:0.0125;"/>
            <path d="M146.4929,129.4304 L147.0319,129.9694" style="stroke:#808080;stroke-width:0.0125;"/>
            <path d="M147.0319,129.9694 L147.4319,130.3694" style="stroke:#808080;stroke-width:0.0125;"/>
            <path d="M147.4319,130.3694 L147.5119,130.4494" style="stroke:#808080;stroke-width:0.0125;"/>
            <path d="M146.2684,129.4304 L146.8074,129.9694" style="stroke:#808080;stroke-width:0.0125;"/>
            <path d="M146.8074,129.9694 L147.2074,130.3694" style="stroke:#808080;stroke-width:0.0125;"/>
            <path d="M147.2074,130.3694 L147.2874,130.4494" style="stroke:#808080;stroke-width:0.0125;"/>
            <path d="M146.0439,129.4304 L146.5829,129.9694" style="stroke:#808080;stroke-width:0.0125;"/>
            <path d="M146.5829,129.9694 L146.9829,130.3694" style="stroke:#808080;stroke-width:0.0125;"/>
            <path d="M146.9829,130.3694 L147.0629,130.4494" style="stroke:#808080;stroke-width:0.0125;"/>
            <path d="M145.8194,129.4304 L146.3584,129.9694" style="stroke:#808080;stroke-width:0.0125;"/>
            <path d="M146.3584,129.9694 L146.7584,130.3694" style="stroke:#808080;stroke-width:0.0125;"/>
            <path d="M146.7584,130.3694 L146.8384,130.4494" style="stroke:#808080;stroke-width:0.0125;"/>
            <path d="M145.5949,129.4304 L146.1339,129.9694" style="stroke:#808080;stroke-width:0.0125;"/>
            <path d="M146.1339,129.9694 L146.5339,130.3694" style="stroke:#808080;stroke-width:0.0125;"/>
            <path d="M146.5339,130.3694 L146.6139,130.4494" style="stroke:#808080;stroke-width:0.0125;"/>
            <path d="M145.3704,129.4304 L145.9456,130.0056" style="stroke:#808080;stroke-width:0.0125;"/>
            <path d="M145.9456,130.0056 L146.3094,130.3694" style="stroke:#808080;stroke-width:0.0125;"/>
            <path d="M146.3094,130.3694 L146.3894,130.4494" style="stroke:#808080;stroke-width:0.0125;"/>
            <path d="M145.1459,129.4304 L145.9456,130.2301" style="stroke:#808080;stroke-width:0.0125;"/>
            <path d="M145.9456,130.2301 L146.0849,130.3694" style="stroke:#808080;stroke-width:0.0125;"/>
            <path d="M146.0849,130.3694 L146.1648,130.4494" style="stroke:#808080;stroke-width:0.0125;"/>
            <path d="M144.9213,129.4304 L145.9403,130.4494" style="stroke:#808080;stroke-width:0.0125;"/>
            <path d="M144.6968,129.4304 L145.7158,130.4494" style="stroke:#808080;stroke-width:0.0125;"/>
            <path d="M144.4723,129.4304 L145.4913,130.4494" style="stroke:#808080;stroke-width:0.0125;"/>
            <path d="M144.2478,129.4304 L145.2668,130.4494" style="stroke:#808080;stroke-width:0.0125;"/>
            <path d="M144.0233,129.4304 L145.0423,130.4494" style="stroke:#808080;stroke-width:0.0125;"/>
            <path d="M143.7988,129.4304 L144.8178,130.4494" style="stroke:#808080;stroke-width:0.0125;"/>
            <path d="M143.5743,129.4304 L144.5933,130.4494" style="stroke:#808080;stroke-width:0.0125;"/>
            <path d="M143.3498,129.4304 L144.3688,130.4494" style="stroke:#808080;stroke-width:0.0125;"/>
            <path d="M143.1253,129.4304 L144.1443,130.4494" style="stroke:#808080;stroke-width:0.0125;"/>
            <path d="M149.182,129.4304 L148.243,130.3694" style="stroke:#808080;stroke-width:0.0125;"/>
            <path d="M148.243,130.3694 L148.163,130.4494" style="stroke:#808080;stroke-width:0.0125;"/>
            <path d="M148.9575,129.4304 L148.0185,130.3694" style="stroke:#808080;stroke-width:0.0125;"/>
            <path d="M148.0185,130.3694 L147.9385,130.4494" style="stroke:#808080;stroke-width:0.0125;"/>
            <path d="M148.733,129.4304 L147.794,130.3694" style="stroke:#808080;stroke-width:0.0125;"/>
            <path d="M147.794,130.3694 L147.714,130.4494" style="stroke:#808080;stroke-width:0.0125;"/>
            <path d="M148.5085,129.4304 L147.9695,129.9694" style="stroke:#808080;stroke-width:0.0125;"/>
            <path d="M147.9695,129.9694 L147.5695,130.3694" style="stroke:#808080;stroke-width:0.0125;"/>
            <path d="M147.5695,130.3694 L147.4895,130.4494" style="stroke:#808080;stroke-width:0.0125;"/>
            <path d="M148.284,129.4304 L147.745,129.9694" style="stroke:#808080;stroke-width:0.0125;"/>
            <path d="M147.745,129.9694 L147.345,130.3694" style="stroke:#808080;stroke-width:0.0125;"/>
            <path d="M147.345,130.3694 L147.265,130.4494" style="stroke:#808080;stroke-width:0.0125;"/>
            <path d="M148.0595,129.4304 L147.5205,129.9694" style="stroke:#808080;stroke-width:0.0125;"/>
            <path d="M147.5205,129.9694 L147.1205,130.3694" style="stroke:#808080;stroke-width:0.0125;"/>
            <path d="M147.1205,130.3694 L147.0405,130.4494" style="stroke:#808080;stroke-width:0.0125;"/>
            <path d="M147.835,129.4304 L147.296,129.9694" style="stroke:#808080;stroke-width:0.0125;"/>
            <path d="M147.296,129.9694 L146.896,130.3694" style="stroke:#808080;stroke-width:0.0125;"/>
            <path d="M146.896,130.3694 L146.816,130.4494" style="stroke:#808080;stroke-width:0.0125;"/>
            <path d="M147.6105,129.4304 L147.0715,129.9694" style="stroke:#808080;stroke-width:0.0125;"/>
            <path d="M147.0715,129.9694 L146.6715,130.3694" style="stroke:#808080;stroke-width:0.0125;"/>
            <path d="M146.6715,130.3694 L146.5915,130.4494" style="stroke:#808080;stroke-width:0.0125;"/>
            <path d="M147.386,129.4304 L146.847,129.9694" style="stroke:#808080;stroke-width:0.0125;"/>
            <path d="M146.847,129.9694 L146.447,130.3694" style="stroke:#808080;stroke-width:0.0125;"/>
            <path d="M146.447,130.3694 L146.367,130.4494" style="stroke:#808080;stroke-width:0.0125;"/>
            <path d="M147.1615,129.4304 L146.6225,129.9694" style="stroke:#808080;stroke-width:0.0125;"/>
            <path d="M146.6225,129.9694 L146.2225,130.3694" style="stroke:#808080;stroke-width:0.0125;"/>
            <path d="M146.2225,130.3694 L146.1425,130.4494" style="stroke:#808080;stroke-width:0.0125;"/>
            <path d="M146.937,129.4304 L146.398,129.9694" style="stroke:#808080;stroke-width:0.0125;"/>
            <path d="M146.398,129.9694 L145.998,130.3694" style="stroke:#808080;stroke-width:0.0125;"/>
            <path d="M145.998,130.3694 L145.918,130.4494" style="stroke:#808080;stroke-width:0.0125;"/>
            <path d="M146.7125,129.4304 L146.1734,129.9694" style="stroke:#808080;stroke-width:0.0125;"/>
            <path d="M146.1734,129.9694 L145.9456,130.1973" style="stroke:#808080;stroke-width:0.0125;"/>
            <path d="M145.9456,130.1973 L145.6935,130.4494" style="stroke:#808080;stroke-width:0.0125;"/>
            <path d="M146.488,129.4304 L145.9489,129.9694" style="stroke:#808080;stroke-width:0.0125;"/>
            <path d="M145.9489,129.9694 L145.9456,129.9728" style="stroke:#808080;stroke-width:0.0125;"/>
            <path d="M145.9456,129.9728 L145.469,130.4494" style="stroke:#808080;stroke-width:0.0125;"/>
            <path d="M146.2635,129.4304 L145.2445,130.4494" style="stroke:#808080;stroke-width:0.0125;"/>
            <path d="M146.039,129.4304 L145.02,130.4494" style="stroke:#808080;stroke-width:0.0125;"/>
            <path d="M145.8144,129.4304 L144.7955,130.4494" style="stroke:#808080;stroke-width:0.0125;"/>
            <path d="M145.5899,129.4304 L144.5709,130.4494" style="stroke:#808080;stroke-width:0.0125;"/>
            <path d="M145.3654,129.4304 L144.3464,130.4494" style="stroke:#808080;stroke-width:0.0125;"/>
            <path d="M145.1409,129.4304 L144.1219,130.4494" style="stroke:#808080;stroke-width:0.0125;"/>
            <path d="M144.9164,129.4304 L143.9496,130.3972" style="stroke:#808080;stroke-width:0.0125;"/>
            <path d="M144.6919,129.4304 L143.8336,130.2888" style="stroke:#808080;stroke-width:0.0125;"/>
            <path d="M144.4674,129.4304 L143.7175,130.1803" style="stroke:#808080;stroke-width:0.0125;"/>
            <path d="M144.2429,129.4304 L143.6014,130.0719" style="stroke:#808080;stroke-width:0.0125;"/>
            <path d="M144.0184,129.4304 L143.4853,129.9635" style="stroke:#808080;stroke-width:0.0125;"/>
            <path d="M143.7939,129.4304 L143.3692,129.8551" style="stroke:#808080;stroke-width:0.0125;"/>
            <path d="M143.5694,129.4304 L143.2532,129.7466" style="stroke:#808080;stroke-width:0.0125;"/>
            <path d="M143.3449,129.4304 L143.1371,129.6382" style="stroke:#808080;stroke-width:0.0125;"/>
            <path d="M143.1204,129.4304 L143.021,129.5298" style="stroke:#808080;stroke-width:0.0125;"/>
        </g>
        <!-- Hatch -->
        <path d="M141.8246,128.3494 L141.7546,128.3494 L141.7546,128.4194 L141.5446,128.4194 L141.5446,127.3694 L141.8246,127.3694 ZM141.8246,127.3694 L141.5446,127.3694 L141.5446,126.3694 L144.3446,126.3694 L144.3446,126.6494 L141.8246,126.6494 ZM149.6446,127.3694 L149.3646,127.3694 L149.3646,126.6494 L146.8446,126.6494 L146.8446,126.3694 L149.6446,126.3694 ZM149.6446,128.4194 L149.3646,128.4194 L149.3646,127.3694 L149.6446,127.3694 Z" style="fill:#000000;fill-rule:evenodd;"/>
        <!-- Hatch -->
        <path d="M142.9146,129.3925 L142.8446,129.4215 L142.8446,128.4194 L142.9146,128.4194 ZM142.9146,128.3494 L142.8446,128.3494 L142.8446,127.4394 L142.9146,127.4394 ZM149.4346,129.4215 L149.3646,129.3925 L149.3646,128.4894 L149.4346,128.4894 ZM143.9782,130.4239 L143.9493,130.4938 L142.8726,129.4857 L142.9427,129.4566 ZM146.1746,130.5194 L144.0144,130.5194 L144.0434,130.4494 L146.1746,130.4494 ZM148.3367,130.5194 L146.2446,130.5194 L146.2446,130.4494 L148.3077,130.4494 ZM148.4014,130.4926 L148.3724,130.4226 L149.3378,129.4572 L149.4078,129.4862 Z" style="fill:#00ff00;fill-rule:evenodd;"/>
        <!-- Hatch -->
        <path d="M144.0144,130.5194 L143.9766,130.5194 L143.9493,130.4938 L143.9782,130.4239 L144.0055,130.4494 L144.0434,130.4494 ZM146.2446,130.5194 L146.1746,130.5194 L146.1746,130.4494 L146.2446,130.4494 ZM148.4014,130.4926 L148.3746,130.5194 L148.3367,130.5194 L148.3077,130.4494 L148.3456,130.4494 L148.3724,130.4226 ZM149.4346,129.4594 L149.4078,129.4862 L149.3378,129.4572 L149.3646,129.4304 L149.3646,129.3925 L149.4346,129.4215 ZM142.9427,129.4566 L142.8726,129.4857 L142.8446,129.4594 L142.8446,129.4215 L142.9146,129.3925 L142.9146,129.4304 ZM142.9146,128.4194 L142.8446,128.4194 L142.8446,128.3494 L142.9146,128.3494 Z" style="fill:#636466;fill-rule:evenodd;"/>
        <!-- Hatch -->
        <path d="M149.2846,129.3973 L149.2515,129.4304 L148.6858,129.4304 L148.8846,129.2316 L148.8846,126.7294 L149.2846,126.7294 ZM148.3124,130.3694 L145.9456,130.3694 L145.9456,129.9694 L148.1468,129.9694 L148.6858,129.4304 L149.2515,129.4304 Z" style="fill:#997200;fill-rule:evenodd;"/>
        <!-- Hatch -->
        <path d="M146.8446,126.6494 L145.0287,126.6494 L145.0287,126.6494 L144.4459,126.6494 L144.3446,126.6494 L144.3446,126.5853 L146.8446,126.5853 ZM144.3846,126.5853 L144.3446,126.5853 L144.3446,126.3694 L144.3846,126.3694 ZM145.5746,126.4753 L144.3846,126.4753 L144.3846,126.4353 L145.5746,126.4353 ZM145.6146,126.5853 L145.5746,126.5853 L145.5746,126.3694 L145.6146,126.3694 ZM146.8046,126.4753 L145.6146,126.4753 L145.6146,126.4353 L146.8046,126.4353 Z" style="fill:#c7c8ca;fill-rule:evenodd;"/>
        <!-- Hatch -->
        <path d="M145.5746,126.5853 L144.3846,126.5853 L144.3846,126.4753 L145.5746,126.4753 ZM145.5746,126.4353 L144.3846,126.4353 L144.3846,126.3694 L145.5746,126.3694 ZM146.8046,126.4353 L145.6146,126.4353 L145.6146,126.3694 L146.8046,126.3694 ZM146.8046,126.5853 L145.6146,126.5853 L145.6146,126.4753 L146.8046,126.4753 Z" style="fill:#00ff00;fill-rule:evenodd;"/>
        <!-- Hatch -->
        <path d="M142.9146,127.4394 L142.8446,127.4394 L142.8446,127.3694 L142.9146,127.3694 ZM142.9146,126.6844 L142.8446,126.6844 L142.8446,126.6494 L142.9146,126.6494 ZM142.8446,126.7344 L142.1946,126.7344 L142.1946,126.6844 L142.8446,126.6844 Z" style="fill:#636466;fill-rule:evenodd;"/>
        <!-- Hatch -->
        <path d="M142.8096,129.3194 L142.7596,129.3194 L142.7596,128.4194 L142.8096,128.4194 ZM142.8446,128.4194 L142.8096,128.4194 L142.8096,128.3494 L142.8446,128.3494 ZM141.8246,128.4194 L141.7546,128.4194 L141.7546,128.3494 L141.8246,128.3494 ZM149.4346,128.4894 L149.3646,128.4894 L149.3646,128.4194 L149.4346,128.4194 Z" style="fill:#636466;fill-rule:evenodd;"/>
        <!-- Line -->
        <line x1="142.9043" y1="127.3694" x2="142.9146" y2="126.6844" style="stroke:#808080;stroke-width:0.0125;stroke-dasharray:0.2381,0.0397,0.0397,0.0397;stroke-dashoffset:0.1337"/>
    </g>
</svg>
