<?xml version="1.0" encoding="UTF-8"?>
<!-- 2020-09-03 16:56:08 Generated by QCAD 3.24.3 SVG Exporter PG -->
<svg width="361.6365mm" height="380.9337mm" viewBox="-408.6006 -204.7042 18.0818 19.0467" version="1.1" xmlns="http://www.w3.org/2000/svg" style="stroke-linecap:round;stroke-linejoin:round;fill:none">
    <g transform="scale(1,-1)">
        <!-- Line -->
        <line x1="-404.2716" y1="201.9941" x2="-404.2716" y2="189.6241" style="stroke:#004c26;stroke-width:0.0125;"/>
        <!-- Line -->
        <line x1="-404.2716" y1="189.6241" x2="-402.3216" y2="189.6241" style="stroke:#004c26;stroke-width:0.0125;"/>
        <!-- Line -->
        <line x1="-403.9916" y1="201.7141" x2="-403.9916" y2="189.9041" style="stroke:#004c26;stroke-width:0.0125;"/>
        <!-- Line -->
        <line x1="-403.9916" y1="189.9041" x2="-402.3216" y2="189.9041" style="stroke:#004c26;stroke-width:0.0125;"/>
        <!-- Line -->
        <line x1="-403.9916" y1="201.7141" x2="-402.5116" y2="201.7141" style="stroke:#004c26;stroke-width:0.0125;"/>
        <!-- Line -->
        <line x1="-404.2716" y1="201.9941" x2="-402.5116" y2="201.9941" style="stroke:#004c26;stroke-width:0.0125;"/>
        <!-- Line -->
        <line x1="-394.0516" y1="201.7141" x2="-394.0516" y2="198.9941" style="stroke:#004c26;stroke-width:0.0125;"/>
        <!-- Line -->
        <line x1="-393.7716" y1="201.9941" x2="-393.7716" y2="198.9941" style="stroke:#004c26;stroke-width:0.0125;"/>
        <!-- Line -->
        <line x1="-394.0516" y1="198.9941" x2="-393.7716" y2="198.9941" style="stroke:#004c26;stroke-width:0.0125;"/>
        <!-- Line -->
        <line x1="-394.0516" y1="198.0941" x2="-394.0516" y2="189.9041" style="stroke:#004c26;stroke-width:0.0125;"/>
        <!-- Line -->
        <line x1="-393.7716" y1="198.0941" x2="-393.7716" y2="189.6241" style="stroke:#004c26;stroke-width:0.0125;"/>
        <!-- Line -->
        <line x1="-402.5116" y1="201.9941" x2="-402.5116" y2="201.7141" style="stroke:#004c26;stroke-width:0.0125;"/>
        <!-- Line -->
        <line x1="-396.2616" y1="201.9941" x2="-396.2616" y2="201.7141" style="stroke:#004c26;stroke-width:0.0125;"/>
        <!-- Line -->
        <line x1="-396.2616" y1="201.9941" x2="-393.7716" y2="201.9941" style="stroke:#004c26;stroke-width:0.0125;"/>
        <!-- Line -->
        <line x1="-396.2616" y1="201.7141" x2="-394.0516" y2="201.7141" style="stroke:#004c26;stroke-width:0.0125;"/>
        <!-- Line -->
        <line x1="-400.5716" y1="189.9041" x2="-400.5716" y2="189.6241" style="stroke:#004c26;stroke-width:0.0125;"/>
        <!-- Line -->
        <line x1="-394.0516" y1="198.0941" x2="-393.7716" y2="198.0941" style="stroke:#004c26;stroke-width:0.0125;"/>
        <!-- Line -->
        <line x1="-394.1216" y1="189.9041" x2="-394.1216" y2="189.6241" style="stroke:#004c26;stroke-width:0.0125;"/>
        <!-- Line -->
        <line x1="-395.9966" y1="199.8433" x2="-395.6466" y2="199.8433" style="stroke:#808080;stroke-width:0.0125;"/>
        <!-- Line -->
        <line x1="-395.6466" y1="199.8433" x2="-395.6466" y2="199.7928" style="stroke:#808080;stroke-width:0.0125;"/>
        <!-- Line -->
        <line x1="-395.6466" y1="199.7928" x2="-395.7991" y2="199.7928" style="stroke:#808080;stroke-width:0.0125;"/>
        <!-- Line -->
        <line x1="-395.8441" y1="198.9939" x2="-395.8441" y2="199.3708" style="stroke:#808080;stroke-width:0.0125;"/>
        <!-- Line -->
        <line x1="-395.8441" y1="199.7928" x2="-395.9966" y2="199.7928" style="stroke:#808080;stroke-width:0.0125;"/>
        <!-- Line -->
        <line x1="-395.9966" y1="199.8433" x2="-395.9966" y2="199.7928" style="stroke:#808080;stroke-width:0.0125;"/>
        <!-- Line -->
        <line x1="-395.7991" y1="198.9939" x2="-395.7991" y2="199.3708" style="stroke:#808080;stroke-width:0.0125;"/>
        <!-- Line -->
        <line x1="-395.6466" y1="198.9939" x2="-395.7991" y2="198.9939" style="stroke:#808080;stroke-width:0.0125;"/>
        <!-- Line -->
        <line x1="-395.9966" y1="198.9433" x2="-395.6466" y2="198.9433" style="stroke:#808080;stroke-width:0.0125;"/>
        <!-- Line -->
        <line x1="-395.8441" y1="198.9939" x2="-395.9966" y2="198.9939" style="stroke:#808080;stroke-width:0.0125;"/>
        <!-- Line -->
        <line x1="-395.9966" y1="198.9433" x2="-395.9966" y2="198.9939" style="stroke:#808080;stroke-width:0.0125;"/>
        <!-- Line -->
        <line x1="-395.6466" y1="198.9433" x2="-395.6466" y2="198.9939" style="stroke:#808080;stroke-width:0.0125;"/>
        <!-- Line -->
        <line x1="-395.3716" y1="199.2183" x2="-395.3716" y2="199.5683" style="stroke:#808080;stroke-width:0.0125;"/>
        <!-- Line -->
        <line x1="-395.4222" y1="199.5683" x2="-395.4222" y2="199.4158" style="stroke:#808080;stroke-width:0.0125;"/>
        <!-- Line -->
        <line x1="-396.2211" y1="199.5683" x2="-396.2211" y2="199.4158" style="stroke:#808080;stroke-width:0.0125;"/>
        <!-- Line -->
        <line x1="-396.2716" y1="199.2183" x2="-396.2716" y2="199.5683" style="stroke:#808080;stroke-width:0.0125;"/>
        <!-- Line -->
        <line x1="-395.3716" y1="199.2183" x2="-395.4222" y2="199.2183" style="stroke:#808080;stroke-width:0.0125;"/>
        <!-- Line -->
        <line x1="-395.4222" y1="199.3708" x2="-395.4222" y2="199.2183" style="stroke:#808080;stroke-width:0.0125;"/>
        <!-- Line -->
        <line x1="-395.4222" y1="199.3708" x2="-395.7991" y2="199.3708" style="stroke:#808080;stroke-width:0.0125;"/>
        <!-- Line -->
        <line x1="-395.4222" y1="199.4158" x2="-395.7991" y2="199.4158" style="stroke:#808080;stroke-width:0.0125;"/>
        <!-- Line -->
        <line x1="-396.2211" y1="199.3708" x2="-396.2211" y2="199.2183" style="stroke:#808080;stroke-width:0.0125;"/>
        <!-- Line -->
        <line x1="-396.2716" y1="199.2183" x2="-396.2211" y2="199.2183" style="stroke:#808080;stroke-width:0.0125;"/>
        <!-- Line -->
        <line x1="-395.3716" y1="199.5683" x2="-395.4222" y2="199.5683" style="stroke:#808080;stroke-width:0.0125;"/>
        <!-- Line -->
        <line x1="-396.2716" y1="199.5683" x2="-396.2211" y2="199.5683" style="stroke:#808080;stroke-width:0.0125;"/>
        <!-- Line -->
        <line x1="-395.8441" y1="199.3708" x2="-396.2211" y2="199.3708" style="stroke:#808080;stroke-width:0.0125;"/>
        <!-- Line -->
        <line x1="-395.8441" y1="199.4158" x2="-396.2211" y2="199.4158" style="stroke:#808080;stroke-width:0.0125;"/>
        <!-- Line -->
        <line x1="-395.7991" y1="199.4158" x2="-395.7991" y2="199.7928" style="stroke:#808080;stroke-width:0.0125;"/>
        <!-- Line -->
        <line x1="-395.8441" y1="199.4158" x2="-395.8441" y2="199.7928" style="stroke:#808080;stroke-width:0.0125;"/>
        <!-- Hatch -->
        <path d="M-395.7991,199.7928 L-395.6466,199.7928 L-395.6466,199.8433 L-395.9966,199.8433 L-395.9966,199.7928 L-395.8441,199.7928 L-395.8441,199.4158 L-396.2211,199.4158 L-396.2211,199.5683 L-396.2716,199.5683 L-396.2716,199.2183 L-396.2211,199.2183 L-396.2211,199.3708 L-395.8441,199.3708 L-395.8441,198.9939 L-395.9966,198.9939 L-395.9966,198.9433 L-395.6466,198.9433 L-395.6466,198.9939 L-395.7991,198.9939 L-395.7991,199.3708 L-395.4222,199.3708 L-395.4222,199.2183 L-395.3716,199.2183 L-395.3716,199.5683 L-395.4222,199.5683 L-395.4222,199.4158 L-395.7991,199.4158 Z" style="fill:#808080;fill-rule:evenodd;"/>
        <!-- Line -->
        <line x1="-395.6466" y1="190.3235" x2="-395.7991" y2="190.3235" style="stroke:#808080;stroke-width:0.0125;"/>
        <!-- Line -->
        <line x1="-395.9966" y1="190.3741" x2="-395.6466" y2="190.3741" style="stroke:#808080;stroke-width:0.0125;"/>
        <!-- Line -->
        <line x1="-395.4222" y1="189.8216" x2="-395.7991" y2="189.8216" style="stroke:#808080;stroke-width:0.0125;"/>
        <!-- Line -->
        <line x1="-395.9966" y1="190.3741" x2="-395.9966" y2="190.3235" style="stroke:#808080;stroke-width:0.0125;"/>
        <!-- Line -->
        <line x1="-395.8441" y1="190.3235" x2="-395.9966" y2="190.3235" style="stroke:#808080;stroke-width:0.0125;"/>
        <!-- Line -->
        <line x1="-395.8441" y1="189.8216" x2="-395.8441" y2="190.3235" style="stroke:#808080;stroke-width:0.0125;"/>
        <!-- Line -->
        <line x1="-395.8441" y1="189.8216" x2="-396.2211" y2="189.8216" style="stroke:#808080;stroke-width:0.0125;"/>
        <!-- Line -->
        <line x1="-396.2211" y1="189.9491" x2="-396.2211" y2="189.8216" style="stroke:#808080;stroke-width:0.0125;"/>
        <!-- Line -->
        <line x1="-396.2716" y1="189.9491" x2="-396.2211" y2="189.9491" style="stroke:#808080;stroke-width:0.0125;"/>
        <!-- Line -->
        <line x1="-396.2716" y1="189.6491" x2="-396.2716" y2="189.9491" style="stroke:#808080;stroke-width:0.0125;"/>
        <!-- Line -->
        <line x1="-396.2716" y1="189.6241" x2="-396.2211" y2="189.6241" style="stroke:#808080;stroke-width:0.0125;"/>
        <!-- Line -->
        <line x1="-396.2211" y1="189.7766" x2="-396.2211" y2="189.6491" style="stroke:#808080;stroke-width:0.0125;"/>
        <!-- Line -->
        <line x1="-395.4222" y1="189.7766" x2="-396.2211" y2="189.7766" style="stroke:#808080;stroke-width:0.0125;"/>
        <!-- Line -->
        <line x1="-395.7991" y1="189.8216" x2="-395.7991" y2="190.3235" style="stroke:#808080;stroke-width:0.0125;"/>
        <!-- Line -->
        <line x1="-395.6466" y1="190.3741" x2="-395.6466" y2="190.3235" style="stroke:#808080;stroke-width:0.0125;"/>
        <!-- Line -->
        <line x1="-395.3716" y1="189.9041" x2="-395.2916" y2="189.9041" style="stroke:#808080;stroke-width:0.0125;"/>
        <!-- Line -->
        <line x1="-395.2916" y1="189.9041" x2="-395.2916" y2="189.7642" style="stroke:#808080;stroke-width:0.0125;"/>
        <!-- Line -->
        <line x1="-395.2916" y1="189.7642" x2="-395.3716" y2="189.7642" style="stroke:#808080;stroke-width:0.0125;"/>
        <!-- Line -->
        <line x1="-395.3016" y1="189.7642" x2="-394.2016" y2="189.7642" style="stroke:#808080;stroke-width:0.0125;"/>
        <!-- Line -->
        <line x1="-394.1216" y1="189.9041" x2="-394.0516" y2="189.9041" style="stroke:#004c26;stroke-width:0.0125;"/>
        <!-- Line -->
        <line x1="-394.1216" y1="189.6241" x2="-393.7716" y2="189.6241" style="stroke:#004c26;stroke-width:0.0125;"/>
        <!-- Line -->
        <line x1="-396.2211" y1="189.6491" x2="-396.2716" y2="189.6491" style="stroke:#808080;stroke-width:0.0125;"/>
        <!-- Line -->
        <line x1="-395.3716" y1="189.9491" x2="-395.4222" y2="189.9491" style="stroke:#808080;stroke-width:0.0125;"/>
        <!-- Line -->
        <line x1="-395.3716" y1="189.6241" x2="-395.3716" y2="189.9491" style="stroke:#808080;stroke-width:0.0125;"/>
        <!-- Line -->
        <line x1="-395.4222" y1="189.9491" x2="-395.4222" y2="189.8216" style="stroke:#808080;stroke-width:0.0125;"/>
        <!-- Line -->
        <line x1="-395.4222" y1="189.6491" x2="-395.3716" y2="189.6491" style="stroke:#808080;stroke-width:0.0125;"/>
        <!-- Line -->
        <line x1="-395.4222" y1="189.7766" x2="-395.4222" y2="189.6491" style="stroke:#808080;stroke-width:0.0125;"/>
        <!-- Line -->
        <line x1="-395.3716" y1="189.9041" x2="-395.3716" y2="189.7642" style="stroke:#808080;stroke-width:0.0125;"/>
        <!-- Line -->
        <line x1="-395.3016" y1="189.9042" x2="-394.2016" y2="189.9042" style="stroke:#808080;stroke-width:0.0125;"/>
        <!-- Line -->
        <line x1="-394.2016" y1="189.9041" x2="-394.2016" y2="189.7642" style="stroke:#808080;stroke-width:0.0125;"/>
        <!-- Line -->
        <line x1="-394.1216" y1="189.9041" x2="-394.2016" y2="189.9041" style="stroke:#808080;stroke-width:0.0125;"/>
        <!-- Line -->
        <line x1="-394.2016" y1="189.7642" x2="-394.1216" y2="189.7642" style="stroke:#808080;stroke-width:0.0125;"/>
        <!-- Line -->
        <line x1="-394.1216" y1="189.9041" x2="-394.1216" y2="189.7642" style="stroke:#808080;stroke-width:0.0125;"/>
        <!-- Line -->
        <line x1="-395.2916" y1="189.8542" x2="-394.2016" y2="189.8542" style="stroke:#808080;stroke-width:0.0125;"/>
        <!-- Line -->
        <line x1="-395.2916" y1="189.8242" x2="-394.2016" y2="189.8242" style="stroke:#808080;stroke-width:0.0125;"/>
        <!-- Line -->
        <line x1="-395.3716" y1="189.6241" x2="-394.1216" y2="189.6241" style="stroke:#808080;stroke-width:0.0125;"/>
        <!-- Hatch -->
        <path d="M-395.7991,190.3235 L-395.6466,190.3235 L-395.6466,190.3741 L-395.9966,190.3741 L-395.9966,190.3235 L-395.8441,190.3235 L-395.8441,189.8216 L-396.2211,189.8216 L-396.2211,189.9491 L-396.2716,189.9491 L-396.2716,189.6491 L-396.2211,189.6491 L-396.2211,189.7766 L-395.4222,189.7766 L-395.4222,189.6491 L-395.3716,189.6491 L-395.3716,189.9491 L-395.4222,189.9491 L-395.4222,189.8216 L-395.7991,189.8216 Z" style="fill:#808080;fill-rule:evenodd;"/>
        <!-- Line -->
        <line x1="-401.0716" y1="189.9041" x2="-401.0716" y2="189.6241" style="stroke:#004c26;stroke-width:0.0125;"/>
        <!-- Line -->
        <line x1="-402.3216" y1="189.9041" x2="-402.3216" y2="189.6241" style="stroke:#004c26;stroke-width:0.0125;"/>
        <!-- Line -->
        <line x1="-401.0716" y1="189.6241" x2="-400.5716" y2="189.6241" style="stroke:#004c26;stroke-width:0.0125;"/>
        <!-- Line -->
        <line x1="-401.0716" y1="189.9041" x2="-400.5716" y2="189.9041" style="stroke:#004c26;stroke-width:0.0125;"/>
        <!-- Line -->
        <line x1="-402.2416" y1="189.8242" x2="-401.1516" y2="189.8242" style="stroke:#808080;stroke-width:0.0125;"/>
        <!-- Line -->
        <line x1="-402.2416" y1="189.8542" x2="-401.1516" y2="189.8542" style="stroke:#808080;stroke-width:0.0125;"/>
        <!-- Line -->
        <line x1="-402.2516" y1="189.9042" x2="-401.1516" y2="189.9042" style="stroke:#808080;stroke-width:0.0125;"/>
        <!-- Line -->
        <line x1="-402.2516" y1="189.7642" x2="-401.1516" y2="189.7642" style="stroke:#808080;stroke-width:0.0125;"/>
        <!-- Line -->
        <line x1="-402.2416" y1="189.7642" x2="-402.3216" y2="189.7642" style="stroke:#808080;stroke-width:0.0125;"/>
        <!-- Line -->
        <line x1="-402.2416" y1="189.9041" x2="-402.2416" y2="189.7642" style="stroke:#808080;stroke-width:0.0125;"/>
        <!-- Line -->
        <line x1="-402.3216" y1="189.9041" x2="-402.2416" y2="189.9041" style="stroke:#808080;stroke-width:0.0125;"/>
        <!-- Line -->
        <line x1="-402.3216" y1="189.9041" x2="-402.3216" y2="189.7642" style="stroke:#808080;stroke-width:0.0125;"/>
        <!-- Line -->
        <line x1="-401.0716" y1="189.9041" x2="-401.0716" y2="189.7642" style="stroke:#808080;stroke-width:0.0125;"/>
        <!-- Line -->
        <line x1="-401.1516" y1="189.7642" x2="-401.0716" y2="189.7642" style="stroke:#808080;stroke-width:0.0125;"/>
        <!-- Line -->
        <line x1="-401.0716" y1="189.9041" x2="-401.1516" y2="189.9041" style="stroke:#808080;stroke-width:0.0125;"/>
        <!-- Line -->
        <line x1="-401.1516" y1="189.9041" x2="-401.1516" y2="189.7642" style="stroke:#808080;stroke-width:0.0125;"/>
        <!-- Line -->
        <line x1="-402.3216" y1="189.6241" x2="-401.0716" y2="189.6241" style="stroke:#808080;stroke-width:0.0125;"/>
        <!-- Line -->
        <line x1="-395.0441" y1="200.7291" x2="-395.0441" y2="199.3176" style="stroke:#808080;stroke-width:0.0125;"/>
        <!-- Line -->
        <line x1="-395.0441" y1="199.3176" x2="-394.1068" y2="199.3176" style="stroke:#808080;stroke-width:0.0125;"/>
        <!-- Line -->
        <line x1="-394.1068" y1="199.3176" x2="-394.1068" y2="201.6591" style="stroke:#808080;stroke-width:0.0125;"/>
        <!-- Line -->
        <line x1="-394.1068" y1="201.6591" x2="-396.4568" y2="201.6591" style="stroke:#808080;stroke-width:0.0125;"/>
        <!-- Line -->
        <line x1="-396.3328" y1="201.2619" x2="-394.5001" y2="201.2619" style="stroke:#808080;stroke-width:0.0125;"/>
        <!-- Line -->
        <line x1="-394.5001" y1="201.2619" x2="-394.5001" y2="199.3176" style="stroke:#808080;stroke-width:0.0125;"/>
        <!-- Line -->
        <line x1="-394.5001" y1="199.3176" x2="-394.3076" y2="199.4346" style="stroke:#808080;stroke-width:0.0125;"/>
        <!-- Line -->
        <line x1="-394.5001" y1="199.3176" x2="-394.6926" y2="199.4346" style="stroke:#808080;stroke-width:0.0125;"/>
        <!-- Line -->
        <line x1="-395.0441" y1="200.7291" x2="-396.4568" y2="200.7291" style="stroke:#808080;stroke-width:0.0125;"/>
        <!-- Line -->
        <line x1="-396.4568" y1="200.7291" x2="-396.4568" y2="201.6591" style="stroke:#808080;stroke-width:0.0125;"/>
        <!-- Line -->
        <line x1="-394.9068" y1="200.8591" x2="-396.3368" y2="200.8591" style="stroke:#808080;stroke-width:0.0125;"/>
        <!-- Line -->
        <line x1="-394.9068" y1="199.3176" x2="-394.9068" y2="200.8591" style="stroke:#808080;stroke-width:0.0125;"/>
        <!-- Line -->
        <line x1="-394.9068" y1="200.8591" x2="-394.1068" y2="200.8591" style="stroke:#808080;stroke-width:0.0125;"/>
        <!-- Line -->
        <line x1="-394.9068" y1="200.6091" x2="-394.1068" y2="200.6091" style="stroke:#808080;stroke-width:0.0125;"/>
        <!-- Line -->
        <line x1="-394.9068" y1="200.3591" x2="-394.1068" y2="200.3591" style="stroke:#808080;stroke-width:0.0125;"/>
        <!-- Line -->
        <line x1="-394.9068" y1="200.1091" x2="-394.1068" y2="200.1091" style="stroke:#808080;stroke-width:0.0125;"/>
        <!-- Line -->
        <line x1="-394.9068" y1="199.8591" x2="-394.1068" y2="199.8591" style="stroke:#808080;stroke-width:0.0125;"/>
        <!-- Line -->
        <line x1="-394.9068" y1="199.6091" x2="-394.1068" y2="199.6091" style="stroke:#808080;stroke-width:0.0125;"/>
        <!-- Line -->
        <line x1="-396.3368" y1="200.8591" x2="-396.3368" y2="201.6591" style="stroke:#808080;stroke-width:0.0125;"/>
        <!-- Line -->
        <line x1="-394.9068" y1="200.8591" x2="-394.9068" y2="201.6591" style="stroke:#808080;stroke-width:0.0125;"/>
        <!-- Line -->
        <line x1="-395.1568" y1="200.8591" x2="-395.1568" y2="201.6591" style="stroke:#808080;stroke-width:0.0125;"/>
        <!-- Line -->
        <line x1="-395.4068" y1="200.8591" x2="-395.4068" y2="201.6591" style="stroke:#808080;stroke-width:0.0125;"/>
        <!-- Line -->
        <line x1="-395.6568" y1="200.8591" x2="-395.6568" y2="201.6591" style="stroke:#808080;stroke-width:0.0125;"/>
        <!-- Line -->
        <line x1="-395.9068" y1="200.8591" x2="-395.9068" y2="201.6591" style="stroke:#808080;stroke-width:0.0125;"/>
        <!-- Line -->
        <line x1="-396.1568" y1="200.8591" x2="-396.1568" y2="201.6591" style="stroke:#808080;stroke-width:0.0125;"/>
        <!-- Line -->
        <line x1="-401.3416" y1="201.854" x2="-401.3416" y2="201.7141" style="stroke:#808080;stroke-width:0.0125;"/>
        <!-- Line -->
        <line x1="-401.2616" y1="201.854" x2="-401.3416" y2="201.854" style="stroke:#808080;stroke-width:0.0125;"/>
        <!-- Line -->
        <line x1="-401.3416" y1="201.7141" x2="-401.2616" y2="201.7141" style="stroke:#808080;stroke-width:0.0125;"/>
        <!-- Line -->
        <line x1="-401.2616" y1="201.854" x2="-401.2616" y2="201.7141" style="stroke:#808080;stroke-width:0.0125;"/>
        <!-- Line -->
        <line x1="-402.5116" y1="201.854" x2="-402.5116" y2="201.7141" style="stroke:#808080;stroke-width:0.0125;"/>
        <!-- Line -->
        <line x1="-402.5116" y1="201.854" x2="-402.4316" y2="201.854" style="stroke:#808080;stroke-width:0.0125;"/>
        <!-- Line -->
        <line x1="-402.4316" y1="201.854" x2="-402.4316" y2="201.7141" style="stroke:#808080;stroke-width:0.0125;"/>
        <!-- Line -->
        <line x1="-402.4316" y1="201.7141" x2="-402.5116" y2="201.7141" style="stroke:#808080;stroke-width:0.0125;"/>
        <!-- Line -->
        <line x1="-402.4416" y1="201.7141" x2="-401.3416" y2="201.7141" style="stroke:#808080;stroke-width:0.0125;"/>
        <!-- Line -->
        <line x1="-402.4416" y1="201.8541" x2="-401.3416" y2="201.8541" style="stroke:#808080;stroke-width:0.0125;"/>
        <!-- Line -->
        <line x1="-402.4316" y1="201.8041" x2="-401.3416" y2="201.8041" style="stroke:#808080;stroke-width:0.0125;"/>
        <!-- Line -->
        <line x1="-402.4316" y1="201.7741" x2="-401.3416" y2="201.7741" style="stroke:#808080;stroke-width:0.0125;"/>
        <!-- Line -->
        <line x1="-401.1816" y1="201.7741" x2="-400.0916" y2="201.7741" style="stroke:#808080;stroke-width:0.0125;"/>
        <!-- Line -->
        <line x1="-401.1816" y1="201.8041" x2="-400.0916" y2="201.8041" style="stroke:#808080;stroke-width:0.0125;"/>
        <!-- Line -->
        <line x1="-401.1916" y1="201.8541" x2="-400.0916" y2="201.8541" style="stroke:#808080;stroke-width:0.0125;"/>
        <!-- Line -->
        <line x1="-401.1916" y1="201.7141" x2="-400.0916" y2="201.7141" style="stroke:#808080;stroke-width:0.0125;"/>
        <!-- Line -->
        <line x1="-401.1816" y1="201.7141" x2="-401.2616" y2="201.7141" style="stroke:#808080;stroke-width:0.0125;"/>
        <!-- Line -->
        <line x1="-401.1816" y1="201.854" x2="-401.1816" y2="201.7141" style="stroke:#808080;stroke-width:0.0125;"/>
        <!-- Line -->
        <line x1="-401.2616" y1="201.854" x2="-401.1816" y2="201.854" style="stroke:#808080;stroke-width:0.0125;"/>
        <!-- Line -->
        <line x1="-401.2616" y1="201.854" x2="-401.2616" y2="201.7141" style="stroke:#808080;stroke-width:0.0125;"/>
        <!-- Line -->
        <line x1="-400.0116" y1="201.854" x2="-400.0116" y2="201.7141" style="stroke:#808080;stroke-width:0.0125;"/>
        <!-- Line -->
        <line x1="-400.0916" y1="201.7141" x2="-400.0116" y2="201.7141" style="stroke:#808080;stroke-width:0.0125;"/>
        <!-- Line -->
        <line x1="-400.0116" y1="201.854" x2="-400.0916" y2="201.854" style="stroke:#808080;stroke-width:0.0125;"/>
        <!-- Line -->
        <line x1="-400.0916" y1="201.854" x2="-400.0916" y2="201.7141" style="stroke:#808080;stroke-width:0.0125;"/>
        <!-- Line -->
        <line x1="-399.9316" y1="201.7741" x2="-398.8416" y2="201.7741" style="stroke:#808080;stroke-width:0.0125;"/>
        <!-- Line -->
        <line x1="-399.9316" y1="201.8041" x2="-398.8416" y2="201.8041" style="stroke:#808080;stroke-width:0.0125;"/>
        <!-- Line -->
        <line x1="-399.9416" y1="201.8541" x2="-398.8416" y2="201.8541" style="stroke:#808080;stroke-width:0.0125;"/>
        <!-- Line -->
        <line x1="-399.9416" y1="201.7141" x2="-398.8416" y2="201.7141" style="stroke:#808080;stroke-width:0.0125;"/>
        <!-- Line -->
        <line x1="-399.9316" y1="201.7141" x2="-400.0116" y2="201.7141" style="stroke:#808080;stroke-width:0.0125;"/>
        <!-- Line -->
        <line x1="-399.9316" y1="201.854" x2="-399.9316" y2="201.7141" style="stroke:#808080;stroke-width:0.0125;"/>
        <!-- Line -->
        <line x1="-400.0116" y1="201.854" x2="-399.9316" y2="201.854" style="stroke:#808080;stroke-width:0.0125;"/>
        <!-- Line -->
        <line x1="-400.0116" y1="201.854" x2="-400.0116" y2="201.7141" style="stroke:#808080;stroke-width:0.0125;"/>
        <!-- Line -->
        <line x1="-398.7616" y1="201.854" x2="-398.7616" y2="201.7141" style="stroke:#808080;stroke-width:0.0125;"/>
        <!-- Line -->
        <line x1="-398.8416" y1="201.7141" x2="-398.7616" y2="201.7141" style="stroke:#808080;stroke-width:0.0125;"/>
        <!-- Line -->
        <line x1="-398.7616" y1="201.854" x2="-398.8416" y2="201.854" style="stroke:#808080;stroke-width:0.0125;"/>
        <!-- Line -->
        <line x1="-398.8416" y1="201.854" x2="-398.8416" y2="201.7141" style="stroke:#808080;stroke-width:0.0125;"/>
        <!-- Line -->
        <line x1="-398.6816" y1="201.7741" x2="-397.5916" y2="201.7741" style="stroke:#808080;stroke-width:0.0125;"/>
        <!-- Line -->
        <line x1="-398.6816" y1="201.8041" x2="-397.5916" y2="201.8041" style="stroke:#808080;stroke-width:0.0125;"/>
        <!-- Line -->
        <line x1="-398.6916" y1="201.8541" x2="-397.5916" y2="201.8541" style="stroke:#808080;stroke-width:0.0125;"/>
        <!-- Line -->
        <line x1="-398.6916" y1="201.7141" x2="-397.5916" y2="201.7141" style="stroke:#808080;stroke-width:0.0125;"/>
        <!-- Line -->
        <line x1="-398.6816" y1="201.7141" x2="-398.7616" y2="201.7141" style="stroke:#808080;stroke-width:0.0125;"/>
        <!-- Line -->
        <line x1="-398.6816" y1="201.854" x2="-398.6816" y2="201.7141" style="stroke:#808080;stroke-width:0.0125;"/>
        <!-- Line -->
        <line x1="-398.7616" y1="201.854" x2="-398.6816" y2="201.854" style="stroke:#808080;stroke-width:0.0125;"/>
        <!-- Line -->
        <line x1="-398.7616" y1="201.854" x2="-398.7616" y2="201.7141" style="stroke:#808080;stroke-width:0.0125;"/>
        <!-- Line -->
        <line x1="-397.5116" y1="201.854" x2="-397.5116" y2="201.7141" style="stroke:#808080;stroke-width:0.0125;"/>
        <!-- Line -->
        <line x1="-397.5916" y1="201.7141" x2="-397.5116" y2="201.7141" style="stroke:#808080;stroke-width:0.0125;"/>
        <!-- Line -->
        <line x1="-397.5116" y1="201.854" x2="-397.5916" y2="201.854" style="stroke:#808080;stroke-width:0.0125;"/>
        <!-- Line -->
        <line x1="-397.5916" y1="201.854" x2="-397.5916" y2="201.7141" style="stroke:#808080;stroke-width:0.0125;"/>
        <!-- Line -->
        <line x1="-397.4316" y1="201.7741" x2="-396.3416" y2="201.7741" style="stroke:#808080;stroke-width:0.0125;"/>
        <!-- Line -->
        <line x1="-397.4316" y1="201.8041" x2="-396.3416" y2="201.8041" style="stroke:#808080;stroke-width:0.0125;"/>
        <!-- Line -->
        <line x1="-397.4416" y1="201.8541" x2="-396.3416" y2="201.8541" style="stroke:#808080;stroke-width:0.0125;"/>
        <!-- Line -->
        <line x1="-397.4416" y1="201.7141" x2="-396.3416" y2="201.7141" style="stroke:#808080;stroke-width:0.0125;"/>
        <!-- Line -->
        <line x1="-397.4316" y1="201.7141" x2="-397.5116" y2="201.7141" style="stroke:#808080;stroke-width:0.0125;"/>
        <!-- Line -->
        <line x1="-397.4316" y1="201.854" x2="-397.4316" y2="201.7141" style="stroke:#808080;stroke-width:0.0125;"/>
        <!-- Line -->
        <line x1="-397.5116" y1="201.854" x2="-397.4316" y2="201.854" style="stroke:#808080;stroke-width:0.0125;"/>
        <!-- Line -->
        <line x1="-397.5116" y1="201.854" x2="-397.5116" y2="201.7141" style="stroke:#808080;stroke-width:0.0125;"/>
        <!-- Line -->
        <line x1="-396.2616" y1="201.854" x2="-396.2616" y2="201.7141" style="stroke:#808080;stroke-width:0.0125;"/>
        <!-- Line -->
        <line x1="-396.3416" y1="201.7141" x2="-396.2616" y2="201.7141" style="stroke:#808080;stroke-width:0.0125;"/>
        <!-- Line -->
        <line x1="-396.2616" y1="201.854" x2="-396.3416" y2="201.854" style="stroke:#808080;stroke-width:0.0125;"/>
        <!-- Line -->
        <line x1="-396.3416" y1="201.854" x2="-396.3416" y2="201.7141" style="stroke:#808080;stroke-width:0.0125;"/>
        <!-- Line -->
        <line x1="-402.5116" y1="201.9941" x2="-396.2616" y2="201.9941" style="stroke:#808080;stroke-width:0.0125;"/>
        <!-- Line -->
        <line x1="-398.0716" y1="189.9041" x2="-398.0716" y2="189.6241" style="stroke:#004c26;stroke-width:0.0125;"/>
        <!-- Line -->
        <line x1="-398.0716" y1="189.9041" x2="-396.2716" y2="189.9041" style="stroke:#004c26;stroke-width:0.0125;"/>
        <!-- Line -->
        <line x1="-398.0716" y1="189.6241" x2="-395.3716" y2="189.6241" style="stroke:#004c26;stroke-width:0.0125;"/>
        <!-- Line -->
        <line x1="-400.5716" y1="189.7642" x2="-400.5216" y2="189.7642" style="stroke:#808080;stroke-width:0.0125;"/>
        <!-- Line -->
        <line x1="-400.5216" y1="189.9041" x2="-400.5716" y2="189.9041" style="stroke:#808080;stroke-width:0.0125;"/>
        <!-- Line -->
        <line x1="-400.5716" y1="189.9041" x2="-400.5716" y2="189.7642" style="stroke:#808080;stroke-width:0.0125;"/>
        <!-- Line -->
        <line x1="-398.0716" y1="189.9041" x2="-398.0716" y2="189.7642" style="stroke:#808080;stroke-width:0.0125;"/>
        <!-- Line -->
        <line x1="-398.0716" y1="189.9041" x2="-398.1216" y2="189.9041" style="stroke:#808080;stroke-width:0.0125;"/>
        <!-- Line -->
        <line x1="-400.5216" y1="189.7642" x2="-400.4716" y2="189.7642" style="stroke:#808080;stroke-width:0.0125;"/>
        <!-- Line -->
        <line x1="-400.5216" y1="188.5942" x2="-400.4716" y2="188.5942" style="stroke:#808080;stroke-width:0.0125;"/>
        <!-- Line -->
        <line x1="-400.5216" y1="189.7642" x2="-400.5216" y2="188.5942" style="stroke:#808080;stroke-width:0.0125;"/>
        <!-- Line -->
        <line x1="-400.4716" y1="189.7642" x2="-400.4716" y2="188.5942" style="stroke:#808080;stroke-width:0.0125;"/>
        <!-- Line -->
        <line x1="-398.1216" y1="189.7642" x2="-398.1216" y2="188.5942" style="stroke:#808080;stroke-width:0.0125;"/>
        <!-- Line -->
        <line x1="-398.1716" y1="189.7642" x2="-398.1716" y2="188.5942" style="stroke:#808080;stroke-width:0.0125;"/>
        <!-- Line -->
        <line x1="-398.1716" y1="188.5942" x2="-398.1216" y2="188.5942" style="stroke:#808080;stroke-width:0.0125;"/>
        <!-- Line -->
        <line x1="-398.1716" y1="189.7642" x2="-398.1216" y2="189.7642" style="stroke:#808080;stroke-width:0.0125;"/>
        <!-- Line -->
        <line x1="-394.1466" y1="189.5525" x2="-394.1466" y2="189.2525" style="stroke:#808080;stroke-width:0.0125;"/>
        <!-- Hatch -->
        <path d="M-406.7716,190.3235 L-406.6191,190.3235 L-406.6191,190.3741 L-406.9691,190.3741 L-406.9691,190.3235 L-406.8166,190.3235 L-406.8166,189.8216 L-407.1936,189.8216 L-407.1936,189.9491 L-407.2441,189.9491 L-407.2441,189.6491 L-407.1936,189.6491 L-407.1936,189.7766 L-406.3947,189.7766 L-406.3947,189.6491 L-406.3441,189.6491 L-406.3441,189.9491 L-406.3947,189.9491 L-406.3947,189.8216 L-406.7716,189.8216 Z" style="fill:#808080;fill-rule:evenodd;"/>
        <!-- Line -->
        <line x1="-406.6191" y1="190.3235" x2="-406.7716" y2="190.3235" style="stroke:#808080;stroke-width:0.0125;"/>
        <!-- Line -->
        <line x1="-406.6191" y1="190.3741" x2="-406.6191" y2="190.3235" style="stroke:#808080;stroke-width:0.0125;"/>
        <!-- Line -->
        <line x1="-406.9691" y1="190.3741" x2="-406.6191" y2="190.3741" style="stroke:#808080;stroke-width:0.0125;"/>
        <!-- Line -->
        <line x1="-406.9691" y1="190.3741" x2="-406.9691" y2="190.3235" style="stroke:#808080;stroke-width:0.0125;"/>
        <!-- Line -->
        <line x1="-406.8166" y1="190.3235" x2="-406.9691" y2="190.3235" style="stroke:#808080;stroke-width:0.0125;"/>
        <!-- Line -->
        <line x1="-406.8166" y1="189.8216" x2="-406.8166" y2="190.3235" style="stroke:#808080;stroke-width:0.0125;"/>
        <!-- Line -->
        <line x1="-406.8166" y1="189.8216" x2="-407.1936" y2="189.8216" style="stroke:#808080;stroke-width:0.0125;"/>
        <!-- Line -->
        <line x1="-407.1936" y1="189.9491" x2="-407.1936" y2="189.8216" style="stroke:#808080;stroke-width:0.0125;"/>
        <!-- Line -->
        <line x1="-407.2441" y1="189.9491" x2="-407.1936" y2="189.9491" style="stroke:#808080;stroke-width:0.0125;"/>
        <!-- Line -->
        <line x1="-407.2441" y1="189.6491" x2="-407.2441" y2="189.9491" style="stroke:#808080;stroke-width:0.0125;"/>
        <!-- Line -->
        <line x1="-407.1936" y1="189.6491" x2="-407.2441" y2="189.6491" style="stroke:#808080;stroke-width:0.0125;"/>
        <!-- Line -->
        <line x1="-407.1936" y1="189.7766" x2="-407.1936" y2="189.6491" style="stroke:#808080;stroke-width:0.0125;"/>
        <!-- Line -->
        <line x1="-406.3947" y1="189.7766" x2="-407.1936" y2="189.7766" style="stroke:#808080;stroke-width:0.0125;"/>
        <!-- Line -->
        <line x1="-406.3947" y1="189.7766" x2="-406.3947" y2="189.6491" style="stroke:#808080;stroke-width:0.0125;"/>
        <!-- Line -->
        <line x1="-406.3947" y1="189.6491" x2="-406.3441" y2="189.6491" style="stroke:#808080;stroke-width:0.0125;"/>
        <!-- Line -->
        <line x1="-406.3441" y1="189.9491" x2="-406.3947" y2="189.9491" style="stroke:#808080;stroke-width:0.0125;"/>
        <!-- Line -->
        <line x1="-406.3947" y1="189.9491" x2="-406.3947" y2="189.8216" style="stroke:#808080;stroke-width:0.0125;"/>
        <!-- Line -->
        <line x1="-406.3947" y1="189.8216" x2="-406.7716" y2="189.8216" style="stroke:#808080;stroke-width:0.0125;"/>
        <!-- Line -->
        <line x1="-406.7716" y1="189.8216" x2="-406.7716" y2="190.3235" style="stroke:#808080;stroke-width:0.0125;"/>
        <!-- Line -->
        <line x1="-393.4966" y1="189.5525" x2="-393.4966" y2="189.2525" style="stroke:#808080;stroke-width:0.0125;"/>
        <!-- Line -->
        <line x1="-394.1216" y1="189.5525" x2="-394.1216" y2="189.415" style="stroke:#808080;stroke-width:0.0125;"/>
        <!-- Line -->
        <line x1="-393.5216" y1="189.5525" x2="-393.5216" y2="189.415" style="stroke:#808080;stroke-width:0.0125;"/>
        <!-- Line -->
        <line x1="-394.1216" y1="189.415" x2="-393.5216" y2="189.415" style="stroke:#808080;stroke-width:0.0125;"/>
        <!-- Line -->
        <line x1="-394.1216" y1="189.39" x2="-393.5216" y2="189.39" style="stroke:#808080;stroke-width:0.0125;"/>
        <!-- Line -->
        <line x1="-394.1466" y1="189.5525" x2="-394.1216" y2="189.5525" style="stroke:#808080;stroke-width:0.0125;"/>
        <!-- Line -->
        <line x1="-393.5216" y1="189.5525" x2="-393.4966" y2="189.5525" style="stroke:#808080;stroke-width:0.0125;"/>
        <!-- Line -->
        <line x1="-393.4966" y1="189.2525" x2="-393.5216" y2="189.2525" style="stroke:#808080;stroke-width:0.0125;"/>
        <!-- Line -->
        <line x1="-394.1466" y1="189.2525" x2="-394.1216" y2="189.2525" style="stroke:#808080;stroke-width:0.0125;"/>
        <!-- Line -->
        <line x1="-394.1216" y1="189.39" x2="-394.1216" y2="189.2525" style="stroke:#808080;stroke-width:0.0125;"/>
        <!-- Line -->
        <line x1="-393.5216" y1="189.39" x2="-393.5216" y2="189.2525" style="stroke:#808080;stroke-width:0.0125;"/>
        <!-- Line -->
        <line x1="-393.5153" y1="187.968" x2="-393.5153" y2="187.8305" style="stroke:#808080;stroke-width:0.0125;"/>
        <!-- Line -->
        <line x1="-393.5153" y1="187.8055" x2="-393.5153" y2="187.668" style="stroke:#808080;stroke-width:0.0125;"/>
        <!-- Line -->
        <line x1="-394.1153" y1="187.8055" x2="-393.5153" y2="187.8055" style="stroke:#808080;stroke-width:0.0125;"/>
        <!-- Line -->
        <line x1="-394.1153" y1="187.8305" x2="-393.5153" y2="187.8305" style="stroke:#808080;stroke-width:0.0125;"/>
        <!-- Line -->
        <line x1="-394.1153" y1="187.968" x2="-394.1153" y2="187.8305" style="stroke:#808080;stroke-width:0.0125;"/>
        <!-- Line -->
        <line x1="-394.1153" y1="187.8055" x2="-394.1153" y2="187.668" style="stroke:#808080;stroke-width:0.0125;"/>
        <!-- Line -->
        <line x1="-393.5153" y1="187.968" x2="-393.4903" y2="187.968" style="stroke:#808080;stroke-width:0.0125;"/>
        <!-- Line -->
        <line x1="-393.4903" y1="187.968" x2="-393.4903" y2="187.668" style="stroke:#808080;stroke-width:0.0125;"/>
        <!-- Line -->
        <line x1="-393.4903" y1="187.668" x2="-393.5153" y2="187.668" style="stroke:#808080;stroke-width:0.0125;"/>
        <!-- Line -->
        <line x1="-394.1403" y1="187.668" x2="-394.1153" y2="187.668" style="stroke:#808080;stroke-width:0.0125;"/>
        <!-- Line -->
        <line x1="-394.1403" y1="187.968" x2="-394.1153" y2="187.968" style="stroke:#808080;stroke-width:0.0125;"/>
        <!-- Line -->
        <line x1="-394.1403" y1="187.968" x2="-394.1403" y2="187.668" style="stroke:#808080;stroke-width:0.0125;"/>
        <!-- Hatch -->
        <path d="M-402.503,189.5525 L-402.528,189.5525 L-402.528,189.415 L-403.128,189.415 L-403.128,189.5525 L-403.153,189.5525 L-403.153,189.2525 L-403.128,189.2525 L-403.128,189.39 L-402.528,189.39 L-402.528,189.2525 L-402.503,189.2525 ZM-402.4966,187.968 L-402.5216,187.968 L-402.5216,187.8305 L-403.1216,187.8305 L-403.1216,187.968 L-403.1466,187.968 L-403.1466,187.668 L-403.1216,187.668 L-403.1216,187.8055 L-402.5216,187.8055 L-402.5216,187.668 L-402.4966,187.668 Z" style="fill:#808080;fill-rule:evenodd;"/>
        <!-- Line -->
        <line x1="-402.528" y1="189.5525" x2="-402.503" y2="189.5525" style="stroke:#808080;stroke-width:0.0125;"/>
        <!-- Line -->
        <line x1="-402.528" y1="189.5525" x2="-402.528" y2="189.415" style="stroke:#808080;stroke-width:0.0125;"/>
        <!-- Line -->
        <line x1="-403.128" y1="189.415" x2="-402.528" y2="189.415" style="stroke:#808080;stroke-width:0.0125;"/>
        <!-- Line -->
        <line x1="-403.128" y1="189.5525" x2="-403.128" y2="189.415" style="stroke:#808080;stroke-width:0.0125;"/>
        <!-- Line -->
        <line x1="-403.153" y1="189.5525" x2="-403.128" y2="189.5525" style="stroke:#808080;stroke-width:0.0125;"/>
        <!-- Line -->
        <line x1="-403.153" y1="189.5525" x2="-403.153" y2="189.2525" style="stroke:#808080;stroke-width:0.0125;"/>
        <!-- Line -->
        <line x1="-403.153" y1="189.2525" x2="-403.128" y2="189.2525" style="stroke:#808080;stroke-width:0.0125;"/>
        <!-- Line -->
        <line x1="-403.128" y1="189.39" x2="-403.128" y2="189.2525" style="stroke:#808080;stroke-width:0.0125;"/>
        <!-- Line -->
        <line x1="-403.128" y1="189.39" x2="-402.528" y2="189.39" style="stroke:#808080;stroke-width:0.0125;"/>
        <!-- Line -->
        <line x1="-402.528" y1="189.39" x2="-402.528" y2="189.2525" style="stroke:#808080;stroke-width:0.0125;"/>
        <!-- Line -->
        <line x1="-402.503" y1="189.2525" x2="-402.528" y2="189.2525" style="stroke:#808080;stroke-width:0.0125;"/>
        <!-- Line -->
        <line x1="-402.503" y1="189.5525" x2="-402.503" y2="189.2525" style="stroke:#808080;stroke-width:0.0125;"/>
        <!-- Line -->
        <line x1="-402.5216" y1="187.968" x2="-402.4966" y2="187.968" style="stroke:#808080;stroke-width:0.0125;"/>
        <!-- Line -->
        <line x1="-402.5216" y1="187.968" x2="-402.5216" y2="187.8305" style="stroke:#808080;stroke-width:0.0125;"/>
        <!-- Line -->
        <line x1="-403.1216" y1="187.8305" x2="-402.5216" y2="187.8305" style="stroke:#808080;stroke-width:0.0125;"/>
        <!-- Line -->
        <line x1="-403.1216" y1="187.968" x2="-403.1216" y2="187.8305" style="stroke:#808080;stroke-width:0.0125;"/>
        <!-- Line -->
        <line x1="-403.1466" y1="187.968" x2="-403.1216" y2="187.968" style="stroke:#808080;stroke-width:0.0125;"/>
        <!-- Line -->
        <line x1="-403.1466" y1="187.968" x2="-403.1466" y2="187.668" style="stroke:#808080;stroke-width:0.0125;"/>
        <!-- Line -->
        <line x1="-403.1466" y1="187.668" x2="-403.1216" y2="187.668" style="stroke:#808080;stroke-width:0.0125;"/>
        <!-- Line -->
        <line x1="-403.1216" y1="187.8055" x2="-403.1216" y2="187.668" style="stroke:#808080;stroke-width:0.0125;"/>
        <!-- Line -->
        <line x1="-403.1216" y1="187.8055" x2="-402.5216" y2="187.8055" style="stroke:#808080;stroke-width:0.0125;"/>
        <!-- Line -->
        <line x1="-402.5216" y1="187.8055" x2="-402.5216" y2="187.668" style="stroke:#808080;stroke-width:0.0125;"/>
        <!-- Line -->
        <line x1="-402.4966" y1="187.668" x2="-402.5216" y2="187.668" style="stroke:#808080;stroke-width:0.0125;"/>
        <!-- Line -->
        <line x1="-402.4966" y1="187.968" x2="-402.4966" y2="187.668" style="stroke:#808080;stroke-width:0.0125;"/>
        <!-- Hatch -->
        <path d="M-406.7491,199.7928 L-406.5966,199.7928 L-406.5966,199.8433 L-406.9466,199.8433 L-406.9466,199.7928 L-406.7941,199.7928 L-406.7941,199.4158 L-407.1711,199.4158 L-407.1711,199.5683 L-407.2216,199.5683 L-407.2216,199.2183 L-407.1711,199.2183 L-407.1711,199.3708 L-406.7941,199.3708 L-406.7941,198.9939 L-406.9466,198.9939 L-406.9466,198.9433 L-406.5966,198.9433 L-406.5966,198.9939 L-406.7491,198.9939 L-406.7491,199.3708 L-406.3722,199.3708 L-406.3722,199.2183 L-406.3216,199.2183 L-406.3216,199.5683 L-406.3722,199.5683 L-406.3722,199.4158 L-406.7491,199.4158 Z" style="fill:#808080;fill-rule:evenodd;"/>
        <!-- Line -->
        <line x1="-406.3722" y1="199.5683" x2="-406.3722" y2="199.4158" style="stroke:#808080;stroke-width:0.0125;"/>
        <!-- Line -->
        <line x1="-406.3216" y1="199.5683" x2="-406.3722" y2="199.5683" style="stroke:#808080;stroke-width:0.0125;"/>
        <!-- Line -->
        <line x1="-406.3216" y1="199.2183" x2="-406.3216" y2="199.5683" style="stroke:#808080;stroke-width:0.0125;"/>
        <!-- Line -->
        <line x1="-406.3216" y1="199.2183" x2="-406.3722" y2="199.2183" style="stroke:#808080;stroke-width:0.0125;"/>
        <!-- Line -->
        <line x1="-406.3722" y1="199.3708" x2="-406.3722" y2="199.2183" style="stroke:#808080;stroke-width:0.0125;"/>
        <!-- Line -->
        <line x1="-406.5966" y1="198.9433" x2="-406.5966" y2="198.9939" style="stroke:#808080;stroke-width:0.0125;"/>
        <!-- Line -->
        <line x1="-406.5966" y1="199.8433" x2="-406.5966" y2="199.7928" style="stroke:#808080;stroke-width:0.0125;"/>
        <!-- Line -->
        <line x1="-406.7491" y1="199.4158" x2="-406.7491" y2="199.7928" style="stroke:#808080;stroke-width:0.0125;"/>
        <!-- Line -->
        <line x1="-406.7491" y1="198.9939" x2="-406.7491" y2="199.3708" style="stroke:#808080;stroke-width:0.0125;"/>
        <!-- Line -->
        <line x1="-406.9466" y1="198.9433" x2="-406.9466" y2="198.9939" style="stroke:#808080;stroke-width:0.0125;"/>
        <!-- Line -->
        <line x1="-406.7941" y1="198.9939" x2="-406.9466" y2="198.9939" style="stroke:#808080;stroke-width:0.0125;"/>
        <!-- Line -->
        <line x1="-406.7941" y1="198.9939" x2="-406.7941" y2="199.3708" style="stroke:#808080;stroke-width:0.0125;"/>
        <!-- Line -->
        <line x1="-406.7941" y1="199.3708" x2="-407.1711" y2="199.3708" style="stroke:#808080;stroke-width:0.0125;"/>
        <!-- Line -->
        <line x1="-406.7941" y1="199.4158" x2="-407.1711" y2="199.4158" style="stroke:#808080;stroke-width:0.0125;"/>
        <!-- Line -->
        <line x1="-406.7941" y1="199.4158" x2="-406.7941" y2="199.7928" style="stroke:#808080;stroke-width:0.0125;"/>
        <!-- Line -->
        <line x1="-406.7941" y1="199.7928" x2="-406.9466" y2="199.7928" style="stroke:#808080;stroke-width:0.0125;"/>
        <!-- Line -->
        <line x1="-406.9466" y1="199.8433" x2="-406.9466" y2="199.7928" style="stroke:#808080;stroke-width:0.0125;"/>
        <!-- Line -->
        <line x1="-406.3722" y1="199.4158" x2="-406.7491" y2="199.4158" style="stroke:#808080;stroke-width:0.0125;"/>
        <!-- Line -->
        <line x1="-406.3722" y1="199.3708" x2="-406.7491" y2="199.3708" style="stroke:#808080;stroke-width:0.0125;"/>
        <!-- Line -->
        <line x1="-406.5966" y1="198.9939" x2="-406.7491" y2="198.9939" style="stroke:#808080;stroke-width:0.0125;"/>
        <!-- Line -->
        <line x1="-406.9466" y1="198.9433" x2="-406.5966" y2="198.9433" style="stroke:#808080;stroke-width:0.0125;"/>
        <!-- Line -->
        <line x1="-406.9466" y1="199.8433" x2="-406.5966" y2="199.8433" style="stroke:#808080;stroke-width:0.0125;"/>
        <!-- Line -->
        <line x1="-406.5966" y1="199.7928" x2="-406.7491" y2="199.7928" style="stroke:#808080;stroke-width:0.0125;"/>
        <!-- Line -->
        <line x1="-407.1711" y1="199.3708" x2="-407.1711" y2="199.2183" style="stroke:#808080;stroke-width:0.0125;"/>
        <!-- Line -->
        <line x1="-407.2216" y1="199.2183" x2="-407.1711" y2="199.2183" style="stroke:#808080;stroke-width:0.0125;"/>
        <!-- Line -->
        <line x1="-407.2216" y1="199.2183" x2="-407.2216" y2="199.5683" style="stroke:#808080;stroke-width:0.0125;"/>
        <!-- Line -->
        <line x1="-407.2216" y1="199.5683" x2="-407.1711" y2="199.5683" style="stroke:#808080;stroke-width:0.0125;"/>
        <!-- Line -->
        <line x1="-407.1711" y1="199.5683" x2="-407.1711" y2="199.4158" style="stroke:#808080;stroke-width:0.0125;"/>
        <!-- Line -->
        <line x1="-400.5216" y1="189.9041" x2="-400.5216" y2="189.7642" style="stroke:#808080;stroke-width:0.0125;"/>
        <!-- Line -->
        <line x1="-398.1216" y1="189.9041" x2="-398.1216" y2="189.7642" style="stroke:#808080;stroke-width:0.0125;"/>
        <!-- Line -->
        <line x1="-398.1216" y1="189.7642" x2="-398.0716" y2="189.7641" style="stroke:#004c26;stroke-width:0.0125;"/>
        <!-- Line -->
        <line x1="-400.5216" y1="189.9041" x2="-398.1216" y2="189.9041" style="stroke:#004c26;stroke-width:0.0125;"/>
        <!-- Line -->
        <line x1="-400.4716" y1="189.7642" x2="-398.1716" y2="189.7642" style="stroke:#004c26;stroke-width:0.0125;"/>
        <!-- Line -->
        <line x1="-400.4716" y1="188.5942" x2="-399.3216" y2="189.7642" style="stroke:#004c26;stroke-width:0.0125;"/>
        <!-- Line -->
        <line x1="-399.3216" y1="189.7642" x2="-398.1716" y2="188.5942" style="stroke:#004c26;stroke-width:0.0125;"/>
        <!-- Text: 4 -->
        <text x="-402.7511" dx="0" y="-204.2361" dy="0.2" font-family="arial" font-size="0.28" line-height="1.1" fill="#808080" transform="scale(1,-1) rotate(360 -402.7511,-204.2361)" text-anchor="end">4</text>
        <!-- Circle -->
        <circle cx="-402.8216" cy="204.1311" r="0.2731" style="stroke:#808080;stroke-width:0.0125;stroke-dasharray:0.2381,0.0397,0.0397,0.0397;stroke-dashoffset:0.154"/>
        <!-- Line -->
        <line x1="-402.8216" y1="203.858" x2="-402.8216" y2="186.5037" style="stroke:#808080;stroke-width:0.0125;stroke-dasharray:0.2381,0.0397,0.0397,0.0397;stroke-dashoffset:0.0145"/>
        <!-- Circle -->
        <circle cx="-391.0919" cy="188.6241" r="0.2731" style="stroke:#808080;stroke-width:0.0125;stroke-dasharray:0.2381,0.0397,0.0397,0.0397;stroke-dashoffset:0.154"/>
        <!-- Text: F -->
        <text x="-391.0186" dx="0" y="-188.7291" dy="0.2" font-family="arial" font-size="0.28" line-height="1.1" fill="#808080" transform="scale(1,-1) rotate(360 -391.0186,-188.7291)" text-anchor="end">F</text>
        <!-- Circle -->
        <circle cx="-408.0275" cy="188.6241" r="0.2731" style="stroke:#808080;stroke-width:0.0125;stroke-dasharray:0.2381,0.0397,0.0397,0.0397;stroke-dashoffset:0.154"/>
        <!-- Text: F -->
        <text x="-407.9723" dx="0" y="-188.7291" dy="0.2" font-family="arial" font-size="0.28" line-height="1.1" fill="#808080" transform="scale(1,-1) rotate(360 -407.9723,-188.7291)" text-anchor="end">F</text>
        <!-- Line -->
        <line x1="-391.365" y1="188.6241" x2="-407.7544" y2="188.6241" style="stroke:#808080;stroke-width:0.0125;stroke-dasharray:0.2381,0.0397,0.0397,0.0397;stroke-dashoffset:0.1397"/>
        <!-- Circle -->
        <circle cx="-402.8216" cy="186.2306" r="0.2731" style="stroke:#808080;stroke-width:0.0125;stroke-dasharray:0.2381,0.0397,0.0397,0.0397;stroke-dashoffset:0.154"/>
        <!-- Text: 4 -->
        <text x="-402.7511" dx="0" y="-186.3356" dy="0.2" font-family="arial" font-size="0.28" line-height="1.1" fill="#808080" transform="scale(1,-1) rotate(360 -402.7511,-186.3356)" text-anchor="end">4</text>
        <!-- Line -->
        <line x1="-393.8216" y1="203.858" x2="-393.8216" y2="186.5037" style="stroke:#808080;stroke-width:0.0125;stroke-dasharray:0.2381,0.0397,0.0397,0.0397;stroke-dashoffset:0.0145"/>
        <!-- Text: 5 -->
        <text x="-393.7511" dx="0" y="-204.2402" dy="0.2" font-family="arial" font-size="0.28" line-height="1.1" fill="#808080" transform="scale(1,-1) rotate(360 -393.7511,-204.2402)" text-anchor="end">5</text>
        <!-- Circle -->
        <circle cx="-393.8216" cy="204.1311" r="0.2731" style="stroke:#808080;stroke-width:0.0125;stroke-dasharray:0.2381,0.0397,0.0397,0.0397;stroke-dashoffset:0.154"/>
        <!-- Text: 5 -->
        <text x="-393.7511" dx="0" y="-186.3397" dy="0.2" font-family="arial" font-size="0.28" line-height="1.1" fill="#808080" transform="scale(1,-1) rotate(360 -393.7511,-186.3397)" text-anchor="end">5</text>
        <!-- Circle -->
        <circle cx="-393.8216" cy="186.2306" r="0.2731" style="stroke:#808080;stroke-width:0.0125;stroke-dasharray:0.2381,0.0397,0.0397,0.0397;stroke-dashoffset:0.154"/>
        <!-- Line -->
        <line x1="-392.303" y1="189.5656" x2="-392.303" y2="186.6922" style="stroke:#808080;stroke-width:0.0125;"/>
        <!-- Line -->
        <line x1="-392.303" y1="186.6922" x2="-395.3658" y2="186.6922" style="stroke:#808080;stroke-width:0.0125;"/>
        <!-- Line -->
        <line x1="-395.3658" y1="186.6922" x2="-395.3658" y2="188.1868" style="stroke:#808080;stroke-width:0.0125;"/>
        <!-- Line -->
        <line x1="-395.5371" y1="188.1431" x2="-394.2958" y2="188.4597" style="stroke:#808080;stroke-width:0.0125;"/>
        <!-- Line -->
        <line x1="-394.4617" y1="188.4174" x2="-394.4617" y2="187.5656" style="stroke:#808080;stroke-width:0.0125;"/>
        <!-- Line -->
        <line x1="-394.4617" y1="187.5656" x2="-393.1843" y2="187.5656" style="stroke:#808080;stroke-width:0.0125;"/>
        <!-- Line -->
        <line x1="-393.1843" y1="187.5656" x2="-393.1843" y2="189.5656" style="stroke:#808080;stroke-width:0.0125;"/>
        <!-- Line -->
        <line x1="-393.1843" y1="189.5656" x2="-392.303" y2="189.5656" style="stroke:#808080;stroke-width:0.0125;"/>
        <!-- Line -->
        <line x1="-393.1843" y1="189.3156" x2="-392.303" y2="189.3156" style="stroke:#808080;stroke-width:0.0125;"/>
        <!-- Line -->
        <line x1="-393.1843" y1="189.0656" x2="-392.303" y2="189.0656" style="stroke:#808080;stroke-width:0.0125;"/>
        <!-- Line -->
        <line x1="-393.1843" y1="188.8156" x2="-392.303" y2="188.8156" style="stroke:#808080;stroke-width:0.0125;"/>
        <!-- Line -->
        <line x1="-393.1843" y1="188.5656" x2="-392.303" y2="188.5656" style="stroke:#808080;stroke-width:0.0125;"/>
        <!-- Line -->
        <line x1="-393.1843" y1="188.3156" x2="-392.303" y2="188.3156" style="stroke:#808080;stroke-width:0.0125;"/>
        <!-- Line -->
        <line x1="-393.1843" y1="188.0656" x2="-392.303" y2="188.0656" style="stroke:#808080;stroke-width:0.0125;"/>
        <!-- Line -->
        <line x1="-393.1843" y1="187.8156" x2="-392.303" y2="187.8156" style="stroke:#808080;stroke-width:0.0125;"/>
        <!-- Line -->
        <line x1="-393.1843" y1="187.5656" x2="-392.303" y2="187.5656" style="stroke:#808080;stroke-width:0.0125;"/>
        <!-- Line -->
        <line x1="-394.4617" y1="187.5656" x2="-394.4617" y2="187.2743" style="stroke:#808080;stroke-width:0.0125;"/>
        <!-- Line -->
        <line x1="-394.4617" y1="187.2743" x2="-394.4617" y2="186.6922" style="stroke:#808080;stroke-width:0.0125;"/>
        <!-- Line -->
        <line x1="-394.2117" y1="187.5656" x2="-394.2117" y2="186.6922" style="stroke:#808080;stroke-width:0.0125;"/>
        <!-- Line -->
        <line x1="-393.9617" y1="187.5656" x2="-393.9617" y2="186.6922" style="stroke:#808080;stroke-width:0.0125;"/>
        <!-- Line -->
        <line x1="-393.7117" y1="187.5656" x2="-393.7117" y2="186.6922" style="stroke:#808080;stroke-width:0.0125;"/>
        <!-- Line -->
        <line x1="-394.9043" y1="188.1886" x2="-394.9043" y2="187.1436" style="stroke:#808080;stroke-width:0.0125;"/>
        <!-- Line -->
        <line x1="-394.9043" y1="187.1436" x2="-392.739" y2="187.1436" style="stroke:#808080;stroke-width:0.0125;"/>
        <!-- Line -->
        <line x1="-392.739" y1="187.1436" x2="-392.739" y2="189.6786" style="stroke:#808080;stroke-width:0.0125;"/>
        <!-- Line -->
        <line x1="-394.9043" y1="188.1886" x2="-395.0064" y2="187.8361" style="stroke:#808080;stroke-width:0.0125;"/>
        <!-- Line -->
        <line x1="-394.9043" y1="188.1886" x2="-394.8022" y2="187.8361" style="stroke:#808080;stroke-width:0.0125;"/>
        <!-- Line -->
        <line x1="-395.3658" y1="187.8107" x2="-394.4617" y2="187.8107" style="stroke:#808080;stroke-width:0.0125;"/>
        <!-- Line -->
        <line x1="-395.3658" y1="188.0607" x2="-394.4617" y2="188.0607" style="stroke:#808080;stroke-width:0.0125;"/>
        <!-- Line -->
        <line x1="-394.8801" y1="188.3107" x2="-394.4617" y2="188.3107" style="stroke:#808080;stroke-width:0.0125;"/>
        <!-- Hatch -->
        <path d="M-394.1466,189.2525 L-394.1216,189.2525 L-394.1216,189.39 L-393.8216,189.39 L-393.8216,189.415 L-394.1216,189.415 L-394.1216,189.5525 L-394.1466,189.5525 ZM-393.8216,189.415 L-393.8216,189.39 L-393.5216,189.39 L-393.5216,189.2525 L-393.4966,189.2525 L-393.4966,189.5525 L-393.5216,189.5525 L-393.5216,189.415 ZM-394.1153,187.8305 L-394.1153,187.968 L-394.1403,187.968 L-394.1403,187.668 L-394.1153,187.668 L-394.1153,187.8055 L-393.8216,187.8055 L-393.8216,187.8305 ZM-393.8216,187.8305 L-393.8216,187.8055 L-393.5153,187.8055 L-393.5153,187.668 L-393.4903,187.668 L-393.4903,187.968 L-393.5153,187.968 L-393.5153,187.8305 Z" style="fill:#808080;fill-rule:evenodd;"/>
        <!-- Line -->
        <line x1="-394.0516" y1="198.9441" x2="-393.7716" y2="198.9441" style="stroke:#808080;stroke-width:0.0125;"/>
        <!-- Line -->
        <line x1="-394.0516" y1="198.1441" x2="-393.7716" y2="198.1441" style="stroke:#808080;stroke-width:0.0125;"/>
        <!-- Line -->
        <line x1="-393.7716" y1="198.9441" x2="-393.0216" y2="198.9441" style="stroke:#808080;stroke-width:0.0125;"/>
        <!-- Line -->
        <line x1="-393.0216" y1="198.9441" x2="-393.0216" y2="198.8941" style="stroke:#808080;stroke-width:0.0125;"/>
        <!-- Line -->
        <line x1="-393.7716" y1="198.8941" x2="-393.0216" y2="198.8941" style="stroke:#808080;stroke-width:0.0125;"/>
        <!-- Line -->
        <line x1="-393.7716" y1="198.9441" x2="-393.7716" y2="198.8941" style="stroke:#808080;stroke-width:0.0125;"/>
        <!-- Line -->
        <line x1="-394.0516" y1="198.9441" x2="-394.0516" y2="198.9941" style="stroke:#808080;stroke-width:0.0125;"/>
        <!-- Line -->
        <line x1="-393.7716" y1="198.9441" x2="-393.7716" y2="198.9941" style="stroke:#808080;stroke-width:0.0125;"/>
        <!-- Line -->
        <line x1="-393.7716" y1="198.1441" x2="-393.7716" y2="198.0941" style="stroke:#808080;stroke-width:0.0125;"/>
        <!-- Line -->
        <line x1="-394.0516" y1="198.1441" x2="-394.0516" y2="198.0941" style="stroke:#808080;stroke-width:0.0125;"/>
        <!-- Line -->
        <line x1="-393.7716" y1="198.8941" x2="-393.7716" y2="198.1441" style="stroke:#808080;stroke-width:0.0125;"/>
        <!-- Line -->
        <line x1="-393.7716" y1="198.1441" x2="-393.7716" y2="198.1441" style="stroke:#808080;stroke-width:0.0125;"/>
        <!-- Line -->
        <line x1="-394.0516" y1="198.9441" x2="-394.0516" y2="198.1441" style="stroke:#808080;stroke-width:0.0125;"/>
        <!-- Line -->
        <line x1="-393.0216" y1="198.8941" x2="-393.7716" y2="198.1441" style="stroke:#808080;stroke-width:0.0125;"/>
        <!-- Hatch -->
        <path d="M-395.9531,187.9704 L-397.6204,188.8023 L-397.6175,187.1384 ZM-397.6182,187.5544 L-397.6197,188.3863 L-399.5361,188.3863 L-399.5361,187.5544 Z" style="fill:#009900;fill-rule:evenodd;"/>
        <!-- Hatch -->
        <path d="M-402.5116,201.854 L-402.5116,201.9941 L-404.2716,201.9941 L-404.2716,189.6241 L-402.3216,189.6241 L-402.3216,189.9041 L-403.9916,189.9041 L-403.9916,201.7141 L-402.5116,201.7141 ZM-393.7716,201.9941 L-396.2616,201.9941 L-396.2616,201.7141 L-394.0516,201.7141 L-394.0516,198.9941 L-393.7716,198.9941 ZM-393.7716,198.0941 L-394.0516,198.0941 L-394.0516,189.9041 L-394.1216,189.9041 L-394.1216,189.7642 L-394.1216,189.6241 L-393.7716,189.6241 ZM-396.2716,189.9041 L-398.0716,189.9041 L-398.0716,189.7642 L-398.0716,189.6241 L-397.807,189.6241 L-395.3716,189.6241 L-395.3716,189.6491 L-395.4222,189.6491 L-395.4222,189.7766 L-396.2211,189.7766 L-396.2211,189.6491 L-396.2716,189.6491 ZM-400.5716,189.9041 L-401.0716,189.9041 L-401.0716,189.7642 L-401.0716,189.6241 L-400.5716,189.6241 Z" style="fill:#000000;fill-rule:evenodd;"/>
        <!-- Hatch -->
        <path d="M-396.2616,201.9941 L-402.5116,201.9941 L-402.5116,201.854 L-402.4316,201.854 L-401.3416,201.8541 L-401.2616,201.854 L-401.1816,201.854 L-400.0916,201.8541 L-400.0116,201.854 L-399.9316,201.854 L-398.8416,201.8541 L-398.7616,201.854 L-398.6816,201.854 L-397.5916,201.8541 L-397.5116,201.854 L-397.4316,201.854 L-396.3416,201.8541 L-396.2616,201.854 ZM-402.4316,201.854 L-402.5116,201.854 L-402.5116,201.7141 L-402.4316,201.7141 ZM-401.3416,201.8041 L-402.4316,201.8041 L-402.4316,201.7741 L-401.3416,201.7741 ZM-401.2616,201.854 L-401.3416,201.854 L-401.3416,201.7141 L-401.2616,201.7141 ZM-401.1816,201.854 L-401.2616,201.854 L-401.2616,201.7141 L-401.1816,201.7141 ZM-400.0916,201.8041 L-401.1816,201.8041 L-401.1816,201.7741 L-400.0916,201.7741 ZM-400.0116,201.854 L-400.0916,201.854 L-400.0916,201.7141 L-400.0116,201.7141 ZM-399.9316,201.854 L-400.0116,201.854 L-400.0116,201.7141 L-399.9316,201.7141 ZM-398.8416,201.8041 L-399.9316,201.8041 L-399.9316,201.7741 L-398.8416,201.7741 ZM-398.7616,201.854 L-398.8416,201.854 L-398.8416,201.7141 L-398.7616,201.7141 ZM-398.6816,201.854 L-398.7616,201.854 L-398.7616,201.7141 L-398.6816,201.7141 ZM-397.5916,201.8041 L-398.6816,201.8041 L-398.6816,201.7741 L-397.5916,201.7741 ZM-397.5116,201.854 L-397.5916,201.854 L-397.5916,201.7141 L-397.5116,201.7141 ZM-397.4316,201.854 L-397.5116,201.854 L-397.5116,201.7141 L-397.4316,201.7141 ZM-396.3416,201.8041 L-397.4316,201.8041 L-397.4316,201.7741 L-396.3416,201.7741 ZM-396.2616,201.854 L-396.3416,201.854 L-396.3416,201.7141 L-396.2616,201.7141 Z" style="fill:#c0c0c0;fill-rule:evenodd;"/>
        <!-- Hatch -->
        <path d="M-398.8416,201.8541 L-399.9316,201.8541 L-399.9316,201.8041 L-398.8416,201.8041 ZM-397.5916,201.8541 L-398.6816,201.8541 L-398.6816,201.8041 L-397.5916,201.8041 ZM-396.3416,201.8541 L-397.4316,201.8541 L-397.4316,201.8041 L-396.3416,201.8041 ZM-396.3416,201.7741 L-397.4316,201.7741 L-397.4316,201.7141 L-396.3416,201.7141 ZM-397.5916,201.7741 L-398.6816,201.7741 L-398.6816,201.7141 L-397.5916,201.7141 ZM-398.8416,201.7741 L-399.9316,201.7741 L-399.9316,201.7141 L-398.8416,201.7141 ZM-400.0916,201.8541 L-401.1816,201.8541 L-401.1816,201.8041 L-400.0916,201.8041 ZM-400.0916,201.7741 L-401.1816,201.7741 L-401.1816,201.7141 L-400.0916,201.7141 ZM-401.3416,201.7741 L-402.4316,201.7741 L-402.4316,201.7141 L-401.3416,201.7141 ZM-401.3416,201.8541 L-402.4316,201.8541 L-402.4316,201.8041 L-401.3416,201.8041 ZM-394.2016,189.8242 L-395.2916,189.8242 L-395.2916,189.7642 L-394.2016,189.7642 ZM-394.2016,189.9042 L-395.2916,189.9042 L-395.2916,189.8542 L-394.2016,189.8542 ZM-401.1516,189.8242 L-402.2416,189.8242 L-402.2416,189.7642 L-401.1516,189.7642 ZM-401.1516,189.9042 L-402.2416,189.9042 L-402.2416,189.8542 L-401.1516,189.8542 Z" style="fill:#00ff00;fill-rule:evenodd;"/>
        <!-- Hatch -->
        <path d="M-395.2916,189.9041 L-395.3716,189.9041 L-395.3716,189.7642 L-395.2916,189.7642 ZM-394.1216,189.7642 L-394.2016,189.7642 L-395.3016,189.7642 L-395.3716,189.7642 L-395.3716,189.6241 L-394.1216,189.6241 ZM-394.1216,189.9041 L-394.2016,189.9041 L-394.2016,189.7642 L-394.1216,189.7642 ZM-401.0716,189.7642 L-401.1516,189.7642 L-402.2516,189.7642 L-402.3216,189.7642 L-402.3216,189.6241 L-401.0716,189.6241 ZM-401.0716,189.9041 L-401.1516,189.9041 L-401.1516,189.7642 L-401.0716,189.7642 ZM-402.2416,189.9041 L-402.3216,189.9041 L-402.3216,189.7642 L-402.2516,189.7642 L-402.2416,189.7642 Z" style="fill:#c0c0c0;fill-rule:evenodd;"/>
        <!-- Hatch -->
        <path d="M-400.5216,189.9041 L-400.5716,189.9041 L-400.5716,189.7642 L-400.5216,189.7642 ZM-400.4716,189.7642 L-400.5216,189.7642 L-400.5216,188.5942 L-400.4716,188.5942 ZM-398.1216,189.7642 L-398.1716,189.7642 L-398.1716,188.5942 L-398.1216,188.5942 ZM-398.0716,189.9041 L-398.1216,189.9041 L-398.1216,189.7642 L-398.0716,189.7641 ZM-393.7716,198.9941 L-394.0516,198.9941 L-394.0516,198.9441 L-393.7716,198.9441 ZM-393.0216,198.9441 L-393.7716,198.9441 L-393.7716,198.8941 L-393.0216,198.8941 ZM-393.7716,198.1441 L-394.0516,198.1441 L-394.0516,198.0941 L-393.7716,198.0941 Z" style="fill:#636466;fill-rule:evenodd;"/>
        <!-- Hatch -->
        <path d="M-396.3368,201.6591 L-396.4568,201.6591 L-396.4568,200.7291 L-395.0441,200.7291 L-395.0441,199.3176 L-394.9068,199.3176 L-394.9068,200.8591 L-396.3368,200.8591 Z" style="fill:#00994c;fill-rule:evenodd;"/>
        <!-- Hatch -->
        <path d="M-396.1568,201.6591 L-396.3368,201.6591 L-396.3368,200.8591 L-396.1568,200.8591 ZM-395.9068,201.6591 L-396.1568,201.6591 L-396.1568,201.2619 L-395.9068,201.2619 ZM-395.6568,201.6591 L-395.9068,201.6591 L-395.9068,201.2619 L-395.6568,201.2619 ZM-395.4068,201.6591 L-395.6568,201.6591 L-395.6568,201.2619 L-395.4068,201.2619 ZM-395.1568,201.6591 L-395.4068,201.6591 L-395.4068,201.2619 L-395.1568,201.2619 ZM-394.9068,201.6591 L-395.1568,201.6591 L-395.1568,201.2619 L-394.9068,201.2619 ZM-394.9068,201.2619 L-395.1568,201.2619 L-395.1568,200.8591 L-394.9068,200.8591 ZM-395.1568,201.2619 L-395.4068,201.2619 L-395.4068,200.8591 L-395.1568,200.8591 ZM-395.4068,201.2619 L-395.6568,201.2619 L-395.6568,200.8591 L-395.4068,200.8591 ZM-395.6568,201.2619 L-395.9068,201.2619 L-395.9068,200.8591 L-395.6568,200.8591 ZM-395.9068,201.2619 L-396.1568,201.2619 L-396.1568,200.8591 L-395.9068,200.8591 ZM-394.5001,200.8591 L-394.9068,200.8591 L-394.9068,200.6091 L-394.5001,200.6091 ZM-394.1068,200.8591 L-394.5001,200.8591 L-394.5001,200.6091 L-394.1068,200.6091 ZM-394.1068,200.6091 L-394.5001,200.6091 L-394.5001,200.3591 L-394.1068,200.3591 ZM-394.5001,200.6091 L-394.9068,200.6091 L-394.9068,200.3591 L-394.5001,200.3591 ZM-394.5001,200.3591 L-394.9068,200.3591 L-394.9068,200.1091 L-394.5001,200.1091 ZM-394.1068,200.3591 L-394.5001,200.3591 L-394.5001,200.1091 L-394.1068,200.1091 ZM-394.1068,200.1091 L-394.5001,200.1091 L-394.5001,199.8591 L-394.1068,199.8591 ZM-394.5001,200.1091 L-394.9068,200.1091 L-394.9068,199.8591 L-394.5001,199.8591 ZM-394.5001,199.8591 L-394.9068,199.8591 L-394.9068,199.6091 L-394.5001,199.6091 ZM-394.1068,199.8591 L-394.5001,199.8591 L-394.5001,199.6091 L-394.1068,199.6091 ZM-394.1068,199.6091 L-394.5001,199.6091 L-394.5001,199.3176 L-394.1068,199.3176 ZM-394.5001,199.6091 L-394.9068,199.6091 L-394.9068,199.3176 L-394.5001,199.3176 ZM-392.739,189.5656 L-393.1843,189.5656 L-393.1843,189.3156 L-392.739,189.3156 ZM-392.303,189.5656 L-392.739,189.5656 L-392.739,189.3156 L-392.303,189.3156 ZM-392.303,189.3156 L-392.739,189.3156 L-392.739,189.0656 L-392.303,189.0656 ZM-392.739,189.3156 L-393.1843,189.3156 L-393.1843,189.0656 L-392.739,189.0656 ZM-392.739,189.0656 L-393.1843,189.0656 L-393.1843,188.8156 L-392.739,188.8156 ZM-392.739,188.8156 L-393.1843,188.8156 L-393.1843,188.5656 L-392.739,188.5656 ZM-392.739,188.5656 L-393.1843,188.5656 L-393.1843,188.3156 L-392.739,188.3156 ZM-392.739,188.3156 L-393.1843,188.3156 L-393.1843,188.0656 L-392.739,188.0656 ZM-392.739,188.0656 L-393.1843,188.0656 L-393.1843,187.8156 L-392.739,187.8156 ZM-392.739,187.8156 L-393.1843,187.8156 L-393.1843,187.5656 L-392.739,187.5656 ZM-392.303,187.8156 L-392.739,187.8156 L-392.739,187.5656 L-392.303,187.5656 ZM-392.303,188.0656 L-392.739,188.0656 L-392.739,187.8156 L-392.303,187.8156 ZM-392.303,188.3156 L-392.739,188.3156 L-392.739,188.0656 L-392.303,188.0656 ZM-392.303,188.5656 L-392.739,188.5656 L-392.739,188.3156 L-392.303,188.3156 ZM-392.303,188.8156 L-392.739,188.8156 L-392.739,188.5656 L-392.303,188.5656 ZM-392.303,189.0656 L-392.739,189.0656 L-392.739,188.8156 L-392.303,188.8156 ZM-393.7117,187.5656 L-393.9617,187.5656 L-393.9617,187.1436 L-393.7117,187.1436 ZM-393.9617,187.5656 L-394.2117,187.5656 L-394.2117,187.1436 L-393.9617,187.1436 ZM-394.2117,187.5656 L-394.4617,187.5656 L-394.4617,187.2743 L-394.4617,187.1436 L-394.2117,187.1436 ZM-394.2117,187.1436 L-394.4617,187.1436 L-394.4617,186.6922 L-394.2117,186.6922 ZM-393.9617,187.1436 L-394.2117,187.1436 L-394.2117,186.6922 L-393.9617,186.6922 ZM-393.7117,187.1436 L-393.9617,187.1436 L-393.9617,186.6922 L-393.7117,186.6922 ZM-394.4617,188.0607 L-394.9043,188.0607 L-394.9043,187.8107 L-394.4617,187.8107 ZM-394.4617,188.3107 L-394.8801,188.3107 L-395.3658,188.1868 L-395.3658,188.0607 L-394.9413,188.0607 L-394.9043,188.1886 L-394.8673,188.0607 L-394.4617,188.0607 ZM-394.4617,188.4174 L-394.8801,188.3107 L-394.4617,188.3107 ZM-395.3658,188.0607 L-395.3658,187.8107 L-394.9043,187.8107 L-394.9043,188.0607 Z" style="fill:#c0c0c0;fill-rule:evenodd;"/>
        <!-- Hatch -->
        <path d="M-394.9043,187.8107 L-395.3658,187.8107 L-395.3658,186.6922 L-394.4617,186.6922 L-394.4617,187.1436 L-394.9043,187.1436 ZM-394.4617,187.5656 L-394.4617,187.8107 L-394.9043,187.8107 L-394.9043,187.1436 L-394.4617,187.1436 L-394.4617,187.2743 ZM-392.739,187.5656 L-393.1843,187.5656 L-393.7117,187.5656 L-393.7117,187.1436 L-392.739,187.1436 ZM-392.303,187.5656 L-392.739,187.5656 L-392.739,187.1436 L-393.7117,187.1436 L-393.7117,186.6922 L-392.303,186.6922 ZM-398.1716,189.7642 L-399.3216,189.7642 L-398.201,188.6241 L-398.1716,188.6241 ZM-399.3216,189.7642 L-400.4716,189.7642 L-400.4716,188.6241 L-400.4422,188.6241 Z" style="fill:#d7ebd2;fill-rule:evenodd;"/>
        <!-- Hatch -->
        <path d="M-398.1216,189.9041 L-400.5216,189.9041 L-400.5216,189.7642 L-400.4716,189.7642 L-398.1716,189.7642 L-398.1216,189.7642 Z" style="fill:#009926;fill-rule:evenodd;"/>
        <!-- Hatch -->
        <path d="M-393.8216,198.9441 L-394.0516,198.9441 L-394.0516,198.1441 L-393.8216,198.1441 Z" style="fill:#009926;fill-rule:evenodd;"/>
        <!-- Hatch -->
        <path d="M-394.1068,201.6591 L-394.9068,201.6591 L-394.9068,201.2619 L-394.5001,201.2619 L-394.5001,200.8591 L-394.1068,200.8591 ZM-394.5001,201.2619 L-394.9068,201.2619 L-394.9068,200.8591 L-394.5001,200.8591 Z" style="fill:#d7ebd2;fill-rule:evenodd;"/>
    </g>
</svg>
