<?xml version="1.0" encoding="UTF-8"?>
<!-- 2020-09-03 16:56:33 Generated by QCAD 3.24.3 SVG Exporter PG -->
<svg width="568.373mm" height="400.2716mm" viewBox="-429.7339 -190.4667 28.4187 20.0136" version="1.1" xmlns="http://www.w3.org/2000/svg" style="stroke-linecap:round;stroke-linejoin:round;fill:none">
    <g transform="scale(1,-1)">
        <!-- Line -->
        <line x1="-428.8339" y1="175.4764" x2="-402.2152" y2="175.4764" style="stroke:#808080;stroke-width:0.0125;stroke-dasharray:0.2381,0.0397,0.0397,0.0397;stroke-dashoffset:0.0257"/>
        <!-- Circle -->
        <circle cx="-401.9152" cy="175.4764" r="0.3" style="stroke:#808080;stroke-width:0.0125;"/>
        <!-- Text: F -->
        <text x="-401.8291" dx="0" y="-175.5814" dy="0.2" font-family="arial" font-size="0.28" line-height="1.1" fill="#808080" transform="scale(1,-1) rotate(360 -401.8291,-175.5814)" text-anchor="end">F</text>
        <!-- Line -->
        <line x1="-415.4628" y1="189.5936" x2="-415.4628" y2="171.3532" style="stroke:#808080;stroke-width:0.0125;stroke-dasharray:0.2381,0.0397,0.0397,0.0397;stroke-dashoffset:0.1071"/>
        <!-- Text: 1 -->
        <text x="-415.4271" dx="0" y="-189.9726" dy="0.2" font-family="arial" font-size="0.28" line-height="1.1" fill="#808080" transform="scale(1,-1) rotate(360 -415.4271,-189.9726)" text-anchor="end">1</text>
        <!-- Circle -->
        <circle cx="-415.4628" cy="189.8667" r="0.3" style="stroke:#808080;stroke-width:0.0125;"/>
        <!-- Line -->
        <line x1="-407.1928" y1="187.4914" x2="-407.1928" y2="174.6764" style="stroke:#004c26;stroke-width:0.0125;"/>
        <!-- Line -->
        <line x1="-416.8328" y1="187.4914" x2="-416.8328" y2="176.7564" style="stroke:#004c26;stroke-width:0.0125;"/>
        <!-- Line -->
        <line x1="-417.1128" y1="187.7714" x2="-417.1128" y2="176.4764" style="stroke:#004c26;stroke-width:0.0125;"/>
        <!-- Line -->
        <line x1="-406.9128" y1="187.7714" x2="-406.9128" y2="174.3964" style="stroke:#004c26;stroke-width:0.0125;"/>
        <!-- Line -->
        <line x1="-419.7128" y1="173.3714" x2="-403.9628" y2="173.3714" style="stroke:#808080;stroke-width:0.0125;"/>
        <!-- Line -->
        <line x1="-419.6878" y1="173.3964" x2="-403.9878" y2="173.3964" style="stroke:#808080;stroke-width:0.0125;"/>
        <!-- Hatch -->
        <path d="M-413.4428,177.3477 L-413.3069,177.3477 L-413.3069,177.3977 L-413.6187,177.3977 L-413.6187,177.3477 L-413.4828,177.3477 L-413.4828,176.7964 L-413.8648,176.7964 L-413.8648,176.9323 L-413.9148,176.9323 L-413.9148,176.6205 L-413.8648,176.6205 L-413.8648,176.7564 L-413.0646,176.7564 L-413.0646,176.6205 L-413.0108,176.6205 L-413.0108,176.9323 L-413.0608,176.9323 L-413.0608,176.7964 L-413.4428,176.7964 Z" style="fill:#004c26;fill-rule:evenodd;"/>
        <!-- Line -->
        <line x1="-413.4428" y1="176.7964" x2="-413.0608" y2="176.7964" style="stroke:#808080;stroke-width:0.0125;"/>
        <!-- Line -->
        <line x1="-413.8648" y1="176.7564" x2="-413.0646" y2="176.7564" style="stroke:#808080;stroke-width:0.0125;"/>
        <!-- Line -->
        <line x1="-413.4628" y1="174.6764" x2="-412.2128" y2="174.6764" style="stroke:#004c26;stroke-width:0.0125;"/>
        <!-- Line -->
        <line x1="-413.6028" y1="174.3964" x2="-412.2128" y2="174.3964" style="stroke:#004c26;stroke-width:0.0125;"/>
        <!-- Line -->
        <line x1="-419.1876" y1="175.3578" x2="-419.1876" y2="173.9964" style="stroke:#000000;stroke-width:0.0125;"/>
        <!-- Line -->
        <line x1="-419.6878" y1="175.1786" x2="-419.6878" y2="173.3964" style="stroke:#808080;stroke-width:0.0125;"/>
        <!-- Line -->
        <line x1="-419.7128" y1="175.1696" x2="-419.7128" y2="173.3714" style="stroke:#808080;stroke-width:0.0125;"/>
        <!-- Line -->
        <line x1="-417.9755" y1="176.8764" x2="-417.9755" y2="173.9964" style="stroke:#000000;stroke-width:0.0125;"/>
        <!-- Line -->
        <line x1="-416.5678" y1="174.3714" x2="-416.5678" y2="173.3964" style="stroke:#000000;stroke-width:0.0125;"/>
        <!-- Line -->
        <line x1="-416.7978" y1="174.3714" x2="-416.7978" y2="173.3964" style="stroke:#000000;stroke-width:0.0125;"/>
        <!-- Line -->
        <line x1="-417.0278" y1="174.3714" x2="-417.0278" y2="173.3964" style="stroke:#000000;stroke-width:0.0125;"/>
        <!-- Line -->
        <line x1="-417.2578" y1="174.3714" x2="-417.2578" y2="173.3964" style="stroke:#000000;stroke-width:0.0125;"/>
        <!-- Line -->
        <line x1="-427.2578" y1="176.3364" x2="-427.2578" y2="172.8564" style="stroke:#004c26;stroke-width:0.0125;"/>
        <!-- Line -->
        <line x1="-427.3978" y1="176.4764" x2="-427.3978" y2="172.6564" style="stroke:#004c26;stroke-width:0.0125;"/>
        <!-- Line -->
        <line x1="-420.0128" y1="176.3364" x2="-420.0128" y2="173.0564" style="stroke:#004c26;stroke-width:0.0125;"/>
        <!-- Line -->
        <line x1="-419.8728" y1="176.4764" x2="-419.8728" y2="173.0564" style="stroke:#004c26;stroke-width:0.0125;"/>
        <!-- Line -->
        <line x1="-419.8728" y1="172.6564" x2="-427.3978" y2="172.6564" style="stroke:#004c26;stroke-width:0.0125;"/>
        <!-- Line -->
        <line x1="-419.8728" y1="172.8564" x2="-427.2578" y2="172.8564" style="stroke:#004c26;stroke-width:0.0125;"/>
        <!-- Line -->
        <line x1="-417.9755" y1="173.9964" x2="-419.1876" y2="173.9964" style="stroke:#000000;stroke-width:0.0125;"/>
        <!-- Line -->
        <line x1="-419.9428" y1="173.0564" x2="-419.9428" y2="172.8564" style="stroke:#004c26;stroke-width:0.0125;"/>
        <!-- Line -->
        <line x1="-419.8728" y1="172.8564" x2="-419.8728" y2="172.6564" style="stroke:#004c26;stroke-width:0.0125;"/>
        <!-- Line -->
        <line x1="-419.8728" y1="173.0564" x2="-420.0128" y2="173.0564" style="stroke:#004c26;stroke-width:0.0125;"/>
        <!-- Line -->
        <line x1="-416.5678" y1="173.8839" x2="-417.4957" y2="173.8839" style="stroke:#000000;stroke-width:0.0125;"/>
        <!-- Line -->
        <line x1="-416.5678" y1="173.8839" x2="-416.7286" y2="173.715" style="stroke:#000000;stroke-width:0.0125;"/>
        <!-- Line -->
        <line x1="-416.5678" y1="173.8839" x2="-416.7286" y2="174.0528" style="stroke:#000000;stroke-width:0.0125;"/>
        <!-- Line -->
        <line x1="-427.3728" y1="177.4514" x2="-417.4878" y2="177.4514" style="stroke:#808080;stroke-width:0.0125;"/>
        <!-- Line -->
        <line x1="-427.3978" y1="177.4764" x2="-417.4628" y2="177.4764" style="stroke:#808080;stroke-width:0.0125;"/>
        <!-- Line -->
        <line x1="-424.7878" y1="176.3364" x2="-425.3128" y2="176.3364" style="stroke:#004c26;stroke-width:0.0125;"/>
        <!-- Line -->
        <line x1="-423.0128" y1="176.4764" x2="-425.3128" y2="176.4764" style="stroke:#004c26;stroke-width:0.0125;"/>
        <!-- Line -->
        <line x1="-426.4728" y1="177.4243" x2="-425.3628" y2="176.4764" style="stroke:#004c26;stroke-width:0.0125;"/>
        <!-- Line -->
        <line x1="-426.4728" y1="176.4764" x2="-426.4728" y2="177.4243" style="stroke:#004c26;stroke-width:0.0125;"/>
        <!-- Line -->
        <line x1="-426.5128" y1="176.4764" x2="-426.5128" y2="177.4243" style="stroke:#004c26;stroke-width:0.0125;"/>
        <!-- Line -->
        <line x1="-427.3728" y1="176.4764" x2="-427.3728" y2="177.4514" style="stroke:#808080;stroke-width:0.0125;"/>
        <!-- Line -->
        <line x1="-427.3978" y1="176.4764" x2="-427.3978" y2="177.4764" style="stroke:#808080;stroke-width:0.0125;"/>
        <!-- Line -->
        <line x1="-426.5128" y1="176.3364" x2="-425.3628" y2="176.3364" style="stroke:#004c26;stroke-width:0.0125;"/>
        <!-- Line -->
        <line x1="-426.4728" y1="176.4764" x2="-426.5128" y2="176.4764" style="stroke:#004c26;stroke-width:0.0125;"/>
        <!-- Line -->
        <line x1="-426.5628" y1="176.3364" x2="-427.2578" y2="176.3364" style="stroke:#004c26;stroke-width:0.0125;"/>
        <!-- Line -->
        <line x1="-426.5628" y1="176.4764" x2="-427.3978" y2="176.4764" style="stroke:#004c26;stroke-width:0.0125;"/>
        <!-- Line -->
        <line x1="-426.5628" y1="176.3364" x2="-426.5128" y2="176.3364" style="stroke:#004c26;stroke-width:0.0125;"/>
        <!-- Line -->
        <line x1="-426.5128" y1="176.4764" x2="-426.5628" y2="176.4764" style="stroke:#004c26;stroke-width:0.0125;"/>
        <!-- Line -->
        <line x1="-426.5128" y1="176.3364" x2="-426.5128" y2="176.4764" style="stroke:#004c26;stroke-width:0.0125;"/>
        <!-- Line -->
        <line x1="-426.5628" y1="176.3364" x2="-426.5628" y2="176.4764" style="stroke:#004c26;stroke-width:0.0125;"/>
        <!-- Line -->
        <line x1="-426.4728" y1="176.4764" x2="-425.3628" y2="176.4764" style="stroke:#004c26;stroke-width:0.0125;"/>
        <!-- Line -->
        <line x1="-425.3628" y1="176.3364" x2="-425.3128" y2="176.3364" style="stroke:#004c26;stroke-width:0.0125;"/>
        <!-- Line -->
        <line x1="-425.3628" y1="176.4764" x2="-425.3128" y2="176.4764" style="stroke:#004c26;stroke-width:0.0125;"/>
        <!-- Line -->
        <line x1="-425.3628" y1="176.3364" x2="-425.3628" y2="176.4764" style="stroke:#004c26;stroke-width:0.0125;"/>
        <!-- Line -->
        <line x1="-425.3128" y1="176.3364" x2="-425.3128" y2="176.4764" style="stroke:#004c26;stroke-width:0.0125;"/>
        <!-- Line -->
        <line x1="-426.4728" y1="177.4243" x2="-426.5128" y2="177.4243" style="stroke:#808080;stroke-width:0.0125;"/>
        <!-- Line -->
        <line x1="-419.1876" y1="175.4479" x2="-419.0187" y2="175.6088" style="stroke:#000000;stroke-width:0.0125;"/>
        <!-- Line -->
        <line x1="-419.1876" y1="176.8764" x2="-417.9755" y2="176.8764" style="stroke:#000000;stroke-width:0.0125;"/>
        <!-- Line -->
        <line x1="-419.0867" y1="175.2986" x2="-418.6623" y2="175.4506" style="stroke:#000000;stroke-width:0.0125;"/>
        <!-- Line -->
        <line x1="-419.1019" y1="175.3625" x2="-418.6623" y2="175.52" style="stroke:#000000;stroke-width:0.0125;"/>
        <!-- Line -->
        <line x1="-419.6878" y1="174.6275" x2="-418.6873" y2="174.6275" style="stroke:#000000;stroke-width:0.0125;"/>
        <!-- Line -->
        <line x1="-419.6878" y1="175.0897" x2="-418.6873" y2="175.0897" style="stroke:#000000;stroke-width:0.0125;"/>
        <!-- Line -->
        <line x1="-419.6878" y1="174.8586" x2="-418.6873" y2="174.8586" style="stroke:#000000;stroke-width:0.0125;"/>
        <!-- Line -->
        <line x1="-419.6878" y1="175.0897" x2="-418.6873" y2="175.0897" style="stroke:#000000;stroke-width:0.0125;"/>
        <!-- Line -->
        <line x1="-419.6878" y1="175.5519" x2="-418.6873" y2="175.5519" style="stroke:#000000;stroke-width:0.0125;"/>
        <!-- Line -->
        <line x1="-419.6878" y1="175.783" x2="-418.6873" y2="175.783" style="stroke:#000000;stroke-width:0.0125;"/>
        <!-- Line -->
        <line x1="-419.6878" y1="176.0141" x2="-418.6873" y2="176.0141" style="stroke:#000000;stroke-width:0.0125;"/>
        <!-- Line -->
        <line x1="-419.6878" y1="176.2453" x2="-418.6873" y2="176.2453" style="stroke:#000000;stroke-width:0.0125;"/>
        <!-- Line -->
        <line x1="-418.6873" y1="174.3964" x2="-419.6878" y2="174.3964" style="stroke:#000000;stroke-width:0.0125;"/>
        <!-- Line -->
        <line x1="-421.1028" y1="177.4243" x2="-422.0328" y2="176.4764" style="stroke:#004c26;stroke-width:0.0125;"/>
        <!-- Line -->
        <line x1="-422.9228" y1="177.4243" x2="-422.0328" y2="176.4764" style="stroke:#004c26;stroke-width:0.0125;"/>
        <!-- Line -->
        <line x1="-421.0628" y1="176.4764" x2="-421.0628" y2="177.4243" style="stroke:#004c26;stroke-width:0.0125;"/>
        <!-- Line -->
        <line x1="-421.1028" y1="176.4764" x2="-421.1028" y2="177.4243" style="stroke:#004c26;stroke-width:0.0125;"/>
        <!-- Line -->
        <line x1="-422.9628" y1="176.4764" x2="-422.9628" y2="177.4243" style="stroke:#004c26;stroke-width:0.0125;"/>
        <!-- Line -->
        <line x1="-422.9228" y1="176.4764" x2="-422.9228" y2="177.4243" style="stroke:#004c26;stroke-width:0.0125;"/>
        <!-- Line -->
        <line x1="-419.1876" y1="175.4479" x2="-419.1876" y2="176.8764" style="stroke:#000000;stroke-width:0.0125;"/>
        <!-- Line -->
        <line x1="-420.7528" y1="176.9275" x2="-420.592" y2="176.7586" style="stroke:#808080;stroke-width:0.0125;"/>
        <!-- Line -->
        <line x1="-420.7528" y1="176.4764" x2="-420.7528" y2="177.4522" style="stroke:#000000;stroke-width:0.0125;"/>
        <!-- Line -->
        <line x1="-420.5328" y1="176.4764" x2="-420.5328" y2="177.4522" style="stroke:#000000;stroke-width:0.0125;"/>
        <!-- Line -->
        <line x1="-420.3128" y1="176.4764" x2="-420.3128" y2="177.4522" style="stroke:#000000;stroke-width:0.0125;"/>
        <!-- Line -->
        <line x1="-420.0928" y1="176.4764" x2="-420.0928" y2="177.4522" style="stroke:#000000;stroke-width:0.0125;"/>
        <!-- Line -->
        <line x1="-419.8728" y1="176.4764" x2="-419.8728" y2="177.4522" style="stroke:#000000;stroke-width:0.0125;"/>
        <!-- Line -->
        <line x1="-422.9628" y1="176.4764" x2="-421.1028" y2="176.4764" style="stroke:#004c26;stroke-width:0.0125;"/>
        <!-- Hatch -->
        <g>
            <path d="M-424.2077,174.6843 L-424.1628,174.7292" style="stroke:#004c26;stroke-width:0.0125;"/>
            <path d="M-424.2961,174.6843 L-424.1628,174.8176" style="stroke:#004c26;stroke-width:0.0125;"/>
            <path d="M-424.1586,174.8218 L-424.1378,174.8426" style="stroke:#004c26;stroke-width:0.0125;"/>
            <path d="M-424.3845,174.6843 L-424.1378,174.931" style="stroke:#004c26;stroke-width:0.0125;"/>
            <path d="M-424.4729,174.6843 L-424.1378,175.0194" style="stroke:#004c26;stroke-width:0.0125;"/>
            <path d="M-424.5612,174.6843 L-424.1378,175.1078" style="stroke:#004c26;stroke-width:0.0125;"/>
            <path d="M-424.6496,174.6843 L-424.1378,175.1962" style="stroke:#004c26;stroke-width:0.0125;"/>
            <path d="M-424.738,174.6843 L-424.1378,175.2846" style="stroke:#004c26;stroke-width:0.0125;"/>
            <path d="M-424.7628,174.7479 L-424.1378,175.3729" style="stroke:#004c26;stroke-width:0.0125;"/>
            <path d="M-424.7773,174.8218 L-424.1378,175.4613" style="stroke:#004c26;stroke-width:0.0125;"/>
            <path d="M-424.7878,174.8997 L-424.1378,175.5497" style="stroke:#004c26;stroke-width:0.0125;"/>
            <path d="M-424.7878,174.9881 L-424.1378,175.6381" style="stroke:#004c26;stroke-width:0.0125;"/>
            <path d="M-424.7878,175.0765 L-424.1378,175.7265" style="stroke:#004c26;stroke-width:0.0125;"/>
            <path d="M-424.7878,175.1649 L-424.1378,175.8149" style="stroke:#004c26;stroke-width:0.0125;"/>
            <path d="M-424.7878,175.2533 L-424.1378,175.9033" style="stroke:#004c26;stroke-width:0.0125;"/>
            <path d="M-424.7878,175.3417 L-424.1378,175.9917" style="stroke:#004c26;stroke-width:0.0125;"/>
            <path d="M-424.7878,175.43 L-424.1378,176.08" style="stroke:#004c26;stroke-width:0.0125;"/>
            <path d="M-424.7878,175.5184 L-424.1628,176.1434" style="stroke:#004c26;stroke-width:0.0125;"/>
            <path d="M-424.7878,175.6068 L-424.1628,176.2318" style="stroke:#004c26;stroke-width:0.0125;"/>
            <path d="M-424.7878,175.6952 L-424.2391,176.2439" style="stroke:#004c26;stroke-width:0.0125;"/>
            <path d="M-424.7878,175.7836 L-424.3275,176.2439" style="stroke:#004c26;stroke-width:0.0125;"/>
            <path d="M-424.7878,175.872 L-424.4159,176.2439" style="stroke:#004c26;stroke-width:0.0125;"/>
            <path d="M-424.7878,175.9604 L-424.5043,176.2439" style="stroke:#004c26;stroke-width:0.0125;"/>
            <path d="M-424.7878,176.0488 L-424.5927,176.2439" style="stroke:#004c26;stroke-width:0.0125;"/>
            <path d="M-424.7628,176.1622 L-424.6811,176.2439" style="stroke:#004c26;stroke-width:0.0125;"/>
        </g>
        <!-- Line -->
        <line x1="-424.1378" y1="176.1064" x2="-424.1378" y2="174.8218" style="stroke:#808080;stroke-width:0.0125;"/>
        <!-- Line -->
        <line x1="-424.7878" y1="176.1064" x2="-424.7878" y2="174.8218" style="stroke:#808080;stroke-width:0.0125;"/>
        <!-- Hatch -->
        <path d="M-424.1378,174.8218 L-424.1628,174.8218 L-424.1628,174.6843 L-424.7628,174.6843 L-424.7628,174.8218 L-424.7878,174.8218 L-424.7878,174.5218 L-424.7628,174.5218 L-424.7628,174.6593 L-424.1628,174.6593 L-424.1628,174.5218 L-424.1378,174.5218 Z" style="fill:#004c26;fill-rule:evenodd;"/>
        <!-- Line -->
        <line x1="-424.7628" y1="174.6593" x2="-424.1628" y2="174.6593" style="stroke:#004c26;stroke-width:0.0125;"/>
        <!-- Line -->
        <line x1="-424.7628" y1="174.6843" x2="-424.1628" y2="174.6843" style="stroke:#004c26;stroke-width:0.0125;"/>
        <!-- Line -->
        <line x1="-424.7628" y1="174.6593" x2="-424.7628" y2="174.5218" style="stroke:#004c26;stroke-width:0.0125;"/>
        <!-- Line -->
        <line x1="-424.7878" y1="174.8218" x2="-424.7878" y2="174.5218" style="stroke:#004c26;stroke-width:0.0125;"/>
        <!-- Line -->
        <line x1="-424.7878" y1="174.5218" x2="-424.7628" y2="174.5218" style="stroke:#004c26;stroke-width:0.0125;"/>
        <!-- Line -->
        <line x1="-424.7878" y1="174.8218" x2="-424.7628" y2="174.8218" style="stroke:#004c26;stroke-width:0.0125;"/>
        <!-- Line -->
        <line x1="-424.7628" y1="174.8218" x2="-424.7628" y2="174.6843" style="stroke:#004c26;stroke-width:0.0125;"/>
        <!-- Line -->
        <line x1="-424.1378" y1="174.8218" x2="-424.1378" y2="174.5218" style="stroke:#004c26;stroke-width:0.0125;"/>
        <!-- Line -->
        <line x1="-424.1628" y1="174.6593" x2="-424.1628" y2="174.5218" style="stroke:#004c26;stroke-width:0.0125;"/>
        <!-- Line -->
        <line x1="-424.1378" y1="174.5218" x2="-424.1628" y2="174.5218" style="stroke:#004c26;stroke-width:0.0125;"/>
        <!-- Line -->
        <line x1="-424.1628" y1="174.8218" x2="-424.1628" y2="174.6843" style="stroke:#004c26;stroke-width:0.0125;"/>
        <!-- Line -->
        <line x1="-424.1628" y1="174.8218" x2="-424.1378" y2="174.8218" style="stroke:#004c26;stroke-width:0.0125;"/>
        <!-- Line -->
        <line x1="-423.0128" y1="176.3364" x2="-424.1378" y2="176.3364" style="stroke:#004c26;stroke-width:0.0125;"/>
        <!-- Hatch -->
        <path d="M-424.7628,176.2689 L-424.7628,176.4064 L-424.7878,176.4064 L-424.7878,176.1064 L-424.7628,176.1064 L-424.7628,176.2439 L-424.1628,176.2439 L-424.1628,176.1064 L-424.1378,176.1064 L-424.1378,176.4064 L-424.1628,176.4064 L-424.1628,176.2689 Z" style="fill:#004c26;fill-rule:evenodd;"/>
        <!-- Line -->
        <line x1="-424.1378" y1="176.4064" x2="-424.1378" y2="176.1064" style="stroke:#004c26;stroke-width:0.0125;"/>
        <!-- Line -->
        <line x1="-424.1628" y1="176.2439" x2="-424.1628" y2="176.1064" style="stroke:#004c26;stroke-width:0.0125;"/>
        <!-- Line -->
        <line x1="-424.7628" y1="176.2439" x2="-424.7628" y2="176.1064" style="stroke:#004c26;stroke-width:0.0125;"/>
        <!-- Line -->
        <line x1="-424.7878" y1="176.4064" x2="-424.7878" y2="176.1064" style="stroke:#004c26;stroke-width:0.0125;"/>
        <!-- Line -->
        <line x1="-424.7878" y1="176.1064" x2="-424.7628" y2="176.1064" style="stroke:#004c26;stroke-width:0.0125;"/>
        <!-- Line -->
        <line x1="-424.1378" y1="176.1064" x2="-424.1628" y2="176.1064" style="stroke:#004c26;stroke-width:0.0125;"/>
        <!-- Line -->
        <line x1="-424.1628" y1="176.3364" x2="-424.7628" y2="176.3364" style="stroke:#004c26;stroke-width:0.0125;"/>
        <!-- Line -->
        <line x1="-424.7628" y1="176.2439" x2="-424.1628" y2="176.2439" style="stroke:#004c26;stroke-width:0.0125;"/>
        <!-- Line -->
        <line x1="-424.7628" y1="176.2689" x2="-424.1628" y2="176.2689" style="stroke:#004c26;stroke-width:0.0125;"/>
        <!-- Line -->
        <line x1="-424.7878" y1="176.4064" x2="-424.7628" y2="176.4064" style="stroke:#004c26;stroke-width:0.0125;"/>
        <!-- Line -->
        <line x1="-424.7628" y1="176.4064" x2="-424.7628" y2="176.2689" style="stroke:#004c26;stroke-width:0.0125;"/>
        <!-- Line -->
        <line x1="-424.1628" y1="176.4064" x2="-424.1628" y2="176.2689" style="stroke:#004c26;stroke-width:0.0125;"/>
        <!-- Line -->
        <line x1="-424.1628" y1="176.4064" x2="-424.1378" y2="176.4064" style="stroke:#004c26;stroke-width:0.0125;"/>
        <!-- Line -->
        <line x1="-422.9628" y1="176.3364" x2="-422.9628" y2="176.4764" style="stroke:#004c26;stroke-width:0.0125;"/>
        <!-- Line -->
        <line x1="-422.9628" y1="176.4764" x2="-423.0128" y2="176.4764" style="stroke:#004c26;stroke-width:0.0125;"/>
        <!-- Line -->
        <line x1="-423.0128" y1="176.3364" x2="-422.9628" y2="176.3364" style="stroke:#004c26;stroke-width:0.0125;"/>
        <!-- Line -->
        <line x1="-422.9228" y1="176.4764" x2="-422.9628" y2="176.4764" style="stroke:#004c26;stroke-width:0.0125;"/>
        <!-- Line -->
        <line x1="-423.0128" y1="176.4764" x2="-423.0128" y2="176.3364" style="stroke:#004c26;stroke-width:0.0125;"/>
        <!-- Line -->
        <line x1="-419.1876" y1="175.4479" x2="-419.3565" y2="175.6088" style="stroke:#000000;stroke-width:0.0125;"/>
        <!-- Line -->
        <line x1="-419.6878" y1="176.5014" x2="-419.6878" y2="175.2479" style="stroke:#808080;stroke-width:0.0125;"/>
        <!-- Line -->
        <line x1="-419.7128" y1="176.4764" x2="-419.7128" y2="175.239" style="stroke:#808080;stroke-width:0.0125;"/>
        <!-- Line -->
        <line x1="-419.2908" y1="175.3208" x2="-419.1164" y2="175.3208" style="stroke:#000000;stroke-width:0.0125;"/>
        <!-- Line -->
        <line x1="-419.1728" y1="175.3631" x2="-419.0867" y2="175.2986" style="stroke:#000000;stroke-width:0.0125;"/>
        <!-- Line -->
        <line x1="-419.7429" y1="175.1589" x2="-419.1728" y2="175.3631" style="stroke:#000000;stroke-width:0.0125;"/>
        <!-- Line -->
        <line x1="-419.188" y1="175.427" x2="-419.1019" y2="175.3625" style="stroke:#000000;stroke-width:0.0125;"/>
        <!-- Line -->
        <line x1="-419.7581" y1="175.2228" x2="-419.188" y2="175.427" style="stroke:#000000;stroke-width:0.0125;"/>
        <!-- Line -->
        <line x1="-419.6878" y1="175.3208" x2="-419.4844" y2="175.3208" style="stroke:#808080;stroke-width:0.0125;"/>
        <!-- Line -->
        <line x1="-420.0128" y1="176.3364" x2="-421.0128" y2="176.3364" style="stroke:#004c26;stroke-width:0.0125;"/>
        <!-- Line -->
        <line x1="-419.8728" y1="176.4764" x2="-421.0128" y2="176.4764" style="stroke:#004c26;stroke-width:0.0125;"/>
        <!-- Line -->
        <line x1="-421.0628" y1="176.3364" x2="-421.0628" y2="176.4764" style="stroke:#004c26;stroke-width:0.0125;"/>
        <!-- Line -->
        <line x1="-421.0628" y1="176.4764" x2="-421.0128" y2="176.4764" style="stroke:#004c26;stroke-width:0.0125;"/>
        <!-- Line -->
        <line x1="-421.0128" y1="176.3364" x2="-421.0628" y2="176.3364" style="stroke:#004c26;stroke-width:0.0125;"/>
        <!-- Line -->
        <line x1="-421.1028" y1="176.4764" x2="-421.0628" y2="176.4764" style="stroke:#004c26;stroke-width:0.0125;"/>
        <!-- Line -->
        <line x1="-421.0128" y1="176.4764" x2="-421.0128" y2="176.3364" style="stroke:#004c26;stroke-width:0.0125;"/>
        <!-- Line -->
        <line x1="-419.8728" y1="176.5014" x2="-419.6878" y2="176.5014" style="stroke:#808080;stroke-width:0.0125;"/>
        <!-- Line -->
        <line x1="-419.8728" y1="176.4764" x2="-419.7128" y2="176.4764" style="stroke:#808080;stroke-width:0.0125;"/>
        <!-- Line -->
        <line x1="-422.9228" y1="177.4243" x2="-422.9628" y2="177.4243" style="stroke:#808080;stroke-width:0.0125;"/>
        <!-- Line -->
        <line x1="-420.7528" y1="176.9275" x2="-419.8249" y2="176.9275" style="stroke:#808080;stroke-width:0.0125;"/>
        <!-- Line -->
        <line x1="-421.1028" y1="177.4243" x2="-421.0628" y2="177.4243" style="stroke:#808080;stroke-width:0.0125;"/>
        <!-- Line -->
        <line x1="-420.7528" y1="176.9275" x2="-420.592" y2="177.0964" style="stroke:#000000;stroke-width:0.0125;"/>
        <!-- Line -->
        <line x1="-417.4878" y1="177.4514" x2="-417.4878" y2="174.3714" style="stroke:#808080;stroke-width:0.0125;"/>
        <!-- Line -->
        <line x1="-417.4628" y1="177.4764" x2="-417.4628" y2="174.3964" style="stroke:#808080;stroke-width:0.0125;"/>
        <!-- Line -->
        <line x1="-413.8648" y1="176.7964" x2="-413.8648" y2="176.9323" style="stroke:#808080;stroke-width:0.0125;"/>
        <!-- Line -->
        <line x1="-413.9148" y1="176.6205" x2="-413.9148" y2="176.9323" style="stroke:#808080;stroke-width:0.0125;"/>
        <!-- Line -->
        <line x1="-415.0128" y1="174.3714" x2="-417.4878" y2="174.3714" style="stroke:#808080;stroke-width:0.0125;"/>
        <!-- Line -->
        <line x1="-415.0128" y1="174.3964" x2="-417.4628" y2="174.3964" style="stroke:#808080;stroke-width:0.0125;"/>
        <!-- Line -->
        <line x1="-416.8328" y1="176.7564" x2="-414.8928" y2="176.7564" style="stroke:#004c26;stroke-width:0.0125;"/>
        <!-- Line -->
        <line x1="-417.1128" y1="176.4764" x2="-415.0128" y2="176.4764" style="stroke:#004c26;stroke-width:0.0125;"/>
        <!-- Line -->
        <line x1="-418.6873" y1="175.511" x2="-418.6873" y2="176.4764" style="stroke:#808080;stroke-width:0.0125;"/>
        <!-- Line -->
        <line x1="-418.6623" y1="175.52" x2="-418.6623" y2="176.4514" style="stroke:#808080;stroke-width:0.0125;"/>
        <!-- Line -->
        <line x1="-418.5133" y1="176.4514" x2="-418.5133" y2="174.4214" style="stroke:#808080;stroke-width:0.0125;"/>
        <!-- Line -->
        <line x1="-418.4883" y1="176.4764" x2="-418.4883" y2="174.3964" style="stroke:#808080;stroke-width:0.0125;"/>
        <!-- Line -->
        <line x1="-418.4883" y1="174.6275" x2="-417.4628" y2="174.6275" style="stroke:#000000;stroke-width:0.0125;"/>
        <!-- Line -->
        <line x1="-418.4883" y1="175.0897" x2="-417.4628" y2="175.0897" style="stroke:#000000;stroke-width:0.0125;"/>
        <!-- Line -->
        <line x1="-418.4883" y1="174.8586" x2="-417.4628" y2="174.8586" style="stroke:#000000;stroke-width:0.0125;"/>
        <!-- Line -->
        <line x1="-418.4883" y1="175.0897" x2="-417.4628" y2="175.0897" style="stroke:#000000;stroke-width:0.0125;"/>
        <!-- Line -->
        <line x1="-418.4883" y1="175.3208" x2="-417.4628" y2="175.3208" style="stroke:#000000;stroke-width:0.0125;"/>
        <!-- Line -->
        <line x1="-418.4883" y1="175.5519" x2="-417.4628" y2="175.5519" style="stroke:#000000;stroke-width:0.0125;"/>
        <!-- Line -->
        <line x1="-418.6623" y1="174.4214" x2="-418.6623" y2="175.4506" style="stroke:#808080;stroke-width:0.0125;"/>
        <!-- Line -->
        <line x1="-418.6873" y1="174.3964" x2="-418.6873" y2="175.4417" style="stroke:#808080;stroke-width:0.0125;"/>
        <!-- Line -->
        <line x1="-418.6623" y1="174.4214" x2="-418.5133" y2="174.4214" style="stroke:#808080;stroke-width:0.0125;"/>
        <!-- Line -->
        <line x1="-418.6873" y1="174.3964" x2="-418.4883" y2="174.3964" style="stroke:#808080;stroke-width:0.0125;"/>
        <!-- Line -->
        <line x1="-419.0247" y1="175.3208" x2="-418.6873" y2="175.3208" style="stroke:#000000;stroke-width:0.0125;"/>
        <!-- Line -->
        <line x1="-418.4883" y1="175.783" x2="-417.4628" y2="175.783" style="stroke:#000000;stroke-width:0.0125;"/>
        <!-- Line -->
        <line x1="-418.4883" y1="176.0141" x2="-417.4628" y2="176.0141" style="stroke:#000000;stroke-width:0.0125;"/>
        <!-- Line -->
        <line x1="-418.4883" y1="176.2453" x2="-417.4628" y2="176.2453" style="stroke:#000000;stroke-width:0.0125;"/>
        <!-- Line -->
        <line x1="-418.4883" y1="176.4764" x2="-417.4628" y2="176.4764" style="stroke:#000000;stroke-width:0.0125;"/>
        <!-- Line -->
        <line x1="-418.6623" y1="176.4514" x2="-418.5133" y2="176.4514" style="stroke:#808080;stroke-width:0.0125;"/>
        <!-- Line -->
        <line x1="-418.6873" y1="176.4764" x2="-418.4883" y2="176.4764" style="stroke:#808080;stroke-width:0.0125;"/>
        <!-- Hatch -->
        <path d="M-415.1378,176.3589 L-415.1628,176.3589 L-415.1628,176.2214 L-415.7628,176.2214 L-415.7628,176.3589 L-415.7878,176.3589 L-415.7878,176.0589 L-415.7628,176.0589 L-415.7628,176.1964 L-415.1628,176.1964 L-415.1628,176.0589 L-415.1378,176.0589 ZM-415.1314,174.7744 L-415.1564,174.7744 L-415.1564,174.6369 L-415.7564,174.6369 L-415.7564,174.7744 L-415.7814,174.7744 L-415.7814,174.4744 L-415.7564,174.4744 L-415.7564,174.6119 L-415.1564,174.6119 L-415.1564,174.4744 L-415.1314,174.4744 Z" style="fill:#004c26;fill-rule:evenodd;"/>
        <!-- Line -->
        <line x1="-414.8928" y1="176.7564" x2="-414.8928" y2="174.3964" style="stroke:#004c26;stroke-width:0.0125;"/>
        <!-- Line -->
        <line x1="-414.8178" y1="175.5614" x2="-414.0228" y2="176.3964" style="stroke:#004c26;stroke-width:0.0125;"/>
        <!-- Line -->
        <line x1="-414.8178" y1="176.3964" x2="-414.8178" y2="175.5614" style="stroke:#808080;stroke-width:0.0125;"/>
        <!-- Line -->
        <line x1="-414.8578" y1="176.3964" x2="-414.8578" y2="175.5614" style="stroke:#808080;stroke-width:0.0125;"/>
        <!-- Line -->
        <line x1="-415.0128" y1="176.4764" x2="-415.0128" y2="174.3964" style="stroke:#004c26;stroke-width:0.0125;"/>
        <!-- Line -->
        <line x1="-413.6028" y1="176.7564" x2="-413.6028" y2="174.3964" style="stroke:#004c26;stroke-width:0.0125;"/>
        <!-- Line -->
        <line x1="-413.4628" y1="176.7564" x2="-413.4628" y2="174.6764" style="stroke:#004c26;stroke-width:0.0125;"/>
        <!-- Line -->
        <line x1="-414.8178" y1="175.2464" x2="-414.0228" y2="175.2464" style="stroke:#004c26;stroke-width:0.0125;"/>
        <!-- Line -->
        <line x1="-414.8578" y1="175.3853" x2="-414.0228" y2="175.3853" style="stroke:#004c26;stroke-width:0.0125;"/>
        <!-- Line -->
        <line x1="-414.8178" y1="174.4114" x2="-414.0228" y2="175.2464" style="stroke:#004c26;stroke-width:0.0125;"/>
        <!-- Line -->
        <line x1="-414.8578" y1="175.2464" x2="-414.8578" y2="174.4114" style="stroke:#004c26;stroke-width:0.0125;"/>
        <!-- Line -->
        <line x1="-414.8178" y1="175.2464" x2="-414.8178" y2="174.4114" style="stroke:#004c26;stroke-width:0.0125;"/>
        <!-- Line -->
        <line x1="-415.7564" y1="174.6119" x2="-415.1564" y2="174.6119" style="stroke:#808080;stroke-width:0.0125;"/>
        <!-- Line -->
        <line x1="-415.7564" y1="174.6369" x2="-415.1564" y2="174.6369" style="stroke:#808080;stroke-width:0.0125;"/>
        <!-- Line -->
        <line x1="-415.7814" y1="174.7744" x2="-415.7564" y2="174.7744" style="stroke:#808080;stroke-width:0.0125;"/>
        <!-- Line -->
        <line x1="-415.7564" y1="174.7744" x2="-415.7564" y2="174.6369" style="stroke:#808080;stroke-width:0.0125;"/>
        <!-- Line -->
        <line x1="-415.7814" y1="174.4744" x2="-415.7564" y2="174.4744" style="stroke:#808080;stroke-width:0.0125;"/>
        <!-- Line -->
        <line x1="-415.7564" y1="174.6119" x2="-415.7564" y2="174.4744" style="stroke:#808080;stroke-width:0.0125;"/>
        <!-- Line -->
        <line x1="-415.7814" y1="174.7744" x2="-415.7814" y2="174.4744" style="stroke:#808080;stroke-width:0.0125;"/>
        <!-- Line -->
        <line x1="-415.0128" y1="174.3964" x2="-415.0128" y2="174.3714" style="stroke:#808080;stroke-width:0.0125;"/>
        <!-- Line -->
        <line x1="-415.1564" y1="174.7744" x2="-415.1564" y2="174.6369" style="stroke:#808080;stroke-width:0.0125;"/>
        <!-- Line -->
        <line x1="-415.1564" y1="174.7744" x2="-415.1314" y2="174.7744" style="stroke:#808080;stroke-width:0.0125;"/>
        <!-- Line -->
        <line x1="-415.1314" y1="174.4744" x2="-415.1564" y2="174.4744" style="stroke:#808080;stroke-width:0.0125;"/>
        <!-- Line -->
        <line x1="-415.1314" y1="174.7744" x2="-415.1314" y2="174.4744" style="stroke:#808080;stroke-width:0.0125;"/>
        <!-- Line -->
        <line x1="-415.1564" y1="174.6119" x2="-415.1564" y2="174.4744" style="stroke:#808080;stroke-width:0.0125;"/>
        <!-- Line -->
        <line x1="-414.8178" y1="174.4114" x2="-414.8578" y2="174.4114" style="stroke:#808080;stroke-width:0.0125;"/>
        <!-- Line -->
        <line x1="-415.0128" y1="174.3964" x2="-414.8928" y2="174.3964" style="stroke:#004c26;stroke-width:0.0125;"/>
        <!-- Line -->
        <line x1="-414.8178" y1="175.2464" x2="-414.8578" y2="175.2464" style="stroke:#004c26;stroke-width:0.0125;"/>
        <!-- Line -->
        <line x1="-414.8578" y1="175.3853" x2="-414.8928" y2="175.3853" style="stroke:#004c26;stroke-width:0.0125;"/>
        <!-- Line -->
        <line x1="-414.8578" y1="175.2464" x2="-414.8928" y2="175.2464" style="stroke:#004c26;stroke-width:0.0125;"/>
        <!-- Line -->
        <line x1="-414.8578" y1="175.3853" x2="-414.8578" y2="175.2464" style="stroke:#004c26;stroke-width:0.0125;"/>
        <!-- Line -->
        <line x1="-414.8178" y1="175.5614" x2="-414.8578" y2="175.5614" style="stroke:#808080;stroke-width:0.0125;"/>
        <!-- Line -->
        <line x1="-413.9878" y1="175.2814" x2="-413.6378" y2="175.2814" style="stroke:#004c26;stroke-width:0.0125;"/>
        <!-- Line -->
        <line x1="-414.0228" y1="175.2464" x2="-413.6028" y2="175.2464" style="stroke:#004c26;stroke-width:0.0125;"/>
        <!-- Line -->
        <line x1="-414.0228" y1="175.3853" x2="-413.9878" y2="175.3853" style="stroke:#004c26;stroke-width:0.0125;"/>
        <!-- Line -->
        <line x1="-413.9878" y1="175.2814" x2="-413.9878" y2="175.3853" style="stroke:#004c26;stroke-width:0.0125;"/>
        <!-- Line -->
        <line x1="-414.0228" y1="175.3853" x2="-414.0228" y2="175.2464" style="stroke:#004c26;stroke-width:0.0125;"/>
        <!-- Line -->
        <line x1="-413.6378" y1="175.2814" x2="-413.6378" y2="175.3696" style="stroke:#004c26;stroke-width:0.0125;"/>
        <!-- Line -->
        <line x1="-413.6378" y1="175.3696" x2="-413.6028" y2="175.3696" style="stroke:#004c26;stroke-width:0.0125;"/>
        <!-- Line -->
        <line x1="-413.6028" y1="175.2464" x2="-413.6028" y2="175.3696" style="stroke:#004c26;stroke-width:0.0125;"/>
        <!-- Line -->
        <line x1="-414.8178" y1="176.3964" x2="-414.0228" y2="176.3964" style="stroke:#004c26;stroke-width:0.0125;"/>
        <!-- Line -->
        <line x1="-414.8578" y1="176.5353" x2="-414.0228" y2="176.5353" style="stroke:#004c26;stroke-width:0.0125;"/>
        <!-- Line -->
        <line x1="-415.1378" y1="176.3589" x2="-415.1378" y2="176.0589" style="stroke:#808080;stroke-width:0.0125;"/>
        <!-- Line -->
        <line x1="-415.1628" y1="176.3589" x2="-415.1628" y2="176.2214" style="stroke:#808080;stroke-width:0.0125;"/>
        <!-- Line -->
        <line x1="-415.7878" y1="176.3589" x2="-415.7878" y2="176.0589" style="stroke:#808080;stroke-width:0.0125;"/>
        <!-- Line -->
        <line x1="-415.7628" y1="176.3589" x2="-415.7628" y2="176.2214" style="stroke:#808080;stroke-width:0.0125;"/>
        <!-- Line -->
        <line x1="-415.7628" y1="176.1964" x2="-415.1628" y2="176.1964" style="stroke:#808080;stroke-width:0.0125;"/>
        <!-- Line -->
        <line x1="-415.7628" y1="176.2214" x2="-415.1628" y2="176.2214" style="stroke:#808080;stroke-width:0.0125;"/>
        <!-- Line -->
        <line x1="-415.7628" y1="176.1964" x2="-415.7628" y2="176.0589" style="stroke:#808080;stroke-width:0.0125;"/>
        <!-- Line -->
        <line x1="-415.7878" y1="176.0589" x2="-415.7628" y2="176.0589" style="stroke:#808080;stroke-width:0.0125;"/>
        <!-- Line -->
        <line x1="-415.1378" y1="176.0589" x2="-415.1628" y2="176.0589" style="stroke:#808080;stroke-width:0.0125;"/>
        <!-- Line -->
        <line x1="-415.1628" y1="176.1964" x2="-415.1628" y2="176.0589" style="stroke:#808080;stroke-width:0.0125;"/>
        <!-- Line -->
        <line x1="-415.7878" y1="176.3589" x2="-415.7628" y2="176.3589" style="stroke:#808080;stroke-width:0.0125;"/>
        <!-- Line -->
        <line x1="-415.1628" y1="176.3589" x2="-415.1378" y2="176.3589" style="stroke:#808080;stroke-width:0.0125;"/>
        <!-- Line -->
        <line x1="-414.8178" y1="176.3964" x2="-414.8578" y2="176.3964" style="stroke:#808080;stroke-width:0.0125;"/>
        <!-- Line -->
        <line x1="-414.8578" y1="176.3964" x2="-414.8928" y2="176.3964" style="stroke:#808080;stroke-width:0.0125;"/>
        <!-- Line -->
        <line x1="-414.8578" y1="176.5353" x2="-414.8928" y2="176.5353" style="stroke:#808080;stroke-width:0.0125;"/>
        <!-- Line -->
        <line x1="-413.8648" y1="176.6205" x2="-413.9148" y2="176.6205" style="stroke:#808080;stroke-width:0.0125;"/>
        <!-- Line -->
        <line x1="-413.9878" y1="176.4314" x2="-413.6378" y2="176.4314" style="stroke:#004c26;stroke-width:0.0125;"/>
        <!-- Line -->
        <line x1="-414.0228" y1="176.3964" x2="-413.6028" y2="176.3964" style="stroke:#004c26;stroke-width:0.0125;"/>
        <!-- Line -->
        <line x1="-414.0228" y1="176.5353" x2="-413.9878" y2="176.5353" style="stroke:#808080;stroke-width:0.0125;"/>
        <!-- Line -->
        <line x1="-413.9878" y1="176.4314" x2="-413.9878" y2="176.5353" style="stroke:#004c26;stroke-width:0.0125;"/>
        <!-- Line -->
        <line x1="-414.0228" y1="176.5353" x2="-414.0228" y2="176.3964" style="stroke:#004c26;stroke-width:0.0125;"/>
        <!-- Line -->
        <line x1="-413.6378" y1="176.4314" x2="-413.6378" y2="176.5196" style="stroke:#004c26;stroke-width:0.0125;"/>
        <!-- Line -->
        <line x1="-413.6378" y1="176.5196" x2="-413.6028" y2="176.5196" style="stroke:#808080;stroke-width:0.0125;"/>
        <!-- Line -->
        <line x1="-413.6028" y1="176.3964" x2="-413.6028" y2="176.5196" style="stroke:#004c26;stroke-width:0.0125;"/>
        <!-- Line -->
        <line x1="-413.8648" y1="176.6205" x2="-413.8648" y2="176.7564" style="stroke:#808080;stroke-width:0.0125;"/>
        <!-- Line -->
        <line x1="-413.8648" y1="176.7964" x2="-413.4828" y2="176.7964" style="stroke:#808080;stroke-width:0.0125;"/>
        <!-- Line -->
        <line x1="-413.6028" y1="176.7564" x2="-413.4628" y2="176.7564" style="stroke:#004c26;stroke-width:0.0125;"/>
        <!-- Line -->
        <line x1="-413.9148" y1="176.9323" x2="-413.8648" y2="176.9323" style="stroke:#808080;stroke-width:0.0125;"/>
        <!-- Line -->
        <line x1="-413.6187" y1="177.3977" x2="-413.3069" y2="177.3977" style="stroke:#808080;stroke-width:0.0125;"/>
        <!-- Line -->
        <line x1="-413.6187" y1="177.3477" x2="-413.6187" y2="177.3977" style="stroke:#808080;stroke-width:0.0125;"/>
        <!-- Line -->
        <line x1="-413.3069" y1="177.3977" x2="-413.3069" y2="177.3477" style="stroke:#808080;stroke-width:0.0125;"/>
        <!-- Line -->
        <line x1="-413.6187" y1="177.3477" x2="-413.4828" y2="177.3477" style="stroke:#808080;stroke-width:0.0125;"/>
        <!-- Line -->
        <line x1="-413.4428" y1="177.3477" x2="-413.3069" y2="177.3477" style="stroke:#808080;stroke-width:0.0125;"/>
        <!-- Line -->
        <line x1="-409.8128" y1="174.3964" x2="-409.8128" y2="173.3964" style="stroke:#004c26;stroke-width:0.0125;"/>
        <!-- Line -->
        <line x1="-412.1128" y1="174.3964" x2="-412.1128" y2="173.3964" style="stroke:#004c26;stroke-width:0.0125;"/>
        <!-- Line -->
        <line x1="-403.9878" y1="173.3964" x2="-403.9878" y2="174.5714" style="stroke:#808080;stroke-width:0.0125;"/>
        <!-- Line -->
        <line x1="-403.9628" y1="173.3714" x2="-403.9628" y2="174.5714" style="stroke:#808080;stroke-width:0.0125;"/>
        <!-- Line -->
        <line x1="-410.9628" y1="174.3964" x2="-409.8128" y2="173.3964" style="stroke:#004c26;stroke-width:0.0125;"/>
        <!-- Line -->
        <line x1="-412.1128" y1="173.3964" x2="-410.9628" y2="174.3964" style="stroke:#004c26;stroke-width:0.0125;"/>
        <!-- Line -->
        <line x1="-409.7628" y1="174.3964" x2="-409.7628" y2="173.3964" style="stroke:#004c26;stroke-width:0.0125;"/>
        <!-- Line -->
        <line x1="-412.1628" y1="174.3964" x2="-412.1628" y2="173.3964" style="stroke:#004c26;stroke-width:0.0125;"/>
        <!-- Hatch -->
        <g>
            <path d="M-406.3527,173.4475 L-405.9476,173.8526" style="stroke:#004c26;stroke-width:0.0125;"/>
            <path d="M-406.4387,173.4498 L-405.9499,173.9386" style="stroke:#004c26;stroke-width:0.0125;"/>
            <path d="M-406.5115,173.4654 L-405.9655,174.0115" style="stroke:#004c26;stroke-width:0.0125;"/>
            <path d="M-406.575,173.4903 L-405.9904,174.0749" style="stroke:#004c26;stroke-width:0.0125;"/>
            <path d="M-406.6309,173.5228 L-406.0228,174.1309" style="stroke:#004c26;stroke-width:0.0125;"/>
            <path d="M-406.6802,173.5619 L-406.062,174.1801" style="stroke:#004c26;stroke-width:0.0125;"/>
            <path d="M-406.723,173.6074 L-406.1075,174.223" style="stroke:#004c26;stroke-width:0.0125;"/>
            <path d="M-406.7595,173.6594 L-406.1595,174.2594" style="stroke:#004c26;stroke-width:0.0125;"/>
            <path d="M-406.7889,173.7183 L-406.2184,174.2888" style="stroke:#004c26;stroke-width:0.0125;"/>
            <path d="M-406.8102,173.7854 L-406.2855,174.3101" style="stroke:#004c26;stroke-width:0.0125;"/>
            <path d="M-406.821,173.8631 L-406.3632,174.3209" style="stroke:#004c26;stroke-width:0.0125;"/>
            <path d="M-406.8153,173.9571 L-406.4572,174.3152" style="stroke:#004c26;stroke-width:0.0125;"/>
            <path d="M-405.9946,173.9823 L-406.1051,174.0928 M-406.1714,174.1591 L-406.2818,174.2696" style="stroke:#004c26;stroke-width:0.0125;"/>
            <path d="M-405.9504,173.8498 L-406.0609,173.9602 M-406.1272,174.0265 L-406.2377,174.137 M-406.3039,174.2033 L-406.4144,174.3138" style="stroke:#004c26;stroke-width:0.0125;"/>
            <path d="M-405.961,173.772 L-406.0167,173.8277 M-406.083,173.8939 L-406.1935,174.0044 M-406.2598,174.0707 L-406.3702,174.1812 M-406.4365,174.2475 L-406.4958,174.3068" style="stroke:#004c26;stroke-width:0.0125;"/>
            <path d="M-406.0388,173.7614 L-406.1493,173.8718 M-406.2156,173.9381 L-406.326,174.0486 M-406.3923,174.1149 L-406.5028,174.2254" style="stroke:#004c26;stroke-width:0.0125;"/>
            <path d="M-406.0148,173.649 L-406.1051,173.7393 M-406.1714,173.8056 L-406.2818,173.916 M-406.3481,173.9823 L-406.4586,174.0928 M-406.5249,174.1591 L-406.6188,174.253" style="stroke:#004c26;stroke-width:0.0125;"/>
            <path d="M-406.0525,173.5983 L-406.0609,173.6067 M-406.1272,173.673 L-406.2377,173.7835 M-406.3039,173.8498 L-406.4144,173.9602 M-406.4807,174.0265 L-406.5912,174.137 M-406.6575,174.2033 L-406.6695,174.2153" style="stroke:#004c26;stroke-width:0.0125;"/>
            <path d="M-406.0966,173.554 L-406.1935,173.6509 M-406.2598,173.7172 L-406.3702,173.8277 M-406.4365,173.8939 L-406.547,174.0044 M-406.6133,174.0707 L-406.7138,174.1712" style="stroke:#004c26;stroke-width:0.0125;"/>
            <path d="M-406.147,173.5161 L-406.1493,173.5183 M-406.2156,173.5846 L-406.326,173.6951 M-406.3923,173.7614 L-406.5028,173.8718 M-406.5691,173.9381 L-406.6796,174.0486 M-406.7459,174.1149 L-406.7518,174.1208" style="stroke:#004c26;stroke-width:0.0125;"/>
            <path d="M-406.2043,173.4849 L-406.2818,173.5625 M-406.3481,173.6288 L-406.4586,173.7393 M-406.5249,173.8056 L-406.6354,173.916 M-406.7017,173.9823 L-406.7829,174.0635" style="stroke:#004c26;stroke-width:0.0125;"/>
            <path d="M-406.3039,173.4962 L-406.4144,173.6067 M-406.4807,173.673 L-406.5912,173.7835 M-406.6575,173.8498 L-406.768,173.9602" style="stroke:#004c26;stroke-width:0.0125;"/>
            <path d="M-406.3443,173.4482 L-406.3702,173.4741 M-406.4365,173.5404 L-406.547,173.6509 M-406.6133,173.7172 L-406.7238,173.8277 M-406.7901,173.8939 L-406.8196,173.9235" style="stroke:#004c26;stroke-width:0.0125;"/>
            <path d="M-406.4337,173.4492 L-406.5028,173.5183 M-406.5691,173.5846 L-406.6796,173.6951 M-406.7459,173.7614 L-406.8186,173.8341" style="stroke:#004c26;stroke-width:0.0125;"/>
        </g>
        <!-- Line -->
        <line x1="-409.7128" y1="174.3714" x2="-404.9078" y2="174.3714" style="stroke:#808080;stroke-width:0.0125;"/>
        <!-- Line -->
        <line x1="-409.7128" y1="174.6764" x2="-407.1928" y2="174.6764" style="stroke:#004c26;stroke-width:0.0125;"/>
        <!-- Line -->
        <line x1="-409.7128" y1="174.3964" x2="-406.9128" y2="174.3964" style="stroke:#004c26;stroke-width:0.0125;"/>
        <!-- Line -->
        <line x1="-413.0108" y1="176.6205" x2="-413.0108" y2="176.9323" style="stroke:#808080;stroke-width:0.0125;"/>
        <!-- Line -->
        <line x1="-413.0608" y1="176.7964" x2="-413.0608" y2="176.9323" style="stroke:#808080;stroke-width:0.0125;"/>
        <!-- Line -->
        <line x1="-412.2128" y1="174.6764" x2="-409.7128" y2="174.6764" style="stroke:#004c26;stroke-width:0.0125;"/>
        <!-- Line -->
        <line x1="-412.1128" y1="174.3964" x2="-409.8128" y2="174.3964" style="stroke:#004c26;stroke-width:0.0125;"/>
        <!-- Line -->
        <line x1="-412.2128" y1="174.3964" x2="-412.1128" y2="174.3964" style="stroke:#808080;stroke-width:0.0125;"/>
        <!-- Line -->
        <line x1="-412.2128" y1="174.6764" x2="-412.1628" y2="174.6764" style="stroke:#808080;stroke-width:0.0125;"/>
        <!-- Line -->
        <line x1="-412.1628" y1="174.6764" x2="-412.1628" y2="174.3964" style="stroke:#808080;stroke-width:0.0125;"/>
        <!-- Line -->
        <line x1="-412.2128" y1="174.6764" x2="-412.2128" y2="174.3964" style="stroke:#004c26;stroke-width:0.0125;"/>
        <!-- Line -->
        <line x1="-413.0646" y1="176.6205" x2="-413.0108" y2="176.6205" style="stroke:#808080;stroke-width:0.0125;"/>
        <!-- Line -->
        <line x1="-413.0646" y1="176.6205" x2="-413.0646" y2="176.7564" style="stroke:#808080;stroke-width:0.0125;"/>
        <!-- Line -->
        <line x1="-409.8128" y1="174.3964" x2="-409.7128" y2="174.3964" style="stroke:#808080;stroke-width:0.0125;"/>
        <!-- Line -->
        <line x1="-409.7128" y1="174.3964" x2="-409.7128" y2="174.3714" style="stroke:#808080;stroke-width:0.0125;"/>
        <!-- Line -->
        <line x1="-409.7628" y1="174.6764" x2="-409.7128" y2="174.6764" style="stroke:#808080;stroke-width:0.0125;"/>
        <!-- Line -->
        <line x1="-409.7628" y1="174.6764" x2="-409.7628" y2="174.3964" style="stroke:#808080;stroke-width:0.0125;"/>
        <!-- Line -->
        <line x1="-409.7128" y1="174.6764" x2="-409.7128" y2="174.3964" style="stroke:#004c26;stroke-width:0.0125;"/>
        <!-- Line -->
        <line x1="-413.0608" y1="176.9323" x2="-413.0108" y2="176.9323" style="stroke:#808080;stroke-width:0.0125;"/>
        <!-- Line -->
        <line x1="-402.4403" y1="176.7464" x2="-402.4403" y2="177.2483" style="stroke:#808080;stroke-width:0.0125;"/>
        <!-- Line -->
        <line x1="-402.0633" y1="176.8739" x2="-402.0633" y2="176.7464" style="stroke:#808080;stroke-width:0.0125;"/>
        <!-- Line -->
        <line x1="-402.4853" y1="176.7464" x2="-402.4853" y2="177.2483" style="stroke:#808080;stroke-width:0.0125;"/>
        <!-- Line -->
        <line x1="-402.8623" y1="176.8739" x2="-402.8623" y2="176.7464" style="stroke:#808080;stroke-width:0.0125;"/>
        <!-- Line -->
        <line x1="-402.9128" y1="176.5739" x2="-402.9128" y2="176.8739" style="stroke:#808080;stroke-width:0.0125;"/>
        <!-- Hatch -->
        <path d="M-402.4403,177.2483 L-402.2878,177.2483 L-402.2878,177.2989 L-402.6378,177.2989 L-402.6378,177.2483 L-402.4853,177.2483 L-402.4853,176.7464 L-402.8623,176.7464 L-402.8623,176.8739 L-402.9128,176.8739 L-402.9128,176.5739 L-402.8623,176.5739 L-402.8623,176.7014 L-402.0633,176.7014 L-402.0633,176.5739 L-402.0128,176.5739 L-402.0128,176.8739 L-402.0633,176.8739 L-402.0633,176.7464 L-402.4403,176.7464 Z" style="fill:#004c26;fill-rule:evenodd;"/>
        <!-- Line -->
        <line x1="-404.9078" y1="174.3714" x2="-403.9878" y2="174.3714" style="stroke:#000000;stroke-width:0.0125;"/>
        <!-- Line -->
        <line x1="-404.9078" y1="174.5714" x2="-403.9878" y2="174.5714" style="stroke:#000000;stroke-width:0.0125;"/>
        <!-- Hatch -->
        <path d="M-406.1378,176.3989 L-406.1628,176.3989 L-406.1628,176.2614 L-406.7628,176.2614 L-406.7628,176.3989 L-406.7878,176.3989 L-406.7878,176.0989 L-406.7628,176.0989 L-406.7628,176.2364 L-406.1628,176.2364 L-406.1628,176.0989 L-406.1378,176.0989 ZM-406.1314,174.8144 L-406.1564,174.8144 L-406.1564,174.6769 L-406.7564,174.6769 L-406.7564,174.8144 L-406.7814,174.8144 L-406.7814,174.5144 L-406.7564,174.5144 L-406.7564,174.6519 L-406.1564,174.6519 L-406.1564,174.5144 L-406.1314,174.5144 Z" style="fill:#004c26;fill-rule:evenodd;"/>
        <!-- Line -->
        <line x1="-406.9128" y1="174.3964" x2="-404.9328" y2="174.3964" style="stroke:#808080;stroke-width:0.0125;"/>
        <!-- Line -->
        <line x1="-406.7564" y1="174.6769" x2="-406.1564" y2="174.6769" style="stroke:#808080;stroke-width:0.0125;"/>
        <!-- Line -->
        <line x1="-406.7564" y1="174.6519" x2="-406.1564" y2="174.6519" style="stroke:#808080;stroke-width:0.0125;"/>
        <!-- Line -->
        <line x1="-406.7564" y1="174.8144" x2="-406.7564" y2="174.6769" style="stroke:#808080;stroke-width:0.0125;"/>
        <!-- Line -->
        <line x1="-406.7814" y1="174.8144" x2="-406.7564" y2="174.8144" style="stroke:#808080;stroke-width:0.0125;"/>
        <!-- Line -->
        <line x1="-406.7814" y1="174.5144" x2="-406.7564" y2="174.5144" style="stroke:#808080;stroke-width:0.0125;"/>
        <!-- Line -->
        <line x1="-406.7814" y1="174.8144" x2="-406.7814" y2="174.5144" style="stroke:#808080;stroke-width:0.0125;"/>
        <!-- Line -->
        <line x1="-406.7564" y1="174.6519" x2="-406.7564" y2="174.5144" style="stroke:#808080;stroke-width:0.0125;"/>
        <!-- Line -->
        <line x1="-406.1564" y1="174.8144" x2="-406.1314" y2="174.8144" style="stroke:#808080;stroke-width:0.0125;"/>
        <!-- Line -->
        <line x1="-406.1564" y1="174.8144" x2="-406.1564" y2="174.6769" style="stroke:#808080;stroke-width:0.0125;"/>
        <!-- Line -->
        <line x1="-406.1314" y1="174.5144" x2="-406.1564" y2="174.5144" style="stroke:#808080;stroke-width:0.0125;"/>
        <!-- Line -->
        <line x1="-406.1564" y1="174.6519" x2="-406.1564" y2="174.5144" style="stroke:#808080;stroke-width:0.0125;"/>
        <!-- Line -->
        <line x1="-406.1314" y1="174.8144" x2="-406.1314" y2="174.5144" style="stroke:#808080;stroke-width:0.0125;"/>
        <!-- Line -->
        <line x1="-404.4478" y1="174.3714" x2="-404.534" y2="174.4535" style="stroke:#808080;stroke-width:0.0125;"/>
        <!-- Line -->
        <line x1="-404.4478" y1="174.3714" x2="-404.4478" y2="174.8451" style="stroke:#000000;stroke-width:0.0125;"/>
        <!-- Line -->
        <line x1="-404.4478" y1="174.3714" x2="-404.3616" y2="174.4535" style="stroke:#000000;stroke-width:0.0125;"/>
        <!-- Line -->
        <line x1="-404.9328" y1="174.3964" x2="-404.9328" y2="174.5714" style="stroke:#808080;stroke-width:0.0125;"/>
        <!-- Line -->
        <line x1="-404.9328" y1="174.5714" x2="-404.9078" y2="174.5714" style="stroke:#808080;stroke-width:0.0125;"/>
        <!-- Line -->
        <line x1="-404.9078" y1="174.3714" x2="-404.9078" y2="174.5714" style="stroke:#808080;stroke-width:0.0125;"/>
        <!-- Line -->
        <line x1="-406.1628" y1="176.2364" x2="-406.1628" y2="176.0989" style="stroke:#808080;stroke-width:0.0125;"/>
        <!-- Line -->
        <line x1="-406.1378" y1="176.3989" x2="-406.1378" y2="176.0989" style="stroke:#808080;stroke-width:0.0125;"/>
        <!-- Line -->
        <line x1="-406.7878" y1="176.3989" x2="-406.7878" y2="176.0989" style="stroke:#808080;stroke-width:0.0125;"/>
        <!-- Line -->
        <line x1="-406.7628" y1="176.2364" x2="-406.7628" y2="176.0989" style="stroke:#808080;stroke-width:0.0125;"/>
        <!-- Line -->
        <line x1="-406.7878" y1="176.0989" x2="-406.7628" y2="176.0989" style="stroke:#808080;stroke-width:0.0125;"/>
        <!-- Line -->
        <line x1="-406.1378" y1="176.0989" x2="-406.1628" y2="176.0989" style="stroke:#808080;stroke-width:0.0125;"/>
        <!-- Line -->
        <line x1="-406.7628" y1="176.2614" x2="-406.1628" y2="176.2614" style="stroke:#808080;stroke-width:0.0125;"/>
        <!-- Line -->
        <line x1="-406.7628" y1="176.2364" x2="-406.1628" y2="176.2364" style="stroke:#808080;stroke-width:0.0125;"/>
        <!-- Line -->
        <line x1="-406.7628" y1="176.3989" x2="-406.7628" y2="176.2614" style="stroke:#808080;stroke-width:0.0125;"/>
        <!-- Line -->
        <line x1="-406.7878" y1="176.3989" x2="-406.7628" y2="176.3989" style="stroke:#808080;stroke-width:0.0125;"/>
        <!-- Line -->
        <line x1="-406.1628" y1="176.3989" x2="-406.1378" y2="176.3989" style="stroke:#808080;stroke-width:0.0125;"/>
        <!-- Line -->
        <line x1="-406.1628" y1="176.3989" x2="-406.1628" y2="176.2614" style="stroke:#808080;stroke-width:0.0125;"/>
        <!-- Line -->
        <line x1="-403.9878" y1="174.5714" x2="-403.9628" y2="174.5714" style="stroke:#808080;stroke-width:0.0125;"/>
        <!-- Line -->
        <line x1="-402.0633" y1="176.7014" x2="-402.8623" y2="176.7014" style="stroke:#808080;stroke-width:0.0125;"/>
        <!-- Line -->
        <line x1="-402.4853" y1="176.7464" x2="-402.8623" y2="176.7464" style="stroke:#808080;stroke-width:0.0125;"/>
        <!-- Line -->
        <line x1="-402.8623" y1="176.5739" x2="-402.9128" y2="176.5739" style="stroke:#004c26;stroke-width:0.0125;"/>
        <!-- Line -->
        <line x1="-402.8623" y1="176.7014" x2="-402.8623" y2="176.5739" style="stroke:#808080;stroke-width:0.0125;"/>
        <!-- Line -->
        <line x1="-402.0633" y1="176.7464" x2="-402.4403" y2="176.7464" style="stroke:#808080;stroke-width:0.0125;"/>
        <!-- Line -->
        <line x1="-402.0633" y1="176.5739" x2="-402.0128" y2="176.5739" style="stroke:#004c26;stroke-width:0.0125;"/>
        <!-- Line -->
        <line x1="-402.0633" y1="176.7014" x2="-402.0633" y2="176.5739" style="stroke:#808080;stroke-width:0.0125;"/>
        <!-- Line -->
        <line x1="-402.9128" y1="176.8739" x2="-402.8623" y2="176.8739" style="stroke:#808080;stroke-width:0.0125;"/>
        <!-- Line -->
        <line x1="-402.0128" y1="176.8739" x2="-402.0633" y2="176.8739" style="stroke:#808080;stroke-width:0.0125;"/>
        <!-- Line -->
        <line x1="-402.2878" y1="177.2989" x2="-402.2878" y2="177.2483" style="stroke:#808080;stroke-width:0.0125;"/>
        <!-- Line -->
        <line x1="-402.2878" y1="177.2483" x2="-402.4403" y2="177.2483" style="stroke:#808080;stroke-width:0.0125;"/>
        <!-- Line -->
        <line x1="-402.6378" y1="177.2989" x2="-402.6378" y2="177.2483" style="stroke:#808080;stroke-width:0.0125;"/>
        <!-- Line -->
        <line x1="-402.4853" y1="177.2483" x2="-402.6378" y2="177.2483" style="stroke:#808080;stroke-width:0.0125;"/>
        <!-- Line -->
        <line x1="-402.6378" y1="177.2989" x2="-402.2878" y2="177.2989" style="stroke:#808080;stroke-width:0.0125;"/>
        <!-- Line -->
        <line x1="-414.9928" y1="186.9414" x2="-407.1928" y2="186.9414" style="stroke:#808080;stroke-width:0.0125;stroke-dasharray:0.15,0.0375;stroke-dashoffset:0.0188"/>
        <!-- Line -->
        <line x1="-413.4428" y1="185.1414" x2="-413.0608" y2="185.1414" style="stroke:#808080;stroke-width:0.0125;"/>
        <!-- Line -->
        <line x1="-413.4428" y1="185.1014" x2="-413.0646" y2="185.1014" style="stroke:#808080;stroke-width:0.0125;"/>
        <!-- Hatch -->
        <path d="M-413.0108,185.2773 L-413.0608,185.2773 L-413.0608,185.1414 L-413.4428,185.1414 L-413.4428,185.5234 L-413.3069,185.5234 L-413.3069,185.5734 L-413.6187,185.5734 L-413.6187,185.5234 L-413.4828,185.5234 L-413.4828,185.1414 L-413.8648,185.1414 L-413.8648,185.2773 L-413.9148,185.2773 L-413.9148,184.9655 L-413.8648,184.9655 L-413.8648,185.1014 L-413.4828,185.1014 L-413.4828,184.7232 L-413.6187,184.7232 L-413.6187,184.6693 L-413.3069,184.6693 L-413.3069,184.7193 L-413.4428,184.7193 L-413.4428,185.1014 L-413.0646,185.1014 L-413.0646,184.9655 L-413.0108,184.9655 Z" style="fill:#004c26;fill-rule:evenodd;"/>
        <!-- Line -->
        <line x1="-416.8328" y1="187.4914" x2="-407.1928" y2="187.4914" style="stroke:#004c26;stroke-width:0.0125;"/>
        <!-- Line -->
        <line x1="-417.1128" y1="187.7714" x2="-406.9128" y2="187.7714" style="stroke:#004c26;stroke-width:0.0125;"/>
        <!-- Line -->
        <line x1="-413.2595" y1="187.4914" x2="-413.2595" y2="186.9414" style="stroke:#808080;stroke-width:0.0125;stroke-dasharray:0.15,0.0375;stroke-dashoffset:0.0813"/>
        <!-- Line -->
        <line x1="-414.1261" y1="187.4914" x2="-414.1261" y2="186.9414" style="stroke:#808080;stroke-width:0.0125;stroke-dasharray:0.15,0.0375;stroke-dashoffset:0.0813"/>
        <!-- Line -->
        <line x1="-414.9928" y1="187.4914" x2="-414.9928" y2="186.9414" style="stroke:#808080;stroke-width:0.0125;stroke-dasharray:0.15,0.0375;stroke-dashoffset:0.0813"/>
        <!-- Line -->
        <line x1="-413.8648" y1="184.9655" x2="-413.8648" y2="185.1014" style="stroke:#808080;stroke-width:0.0125;"/>
        <!-- Line -->
        <line x1="-413.9148" y1="184.9655" x2="-413.9148" y2="185.2773" style="stroke:#808080;stroke-width:0.0125;"/>
        <!-- Line -->
        <line x1="-413.4828" y1="185.1014" x2="-413.4828" y2="184.7232" style="stroke:#808080;stroke-width:0.0125;"/>
        <!-- Line -->
        <line x1="-413.4428" y1="185.1014" x2="-413.4428" y2="184.7193" style="stroke:#808080;stroke-width:0.0125;"/>
        <!-- Line -->
        <line x1="-413.8648" y1="184.9655" x2="-413.9148" y2="184.9655" style="stroke:#808080;stroke-width:0.0125;"/>
        <!-- Line -->
        <line x1="-413.6187" y1="184.6693" x2="-413.3069" y2="184.6693" style="stroke:#808080;stroke-width:0.0125;"/>
        <!-- Line -->
        <line x1="-413.6187" y1="184.7232" x2="-413.6187" y2="184.6693" style="stroke:#808080;stroke-width:0.0125;"/>
        <!-- Line -->
        <line x1="-413.3069" y1="184.7193" x2="-413.3069" y2="184.6693" style="stroke:#808080;stroke-width:0.0125;"/>
        <!-- Line -->
        <line x1="-413.6187" y1="184.7232" x2="-413.4828" y2="184.7232" style="stroke:#808080;stroke-width:0.0125;"/>
        <!-- Line -->
        <line x1="-413.4428" y1="184.7193" x2="-413.3069" y2="184.7193" style="stroke:#808080;stroke-width:0.0125;"/>
        <!-- Line -->
        <line x1="-413.9148" y1="185.2773" x2="-413.8648" y2="185.2773" style="stroke:#808080;stroke-width:0.0125;"/>
        <!-- Line -->
        <line x1="-413.4428" y1="185.5234" x2="-413.3069" y2="185.5234" style="stroke:#808080;stroke-width:0.0125;"/>
        <!-- Line -->
        <line x1="-413.6187" y1="185.5234" x2="-413.4828" y2="185.5234" style="stroke:#808080;stroke-width:0.0125;"/>
        <!-- Line -->
        <line x1="-413.3069" y1="185.5734" x2="-413.3069" y2="185.5234" style="stroke:#808080;stroke-width:0.0125;"/>
        <!-- Line -->
        <line x1="-413.6187" y1="185.5234" x2="-413.6187" y2="185.5734" style="stroke:#808080;stroke-width:0.0125;"/>
        <!-- Line -->
        <line x1="-413.6187" y1="185.5734" x2="-413.3069" y2="185.5734" style="stroke:#808080;stroke-width:0.0125;"/>
        <!-- Line -->
        <line x1="-413.4828" y1="185.5234" x2="-413.4828" y2="185.1414" style="stroke:#808080;stroke-width:0.0125;"/>
        <!-- Line -->
        <line x1="-413.4428" y1="185.5234" x2="-413.4428" y2="185.1414" style="stroke:#808080;stroke-width:0.0125;"/>
        <!-- Line -->
        <line x1="-413.8648" y1="185.1414" x2="-413.8648" y2="185.2773" style="stroke:#808080;stroke-width:0.0125;"/>
        <!-- Line -->
        <line x1="-413.8648" y1="185.1414" x2="-413.4828" y2="185.1414" style="stroke:#808080;stroke-width:0.0125;"/>
        <!-- Line -->
        <line x1="-413.8648" y1="185.1014" x2="-413.4828" y2="185.1014" style="stroke:#808080;stroke-width:0.0125;"/>
        <!-- Line -->
        <line x1="-408.0595" y1="187.4914" x2="-408.0595" y2="186.9414" style="stroke:#808080;stroke-width:0.0125;stroke-dasharray:0.15,0.0375;stroke-dashoffset:0.0813"/>
        <!-- Line -->
        <line x1="-408.9261" y1="187.4914" x2="-408.9261" y2="186.9414" style="stroke:#808080;stroke-width:0.0125;stroke-dasharray:0.15,0.0375;stroke-dashoffset:0.0813"/>
        <!-- Line -->
        <line x1="-409.7928" y1="187.4914" x2="-409.7928" y2="186.9414" style="stroke:#808080;stroke-width:0.0125;stroke-dasharray:0.15,0.0375;stroke-dashoffset:0.0813"/>
        <!-- Line -->
        <line x1="-410.6595" y1="187.4914" x2="-410.6595" y2="186.9414" style="stroke:#808080;stroke-width:0.0125;stroke-dasharray:0.15,0.0375;stroke-dashoffset:0.0813"/>
        <!-- Line -->
        <line x1="-411.5261" y1="187.4914" x2="-411.5261" y2="186.9414" style="stroke:#808080;stroke-width:0.0125;stroke-dasharray:0.15,0.0375;stroke-dashoffset:0.0813"/>
        <!-- Line -->
        <line x1="-412.3928" y1="187.4914" x2="-412.3928" y2="186.9414" style="stroke:#808080;stroke-width:0.0125;stroke-dasharray:0.15,0.0375;stroke-dashoffset:0.0813"/>
        <!-- Line -->
        <line x1="-413.0108" y1="184.9655" x2="-413.0108" y2="185.2773" style="stroke:#808080;stroke-width:0.0125;"/>
        <!-- Line -->
        <line x1="-413.0646" y1="184.9655" x2="-413.0646" y2="185.1014" style="stroke:#808080;stroke-width:0.0125;"/>
        <!-- Line -->
        <line x1="-413.0646" y1="184.9655" x2="-413.0108" y2="184.9655" style="stroke:#808080;stroke-width:0.0125;"/>
        <!-- Line -->
        <line x1="-413.0608" y1="185.2773" x2="-413.0108" y2="185.2773" style="stroke:#808080;stroke-width:0.0125;"/>
        <!-- Line -->
        <line x1="-413.0608" y1="185.1414" x2="-413.0608" y2="185.2773" style="stroke:#808080;stroke-width:0.0125;"/>
        <!-- Text: 1 -->
        <text x="-415.4271" dx="0" y="-171.159" dy="0.2" font-family="arial" font-size="0.28" line-height="1.1" fill="#808080" transform="scale(1,-1) rotate(360 -415.4271,-171.159)" text-anchor="end">1</text>
        <!-- Circle -->
        <circle cx="-415.4628" cy="171.0532" r="0.3" style="stroke:#808080;stroke-width:0.0125;"/>
        <!-- Line -->
        <line x1="-406.4628" y1="189.5936" x2="-406.4628" y2="171.3532" style="stroke:#808080;stroke-width:0.0125;stroke-dasharray:0.2381,0.0397,0.0397,0.0397;stroke-dashoffset:0.1071"/>
        <!-- Text: 2 -->
        <text x="-406.3912" dx="0" y="-189.9726" dy="0.2" font-family="arial" font-size="0.28" line-height="1.1" fill="#808080" transform="scale(1,-1) rotate(360 -406.3912,-189.9726)" text-anchor="end">2</text>
        <!-- Circle -->
        <circle cx="-406.4628" cy="189.8667" r="0.3" style="stroke:#808080;stroke-width:0.0125;"/>
        <!-- Circle -->
        <circle cx="-406.4628" cy="171.0532" r="0.3" style="stroke:#808080;stroke-width:0.0125;"/>
        <!-- Text: 2 -->
        <text x="-406.3879" dx="0" y="-171.159" dy="0.2" font-family="arial" font-size="0.28" line-height="1.1" fill="#808080" transform="scale(1,-1) rotate(360 -406.3879,-171.159)" text-anchor="end">2</text>
        <!-- Circle -->
        <circle cx="-429.1339" cy="175.4764" r="0.3" style="stroke:#808080;stroke-width:0.0125;"/>
        <!-- Text: F -->
        <text x="-429.0478" dx="0" y="-175.5814" dy="0.2" font-family="arial" font-size="0.28" line-height="1.1" fill="#808080" transform="scale(1,-1) rotate(360 -429.0478,-175.5814)" text-anchor="end">F</text>
        <!-- Line -->
        <line x1="-413.897" y1="185.0284" x2="-413.947" y2="185.0284" style="stroke:#808080;stroke-width:0.0125;"/>
        <!-- Hatch -->
        <path d="M-416.8328,187.4914 L-407.1928,187.4914 L-407.1928,174.6764 L-409.7128,174.6764 L-409.7128,174.3964 L-406.9128,174.3964 L-406.9128,187.7714 L-417.1128,187.7714 L-417.1128,176.4764 L-415.0128,176.4764 L-415.0128,174.3964 L-414.8928,174.3964 L-414.8928,176.7564 L-415.2632,176.7564 L-416.8328,176.7564 ZM-412.2128,174.6764 L-413.4628,174.6764 L-413.4628,176.7564 L-413.6028,176.7564 L-413.6028,174.3964 L-412.2128,174.3964 ZM-419.8728,176.4764 L-421.0128,176.4764 L-421.0128,176.3364 L-420.0128,176.3364 L-420.0128,173.0564 L-419.8728,173.0564 ZM-423.0128,176.4764 L-425.3128,176.4764 L-425.3128,176.3364 L-424.7878,176.3364 L-424.7878,176.4064 L-424.7628,176.4064 L-424.7628,176.3364 L-424.1628,176.3364 L-424.1628,176.4064 L-424.1378,176.4064 L-424.1378,176.3364 L-423.0128,176.3364 ZM-419.8728,172.8564 L-427.2578,172.8564 L-427.2578,176.3364 L-426.5628,176.3364 L-426.5628,176.4764 L-427.3978,176.4764 L-427.3978,172.6564 L-419.8728,172.6564 Z" style="fill:#004c26;fill-rule:evenodd;"/>
        <!-- Line -->
        <line x1="-414.8928" y1="174.3964" x2="-413.6028" y2="174.3964" style="stroke:#d7ebd2;stroke-width:0.0125;"/>
        <!-- Line -->
        <line x1="-412.2128" y1="174.3964" x2="-409.7128" y2="174.3964" style="stroke:#004c26;stroke-width:0.0125;"/>
        <!-- Line -->
        <line x1="-426.5628" y1="176.4764" x2="-425.3128" y2="176.4764" style="stroke:#004c26;stroke-width:0.0125;"/>
        <!-- Line -->
        <line x1="-423.0128" y1="176.4764" x2="-420.9141" y2="176.4764" style="stroke:#004c26;stroke-width:0.0125;"/>
        <!-- Hatch -->
        <path d="M-409.8308,172.2915 L-411.498,173.1234 L-411.4952,171.4596 ZM-411.4959,171.8755 L-411.4973,172.7075 L-413.4137,172.7075 L-413.4137,171.8755 Z" style="fill:#009900;fill-rule:evenodd;"/>
        <!-- Hatch -->
        <path d="M-426.4728,177.4243 L-426.5128,177.4243 L-426.5128,176.4764 L-426.4728,176.4764 ZM-426.5128,176.4764 L-426.5628,176.4764 L-426.5628,176.3364 L-426.5128,176.3364 ZM-425.3128,176.4764 L-425.3628,176.4764 L-425.3628,176.3364 L-425.3128,176.3364 ZM-422.9628,176.4764 L-423.0128,176.4764 L-423.0128,176.3364 L-422.9628,176.3364 ZM-422.9228,177.4243 L-422.9628,177.4243 L-422.9628,176.4764 L-422.9228,176.4764 ZM-421.0128,176.4764 L-421.0628,176.4764 L-421.0628,176.3364 L-421.0128,176.3364 ZM-421.0628,177.4243 L-421.1028,177.4243 L-421.1028,176.4764 L-421.0628,176.4764 ZM-412.1128,174.3964 L-412.1628,174.3964 L-412.1628,173.3964 L-412.1128,173.3964 ZM-409.7628,174.3964 L-409.8128,174.3964 L-409.8128,173.3964 L-409.7628,173.3964 ZM-409.7128,174.6764 L-409.7628,174.6764 L-409.7628,174.3964 L-409.7128,174.3964 ZM-412.1628,174.6764 L-412.2128,174.6764 L-412.2128,174.3964 L-412.1628,174.3964 Z" style="fill:#636466;fill-rule:evenodd;"/>
        <!-- Line -->
        <line x1="-422.9628" y1="176.3364" x2="-421.0628" y2="176.3364" style="stroke:#004c26;stroke-width:0.0125;"/>
        <!-- Hatch -->
        <path d="M-414.8578,176.5353 L-414.8928,176.5353 L-414.8928,176.3964 L-414.8578,176.3964 ZM-414.8178,176.3964 L-414.8578,176.3964 L-414.8578,175.5614 L-414.8178,175.5614 ZM-413.6028,176.5196 L-413.6378,176.5196 L-413.6378,176.4314 L-413.9878,176.4314 L-413.9878,176.5353 L-414.0228,176.5353 L-414.0228,176.3964 L-413.6028,176.3964 ZM-413.6028,175.3696 L-413.6378,175.3696 L-413.6378,175.2814 L-413.9878,175.2814 L-413.9878,175.3853 L-414.0228,175.3853 L-414.0228,175.2464 L-413.6028,175.2464 ZM-414.8578,175.3853 L-414.8928,175.3853 L-414.8928,175.2464 L-414.8578,175.2464 ZM-414.8178,175.2464 L-414.8578,175.2464 L-414.8578,174.4114 L-414.8178,174.4114 Z" style="fill:#636466;fill-rule:evenodd;"/>
        <!-- Line -->
        <line x1="-414.8928" y1="176.396" x2="-413.6028" y2="176.3964" style="stroke:#004c26;stroke-width:0.0125;"/>
        <!-- Line -->
        <line x1="-414.8578" y1="176.5353" x2="-413.6028" y2="176.5353" style="stroke:#004c26;stroke-width:0.0125;"/>
        <!-- Hatch -->
        <path d="M-413.6028,176.5196 L-413.6028,176.5353 L-414.0228,176.5353 L-414.0228,176.3964 L-413.6028,176.3964 Z" style="fill:#d7ebd2;fill-rule:evenodd;"/>
        <!-- Hatch -->
        <path d="M-414.8928,176.396 L-414.8928,175.3853 L-414.8578,175.3853 L-414.0228,175.3853 L-413.9878,175.3853 L-413.9878,175.2814 L-413.6378,175.2814 L-413.6378,175.3696 L-413.6028,175.3696 L-413.6028,176.3964 ZM-414.0228,175.3853 L-414.8578,175.3853 L-414.8578,175.2464 L-414.8178,175.2464 L-414.0228,175.2464 ZM-413.6028,175.2464 L-414.0228,175.2464 L-414.8178,174.4114 L-414.8178,175.2464 L-414.8578,175.2464 L-414.8928,175.2464 L-414.8928,174.3964 L-413.6028,174.3964 ZM-414.0228,175.2464 L-414.8178,175.2464 L-414.8178,174.4114 Z" style="fill:#d7ebd2;fill-rule:evenodd;"/>
        <!-- Hatch -->
        <path d="M-425.3628,176.4764 L-426.5128,176.4764 L-426.5128,176.3364 L-425.3628,176.3364 ZM-426.4728,177.4243 L-426.4728,176.4764 L-425.3628,176.4764 ZM-422.9228,177.4243 L-422.9228,176.4764 L-422.0328,176.4764 ZM-421.0628,176.4764 L-422.9628,176.4764 L-422.9628,176.3364 L-421.0628,176.3364 ZM-421.1028,177.4243 L-422.0328,176.4764 L-421.1028,176.4764 Z" style="fill:#d7ebd2;fill-rule:evenodd;"/>
        <!-- Hatch -->
        <path d="M-417.4628,177.4764 L-427.3978,177.4764 L-427.3978,176.4764 L-427.3728,176.4764 L-427.3728,177.4514 L-417.4878,177.4514 L-417.4878,176.4764 L-417.4628,176.4764 Z" style="fill:#636466;fill-rule:evenodd;"/>
        <!-- Hatch -->
        <path d="M-419.6878,176.5014 L-419.8728,176.5014 L-419.8728,176.4764 L-419.7128,176.4764 L-419.7128,175.239 L-419.6878,175.2479 Z" style="fill:#636466;fill-rule:evenodd;"/>
        <!-- Line -->
        <line x1="-419.7128" y1="173.3714" x2="-419.6878" y2="173.3964" style="stroke:#808080;stroke-width:0.0125;"/>
        <!-- Hatch -->
        <path d="M-419.6878,175.1786 L-419.7128,175.1696 L-419.7128,173.3714 L-419.6878,173.3964 Z" style="fill:#636466;fill-rule:evenodd;"/>
        <!-- Hatch -->
        <path d="M-403.9628,174.5714 L-403.9878,174.5714 L-403.9878,173.3964 L-419.6878,173.3964 L-419.7128,173.3714 L-403.9628,173.3714 Z" style="fill:#636466;fill-rule:evenodd;"/>
        <!-- Hatch -->
        <path d="M-404.9078,174.5714 L-404.9328,174.5714 L-404.9328,174.3964 L-406.9128,174.3964 L-409.7128,174.3964 L-409.7128,174.3714 L-404.9078,174.3714 ZM-409.7128,174.6764 L-409.7628,174.6764 L-409.7628,174.3964 L-409.7128,174.3964 ZM-412.1628,174.6764 L-412.2128,174.6764 L-412.2128,174.3964 L-412.1628,174.3964 Z" style="fill:#636466;fill-rule:evenodd;"/>
        <!-- Hatch -->
        <path d="M-417.4628,176.4764 L-417.4878,176.4764 L-417.4878,176.2453 L-417.4628,176.2453 ZM-417.4628,176.2453 L-417.4878,176.2453 L-417.4878,176.0141 L-417.4628,176.0141 ZM-417.4628,176.0141 L-417.4878,176.0141 L-417.4878,175.783 L-417.4628,175.783 ZM-417.4628,175.783 L-417.4878,175.783 L-417.4878,175.5519 L-417.4628,175.5519 ZM-417.4628,175.5519 L-417.4878,175.5519 L-417.4878,175.3208 L-417.4628,175.3208 ZM-417.4628,175.3208 L-417.4878,175.3208 L-417.4878,175.0897 L-417.4628,175.0897 ZM-417.4628,175.0897 L-417.4878,175.0897 L-417.4878,174.8586 L-417.4628,174.8586 ZM-417.4628,174.6275 L-417.4878,174.6275 L-417.4878,174.3714 L-415.0128,174.3714 L-415.0128,174.3964 L-417.4628,174.3964 ZM-417.4628,174.8586 L-417.4878,174.8586 L-417.4878,174.6275 L-417.4628,174.6275 Z" style="fill:#636466;fill-rule:evenodd;"/>
        <!-- Hatch -->
        <path d="M-418.6873,176.4764 L-418.6873,175.511 L-418.6623,175.52 L-418.6623,176.4514 L-418.5133,176.4514 L-418.5133,174.4214 L-418.6623,174.4214 L-418.6623,175.4506 L-418.6873,175.4417 L-418.6873,174.3964 L-418.4883,174.3964 L-418.4883,176.4764 Z" style="fill:#636466;fill-rule:evenodd;"/>
        <!-- Line -->
        <line x1="-418.6623" y1="175.52" x2="-418.6623" y2="175.4506" style="stroke:#808080;stroke-width:0.0125;"/>
        <!-- Hatch -->
        <path d="M-418.5133,176.4514 L-418.6623,176.4514 L-418.6623,175.52 L-418.6623,175.4506 L-418.6623,174.4214 L-418.5133,174.4214 Z" style="fill:#00994c;fill-rule:evenodd;"/>
        <!-- Line -->
        <line x1="-419.7581" y1="175.2228" x2="-419.7361" y2="175.1613" style="stroke:#808080;stroke-width:0.0125;"/>
        <!-- Hatch -->
        <path d="M-418.6623,175.4506 L-418.6623,175.52 L-419.1019,175.3625 L-419.188,175.427 L-419.7581,175.2228 L-419.7361,175.1613 L-419.1728,175.3631 L-419.0867,175.2986 Z" style="fill:#ededed;fill-rule:evenodd;"/>
        <!-- Hatch -->
        <path d="M-420.5328,177.4514 L-420.7528,177.4514 L-420.7528,176.9275 L-420.5328,176.9275 ZM-420.3128,177.4514 L-420.5328,177.4514 L-420.5328,176.9275 L-420.3128,176.9275 ZM-420.0928,177.4514 L-420.3128,177.4514 L-420.3128,176.9275 L-420.0928,176.9275 ZM-419.8728,177.4514 L-420.0928,177.4514 L-420.0928,176.9275 L-419.8728,176.9275 ZM-419.8728,176.9275 L-420.0928,176.9275 L-420.0928,176.4764 L-419.8728,176.4764 ZM-420.0928,176.9275 L-420.3128,176.9275 L-420.3128,176.4764 L-420.0928,176.4764 ZM-420.3128,176.9275 L-420.5328,176.9275 L-420.5328,176.4764 L-420.3128,176.4764 ZM-420.5328,176.9275 L-420.7528,176.9275 L-420.7528,176.4764 L-420.5328,176.4764 Z" style="fill:#c0c0c0;fill-rule:evenodd;"/>
        <!-- Hatch -->
        <path d="M-419.1876,176.2453 L-419.6878,176.2453 L-419.6878,176.0141 L-419.1876,176.0141 ZM-418.6873,176.2453 L-419.1876,176.2453 L-419.1876,176.0141 L-418.6873,176.0141 ZM-418.6873,176.0141 L-419.1876,176.0141 L-419.1876,175.783 L-418.6873,175.783 ZM-419.1876,176.0141 L-419.6878,176.0141 L-419.6878,175.783 L-419.1876,175.783 ZM-419.1876,175.783 L-419.6878,175.783 L-419.6878,175.5519 L-419.1876,175.5519 ZM-418.6873,175.783 L-419.1876,175.783 L-419.1876,175.5519 L-418.6873,175.5519 ZM-418.6873,175.511 L-418.6873,175.5519 L-419.0783,175.5519 L-419.1876,175.4479 L-419.2968,175.5519 L-419.6878,175.5519 L-419.6878,175.3208 L-419.4844,175.3208 L-419.188,175.427 L-419.1019,175.3625 ZM-419.1876,175.5519 L-419.2968,175.5519 L-419.1876,175.4479 ZM-419.0783,175.5519 L-419.1876,175.5519 L-419.1876,175.4479 ZM-419.4844,175.3208 L-419.6878,175.3208 L-419.6878,175.2479 Z" style="fill:#c0c0c0;fill-rule:evenodd;"/>
        <!-- Hatch -->
        <path d="M-418.6873,175.4417 L-419.0247,175.3208 L-418.6873,175.3208 ZM-419.1728,175.3631 L-419.1876,175.3578 L-419.1876,175.3208 L-419.1164,175.3208 ZM-419.1876,175.3578 L-419.2908,175.3208 L-419.1876,175.3208 ZM-419.1876,175.3208 L-419.2908,175.3208 L-419.6878,175.1786 L-419.6878,175.0897 L-419.1876,175.0897 ZM-418.6873,175.3208 L-419.0247,175.3208 L-419.0867,175.2986 L-419.1164,175.3208 L-419.1876,175.3208 L-419.1876,175.0897 L-418.6873,175.0897 ZM-418.6873,175.0897 L-419.1876,175.0897 L-419.1876,174.8586 L-418.6873,174.8586 ZM-419.1876,175.0897 L-419.6878,175.0897 L-419.6878,174.8586 L-419.1876,174.8586 ZM-419.1876,174.8586 L-419.6878,174.8586 L-419.6878,174.6275 L-419.1876,174.6275 ZM-418.6873,174.8586 L-419.1876,174.8586 L-419.1876,174.6275 L-418.6873,174.6275 Z" style="fill:#c0c0c0;fill-rule:evenodd;"/>
        <!-- Hatch -->
        <path d="M-419.1876,174.6275 L-419.6878,174.6275 L-419.6878,174.3964 L-419.1876,174.3964 ZM-418.6873,174.6275 L-419.1876,174.6275 L-419.1876,174.3964 L-418.6873,174.3964 ZM-417.9755,174.8586 L-418.4883,174.8586 L-418.4883,174.6275 L-417.9755,174.6275 ZM-417.4878,174.8586 L-417.9755,174.8586 L-417.9755,174.6275 L-417.4878,174.6275 ZM-417.9755,175.0897 L-418.4883,175.0897 L-418.4883,174.8586 L-417.9755,174.8586 ZM-417.4878,175.0897 L-417.9755,175.0897 L-417.9755,174.8586 L-417.4878,174.8586 ZM-417.4878,175.3208 L-417.9755,175.3208 L-417.9755,175.0897 L-417.4878,175.0897 ZM-417.9755,175.3208 L-418.4883,175.3208 L-418.4883,175.0897 L-417.9755,175.0897 Z" style="fill:#c0c0c0;fill-rule:evenodd;"/>
        <!-- Hatch -->
        <path d="M-417.9755,176.4764 L-418.4883,176.4764 L-418.4883,176.2453 L-417.9755,176.2453 ZM-417.4878,176.4764 L-417.9755,176.4764 L-417.9755,176.2453 L-417.4878,176.2453 ZM-417.9755,176.2453 L-418.4883,176.2453 L-418.4883,176.0141 L-417.9755,176.0141 ZM-417.4878,176.2453 L-417.9755,176.2453 L-417.9755,176.0141 L-417.4878,176.0141 ZM-417.4878,176.0141 L-417.9755,176.0141 L-417.9755,175.783 L-417.4878,175.783 ZM-417.4878,175.783 L-417.9755,175.783 L-417.9755,175.5519 L-417.4878,175.5519 ZM-417.4878,175.5519 L-417.9755,175.5519 L-417.9755,175.3208 L-417.4878,175.3208 ZM-417.9755,175.5519 L-418.4883,175.5519 L-418.4883,175.3208 L-417.9755,175.3208 ZM-417.9755,176.0141 L-418.4883,176.0141 L-418.4883,175.783 L-417.9755,175.783 ZM-417.9755,175.783 L-418.4883,175.783 L-418.4883,175.5519 L-417.9755,175.5519 Z" style="fill:#c0c0c0;fill-rule:evenodd;"/>
        <!-- Hatch -->
        <path d="M-417.0278,174.3714 L-417.2578,174.3714 L-417.2578,173.8839 L-417.0278,173.8839 ZM-416.7978,174.3714 L-417.0278,174.3714 L-417.0278,173.8839 L-416.7978,173.8839 ZM-416.5678,174.3714 L-416.7978,174.3714 L-416.7978,173.8839 L-416.5678,173.8839 ZM-416.5678,173.8839 L-416.7978,173.8839 L-416.7978,173.3964 L-416.5678,173.3964 ZM-416.7978,173.8839 L-417.0278,173.8839 L-417.0278,173.3964 L-416.7978,173.3964 ZM-417.0278,173.8839 L-417.2578,173.8839 L-417.2578,173.3964 L-417.0278,173.3964 Z" style="fill:#c0c0c0;fill-rule:evenodd;"/>
        <!-- Hatch -->
        <path d="M-426.5128,177.4243 L-426.4728,177.4243 L-425.3628,176.4764 L-425.3128,176.4764 L-424.348,176.4764 L-424.348,176.8468 L-423.9776,176.8468 L-423.9776,176.4764 L-423.0128,176.4764 L-422.9628,176.4764 L-422.9628,177.4243 L-422.9228,177.4243 L-422.0328,176.4764 L-421.1028,177.4243 L-421.0628,177.4243 L-421.0628,176.4764 L-420.9141,176.4764 L-420.7528,176.4764 L-420.7528,177.4514 L-427.3728,177.4514 L-427.3728,176.4764 L-426.5628,176.4764 L-426.5128,176.4764 ZM-417.4878,177.4514 L-419.8728,177.4514 L-419.8728,176.5014 L-419.6878,176.5014 L-419.6878,176.2453 L-419.1876,176.2453 L-419.1876,176.8764 L-417.9755,176.8764 L-417.9755,176.4764 L-417.4878,176.4764 ZM-417.9755,176.8764 L-419.1876,176.8764 L-419.1876,176.2453 L-418.6873,176.2453 L-418.6873,176.4764 L-418.4883,176.4764 L-417.9755,176.4764 ZM-417.2578,174.3714 L-417.4878,174.3714 L-417.4878,174.6275 L-417.9755,174.6275 L-417.9755,173.9964 L-419.1876,173.9964 L-419.1876,174.3964 L-419.6878,174.3964 L-419.6878,173.3964 L-417.2578,173.3964 ZM-417.9755,174.6275 L-418.4883,174.6275 L-418.4883,174.3964 L-418.6873,174.3964 L-419.1876,174.3964 L-419.1876,173.9964 L-417.9755,173.9964 ZM-412.1628,174.3964 L-412.2128,174.3964 L-413.2324,174.3964 L-413.2324,174.026 L-413.6028,174.026 L-413.6028,174.3964 L-414.8928,174.3964 L-415.0128,174.3964 L-415.0128,174.3714 L-416.5678,174.3714 L-416.5678,173.3964 L-412.1628,173.3964 ZM-410.9628,174.3964 L-412.1128,173.3964 L-409.8128,173.3964 ZM-403.9878,174.3714 L-404.9078,174.3714 L-409.7128,174.3714 L-409.7128,174.3964 L-409.7628,174.3964 L-409.7628,173.3964 L-403.9878,173.3964 Z" style="fill:#d7ebd2;fill-rule:evenodd;"/>
        <!-- Hatch -->
        <path d="M-403.9878,174.5714 L-404.4478,174.5714 L-404.4478,174.3714 L-403.9878,174.3714 ZM-404.4478,174.5714 L-404.9078,174.5714 L-404.9078,174.3714 L-404.4478,174.3714 Z" style="fill:#c0c0c0;fill-rule:evenodd;"/>
        <!-- Hatch -->
        <path d="M-418.703,172.3433 L-417.0357,171.5114 L-417.0386,173.1752 ZM-417.0379,172.7592 L-417.0364,171.9273 L-415.12,171.9273 L-415.12,172.7592 Z" style="fill:#009900;fill-rule:evenodd;"/>
        <!-- Hatch -->
        <path d="M-409.7628,174.6764 L-412.1628,174.6764 L-412.1628,174.3964 L-409.7628,174.3964 Z" style="fill:#009926;fill-rule:evenodd;"/>
        <!-- Hatch -->
        <path d="M-410.9628,174.3964 L-412.1128,174.3964 L-412.1128,173.3964 ZM-409.8128,174.3964 L-410.9628,174.3964 L-409.8128,173.3964 Z" style="fill:#d7ebd2;fill-rule:evenodd;"/>
    </g>
</svg>
