<?xml version="1.0" encoding="UTF-8"?>
<!DOCTYPE svg PUBLIC "-//W3C//DTD SVG 1.1//EN" "http://www.w3.org/Graphics/SVG/1.1/DTD/svg11.dtd">
<!-- Creator: CorelDRAW 2020 (64-Bit Evaluation Version) -->
<svg xmlns="http://www.w3.org/2000/svg" xml:space="preserve" width="8.5in" height="11in" version="1.1" style="shape-rendering:geometricPrecision; text-rendering:geometricPrecision; image-rendering:optimizeQuality; fill-rule:evenodd; clip-rule:evenodd"
viewBox="0 0 8500 11000"
 xmlns:xlink="http://www.w3.org/1999/xlink"
 xmlns:xodm="http://www.corel.com/coreldraw/odm/2003">
 <defs>
  <style type="text/css">
   <![CDATA[
    .fil12 {fill:none}
    .fil11 {fill:#00A859}
    .fil10 {fill:#00A859}
    .fil7 {fill:#EBEBEB}
    .fil6 {fill:#EDEDED}
    .fil5 {fill:#F1F1F1}
    .fil9 {fill:#F3F3F3}
    .fil2 {fill:#F6F6F6}
    .fil1 {fill:#F7F7F7}
    .fil3 {fill:#F8F8F8}
    .fil4 {fill:#FAFAFA}
    .fil8 {fill:#FCFCFC}
    .fil0 {fill:#FDFDFD}
   ]]>
  </style>
 </defs>
 <g id="Layer_x0020_1">
  <metadata id="CorelCorpID_0Corel-Layer"/>
  <path class="fil0" d="M-11894.89 -376.98l259.51 262.74c2.89,2.65 25.61,22.57 28.37,25.4 8.51,8.7 24.22,28.54 25.37,29.81 24.66,27.2 32.97,30.15 62.23,51.29 27.76,20.06 23.86,23.54 61.07,35.59 2.07,-1.72 5.99,-6.48 6.77,-4.41 0.78,2.07 5.56,-3.76 6.62,-4.67l57.07 -58.65c67.71,-64.62 7.65,-7.93 36.22,-192.65 3.3,-21.3 6.27,-38.85 13.83,-58.39l220.61 -228.25c2.32,-3.3 8.64,-13.41 11.07,-16.67 9,-12.04 11.13,-14 19.09,-22.75 12.9,-14.17 7.29,-7.18 20.93,-21.12 2.06,-2.11 4.94,-4.98 7.02,-7.09 140.27,-143.09 220.56,-42.8 315.13,-90.15 78.65,-39.38 66.74,-55.27 77.24,-86.85 -20.38,-9.21 -38.64,-16.39 -56.95,-29.1l-20.59 -17.74c-33.56,-41.2 22.2,-60.31 -147.89,-202.96 -48.64,-40.8 -50.39,-52.02 -88.42,-89.06l-86.5 -77.31c-75.84,-48.28 -111.7,67.88 -274.71,-17.18 -85.78,-44.76 -102.16,-19.42 -135.63,8.02l-65.13 65.02c-30.02,39.91 -279.81,266.67 -345.81,348.22 -86.42,106.8 32.33,93.62 27.18,249.09 -1.97,59.45 -27.04,85.38 -33.7,149.83z"/>
  <path class="fil1" d="M-541.68 9530.81c-60.15,2.21 -101.39,-8.05 -166.22,2.55 -133.77,21.87 -94.83,33.7 -215.04,155.23 -33.27,33.63 -59.12,62.65 -86.41,92.14l-87.96 80.32c-118.07,112.86 -22.61,197.41 -64.36,271.86l-57.08 65.63c-19.57,24.02 -5.06,-0.03 -17.39,23.75 -69.64,-1.68 -117.37,-72.48 -194.07,-153.19 -2.53,-2.66 -15.76,-17.45 -20.02,-22.08l-192.14 -184.98c-47.18,-36.34 -44.63,-63.8 -28.09,-122.56 29.61,-105.2 4.17,-169.81 -51.85,-257.3l39.16 -54.61c1.85,-2.22 4.46,-5.49 6.4,-7.66 1.93,-2.16 4.74,-5.2 6.75,-7.28l252.41 -246.31c55.12,-43.12 39.43,-42.29 74.09,-80.19l62.73 -62.46c1.94,-1.98 4.63,-5.1 6.62,-7.02 2,-1.93 4.95,-4.87 7,-6.71 105.11,-94.42 47.69,48.79 344.97,3.85 40.11,-6.06 31.06,-18.38 84.06,20.31l179.34 179.26c44.49,53.23 44.14,37.91 81,73.36 16.77,16.13 -1.6,-2.55 19.23,21.07 1.85,2.09 4.41,5.34 6.25,7.47 1.87,2.15 4.44,5.39 6.33,7.55l27.13 29.32c40.5,41.23 75.03,66.96 53.62,98.12 -18.62,27.1 -55.69,33.3 -76.48,80.59zm-1249.93 358.01c28.48,19.07 31.06,27.33 62.57,48.93 83.04,56.94 80,115.48 145.61,186.9l51.27 60.72c44.46,43.23 76.76,54.59 118.08,104.87 23.66,28.79 32.39,40.87 53.03,56.92 67.82,21.39 169.58,25.31 218.1,-17.78l167.38 -179.49c2.82,-2.78 11.04,-10.69 13.94,-13.47 2.05,-1.97 5.01,-4.82 7.08,-6.8l120.1 -115.19c2.31,-1.96 5.55,-4.5 7.84,-6.54l400.95 -406.15c7.37,-6.33 47.37,-27.1 66.86,-58.15 41.89,-66.73 35.72,-181 -6.51,-245.47 -25.14,-38.38 -146.92,-133.37 -207.61,-196.8l-39.86 -43.35c-1.91,-2.1 -4.66,-5.19 -6.58,-7.28l-94.91 -92.37c33.39,-25.9 18.7,6.61 41.67,0l3.83 -42.02c-25.13,23.3 -49.48,14.65 -53.99,15.69 -0.73,0.17 -3.94,1.17 -4.72,1.43 -2.2,0.74 -10.21,6.91 -22.52,11.01 -9.46,-49.99 -55.37,-71.24 -112.44,-78.9 -94.01,-12.62 -117.62,37.2 -151.45,37.3 -23.03,0.07 -113.45,-63.52 -165.68,-68.68 -145.51,-14.37 -214.86,108.61 -303.21,195.16 -1.88,1.84 -5.02,4.48 -6.95,6.33 -1.99,1.9 -5.16,4.55 -7.19,6.49l-81.69 86.22c-1.95,1.81 -5.06,4.49 -7.08,6.28 -2.07,1.81 -5.26,4.39 -7.4,6.19l-137.77 126.49c-39.61,30.73 -48.59,60.77 -63.81,111.8l-16.05 117.54c0.86,4.36 2.12,7.57 3.28,11.79l27.46 124.18c6.31,80.72 -9.22,153.49 -11.6,256.18z"/>
  <path class="fil2" d="M-10862.85 -442.65l-273.39 280.46c-1.71,1.84 -4.39,4.86 -6.17,6.64 -1.82,1.83 -4.8,4.66 -6.7,6.43 -1.99,1.85 -5.18,4.63 -7.27,6.4l-64.06 31.61c-13.63,-20.98 -29.28,-216.21 -13.31,-189.32l89.48 -76.71c47.88,-57.06 37.04,-40.74 130.44,-67.23 -2.04,-39.69 -40.94,-41.26 15.47,-82.41 25.05,-18.28 96.84,-16.63 123.28,-14.81 4.22,55.38 -8.96,42.64 12.23,98.95zm-1032.04 65.67c6.65,-64.46 31.73,-90.38 33.7,-149.83 5.15,-155.47 -113.6,-142.29 -27.18,-249.09 66,-81.56 315.8,-308.31 345.81,-348.22l65.13 -65.02c33.47,-27.44 49.85,-52.78 135.63,-8.02 163.01,85.06 198.87,-31.11 274.71,17.18l86.5 77.31c38.02,37.04 39.78,48.27 88.42,89.06 170.09,142.64 114.33,161.76 147.89,202.96l20.59 17.74c18.31,12.7 36.57,19.89 56.95,29.1 -10.51,31.58 1.4,47.47 -77.24,86.85 -94.57,47.35 -174.87,-52.93 -315.13,90.15 -2.07,2.12 -4.96,4.98 -7.02,7.09 -13.63,13.94 -8.03,6.94 -20.93,21.12 -7.96,8.75 -10.09,10.71 -19.09,22.75 -2.43,3.26 -8.76,13.37 -11.07,16.67l-220.61 228.25c-7.56,19.54 -10.54,37.09 -13.83,58.39 -28.57,184.72 31.5,128.03 -36.22,192.65l-57.07 58.65c-1.06,0.92 -5.85,6.74 -6.62,4.67 -0.78,-2.06 -4.69,2.7 -6.77,4.41 -37.21,-12.04 -33.31,-15.52 -61.07,-35.59 -29.26,-21.14 -37.57,-24.08 -62.23,-51.29 -1.15,-1.27 -16.86,-21.11 -25.37,-29.81 -2.76,-2.83 -25.48,-22.75 -28.37,-25.4l-259.51 -262.74zm384.52 -970.18c-31.07,10.32 -45.56,36.38 -65.82,59.97l-79.61 77.98c-20.96,19.67 -23.27,25.2 -44.42,47.92 -2.09,2.25 -4.92,5.24 -7.09,7.5 -2.2,2.29 -5.06,5.24 -7.31,7.52l-156.27 152.91c-16.96,15.42 -9.7,7.97 -26.64,25.22l-47.17 50.54c-2.26,2.31 -5.09,5.18 -7.38,7.46 -2.3,2.29 -5.22,5.13 -7.54,7.37 -81.5,78.7 -147.78,151.94 -59.14,309.87 37.59,66.98 13.29,62.99 -3.11,134.89 -38.51,168.83 105.25,243.52 215.43,362.91l185.17 189.19c31.48,25.86 88.46,67.56 134.01,72.69 93.87,10.58 132.99,-37.86 188.35,-91.64 1.98,-1.93 4.83,-4.85 6.83,-6.73l117.55 -118.63c6.06,-5.67 25.91,-21.34 30.15,-24.89 28.59,-23.98 26.19,-22.05 49.12,-49.5l239.08 -243.96c16.98,-15.67 28.54,-23.41 44.65,-41.31 2.11,-2.34 4.63,-5.52 6.67,-7.92l186.78 -186.96c36.52,-36.38 13.12,-7.47 44.32,-53.37 112.59,-165.63 -46.59,-278.19 -146.3,-385.46 -25.41,-27.34 -11.91,-19.77 -50.01,-48.49l-74 -62.98c-2.63,-3 -23.12,-26.72 -25.9,-29.77 -18.43,-20.21 -28.49,-30.74 -46.63,-52.83 -166.79,-203.16 -174.46,-10.83 -410.44,-105.73 -53.09,-21.35 -117.09,-25.76 -183.32,-3.74z"/>
  <path class="fil2" d="M-16652.72 -791.67c22.89,48.49 20.83,31.98 57.21,72.9 -32.34,-21.88 -56.67,-32.02 -109.51,-18.5 -41.89,10.73 -114.16,76.67 -144.57,111.83 -0.61,0.7 -20.68,29 -21.84,33.3 -3.63,13.48 -19.69,4.36 5.06,69.53 -100.8,-11.88 -130.09,16.26 -147.46,119.75 220.49,86.66 299.72,338.49 408.41,265.94 52.88,-35.3 6.73,-59.98 102.46,-77.55 30.19,-5.54 8.96,37.72 30.79,-7.69 42.96,-11.01 -65.11,-75 67.66,-96.12 3.15,-0.5 48.89,2.61 60.8,2.35 -56.7,21.13 -29.72,-6.74 -86.79,-20.94l62.88 -74.59c5.06,-6.53 21.34,-29.76 22.65,-31.31 79.22,-93.97 132.31,-53.2 150.45,-182.17 -58.92,17.23 -71.4,11.35 -124.93,107.59 -18.94,-18.46 -11.78,-13.76 -27.85,-24.32 14.17,-62.9 150.65,-88.54 109,-190.09 -23.42,-57.1 -63.74,-54.99 -113.82,-28.32 -89.39,47.61 -6.72,48.71 -92.34,70.88 -0.31,-66.95 128.37,-110.63 55.56,-183.15l-20.67 -8.59c-34.7,-3.94 22.86,-14.61 -33.65,-0.74 -29,7.11 -65.04,51.27 -86.94,74.36 -14.26,15.03 -26.25,27.87 -39.22,43.5 -6.6,-17.3 -10.62,-21.32 -27.92,-27.92l104.78 -105.67c45.04,-48.85 18.48,16.3 34.11,-74.74 -62.28,17.81 -31.56,1.19 -75.99,33.7l-118.31 146.79z"/>
  <path class="fil3" d="M-1117.01 14777.71c-50.69,-15.84 -18,9.96 -48,-27.71 37.88,-72.28 24.31,-57.22 12.22,-76.88 93.48,26.97 51.61,39.59 159.77,-68.57 50.38,-50.37 106.86,-88.72 36.41,-172.93 -2,-2.39 -4.84,-5.22 -6.96,-7.57 -87.39,-96.81 -58.6,-1.17 -108.02,-100.27 -4.63,-9.3 -8.15,-19 -14.52,-27.43 -1.81,-2.4 -4.46,-5.53 -6.49,-7.74 -33.62,-36.57 -79.29,-37.88 -124.24,-38.62 -54.15,65.07 -41.88,19.56 -87.29,70.19 -26.57,29.62 2.85,0.25 -17.12,24.78 -29.38,36.09 -15.52,17.35 -72.7,47.13l36.09 62.98c2.94,0.12 6.93,-1.93 8.44,-2.6 1.53,-0.67 6.46,-2.18 8.35,-3.11l33.25 -21.66c28.23,-21.33 20.86,-15.24 44.93,-38.15 11.18,-10.65 23.02,-28.44 42.96,-39.52 17.63,-9.79 -9.35,-25.31 57.57,-5.01 30.36,91.11 -54.07,59.59 -82.27,182.68 72.13,0.32 89.2,-15.1 36.28,48.65l-28.09 -34.93c-2.21,-2.74 -4.56,-6.04 -6.73,-8.67l-30.3 -32.75 54.93 -52.44c46.81,-35.97 37.48,-10.9 51.79,-72.56 -24.83,-13.44 -42.3,-20.65 -72.45,-5.46l-50.91 59.23c-2.09,3.37 -7.33,13.51 -9.43,16.98 -28.11,46.68 6.03,5.59 -29.56,43.56 -41.76,-26.92 -96.76,-31.54 -71.43,-94.7 6.5,-16.2 102.42,-123.7 177.22,-156.15 66.59,-28.89 44.74,-11.09 124.93,5.11 -33.24,-61.4 -18.28,-37.06 -66.12,-76.89 27.39,-54.19 4.98,-11.65 33.75,-48.26l149.39 -139.82c52.76,-35.47 68.72,-31.57 106.26,-27.53 -4.39,-1.63 -9.81,-2.3 -13.7,-3.02 -3.85,-0.7 -8.88,-2.06 -13.59,-2.83 -4.64,-0.76 -8.38,-1.65 -13.46,-2.36 -4.99,-0.7 -8.22,-1.12 -13.31,-1.67 -5.34,-0.58 -45.85,-1.62 -48.96,-1.52 -37.67,1.19 -91.68,3.52 -101.31,38.43 -20.85,75.54 36,59.17 -45.53,77.08 -88.93,19.54 -64.87,9.68 -71.65,105.33l-2.54 31.58c-62.93,-47.71 18.65,-39.37 -120.38,-39.37 -0.02,105.89 13.68,102.16 -29.41,123.26 -3.16,1.55 -14.09,3.75 -17.41,4.72 -55.48,16.08 -34.41,-6.6 -53.84,71.06 -6.97,27.84 -11.31,55.35 5.8,106.59 -55.99,6.67 -84.69,10.44 -123.9,44.03l-21.39 21.56c-12.57,12.87 -10.81,11.54 -27.11,28.24l-56.63 55.21c-20.34,17.43 -4.1,5.51 -23.2,17.69 14.52,84.07 19.29,56.81 55.56,110.97 95.02,-13.37 22.06,6.8 72.92,-23.57 10.28,-6.13 11.13,-9.34 22.38,-20.44 2.02,-1.99 4.41,-5.18 6.36,-7.21l64.94 -73.78c10.73,40.11 -8.27,67.57 -20.31,95.08 -0.32,0.74 -11.58,28.18 -12.43,30.75 -11.92,36.02 -31.51,106.01 7.33,124.31 -31.18,-51.5 5.67,-51.96 -99.53,-69.44 15.1,57.37 2.13,44.46 37.63,88.28l129.04 120.05c-3.36,-3.18 -55.88,-10.55 -83.33,69.31 87.24,13.06 -13.67,16.17 55.46,11.91 67.42,-4.15 63.97,-79.78 83.3,-95.25 -26.29,-24.04 0.56,-0.48 2.51,-0.85l227.78 -207.48z"/>
  <path class="fil2" d="M-6555.57 -666.67c4.35,0.77 9.84,0.48 13.23,0.31l25.17 -1.08c35.7,-4.51 106.18,-50.46 158.91,53.22 24.1,47.38 -9.36,86.91 -21.52,110.75l-33.38 100.69 52.03 56.71c65.61,-61.43 95.28,-18.87 111.18,-126.08 35.65,0.83 52.27,6.56 53.18,46.2l-164.29 150.54 -58.31 -27.26c-1.67,-4.45 -7.35,-2.61 -11.2,-2.89l0.12 25.72c0.71,2.77 0.61,8.64 1.8,11.86 1.07,2.88 14.19,25.77 17.56,28.49 73.54,59.4 142.92,-54.24 194.35,-103.35 31.79,-30.37 160.79,-117.18 -5.49,-184.87 -3.7,2.08 -8.58,1.79 -10.38,7.39l-71.73 63.8c-23.57,26.34 -21.37,38.46 -56.85,39.86 52.39,-122.3 93.87,-156.04 5.25,-277.78 1.11,-1.49 23.46,-25.98 24.29,-27.52 24.8,-46.36 9.8,26.74 13.82,-43.75 -61.67,-8.11 -34.65,6.6 -71.07,-1.64 -0.2,-54.23 96.09,-118.46 137.37,-149.2 120.61,-89.8 158.48,103.72 161.81,97.53 1.19,-2.23 3.84,9.14 6.37,13.39 56.7,0.33 25.19,6.74 79.27,7.61 3.06,1.72 7.29,3.79 9.34,4.83 2.16,1.09 7.72,3.85 9.91,4.94 2.3,1.16 8.72,8.19 10.48,5.17 1.83,-3.12 7.29,3.45 10.91,5.23 35.34,6.63 34.03,28.92 59.75,45.77 27.33,17.91 -36.84,23.8 42.07,13.69 65.97,-8.45 27.83,-14.13 28.28,-31.68 12.84,-43.06 -17.58,-23.68 21.57,-40.06 -23.55,-26.64 -14.52,-13.05 -31.57,-32.11l-61.04 -94.43c24.45,-13.54 24.55,-28.95 57.16,-56.32 146.53,37.07 138,116.43 197.52,-9.98 -35.92,-29.88 -80.91,-50.25 -141.96,-61.77 -8.22,-18 -18.65,-51.76 -29.57,-77.59l-38.34 -81.87c0.94,-33.87 31.91,-12.86 -27.69,-39.22 -113.59,-50.24 -167.41,50.26 -186.68,73.85l-47.74 48.03c-54.02,43.22 -47.91,33.12 -72.69,107.58l50.3 27.92c-119.37,0 -169.73,14.54 -272.7,157.94 -74.36,103.56 11.19,107.01 12.27,107.61 -39.4,-13.39 -68.18,-12.32 -92.28,-7.36l-33.04 11.48c-44.39,30.69 -25.36,18.05 -25.73,49.7z"/>
  <path class="fil4" d="M-16100.36 -1305.56c-40.38,-0.48 -69.61,7.49 -97.07,20.64 -1.83,0.87 -5.37,3.32 -7.2,4.18l-15.3 7.51c-26.12,8.47 -28.02,-4.89 -44.04,-4.62 -13.66,38.78 -13.39,28.22 -20.11,37.55l-111.8 108.92c-46.85,56.46 -11.69,-6.65 -31.57,71.56 -19.65,77.31 24.52,-8.72 -11.81,32.03 1.77,1 5.43,-1.12 6,1.07 5.33,20.39 -1.44,-3.43 33.5,11.62 51.53,22.2 -12.19,22.4 63.18,20.41 47.59,3.43 11.71,-6.94 81.79,54.61l114.57 121.36c71.94,85.78 109.46,37.6 103.83,15.93l-82.68 -113.88c78.13,-184.74 205.95,88.73 257.97,-55.56 1.5,-51.72 -124.19,-22.86 -166.6,-124.93 189.8,64.78 74.9,65.05 170.85,82.2 -21.74,-73.36 2.82,2 -21.99,-41.86l-23.86 -40.34c7.73,5.08 36.71,18.18 38.42,19.13 86.57,48.35 -13.13,-23.66 35.15,30.93 7.76,8.77 14.18,17.62 23.51,24.7 -0.25,-59.68 2.95,13.96 53.43,-68.38 -61.8,-33.78 -7.3,-22.28 -116.35,-78.09 20.37,-66.54 235.31,-251.67 31.34,-180.52 -9.44,22.81 -62.35,82.6 -93.35,95.23 -65.34,-50.39 -60.34,-53.08 -16.66,-108.37 73.06,-92.47 73.11,-30.61 88.87,-118.93 -36.78,-27.8 -42.4,-39.47 -77.27,-11.75l-118.66 132.5c-23.63,46.54 -17.65,73.91 -18.96,78.35l-27.11 -23.21z"/>
  <path class="fil2" d="M-622.43 14209.06c3.34,27.52 -3.9,23.43 21.56,12.61 46.58,3.48 17.93,-13.06 40.92,14.44 -4.42,22.57 -34.74,27.31 56.74,-7.99l24.38 -15.38c1.03,-0.59 4.5,-3.06 5.43,-3.52 66.79,-33.54 18.11,-5 15.99,-0.88 -21.77,-44.7 -5.98,-12.61 -8.4,-47.23l6.67 -305.79c0.2,-2.46 0.35,-7.09 0.57,-9.26 0.22,-2.13 1.14,-7.28 1.36,-8.98 0.22,-1.7 2.02,-4.57 2.21,-8.82 0.19,-4.31 0.91,-6.35 2.77,-8.8 -25.2,-16.1 30.4,-16.57 -14.56,8.41 -29.48,16.37 5.37,5.75 -33.22,16.78 -98.01,-153.52 -128.46,85.44 -222.22,52.96l52.71 -53.9c67.78,-68.01 71.02,-49.87 86.11,-121.48 118.72,-1.35 101.26,-62.48 83.33,-152.71 -120.9,-51.24 -166.53,-20.85 -166.53,97.22 -94.77,10.04 -205.38,175.1 -220.5,263.75l264.67 278.57z"/>
  <path class="fil1" d="M-2066.26 15121.97c10.29,-11.83 12.53,-15.04 21.89,-26.96l13.07 -17.46c2.79,-3.29 10.26,-12.84 13.39,-15.69 29.56,-26.94 29.2,-18.11 73.4,-31.78l-100.75 120.84c-21.63,17.16 1.46,5.09 -25.33,15.75l9.52 21.93c13.03,41.48 6.17,-10.13 9.95,34.72 4.21,50.06 -3.23,32.21 -18.25,96.06 33.91,4.99 27.51,-5.35 64.19,35.62 42.91,47.93 18.67,61.11 102.41,103.27 8.74,-45.4 31.65,-95.1 39.36,-138.82 -40.47,-17.23 -81.79,-31.89 -108.81,-69.44 -63.9,-21.5 8.07,41.71 -28.02,-19.94 -0.34,-0.58 -12.04,-21.33 -9.96,-48.19 2.13,-27.63 19,-56.2 34.91,-73.86l22.45 -20.48c2.53,-1.92 5.58,-4.44 8.29,-6.21 2.76,-1.81 5.84,-4.21 8.83,-5.83 81.11,-43.78 170.11,-14.48 171.91,132.77 59.09,-47.47 1.22,-23.88 68.44,-33.77 54.05,-7.96 25.04,-7.04 77.29,10.67l-4.52 -16.63c0.01,-1.79 -1.02,-6.88 -0.85,-9.14 3.09,-39.29 -13.38,51.94 3.28,-20.53 0.73,-3.19 3.35,-8.61 4.13,-11.31 0.83,-2.86 2.71,-8.14 4.94,-11.77 32.03,43.87 22.58,43.41 27.78,77.44 13.13,-117.39 -8.27,-38.52 41.6,-82.04l-7.44 77.34c67.74,-49.26 -85.89,-168.28 -90.88,-173.87 -17.7,-19.82 -44.03,-64.4 -82.24,-84.03 -2.67,-1.37 -175.58,-30.59 -216.07,-14.47 -44.19,17.59 -41.35,28.03 -92.57,80.27 -19.41,19.79 -25.11,26.09 -40.9,42.09 -134.5,136.35 -82.79,105.97 -70.15,200.99 8.54,64.18 -24.82,32.89 16.98,101.72 33.35,-33.11 6.96,35.92 32.05,-55.61 9.76,-35.61 -5.26,-99.26 -8.29,-146.74 26.88,-12.81 8.55,-4.65 34.98,-16.92z"/>
  <path class="fil5" d="M-1972.23 15250c17.74,-48.84 17.13,-52.37 5.72,-97.22 31.74,-26.63 60.26,-50.72 98.73,-44.8 53.65,8.25 74.24,66.23 76.21,62.36 1.22,-2.4 4.43,6.89 6.8,10.22 -17.52,52.75 -29.17,65.03 -62.46,99.73l-125 -30.29zm-94.03 -128.03c-35.74,15.2 -33.43,11.52 -36.82,58.17 -5.28,72.56 2.56,23.31 6.43,49.65l7.91 63.67c19.88,101.78 49.97,40.3 5.03,60.62l-18.83 7.03c32.74,40.41 54.67,58.84 84.69,98.15l78.89 68.8c2.02,1.17 6.5,3.69 8.09,4.61l97.99 -49.47c61.64,-48.5 15.35,30.96 50.31,-37.72 24.65,-48.43 -4.87,-8.15 30.66,-44.46 68.15,-69.65 110.43,-135.87 179.2,-172.35 23.66,43.26 -7.26,11.96 23.53,-40.15l7.44 -77.34c-49.87,43.52 -28.47,-35.34 -41.6,82.04 -5.2,-34.03 4.25,-33.57 -27.78,-77.44 -2.22,3.63 -4.11,8.91 -4.94,11.77 -0.78,2.7 -3.39,8.12 -4.13,11.31 -16.66,72.47 -0.19,-18.76 -3.28,20.53 -0.18,2.26 0.85,7.35 0.85,9.14l4.52 16.63c-52.25,-17.71 -23.24,-18.63 -77.29,-10.67 -67.22,9.89 -9.35,-13.7 -68.44,33.77 -1.8,-147.25 -90.81,-176.54 -171.91,-132.77 -2.99,1.61 -6.06,4.02 -8.83,5.83 -2.7,1.77 -5.76,4.29 -8.29,6.21l-22.45 20.48c-15.91,17.66 -32.78,46.23 -34.91,73.86 -2.07,26.85 9.63,47.61 9.96,48.19 36.09,61.65 -35.87,-1.57 28.02,19.94 27.02,37.56 68.33,52.21 108.81,69.44 -7.72,43.72 -30.62,93.42 -39.36,138.82 -83.74,-42.16 -59.5,-55.34 -102.41,-103.27 -36.68,-40.97 -30.28,-30.63 -64.19,-35.62 15.02,-63.84 22.46,-46 18.25,-96.06 -3.78,-44.85 3.08,6.76 -9.95,-34.72l-9.52 -21.93c26.8,-10.66 3.7,1.41 25.33,-15.75l100.75 -120.84c-44.2,13.67 -43.85,4.83 -73.4,31.78 -3.13,2.85 -10.59,12.4 -13.39,15.69l-13.07 17.46c-9.35,11.92 -11.6,15.13 -21.89,26.96z"/>
  <path class="fil6" d="M-5553.24 -1041.07l-57.89 24.81 -143.41 -143.99c-118.05,-141.29 -169.86,-121.39 -19.48,-265.01 32.72,-31.25 55.33,-70.61 120.3,-51.57l-137.9 143.57c19.13,51.75 19.43,50.74 55.48,89.71 101.35,-32.62 82.81,-107.1 174.04,-124.01 18.59,42.56 22.09,24.1 3.2,60.7 -30.69,59.47 -108.22,90.7 -111.56,140.19 -2.57,-20.01 39.25,19.93 58.7,41.37 17.32,19.1 41.87,56.94 58.5,84.22zm-306.35 -163.13l38.34 81.87c10.91,25.83 21.35,59.59 29.57,77.59 61.06,11.52 106.04,31.89 141.96,61.77 -59.52,126.41 -50.99,47.05 -197.52,9.98 -32.61,27.37 -32.71,42.79 -57.16,56.32l61.04 94.43c17.05,19.06 8.03,5.46 31.57,32.11 -39.15,16.39 -8.72,-2.99 -21.57,40.06 37.8,-23.87 68.3,-39.19 27.69,-94.42 -47.29,-64.31 -54.62,6.94 -76.68,-90.13 77.99,-10.84 35,-24.09 101.59,8.79 77.98,38.5 91.04,49.11 162.76,-41.15 36.59,-46.04 49.92,-35.55 64.74,-74.09l31.87 -25.8 -124.04 -130.82c50.35,-22.44 30.67,-19.66 71.09,-57.52 24.83,-23.26 52.22,-33.71 66.51,-78.11l-85.37 -65.38c-38.94,35.36 -81.74,97.26 -107.47,103.19 -126.87,29.24 57.57,-124.17 71.29,-142.83 65.8,-89.48 124.72,-37.8 99.93,-177.64 -99.56,-38.4 -125.25,-49.65 -155.98,54.34 -0.44,1.5 -1.03,5.43 -1.58,6.87l-67.84 77.82c-56.15,64.07 -187.46,132.01 -114.63,234.97 27.05,38.24 2.92,12.81 35.28,33.66 -12.91,13.31 9.87,7.69 -25.43,4.13z"/>
  <path class="fil7" d="M-818.24 14029.6c16.33,60.52 32.79,32.14 26.56,113.02 50.93,31.7 119.07,51.78 160.98,90.24 -41.54,71.07 -62.61,43.16 -139.85,10.3 -79.87,-33.98 -76.28,-13.09 -125.26,48.51 50.02,64.15 73.51,55.96 93.77,111.32l-28.05 39.02c-54.77,-13.52 0.69,17.07 -71.28,-54.16 -26.65,-26.38 13.11,12.47 -14.86,-14.18l-132.07 -131.34c-42.63,-47.65 -64.75,-52.03 -71.83,-89.55 19.47,-12.67 2.93,-1.9 19.65,-18.4 63.82,-63.01 58.95,-43.63 112.3,-109.77 71.85,-89.08 102.15,-3.29 169.95,4.99zm-298.77 748.11c5.61,-49.14 -20.95,-11.76 11.7,-45.96 11.35,11.72 -4.15,6.69 19.2,-11.01 65.91,-49.94 55.84,-54.53 99.8,-96.17 95.72,-90.69 48.46,-41.04 88.68,-161.07 76.53,-7.24 0.2,36.22 77.3,-4.65 121.59,-64.47 -15.04,-144.18 -35.7,-167.18 33.49,-40.04 21.77,-41.63 175.46,21.16 17.74,-10.98 48.07,-31.8 53.64,-36.91 45.79,-42.01 59.24,19.82 26.06,-54.25 -25.46,10.81 -18.22,14.91 -21.56,-12.61l-114.48 -78.27c-56.7,-31.8 -2.6,-84.05 -81.32,-101.19 -2.1,-50.74 6.82,-16.08 -22.17,-50.74 -13.77,-16.46 -9.27,3.05 -34.67,-27.8 -37.54,-4.05 -53.5,-7.94 -106.26,27.53l-149.39 139.82c-28.78,36.61 -6.36,-5.93 -33.75,48.26 47.84,39.83 32.87,15.48 66.12,76.89 -80.19,-16.2 -58.34,-33.99 -124.93,-5.11 -74.81,32.45 -170.73,139.95 -177.22,156.15 -25.33,63.17 29.67,67.78 71.43,94.7 35.59,-37.96 1.45,3.12 29.56,-43.56 2.09,-3.47 7.33,-13.61 9.43,-16.98l50.91 -59.23c30.16,-15.19 47.62,-7.98 72.45,5.46 -14.31,61.65 -4.98,36.58 -51.79,72.56l-54.93 52.44 30.3 32.75c2.17,2.63 4.52,5.93 6.73,8.67l28.09 34.93c52.91,-63.74 35.85,-48.33 -36.28,-48.65 28.2,-123.09 112.63,-91.57 82.27,-182.68 -66.92,-20.3 -39.94,-4.78 -57.57,5.01 -19.94,11.08 -31.78,28.87 -42.96,39.52 -24.07,22.91 -16.7,16.82 -44.93,38.15l-33.25 21.66c-1.89,0.93 -6.82,2.44 -8.35,3.11 -1.52,0.67 -5.5,2.72 -8.44,2.6l-36.09 -62.98c57.18,-29.78 43.31,-11.04 72.7,-47.13 19.97,-24.53 -9.45,4.84 17.12,-24.78 45.41,-50.62 33.14,-5.11 87.29,-70.19 44.96,0.74 90.62,2.05 124.24,38.62 2.03,2.2 4.67,5.33 6.49,7.74 6.37,8.43 9.89,18.13 14.52,27.43 49.43,99.11 20.63,3.46 108.02,100.27 2.12,2.35 4.96,5.18 6.96,7.57 70.45,84.2 13.97,122.55 -36.41,172.93 -108.17,108.15 -66.29,95.54 -159.77,68.57 12.08,19.67 25.65,4.6 -12.22,76.88 30.01,37.67 -2.69,11.87 48,27.71z"/>
  <path class="fil6" d="M-15837.22 -1349.38c203.97,-71.16 -10.97,113.98 -31.34,180.52 109.05,55.8 54.56,44.31 116.35,78.09 -50.48,82.34 -53.68,8.7 -53.43,68.38 -9.33,-7.07 -15.75,-15.93 -23.51,-24.7 -48.28,-54.59 51.42,17.42 -35.15,-30.93 -1.71,-0.96 -30.69,-14.05 -38.42,-19.13l23.86 40.34c24.81,43.86 0.25,-31.5 21.99,41.86 -95.95,-17.15 18.95,-17.42 -170.85,-82.2 42.41,102.07 168.1,73.21 166.6,124.93 -52.02,144.28 -179.84,-129.19 -257.97,55.56l82.68 113.88c5.63,21.67 -31.89,69.85 -103.83,-15.93l-114.57 -121.36c-70.07,-61.56 -34.2,-51.18 -81.79,-54.61 -22.57,32.37 -4.18,-0.68 -76.78,5.59 -4.05,0.35 -56.51,9.3 -58.79,9.56 3.99,3.81 10.6,1.88 13.93,8.95l53.92 21.72c52.04,12.72 95.61,-7.96 102.81,111.47 47.93,5.93 91.28,22.65 119.44,61.08 49.75,67.88 11.44,105.58 -22.15,161.88 112.01,-38.34 82.76,-86.73 44.92,-180.49 52.79,29.4 51.31,34.98 89.84,71 34.93,-42.59 55.02,-56.41 82.45,-109.42 -2.7,-3.45 -6.52,-13.04 -8.04,-10.39 -12.63,21.93 5.26,-2.46 -39,-39.47 -38.49,-32.18 -25.67,-10.66 -55.8,-55.49 63.09,-13.66 14.22,-29.31 94.44,1.47 31.41,12.05 65.43,29.39 92.62,41.82l81.71 -74.19c2.35,-1.81 5.77,-4.11 8.22,-5.91 27.01,-19.9 60.2,-31.15 73.17,-103.72 16.49,-92.26 52.84,56.93 -53.06,-73 -18.06,-22.16 -29.72,-40.85 -39.79,-60.18 130.9,-108.01 103.11,-94.86 98.04,-166.67l-57.18 -20.87c-38.33,40.11 -21.71,6.97 -45.54,50.56z"/>
  <path class="fil8" d="M-1032.39 14134.28c21.58,-27.78 64.02,-68.9 101.83,-87.94 37.07,18.59 61.82,20.74 71.35,72.83 9.15,50.04 -102.23,234.31 -173.19,15.11zm214.16 -104.69c-67.8,-8.28 -98.1,-94.07 -169.95,-4.99 -53.34,66.14 -48.47,46.76 -112.3,109.77 -16.72,16.5 -0.19,5.73 -19.65,18.4 7.08,37.52 29.2,41.91 71.83,89.55l132.07 131.34c27.97,26.65 -11.8,-12.2 14.86,14.18 71.96,71.22 16.51,40.64 71.28,54.16l28.05 -39.02c-20.26,-55.37 -43.75,-47.17 -93.77,-111.32 48.98,-61.6 45.39,-82.48 125.26,-48.51 77.24,32.86 98.31,60.77 139.85,-10.3 -41.9,-38.46 -110.05,-58.54 -160.98,-90.24 6.23,-80.88 -10.23,-52.5 -26.56,-113.02z"/>
  <path class="fil8" d="M-6317.83 -765.71c11.49,-39.63 64.47,-88.49 109.49,-103.94 47.16,35.34 45.02,52.24 11.85,86.96 -42.91,44.91 -75.78,39.11 -51.07,110.33 94.66,16.17 67.78,-72.38 136.74,-82.42 32.18,-4.69 45.01,3.5 59.33,27.93 23.1,39.42 -4.26,76.72 -29.92,103.56 -36.73,38.42 -47.87,38.4 -77.87,81.62l45.66 46.61c11.04,-57.73 258.26,-158.13 109.56,-302.96 -54.08,-0.87 -22.57,-7.28 -79.27,-7.61 -2.53,-4.25 -5.18,-15.62 -6.37,-13.39 -3.33,6.2 -41.2,-187.33 -161.81,-97.53 -41.28,30.74 -137.57,94.96 -137.37,149.2 36.42,8.24 9.4,-6.47 71.07,1.64z"/>
  <path class="fil8" d="M-5553.24 -1041.07c-16.62,-27.28 -41.18,-65.13 -58.5,-84.22 -19.45,-21.45 -61.28,-61.38 -58.7,-41.37 3.33,-49.49 80.86,-80.72 111.56,-140.19 18.89,-36.61 15.39,-18.15 -3.2,-60.7 -91.22,16.91 -72.69,91.39 -174.04,124.01 -36.05,-38.97 -36.35,-37.96 -55.48,-89.71l137.9 -143.57c-64.97,-19.04 -87.58,20.31 -120.3,51.57 -150.38,143.63 -98.57,123.72 19.48,265.01l143.41 143.99 57.89 -24.81z"/>
  <path class="fil7" d="M-16100.36 -1305.56l27.11 23.21c1.31,-4.44 -4.67,-31.81 18.96,-78.35l118.66 -132.5c34.87,-27.72 40.49,-16.05 77.27,11.75 -15.75,88.31 -15.8,26.45 -88.87,118.93 -43.68,55.29 -48.68,57.98 16.66,108.37 31,-12.63 83.91,-72.42 93.35,-95.23 -49.78,14.33 -53.04,76.22 -107.24,43.46 -18.7,-25.07 66.3,-86.24 79.5,-101.5 42.25,-48.85 7.22,-50.67 69.27,-87.69 18.88,-11.26 23.64,2.13 47.7,-35.08 74.43,-115.1 -107.87,-185.71 -134.84,-58.82 -12.81,60.29 3.3,41.51 6.35,48.08 -88.63,14.93 -0.52,-17.31 -123.26,97.41 -42.35,39.58 -83.74,66.48 -100.63,137.98z"/>
  <path class="fil7" d="M-6317.83 -765.71c50.01,-15.57 41.44,-41.26 104.39,-74.24 23.27,84.28 -44.26,47.47 -79.33,145.5l52.59 66.3c108.07,-25.54 42.76,-108.73 170.36,-80.19 -14.91,73.24 -94.68,112.78 -122.45,180.56l65.08 66.54c49.91,-35.75 101.89,-89.76 143.34,-133.83 40.2,-42.74 105.64,-122.74 20.41,-182.78 -3.61,-1.78 -9.08,-8.35 -10.91,-5.23 -1.76,3.02 -8.18,-4.02 -10.48,-5.17 -2.18,-1.09 -7.74,-3.85 -9.91,-4.94 -2.05,-1.04 -6.29,-3.11 -9.34,-4.83 148.71,144.83 -98.52,245.24 -109.56,302.96l-45.66 -46.61c30,-43.22 41.14,-43.2 77.87,-81.62 25.66,-26.84 53.02,-64.14 29.92,-103.56 -14.31,-24.43 -27.15,-32.62 -59.33,-27.93 -68.96,10.04 -42.08,98.59 -136.74,82.42 -24.7,-71.22 8.16,-65.43 51.07,-110.33 33.18,-34.72 35.31,-51.61 -11.85,-86.96 -45.02,15.45 -98,64.31 -109.49,103.94z"/>
  <path class="fil8" d="M-1972.23 15250l125 30.29c33.29,-34.7 44.94,-46.98 62.46,-99.73 -2.37,-3.33 -5.58,-12.61 -6.8,-10.22 -1.97,3.87 -22.56,-54.11 -76.21,-62.36 -38.47,-5.92 -66.99,18.17 -98.73,44.8 11.41,44.85 12.02,48.38 -5.72,97.22z"/>
  <path class="fil9" d="M-1032.39 14134.28c70.96,219.2 182.34,34.93 173.19,-15.11 -9.53,-52.09 -34.29,-54.23 -71.35,-72.83 -37.81,19.04 -80.25,60.17 -101.83,87.94z"/>
  <g id="_2368115737072">
   <path class="fil10" d="M673.89 373.81c-0.61,0.34 -1.61,0.07 -1.95,0.83l-152.41 25.48c-15.18,11.96 -19.23,3.32 -2.93,6.47 -369.18,371.81 -220.75,207.37 -111.65,257.85 -8.37,6.66 -125.78,108.74 -125.48,109.23 0,9.54 -1.1,15.43 -2.61,22.48l13.01 -2.93 9.2 -4.35c41.86,-14.72 187.65,-60.53 220.46,-63.14l25.43 65.76c-17.4,7.1 -64.22,17.18 -85.8,22.94 -18.8,5 -74.2,24.17 -86.8,24.29 -9.96,8.91 -52.82,16.52 -68.93,26.17 3.3,11.37 43.84,86.36 49.06,90.68 48.5,-15.72 181.82,-53.99 229.63,-59.34 9.94,13.01 20.02,48.91 25.68,66.41 -35.47,8.98 -156.09,32.85 -179.65,45.96l-10.98 17.33c-0.41,0.37 -0.95,0.78 -1.39,1.13l-4.96 4.05c-0.49,0.39 -1.31,0.98 -1.85,1.56 18.04,3.25 12.74,5.37 19.92,13.67l6.35 5.61 -10.4 6.5c-0.46,0.34 -1.15,1.02 -1.76,1.46 14.35,8.74 25.97,17.6 43.81,26.68 48.8,24.8 106.57,43.62 162.41,56.5 61.17,14.09 197.15,40.59 257.71,38.88 -13.69,-9.81 -55.9,-20.77 -63.15,-46.94 -3.93,-14.2 2.76,-20.16 4.59,-29 -0.46,-3.1 -0.02,-7.08 -0.05,-7.37 15.6,-16.5 50.21,-28.22 86.85,-36.27 9.81,0.44 36.49,-5.67 43.89,-8.67 18.5,-2.71 75.62,-48.91 44.98,-50.06 74.2,-40.35 77.37,-98.81 -38.83,-81.28 -11.76,0.34 -15.59,0.44 -27.19,1.3 -14.82,-2.91 -30,2.59 -50.82,4.42 -0.27,0.24 -0.34,2.07 -10.62,2.73 -11.84,0.81 -10.42,-0.8 -25.82,0.46 -17.87,1.46 -35.49,6.52 -51.85,2.85 -23.6,-3.05 -50.6,7.01 -75.96,7.15l-11.18 -23.94 -14.89 -4.57c0,-37.54 -12.18,-11.22 -13.06,-45.62 27.07,-1.07 11.94,1.15 20.07,-12.13 19.62,0 73.32,4.49 77.28,0.73l-21.31 -4.57c18.06,-10.35 37.91,-0.63 52.35,0.1l51.67 -2.37c-4.93,2.81 -11.57,-0.73 -17.87,-2.81 -12.43,-4.13 -16.13,0.27 -22.14,-6.35 3.22,-4.66 -0.61,-2.54 6.39,-3.69 11.47,-1.93 13.47,8.44 30.8,7.27 13.13,-0.88 3.44,-3.37 23.53,-1.71 2.12,0.2 11.69,0.83 13.33,0.64 13.43,-1.78 5.88,0.34 12.5,-4.79 -10.4,-7 -18.23,-4.24 -31,-3.76 -10.86,0.39 -19.57,-1.1 -30.61,-1.59l16.4 -1.59c0.27,-1.46 0.69,-3.17 0.81,-2.83 1.27,2.83 6.13,-24.73 -1.59,-32.1 -6.03,-5.76 -25.29,-2.37 -38.15,-2.86 -0.46,-8.88 1.3,-29.04 -3.24,-36.17 -4.35,-6.78 3.54,-0.07 -11.35,-3.51 0.41,-1.32 0.56,-4.98 1,-4.03 0.24,0.54 0.95,-0.88 3.3,-3.03l-158.22 21.45c-6.07,-11.06 -23.11,-55.77 -23.16,-66.88 22.26,-7.86 156.58,-23.85 187.5,-27.29 162.93,-18.26 355.73,-14.16 518.76,5.1 18.52,2.17 85.19,13.59 97.31,12.3 19.26,-1.41 27.09,5.13 47.23,5.44 -1.32,-2.59 30.07,7.76 27.73,6.69 6,-19.18 15.74,-5.61 14.06,-16.04 267.52,130.12 196.76,-244.72 197.71,-224.26l-35.07 -39.79 -13.65 -5.81c-63.05,-15.48 -152.5,-30.05 -215.48,-39.2 -157.15,-22.78 -370.91,-29.46 -531.35,-22.75 -44.59,1.88 -87.7,4.2 -130.63,8.13 -20.24,1.88 -113.01,12.62 -124.95,10.64z"/>
   <path class="fil10" d="M1663.02 576.3c-7.66,3.49 -35.81,29.46 -43.62,36.46 -8.22,7.37 -14.2,12.76 -22.11,19.55 -7.03,6.03 -15.65,12.13 -19.55,18.96 1.32,11.72 -5.03,11.91 -13.62,20.31 -19.99,19.53 -19.04,16.23 -58.56,13.62 -13.62,-0.9 -17.62,3.74 -36.2,1.76 7.76,8.28 -6.69,4.44 13.72,7.67 1.37,0.22 7.93,-0.34 11.79,-0.44 -1.22,19.92 -1.2,4.25 -3.91,12.94 -2.85,9.3 0.07,20.87 -0.27,30.02 -1.9,0.69 -5.91,-0.22 -13.52,4.56l5.22 11.4c-0.44,0.66 -1.12,1.31 -1.51,1.85l-6.3 11.84 11.37 1.98c6.15,0.37 -3.59,-4.05 6.91,0.29 -1.02,11.62 -2.71,6.86 -14.89,11.94 24.09,-12.01 -28.39,-12.67 -51.26,-1.93 6.17,-13.13 -5.67,-16.08 -12.87,-11.79 -21.55,-2.47 -6.39,-3.03 -43.44,-8.74 -11.55,-1.76 -56.26,-9.3 -67.74,-2.37 -21.28,5.39 -66.05,-25.48 -48.01,37.52 -72.54,8.44 -116.38,61.19 12.96,50.67 16.45,8.1 113.4,14.03 125.6,18.23 -4.05,5.13 -1.71,3.22 -9.08,5.83l37.59 6.28c-3.54,12.18 -15.21,35.39 -14.3,46.33l0.61 44.23 -11.33 4.69c-13.43,8.93 -12.79,6.54 -22.68,-1.39 -6.22,-5 -4.91,1.22 -4.54,-8.71 10.55,4.54 11.72,7 24.19,6.96l5.27 -6.98c1.39,-1.93 1.39,-2.69 3.64,-4.95 -4.69,-3.42 0.15,-0.98 -6.39,-2.76 -3.61,-0.98 -5.08,-0.76 -8.79,-1.46 -10.98,-2.07 -5.66,-1.44 -13.16,-4.54 -8.47,-3.52 -58.21,-8.67 -68.66,-7.91 -17.3,1.27 -17.35,-0.98 -31.7,-2.29 -21.97,-1.98 -51.41,-4.98 -72.69,-3.25 -44.15,3.59 -26.24,-0.07 -68.46,-5.3 0.27,0.46 -3.13,4.39 1.73,-0.05 5.69,-5.25 4.12,3.13 0.88,-2.66 -16.87,-1.64 -14.28,-1.66 -26.12,1.83 6.35,2.29 3.52,1.88 7.01,4.56l-6.96 4.59c-25.83,13.77 1.19,2.83 -29.1,16.43 -2.46,1.1 -2.37,1.1 -3.56,8.2 8.96,5.71 20.14,8.93 22.7,24.43 0.22,1.41 -0.9,2.69 3.74,6.3l6.17 3.93c1.85,-3.37 4.2,0.34 -2.59,-2.3 0.71,-0.61 1.93,-2.07 2.42,-1.46l8.91 -4.74c3.39,-2.44 0.66,4.91 4.32,-7.91l34.42 0c0,6.86 0.76,16.92 0.24,23.31 -0.98,12.45 -0.49,3.78 -6.1,10.62 -0.24,0.3 -0.73,0.95 -0.93,1.22l3.76 6.47c4.05,3.1 4.56,1.3 3.95,4.42 7.76,-5.69 3,1.46 6.42,-9.54l34.42 0 0 33.41c44.62,2.32 36.2,42.94 85.28,28.09 0.66,12.91 -2.13,4.57 -2.3,14.21 19.11,0.56 14.67,7.49 19.6,19.45 5.64,13.65 -2.32,4.64 9.01,10.18 1.56,-38.81 -6.35,-15.91 -7.57,-33.61l11.76 -1.49c1.15,4.07 4.54,14.62 4.93,19.67 1.22,15.69 -5.96,12.08 7.22,20.02 -4.61,6.1 -11.77,4.56 -8.37,17.09 2.74,10.01 6.13,7.22 10.35,16.74 11.72,0.27 45.55,1.73 51.99,-0.61 10.13,-3.71 9.62,-7.06 9.62,-14.99 -6.42,-4.3 -5.25,-3.61 -20.31,-3.61l0 -15.06c16.67,0 20.45,-1.29 36.03,1.34 34.15,5.76 41.91,-9.57 63.26,3.66 -2.78,1.85 -1.88,2.46 -7.47,3.39 -19.8,3.27 -3.07,-8.42 -23.87,-1.81 -9.37,2.98 -0.95,2.54 -15.23,4.52 -12.18,1.66 -7.59,-2.2 -15.67,3 8.93,6.49 12.04,5.71 22.92,1.78 28.56,-10.22 20.94,-1.68 23.92,0.51l-3.81 3.17c-11.18,5.91 -9.06,1.34 -15.99,5.22l-8.91 6.59c-3.2,1.05 -2.91,0.07 -3.08,0.02 16.89,1.54 71.47,-13.43 90.65,-18.35 14.6,-3.76 29.12,-8.22 43.18,-12.47 14.57,-4.42 28.87,-11.23 43.35,-13.74l16.96 -5.81c11.18,-12.47 83.87,-30.44 116.65,-83.26 -13.72,-10.65 -94.76,-28.76 -118.75,-35.56l-35.91 -9.72 -66.37 -14.18c5.32,-15.89 17.11,-55.68 25.63,-66.61 52.06,5.22 176.4,44.03 229.61,59.17 5.81,-4.61 45.65,-79.94 49.21,-90.51 -23.8,-12.54 -87.48,-30.36 -116.6,-39.05l-124.83 -34.3 24.17 -65.95 46.79 8.76c56.99,3.88 -13.4,3.78 28.65,-1.56 8.47,-0.05 6.37,7.89 17.06,7.18 -4.03,6.2 26.31,2.56 36.81,1.49 7.47,-0.83 10.18,-2.17 15.6,0.17 19.87,11.23 -14.91,31.73 31.95,22.04 5.35,3.98 0.61,1.49 8.35,4.27 26.75,9.62 0.39,8.13 24.02,9.3 15.43,13.28 3.07,5.81 32.83,11.18 2.98,3.74 9.4,6.5 6.88,9.74 31.07,15.09 35.93,10.25 83.99,-17.21l21.09 -13.37c3.1,-2.64 1.63,-1.1 3.05,-3.25l-6.35 -13.47c16.87,-0.61 -0.24,-1.42 14.01,-6.64 11.79,-4.32 0.95,-1.39 12.06,0.56l-0.58 -21.75 31.44 -12.42c-2.03,-12.04 -8.22,-8.64 -4.69,-23.63 2.25,-2.95 10.5,-2.22 17.28,-3.44l-2.03 -19.19c-23.26,1.34 -11.15,3.39 -21.35,16.06l-0.3 -29.95c4.66,-1.39 11.03,-2.2 15.96,-3 0,-10.3 1.37,-21.5 -1.44,-30.95 -4.91,-16.55 -2.93,-3.39 -0.59,-18.45 -4.76,0.93 -5.22,4.54 -14.96,4.32 -0.46,-10.69 3.88,-6.44 9.35,-17.82 -8.96,-2.71 -10.03,-3.24 -16.18,-11.64l13.4 -3.35c4.76,0.27 2.49,5.4 4.2,-1.1 0.15,-0.49 0.78,-0.56 1.2,-0.83 -39.76,-48.33 -132.42,-88.19 -199.2,-112.06l-30.02 -10.96c-0.44,-0.22 -1.49,-0.3 -1.81,-1.1 -0.34,-0.83 -1.24,-0.73 -1.81,-1.15 -16.4,0.81 -63.95,-21.28 -83.5,-19.57l-22.26 1.83c0.76,-0.37 8.76,-8.88 0,2.46 -4.91,6.37 5.15,-0.95 -5.22,4.37 -3.88,-1.41 -7.91,-2.49 -8.18,-6.49 0,-0.17 0.2,-0.44 0.34,-0.34 -44.37,-0.59 -18.97,8.79 -43.98,9.94 -5.52,0.27 -15.21,0 -21.24,-0.05l46.3 17.87c10.18,8.64 3.27,13.3 3.25,13.3 7.71,-7.1 12.06,4.22 17.69,9.81 11.84,11.74 10.94,6.08 24.14,20.17l14.96 14.08c3.93,3.54 4.2,3.66 8.44,6.15l-0.12 29.8c-1.19,8.74 -2.88,9.76 -8.88,14.74l-17.09 17.21 -15.09 -1.34z"/>
   <path class="fil10" d="M365.76 140.29l-22.09 9.67c-7.79,3.05 -13.38,5.67 -21.11,8.98 -15.87,6.83 -26.56,11.23 -41.37,18.52 -29.14,14.3 -51.23,28.15 -75.86,43.25 -23.92,14.7 -49.57,35.69 -67.15,53.07 -10.67,10.54 -18.89,17.62 -28.61,29.68l-26.68 32.88 1.05 -0.66c-15.67,39.13 -19.16,24.07 -24.97,80.33 -2.93,28.31 -4.27,73.83 -1.42,101.85 18.77,-14.13 31.85,-29.83 59.26,-48.35 7.98,-5.4 64.46,-37.96 66.1,-40.23 1.76,-22.04 11.01,-8.78 25.85,-20.62 -16.89,-13.35 -6.01,4.83 -22.53,-5.96 9.72,-7.4 1.98,-3.3 14.6,-6.13 0.73,-0.15 1.44,-0.22 2.17,-0.39 0.69,-0.17 1.39,-0.29 2.07,-0.49l9.13 -3.88c11.5,6.59 4.64,7.79 20.89,7.74l2.69 -9.74c1.61,-5.61 1.52,-5.05 1.93,-11.54 9.64,-6.67 13.18,0.69 12.03,-10.54 -1.31,-12.57 -1,-1 -11.1,-9.25 4.85,-2.12 3.24,-3.78 12.84,2.07l5.1 3.39c11.18,-3.76 24.65,-9.98 32.73,-8.23l5.1 2.1c8.44,3.3 14.94,2.98 23.92,-2.73 21.28,-13.45 12.08,-15.01 6.91,-20.84 -0.22,-0.24 -0.78,-0.69 -1,-0.98 -6.47,-8.42 -4.37,-5.35 -5.03,-15.84 17.94,0.85 7.22,-1.34 28.36,11.72 11.45,7.05 2.42,11.01 14.99,16.06 3.91,1.56 15.72,3 21.87,3.66 -8.98,-17.35 -14.79,-3.56 -21.31,-19.31 13.11,0.95 17.77,9.23 31.32,2 12.3,-6.59 18.55,-3.12 33.66,-2.76 -10.32,-11.94 -12.18,-3.27 -20.38,-6.81l15.79 -0.41c36.03,1.34 11.11,-2.49 43.84,6.32l3.22 0.63c5.13,-10.06 -0.95,-11.77 18.6,-7.37l-0.71 -10.89c9.35,-1.07 7.83,-0.17 15.09,-2.78l-6.57 -16.41c-21.38,-9.64 3.32,4.71 -7.44,-2.44 2.56,-5.66 -5.71,-8.71 7.79,-4.44 8.08,2.56 -3.27,-0.83 5.46,3.15 0.15,0.07 1.83,1.46 6.22,2.3 6.35,1.17 8.28,-0.61 13.81,-0.15 10.59,0.85 2.52,-0.88 12.18,4.3l-14.87 9.94c10.57,5.42 18.5,-0.95 29.56,-2.32 7.5,-0.93 19.09,0.17 27.83,0.05 -1.27,2.74 -14.43,-5.88 -15.74,-6.86 1.1,-0.29 5.78,-1.44 7.93,-2.1 0.78,-0.24 2.95,-1.05 3.71,-1.27l3.61 -1.17c14.55,-3.25 23.07,8.3 46.35,0.39 19.41,-6.59 13.01,-2.83 36.22,-5.61 11.13,-1.32 20.7,-1.63 35.93,-1.46l4.64 -12.35c29.29,-0.22 30.61,-7.35 61.97,-2.32 17.33,2.78 13.11,-0.68 26.65,-3.71 7.59,-1.69 26.85,-6.64 34.27,-2.74 6.13,3.2 25.29,2.07 37.64,3 35,2.59 25.04,-3.71 23.92,-8.57l-1.78 -5.42c43.84,14.67 359.95,-31.17 120.36,-135.88l-34.27 -32.73c-13.74,-11.84 -22.82,-7.62 -18.43,-7.18l-5.03 -13.65c-11.93,-3.66 -29.9,0.61 -38.98,-4.49 4.83,-4.44 6.54,-3.32 10.15,-3.59l23.33 0.85c8.52,-1.85 2.39,2.07 6.86,-4.07 -0.07,3.66 0.66,-0.78 -17.8,-0.15 -9.15,0.29 -19.89,1.68 -29.97,2.24 -17.89,1.02 -40.23,0.71 -56.48,4.69 -13.47,3.32 -19.4,-0.85 -29.04,0.93 -15.94,2.98 -0.27,0.93 -10.59,4.39 -17.62,5.88 -18.48,-4.39 -36.66,0.54 -10.23,2.76 -16.38,2.52 -28.22,2.91l-0.81 19.38 -34.49 0c-4.64,-12.62 -1.02,-10.67 -23.48,-11.16 -0.88,-3.56 -8.61,-1 -20.89,-1l0 2.3c-5.42,0 -23.38,1 -5.86,0.78l19.02 1.66c0.83,0.22 1.98,1.66 2.56,1.02 0.58,-0.66 1.73,0.69 2.54,1.1l-10.32 3.64c-11.33,3.05 -4.27,-1.17 -13.13,3.2 8.71,10.18 1.78,1.42 8.59,4.93l7.1 3.93c0.59,-0.59 1.83,0.98 2.56,1.63 -17.26,0.63 -41.98,-4 -56.63,-0.9 -17.94,3.81 -31.51,4.24 -50.35,3.98 -13.37,-0.19 -36.61,-1.56 -46.96,3.25 -17.19,8 7.18,7.37 -24.9,14.11 -11.37,2.39 -0.51,1.64 -14.26,2.3 39.52,-33.07 -85.21,6.88 -114.62,20.06z"/>
   <path class="fil11" d="M1619.75 322.16c5.25,3.32 30.78,8.88 39.4,8.1l10.28 -3.27c0.29,2.54 61.65,21.26 66.12,17.65 25.51,-0.66 5.93,-0.37 40,-6.96 4.35,-3.91 8.57,-8.13 13.06,-12.16 6.49,-5.81 8.86,-4.27 15.09,-10.2 4.52,-4.32 13.89,-10.06 18.65,-14.38l51.02 -44.25c12.2,-13.23 12.74,-6 19.06,-18.8 -1.32,-3.42 -3.86,-10.13 -3.54,-15.11l-2.86 -14.37c-11.06,-0.05 -6.69,-1.56 -17.62,-5.32 -6.86,-13.16 -12.57,-15.23 -31.09,-24.56 -6.3,-7.66 -77.55,-35.15 -94.24,-41.06 -33.66,-11.93 -70.2,-23.65 -106.15,-32.66 -33.56,-8.42 -222.66,-46.87 -242.99,-44.28 -0.76,0.02 -2.71,-0.3 -3.46,-0.3 -3,0 -1.07,1.98 -4,1.71 -14.99,-1.41 -29.31,-5.56 -44.74,-1.51 -24.09,-14.06 -80.43,-5.49 -92.75,-8.03 -17.65,0.05 -38.08,-13.23 -67.98,0.69 -13.18,-4.52 -24.04,-8.98 -27.61,7.64l-52.21 27.83c-14.67,57.6 -47.45,13.94 -58.92,38 -6.69,13.98 6.76,24.78 16.06,42.57 6.15,11.74 20.55,18.14 33.85,19.67 -2.93,4.13 38.42,35.98 41.64,36.32 -3.52,4.95 36.25,16.77 43.91,25.65 15.43,1.3 11.59,6.96 27.19,6.71 14.87,-0.24 29.09,-5.05 41.76,-1.02 73.96,24.6 -43.42,-12.72 62.05,11.96 15.55,4.88 58.21,1.17 72.39,6.2 6.44,2.27 37.81,9.59 38.69,9.64 18.77,0.9 29.85,3.24 44.44,2.02 1.49,13.11 15.94,0.66 33.71,3.17 7.57,20.92 86.48,19.77 83.14,18.38 12.4,0.76 17.79,3.44 29.19,7.3 11.13,1.37 6.56,-1.12 9.47,7.01z"/>
   <path class="fil10" d="M519.54 400.12c-19.96,8.88 -273.59,46.57 -392.71,153.41 -35.54,31.88 -55.26,62.02 -44.69,124.29l-1.61 -0.85 3.74 4.57c25.29,37.44 17.72,41.13 77.57,83.18 11.22,7.91 68.95,43.45 83.4,42.81 3.93,-0.2 27.75,-8.71 31.63,-11.37 2.57,-11.99 27.85,-27.28 33.9,-27.05 -11.5,-1.66 -3.66,1.15 -7.81,-9.13 11.35,0.66 11.91,2.27 19.65,1.39l19.46 0.88c2.02,-10.69 5.73,-2.9 20.11,-8.37 6.03,-2.32 17.92,-5.98 24.29,-0.76 -0.61,-0.54 -6.93,8.3 0.24,-2.71 0.27,-0.41 1.32,-1.83 1.85,-2.24l27.46 -11.01c-3.22,-0.1 -3.3,0.29 -6.83,-0.76 -8.08,-2.34 -3.39,-0.83 -12.3,-10.64l13.04 -15.99c15.26,3.69 7.47,17.74 33.93,6.86 0.54,-12.91 -1.54,-3.91 -2.15,-10.11 -1.12,-11.35 -1.1,0.17 2.17,-8.28 -0.73,-6.66 -9.67,-8.81 -14.82,-14.37 -5.83,-6.35 -4.3,-15.16 -6.35,-24.46 -3.54,-15.94 3.66,-12.81 24.83,-33.07 18.35,-17.57 13.59,-10.32 30.68,-8.79 8.64,0.78 5.15,-1.91 13.72,0.17 7.06,1.68 30.46,23.6 33.76,30.46 -1.59,10.13 -23.04,28.53 -32.44,35.1 9.93,-2.56 32.83,-28.9 32.83,-28.9l-0.9 -11.84c-0.2,-0.24 -0.76,-0.73 -1,-0.98l-20.38 -18.48c-11.3,-10.64 -14.57,-8.59 -14.77,-17.99 -0.37,-17.21 -2.12,-3.42 3.69,-8 -6.4,-6.37 -5.1,-6.35 -2.69,-14.89 5.15,-18.33 5,-8.2 13.3,-13.94 10.06,-6.98 7.03,-21.89 32.3,-21.38 3.15,0.22 3.54,3.44 2.54,-1.12 6.98,-13.99 1.71,-5.2 8.4,-8.2 13.94,-6.25 7.15,-0.98 10.4,-15.13 0.91,-3.98 -0.71,-3.76 4.83,-8.25 1.71,-1.42 7.54,-3.69 10.08,-5.15l21.58 -15.38c12.3,-7.25 4.56,-6.71 11.01,-15.35 4.54,-6.13 8.32,-4.39 15.5,-11.37 15.96,-15.59 7.15,-13.76 35.03,-17.16l3.93 -17.33 8.3 -1.88c-1.93,-10.37 -3.96,-4.49 2.98,-11.35 7.81,-7.76 6.66,-2.69 8.52,-1.44 -9.84,-3.98 -1.37,-5.08 -15.65,-4.54l4.05 -7.89c-0.05,-0.15 -3.76,-4.69 -4.17,-5.17 -8.25,-10.01 3.44,-6.32 -12.94,-7.49 4.54,-4.93 5.37,-7.1 10.44,-4.57 -15.01,0 -12.59,0.66 -23.97,3.13 -12.76,2.78 -50.74,0.54 -62.02,6.39 -6.64,3.44 1.52,0.59 -7.98,4.17l10.45 0.03c-3.88,10.15 -8.52,9.3 -10.45,11.37 9.5,0 4.61,-0.81 10.45,6.86l-24.36 -0.44c-0.83,-0.02 -1.46,-0.12 -2.27,-0.15 -0.85,-0.05 -1.49,-0.15 -2.34,-0.17 -6.35,-0.12 -4.59,-1.34 -11.38,1.2 -6.66,2.51 -5.05,2.76 -9.22,6.39l-5.22 -6.81c1.83,2.1 -3.34,3.49 5.37,1.39 11.01,-2.66 0.17,2.39 5.08,-3.69 -0.83,-0.56 -14.38,-6.59 -15.96,-11.2 -0.56,-1.64 -1.54,-1.66 -2.3,-2.49l18.28 0c-19.36,0 -8.59,-1.15 -13.06,-3.98z"/>
   <path class="fil12" d="M472.57 328.54l-3.22 -0.64c-9.76,8.02 -32,10.36 -46.9,14.2 -17.36,4.49 -32.34,9.17 -49.37,13.93 -12.39,3.47 -85.85,26.76 -91.02,32.01l-0.36 4.48c-3.53,7.36 -13.02,8.69 -17.91,11.57 3.2,-4.02 4.11,-2.52 10.45,-3.97 0.65,2.8 -6.22,5.24 5.99,10.05 11.2,4.41 7.26,2.98 20.11,3.06 0,14.88 0.88,9.54 -5.37,19.13 -9.58,14.69 3.81,-12.2 -2.45,4.06 18.17,-0.98 25.64,-8.56 41.74,-9.49 2.16,5.7 -0.95,5.55 -1.02,5.57 -0.07,0.02 -0.7,-0.37 -0.77,-0.38 -0.08,-0.01 -0.7,-0.33 -0.83,-0.63l17.06 4.88c-1.15,3.95 1.09,1.37 -1.38,-0.32l34.86 -9.65c19.63,-4.57 8.49,-11.09 27.74,-13.18l-2.61 -20.95c15.72,-0.95 14.4,3.07 22.35,6.54 9.28,4.05 10.06,2.42 17.68,1.12 0.34,0.36 0.72,0.53 0.81,1.22l3.54 9.61 69.19 -18.04c24.45,-4.96 30.64,1.96 17.81,-11.65 -0.33,-0.35 -0.92,-0.83 -1.22,-1.2 -10.38,-12.76 3.67,9.53 -1.88,-2.69 -4.58,-10.1 6.49,-6.76 7.43,-18.69l18.27 0c0.18,0.74 0.93,2.81 1.31,3.26 3.7,4.42 1.99,2.65 6.52,5.87l49.57 -4.54 -3.55 4.94c-6.61,5.59 -0.72,2.09 -13.82,5.68 15.09,-1.94 19.21,2.85 34.89,0.23 10.56,-1.76 23.45,-3.36 37.71,-0.1 11.93,1.98 104.72,-8.77 124.94,-10.63 42.93,-3.94 86.04,-6.27 130.63,-8.13 160.44,-6.72 374.22,-0.04 531.35,22.76 62.99,9.14 152.44,23.7 215.48,39.18l13.65 5.81c19.55,-1.7 67.11,20.38 83.5,19.59 12.95,-2.65 8.5,-1.82 19.5,0.49 0.6,-0.44 1.41,-1.87 1.71,-1.43 1.01,1.44 2.24,-6.27 16.17,-9.49 8.93,-2.07 10.47,-1.64 18.07,-4.18 10.67,-3.56 10.54,-3.53 21.19,-5.43 11.12,-1.98 8.04,-1.52 18.31,-9.12 -8.48,-5.62 -16.97,-2.71 -25.85,-6.83 -3.06,6.38 -2.42,8.94 -13.06,11.38 -7.51,-8.01 -5.74,-24.06 -4.48,-34.16 -7.04,-5.95 -42.17,-16.11 -55.01,-19.38 -34.57,-13.12 -62.92,-19.32 -97.51,-28.22l-13.32 -5.74c-8.61,0.77 -34.16,-4.8 -39.39,-8.11 -20.14,-2.31 -47.17,-9.24 -67.59,-13.09 -169.51,-31.93 -334.7,-46.17 -510.75,-44.96 -125.48,0.86 -314.46,13.64 -437.6,38.01l-131.25 26.41z"/>
   <path class="fil12" d="M816.1 746.07c29.46,-6.8 101.16,-9.19 134.71,-10.34 21.71,-4.6 186.94,-4.48 207.69,-0.36 80.65,2.47 151.12,10.24 228.78,21.09 24.85,3.47 51.01,9.83 75.09,11.37 4.48,-12.86 22.48,-56.19 22.14,-67.18 -6.53,-2.08 -15.73,-3.19 -23,-4.39 -3.77,-0.62 -7.58,-1.07 -11.32,-1.8 -2.1,-0.41 -4.29,-0.83 -6.31,-1.45 -0.62,-0.19 -1.39,-0.49 -1.93,-0.68 -0.54,-0.18 -1.42,-0.61 -1.84,-0.77 -0.42,-0.16 -1.25,-0.47 -1.79,-0.82 -12.15,1.3 -78.81,-10.12 -97.32,-12.31 -163.04,-19.26 -355.84,-23.35 -518.75,-5.11 -30.93,3.46 -165.25,19.44 -187.53,27.31 0.06,11.09 17.11,55.81 23.17,66.86l158.22 -21.44z"/>
   <path class="fil10" d="M1032.82 184.11c0.1,-0.54 0.17,-1.22 0.29,-1.71 2,-8.06 -1.32,-3.59 3.07,-6.42 -4.98,-6.13 0.27,-0.44 1.66,-0.73 0.17,-0.02 4.54,-0.61 5.59,-0.78 13.91,-2.3 21.23,-6.79 31.93,1.39 6.81,5.2 4.69,5.67 15.11,11.91 8.59,5.15 7.74,7.35 13.57,13.4 8.13,8.42 17.62,16.11 29.75,23.97 13.96,9.03 9.94,23.65 31.56,21.55l3.71 2.3c-8.13,5.95 -9.23,8.13 -20.31,8.22 -6.52,0.07 -21.94,-1.81 -29.07,-2.52 -18.84,-1.88 -38.28,-0.63 -57.39,-0.68 -21.09,-0.07 -34.27,1.95 -54.77,1.83 -25.43,-0.17 -41.37,3.05 -44.52,3.05 -6.61,-0.02 -2.76,-0.07 -7.56,-1.07 -0.71,-0.15 -1.88,-0.05 -2.39,-0.93 -0.51,-0.9 -1.63,-0.61 -2.37,-1.07 5.69,-9.15 18.3,-6.22 38.78,-6.3 4.32,-14.38 -1.93,-7.37 0.05,-20.33l3.54 -18.77 39.59 -1.02c0.37,-12.04 -3.24,-4.64 -1.17,-18.26l1.34 -7.03zm-61.51 -126.76c1.1,-18.04 1.1,-8.49 -0.37,-9.13 19.67,0 46.69,-5.39 63.51,0.02 -5.25,6.96 -10.01,4.64 -21.82,4.34 -2.3,-0.07 -11.11,-0.17 -12.89,0.2 -8.93,1.83 -3.88,-2.66 -6.37,4.56 14.79,5.2 46.5,-2.98 63.78,-2.83 22.87,0.2 14.47,3.78 31.07,4.08 2.81,0.05 17.82,-0.76 18.8,-0.61 20.33,2.76 7.28,-4.37 12.69,9.57l-42.59 0.54 0.44 30.34c17.06,0.17 8.47,-1.03 12.06,8.18 -23.53,21.19 -37.44,0.39 -40.13,-1.49l-2.81 -1.71c-7.86,-3.2 -20.87,1.44 -24.56,-4.12 -14.69,-22.29 -1.15,-10.59 -23.55,-22.56 -15.01,-8.03 -3.39,-12.52 -27.27,-19.38zm-505.48 53.65c-0.24,3.18 -2.95,2.25 -4.34,3.22 -20.85,14.5 -34.76,30.05 16.87,24.85 13.74,-0.66 25.09,8.83 36.46,6.44 32.07,-6.74 31.59,-4.76 48.77,-12.77 10.35,-4.81 40.32,-9.15 53.7,-8.96 18.84,0.27 8.2,-2.2 26.14,-6 175.43,57.65 177.16,-82.5 379.19,12.59 3.96,5.17 13.38,6.96 19.09,9.11 0.09,17.06 2.34,18.06 -21.75,36.2l-11.76 9.93c-63,24.09 -58.94,44.94 -76.3,48.5 -7.54,1.54 -25.12,0.93 -31.73,0.95 -3.46,3.39 -164.91,-19.65 -197.98,35.95 -31.95,-40 -140.06,-10.64 -188.31,3.37 -8.74,-3.98 -8.5,3.61 -16.57,1.05 -13.5,-4.27 -24.33,7.18 -26.9,12.84 10.76,7.15 -5.74,-0.44 15.65,9.2l-8.42 5.95c-7.25,2.61 -14.96,-1.05 -24.31,0.03l-0.15 8.44c-19.55,-4.39 17.91,8.25 12.79,18.31l137.86 -28.09c123.14,-24.36 312.11,-37.15 437.59,-38 176.04,-1.2 341.23,13.03 510.75,44.96 20.43,3.83 47.45,10.76 67.59,13.08 -2.91,-8.13 1.66,-5.64 -9.47,-7.01 -11.4,-3.85 -16.8,-6.54 -29.19,-7.3 16.87,-3.66 12.57,-3.91 30.48,-1l-12.47 -4.76c-3.49,-1.07 -7.52,-2.07 -8.79,-2.37 -30.14,-6.83 -17.57,-7.2 -68.02,-2.32 7.3,-10.79 -2.64,1.61 6.76,-5.15 0.69,-0.49 3.05,-2.1 3.54,-2.44l3.42 -2.69c-11.08,-0.49 -23.11,0.81 -32.83,-1.71 -15.89,-4.13 -12.15,-3.93 -31.19,-2.32 -14.6,1.22 -33.42,-1.12 -52.19,-2.03 -16.13,-0.76 -1.37,1.15 -10.28,-3.02 -11.33,-5.3 -7.42,-0.83 -25.73,-7.3 -14.18,-5.03 -59.53,2.56 -75.08,-2.32 -13.91,-4.37 -6.47,-3.81 -6.35,-4.32 3.37,-8.59 -2.59,-4.15 12.54,-5.93 18.43,-2.17 37.59,3.91 47.31,2.46 6.03,-0.88 3.12,-0.17 6.74,-2.54 -6.67,-4.54 -11.5,-3.64 -11.69,-3.66 -34.49,-3 -35.98,12.86 -92.8,-3.69 -0.69,-0.19 -1.32,-0.46 -1.98,-0.68 -12.67,-4.03 -10.42,-3.59 -25.29,-3.35 -15.59,0.24 -31.61,1.3 -47.04,0 -5.39,-6.25 -6.81,-23.99 -41.76,-29.68 3.51,3.61 0.88,2.95 6.64,-5.18 -18.99,-2.17 -3.61,-24.02 -48.38,-31.31 3.52,3.61 0.88,2.93 6.61,-5.18 -13.3,-1.54 -6.91,-0.39 -13.06,-12.13 -9.3,-17.79 -27.97,-8.4 -21.28,-22.38 0.78,-1.66 6.13,-6.86 8.37,-4.76l28.83 0.1 2.2 -35.2 40.83 -2.27 0.95 -33.95c3.93,-0.31 8.13,-0.39 11.81,-1.15 12.86,-2.66 1.73,-0.1 9.06,-3.49 29.9,-13.91 43.59,-5.69 61.24,-5.74 3.54,9.4 -1.31,4.2 5.35,9.01 15.67,-3.73 41.11,-9.15 57.39,-6.52 -8.3,5.71 -11.96,4.88 -20.67,5 11.67,7 43.35,0.15 57.68,1.32 18.6,1.56 36.07,3.51 55.67,-0.83 -10.35,-5.74 -101.69,-12.33 -114.5,-13.48 -207.86,-18.48 -569.77,-5.37 -767.84,47.89 -10.37,2.78 -46.04,10.79 -62.97,16.06 -4.22,1.32 -2.93,1.73 -4.74,3.05 -0.37,0.24 18.6,-5.22 18.26,-4.93z"/>
   <path class="fil12" d="M1649.55 759.4c14.01,-1.59 1.27,0.24 12.08,-2.78l10.5 -1.86c0.22,0 9.6,1.09 11.2,1.15l0 38.25 -51.2 3.22c-11.94,2.57 -2.95,2.47 -16.85,-1.77l-24.99 -8.28c13.83,-20.02 -1.33,-13.38 8.04,-29.07 1.96,-3.28 2.54,-4.44 4.13,-7.18 10.04,1.72 1.77,0.5 13.05,4.3 4.83,-2.87 4.16,-2.91 7.38,-5.11 1.47,-1 2.68,0.37 3.76,-2.5 0.35,-0.93 1.24,-0.87 1.91,-1.24l7.83 13.41c4.45,-0.11 8.78,-0.05 13.18,-0.55zm306.3 4.91c-1.41,2.17 0.07,0.63 -3.03,3.26l-21.11 13.38c-48.06,27.45 -52.93,32.28 -83.98,17.2 -15.14,-3.95 -34.97,-11.48 -50.27,-16.98 -17.03,-6.11 -32.62,-10.43 -49.73,-15.78 -9.39,-2.94 -95.21,-26.45 -102.16,-31.05l-46.79 -8.76 -24.15 65.95 124.81 34.3c29.12,8.69 92.8,26.5 116.6,39.06 -3.55,10.56 -43.39,85.87 -49.19,90.49 -53.23,-15.13 -177.57,-53.93 -229.63,-59.16 -8.51,10.94 -20.29,50.72 -25.61,66.61l66.37 14.2c-0.89,-20.27 -10.45,-20.87 16.67,-20.87l0 -11.43c-15.5,0 -13.75,-1.76 -18.27,-6.25 48.38,-0.92 40.39,4.83 79.14,1.13 -16.28,-7.6 -13.8,-7.38 -36.1,-4.75 3.27,-2.82 6.37,-3.96 9.91,-6.09 -6.19,-4.74 -0.88,0.09 -6.35,-2.46 -5.36,-2.5 -2.52,-1.06 -5.13,-2.8 -14,-9.3 -4.52,-6.08 -7.57,-3.88 13.41,0 32.11,8.89 42.87,11.49 12.91,3.11 33.74,8.87 45.88,9.06l5.08 41.06 -10.22 4.85c-10.62,4.92 -6.4,5.04 -22.05,7.31 -2.38,-17.48 -1.93,-6.73 -14.57,-15.01 -8.81,3.85 -2.97,2.01 -10.44,6.55 -1.33,-2.69 1.03,-3.93 -2.61,-8.36l-25.87 5.99c-10.62,-2.81 -0.75,-1.26 -4.47,4.17 23.99,6.8 105.02,24.91 118.76,35.56 -32.8,52.82 -105.47,70.78 -116.67,83.26 -2.54,6.53 8.63,3.97 12.2,5.22 0.62,0.22 1.32,0.45 1.91,0.7 0.57,0.24 1.18,0.61 1.71,0.89 4,2.04 3.56,5.83 14.57,4.85 12.73,-1.13 11.3,-6.85 11.32,-6.89 0.4,-0.66 1.65,-3.09 2.06,-3.78l18.43 -4.4 1.81 -15.95c0.19,-0.68 0.44,-1.56 0.8,-2.3 12.21,-2.23 5.91,0.73 14.79,0.75l45.23 -0.75c0,-15.37 -2.59,-27.15 5.19,-41.07 -0.7,-0.2 -1.91,-0.75 -2.19,-0.11l-3.68 -0.09c-6.37,0.08 1.66,4.91 -3.47,0.2l6.73 -9.13 -5.22 -6.84c1.75,-1.51 -4.81,0.38 1.26,0.54 10.56,0.27 -6.31,4.26 5.16,-0.54 -0.54,-10.18 -4.07,-16.05 -3.91,-29.65 0.12,-10.13 0.62,-23.06 2.73,-29.65 10.59,-2.98 12.02,-4.09 24.77,-1.15l-5.42 10.64c20.12,3.68 10.45,0.02 14.55,-2.66l-1.83 -12.93c11.14,-3.89 10.24,-6.73 9.66,-19.02l14.46 -3.27 1.22 -17.99c3.66,4.95 1.57,-2.41 2.37,5.55 0.81,8.02 1.44,1.38 -1.72,10.2 21.45,-8.99 -7.41,2.12 18.04,3.05 1.35,-15.48 0.6,-13.72 -4.34,-24.91 4.47,-2.74 0.52,-1.01 6,-2.33 0.48,-0.11 2.61,0.19 3.46,0.06 1.62,-9.33 3.77,-11.43 -1.15,-18.33l-2.83 -3.01c-0.35,-0.38 -1.15,-0.91 -1.56,-1.47 6.04,-14.93 -7.78,12.02 2.17,-3.53 1.07,-1.67 2.04,-2.95 2.81,-4.28l4.91 -15.99c-0.62,-18.6 2.01,-6.13 -7.28,-12.7 -0.05,7.88 -0.31,2.3 2.58,4.54 0.39,-0.68 1.87,-4.14 2.17,-4.79 0.28,-0.62 0.65,-1.36 0.94,-2 0.32,-0.71 0.8,-1.57 1.09,-2.2 0.31,-0.67 0.68,-1.59 1.03,-2.39l15.67 0 0 -17.69c10.13,-0.17 14.52,-2.56 21.62,-0.89 18.72,4.41 19.27,1.13 42.31,1.46l-0.21 -19.42 19.79 0.03 0 -15.97c22,0 41.24,-1.81 62.63,-2.29l-1.48 -5.86c0.02,-0.34 0.18,-1.01 0.22,-1.38l2.61 -20.29c6.24,-18.4 18.24,1.48 38.23,-15.78 1.8,-1.56 2.87,3.01 2.83,-4.43 -0.09,-13.74 -14.46,7.35 -1.7,-23.78 0.29,-0.71 0.62,-1.22 0.87,-1.91l0.17 -22.36c19.44,9.31 -8.98,0.37 11.89,4.5 1.36,0.27 7.28,0.06 8.99,0.05 0,-1.3 -0.13,-5.99 0.19,-7.02 3.48,-11.33 4.5,-8.89 21.33,-10.69 3.02,-19.42 -2.8,-16.76 -3.76,-28.12 -1.81,-21.46 7.45,2.22 -0.28,-27.54 -2.43,-9.34 1.63,-12.83 -8.8,-13.53l-8.52 25.08c-1.6,2.61 -2.03,3.8 -2.79,6.86 -0.97,-4.96 -1.25,-16.57 -1.25,-16.75 0.11,-7.73 1.25,5.38 0.24,-6.22l-1.6 -6.5c-4.98,-9.48 9.09,-6.03 -12.96,-6.83 9.34,43.4 8.38,62.91 -14.65,96.74 -13.37,19.63 -43.89,49.51 -65.2,58.15z"/>
   <path class="fil12" d="M1599.01 1111.37c-14.49,2.5 -28.8,9.32 -43.35,13.73 -14.07,4.26 -28.6,8.72 -43.17,12.48 -19.2,4.94 -73.77,19.91 -90.67,18.37 -8.61,6.09 -31.92,8.08 -44.04,9.95 -35.02,5.4 -116.54,16.78 -145.87,16.13 17.3,-11.4 75.47,-27.04 63.24,-64.44 -7.3,-22.35 -49.27,-44 -79.88,-50.11 -38.85,-11.3 -80.15,-17.32 -124.23,-18.81 -23.96,-0.81 -48.35,-1.04 -72.27,0.49 -14.15,0.91 -51.39,6.68 -59.6,4.59 -7.41,2.98 -34.07,9.1 -43.88,8.65 -4,3.3 -38.17,14.02 -47.47,18.05 -21.06,9.13 -25.33,18.35 -39.33,25.6 -1.83,8.83 -8.52,14.79 -4.59,29 7.24,26.17 49.46,37.13 63.15,46.94 -60.56,1.71 -196.53,-24.8 -257.7,-38.89 -55.85,-12.87 -113.62,-31.7 -162.41,-56.5 -17.85,-9.07 -29.48,-17.94 -43.83,-26.67 -8.31,-6.78 -13.29,-10.25 -20.33,-17.68 -5.62,-5.93 -9.8,-12.51 -15.89,-17.62l5.66 -7.88c-10.51,-2.76 -10.71,-4.24 -21.52,-4.89l-5.46 37.83 23.48 -0.93 0 16.89 18.26 0c0,14.7 2.61,22.28 2.61,36.5l33.96 0c0.61,0.66 1.28,0.83 1.57,2.17 1.48,6.85 5.54,7.23 6.24,16.08 20.91,0 43.39,5.13 49.03,-0.39l39.22 5.3c15.56,3.74 7.08,0.05 10.89,8.76l-15.16 3.21c-0.81,0.19 -1.72,0.49 -2.37,0.65 -0.65,0.17 -1.69,0.27 -2.35,0.7 1.48,10.1 4.06,6.57 4,18.45 27.78,1.76 23.08,-0.43 44.76,-0.32l86.57 1.51c5.66,0.48 9.31,3.07 17.91,4.3 13.13,1.88 11.62,-1.73 17.98,5.71l-12.96 4.72c-0.24,0.04 -7.12,-0.17 -7.91,-0.16l23.53 0.99c-7.44,16.99 -2.66,21.3 -2.66,40.07l15.69 -2.28 0 -18.24c19.84,0 29.01,-2.45 49.84,0.49 13.03,1.84 32.37,-0.53 51.91,-0.02 1.93,-5.54 0.59,-6.14 5.22,-9.8 0.85,7.94 4.4,3.46 -2.38,13.68 16.53,-4.98 13.39,-3.46 28.38,-2.58l56.53 -1.78c5.64,-10.72 -0.69,-14.52 -1.19,-28.9 -4.66,0.36 -3.13,0.49 -5.67,1.75l-3.63 2.33c-0.2,0.13 -0.71,0.65 -1.15,0.87 -10.19,-5.77 -18.59,-3.68 -30.71,-7.64 -5.76,-1.89 -3.44,-1.85 -10.61,-2.63 3.24,-5.78 5.2,-4.13 12.61,-9.13 -1,-7.52 -1.56,-7.78 0.65,-15.97 -3.98,-3.33 -6.87,-2.21 -11.51,-4.56 8.3,-5.74 17.4,-9.11 28.7,-9.11l0 -34.22 52.22 -1.74c16.83,0.63 20.67,-2.08 33.71,-3.68 4.17,-0.51 11.05,-0.49 15.38,-0.66l-4.49 3.37c-0.4,0.2 -1.41,0.92 -1.85,1.09 -6.63,2.62 -3.46,0.05 -3.65,-0.66l54.81 -0.01 0 -18.24c10.91,0 25.49,0.7 35.99,-0.13 8.28,-0.65 6.46,-1.74 16.13,-2.02 6.97,-0.2 13.64,1.85 18.16,-0.39 3.35,-1.66 -4.35,-2.07 5.56,-2.95 13.82,-1.22 -3.76,5.56 31.09,4.63 8.79,-0.24 8.45,1.01 17.21,2l1.7 -7.09c16.36,5.42 14.38,8.19 33.3,8.22 -2.13,1.36 5.01,7.26 -14.73,2.89 -6.92,-1.53 -3.74,-4.15 -14.17,-6.68l-5 12.06c-31.69,-0.15 -8.58,-0.14 -22.15,-8.09 -3.99,-2.33 -8.74,-4.31 -13.88,-1.28 -8.16,4.81 -0.51,-2.02 -4.03,5.23l-1.69 7.27 -33.94 4.59c0.99,-1.34 -11.21,2.26 1.42,-0.7l32.54 0c0.51,0.06 1.29,0.18 1.83,0.23 13.4,1.31 15.4,-3.48 32.1,-2.22 13.37,1 20.06,4.85 33.33,3.23 14.68,-1.79 -3.09,-2.68 13.21,-1.38l26.6 1.61c12.68,-0.43 13.94,-0.49 23.03,3.77l0.39 18.24 -20.94 0 0 13.71 20.44 0c-0.23,12.3 -5.18,28.52 1.98,40.43l2.37 2.9c-10.28,0.33 -9.19,-0.21 -18.24,1.89 -4.77,1.1 -7.21,2.28 -15.04,2.47 -3.48,12.5 -14.39,11.85 -12.39,25.5 5.85,-4.02 10.15,-8.84 15.22,-13.51 1.04,6.29 1.05,6.36 3.06,11.02 19.71,1.16 44.56,9.75 65.03,1.54 13.95,-5.6 16.07,1.14 24.09,3.12 1.98,0.49 5.16,0.77 7.2,0.73 9.66,-0.2 17.59,-3.02 31.53,-2.75 21.1,0.39 36.86,-0.23 57.42,-0.35l1.54 -12.08c-3.21,-0.26 -11.34,-0.1 -12.04,-0.2l-12.76 -4.26c4.18,-0.24 29.42,-0.11 29.79,-0.01 -4.65,-4.43 -1.85,-2.43 -8.54,-5.17 -5.87,-2.41 -2.13,-1.49 -9.52,-2.42 3.88,0.94 5.46,0.6 10.57,-0.76 9.5,-2.52 3.39,3.31 8.79,-4.77 8.82,1.11 6.39,1.04 0.31,5.11 -0.5,0.34 -1.56,0.85 -2.03,1.14 -0.5,0.3 -1.5,0.72 -2.19,1.17 12.61,-2.78 11.28,-6.91 22.16,-10.26 -1.56,13.67 0.53,4.85 -5.87,11.98l21.55 2.28 1.77 -13.77c0.18,-0.65 0.5,-1.48 0.84,-2.19 14.26,-3.31 13.81,-1.2 25.55,-0.34 22.7,1.66 18.22,-11.38 17.5,0.9 12.92,-0.8 19.77,2.39 32.29,-1.33 14.27,-4.25 -0.53,-3.47 15.89,-5.71 11.14,-1.52 21.31,1.63 32.72,1.16l3.91 -15.2 15.67 0c0,-18.38 -3.2,-11.31 7.8,-13.71l-7.48 -4.23c-15.3,-6.23 8.14,12.59 -2.52,-0.32 19.54,-0.05 3.07,0.93 9.99,-4.56 -5.5,-11.49 2.86,-0 -3.43,-4.46z"/>
   <path class="fil10" d="M950.81 735.73c3.85,14.75 0.62,3.95 -21.26,9.67 -1.11,0.29 5.68,2.2 -10.77,2.93 -19.2,0.85 -9.76,-1.91 -13.51,-3.13 -11.37,-3.69 -9.27,0.06 -20.72,2.22 -18.18,3.43 -12.38,-5.56 -17.84,5.94 -8.69,-0.07 -24.88,-0.89 -22.94,7.39 0.12,0.51 0.81,2.13 1.09,2.66 1.08,2.02 8.06,11.54 18.07,19.68l63.46 53.68c7.51,5.54 -4.17,0.21 4.28,1.84l22.49 1.75c28.79,-1.52 52.48,0.02 80.92,-3.45 55.95,-6.83 158.61,13.22 166.67,-0.91 3.91,-6.85 8.98,-19.16 17.49,-22.45 6.14,-2.38 11.72,-8.1 15.26,-13.56 5.65,-8.73 -2.84,-0.06 5.55,-4.78 13.48,-7.58 -0.95,-3.16 9.85,-8.93 8.48,-4.53 0.74,2.83 7.64,-5.79l-5.68 -1.63c-5.06,-0.04 -2.01,-0.11 -3.3,1.65 -5.07,-15.72 -4.29,-8.48 3.28,-15.58l2.88 -2.69c-4.41,-2.04 4.29,-2.04 -9.8,-2.08 9.73,-2.33 5.13,-0.5 11.46,-7.03l-10.44 0.11c11.35,-1.3 4.89,2.35 18.7,-2.44 0.03,-0.01 8.41,-5.19 15.25,-2.26 -11.43,0 -24.12,-1.44 -33.96,-1.19 -20.87,0.54 -18.64,-2.44 -32.09,-3.42 -12.62,-0.92 -16.56,3.94 -26.38,2.37l-7.79 -2.96c-0.64,-0.22 -1.27,-0.5 -1.97,-0.72 -0.78,-0.24 -1.43,-0.4 -2.26,-0.63 -1.78,-0.48 -9.56,-1.97 -9.87,-2.09 -8.51,-3.24 -3.6,4.07 -6.07,-4.55 -20.74,-4.12 -185.98,-4.24 -207.69,0.36z"/>
   <path class="fil10" d="M1130.68 1433.94c-6.76,27.61 25.94,59.07 -50.57,169.69 -16.62,24.04 -32.15,44.2 -49.53,66.15 -6.59,8.3 -47.23,63.09 -49.18,64.24 1.49,44.18 53.7,97.91 97.07,30.76l95.29 -134.1c29.58,-50.21 54.09,-117.89 25.68,-180.77 -2.95,-8.57 -8.61,-20.8 -14.59,-23.85 -55.21,-40.37 28.17,17.67 -31.24,-27.34 -11.18,-22.89 -8.98,-11.59 -26.75,-7.64 -10.98,13.98 -2.17,5.49 3.83,42.86z"/>
   <path class="fil12" d="M1846.8 179.87c0.48,0.5 1.15,1.1 1.52,1.42l11.01 7.5c50.91,26.24 138.46,85.01 157.39,125.51 8.06,4.31 35.66,45.77 33.87,59.18 3.89,4.47 4.12,3.8 6.06,14.51 0.93,5.15 1.67,10.43 2.39,16.08 4.2,32.76 3.84,79.57 3.43,112.63 -10.11,-4.57 -25.87,-21.12 -34.66,-28.2 -12.13,-9.78 -22.34,-17.4 -35.63,-25.92 -12.44,-7.98 -25.2,-15.22 -39.12,-22.76l-40.62 -22.76c-10.86,-0.68 -66.77,-28.94 -87.44,-33.43 -1.26,10.1 -3.03,26.15 4.48,34.16 10.64,-2.44 10,-5 13.06,-11.38 8.89,4.12 17.37,1.21 25.85,6.83 -10.27,7.6 -7.19,7.14 -18.31,9.12 -10.66,1.9 -10.52,1.86 -21.19,5.43 -7.6,2.54 -9.13,2.11 -18.07,4.18 -13.92,3.22 -15.16,10.93 -16.17,9.49 -0.31,-0.44 -1.11,0.98 -1.71,1.43 -10.99,-2.31 -6.55,-3.14 -19.5,-0.49 0.57,0.41 1.48,0.32 1.8,1.15 0.32,0.81 1.37,0.87 1.82,1.09l30.02 10.96c66.78,23.87 159.44,63.74 199.18,112.06 12.09,12.13 9.93,12.67 16.88,20.92l5.5 5.4 5.3 -16.28c-9.77,-2.44 -13.08,-6.46 -7.89,-14.47 2.67,-4.11 2.01,-4.01 7.24,-6.33 9.34,-4.14 29.17,-2.21 41.45,-2.21l0.37 -17.75 20.51 -0.56 -0 -13.65c-8.65,0 -10.5,1.61 -16.93,-4.54 -14.72,-14.08 -6.14,-36.5 -6.54,-43.44 -1.04,-17.94 -2.38,-6.63 -4.48,-13.12 -2.39,-7.37 -0.77,-21.66 -0.77,-30.14 5.85,-4.92 11.84,2.37 8.48,-19.17 -1.3,-8.31 -3.51,-6.12 -2.15,-12.92 4.21,-21.17 4.99,10.85 5.85,-13.54 -0.86,-13.98 -5.91,-20.26 -6.78,-32.97 -0.45,-6.56 0.91,-10.7 -0.31,-16.84 -1.69,-8.56 -4.17,-6.7 -5.07,-16.35 -26.96,0 -22.07,8.38 -35.32,-7.68 -5.06,-6.13 -6.4,-4.09 -3.83,-10.43 0.71,5.19 0.74,5.35 3.76,6.55 0.39,0.15 1.56,0.09 1.91,0.19 0.39,0.1 1.46,0.17 2.15,-0.02 0.52,-3.81 1.25,-3.44 0.38,-8.83l-2.96 -9.72c-0.14,-0.61 -0.3,-1.17 -0.39,-1.78 -0.45,-2.94 0.41,-16.44 0.38,-20.74l-29.13 -0.06c-11.15,-1.57 -8.37,-3.07 -17.73,-11.55l-10.54 -7.15c-4.08,3.88 0.04,0.02 2.59,7.37 -2.49,-3.25 -2.93,-5.23 -7.83,-6.87l0.02 -18.25c-27.66,0 -19.82,1.04 -15.68,-22.79 -12.97,3.62 -11.92,3.69 -26.07,3.03l-0 -16.74c-24.6,0 -16,3.8 -19.98,-13.19 -0.95,-4.04 1.03,-7.08 -6.2,-8.37 -7.84,-1.4 -4.69,-0.25 -10.41,3.46l-4 3.4c-1.3,-5.41 1.82,-4.67 -11.31,-6.52 -14.02,-1.98 -9.47,-3.29 -20.06,0.91 -1.99,0.78 -6.84,4.17 -9.88,5.96z"/>
   <path class="fil12" d="M1365 866.69l-1.89 1.06c-22.02,5 -57.22,-4.43 -75.38,-3.29 -22.61,1.41 -6.93,-0.21 -25.28,-0.69 -3.83,-0.1 -2.26,0.29 -8.41,-0.38 -22.01,-2.38 -21.68,-7.43 -54.34,-6.43 -5.47,0.17 -8.57,-0.41 -14.51,-1.62 -27.74,-5.62 -45.52,0.17 -70.27,-1.87l0.24 11.48c-73.56,-0.68 -148.69,0.72 -219.87,0.57 -10.5,0.12 7.35,-1.35 -6.26,-1.95l-25.05 2.83c-6.6,-7.67 -47.74,1.42 -78.28,0.9 -5.1,5.27 -5.2,6.28 -5.2,15.84 -9.55,0 -13.42,-0.85 -20.88,4.55l0 18.24c20.57,-0.33 59.5,-3.47 77.89,-0.7 8.57,1.29 3.63,1.69 14,2.61l56.69 4.18c-6.84,-8.29 -6.78,-3.22 -20.3,-7.48l88.29 3.62c2.38,6.83 2.71,-4.13 -1.39,2.64 -0.65,1.06 -5.93,2.29 11.37,2.16l170.08 -0.16c14.65,0.19 36.31,-0.54 48.4,2.19 9.67,2.18 5.9,2.39 16.83,2.42l1.11 -2.34c3.17,-4.02 -4.25,-1.87 4.92,-3.03l35.98 1.02c16.54,-4.67 3.3,-3.69 4.96,-7.95 35.45,-2.86 58.06,9.35 93.06,2.35l2.37 1.21c-1.24,1.34 5.13,3.61 -14.19,3.53 -7.35,-0.03 -15.08,-0.54 -22.68,-0.55l4.48 2.57c16.16,6.41 20.85,-0.41 37.41,6.92 0.51,0.22 1.4,0.69 1.81,0.87 0.41,0.19 1.15,0.74 1.83,0.9 4.03,-33.3 -4.48,-7.58 -4.06,-36.63 18,-1.41 35.03,11.85 41.97,-0.88 -3.93,-6.04 0.97,-1.16 -6.65,-3.57 -0.29,-0.09 -7.67,-1.67 -8.53,-1.88l-7.69 -2.06c-1.41,-0.3 -7.42,-1.08 -9.52,-1.43 -5.04,-10.47 11.13,6.18 -7.15,-4.88 -7.3,-4.42 -1,4.2 -5.88,-4.92z"/>
   <path class="fil12" d="M949.18 1523.23c9.13,47.31 6.54,73.02 -14.3,113.02 -8.62,16.55 -17.21,28.87 -26.44,42.96 -5.78,8.83 -24.44,35.52 -32.49,40.95 -0.89,7.26 -0.69,4.49 -5.19,11.75 -2.63,3.35 -3.08,3.29 -4.74,6.12 -4.62,7.88 -1.99,1.69 -3.34,8.83 12.56,-0.86 3.71,-1.74 11.15,-3.06l13.61 1.6 -3.65 -16.61c9.11,2.7 4.29,-0.52 10.87,5.87 3.56,3.45 2.63,3.88 5.83,7.42 7.61,-12.03 7.15,-10.89 7.84,-19.48l44.12 0c0.87,11.67 1.51,3.79 2.38,9.58 0.6,4.02 0.48,7.32 0.24,12.83 18.5,-0.17 -0.8,8.47 1.08,20.93 1.41,-7.25 -0.29,-2.66 0,-7.09l1.3 -11.16c-7.29,7 -7.34,8.14 -4.79,22.79l-12.11 -6.95c-0.14,-0.04 -8.01,0.12 -8.77,0.12l0 15.96c-7.85,0.57 -8.28,0.04 -12.27,4.67 -13.5,15.67 -4.32,32.19 -4.31,32.2 2.4,5.55 5.43,-5.26 -4.3,14.98 -4.87,10.13 -1.38,89.72 -0.35,105.69l0.35 59.2 20.88 0 0 18.25 18.26 0c0.21,10.77 2.58,9.22 1.53,19.19l19.4 0.5 2.42 9.67c0.3,1.98 0.13,5.06 0.13,7.13 7.04,0 13.4,-0.43 20.88,2.28l-0.46 5.5c-0.04,0.59 -0.14,1.29 -0.18,1.95 -0.25,3.92 -0.97,2.72 -0.22,8.5l21.7 2.59 0.04 33.92 21.92 0.2c4.85,-0.75 5.33,-2.49 11.39,-0.76l2.68 1c10.58,3.25 29.44,-0.43 42.33,-0.43l-0 -31.96c-0.01,0.37 0.42,6.87 0.37,7.12 -3.21,15.53 4.06,6.2 -8.21,11.13 -13.07,-5.25 -4.39,-7.8 -8.7,-17.33 -7.57,-16.77 -8.47,2.37 -8.77,6.39l5.11 7.69c-11.65,-2.56 -46.01,-29.15 -55.32,-36.69 -21.26,-17.16 -58.09,-53.28 -68.39,-85.5l-3.58 -9.93c-20.15,-17.82 -16.1,-91.26 -9.31,-120.06 12.33,-52.33 30.39,-69.35 44.59,-102.69 1.94,-1.15 42.59,-55.95 49.17,-64.26 17.37,-21.93 32.91,-42.09 49.54,-66.14 76.52,-110.63 43.8,-142.09 50.56,-169.69 -6.37,-8.18 -15.13,-44.77 -31.75,-61.18l-3.26 -2.74c-1.65,8.22 -0.09,8.87 -0.11,12.18 -0.09,14.8 -2.55,-5.02 -12.36,30.17l5.14 1.65c5.66,1.31 -0.67,1 6.61,1.31l7.43 -2.6c4.28,-5.15 1.62,-11.83 4.28,-18.62 -7.28,5.15 4.54,7.99 -2.26,18.26l5.91 2.07c9.16,3.63 6.49,10.43 7.26,21.81 0.94,13.82 -0.45,26.1 -0.05,40.13l-0.46 25.07c0.45,4.1 3.15,8.7 -0.62,16.91 -7.47,16.23 -2.79,12.76 -7.17,21.77l2.02 -6.69c-1.59,-8.86 0.41,-5.6 -7.22,-8.63 -4.13,3.74 -0.47,-1.91 -2.37,4.65 -0.33,1.12 -0.93,5.64 -1.44,7.96 -6.88,30.75 -0.28,30.91 -19.23,30.26l-2.92 16.41c-0.21,0.59 -0.5,1.16 -0.7,1.74l-2.04 9.04c-11.04,4.28 -4.13,1.89 -15.75,2.65l-5.32 0.06c-11.22,0.44 -7.98,2.16 -20.45,-0.25 2.61,12.25 -1.09,22.49 -1.09,34.04 -0,3.52 1.31,21.25 -2.25,22.8 -8.78,3.83 2.07,0.02 -9.37,12.33 -2.61,2.81 -1.07,0.24 -4.73,4.7 -0.35,0.42 -0.76,0.99 -1.09,1.43l-10.75 13.52c-4.85,4.24 -0.06,0.74 -3.32,2.61 -1.8,1.03 -8.66,1.28 -11.96,11.02l-2.62 -7.19c-3.71,-4.43 -16.01,-1.94 -31.31,-1.94l-9.05 -15c-10.83,-15.63 5.61,13.43 -2.9,-3.82 9.56,-2.85 14.09,-3.92 25.01,-3.98l0 -13.7c-4.98,0 -8.33,-0.18 -13.21,-0.48 -8.93,-0.57 -4.21,-2.72 -6.6,-0.27 -2.19,-3.91 -0.52,-13.11 0.96,-15.74 2.77,-4.93 -0.49,-6.3 18.84,-6.3 0,-14.47 -0.35,-7.86 -3.11,-16.86 -3.37,-11.02 -0.34,-8.75 0.51,-10.53 2.52,-11.3 0.03,-5.63 16.95,-8.74 2.12,-16.99 5.47,-6.8 4.71,-27.06 -0.39,-10.31 4.3,-4.34 2.47,-21.22 8.84,6.79 7,-10.02 7.17,11.41l13.06 0 0 -13.71c-27.91,0 -20.26,0.5 -24.56,-4.06 -8.02,-8.52 -1.66,-9.7 3.69,-14.19l-20.73 -5c-0.06,7.66 -0.89,5.64 1.41,11.88 1.65,4.46 6.37,6.15 5.86,9.69 -1.18,8.09 0.83,3 -3.72,8.15 -5.99,-14.46 -2.76,-8.34 -1.11,-24.7 -0.82,-0.28 -1.96,-1.39 -2.5,-0.75 -0.54,0.65 -1.76,-0.56 -2.52,-0.72l-16.75 -1.74z"/>
   <path class="fil12" d="M220.43 426.06c0.83,-0.41 3,-3.46 4.61,-5.13l7.44 3.89c1.6,12.64 3.05,-10.03 -2.2,2.78 -0.7,1.7 -3.28,-3.37 -0.41,3.87l33.91 -4.54 0 18.24c8.4,0.05 10.55,0.86 15.66,4.56 -11.84,25.43 -30.45,7.16 -30.7,20.97l2.02 1.85c-11.54,2.93 1.35,-0.32 -6.55,2.56l-17.38 8.82c-26.52,-14.16 -8.28,-15.91 -28.92,-15.96 3.61,-13.09 -2.47,-13.84 -3.46,-19.41 -0.03,-0.17 -0.02,-0.74 -0.03,-0.91 -0.61,-10.09 0.61,-5.15 -1.1,-16.17l27.1 -5.42zm-138.3 251.76c-10.56,-62.28 9.17,-92.42 44.7,-124.29 119.11,-106.84 372.75,-144.54 392.71,-153.41l152.4 -25.49c0.35,-0.75 1.35,-0.48 1.96,-0.83 -14.26,-3.26 -27.15,-1.67 -37.71,0.1 -15.69,2.62 -19.8,-2.17 -34.89,-0.23 13.11,-3.59 7.21,-0.09 13.82,-5.68l3.55 -4.94 -49.57 4.54c-4.53,-3.22 -2.82,-1.44 -6.52,-5.87 -0.38,-0.45 -1.13,-2.52 -1.31,-3.26l-18.27 0c-0.94,11.93 -12.01,8.59 -7.43,18.69 5.54,12.22 -8.5,-10.06 1.88,2.69 0.3,0.37 0.89,0.85 1.22,1.2 12.83,13.61 6.64,6.69 -17.81,11.65l-69.19 18.04 -3.54 -9.61c-0.09,-0.69 -0.46,-0.86 -0.81,-1.22 -7.62,1.3 -8.4,2.93 -17.68,-1.12 -7.94,-3.47 -6.63,-7.49 -22.35,-6.54l2.61 20.95c-19.25,2.09 -8.11,8.61 -27.74,13.18l-34.86 9.65c2.47,1.69 0.24,4.27 1.38,0.32l-17.06 -4.88c0.13,0.3 0.75,0.61 0.83,0.63 0.06,0.01 0.7,0.39 0.77,0.38 0.06,-0.02 3.17,0.13 1.02,-5.57 -16.09,0.93 -23.56,8.51 -41.74,9.49 6.26,-16.26 -7.13,10.63 2.45,-4.06 6.26,-9.59 5.37,-4.24 5.37,-19.13 -12.85,-0.07 -8.91,1.35 -20.11,-3.06 -12.21,-4.81 -5.35,-7.25 -5.99,-10.05 -6.35,1.45 -7.25,-0.05 -10.45,3.97 4.88,-2.88 14.38,-4.21 17.91,-11.57l0.36 -4.48c-14.18,3.85 -37.46,13.42 -50.76,19.71 -15.11,7.15 -33.72,17.43 -48.38,21.54 -1.64,2.27 -58.11,34.84 -66.09,40.23 -27.43,18.52 -40.49,34.22 -59.27,48.34 -2.85,-28.01 -1.51,-73.53 1.42,-101.84 5.81,-56.27 9.3,-41.2 24.98,-80.34 -0.48,-0.23 -3.08,-0.14 -3.55,0 -16.22,4.95 8.47,-8.06 -4.85,1.99 -8.75,6.6 0.1,5.34 -10.5,10.43 -7.74,3.71 -7.61,-0.96 -10.03,10.37l-21.72 -1.12 1.08 71.94c1.7,2.57 1.34,0.53 2.8,5.01 3.01,9.3 -6.39,58.77 -7.87,72.46 -1.58,14.64 4.78,13.93 4.85,29.67 25.53,3.35 20.74,-0.44 20.89,18.25l18.27 0 0.1 22.8c0.94,3.48 8.84,-1.23 4.38,18.9 -5.09,22.94 -10.87,48.07 -6.78,72.51 1.44,8.64 2.61,15.52 11.12,8.95z"/>
   <path class="fil10" d="M1945.99 429.31c11.57,7.13 25.26,9.83 30.22,13.69l10.28 6.81c5.42,6.86 13.13,2.15 19.62,13.52 8.64,15.11 3.27,14.38 21.29,12.06 5.64,12.11 6.27,-1.39 8.32,11.57 2.32,14.5 7.13,5.98 14.76,16.55 9.23,-6.83 16.28,-25.19 9.28,-30.98 7.37,-37.64 -13.18,-69.32 -9.18,-99.05 1.78,-13.43 -25.82,-54.9 -33.88,-59.19l-2.54 0.91c-0.54,-1.69 -46.13,-40.5 -56.41,-49.87 -13.64,-7.69 -18.35,-5.03 -29.39,-6.89l-15.4 4.39c-2.2,2.83 -1.71,1.59 -3.3,6.64 -1.69,5.39 -0.17,-0.64 -0.93,4.42 -0.17,1.12 0.24,6.49 0.27,8.06l-41.74 0.07 0 36.42 -41.74 0.07 -8 36.37c16.18,-0.3 18.96,-0.93 32,4.73 7.15,3.13 17.01,2.64 21.63,7.98 2.83,3.17 -55.78,23.38 13.03,23.53l9.3 -7.3c-25.09,-2.93 33.12,7.67 6.42,12.5 -7.18,13.72 -3.76,16.01 17.43,19.19 5.81,5.74 19.94,8.42 28.65,13.79z"/>
   <path class="fil10" d="M1315.64 1597.14c-20.84,76.67 -40.27,89.9 -87.06,152.26 -17.45,23.21 -35.22,45.52 -47.35,74.96 -22.28,53.09 -17.84,32.49 -19.48,78.79 4.52,49.13 19.5,47.69 28.85,43.91 13.43,12.06 28.14,-6.49 36.13,-22.92 8.69,-18.04 5.69,-34.85 15.86,-55.53l0.64 -0.27c41.57,-90.68 80.99,-116.7 108.81,-173.06 2.27,-4.56 3.96,-7.71 6.3,-12.74 9.01,-19.55 15.11,-40.83 15.84,-62.58 0.42,-11.5 -1.98,-38.54 -8.86,-45.62 -18.35,-12.06 -1.46,-18.41 -27.63,-24.17 -7.06,-33.02 -17.7,-12.01 -19.26,9.13 -6.71,4.85 -0.68,6.86 -2.78,37.83z"/>
   <path class="fil10" d="M1438.3 690.75c0.56,0.34 1.39,0.66 1.81,0.81 0.41,0.17 1.3,0.59 1.83,0.78 0.54,0.2 1.32,0.49 1.93,0.69 2.02,0.61 4.22,1.05 6.32,1.44 3.74,0.73 7.54,1.17 11.3,1.8 7.27,1.2 16.48,2.3 23.02,4.37 0.32,11.01 -17.67,54.33 -22.14,67.2 -24.09,-1.54 -50.23,-7.91 -75.1,-11.37 -77.65,-10.86 -148.11,-18.62 -228.76,-21.09 -138.1,43.74 -16.35,19.99 36.3,70.52 -8.52,3.3 2.39,11.16 -1.54,18.02 -19.36,14.2 -35.42,3.22 -55.14,0.59 -76.06,-10.15 -147.13,-91.24 -187.31,-88.75 -33.56,1.15 -105.25,3.52 -134.71,10.33 -6.08,3.88 -7.61,-0.12 -6.42,6.2 -92.56,-0.98 28.73,86.33 2.64,99.05 -80.45,-31.8 -53.33,-22.16 -108.32,3.74 -38.37,-29.85 -10.91,0.17 -33.2,8.08 0.88,34.39 17.52,22.43 17.52,59.97l25.46 0.05 -16.23 -48.23c46.96,-10.54 107.86,-14.91 157.9,-19.74 93.73,-9.06 252.78,-12.99 346.26,-5.13 27.65,2.32 53.77,4.13 81.38,6.83 13.5,1.32 26.04,2.54 39.61,3.93l34.39 4.52c6,1.83 3.05,0.78 6.03,2.44l1.88 -1.07 19.16 1.76c7.37,-2.61 5.03,-0.7 9.08,-5.83 -16.79,-17.7 -45.2,-8.44 -68.07,-11.62 -11.91,-1.64 -20.94,0.73 -30.61,-4.35l12.89 -4.71c11.79,-1.59 20.56,4.51 40.2,0.15l-15.2 -3.93c-19.23,-4.98 -3.47,-3.13 -24.87,-3.52 -15.43,-0.3 8.79,1.41 -4.74,-0.17 -0.73,-0.07 -1.39,-0.22 -2.1,-0.37 -7.83,-1.39 -7.13,-6.74 -15.43,-1.15 16.45,4.83 8.1,-3.52 12.84,7.37 -11.23,1.15 -14.45,-0.56 -24.36,0.3 -8.79,0.76 -13.45,3.73 -21.21,4.1 -3.95,0.17 -20.09,-1.39 -21.36,-1.69 -5.71,-1.22 -12.08,-3.81 -12.79,-7.81l26.51 -0.27c-2.96,-6.17 2.88,-9.32 -8.76,-6.56l7.2 -8.52c11.15,-12.5 11.37,3.37 24.43,-19.11 10.11,-17.41 2.61,2.17 16.26,-15.94 6.78,-9.01 6.27,-5.22 25.12,-5.22l0.37 -17.35c11.47,-6.93 49.33,-2.61 60.87,-0.85 37.05,5.71 18.06,7.18 39.61,9.64 4.95,0.56 5.27,-0.51 9.54,1.66 8.91,4.54 1.85,-1.88 8.03,7.79l-19.31 1.41c1.44,1.59 -4.2,9.47 18.04,2.17 1.66,-0.54 9.3,-5.05 19.72,-3.32l11.81 4.66c79.33,13.23 79.43,-42.54 33.1,-78.28 2.71,-8.69 2.69,6.98 3.91,-12.94 -3.85,0.1 -10.42,0.66 -11.79,0.44 -20.41,-3.22 -5.96,0.61 -13.72,-7.67 18.58,1.98 22.58,-2.66 36.2,-1.76 39.52,2.61 38.56,5.91 58.56,-13.62 8.59,-8.39 14.94,-8.59 13.62,-20.31l-4.56 -0.8c-5.17,8.86 -27.39,26.85 -33.9,29.17 -23.46,8.37 -37,-11.42 -59.17,-29.41 -6.34,-5.15 -9.64,-8.06 -15.84,-13.55 -7.2,-6.42 -25.34,-20.75 -30.49,-29.56 0,0 -8.88,4 0.27,15.11 4,4.83 4.96,3.39 10.13,7.06l18.06 15.99c19.65,14.69 5.32,11.35 15.74,18.09 11.23,7.28 14.72,0.46 17.45,16.74 -8.81,-0.41 -15.62,-2.24 -19.38,-3l-6.32 -1.22c-6.35,-1.59 -3.95,-0.95 -8.17,-2.61 -3.13,-7.27 0.63,-19.94 -10.47,-20.55l0 18.28c2.34,1.07 5.91,2.73 7.22,5.32l0.24 10.62c7.03,-0.59 2.52,0.81 3.03,2.1l-23.29 1.71z"/>
   <path class="fil12" d="M711.87 917.35l11.19 23.95c25.36,-0.15 52.33,-10.19 75.96,-7.15 5.87,-3.56 5.85,-2.52 15.11,-3.56l128.05 -10.44c50.7,-2.86 108.27,-4.3 159.2,-2.49 48.99,1.74 101.08,2.29 150.39,7.68l144.54 15.89c4.09,-5.72 2.7,-4.91 5.05,-10.23l6.09 -9.95c-0.91,-10.93 10.76,-34.16 14.3,-46.35l-37.57 -6.26 -19.17 -1.76c4.88,9.11 -1.41,0.5 5.88,4.92 18.28,11.06 2.11,-5.59 7.15,4.88 2.11,0.35 8.12,1.13 9.52,1.43l7.69 2.06c0.85,0.21 8.24,1.79 8.53,1.88 7.62,2.41 2.73,-2.47 6.65,3.57 -6.94,12.73 -23.97,-0.53 -41.97,0.88 -0.42,29.05 8.09,3.32 4.06,36.63 -0.67,-0.16 -1.41,-0.7 -1.83,-0.9 -0.41,-0.19 -1.3,-0.65 -1.81,-0.87 -16.56,-7.33 -21.24,-0.51 -37.41,-6.92l-4.48 -2.57c7.59,0.01 15.33,0.52 22.68,0.55 19.31,0.07 12.94,-2.19 14.19,-3.53l-2.37 -1.21c-35.01,7 -57.61,-5.2 -93.06,-2.35 -1.67,4.26 11.58,3.28 -4.96,7.95l-35.98 -1.02c-9.17,1.16 -1.76,-0.99 -4.92,3.03l-1.11 2.34c-10.94,-0.03 -7.17,-0.24 -16.83,-2.42 -12.09,-2.72 -33.75,-2 -48.4,-2.19l-170.08 0.16c-17.3,0.13 -12.01,-1.1 -11.37,-2.16 4.11,-6.76 3.78,4.19 1.39,-2.64l-88.29 -3.62c13.52,4.26 13.46,-0.81 20.3,7.48l-56.69 -4.18c-10.36,-0.92 -5.43,-1.31 -14,-2.61 -18.39,-2.77 -57.32,0.37 -77.89,0.7l0 -18.24c7.46,-5.4 11.33,-4.55 20.88,-4.55 0,-9.56 0.11,-10.57 5.2,-15.84 30.54,0.52 71.69,-8.57 78.28,-0.9l25.05 -2.83c13.62,0.61 -4.24,2.07 6.26,1.95 71.18,0.15 146.31,-1.25 219.87,-0.57l-0.24 -11.48c24.75,2.04 42.53,-3.76 70.27,1.87 5.94,1.2 9.04,1.79 14.51,1.62 32.66,-1.01 32.33,4.04 54.34,6.43 6.15,0.67 4.58,0.28 8.41,0.38 18.35,0.48 2.67,2.1 25.28,0.69 18.16,-1.14 53.35,8.29 75.38,3.29 -2.96,-1.65 -0.03,-0.6 -6.02,-2.43l-34.39 -4.52c-13.56,-1.39 -26.12,-2.61 -39.62,-3.93 -27.6,-2.7 -53.71,-4.5 -81.36,-6.83 -93.49,-7.85 -252.55,-3.94 -346.27,5.11 -50.04,4.83 -110.94,9.22 -157.91,19.74l14.33 42.44z"/>
   <path class="fil12" d="M289.88 793.21c-2.44,7.42 -1.31,3.74 -4.13,7.7 -0.21,0.3 -0.63,0.81 -0.83,1.06l-1.63 1.37c-0.17,0.11 -0.78,0.35 -0.97,0.44 -0.22,0.11 -0.89,0.3 -1.15,0.39 -0.3,0.12 -1.03,0.33 -1.37,0.45l-9.89 3.24 7.66 6.02c3.48,3.86 2.83,3.35 1.91,9.94 -20.38,0.11 -4.03,9.67 -23.51,4.95 0.59,0.55 2.37,1.57 2.71,1.97l2.48 2.8c0.35,0.55 0.73,1.14 1.04,1.76 2.49,5.06 1.59,5.78 1.59,11.34l18.27 2.28c0.24,0.73 2.19,4.96 2.36,5.7 2.57,11.12 -3.01,6.59 -2.88,21.57 0.07,7.46 2.02,23.98 5.76,28.22 0.46,-28.67 -3.15,-17.23 -7.83,-32.69 3.39,-4.83 4.88,-6.13 7.81,-10.64 5.14,11.81 -2.87,11.3 10.44,12.92 -0.86,-20.25 -12.32,-12.57 35.24,-27.29l6.91 -2.85c16.81,-8.63 9.89,-16.55 22.81,-9.85l9.7 4.68c12.58,-0.11 68.01,-19.27 86.79,-24.28 21.59,-5.76 68.39,-15.85 85.8,-22.93l-25.44 -65.78c-32.78,2.61 -178.59,48.44 -220.44,63.15l-9.21 4.35z"/>
   <path class="fil12" d="M425.6 978.95l0 -22.8 20.87 0 0.75 -11.42c1.3,-4.43 1.57,-4.71 3.02,-6.83 0.87,-0.04 6.14,-0.45 6.98,-0.42 14.09,0.52 13.79,4.5 27.14,1.35 0.53,-0.13 1.23,-0.46 1.71,-0.58 0.41,-0.11 1.11,-0.41 1.49,-0.49l2.58 -0.46c0.57,-0.04 2.12,0.14 2.74,0.15 24.94,0.62 21.43,-2.17 21.43,36.93l-8.86 3.02c-14.27,5.15 -0.45,3.41 -12.02,3.83l2.59 -2.08c5.48,-3.11 2.41,-1.71 2.64,-0.98 -26.4,-2.98 -40.8,0.38 -65.25,1.52l-5.75 -0.38c-0.45,-0.05 -1.49,-0.01 -2.05,-0.37zm-138.3 -74.52c9.15,0.94 16.71,-0.32 18.24,-0.49l4.17 16.64c4.27,-6.65 -0.14,0.25 1.35,-5.94 0.11,-0.45 -1.4,-4.56 4.93,-9.56 5.2,7.14 0.01,-1.21 3.49,8.3 0.19,0.52 0.4,1.19 0.58,1.69l3.78 23.69c2.06,26.54 0.37,6.69 -1.24,23.66 -0.39,4.08 -0.73,11.24 -1.1,16.28 30.26,-4.48 -2.59,-4.11 16.29,-6.21 15.17,-1.69 -1.25,1.63 12.71,3.74 3.83,0.58 30.3,-1.82 38.54,-1.82 0,1.97 -0.44,11.58 -0.18,13.3 1.8,11.74 -1.36,-2.46 5.27,8.06 7.45,11.84 -3.1,18.82 -1.59,20.97 12.6,0.17 21.5,-5.53 35.65,-8.15 23.55,-13.1 144.17,-36.98 179.63,-45.96 -5.67,-17.5 -15.73,-53.39 -25.66,-66.42 -47.83,5.36 -181.15,43.64 -229.63,59.34 -5.22,-4.31 -45.79,-79.3 -49.07,-90.66 16.1,-9.65 58.96,-17.26 68.93,-26.19l-9.7 -4.68c-12.92,-6.69 -6,1.22 -22.81,9.85l-6.91 2.85c-47.56,14.72 -36.1,7.04 -35.24,27.29 -13.31,-1.62 -5.3,-1.11 -10.44,-12.92 -2.93,4.51 -4.43,5.81 -7.81,10.64 4.68,15.46 8.28,4.02 7.83,32.69z"/>
   <path class="fil10" d="M801.41 1704.43c-9.03,11.89 -37.8,45.54 -38.02,61.98l14.48 -4.33 2.06 -7.5c0.13,-0.66 0.28,-1.36 0.41,-2.06 0.28,-1.99 0.13,-5.06 0.13,-7.11 11.15,-4.05 3.05,-1.93 17.03,-0.31 -0.81,-9.27 -0.75,-8 5.54,-14.11l12.98 -10.65c-3.52,-8.76 3.3,-0.92 -11.83,-6.83 4.86,-9.71 2.71,-4.08 10.62,-11.98l3.49 -3.98c-5.17,18.02 -0.75,14.93 1.31,17.01 10.34,-4.46 5.51,1.2 6.29,-15.84 0.06,-1.93 0.37,-4.96 0.56,-6.83 26.19,-4.52 18.31,-14.61 11.8,-25.11 6.63,-0.7 7.94,-1.27 15.26,-1.2 -0.37,-6.73 0.56,-2.53 -0.5,-6.51 -5.6,-21.41 1.56,8.06 10.96,-16.28l10 7.27c-0.12,-0.13 2.02,-11.64 -4.64,0.79l-0.56 2.81c0.06,0.41 0.31,1.2 0.53,1.61 4.86,9.52 0.31,-1.33 10.37,7.15 1.4,1.17 -0.44,2.37 6.13,6.74 7.72,5.12 8.69,0.19 8.19,10.12 -9.37,-6.51 -6.91,-6.13 -15.48,0.03 0.19,8 -4.2,-4.46 0.96,4.33 4.86,8.25 8.63,4.83 10.93,7.05 -5.29,8.28 -4.64,-0.29 -5.57,11.41 -6.26,-6.61 -7.54,-10.94 -20.87,-13.69 2.15,17.87 -4.48,5.98 8.85,13.69l-3.61 18.25 6.76 -0.16c8.03,-5.44 26.69,-32.13 32.48,-40.95 9.25,-14.1 17.84,-26.43 26.44,-42.97 26.81,-51.39 27.96,-109.7 -14.3,-154.82 -13.2,-14.13 -47.67,-39.97 -65.26,-42.81 5.6,3.32 24.22,33.68 29.39,44.59 25.66,54.29 1.87,106.75 -30.92,152.89 -12.16,11.88 -40.98,53.39 -52.37,68.33z"/>
   <path class="fil12" d="M862.66 1746.89c-4.05,1.96 -0.9,-3.38 -9.78,11.57 -44.41,74.94 -60.72,126.07 -16.85,209.84 4.57,8.76 11.61,18.5 14.26,25.48 -63.4,-33.61 -113.31,-94.17 -104.59,-165.03 1.56,-12.46 3.89,-24.19 7.47,-36.49 2.77,-8.5 6.85,-24.63 15.17,-29.88 0.22,-16.44 24.04,-46.07 33.07,-57.96 9.5,-12.46 34.35,-40.79 39.67,-53.63 -2.24,-3.76 -5.35,-2.88 -8.44,-8 -0.91,0.67 -1.71,0.82 -2.28,2.44 -0.56,1.55 -1.46,1.61 -2.18,2.31 -10.87,10.37 -11.83,6.45 -42.5,6.64 0,43.32 0.84,36.49 -20.9,36.49l0 15.97c-12.7,0.7 -1.65,-2.66 -17.31,7.65 -14.14,9.26 -0.28,17.8 -1.43,35.73 -0.25,4.11 -3.24,9.42 -7.69,11.54 -5.54,2.66 -9.22,2.09 -15.32,2.09l0.03 13.72 18.25 0c0,10.59 3.18,13.66 3.08,16.29 -0.28,7.4 -11.43,34.15 -4.2,74.41 4.67,26.15 0.62,13.34 2.49,42.43 0.5,7.69 -1.15,14.93 -1.37,24.19 -0.22,10.69 2.49,13.98 2.61,25.17 17.47,2.59 21.92,0.19 39.14,0l1.34 22.83 -19.62 -0.03 0 13.69 20.68 0.13 0.25 18.12 15.63 0 0 -17.48 46.65 2.97c2.12,-0.22 4.8,3.1 8.13,-6.42 -0.34,0.48 -12.24,-0.25 5.23,7.05l4.83 -9.2c0.09,-0.22 0.37,-0.85 0.47,-1.07l-1.53 -30.58c0,-7.69 1.19,-13.44 1.46,-20.56l-4.67 -3.7c-0.31,-0.38 -1.71,-4.21 -2.49,-5.44 -2.33,-3.7 2.15,-0.95 -4.55,-2.75 -7.57,-2.06 0.34,-1.14 -11.77,-2.37l0 -15.4 -18.06 0 -2.49 -36.49c1.22,2.5 -7.29,0.41 -2.96,2.31 0,-39.11 3.36,-23.69 5.23,-42.41l18.28 -1.04 3.58 -28.96c0.62,0.6 1.4,0.76 1.71,2.09l5.14 9.39c8.53,-7.53 3.92,-16.13 7.85,-27.13 6.41,-18.02 7.75,-18.88 1.28,-40.51z"/>
   <g>
    <path class="fil10" d="M1071.22 976.65c-0.15,-0.17 0.59,-0.29 0.66,-0.27l5.18 3.37c0.34,0.3 0.9,0.88 1.29,1.2 4.15,3.59 6.83,5.83 10.06,6.18l-5.37 -2.44c-0.22,-0.05 -1.37,0.41 -1.52,-0.07 -0.19,-0.49 -1.1,-0.07 -1.61,0.02 -0.22,0.46 -0.02,1.25 -0.02,1.52l0.27 4.05c0.2,7.35 -2.03,2.39 -2.85,11.57 9.35,4.12 6.96,-3.66 8.86,7.15 1.1,6.32 -0.17,7.25 -6.42,7.4 11.93,-0.1 29.8,-2.07 35.66,2.78 1.93,1.59 5.59,5.28 5.05,12.67 -0.39,5.49 -3.13,5.93 -8.52,7.28 -8.18,2.02 -15.72,0.02 -23.68,0.02 -9.81,0 -15.18,2.24 -25.8,2.66l-60.17 -1.2c1.9,-6.28 14.23,-26.53 19.96,-29.9l9.08 -6.08c2.66,-2.93 -0.46,-6.91 11.5,-7.54l14.79 0.68 0.19 -20.11 13.4 -0.93zm121.11 -29.05c21.28,-1.73 47.5,-2.37 69.47,-0.39 125.14,48.82 102.52,72.79 140.18,44.15l23.85 -23.67 -16.18 -59.73 -8.3 23.04c-2.34,5.32 -0.95,4.51 -5.03,10.22l-144.55 -15.89c-49.31,-5.39 -101.39,-5.93 -150.38,-7.67 -50.92,-1.8 -108.5,-0.37 -159.19,2.49l-128.05 10.42c-9.28,1.05 -9.25,0 -15.13,3.56 16.35,3.66 34.07,1.34 51.94,-0.12 15.4,-1.27 14.5,1.66 26.34,0.85 10.28,-0.66 7.3,-3.61 7.57,-3.85 20.16,-0.49 35.42,-4.2 52.23,-5.42 11.59,-0.85 14.23,1.37 26,1.03 8.98,-0.27 18.63,-1.54 28.12,-1.93l3.25 8.69c8.22,0.34 10.03,0.95 17.3,2.1 11.47,1.78 22.04,-1.88 26.83,19.04 1.54,6.71 0.76,-2.32 -0.02,3.69 -2.76,21.46 -1.12,23.26 -13.65,20.26 0.34,0.27 4.05,-4.69 0.63,4.61l-21.41 20.57c-10.84,6.37 -11.37,2.13 -11.47,2.1 7.47,4.59 -4.66,15.52 -9.06,7.93l0 5.71c-2.27,8.1 -29,23.19 -36.13,34.91l11.67 -0.59c8.2,2.1 45.45,-3.66 59.61,-4.56 23.92,-1.54 48.3,-1.32 72.27,-0.52 44.06,1.49 85.38,7.52 124.22,18.82 11.11,-4.03 3.15,6.35 8.83,-6.39l-31.76 -113.48z"/>
   </g>
   <path class="fil12" d="M1078.46 1764.77c-3.01,9.7 -17.95,35.41 -25.05,41.65l-8.18 18.01 -11.15 30.48c3.01,-0.52 7.51,-1.27 7.53,-1.28 0.51,-0.07 1.32,-0.18 1.84,-0.25l5.78 -0.76c0.15,-0.56 0.36,-2 0.42,-1.67l2.2 -9.15c4.64,12.76 -3.72,2.56 5.22,10.07l13.06 -0.65c-1.19,-17.67 -3.02,-6.32 1.71,-21.37 1.72,-5.49 0.57,-17.89 1.76,-20.57 -0.61,-0 -1.63,-0.36 -1.81,0.3l-2.93 1.26c0,0 -2.65,0.66 -1.36,6.82 0.44,-9.75 1.33,-6 -2.16,-15.2 0.21,11.6 6.94,2.48 8.69,2.08 3.84,-13.85 -1.85,-10.32 1.74,-18.42 5.36,-12.1 7.39,6.22 7.39,-15.61 -0.13,0.21 -10.52,1.73 6.47,7.34l3.73 0.72c0.4,0.03 1.25,0.02 1.6,-0.01 6.2,-0.53 4.24,-14.38 4.1,-18.87 6.76,4.5 5.14,6.82 10.2,9.79 1.92,-6.32 1.33,-11.25 9.86,-11.98 1.22,-0.1 13.02,1.63 16.25,1.61l0 -18.24 21.76 0.95c-0.87,-19.27 0.11,-36.56 -0.88,-55.7l20.86 0 0.02 -15.97c10.64,0 12.54,-1.49 20.87,-2.28 -0.61,-4.35 -3.78,-3.35 -1.85,-8.94 6.76,-19.61 -0.88,-12.44 4.33,-25.28 -11.03,-4.19 -2.03,0.54 -1.15,-15.95 0.59,-10.97 -3.88,-12.61 8.42,-41.45 0.15,1.04 5.04,12.36 5.88,17.11 4.37,-4.83 4.45,-6.95 6.48,-12.62 5.37,-15.06 -3.81,-10.39 16.78,-10.95 4.84,11.36 1.28,13.28 2.84,25.09l-1.84 -45.33c-2.13,-8.15 0.37,-2.79 -3.38,-6.68 -6.63,3.41 -11.48,13.88 -13.26,14.96 -4.8,2.91 4.46,5.43 -7.4,0.55 10.32,-3.13 8.1,-34.15 7.39,-38.91 -1.28,-8.46 -4.28,-33.83 0.44,-40.69 4.14,-6.02 -2.81,-0.52 5.01,-4.24 7.65,4.89 5.99,3.75 6.59,15.23 0.97,18.61 -3.53,21.71 3.46,35.31l5.37 10.67c-3.67,-3.19 -1.59,-4.37 -1.5,-12.17 15.49,-1.44 30.74,-1.94 43.47,-10.85 -1.14,1.23 -5.24,0.63 0.62,7.66 7.25,8.72 -1.03,4.08 12.17,6.03 -3.3,-8.08 -6.03,-12.07 -10.56,-18.07 -0.21,-0.28 -4.98,-7.04 -5.04,-7.24 -1.81,-6.24 -6.92,-3.7 2.82,-6.24l5.22 -0.39c-6.57,-10.68 -7.7,-8.18 -7.82,-22.81l-15.67 0c0,7.13 1.1,12.97 -3.27,17.65 -3.33,3.57 1.94,5.02 -15.57,-2.09 -19.28,-7.82 -6.85,-10.48 -9.41,-29.17 -0.1,-0.76 -0.21,-1.32 -0.38,-2.02l-2.67 -5.45c-12.76,3.43 -3.3,0.11 -6.24,4.05l-4.2 10 -3.76 -6.25c-2.44,-3.26 -5.52,-6.87 -12.49,-8.71 -0.38,-0.1 -1.11,-0.31 -1.49,-0.37l-6.91 0.59c28.43,62.88 3.91,130.56 -25.68,180.79l-95.29 134.08z"/>
   <path class="fil10" d="M981.39 1734.02c-14.2,33.33 -32.26,50.34 -44.59,102.68 -6.79,28.81 -3.24,122.28 16.91,140.08 5.54,-21.03 -15.6,-32.54 0.81,-51.29l6.32 -8.38c9.78,-11.92 13.95,-10.69 15.67,-11.35 6.69,-2.56 -2.18,4.9 2.06,-1.8 7.81,-12.3 8.19,-6.55 14.57,-14.99 7.35,-9.68 1.12,-7.34 11.74,-10.06 1.28,25.04 2.83,-1.11 -6.51,17.07 11.65,28.84 4.86,27.32 8.38,54.99 3.05,24.03 12.08,-6.01 7.75,24.73 -1.5,10.75 -3.96,21.06 -4.39,32.03 15.54,-1.39 15.07,3.54 23.44,6.58 -6.07,-30.8 -14.26,-45.98 -14.2,-81.84 0.06,-21.91 5.48,-61.19 14.73,-77.57l11.15 -30.48 -9.31 -13.13 -4.2 3.86 -6.67 14.11c-32.29,16.44 -11.24,26.28 -23.26,34.78 -2.33,-3.29 -2.9,-5.76 -3.89,-7.02 -5.04,-6.36 0.75,-3.01 -6.07,-4.97l-5.2 13.6c-7.1,0.48 -4.27,0.41 -9.37,0.92 -17.87,1.74 -11.68,0.73 -24.57,10.41 -0.59,-0.6 -1.06,-1.49 -1.46,-2.03l-5.51 -7.68c-0.12,-0.54 -0.44,-0.73 -0.84,-0.95 1.68,-7.21 2.24,-4.4 -2.4,-0.89l-1.59 -11.32c8.94,-7.34 11.83,10.69 10.12,-38.36 8.97,0.92 10.8,1.17 15.97,-1.9l-10.02 -8.41c8,-1.64 6.04,-0.88 7.19,-9.26 8.81,11.92 -4.52,6.32 13.8,7.46l-1.31 -25.27 9.22 1.17c0.16,-9.07 7.72,-3.54 -6.51,-8 -5.17,-1.58 -3.92,-0.98 -8.41,0.73 2.99,-15.94 5.67,-13.69 7.88,-17.74 7.91,9.99 8.09,2.44 10.43,17.77l9.53 -8.89c2.09,-5.03 11.3,2.66 12.48,3.92 0.34,0.35 0.69,0.95 1,1.33 0.09,0.13 2.21,4.15 3.65,5.76 5.39,6.01 6.94,5.22 17.69,5.22 0,11.83 -0.75,9.83 7.04,16.63l12.8 10.15c3.52,-6.26 18.78,-31.97 25.04,-41.68 -4.86,-3.04 7.07,-5.19 -10.12,-0.63 -15.32,4.05 -8,16 -7.35,17.77l0.94 2.31c-5.11,2.18 -9.75,0.44 -14.45,-1.33 -6.44,-2.44 -4.36,-1.3 -11.27,-5.5 0.22,-9.01 0.03,-11 5.23,-15.97 -8.44,-3.92 -9.93,-6.01 -10.46,-16.44 -21.89,1.3 -18.56,-1.99 -20.86,-6.39 3.8,-6.29 -7.04,-6.99 13.05,-6.07 5.98,0.28 5.6,1.2 7.81,3.86 1.71,-12.24 -5.54,-4.93 -10.43,-14.13 -2.37,1.17 -6.66,5 -15.63,2.65l-2.61 -13.66c-5.23,13.31 -1.4,6.99 -11.52,15.43l-9.37 7.37z"/>
   <path class="fil10" d="M1659.15 330.26l13.33 5.76c34.59,8.89 62.95,15.09 97.51,28.22 9.76,0.88 9.59,1 17.72,-5.76 -6.28,-15.62 -3.86,-3.05 -10.43,-11.4 -3.63,3.51 -5.1,5.3 6.79,0.37l22.82 -13.3 8.89 -14.69c2.37,-3.15 4.93,-3.61 1.85,-6.5 -0.02,-0.02 -0.56,0.07 -0.56,-0.12 -0.02,-0.19 -0.49,-0.12 -0.63,0 46.3,-13.25 27.14,-24.82 49.91,-37.17 7.23,-3.91 8.96,-2.81 16.94,-5.64l10.52 -7.47c8.35,-13.69 1.07,-18.33 16.55,-23.6 15.25,5.93 18.26,13.96 18.26,24.07 11.67,7.71 13.47,5.52 26.12,4.22l13.52 12.35c0.54,0.37 1.46,0.83 2.12,1.32 -7.13,29.97 12.13,19.02 23.48,27.26 6.96,5.08 4.88,6.1 5.96,15.82l2.83 31.05 11.15 0.27c1.63,-15.55 -0.07,-15.55 -4.3,-27.31 -2.32,-6.44 -3.54,-6.1 -0.39,-10.35 4.91,-6.61 -0.39,-0.46 5.05,-2.44l2.54 -0.91c-18.92,-40.49 -106.47,-99.27 -157.39,-125.51l-25.51 -12.64c-5.05,-4.39 -4.54,1.88 11.62,12.81 0.44,0.27 1.2,0.66 1.61,0.88 0.39,0.24 1.34,0.61 1.69,0.78l-8.49 14.65c26.82,-2.07 11.57,-0.83 22.8,3.03 10.94,3.76 5.39,1.24 16.45,1.29l-2.37 12.2c-0.32,4.98 1.71,7.47 3.02,10.89 -6.32,12.79 -1.66,-0.49 -13.86,12.74l-49.99 44.42c-4.76,4.32 -5.74,7.37 -10.25,11.69 -6.22,5.93 -8.25,4.05 -14.74,9.86 -4.49,4.02 -7.03,7.91 -11.37,11.81l-33.95 -2.37c-1.39,1.61 -1.07,1.34 -2.78,3.39l-0.93 3.54c1.1,1.22 1.44,0.85 3.71,5.61l-11.67 5.91c1.76,5.2 3.37,2.85 1.24,5.35 -55.02,-9.57 -25.8,-14.43 -65.24,-19.72 -0.29,0.69 -0.81,1.73 -0.88,2.07l-10.28 3.27z"/>
   <path class="fil10" d="M1109.24 994.93l63.12 55.75c0.56,0.1 5.86,-0.46 9.3,0.1 15.74,2.59 -0.93,-0.15 10.25,3.54 13.18,4.32 11.86,-0.44 20.26,1.78 3.27,5.47 1.49,6.22 3.07,11.37 30.61,6.1 72.59,27.76 79.89,50.11 12.23,37.39 -45.96,53.04 -63.24,64.44 29.34,0.66 110.86,-10.74 145.87,-16.13 12.13,-1.85 35.44,-3.86 44.06,-9.96 0.17,0.05 -0.12,1.03 3.08,-0.02 104,-32.9 13.03,-3.93 32.76,-20.16 25.92,-6.3 17.06,-3.95 11.76,-14.91 -21.36,-13.23 -26.31,-3.76 -60.46,-9.52 -140.86,-23.85 -32.54,-88.09 -121.11,-31 23.94,-32.68 -17.23,-16.72 -29.78,-7.27l-13.13 -0.54c-4.59,-12.32 -3.54,3.76 -3.74,-10.49 13.94,0.63 29.54,8.64 42.23,10.4 5.1,-19.21 1.63,-15.77 -17.31,-17.43 -18.16,-1.56 -14.38,-2.85 -24.58,1.22l-7.37 -0.56c-8.79,-8.96 -5.61,-7.96 -35.69,-7.2l0 -33.41 -34.42 0c-3.42,11.01 1.34,3.86 -6.42,9.54 0.61,-3.12 0.1,-1.32 -3.95,-4.42l-3.76 -6.47c0.2,-0.27 0.69,-0.93 0.93,-1.22 5.61,-6.83 5.13,1.83 6.1,-10.62 0.51,-6.39 -0.24,-16.45 -0.24,-23.31l-34.42 0c-3.66,12.81 -0.93,5.47 -4.32,7.91l-8.91 4.74c-0.49,-0.61 -1.71,0.85 -2.42,1.46 6.79,2.64 4.44,-1.07 2.59,2.3z"/>
   <path class="fil10" d="M772.65 1807c3.66,-0.02 5.59,-4.54 9.15,10.5 1.05,4.52 1.61,8.3 3.08,12.06 4.61,-23.85 0.54,-35.2 23.38,-37.71 3.49,25.97 -2.49,17.43 -5.2,29.41 -4.24,18.72 -4.88,63.78 -6.96,69.22 -10.64,-4.22 -4.76,6.27 -7.3,-10.2l2.71 -33.37 -6.67 5.06c-0.34,0.29 -0.98,0.76 -1.29,1.05 -7.32,6.83 0.9,-3.71 -4.13,5 -4.46,7.71 -6.44,21.85 -9.32,28.63l-10.52 2.02 1.69 -10.93c4.1,-26.26 6.44,-17.45 -4.06,-28.24 -9.93,-10.2 -3.54,-13.91 0.15,-24.61 2.98,-8.4 1,-8.35 2.22,-16.48 1.05,0.59 1.83,-7.76 8.39,7.96 2.03,4.85 1.64,8.3 1.05,13.37 -1.42,12.2 -6.98,14.99 0.98,23.36 7.35,-6.17 4.96,-13.91 3.1,-23.29 -2.1,-10.59 -4.37,-13.54 -0.46,-22.82zm0 0c-6.93,0.41 -3.66,3.17 -7.57,0 -0.32,-10.25 7.3,-41.67 3.46,-43.52 14.79,-42.28 -7.03,8.81 -15.38,28.78 -3.59,12.3 -5.91,24.04 -7.47,36.49 -8.71,70.88 41.2,131.44 104.59,165.05 -2.64,-7.01 -9.69,-16.75 -14.26,-25.51 -43.89,-83.75 -27.56,-134.88 16.84,-209.84 4.86,-8.17 8.5,-12.52 13.13,-20.41 1.66,-2.85 2.12,-2.78 4.73,-6.15 -0.39,-1.98 1.13,-4.17 -1.59,-6.98 -14.57,2.59 -15.96,1.95 -20.94,11.37 -4.39,8.32 -17.35,23.5 -16.57,31.98 1.25,13.06 11.96,4.37 0.93,12.59 -7.06,-8.35 0.46,-4.17 -8.81,-8.54 -2.46,12.01 0.85,11.91 1.85,22.14l-18.14 -1.93c-1.17,-4.91 -1.78,-7.03 -3.51,-12.03l-19.11 -0.17 -4.46 -13.23c-0.49,0.12 -1.15,0.51 -1.37,0.63l-10.98 7.35c0.68,20.16 9.2,17.06 4.61,31.93z"/>
   <path class="fil10" d="M965.31 203.63c-1.98,12.96 -18.94,7.98 -23.26,22.36 -28.44,0.07 -19.92,36.22 6.52,36.27 3.15,0 32.85,-1.88 58.29,-1.71 20.5,0.12 33.37,-0.56 54.46,-0.49 19.11,0.05 39.2,-2.88 58.04,-1 7.13,0.71 22.89,1.59 29.41,1.52 11.08,-0.1 21.6,1.78 29.73,-4.18 27.85,-19.67 3.22,-11.28 -34.93,-35.95 -12.13,-7.86 -20.63,-10.86 -28.75,-19.28 5.3,-21.33 -22.94,-20.48 -39.44,-25.31 -67.34,-51.5 -90.21,16.55 -110.06,27.78z"/>
   <path class="fil12" d="M82.88 336.35l26.68 -32.89c9.73,-12.04 17.96,-19.14 28.63,-29.68 17.57,-17.37 43.22,-38.37 67.15,-53.06 24.61,-15.11 46.71,-28.93 75.84,-43.26 14.82,-7.29 25.52,-11.69 41.39,-18.52 7.72,-3.32 13.32,-5.94 21.1,-8.99l22.09 -9.65c0.5,-0.32 1.29,-0.87 1.87,-1.35l-17.66 -2.15c-4.96,7.04 1.45,-2.32 -21.8,3.53 -28.88,7.26 -11.12,-1.04 -43.5,-0.85l-0.59 18.24 -20.27 0.01 -0.59 18.84c-36.94,-2.46 -21,-1.24 -51.95,-0.31 -0.47,0.01 -1.3,0 -1.7,0l-8.4 -0.29 -1.55 16.06 -6.26 1.23c-0.69,0.12 -1.69,0.38 -2.5,0.5l-10.56 0.46 0 15.97c-10.66,0.09 -11.76,-0.98 -17.55,4.9 -2.88,2.93 -5.73,1.5 -5.94,15.63l-18.25 0 -0.01 15.78 -21.09 0.22c-3.57,5.54 -2.28,8.34 -2.39,20.5l-38.97 0c-0.17,9.89 0.12,20.13 -0.58,29.98l-2.84 29.35 10.22 9.81z"/>
   <path class="fil12" d="M1243.22 1868.35l9.51 11.9c4.18,3.35 2.11,0.99 5.57,4.45 0.69,0.69 4.42,5.45 4.92,6.08l18.2 -4.22 1.15 -8.5c3.06,-9.42 5.99,-9.44 19.81,-9.44l0 -47.92c0.77,-0.56 2,-1.98 2.57,-1.35l9.5 -3.6c0.94,-0.25 8.85,-1.58 9.09,-1.63 -0.54,-9.86 3.87,-44.56 2.31,-54.62l39.15 -0.41c0,-40.2 -5.21,-14.51 -11.31,-30.65 5.56,10.31 -0.33,8.77 13.33,5.32 4.87,-9.91 -0.45,-14.17 0.61,-38.45 0.42,-9.57 2.69,-38.83 -9.3,-12.78 -2.32,5.04 -4.02,8.19 -6.28,12.77 -27.85,56.33 -67.25,82.37 -108.82,173.05z"/>
   <path class="fil10" d="M946.12 1956.77l3.59 9.94c13.64,-3.93 -8.57,-3.56 13.42,-6.15 2.27,8.69 0,3.15 -0.24,11.59 -0.27,9.91 2.96,10.45 5.47,12.79 0.56,-0.61 1.3,-2.27 1.56,-1.88 1.61,2.44 6.86,-17.55 11.47,-22.78 5.83,3.42 9.06,-0.88 3.56,11.33 -1.95,4.32 -4.61,3.17 -6.54,13.33 1.25,10.01 4.76,-4.98 5.44,16.65 0.2,5.81 -1.17,3.07 1.24,8.08 9.76,-6.54 11.81,-11.5 14.57,-22.45 7,15.43 -7.86,12.81 8.69,32.93 8.88,10.81 2.34,2.46 7.47,14.87l4.93 8.74c4.88,17.7 2.37,4.71 -2.66,8.47 9.3,7.54 43.67,34.13 55.31,36.69l-5.1 -7.69c-5.15,-10.08 -13.52,-23.39 -19.6,-34.17 -5.83,-10.4 -12.37,-29.34 -16.06,-34.07 -39.42,-18.45 11.33,-22.36 -20.23,-63.19 4.12,-32.85 0.27,-55.58 -5.93,-81.26 -10.64,2.71 -12.81,-7.39 -20.19,2.27 -6.39,8.44 -10.45,-3.37 -18.23,8.93 -19.94,7.44 -26.87,16.79 -24.46,43.35 -16.41,18.74 8.06,12.69 2.51,33.7z"/>
   <path class="fil10" d="M763.87 1794.02c1.95,112.3 92.02,-35.81 100.66,-62.65 2.71,2.81 5.83,-1.44 6.22,0.54 12.81,-20.65 14.01,-20.16 5.2,-11.72 -14.69,-7.64 34.98,-23.43 14.45,-29.51 22.16,-39 15.87,-92.54 -29.46,-51.16 -12.2,5.61 -17.74,16.18 -23.68,25.02 -12.74,6.22 -12.67,17.33 -14.55,27.24 -14.67,-1.88 -68.73,82.26 -58.85,102.24z"/>
   <path class="fil12" d="M844.5 1645.15l9.3 -9.05c32.78,-46.16 56.58,-98.6 30.9,-152.89 -5.16,-10.91 -23.78,-41.28 -29.39,-44.59 17.61,2.84 52.07,28.69 65.28,42.82 4.73,5.06 3.38,4.54 9.78,8.46 2.36,-19.04 -8.83,-18.37 -15.62,-26.43l-6.97 -17.16c-2.72,-8.96 1.39,-13.02 -0.98,-19.44 -1.17,-3.16 -0.19,-2.74 -10.17,-8.22 -0.59,-0.32 7.11,-3.2 -19.44,-1.96 -28.48,1.33 -34.82,-4.62 -42.37,2.07l-5.33 6.44c-5.77,7.54 -4.44,13.56 -2.64,24.17 28.38,-2.33 43.5,18.4 43.83,25.2 1.13,22.99 1.02,-2.86 -3.81,13.07 -0,0.02 -0.8,64.47 3.76,72.4 3.16,5.51 3.72,2.61 4.87,9.82 4.61,29.02 -41.19,37.06 -32,65.98 6.25,19.66 -2.6,-16.94 1,9.29z"/>
   <path class="fil10" d="M1769.98 364.24c12.84,3.27 47.96,13.43 55.02,19.38 20.67,4.49 76.57,32.76 87.43,33.44 70.03,-4.88 60.33,-107.98 7.39,-144.11l20.48 -10.96c0,-10.1 -13.28,-24.78 -28.54,-30.7 -32.85,-14.16 -14.72,2.83 -32.54,21.99 -7.98,2.83 -9.5,6.96 -16.72,10.86 -20.36,11.03 -57.36,20.38 -69.35,36.32 -5.22,8.62 -30.12,46.2 -29.92,46.69 -8.13,6.76 16.5,17.96 6.74,17.09z"/>
   <path class="fil12" d="M255.96 828.79c19.48,4.72 3.13,-4.84 23.51,-4.95 0.92,-6.59 1.57,-6.08 -1.91,-9.94l-7.66 -6.02 9.89 -3.24c0.34,-0.12 1.07,-0.33 1.37,-0.45 0.26,-0.1 0.93,-0.29 1.15,-0.39 0.2,-0.09 0.8,-0.33 0.97,-0.44l1.63 -1.37c0.21,-0.24 0.63,-0.76 0.83,-1.06 2.81,-3.96 1.69,-0.28 4.13,-7.7l-13.02 2.93c-3.88,2.66 -27.7,11.19 -31.63,11.37 -14.45,0.65 -72.17,-34.9 -83.41,-42.8 -59.85,-42.05 -52.28,-45.75 -77.57,-83.19l-3.74 -4.56c-7.23,7.71 -10.17,7.86 -6.76,20.75 2.81,10.63 1.94,7.37 -0.66,21.19 0.59,0.32 1.64,-0.11 1.96,0.64 1.8,4.27 8.64,-0.28 10.86,6.2 0,19.87 1.19,20.92 23.93,20.92l3.76 5.77c2.83,4.7 2.89,7.72 9.81,11.18 12.96,6.48 9.18,-2.52 21.57,14.54 12.95,17.81 0.37,12.51 27.47,15.2l5.22 0.84c0.35,0.74 0.67,1.03 0.8,2.3l1.81 13.67 18.32 0 1.51 19.19c15.47,-0.79 14.16,4.13 29.55,1.37 18.16,-3.26 -0.66,-3.78 26.29,-1.94z"/>
   <path class="fil10" d="M162.05 437.95c18.45,-5.15 41.89,-18.01 60.9,-26.97 16.74,-7.89 46.06,-19.85 63.93,-24.68 6.52,-6.57 99,-35.74 114.6,-40.08 21.45,-5.96 49.23,-12.08 71.1,-17.7 16.48,-3.81 29.39,-5.74 42.2,-16.01 -41.2,-11.03 -1.91,-7.74 -47.28,-9.42l-19.89 0.51c10.33,4.42 12.67,-6.4 25.68,8.54 -19.04,-0.46 -26.92,-4.81 -42.4,3.42 -17.04,9.08 -22.89,-1.3 -39.42,-2.49 8.2,19.72 -10.4,-13.72 0.9,8.03 -7.74,-0.83 3.3,13.55 -1.63,11.57 -15.82,-6.32 -4.44,-11.28 -18.84,-20.11 -26.61,-16.35 -13.11,-13.62 -35.71,-14.67 0.81,13.16 -1.8,9.3 6.32,19.82 0.3,0.39 0.98,0.93 1.27,1.24 6.52,7.28 -4.44,-27.75 -31.22,-10.91 -11.33,7.13 3.03,44.57 -7.61,40.42l-6.42 -2.61c-10.18,-2.22 -27.12,5.59 -41.2,10.3l-6.44 -4.25c-12.06,-7.35 -10.03,-5.27 -16.13,-2.61 12.72,10.32 -3.83,-11.59 -2.2,4.15 -62.19,2.2 -1.88,9.49 1,20.62 -0.49,8.13 -0.39,7.45 -2.41,14.48l-5.22 5.93c-22.41,-18.72 -11.62,-11.35 -24.43,-3.44l-11.52 4.86c-0.85,0.24 -1.74,0.39 -2.61,0.61 -0.9,0.22 -1.81,0.29 -2.73,0.51 -15.89,3.52 -6.15,-1.61 -18.35,7.67 20.77,13.5 -6.86,-9.13 14.4,7.59 -18.69,14.84 -16.4,-1.9 -18.6,25.68z"/>
   <path class="fil10" d="M1237.85 2027.66c8.63,5.94 20.18,16.44 30.77,18 -13.05,-27.32 -27.19,-44.18 -34.78,-78.14 -9.87,-44.24 2.61,-62.64 9.37,-99.17 -21.43,10.18 -14.76,32.85 -19.09,54.99 -4.11,8.44 -1.12,0.73 -3.8,3.39 -6.48,6.42 -5.14,7.84 -7.75,11.07 -7.75,-12.43 -18.69,-18.94 -30.67,-29.72 -14.98,-68.33 -4.17,-74.44 -17.06,-40.76 -1.22,3.16 -3.93,13.31 -3.74,24.13 0.84,53.85 31.67,101 76.76,136.22z"/>
   <path class="fil12" d="M1577.96 977.02l35.9 9.72c3.72,-5.43 -6.15,-6.99 4.47,-4.17l25.87 -5.99c3.64,4.43 1.28,5.67 2.61,8.36 7.46,-4.54 1.63,-2.7 10.44,-6.55 12.65,8.28 12.19,-2.47 14.57,15.01 15.65,-2.27 11.43,-2.39 22.05,-7.31l10.22 -4.85 -5.08 -41.06c-12.15,-0.19 -32.97,-5.94 -45.88,-9.06 -10.76,-2.59 -29.46,-11.49 -42.87,-11.49 3.05,-2.2 -6.44,-5.42 7.57,3.88 2.62,1.74 -0.22,0.29 5.13,2.8 5.47,2.55 0.17,-2.28 6.35,2.46 -3.54,2.13 -6.64,3.26 -9.91,6.09 22.3,-2.63 19.82,-2.85 36.1,4.75 -38.75,3.7 -30.76,-2.06 -79.14,-1.13 4.52,4.5 2.77,6.25 18.27,6.25l-0 11.43c-27.11,0 -17.56,0.6 -16.67,20.87z"/>
   <path class="fil12" d="M1472.25 1411.31c-5.05,-3.64 0.88,-0.09 -8.1,-3.49 -15.74,7.82 -17.06,5.1 -20.87,22.79 3.8,1.93 4.63,2.5 8.16,4.24l9.13 4.04c8.74,3.75 9,5.85 14.67,11.59l20.06 16.7c0.39,0.31 0.94,0.8 1.33,1.11 4.03,3.13 -1.82,2.94 8.39,5.3 7.52,1.4 9.34,3.14 16.76,-4.09 0.39,-0.37 0.85,-0.98 1.17,-1.38 16.15,-20.05 -6.55,0.87 5.85,-8.2 10.13,-7.4 6.01,-0.77 5.8,-6.85 0.4,-0.61 0.86,-1.38 1.15,-1.83 0.29,-0.45 0.77,-1.28 1.13,-1.81 0.4,-0.6 1.76,-2.71 2.22,-3.33 12.29,-16.46 21.8,-6.43 22.19,-28.63 -16.31,-2.35 -7.17,-3.44 -18.36,6.77 -2.8,2.55 -11.46,9.59 -15.17,10.78 -15.28,-18.43 19.04,-24.65 -0.31,-45.82 -0.32,-0.35 -0.89,-0.85 -1.2,-1.21l-4.71 -7.18c-26.89,-0.88 -23.26,2.84 -30.13,9.54 -8.48,8.28 -14.13,7.33 -14.22,17.47 5.56,4.82 -4.84,0.96 6.17,2.85 7.2,1.23 9.5,-2.93 12.42,-6.93 6.73,-9.22 6.02,-10.29 20.54,-11.52 -0.67,0.65 -1.48,1.32 -2.14,1.85 -15.91,12.93 -21.07,8.54 -29.16,23.4 -11.47,-3.8 -2.54,-3.11 -12.78,-6.15z"/>
   <path class="fil10" d="M1955.85 764.32c21.28,-8.64 51.82,-38.52 65.19,-58.17 23.02,-33.83 24,-53.33 14.65,-96.73l-7.03 -15.48 -5.52 -5.39c-6.96,-8.25 -4.79,-8.79 -16.87,-20.92 -0.42,0.27 -2.32,-1.3 -2.47,-0.81 -8.91,-1.27 -26.48,-8.44 -23.89,4.47 -34.64,63.19 -53.38,52.67 -6.86,114.26 -3.54,14.98 -13.69,1.68 -11.67,13.72l-6.98 11.84 5.81 15.28c-17.87,-3.39 -2.56,5.69 -14.18,10.03 -14.26,5.22 12.67,13.72 -4.2,14.33l14.01 13.57z"/>
   <path class="fil10" d="M1009.34 110.05c3.69,5.56 27.46,2.27 35.32,5.46 25.53,6.08 32.29,41.42 60.78,-3.2 87.14,-82.89 -87.94,-75.13 -164.76,-61.75 -25.02,4.34 3.71,22.6 -1.66,21.06 -7.13,-2.02 66.71,27.09 70.32,38.42z"/>
   <path class="fil12" d="M1365.3 1574.32c6.88,7.08 9.3,34.15 8.89,45.65 -0.63,17.98 -9.15,38.97 -8.11,51.32 15.78,-2.11 4.85,-4.22 20.91,-2.81 6.3,0.56 5.88,0.41 10.74,-2.17l9.02 -5.28c0,-13.27 -3.58,-14.79 -4.26,-29.56 -1.35,-29.13 5.19,-28.17 -5.53,-30.33 0.73,-0.37 1.67,-1.76 2.18,-1.15 0.52,0.62 1.64,-0.8 2.34,-0.96 5.48,-1.21 2.7,-0.74 8.52,-1.12 0.06,-20.49 -6.86,-20.59 -11.41,-25.59 -0.36,-0.4 -0.84,-0.94 -1.17,-1.36 -0.34,-0.43 -0.7,-1.04 -1.02,-1.48 -0.31,-0.45 -0.59,-1.09 -0.89,-1.56 -0.3,-0.46 -0.54,-1.11 -0.83,-1.57 -6.74,-10.69 -8.81,-4.11 -8.81,-21.67l-20.23 0 2.69 -21.29c-11.82,0.86 -9.1,-1.86 -12.41,7.47 -2.18,6.15 0.83,6.54 6.66,8.89l-5.65 2.6c-0.03,0.02 -0.27,0.18 -0.29,0.19l0.49 -0.11c-12.42,-9.35 -8.32,-21.17 -28.41,-19.49 10.47,16.76 28.59,24.69 36.56,51.4z"/>
   <path class="fil10" d="M1645.56 734.35c6.95,4.6 92.77,28.11 102.16,31.05 17.11,5.35 32.7,9.67 49.73,15.78 15.3,5.49 35.13,13.02 50.27,16.98 2.52,-3.25 -1.07,-10.24 -4.05,-13.98 -6.19,-7.76 -7.74,-6.15 -17.43,-8.39 -0.05,-8.77 1.54,-8.99 -2,-12.44 -15.42,2.36 3.61,8.72 -18.46,7.63 -23.62,-1.17 6.58,-0.71 -20.18,-10.31 -7.75,-2.78 -2.59,0.54 -7.93,-3.46 -27.04,-20.2 -8.56,-24.65 -29.95,-33.96 -5.42,-2.36 -1.29,-2.21 -8.74,-1.41 -21.93,2.38 -0.28,15.61 -50.28,14.58 6.46,-8.51 7.61,-2.19 14.1,-12.17 -10.69,0.7 -21.52,4.43 -30,4.48 -18,0.12 -15.6,-9.29 -29.65,-0.71 1.4,0.85 8.87,6.89 14.17,2.41l-11.77 3.91z"/>
   <path class="fil10" d="M1056.81 974.74l-16.74 -2.29 -19.45 2.12c-11.96,0.63 -11.67,7.89 -14.33,10.81l-20.65 15.13c-5.74,3.37 -9.35,40.52 -11.26,46.79l94.93 -3.17c10.62,-0.41 15.6,-1.05 25.41,-1.05 7.96,0 14.28,1.22 22.46,-0.81 5.39,-1.34 8.54,-5.03 8.93,-10.52 0.54,-7.39 -3.95,-14.3 -5.88,-15.89 -12.59,-16.21 -25.33,-41.57 -45.52,-42.52 -0.37,-0.12 -16.33,1.3 -17.89,1.39z"/>
   <path class="fil12" d="M597.81 1451.15c6.01,13.82 -1.56,9.3 -0.71,25.08 0.68,12.51 4.85,23 18.07,10.43l3.7 -3.46c9.87,-9.43 13.57,-14.6 25.78,-23.06l45.15 -40.27c12.47,-12.55 21.2,-12.68 27.3,-24.76l-40.26 1.47c-13.11,1.26 -38.98,25.67 -50.48,36.13 -14.78,13.44 -16.37,22.42 -28.56,18.44z"/>
   <path class="fil10" d="M1031.72 1815.15c-9.35,0.42 -17.7,0.1 -26.97,0.1l-18.67 -1.41c-6.69,-14.01 1.3,5.1 0.78,-13.28 -0.3,-10.15 -4.15,-9.2 -1.03,-21.02l-9.22 -1.15c-4.03,8.86 -18.14,18.72 -27.83,36.15 -6.67,39.83 -9.15,21.04 -10.35,36.93 -8.42,12.06 5.59,39.64 12.65,31.78 17.77,4.81 41.4,-8.01 56.77,-16.6 12.01,-8.52 -8,-17.13 24.26,-33.56l-0.39 -17.94z"/>
   <path class="fil12" d="M1615.5 755.39c-11.28,-3.8 -3,-2.58 -13.05,-4.3 -1.59,2.74 -2.17,3.91 -4.13,7.18 -9.37,15.69 5.79,9.05 -8.04,29.07l24.99 8.28c13.91,4.24 4.92,4.35 16.85,1.77l51.2 -3.22 0 -38.25c-1.59,-0.06 -10.98,-1.15 -11.2,-1.15l-10.5 1.86c-10.81,3.02 1.93,1.19 -12.08,2.78 -4.4,0.5 -8.72,0.44 -13.18,0.55l-7.83 -13.41c-0.67,0.37 -1.56,0.31 -1.91,1.24 -1.08,2.86 -2.29,1.5 -3.76,2.5 -3.22,2.2 -2.55,2.24 -7.38,5.11z"/>
   <path class="fil12" d="M1268.63 2045.64c-10.6,-1.54 -22.16,-12.04 -30.78,-17.97l-28.11 -22c-8.02,0.54 -4.25,0.29 -9.12,2.09 -5.41,18.61 -0.98,1.73 1,8.22l1.34 2.57c1.52,4.25 -1.48,10.35 -4.3,18.28 13.52,-3.65 16.37,-0.48 20.22,-7.78 7.01,11.98 5.19,8.67 5.19,22.06l18.27 2.28c3.35,11.51 2.4,8.54 -2.37,20.41 19.5,-2.89 19.78,-5.17 41.97,-4.07 1.22,-18.68 7.47,-38.09 1.54,-56.9 -1.91,-6.07 0.34,-0.73 -3.26,-6.48 -7.58,-12.12 -17.41,-10.86 -24,-10.2l-8.64 0.21c0.67,11.3 1.04,10.91 6,19.21l16.69 26.7c8.35,9.89 -4.21,2.55 3.38,8.84 0,-14.12 0.94,-1.27 -5.02,-5.47z"/>
   <path class="fil12" d="M193.33 431.48c1.71,11.02 0.49,6.08 1.1,16.17 0.01,0.17 -0,0.74 0.03,0.91 0.99,5.57 7.06,6.31 3.46,19.41 20.64,0.05 2.4,1.8 28.92,15.96l17.38 -8.82c7.9,-2.88 -4.99,0.37 6.55,-2.56l-2.02 -1.85c0.24,-13.81 18.86,4.46 30.7,-20.97 -5.11,-3.7 -7.26,-4.52 -15.66,-4.56l0 -18.24 -33.91 4.54c-2.87,-7.24 -0.29,-2.17 0.41,-3.87 5.25,-12.81 3.8,9.86 2.2,-2.78l-7.44 -3.89c-1.61,1.67 -3.78,4.72 -4.61,5.13l-27.1 5.42z"/>
   <path class="fil10" d="M1920.79 415.52l-8.36 1.54 40.62 22.76c13.92,7.54 26.68,14.78 39.12,22.76 13.29,8.52 23.5,16.15 35.63,25.92 8.8,7.09 24.55,23.63 34.66,28.2 0.41,-33.06 0.76,-79.87 -3.43,-112.63 -0.72,-5.65 -1.46,-10.93 -2.39,-16.08 -1.94,-10.7 -2.17,-10.04 -6.06,-14.51 -6.59,23.76 -3.22,31.5 0.87,47.88 7.57,30.33 5.06,16.07 5.06,51.17 10.15,-2.09 -12.43,-9.02 -7.6,5.11 1.97,5.77 13.21,8.44 -0.03,19.42 -7.65,-10.56 -7.62,-0.85 -9.93,-15.36 -2.06,-12.94 1.34,-3.51 -4.3,-15.6 -18.02,2.3 -13.44,6.9 -22.07,-8.22 -6.48,-11.36 -17.26,-3.02 -22.68,-9.89l-6.4 -7.61c-4.96,-3.85 -20.67,-5.74 -32.23,-12.88 -5.11,-3.15 -23.79,-11.72 -30.48,-11.99z"/>
   <path class="fil12" d="M425.6 978.95c0.56,0.37 1.6,0.33 2.05,0.37l5.75 0.38c24.46,-1.14 38.85,-4.51 65.25,-1.52 -0.23,-0.73 2.84,-2.14 -2.64,0.98l-2.59 2.08c11.56,-0.43 -2.25,1.31 12.02,-3.83l8.86 -3.02c0,-39.1 3.52,-36.31 -21.43,-36.93 -0.61,-0.02 -2.17,-0.2 -2.74,-0.15l-2.58 0.46c-0.38,0.08 -1.07,0.38 -1.49,0.49 -0.48,0.12 -1.18,0.46 -1.71,0.58 -13.35,3.15 -13.05,-0.83 -27.14,-1.35 -0.83,-0.03 -6.11,0.38 -6.98,0.42 -1.45,2.12 -1.71,2.4 -3.02,6.83l-0.75 11.42 -20.87 0 0 22.8z"/>
   <path class="fil10" d="M754.37 1823.31c-12.65,6.18 -4.17,24.46 -1.98,59.87l10.86 13.35c2.37,19.14 6.52,11.28 22.31,-11.62 2.56,16.45 3.32,2.52 13.99,6.79 2.05,-5.47 7.15,-50.67 11.37,-69.39 2.71,-11.98 2.66,-7.93 -0.83,-33.91 -14.33,-8.08 -70.91,0.59 -55.72,34.91z"/>
   <path class="fil12" d="M1122.33 1363.53c4.01,5.46 1.97,3.15 7.83,7.84 4.02,3.22 5.23,3.67 8.7,6.03 7.4,5.01 8.9,6.92 16.14,13.27l29.23 30.02c0.35,0.31 1.03,0.89 1.59,1.28 8.82,-2.82 5.69,-2.46 9.55,-5.04l-9.56 -9.38c7.17,-6.17 2.68,0.58 6.68,-6.09 -8.08,-5.77 -8.66,-6.13 -10.14,-15.97 -3.46,-0.07 -2.05,-0.78 2.58,-5.07 -11.71,-6.87 -7.8,-17.4 -7.8,-36.51 -11.15,0 -9.73,-0.89 -18.13,-2.15 -1.12,-0.17 -1.54,-0.3 -2.67,-0.44l-20.97 0.7c-10.83,12.9 -0.85,2.75 -5.34,12.28 -1.93,4.08 -4.79,2.87 -7.69,9.21z"/>
   <path class="fil10" d="M1315.65 1597.14c18.54,-5.67 11.5,-16.06 12.48,-29.77 1.38,-19.43 -2.4,-9.29 8.16,-13.55 7.05,3.2 7.93,9.41 7.74,16 -0.31,10.91 -4.82,7.62 2.7,14.19l3.67 -23.16 4.59 7.62c7.06,7.1 -10.83,2.63 10.31,5.85 -7.52,-25.19 -34.55,-50.3 -58.71,-65.27l-22.5 -14.18c-9.74,2.54 -4.63,0 -2.82,6.24 0.06,0.2 4.83,6.96 5.04,7.24 21.93,29.02 27.91,53.66 29.35,88.79z"/>
   <path class="fil10" d="M998.09 1825.36c9.27,0 15.4,-0.1 24.75,-0.51l22.38 -0.42 8.18 -18.01 -12.76 -10.13c-7.79,-6.78 6.69,-8.03 6.69,-19.87 -10.74,0 -11.1,-3.24 -16.48,-9.25 -1.44,-1.61 -10.44,-6.83 -10.54,-6.96 -0.29,-0.37 -6.3,-3.44 -6.61,-3.78 -1.2,-1.24 -5.98,-6.91 -8.06,-1.88l-8.74 3.63c-2.32,-15.33 -5.06,1.59 -12.96,-8.42 -3.71,3.54 -17.14,5.86 -16.5,22.65 4.46,-1.71 1.8,4.93 6.95,6.52 -33.31,36.56 -7.1,51.96 23.7,46.43z"/>
   <path class="fil10" d="M1098.92 1372.78c16.62,16.38 24.41,64.15 30.8,72.32 6.54,-15.38 4.25,-25.53 0.85,-37.44 1.34,0.71 2.93,5 15.2,9.28 -4.37,-8.71 -9.13,-6.35 -13.76,-13.2 -3.91,-5.74 -0.44,-0.12 -4.37,-9.59 17.8,-1.1 12.15,-14.23 23.33,4.56 11.86,19.99 5.88,16.31 4.95,23.04 5.49,1.51 -5.15,2.54 3,-0.15 0.34,-0.09 2.44,-1.24 3.22,-1.61l8.15 10.13c3.61,5.79 2.73,7.86 6.79,14.2 3.12,-6.17 -3.17,-11.69 -5.2,-24.02l5.22 3.05c5.86,2.46 11.57,13.65 12.98,7.61 -0.56,-0.41 -5.54,-9.96 -5.88,-10.28l-29.24 -30.02c-7.22,-6.35 -8.74,-8.25 -16.14,-13.28 -3.46,-2.34 -4.69,-2.81 -8.71,-6.03 -14.16,-11.32 -33.68,-22.24 -51.55,-28.73 0.73,1.39 19.6,29.54 20.33,30.15z"/>
   <path class="fil10" d="M828.47 1106.05c14,-7.26 18.27,-16.48 39.33,-25.6 9.3,-4.03 43.47,-14.75 47.47,-18.05 -5.65,-1.16 -8.94,0.55 -17.36,0.87l3.73 -3.45c0.35,-0.34 1.04,-0.97 1.34,-1.29 3.76,-3.99 0.82,2.45 0.47,-3.48 -0.02,-0.31 -0.43,-0.51 -0.34,0.01l18.26 -0.83c-3.9,-4.21 8.4,-15.45 -26.85,0.57 -27.39,12.45 -20.62,7.14 -48.69,1.39 -15.48,-3.17 -10.57,-9.48 -20.28,-4.23 9.81,11.44 10.92,-6.65 11.56,11.53 0.61,17.52 -4.35,0.87 -10.27,12.43 -5.99,11.69 1.23,20.47 1.57,22.76 0.04,0.28 -0.41,4.26 0.05,7.37z"/>
   <path class="fil10" d="M949.71 1966.71c9.64,31.9 47.06,68.32 68.39,85.5 21.31,7.08 23.48,13.13 12.74,-8.47l-6.93 -8.96c-5.13,-12.4 5.86,-5.25 -3.03,-16.06 10.93,-26.75 -12.35,-29.58 -21.57,-52.96 15.5,-71.08 -18.7,-9.11 -33.95,-12.06 -26.83,-14.91 -14.67,-23.77 -15.65,13.01z"/>
   <path class="fil10" d="M392.54 1016.73l-5.67 7.89c6.08,5.13 10.28,11.69 15.89,17.62 7.03,7.42 12.01,10.89 20.33,17.67 51.45,-25.33 5.64,-0.17 5.07,-51.3 -14.13,2.61 -23.04,8.3 -35.63,8.13z"/>
   <path class="fil10" d="M699.1 400.32c6.91,16.21 15.69,9.85 19.13,9.06 8.89,-6.78 6.9,-16.04 -3.61,-18.52 -6.78,-1.6 -5.78,-0.63 -12.15,0.15l-3.37 9.31z"/>
  </g>
 </g>
</svg>
