<?xml version="1.0" encoding="UTF-8"?>
<!-- 2020-09-03 18:42:05 Generated by QCAD 3.24.3 SVG Exporter PG -->
<svg width="339.7469mm" height="196mm" viewBox="-435.6861 -188.8197 16.9873 9.8" version="1.1" xmlns="http://www.w3.org/2000/svg" style="stroke-linecap:round;stroke-linejoin:round;fill:none">
    <g transform="scale(1,-1)">
        <!-- Line -->
        <line x1="-435.3861" y1="188.5197" x2="-435.3861" y2="179.3197" style="stroke:#333333;stroke-width:0.0125;"/>
        <!-- Line -->
        <line x1="-423.5361" y1="186.7927" x2="-423.5361" y2="179.3197" style="stroke:#333333;stroke-width:0.0125;"/>
        <!-- Line -->
        <line x1="-425.9525" y1="188.5197" x2="-435.3861" y2="188.5197" style="stroke:#333333;stroke-width:0.0125;"/>
        <!-- Line -->
        <line x1="-423.5361" y1="179.3197" x2="-435.3861" y2="179.3197" style="stroke:#333333;stroke-width:0.0125;"/>
        <!-- Line -->
        <line x1="-426.6345" y1="179.4883" x2="-426.6345" y2="179.3712" style="stroke:#808080;stroke-width:0.0125;"/>
        <!-- Line -->
        <line x1="-426.6345" y1="179.3712" x2="-426.5582" y2="179.3426" style="stroke:#808080;stroke-width:0.0125;"/>
        <!-- Line -->
        <line x1="-426.5582" y1="179.3426" x2="-426.5582" y2="179.3197" style="stroke:#808080;stroke-width:0.0125;"/>
        <!-- Line -->
        <line x1="-426.6345" y1="179.6054" x2="-426.5582" y2="179.6339" style="stroke:#808080;stroke-width:0.0125;"/>
        <!-- Line -->
        <line x1="-426.5582" y1="179.6339" x2="-426.5582" y2="179.6568" style="stroke:#808080;stroke-width:0.0125;"/>
        <!-- Line -->
        <line x1="-426.6345" y1="179.4883" x2="-426.6345" y2="179.6054" style="stroke:#808080;stroke-width:0.0125;"/>
        <!-- Line -->
        <line x1="-426.7641" y1="179.3197" x2="-426.5582" y2="179.3197" style="stroke:#808080;stroke-width:0.0125;"/>
        <!-- Line -->
        <line x1="-426.6878" y1="179.4883" x2="-426.6878" y2="179.6054" style="stroke:#808080;stroke-width:0.0125;"/>
        <!-- Line -->
        <line x1="-426.7641" y1="179.6339" x2="-426.7641" y2="179.6568" style="stroke:#808080;stroke-width:0.0125;"/>
        <!-- Line -->
        <line x1="-426.6878" y1="179.6054" x2="-426.7641" y2="179.6339" style="stroke:#808080;stroke-width:0.0125;"/>
        <!-- Line -->
        <line x1="-426.6878" y1="179.4883" x2="-426.6878" y2="179.3712" style="stroke:#808080;stroke-width:0.0125;"/>
        <!-- Line -->
        <line x1="-426.6878" y1="179.3712" x2="-426.7641" y2="179.3426" style="stroke:#808080;stroke-width:0.0125;"/>
        <!-- Line -->
        <line x1="-426.7641" y1="179.3426" x2="-426.7641" y2="179.3197" style="stroke:#808080;stroke-width:0.0125;"/>
        <!-- Line -->
        <line x1="-426.7641" y1="179.6568" x2="-426.5582" y2="179.6568" style="stroke:#808080;stroke-width:0.0125;"/>
        <!-- Line -->
        <line x1="-429.5641" y1="179.3197" x2="-429.3582" y2="179.3197" style="stroke:#808080;stroke-width:0.0125;"/>
        <!-- Line -->
        <line x1="-429.3582" y1="179.3426" x2="-429.3582" y2="179.3197" style="stroke:#808080;stroke-width:0.0125;"/>
        <!-- Line -->
        <line x1="-429.5641" y1="179.6568" x2="-429.3582" y2="179.6568" style="stroke:#808080;stroke-width:0.0125;"/>
        <!-- Line -->
        <line x1="-429.5641" y1="179.3426" x2="-429.5641" y2="179.3197" style="stroke:#808080;stroke-width:0.0125;"/>
        <!-- Line -->
        <line x1="-429.4878" y1="179.3712" x2="-429.5641" y2="179.3426" style="stroke:#808080;stroke-width:0.0125;"/>
        <!-- Line -->
        <line x1="-429.4878" y1="179.4883" x2="-429.4878" y2="179.3712" style="stroke:#808080;stroke-width:0.0125;"/>
        <!-- Line -->
        <line x1="-429.4878" y1="179.6054" x2="-429.5641" y2="179.6339" style="stroke:#808080;stroke-width:0.0125;"/>
        <!-- Line -->
        <line x1="-429.5641" y1="179.6339" x2="-429.5641" y2="179.6568" style="stroke:#808080;stroke-width:0.0125;"/>
        <!-- Line -->
        <line x1="-429.4878" y1="179.4883" x2="-429.4878" y2="179.6054" style="stroke:#808080;stroke-width:0.0125;"/>
        <!-- Line -->
        <line x1="-429.4345" y1="179.4883" x2="-429.4345" y2="179.6054" style="stroke:#808080;stroke-width:0.0125;"/>
        <!-- Line -->
        <line x1="-429.3582" y1="179.6339" x2="-429.3582" y2="179.6568" style="stroke:#808080;stroke-width:0.0125;"/>
        <!-- Line -->
        <line x1="-429.4345" y1="179.6054" x2="-429.3582" y2="179.6339" style="stroke:#808080;stroke-width:0.0125;"/>
        <!-- Line -->
        <line x1="-429.4345" y1="179.4883" x2="-429.4345" y2="179.3712" style="stroke:#808080;stroke-width:0.0125;"/>
        <!-- Line -->
        <line x1="-429.4345" y1="179.3712" x2="-429.3582" y2="179.3426" style="stroke:#808080;stroke-width:0.0125;"/>
        <!-- Line -->
        <line x1="-432.2345" y1="179.3712" x2="-432.1582" y2="179.3426" style="stroke:#808080;stroke-width:0.0125;"/>
        <!-- Line -->
        <line x1="-432.2345" y1="179.4883" x2="-432.2345" y2="179.3712" style="stroke:#808080;stroke-width:0.0125;"/>
        <!-- Line -->
        <line x1="-432.2345" y1="179.6054" x2="-432.1582" y2="179.6339" style="stroke:#808080;stroke-width:0.0125;"/>
        <!-- Line -->
        <line x1="-432.1582" y1="179.6339" x2="-432.1582" y2="179.6568" style="stroke:#808080;stroke-width:0.0125;"/>
        <!-- Line -->
        <line x1="-432.2345" y1="179.4883" x2="-432.2345" y2="179.6054" style="stroke:#808080;stroke-width:0.0125;"/>
        <!-- Line -->
        <line x1="-432.2878" y1="179.4883" x2="-432.2878" y2="179.6054" style="stroke:#808080;stroke-width:0.0125;"/>
        <!-- Line -->
        <line x1="-432.3641" y1="179.6339" x2="-432.3641" y2="179.6568" style="stroke:#808080;stroke-width:0.0125;"/>
        <!-- Line -->
        <line x1="-432.2878" y1="179.6054" x2="-432.3641" y2="179.6339" style="stroke:#808080;stroke-width:0.0125;"/>
        <!-- Line -->
        <line x1="-432.2878" y1="179.4883" x2="-432.2878" y2="179.3712" style="stroke:#808080;stroke-width:0.0125;"/>
        <!-- Line -->
        <line x1="-432.2878" y1="179.3712" x2="-432.3641" y2="179.3426" style="stroke:#808080;stroke-width:0.0125;"/>
        <!-- Line -->
        <line x1="-432.3641" y1="179.3426" x2="-432.3641" y2="179.3197" style="stroke:#808080;stroke-width:0.0125;"/>
        <!-- Line -->
        <line x1="-432.3641" y1="179.6568" x2="-432.1582" y2="179.6568" style="stroke:#808080;stroke-width:0.0125;"/>
        <!-- Line -->
        <line x1="-432.1582" y1="179.3426" x2="-432.1582" y2="179.3197" style="stroke:#808080;stroke-width:0.0125;"/>
        <!-- Line -->
        <line x1="-432.3641" y1="179.3197" x2="-432.1582" y2="179.3197" style="stroke:#808080;stroke-width:0.0125;"/>
        <!-- Line -->
        <line x1="-432.3641" y1="188.5197" x2="-432.1582" y2="188.5197" style="stroke:#808080;stroke-width:0.0125;"/>
        <!-- Line -->
        <line x1="-432.1582" y1="188.4969" x2="-432.1582" y2="188.5197" style="stroke:#808080;stroke-width:0.0125;"/>
        <!-- Line -->
        <line x1="-432.3641" y1="188.1827" x2="-432.1582" y2="188.1827" style="stroke:#808080;stroke-width:0.0125;"/>
        <!-- Line -->
        <line x1="-432.3641" y1="188.4969" x2="-432.3641" y2="188.5197" style="stroke:#808080;stroke-width:0.0125;"/>
        <!-- Line -->
        <line x1="-432.2878" y1="188.4683" x2="-432.3641" y2="188.4969" style="stroke:#808080;stroke-width:0.0125;"/>
        <!-- Line -->
        <line x1="-432.2878" y1="188.3512" x2="-432.2878" y2="188.4683" style="stroke:#808080;stroke-width:0.0125;"/>
        <!-- Line -->
        <line x1="-432.2878" y1="188.2341" x2="-432.3641" y2="188.2055" style="stroke:#808080;stroke-width:0.0125;"/>
        <!-- Line -->
        <line x1="-432.3641" y1="188.2055" x2="-432.3641" y2="188.1827" style="stroke:#808080;stroke-width:0.0125;"/>
        <!-- Line -->
        <line x1="-432.2878" y1="188.3512" x2="-432.2878" y2="188.2341" style="stroke:#808080;stroke-width:0.0125;"/>
        <!-- Line -->
        <line x1="-432.2345" y1="188.3512" x2="-432.2345" y2="188.2341" style="stroke:#808080;stroke-width:0.0125;"/>
        <!-- Line -->
        <line x1="-432.1582" y1="188.2055" x2="-432.1582" y2="188.1827" style="stroke:#808080;stroke-width:0.0125;"/>
        <!-- Line -->
        <line x1="-432.2345" y1="188.2341" x2="-432.1582" y2="188.2055" style="stroke:#808080;stroke-width:0.0125;"/>
        <!-- Line -->
        <line x1="-432.2345" y1="188.3512" x2="-432.2345" y2="188.4683" style="stroke:#808080;stroke-width:0.0125;"/>
        <!-- Line -->
        <line x1="-432.2345" y1="188.4683" x2="-432.1582" y2="188.4969" style="stroke:#808080;stroke-width:0.0125;"/>
        <!-- Line -->
        <line x1="-429.4345" y1="188.4683" x2="-429.3582" y2="188.4969" style="stroke:#808080;stroke-width:0.0125;"/>
        <!-- Line -->
        <line x1="-429.4345" y1="188.3512" x2="-429.4345" y2="188.4683" style="stroke:#808080;stroke-width:0.0125;"/>
        <!-- Line -->
        <line x1="-429.4345" y1="188.2341" x2="-429.3582" y2="188.2055" style="stroke:#808080;stroke-width:0.0125;"/>
        <!-- Line -->
        <line x1="-429.3582" y1="188.2055" x2="-429.3582" y2="188.1827" style="stroke:#808080;stroke-width:0.0125;"/>
        <!-- Line -->
        <line x1="-429.4345" y1="188.3512" x2="-429.4345" y2="188.2341" style="stroke:#808080;stroke-width:0.0125;"/>
        <!-- Line -->
        <line x1="-429.4878" y1="188.3512" x2="-429.4878" y2="188.2341" style="stroke:#808080;stroke-width:0.0125;"/>
        <!-- Line -->
        <line x1="-429.5641" y1="188.2055" x2="-429.5641" y2="188.1827" style="stroke:#808080;stroke-width:0.0125;"/>
        <!-- Line -->
        <line x1="-429.4878" y1="188.2341" x2="-429.5641" y2="188.2055" style="stroke:#808080;stroke-width:0.0125;"/>
        <!-- Line -->
        <line x1="-429.4878" y1="188.3512" x2="-429.4878" y2="188.4683" style="stroke:#808080;stroke-width:0.0125;"/>
        <!-- Line -->
        <line x1="-429.4878" y1="188.4683" x2="-429.5641" y2="188.4969" style="stroke:#808080;stroke-width:0.0125;"/>
        <!-- Line -->
        <line x1="-429.5641" y1="188.4969" x2="-429.5641" y2="188.5197" style="stroke:#808080;stroke-width:0.0125;"/>
        <!-- Line -->
        <line x1="-429.5641" y1="188.1827" x2="-429.3582" y2="188.1827" style="stroke:#808080;stroke-width:0.0125;"/>
        <!-- Line -->
        <line x1="-429.3582" y1="188.4969" x2="-429.3582" y2="188.5197" style="stroke:#808080;stroke-width:0.0125;"/>
        <!-- Line -->
        <line x1="-429.5641" y1="188.5197" x2="-429.3582" y2="188.5197" style="stroke:#808080;stroke-width:0.0125;"/>
        <!-- Line -->
        <line x1="-426.7641" y1="188.5197" x2="-426.5582" y2="188.5197" style="stroke:#808080;stroke-width:0.0125;"/>
        <!-- Line -->
        <line x1="-426.5582" y1="188.4969" x2="-426.5582" y2="188.5197" style="stroke:#808080;stroke-width:0.0125;"/>
        <!-- Line -->
        <line x1="-426.7641" y1="188.1827" x2="-426.5582" y2="188.1827" style="stroke:#808080;stroke-width:0.0125;"/>
        <!-- Line -->
        <line x1="-426.7641" y1="188.4969" x2="-426.7641" y2="188.5197" style="stroke:#808080;stroke-width:0.0125;"/>
        <!-- Line -->
        <line x1="-426.6878" y1="188.4683" x2="-426.7641" y2="188.4969" style="stroke:#808080;stroke-width:0.0125;"/>
        <!-- Line -->
        <line x1="-426.6878" y1="188.3512" x2="-426.6878" y2="188.4683" style="stroke:#808080;stroke-width:0.0125;"/>
        <!-- Line -->
        <line x1="-426.6878" y1="188.2341" x2="-426.7641" y2="188.2055" style="stroke:#808080;stroke-width:0.0125;"/>
        <!-- Line -->
        <line x1="-426.7641" y1="188.2055" x2="-426.7641" y2="188.1827" style="stroke:#808080;stroke-width:0.0125;"/>
        <!-- Line -->
        <line x1="-426.6878" y1="188.3512" x2="-426.6878" y2="188.2341" style="stroke:#808080;stroke-width:0.0125;"/>
        <!-- Line -->
        <line x1="-426.6345" y1="188.3512" x2="-426.6345" y2="188.2341" style="stroke:#808080;stroke-width:0.0125;"/>
        <!-- Line -->
        <line x1="-426.5582" y1="188.2055" x2="-426.5582" y2="188.1827" style="stroke:#808080;stroke-width:0.0125;"/>
        <!-- Line -->
        <line x1="-426.6345" y1="188.2341" x2="-426.5582" y2="188.2055" style="stroke:#808080;stroke-width:0.0125;"/>
        <!-- Line -->
        <line x1="-426.6345" y1="188.3512" x2="-426.6345" y2="188.4683" style="stroke:#808080;stroke-width:0.0125;"/>
        <!-- Line -->
        <line x1="-426.6345" y1="188.4683" x2="-426.5582" y2="188.4969" style="stroke:#808080;stroke-width:0.0125;"/>
        <!-- Line -->
        <line x1="-424.4385" y1="186.7927" x2="-423.5361" y2="186.7927" style="stroke:#808080;stroke-width:0.0125;"/>
        <!-- Line -->
        <line x1="-435.1005" y1="186.893" x2="-435.0719" y2="186.8168" style="stroke:#808080;stroke-width:0.0125;"/>
        <!-- Line -->
        <line x1="-435.2176" y1="186.893" x2="-435.1005" y2="186.893" style="stroke:#808080;stroke-width:0.0125;"/>
        <!-- Line -->
        <line x1="-435.3347" y1="186.893" x2="-435.3633" y2="186.8168" style="stroke:#808080;stroke-width:0.0125;"/>
        <!-- Line -->
        <line x1="-435.3633" y1="186.8168" x2="-435.3861" y2="186.8168" style="stroke:#808080;stroke-width:0.0125;"/>
        <!-- Line -->
        <line x1="-435.2176" y1="186.893" x2="-435.3347" y2="186.893" style="stroke:#808080;stroke-width:0.0125;"/>
        <!-- Line -->
        <line x1="-435.2176" y1="186.9464" x2="-435.3347" y2="186.9464" style="stroke:#808080;stroke-width:0.0125;"/>
        <!-- Line -->
        <line x1="-435.3633" y1="187.0227" x2="-435.3861" y2="187.0227" style="stroke:#808080;stroke-width:0.0125;"/>
        <!-- Line -->
        <line x1="-435.3347" y1="186.9464" x2="-435.3633" y2="187.0227" style="stroke:#808080;stroke-width:0.0125;"/>
        <!-- Line -->
        <line x1="-435.2176" y1="186.9464" x2="-435.1005" y2="186.9464" style="stroke:#808080;stroke-width:0.0125;"/>
        <!-- Line -->
        <line x1="-435.1005" y1="186.9464" x2="-435.0719" y2="187.0227" style="stroke:#808080;stroke-width:0.0125;"/>
        <!-- Line -->
        <line x1="-435.0719" y1="187.0227" x2="-435.0491" y2="187.0227" style="stroke:#808080;stroke-width:0.0125;"/>
        <!-- Line -->
        <line x1="-435.3861" y1="187.0227" x2="-435.3861" y2="186.8168" style="stroke:#808080;stroke-width:0.0125;"/>
        <!-- Line -->
        <line x1="-435.0719" y1="186.8168" x2="-435.0491" y2="186.8168" style="stroke:#808080;stroke-width:0.0125;"/>
        <!-- Line -->
        <line x1="-435.0491" y1="187.0227" x2="-435.0491" y2="186.8168" style="stroke:#808080;stroke-width:0.0125;"/>
        <!-- Line -->
        <line x1="-435.0491" y1="181.0227" x2="-435.0491" y2="180.8168" style="stroke:#808080;stroke-width:0.0125;"/>
        <!-- Line -->
        <line x1="-435.0719" y1="180.8168" x2="-435.0491" y2="180.8168" style="stroke:#808080;stroke-width:0.0125;"/>
        <!-- Line -->
        <line x1="-435.3861" y1="181.0227" x2="-435.3861" y2="180.8168" style="stroke:#808080;stroke-width:0.0125;"/>
        <!-- Line -->
        <line x1="-435.0719" y1="181.0227" x2="-435.0491" y2="181.0227" style="stroke:#808080;stroke-width:0.0125;"/>
        <!-- Line -->
        <line x1="-435.1005" y1="180.9464" x2="-435.0719" y2="181.0227" style="stroke:#808080;stroke-width:0.0125;"/>
        <!-- Line -->
        <line x1="-435.2176" y1="180.9464" x2="-435.1005" y2="180.9464" style="stroke:#808080;stroke-width:0.0125;"/>
        <!-- Line -->
        <line x1="-435.3347" y1="180.9464" x2="-435.3633" y2="181.0227" style="stroke:#808080;stroke-width:0.0125;"/>
        <!-- Line -->
        <line x1="-435.3633" y1="181.0227" x2="-435.3861" y2="181.0227" style="stroke:#808080;stroke-width:0.0125;"/>
        <!-- Line -->
        <line x1="-435.2176" y1="180.9464" x2="-435.3347" y2="180.9464" style="stroke:#808080;stroke-width:0.0125;"/>
        <!-- Line -->
        <line x1="-435.2176" y1="180.893" x2="-435.3347" y2="180.893" style="stroke:#808080;stroke-width:0.0125;"/>
        <!-- Line -->
        <line x1="-435.3633" y1="180.8168" x2="-435.3861" y2="180.8168" style="stroke:#808080;stroke-width:0.0125;"/>
        <!-- Line -->
        <line x1="-435.3347" y1="180.893" x2="-435.3633" y2="180.8168" style="stroke:#808080;stroke-width:0.0125;"/>
        <!-- Line -->
        <line x1="-435.2176" y1="180.893" x2="-435.1005" y2="180.893" style="stroke:#808080;stroke-width:0.0125;"/>
        <!-- Line -->
        <line x1="-435.1005" y1="180.893" x2="-435.0719" y2="180.8168" style="stroke:#808080;stroke-width:0.0125;"/>
        <!-- Line -->
        <line x1="-423.8218" y1="180.893" x2="-423.8503" y2="180.8168" style="stroke:#808080;stroke-width:0.0125;"/>
        <!-- Line -->
        <line x1="-423.7047" y1="180.893" x2="-423.8218" y2="180.893" style="stroke:#808080;stroke-width:0.0125;"/>
        <!-- Line -->
        <line x1="-423.5876" y1="180.893" x2="-423.559" y2="180.8168" style="stroke:#808080;stroke-width:0.0125;"/>
        <!-- Line -->
        <line x1="-423.559" y1="180.8168" x2="-423.5361" y2="180.8168" style="stroke:#808080;stroke-width:0.0125;"/>
        <!-- Line -->
        <line x1="-423.7047" y1="180.893" x2="-423.5876" y2="180.893" style="stroke:#808080;stroke-width:0.0125;"/>
        <!-- Line -->
        <line x1="-423.7047" y1="180.9464" x2="-423.5876" y2="180.9464" style="stroke:#808080;stroke-width:0.0125;"/>
        <!-- Line -->
        <line x1="-423.559" y1="181.0227" x2="-423.5361" y2="181.0227" style="stroke:#808080;stroke-width:0.0125;"/>
        <!-- Line -->
        <line x1="-423.5876" y1="180.9464" x2="-423.559" y2="181.0227" style="stroke:#808080;stroke-width:0.0125;"/>
        <!-- Line -->
        <line x1="-423.7047" y1="180.9464" x2="-423.8218" y2="180.9464" style="stroke:#808080;stroke-width:0.0125;"/>
        <!-- Line -->
        <line x1="-423.8218" y1="180.9464" x2="-423.8503" y2="181.0227" style="stroke:#808080;stroke-width:0.0125;"/>
        <!-- Line -->
        <line x1="-423.8503" y1="181.0227" x2="-423.8732" y2="181.0227" style="stroke:#808080;stroke-width:0.0125;"/>
        <!-- Line -->
        <line x1="-423.5361" y1="181.0227" x2="-423.5361" y2="180.8168" style="stroke:#808080;stroke-width:0.0125;"/>
        <!-- Line -->
        <line x1="-423.8503" y1="180.8168" x2="-423.8732" y2="180.8168" style="stroke:#808080;stroke-width:0.0125;"/>
        <!-- Line -->
        <line x1="-423.8732" y1="181.0227" x2="-423.8732" y2="180.8168" style="stroke:#808080;stroke-width:0.0125;"/>
        <!-- Line -->
        <line x1="-423.8732" y1="187.0227" x2="-423.8732" y2="186.8168" style="stroke:#808080;stroke-width:0.0125;"/>
        <!-- Line -->
        <line x1="-423.8503" y1="186.8168" x2="-423.8732" y2="186.8168" style="stroke:#808080;stroke-width:0.0125;"/>
        <!-- Line -->
        <line x1="-423.5361" y1="187.0227" x2="-423.5361" y2="186.8168" style="stroke:#808080;stroke-width:0.0125;"/>
        <!-- Line -->
        <line x1="-423.8503" y1="187.0227" x2="-423.8732" y2="187.0227" style="stroke:#808080;stroke-width:0.0125;"/>
        <!-- Line -->
        <line x1="-423.8218" y1="186.9464" x2="-423.8503" y2="187.0227" style="stroke:#808080;stroke-width:0.0125;"/>
        <!-- Line -->
        <line x1="-423.7047" y1="186.9464" x2="-423.8218" y2="186.9464" style="stroke:#808080;stroke-width:0.0125;"/>
        <!-- Line -->
        <line x1="-423.5876" y1="186.9464" x2="-423.559" y2="187.0227" style="stroke:#808080;stroke-width:0.0125;"/>
        <!-- Line -->
        <line x1="-423.559" y1="187.0227" x2="-423.5361" y2="187.0227" style="stroke:#808080;stroke-width:0.0125;"/>
        <!-- Line -->
        <line x1="-423.7047" y1="186.9464" x2="-423.5876" y2="186.9464" style="stroke:#808080;stroke-width:0.0125;"/>
        <!-- Line -->
        <line x1="-423.7047" y1="186.893" x2="-423.5876" y2="186.893" style="stroke:#808080;stroke-width:0.0125;"/>
        <!-- Line -->
        <line x1="-423.559" y1="186.8168" x2="-423.5361" y2="186.8168" style="stroke:#808080;stroke-width:0.0125;"/>
        <!-- Line -->
        <line x1="-423.5876" y1="186.893" x2="-423.559" y2="186.8168" style="stroke:#808080;stroke-width:0.0125;"/>
        <!-- Line -->
        <line x1="-423.7047" y1="186.893" x2="-423.8218" y2="186.893" style="stroke:#808080;stroke-width:0.0125;"/>
        <!-- Line -->
        <line x1="-423.8218" y1="186.893" x2="-423.8503" y2="186.8168" style="stroke:#808080;stroke-width:0.0125;"/>
        <!-- Line -->
        <line x1="-421.6988" y1="185.0191" x2="-421.5588" y2="185.0191" style="stroke:#333333;stroke-width:0.0125;"/>
        <!-- Line -->
        <line x1="-421.6988" y1="183.3191" x2="-421.6988" y2="185.0191" style="stroke:#333333;stroke-width:0.0125;"/>
        <!-- Line -->
        <line x1="-418.9988" y1="183.3191" x2="-418.9988" y2="185.0191" style="stroke:#333333;stroke-width:0.0125;"/>
        <!-- Line -->
        <line x1="-421.6988" y1="183.3191" x2="-418.9988" y2="183.3191" style="stroke:#333333;stroke-width:0.0125;"/>
        <!-- Line -->
        <line x1="-421.5588" y1="183.3191" x2="-421.5588" y2="185.0191" style="stroke:#333333;stroke-width:0.0125;"/>
        <!-- Line -->
        <line x1="-421.6988" y1="184.8991" x2="-421.5588" y2="184.8991" style="stroke:#333333;stroke-width:0.0125;"/>
        <!-- Line -->
        <line x1="-421.6988" y1="183.4391" x2="-421.5588" y2="183.4391" style="stroke:#333333;stroke-width:0.0125;"/>
        <!-- Line -->
        <line x1="-421.6288" y1="184.8991" x2="-421.6288" y2="183.4391" style="stroke:#333333;stroke-width:0.0125;"/>
        <!-- Line -->
        <line x1="-419.0788" y1="183.3191" x2="-419.0788" y2="185.0191" style="stroke:#333333;stroke-width:0.0125;"/>
        <!-- Line -->
        <line x1="-419.2188" y1="183.3691" x2="-419.2188" y2="184.9691" style="stroke:#808080;stroke-width:0.0125;"/>
        <!-- Line -->
        <line x1="-419.2188" y1="184.9691" x2="-419.0788" y2="184.9691" style="stroke:#808080;stroke-width:0.0125;"/>
        <!-- Line -->
        <line x1="-419.2188" y1="183.3691" x2="-419.0788" y2="183.3691" style="stroke:#808080;stroke-width:0.0125;"/>
        <!-- Line -->
        <line x1="-419.2788" y1="183.3691" x2="-419.2788" y2="184.9691" style="stroke:#808080;stroke-width:0.0125;"/>
        <!-- Line -->
        <line x1="-419.3988" y1="183.3691" x2="-419.3988" y2="184.9691" style="stroke:#808080;stroke-width:0.0125;"/>
        <!-- Line -->
        <line x1="-419.2788" y1="184.9691" x2="-419.3988" y2="184.9691" style="stroke:#808080;stroke-width:0.0125;"/>
        <!-- Line -->
        <line x1="-419.2788" y1="183.3691" x2="-419.3988" y2="183.3691" style="stroke:#808080;stroke-width:0.0125;"/>
        <!-- Line -->
        <line x1="-419.4588" y1="183.3541" x2="-419.4588" y2="184.9841" style="stroke:#808080;stroke-width:0.0125;"/>
        <!-- Line -->
        <line x1="-419.9088" y1="183.3541" x2="-419.9088" y2="184.9841" style="stroke:#808080;stroke-width:0.0125;"/>
        <!-- Line -->
        <line x1="-419.9088" y1="184.9841" x2="-419.4588" y2="184.9841" style="stroke:#808080;stroke-width:0.0125;"/>
        <!-- Line -->
        <line x1="-419.9088" y1="183.3541" x2="-419.4588" y2="183.3541" style="stroke:#808080;stroke-width:0.0125;"/>
        <!-- Line -->
        <line x1="-419.8738" y1="184.9491" x2="-419.4938" y2="184.9491" style="stroke:#808080;stroke-width:0.0125;"/>
        <!-- Line -->
        <line x1="-419.8738" y1="183.3891" x2="-419.8738" y2="184.9491" style="stroke:#808080;stroke-width:0.0125;"/>
        <!-- Line -->
        <line x1="-419.4938" y1="183.3891" x2="-419.4938" y2="184.9491" style="stroke:#808080;stroke-width:0.0125;"/>
        <!-- Line -->
        <line x1="-419.8738" y1="183.3891" x2="-419.4938" y2="183.3891" style="stroke:#808080;stroke-width:0.0125;"/>
        <!-- Text: SALA DE MAQUINAS -->
        <text x="-432.5197" dx="0" y="-185.0818" dy="0.4002" font-family="Arial" font-size="0.5603" line-height="1.1" fill="#000000" transform="scale(1,-1) rotate(360 -432.5197,-185.0818)" text-anchor="start">SALA DE MAQUINAS</text>
        <!-- Text: LADO RIO -->
        <text x="-422.6695" dx="0" y="-181.0787" dy="0.3" font-family="Arial" font-size="0.42" line-height="1.1" fill="#000000" transform="scale(1,-1) rotate(360 -422.6695,-181.0787)" text-anchor="start">LADO RIO</text>
        <!-- Line -->
        <line x1="-420.3594" y1="180.9355" x2="-419.1406" y2="180.9355" style="stroke:#000000;stroke-width:0.0125;"/>
        <!-- Line -->
        <line x1="-419.1406" y1="180.9355" x2="-419.4783" y2="181.0816" style="stroke:#000000;stroke-width:0.0125;"/>
        <!-- Line -->
        <line x1="-419.1406" y1="180.9355" x2="-419.4783" y2="180.7893" style="stroke:#000000;stroke-width:0.0125;"/>
        <!-- Line -->
        <line x1="-420.8588" y1="185.0191" x2="-420.8588" y2="185.7191" style="stroke:#808080;stroke-width:0.0125;"/>
        <!-- Line -->
        <line x1="-420.9088" y1="185.0191" x2="-420.9088" y2="185.7191" style="stroke:#808080;stroke-width:0.0125;"/>
        <!-- Line -->
        <line x1="-420.9088" y1="185.7191" x2="-420.8588" y2="185.7191" style="stroke:#808080;stroke-width:0.0125;"/>
        <!-- Line -->
        <line x1="-420.9088" y1="185.0191" x2="-418.9988" y2="185.0191" style="stroke:#333333;stroke-width:0.0125;"/>
        <!-- Line -->
        <line x1="-421.5588" y1="185.0191" x2="-420.9088" y2="185.0191" style="stroke:#808080;stroke-width:0.0125;"/>
        <!-- Line -->
        <line x1="-423.5361" y1="186.7927" x2="-425.9525" y2="186.7927" style="stroke:#333333;stroke-width:0.0125;"/>
        <!-- Line -->
        <line x1="-425.9525" y1="188.5197" x2="-425.9525" y2="186.7927" style="stroke:#000000;stroke-width:0.0125;"/>
        <!-- Line -->
        <line x1="-424.2716" y1="186.7927" x2="-424.2716" y2="185.0519" style="stroke:#000000;stroke-width:0.0125;"/>
        <!-- Line -->
        <line x1="-425.2162" y1="185.6033" x2="-424.2716" y2="185.6033" style="stroke:#808080;stroke-width:0.0125;"/>
        <!-- Line -->
        <line x1="-425.2162" y1="185.5533" x2="-424.2716" y2="185.5533" style="stroke:#808080;stroke-width:0.0125;"/>
        <!-- Line -->
        <line x1="-425.1909" y1="186.3699" x2="-424.2716" y2="186.3699" style="stroke:#808080;stroke-width:0.0125;"/>
        <!-- Line -->
        <line x1="-424.6825" y1="186.3699" x2="-424.6825" y2="185.6033" style="stroke:#000000;stroke-width:0.0125;"/>
        <!-- Line -->
        <line x1="-424.8825" y1="186.3699" x2="-424.8825" y2="185.6033" style="stroke:#000000;stroke-width:0.0125;"/>
        <!-- Line -->
        <line x1="-424.4825" y1="186.3699" x2="-424.4825" y2="185.6033" style="stroke:#000000;stroke-width:0.0125;"/>
        <!-- Line -->
        <line x1="-425.1909" y1="186.4199" x2="-424.2716" y2="186.4199" style="stroke:#808080;stroke-width:0.0125;"/>
        <!-- Line -->
        <line x1="-425.0825" y1="186.3699" x2="-425.0825" y2="185.6033" style="stroke:#000000;stroke-width:0.0125;"/>
        <!-- Line -->
        <line x1="-425.1909" y1="186.4199" x2="-425.1909" y2="186.3699" style="stroke:#808080;stroke-width:0.0125;"/>
        <!-- Line -->
        <line x1="-425.2162" y1="185.6033" x2="-425.2162" y2="185.5533" style="stroke:#808080;stroke-width:0.0125;"/>
        <!-- Line -->
        <line x1="-425.1481" y1="187.0734" x2="-425.1481" y2="187.84" style="stroke:#000000;stroke-width:0.0125;"/>
        <!-- Line -->
        <line x1="-425.7481" y1="187.0734" x2="-425.7481" y2="187.84" style="stroke:#000000;stroke-width:0.0125;"/>
        <!-- Line -->
        <line x1="-425.3481" y1="187.0734" x2="-425.3481" y2="187.84" style="stroke:#000000;stroke-width:0.0125;"/>
        <!-- Line -->
        <line x1="-425.5481" y1="187.0734" x2="-425.5481" y2="187.84" style="stroke:#000000;stroke-width:0.0125;"/>
        <!-- Line -->
        <line x1="-425.0144" y1="187.89" x2="-425.959" y2="187.89" style="stroke:#808080;stroke-width:0.0125;"/>
        <!-- Line -->
        <line x1="-425.0144" y1="187.84" x2="-425.959" y2="187.84" style="stroke:#808080;stroke-width:0.0125;"/>
        <!-- Line -->
        <line x1="-425.0144" y1="187.84" x2="-425.0144" y2="187.89" style="stroke:#808080;stroke-width:0.0125;"/>
        <!-- Line -->
        <line x1="-425.0397" y1="187.0234" x2="-425.959" y2="187.0234" style="stroke:#808080;stroke-width:0.0125;"/>
        <!-- Line -->
        <line x1="-425.0397" y1="187.0734" x2="-425.959" y2="187.0734" style="stroke:#808080;stroke-width:0.0125;"/>
        <!-- Line -->
        <line x1="-425.0397" y1="187.0234" x2="-425.0397" y2="187.0734" style="stroke:#808080;stroke-width:0.0125;"/>
    </g>
</svg>
