<?xml version="1.0" encoding="UTF-8"?>
<!-- 2020-09-05 21:54:17 Generated by QCAD 3.24.3 SVG Exporter PG -->
<svg width="436.4756mm" height="501.3183mm" viewBox="5.3846 -24.9409 21.8238 25.0659" version="1.1" xmlns="http://www.w3.org/2000/svg" style="stroke-linecap:round;stroke-linejoin:round;fill:none">
    <g transform="scale(1,-1)">
        <!-- Line -->
        <line x1="17.2959" y1="18.0074" x2="17.2959" y2="6.3074" style="stroke:#00ff00;stroke-width:0.0125;"/>
        <!-- Line -->
        <line x1="17.0959" y1="18.0074" x2="17.0959" y2="6.3074" style="stroke:#00ff00;stroke-width:0.0125;"/>
        <!-- Line -->
        <line x1="9.7959" y1="18.0074" x2="9.7959" y2="3.5574" style="stroke:#ff0000;stroke-width:0.0125;"/>
        <!-- Line -->
        <line x1="10.4459" y1="20.1748" x2="10.4459" y2="18.0074" style="stroke:#808080;stroke-width:0.0125;"/>
        <!-- Line -->
        <line x1="10.3959" y1="20.1748" x2="10.3959" y2="18.0074" style="stroke:#808080;stroke-width:0.0125;"/>
        <!-- Line -->
        <line x1="15.3759" y1="11.9874" x2="15.3759" y2="16.3874" style="stroke:#808080;stroke-width:0.0125;"/>
        <!-- Line -->
        <line x1="10.0759" y1="17.5574" x2="10.0759" y2="10.6074" style="stroke:#ff0000;stroke-width:0.0125;"/>
        <!-- Text: INTERRUPTORES 33 KV -->
        <text x="14.7947" dx="0" y="-8.202" dy="0.1" font-family="Arial" font-size="0.14" line-height="1.1" fill="#ff00ff" transform="scale(1,-1) rotate(360 14.7947,-8.202)" text-anchor="end">INTERRUPTORES 33 KV</text>
        <!-- Line -->
        <line x1="10.3959" y1="17.8932" x2="15.3259" y2="17.8932" style="stroke:#808080;stroke-width:0.0125;"/>
        <!-- Line -->
        <line x1="12.3759" y1="16.3874" x2="15.3759" y2="16.3874" style="stroke:#808080;stroke-width:0.0125;"/>
        <!-- Text: BATEA
4.4x3x1 -->
        <text x="15.2228" dx="0" y="-12.4287" dy="0.1" font-family="Arial" font-size="0.14" line-height="1.1" fill="#ff00ff" transform="scale(1,-1) rotate(360 15.2228,-12.4287)" text-anchor="end">BATEA</text>
        <text x="15.2228" dx="0" y="-12.2765" dy="0.1" font-family="Arial" font-size="0.14" line-height="1.1" fill="#ff00ff" transform="scale(1,-1) rotate(360 15.2228,-12.2765)" text-anchor="end">4.4x3x1</text>
        <!-- Text: SALA DE TRANSFORMADOR -->
        <text x="15.494" dx="0" y="-17.0136" dy="0.15" font-family="Arial" font-size="0.21" line-height="1.1" fill="#ff00ff" transform="scale(1,-1) rotate(360 15.494,-17.0136)" text-anchor="end">SALA DE TRANSFORMADOR</text>
        <!-- Line -->
        <line x1="15.3759" y1="18.0074" x2="10.3459" y2="18.0074" style="stroke:#808080;stroke-width:0.0125;"/>
        <!-- Line -->
        <line x1="15.3759" y1="17.7274" x2="10.3459" y2="17.7274" style="stroke:#808080;stroke-width:0.0125;"/>
        <!-- Line -->
        <line x1="9.7959" y1="18.0074" x2="10.3459" y2="18.0074" style="stroke:#ff0000;stroke-width:0.0125;"/>
        <!-- Line -->
        <line x1="9.9459" y1="17.8574" x2="9.9459" y2="17.5574" style="stroke:#00ff00;stroke-width:0.0125;"/>
        <!-- Line -->
        <line x1="10.3459" y1="18.0074" x2="10.3459" y2="17.7274" style="stroke:#ff0000;stroke-width:0.0125;"/>
        <!-- Line -->
        <line x1="9.9459" y1="17.8574" x2="10.2459" y2="17.8574" style="stroke:#00ff00;stroke-width:0.0125;"/>
        <!-- Line -->
        <line x1="15.3759" y1="17.7274" x2="17.0959" y2="17.7274" style="stroke:#ff0000;stroke-width:0.0125;"/>
        <!-- Line -->
        <line x1="15.3759" y1="18.0074" x2="17.0959" y2="18.0074" style="stroke:#ff0000;stroke-width:0.0125;"/>
        <!-- Line -->
        <line x1="10.4459" y1="20.1748" x2="10.3959" y2="20.1748" style="stroke:#808080;stroke-width:0.0125;"/>
        <!-- Line -->
        <line x1="15.3759" y1="17.7274" x2="15.3759" y2="18.0074" style="stroke:#ff0000;stroke-width:0.0125;"/>
        <!-- Line -->
        <line x1="10.3959" y1="18.0074" x2="10.3959" y2="17.7274" style="stroke:#808080;stroke-width:0.0125;"/>
        <!-- Line -->
        <line x1="15.2759" y1="20.1748" x2="15.3259" y2="20.1748" style="stroke:#808080;stroke-width:0.0125;"/>
        <!-- Line -->
        <line x1="15.2759" y1="20.1748" x2="15.2759" y2="18.0074" style="stroke:#808080;stroke-width:0.0125;"/>
        <!-- Line -->
        <line x1="15.3259" y1="20.1748" x2="15.3259" y2="18.0074" style="stroke:#808080;stroke-width:0.0125;"/>
        <!-- Line -->
        <line x1="15.3259" y1="18.0074" x2="15.3259" y2="17.7274" style="stroke:#808080;stroke-width:0.0125;"/>
        <!-- Line -->
        <line x1="12.3759" y1="11.9874" x2="12.3759" y2="16.3874" style="stroke:#808080;stroke-width:0.0125;"/>
        <!-- Line -->
        <line x1="12.3759" y1="11.9874" x2="15.3759" y2="11.9874" style="stroke:#808080;stroke-width:0.0125;"/>
        <!-- Line -->
        <line x1="9.9459" y1="17.5574" x2="10.2459" y2="17.5574" style="stroke:#00ff00;stroke-width:0.0125;"/>
        <!-- Line -->
        <line x1="10.2459" y1="17.8574" x2="10.2459" y2="17.5574" style="stroke:#00ff00;stroke-width:0.0125;"/>
        <!-- Line -->
        <line x1="10.2459" y1="17.7274" x2="10.3459" y2="17.7274" style="stroke:#ff0000;stroke-width:0.0125;"/>
        <!-- Line -->
        <line x1="9.9459" y1="10.6074" x2="10.2459" y2="10.6074" style="stroke:#00ff00;stroke-width:0.0125;"/>
        <!-- Line -->
        <line x1="9.9459" y1="10.6074" x2="9.9459" y2="10.3074" style="stroke:#00ff00;stroke-width:0.0125;"/>
        <!-- Line -->
        <line x1="10.2459" y1="10.6074" x2="10.2459" y2="10.3074" style="stroke:#00ff00;stroke-width:0.0125;"/>
        <!-- Line -->
        <line x1="9.9459" y1="10.3074" x2="10.2459" y2="10.3074" style="stroke:#00ff00;stroke-width:0.0125;"/>
        <!-- Line -->
        <line x1="10.3259" y1="6.3074" x2="9.7959" y2="6.3074" style="stroke:#ff0000;stroke-width:0.0125;"/>
        <!-- Line -->
        <line x1="9.9459" y1="6.4574" x2="10.2459" y2="6.4574" style="stroke:#00ff00;stroke-width:0.0125;"/>
        <!-- Line -->
        <line x1="10.2459" y1="6.7574" x2="10.2459" y2="6.4574" style="stroke:#00ff00;stroke-width:0.0125;"/>
        <!-- Line -->
        <line x1="9.9459" y1="6.7574" x2="9.9459" y2="6.4574" style="stroke:#00ff00;stroke-width:0.0125;"/>
        <!-- Line -->
        <line x1="9.9459" y1="6.7574" x2="10.2459" y2="6.7574" style="stroke:#00ff00;stroke-width:0.0125;"/>
        <!-- Line -->
        <line x1="10.3259" y1="7.5074" x2="10.3259" y2="6.3074" style="stroke:#ff0000;stroke-width:0.0125;"/>
        <!-- Line -->
        <line x1="10.3259" y1="7.5074" x2="10.0759" y2="7.5074" style="stroke:#ff0000;stroke-width:0.0125;"/>
        <!-- Line -->
        <line x1="10.0759" y1="10.3074" x2="10.0759" y2="7.5074" style="stroke:#ff0000;stroke-width:0.0125;"/>
        <!-- Line -->
        <line x1="12.4659" y1="7.5074" x2="12.4659" y2="6.3074" style="stroke:#ff0000;stroke-width:0.0125;"/>
        <!-- Line -->
        <line x1="12.7559" y1="9.7874" x2="12.7559" y2="8.7374" style="stroke:#00ff00;stroke-width:0.0125;"/>
        <!-- Line -->
        <line x1="12.4659" y1="6.3074" x2="17.0959" y2="6.3074" style="stroke:#ff0000;stroke-width:0.0125;"/>
        <!-- Line -->
        <line x1="12.8759" y1="6.5874" x2="14.9259" y2="6.5874" style="stroke:#ff0000;stroke-width:0.0125;"/>
        <!-- Line -->
        <line x1="12.4659" y1="7.5074" x2="12.7559" y2="7.5074" style="stroke:#ff0000;stroke-width:0.0125;"/>
        <!-- Line -->
        <line x1="15.0459" y1="9.7874" x2="15.0459" y2="6.4574" style="stroke:#00ff00;stroke-width:0.0125;"/>
        <!-- Line -->
        <line x1="14.9259" y1="9.7874" x2="14.9259" y2="6.4574" style="stroke:#00ff00;stroke-width:0.0125;"/>
        <!-- Line -->
        <line x1="15.0459" y1="9.7874" x2="14.9259" y2="9.7874" style="stroke:#ff0000;stroke-width:0.0125;"/>
        <!-- Line -->
        <line x1="14.9259" y1="6.4574" x2="15.0459" y2="6.4574" style="stroke:#00ff00;stroke-width:0.0125;"/>
        <!-- Line -->
        <line x1="15.0459" y1="6.5874" x2="17.0959" y2="6.5874" style="stroke:#ff0000;stroke-width:0.0125;"/>
        <!-- Line -->
        <line x1="12.7559" y1="6.4574" x2="12.8759" y2="6.4574" style="stroke:#00ff00;stroke-width:0.0125;"/>
        <!-- Line -->
        <line x1="12.8759" y1="9.7874" x2="12.8759" y2="8.7374" style="stroke:#00ff00;stroke-width:0.0125;"/>
        <!-- Line -->
        <line x1="12.7559" y1="9.7874" x2="12.8759" y2="9.7874" style="stroke:#00ff00;stroke-width:0.0125;"/>
        <!-- Line -->
        <line x1="12.7559" y1="8.7374" x2="12.8759" y2="8.7374" style="stroke:#00ff00;stroke-width:0.0125;"/>
        <!-- Line -->
        <line x1="12.7559" y1="7.6574" x2="12.8759" y2="7.6574" style="stroke:#00ff00;stroke-width:0.0125;"/>
        <!-- Line -->
        <line x1="12.7559" y1="7.6574" x2="12.7559" y2="6.4574" style="stroke:#00ff00;stroke-width:0.0125;"/>
        <!-- Line -->
        <line x1="12.8759" y1="7.6574" x2="12.8759" y2="6.4574" style="stroke:#00ff00;stroke-width:0.0125;"/>
        <!-- Line -->
        <line x1="12.8909" y1="9.7874" x2="14.9109" y2="9.7874" style="stroke:#ff0000;stroke-width:0.0125;"/>
        <!-- Line -->
        <line x1="12.8909" y1="9.7374" x2="14.9109" y2="9.7374" style="stroke:#ff0000;stroke-width:0.0125;"/>
        <!-- Line -->
        <line x1="12.8909" y1="9.7874" x2="12.8909" y2="9.7374" style="stroke:#ff0000;stroke-width:0.0125;"/>
        <!-- Line -->
        <line x1="14.9109" y1="9.7874" x2="14.9109" y2="9.7374" style="stroke:#ff0000;stroke-width:0.0125;"/>
        <!-- Line -->
        <line x1="15.0609" y1="9.7874" x2="15.0609" y2="9.7374" style="stroke:#ff0000;stroke-width:0.0125;"/>
        <!-- Line -->
        <line x1="15.0609" y1="9.7374" x2="17.0809" y2="9.7374" style="stroke:#ff0000;stroke-width:0.0125;"/>
        <!-- Line -->
        <line x1="15.0609" y1="9.7874" x2="17.0809" y2="9.7874" style="stroke:#ff0000;stroke-width:0.0125;"/>
        <!-- Line -->
        <line x1="17.0809" y1="9.7874" x2="17.0809" y2="9.7374" style="stroke:#ff0000;stroke-width:0.0125;"/>
        <!-- Line -->
        <line x1="13.0497" y1="10.3087" x2="14.9109" y2="9.7874" style="stroke:#808080;stroke-width:0.0125;stroke-dasharray:0.0794,0.0397;stroke-dashoffset:0.0258"/>
        <!-- Line -->
        <line x1="12.8909" y1="9.7874" x2="13.0497" y2="10.3087" style="stroke:#808080;stroke-width:0.0125;stroke-dasharray:0.0794,0.0397;stroke-dashoffset:0.0053"/>
        <!-- Line -->
        <line x1="15.0609" y1="9.7874" x2="15.2197" y2="10.3087" style="stroke:#808080;stroke-width:0.0125;stroke-dasharray:0.0794,0.0397;stroke-dashoffset:0.0053"/>
        <!-- Line -->
        <line x1="15.2197" y1="10.3087" x2="17.0809" y2="9.7874" style="stroke:#808080;stroke-width:0.0125;stroke-dasharray:0.0794,0.0397;stroke-dashoffset:0.0258"/>
        <!-- Line -->
        <line x1="17.0959" y1="18.0074" x2="17.2959" y2="18.0074" style="stroke:#00ff00;stroke-width:0.0125;"/>
        <!-- Line -->
        <line x1="17.0959" y1="6.3074" x2="17.2959" y2="6.3074" style="stroke:#00ff00;stroke-width:0.0125;"/>
        <!-- Line -->
        <line x1="17.0959" y1="6.3074" x2="17.0959" y2="4.6074" style="stroke:#ff0000;stroke-width:0.0125;"/>
        <!-- Line -->
        <line x1="17.2959" y1="6.3074" x2="17.2959" y2="4.6074" style="stroke:#ff0000;stroke-width:0.0125;"/>
        <!-- Line -->
        <line x1="17.0959" y1="4.6074" x2="17.2959" y2="4.6074" style="stroke:#ff0000;stroke-width:0.0125;"/>
        <!-- Line -->
        <line x1="17.2959" y1="3.5574" x2="9.7959" y2="3.5574" style="stroke:#ff0000;stroke-width:0.0125;"/>
        <!-- Line -->
        <line x1="9.9159" y1="6.3074" x2="9.9159" y2="3.6774" style="stroke:#ff0000;stroke-width:0.0125;"/>
        <!-- Line -->
        <line x1="17.2959" y1="3.6774" x2="17.2959" y2="3.5574" style="stroke:#ff0000;stroke-width:0.0125;"/>
        <!-- Line -->
        <line x1="17.2959" y1="3.6774" x2="9.9159" y2="3.6774" style="stroke:#ff0000;stroke-width:0.0125;"/>
        <!-- Line -->
        <line x1="17.2959" y1="3.6274" x2="9.8659" y2="3.6274" style="stroke:#ff0000;stroke-width:0.0125;"/>
        <!-- Line -->
        <line x1="9.8659" y1="6.3074" x2="9.8659" y2="3.6274" style="stroke:#ff0000;stroke-width:0.0125;"/>
        <!-- Line -->
        <line x1="10.4459" y1="20.1748" x2="12.8609" y2="18.0074" style="stroke:#808080;stroke-width:0.0125;stroke-dasharray:0.0794,0.0397;stroke-dashoffset:0.0246"/>
        <!-- Line -->
        <line x1="15.2759" y1="20.1748" x2="12.8609" y2="18.0074" style="stroke:#808080;stroke-width:0.0125;stroke-dasharray:0.0794,0.0397;stroke-dashoffset:0.0246"/>
        <!-- Line -->
        <line x1="17.2959" y1="4.6074" x2="17.2959" y2="3.6774" style="stroke:#808080;stroke-width:0.0125;"/>
        <!-- Line -->
        <line x1="17.5459" y1="4.5574" x2="17.5459" y2="3.7274" style="stroke:#808080;stroke-width:0.0125;"/>
        <!-- Line -->
        <line x1="17.7959" y1="4.5574" x2="17.7959" y2="3.7274" style="stroke:#808080;stroke-width:0.0125;"/>
        <!-- Line -->
        <line x1="18.0459" y1="4.5574" x2="18.0459" y2="3.7274" style="stroke:#808080;stroke-width:0.0125;"/>
        <!-- Line -->
        <line x1="18.2959" y1="4.5574" x2="18.2959" y2="3.7274" style="stroke:#808080;stroke-width:0.0125;"/>
        <!-- Line -->
        <line x1="17.2959" y1="4.5574" x2="18.4774" y2="4.5574" style="stroke:#808080;stroke-width:0.0125;"/>
        <!-- Line -->
        <line x1="17.2959" y1="4.6074" x2="18.4774" y2="4.6074" style="stroke:#808080;stroke-width:0.0125;"/>
        <!-- Line -->
        <line x1="17.0837" y1="4.124" x2="18.2959" y2="4.124" style="stroke:#808080;stroke-width:0.0125;"/>
        <!-- Line -->
        <line x1="18.2959" y1="4.124" x2="18.2036" y2="4.2838" style="stroke:#808080;stroke-width:0.0125;"/>
        <!-- Line -->
        <line x1="18.2959" y1="4.124" x2="18.2036" y2="3.9641" style="stroke:#808080;stroke-width:0.0125;"/>
        <!-- Line -->
        <line x1="17.2959" y1="3.6774" x2="18.5349" y2="3.6774" style="stroke:#808080;stroke-width:0.0125;"/>
        <!-- Line -->
        <line x1="17.2959" y1="3.7274" x2="18.5349" y2="3.7274" style="stroke:#808080;stroke-width:0.0125;"/>
        <!-- Line -->
        <line x1="17.2959" y1="4.6074" x2="19.859" y2="4.6074" style="stroke:#ff0000;stroke-width:0.0125;"/>
        <!-- Line -->
        <line x1="17.2959" y1="3.6774" x2="19.5677" y2="3.6774" style="stroke:#ff0000;stroke-width:0.0125;"/>
        <!-- Line -->
        <line x1="19.9176" y1="4.7393" x2="19.637" y2="4.1077" style="stroke:#808080;stroke-width:0.0125;"/>
        <!-- Line -->
        <line x1="19.637" y1="4.1077" x2="19.7452" y2="4.0768" style="stroke:#808080;stroke-width:0.0125;"/>
        <!-- Line -->
        <line x1="19.7452" y1="4.0768" x2="19.4592" y2="3.433" style="stroke:#808080;stroke-width:0.0125;"/>
        <!-- Line -->
        <line x1="11.7559" y1="8.6874" x2="11.7559" y2="8.6374" style="stroke:#808080;stroke-width:0.0125;"/>
        <!-- Line -->
        <line x1="11.7559" y1="8.6874" x2="11.7559" y2="8.6874" style="stroke:#808080;stroke-width:0.0125;"/>
        <!-- Line -->
        <line x1="12.7559" y1="8.6874" x2="12.8759" y2="8.6874" style="stroke:#808080;stroke-width:0.0125;"/>
        <!-- Line -->
        <line x1="12.8759" y1="8.7374" x2="12.8759" y2="8.6874" style="stroke:#808080;stroke-width:0.0125;"/>
        <!-- Line -->
        <line x1="12.7559" y1="8.6874" x2="12.7559" y2="8.7374" style="stroke:#808080;stroke-width:0.0125;"/>
        <!-- Line -->
        <line x1="12.7559" y1="8.6374" x2="12.7559" y2="8.6874" style="stroke:#808080;stroke-width:0.0125;"/>
        <!-- Line -->
        <line x1="12.7559" y1="8.6374" x2="11.7559" y2="8.6374" style="stroke:#808080;stroke-width:0.0125;"/>
        <!-- Line -->
        <line x1="12.7559" y1="8.6874" x2="11.7559" y2="8.6874" style="stroke:#808080;stroke-width:0.0125;"/>
        <!-- Line -->
        <line x1="11.7559" y1="8.6374" x2="12.7559" y2="7.6574" style="stroke:#808080;stroke-width:0.0125;"/>
        <!-- Hatch -->
        <path d="M11.2007,4.8656 L11.2007,5.0005 A0.13488,0.13488 0 0 1 11.0658,4.8656 ZM11.3355,4.8656 L11.2007,4.8656 L11.2007,4.7307 A0.13488,0.13488 0 0 1 11.3355,4.8656" style="fill:#ff00ff;fill-rule:evenodd;"/>
        <!-- Line -->
        <line x1="11.2007" y1="4.6292" x2="11.2007" y2="5.102" style="stroke:#ff00ff;stroke-width:0.0125;"/>
        <!-- Line -->
        <line x1="10.9643" y1="4.8656" x2="11.9486" y2="4.8656" style="stroke:#ff00ff;stroke-width:0.0125;"/>
        <!-- Line -->
        <line x1="11.2007" y1="4.7307" x2="11.2007" y2="5.0005" style="stroke:#ff00ff;stroke-width:0.0125;"/>
        <!-- Line -->
        <line x1="11.0658" y1="4.8656" x2="11.3355" y2="4.8656" style="stroke:#ff00ff;stroke-width:0.0125;"/>
        <!-- Circle -->
        <circle cx="11.2007" cy="4.8656" r="0.1349" style="stroke:#ff00ff;stroke-width:0.0125;"/>
        <!-- Text: +7.60 -->
        <text x="11.3694" dx="0" y="-5.038" dy="0.1252" font-family="Arial" font-size="0.1753" line-height="1.1" fill="#ff00ff" transform="scale(1,-1) rotate(360 11.3694,-5.038)" text-anchor="start">+7.60</text>
        <!-- Text: +8.53 -->
        <text x="18.8923" dx="0" y="-4.3077" dy="0.1252" font-family="Arial" font-size="0.1753" line-height="1.1" fill="#ff00ff" transform="scale(1,-1) rotate(360 18.8923,-4.3077)" text-anchor="start">+8.53</text>
        <!-- Circle -->
        <circle cx="18.7236" cy="4.1353" r="0.1349" style="stroke:#ff00ff;stroke-width:0.0125;"/>
        <!-- Line -->
        <line x1="18.5887" y1="4.1353" x2="18.8585" y2="4.1353" style="stroke:#ff00ff;stroke-width:0.0125;"/>
        <!-- Line -->
        <line x1="18.7236" y1="4.0004" x2="18.7236" y2="4.2702" style="stroke:#ff00ff;stroke-width:0.0125;"/>
        <!-- Line -->
        <line x1="18.4872" y1="4.1353" x2="19.4715" y2="4.1353" style="stroke:#ff00ff;stroke-width:0.0125;"/>
        <!-- Line -->
        <line x1="18.7236" y1="3.8989" x2="18.7236" y2="4.3717" style="stroke:#ff00ff;stroke-width:0.0125;"/>
        <!-- Hatch -->
        <path d="M18.7236,4.1353 L18.7236,4.2702 A0.13488,0.13488 0 0 1 18.5887,4.1353 ZM18.8585,4.1353 L18.7236,4.1353 L18.7236,4.0004 A0.13488,0.13488 0 0 1 18.8585,4.1353" style="fill:#ff00ff;fill-rule:evenodd;"/>
        <!-- Text: +7.60 -->
        <text x="11.3694" dx="0" y="-11.3604" dy="0.1252" font-family="Arial" font-size="0.1753" line-height="1.1" fill="#ff00ff" transform="scale(1,-1) rotate(360 11.3694,-11.3604)" text-anchor="start">+7.60</text>
        <!-- Circle -->
        <circle cx="11.2007" cy="11.1881" r="0.1349" style="stroke:#ff00ff;stroke-width:0.0125;"/>
        <!-- Line -->
        <line x1="11.0658" y1="11.1881" x2="11.3355" y2="11.1881" style="stroke:#ff00ff;stroke-width:0.0125;"/>
        <!-- Line -->
        <line x1="11.2007" y1="11.0532" x2="11.2007" y2="11.323" style="stroke:#ff00ff;stroke-width:0.0125;"/>
        <!-- Line -->
        <line x1="10.9643" y1="11.1881" x2="11.9486" y2="11.1881" style="stroke:#ff00ff;stroke-width:0.0125;"/>
        <!-- Line -->
        <line x1="11.2007" y1="10.9517" x2="11.2007" y2="11.4245" style="stroke:#ff00ff;stroke-width:0.0125;"/>
        <!-- Hatch -->
        <path d="M11.2007,11.1881 L11.2007,11.323 A0.13488,0.13488 0 0 1 11.0658,11.1881 ZM11.3355,11.1881 L11.2007,11.1881 L11.2007,11.0532 A0.13488,0.13488 0 0 1 11.3355,11.1881" style="fill:#ff00ff;fill-rule:evenodd;"/>
        <!-- Hatch -->
        <path d="M13.7239,12.8434 L13.7239,12.9782 A0.13488,0.13488 0 0 1 13.589,12.8434 ZM13.8588,12.8434 L13.7239,12.8434 L13.7239,12.7085 A0.13488,0.13488 0 0 1 13.8588,12.8434" style="fill:#ff00ff;fill-rule:evenodd;"/>
        <!-- Line -->
        <line x1="13.7239" y1="12.607" x2="13.7239" y2="13.0797" style="stroke:#ff00ff;stroke-width:0.0125;"/>
        <!-- Line -->
        <line x1="13.4875" y1="12.8434" x2="14.4718" y2="12.8434" style="stroke:#ff00ff;stroke-width:0.0125;"/>
        <!-- Line -->
        <line x1="13.7239" y1="12.7085" x2="13.7239" y2="12.9782" style="stroke:#ff00ff;stroke-width:0.0125;"/>
        <!-- Line -->
        <line x1="13.589" y1="12.8434" x2="13.8588" y2="12.8434" style="stroke:#ff00ff;stroke-width:0.0125;"/>
        <!-- Circle -->
        <circle cx="13.7239" cy="12.8434" r="0.1349" style="stroke:#ff00ff;stroke-width:0.0125;"/>
        <!-- Text: +6.60 -->
        <text x="13.8926" dx="0" y="-13.0157" dy="0.1252" font-family="Arial" font-size="0.1753" line-height="1.1" fill="#ff00ff" transform="scale(1,-1) rotate(360 13.8926,-13.0157)" text-anchor="start">+6.60</text>
        <!-- Hatch -->
        <g>
            <path d="M17.0959,6.4883 L17.2959,7.2347" style="stroke:#808080;stroke-width:0.0125;"/>
            <path d="M17.0959,7.4697 L17.2959,8.2161" style="stroke:#808080;stroke-width:0.0125;"/>
            <path d="M17.0959,8.4511 L17.2959,9.1975" style="stroke:#808080;stroke-width:0.0125;"/>
            <path d="M17.0959,9.4325 L17.2959,10.1789" style="stroke:#808080;stroke-width:0.0125;"/>
            <path d="M17.0959,10.4138 L17.2959,11.1603" style="stroke:#808080;stroke-width:0.0125;"/>
            <path d="M17.0959,11.3952 L17.2959,12.1416" style="stroke:#808080;stroke-width:0.0125;"/>
            <path d="M15.6625,7.0269 L15.7027,7.1769" style="stroke:#808080;stroke-width:0.0125;"/>
            <path d="M17.0959,12.3766 L17.2959,13.123" style="stroke:#808080;stroke-width:0.0125;"/>
            <path d="M15.3995,7.0269 L15.4397,7.1769" style="stroke:#808080;stroke-width:0.0125;"/>
            <path d="M17.0959,13.358 L17.2959,14.1044" style="stroke:#808080;stroke-width:0.0125;"/>
            <path d="M14.984,6.4574 L15.0459,6.6887" style="stroke:#808080;stroke-width:0.0125;"/>
            <path d="M15.1366,7.0269 L15.1768,7.1769" style="stroke:#808080;stroke-width:0.0125;"/>
            <path d="M17.0959,14.3394 L17.2959,15.0858" style="stroke:#808080;stroke-width:0.0125;"/>
            <path d="M14.8736,7.0269 L14.9138,7.1769" style="stroke:#808080;stroke-width:0.0125;"/>
            <path d="M14.9259,7.2222 L15.0459,7.67" style="stroke:#808080;stroke-width:0.0125;"/>
            <path d="M17.0959,15.3208 L17.2959,16.0672" style="stroke:#808080;stroke-width:0.0125;"/>
            <path d="M14.6106,7.0269 L14.6508,7.1769" style="stroke:#808080;stroke-width:0.0125;"/>
            <path d="M14.9259,8.2036 L15.0459,8.6514" style="stroke:#808080;stroke-width:0.0125;"/>
            <path d="M17.0959,16.3021 L17.2959,17.0485" style="stroke:#808080;stroke-width:0.0125;"/>
            <path d="M14.3477,7.0269 L14.3879,7.1769" style="stroke:#808080;stroke-width:0.0125;"/>
            <path d="M14.9259,9.185 L15.0459,9.6328" style="stroke:#808080;stroke-width:0.0125;"/>
            <path d="M17.0959,17.2835 L17.2899,18.0074" style="stroke:#808080;stroke-width:0.0125;"/>
            <path d="M14.0847,7.0269 L14.1249,7.1769" style="stroke:#808080;stroke-width:0.0125;"/>
            <path d="M12.7559,6.9747 L12.8759,7.4225" style="stroke:#808080;stroke-width:0.0125;"/>
            <path d="M12.7559,8.9375 L12.8759,9.3853" style="stroke:#808080;stroke-width:0.0125;"/>
            <path d="M9.9877,6.4574 L10.0681,6.7574" style="stroke:#808080;stroke-width:0.0125;"/>
            <path d="M10.2305,10.3074 L10.2459,10.3652" style="stroke:#808080;stroke-width:0.0125;"/>
            <path d="M9.9675,10.3074 L10.0479,10.6074" style="stroke:#808080;stroke-width:0.0125;"/>
            <path d="M10.0694,17.5574 L10.1498,17.8574" style="stroke:#808080;stroke-width:0.0125;"/>
        </g>
        <!-- Line -->
        <line x1="10.3259" y1="7.3074" x2="12.4659" y2="7.3074" style="stroke:#808080;stroke-width:0.0125;"/>
        <!-- Line -->
        <line x1="10.3259" y1="6.5074" x2="12.4659" y2="6.5074" style="stroke:#808080;stroke-width:0.0125;"/>
        <!-- Hatch -->
        <!-- Text: CARPINERIA -->
        <text x="11.9999" dx="0" y="-6.9978" dy="0.1" font-family="Arial" font-size="0.14" line-height="1.1" fill="#ff00ff" transform="scale(1,-1) rotate(360 11.9999,-6.9978)" text-anchor="end">CARPINERIA</text>
        <!-- Text: +8.72 -->
        <text x="17.3495" dx="0" y="-5.6823" dy="0.1252" font-family="Arial" font-size="0.1753" line-height="1.1" fill="#ff00ff" transform="scale(1,-1) rotate(360 17.3495,-5.6823)" text-anchor="start">+8.72</text>
        <!-- Line -->
        <line x1="16.9444" y1="5.5099" x2="17.9287" y2="5.5099" style="stroke:#ff00ff;stroke-width:0.0125;"/>
        <!-- Line -->
        <line x1="17.0459" y1="5.5099" x2="17.3157" y2="5.5099" style="stroke:#ff00ff;stroke-width:0.0125;"/>
        <!-- Hatch -->
        <path d="M17.1808,5.5099 L17.1808,5.6448 A0.13488,0.13488 0 0 1 17.0459,5.5099 ZM17.3157,5.5099 L17.1808,5.5099 L17.1808,5.375 A0.13488,0.13488 0 0 1 17.3157,5.5099" style="fill:#ff00ff;fill-rule:evenodd;"/>
        <!-- Line -->
        <line x1="17.1808" y1="5.2735" x2="17.1808" y2="5.7463" style="stroke:#ff00ff;stroke-width:0.0125;"/>
        <!-- Line -->
        <line x1="17.1808" y1="5.375" x2="17.1808" y2="5.6448" style="stroke:#ff00ff;stroke-width:0.0125;"/>
        <!-- Circle -->
        <circle cx="17.1808" cy="5.5099" r="0.1349" style="stroke:#ff00ff;stroke-width:0.0125;"/>
        <!-- Text: F -->
        <text x="19.9119" dx="0" y="-19.2124" dy="0.2" font-family="Arial" font-size="0.28" line-height="1.1" fill="#ff00ff" transform="scale(1,-1) rotate(360 19.9119,-19.2124)" text-anchor="end">F</text>
        <!-- Circle -->
        <circle cx="19.8386" cy="19.1074" r="0.2731" style="stroke:#ff00ff;stroke-width:0.0125;"/>
        <!-- Line -->
        <line x1="19.5655" y1="19.1074" x2="6.0558" y2="19.1074" style="stroke:#808080;stroke-width:0.0125;stroke-dasharray:0.2381,0.0397,0.0397,0.0397;stroke-dashoffset:0.1508"/>
        <!-- Text: HORNO TRATAMIENTO 5 (Sala de transformadores Planta Alta) -->
        <text x="27.0833" dx="0" y="-24.9629" dy="0.5" font-family="Arial" font-size="0.7" line-height="1.1" fill="#ff00ff" transform="scale(1,-1) rotate(360 27.0833,-24.9629)" text-anchor="end">HORNO TRATAMIENTO 5 (Sala de transformadores Planta Alta)</text>
        <!-- Text: 6 -->
        <text x="8.1664" dx="0" y="-21.9124" dy="0.2" font-family="Arial" font-size="0.28" line-height="1.1" fill="#ff00ff" transform="scale(1,-1) rotate(360 8.1664,-21.9124)" text-anchor="end">6</text>
        <!-- Circle -->
        <circle cx="8.0959" cy="21.7998" r="0.2731" style="stroke:#ff00ff;stroke-width:0.0125;"/>
        <!-- Line -->
        <line x1="8.0959" y1="21.5267" x2="8.0959" y2="0.5462" style="stroke:#808080;stroke-width:0.0125;stroke-dasharray:0.2381,0.0397,0.0397,0.0397;stroke-dashoffset:0.1659"/>
        <!-- Text: 7 -->
        <text x="15.4464" dx="0" y="-21.9022" dy="0.2" font-family="Arial" font-size="0.28" line-height="1.1" fill="#ff00ff" transform="scale(1,-1) rotate(360 15.4464,-21.9022)" text-anchor="end">7</text>
        <!-- Circle -->
        <circle cx="15.3759" cy="21.7998" r="0.2731" style="stroke:#ff00ff;stroke-width:0.0125;"/>
        <!-- Line -->
        <line x1="15.3759" y1="21.5267" x2="15.3759" y2="0.5462" style="stroke:#808080;stroke-width:0.0125;stroke-dasharray:0.2381,0.0397,0.0397,0.0397;stroke-dashoffset:0.1659"/>
        <!-- Text: F -->
        <text x="5.856" dx="0" y="-19.2124" dy="0.2" font-family="Arial" font-size="0.28" line-height="1.1" fill="#ff00ff" transform="scale(1,-1) rotate(360 5.856,-19.2124)" text-anchor="end">F</text>
        <!-- Circle -->
        <circle cx="5.7827" cy="19.1074" r="0.2731" style="stroke:#ff00ff;stroke-width:0.0125;"/>
        <!-- Circle -->
        <circle cx="19.8386" cy="1.6074" r="0.2731" style="stroke:#ff00ff;stroke-width:0.0125;"/>
        <!-- Text: G -->
        <text x="19.9119" dx="0" y="-1.7226" dy="0.2" font-family="Arial" font-size="0.28" line-height="1.1" fill="#ff00ff" transform="scale(1,-1) rotate(360 19.9119,-1.7226)" text-anchor="end">G</text>
        <!-- Circle -->
        <circle cx="5.7827" cy="1.6074" r="0.2731" style="stroke:#ff00ff;stroke-width:0.0125;"/>
        <!-- Text: G -->
        <text x="5.8379" dx="0" y="-1.7226" dy="0.2" font-family="Arial" font-size="0.28" line-height="1.1" fill="#ff00ff" transform="scale(1,-1) rotate(360 5.8379,-1.7226)" text-anchor="end">G</text>
        <!-- Line -->
        <line x1="19.5655" y1="1.6074" x2="6.0558" y2="1.6074" style="stroke:#808080;stroke-width:0.0125;stroke-dasharray:0.2381,0.0397,0.0397,0.0397;stroke-dashoffset:0.1508"/>
        <!-- Circle -->
        <circle cx="8.0959" cy="0.2731" r="0.2731" style="stroke:#ff00ff;stroke-width:0.0125;"/>
        <!-- Text: 6 -->
        <text x="8.1664" dx="0" y="-0.3857" dy="0.2" font-family="Arial" font-size="0.28" line-height="1.1" fill="#ff00ff" transform="scale(1,-1) rotate(360 8.1664,-0.3857)" text-anchor="end">6</text>
        <!-- Text: 7 -->
        <text x="15.4275" dx="0" y="-0.3755" dy="0.2" font-family="Arial" font-size="0.28" line-height="1.1" fill="#ff00ff" transform="scale(1,-1) rotate(360 15.4275,-0.3755)" text-anchor="end">7</text>
        <!-- Circle -->
        <circle cx="15.3759" cy="0.2731" r="0.2731" style="stroke:#ff00ff;stroke-width:0.0125;"/>
        <!-- Text: INTERRUPTORES 33 KV -->
        <text x="17.004" dx="0" y="-8.202" dy="0.1" font-family="Arial" font-size="0.14" line-height="1.1" fill="#ff00ff" transform="scale(1,-1) rotate(360 17.004,-8.202)" text-anchor="end">INTERRUPTORES 33 KV</text>
    </g>
</svg>
