<?xml version="1.0" encoding="UTF-8"?>
<!-- 2020-09-03 18:29:04 Generated by QCAD 3.24.3 SVG Exporter PG -->
<svg width="462.1049mm" height="211.0151mm" viewBox="98.334 -59.4647 23.1052 10.5508" version="1.1" xmlns="http://www.w3.org/2000/svg" style="stroke-linecap:round;stroke-linejoin:round;fill:none">
    <g transform="scale(1,-1)">
        <!-- Line -->
        <line x1="119.4419" y1="59.0147" x2="119.4419" y2="55.1147" style="stroke:#333333;stroke-width:0.0125;"/>
        <!-- Line -->
        <line x1="117.1419" y1="59.0147" x2="117.1419" y2="55.1147" style="stroke:#333333;stroke-width:0.0125;"/>
        <!-- Line -->
        <line x1="117.1419" y1="55.1147" x2="117.8919" y2="55.1147" style="stroke:#333333;stroke-width:0.0125;"/>
        <!-- Line -->
        <line x1="118.6919" y1="55.1147" x2="118.6919" y2="54.9647" style="stroke:#333333;stroke-width:0.0125;"/>
        <!-- Line -->
        <line x1="117.8919" y1="55.1147" x2="117.8919" y2="54.9647" style="stroke:#333333;stroke-width:0.0125;"/>
        <!-- Line -->
        <line x1="118.6919" y1="55.1147" x2="119.4419" y2="55.1147" style="stroke:#333333;stroke-width:0.0125;"/>
        <!-- Line -->
        <line x1="117.1419" y1="59.0147" x2="119.4419" y2="59.0147" style="stroke:#333333;stroke-width:0.0125;"/>
        <!-- Line -->
        <line x1="116.9919" y1="59.1647" x2="119.5919" y2="59.1647" style="stroke:#333333;stroke-width:0.0125;"/>
        <!-- Line -->
        <line x1="116.9919" y1="59.1647" x2="116.9919" y2="54.9847" style="stroke:#333333;stroke-width:0.0125;"/>
        <!-- Line -->
        <line x1="119.5919" y1="59.1647" x2="119.5919" y2="54.9647" style="stroke:#333333;stroke-width:0.0125;"/>
        <!-- Line -->
        <line x1="118.6919" y1="54.9647" x2="119.5919" y2="54.9647" style="stroke:#333333;stroke-width:0.0125;"/>
        <!-- Line -->
        <line x1="117.1419" y1="54.9647" x2="117.8919" y2="54.9647" style="stroke:#333333;stroke-width:0.0125;"/>
        <!-- Line -->
        <line x1="104.0819" y1="55.0947" x2="110.5019" y2="55.0947" style="stroke:#333333;stroke-width:0.0125;"/>
        <!-- Line -->
        <line x1="110.5019" y1="55.0947" x2="110.5019" y2="53.7047" style="stroke:#333333;stroke-width:0.0125;"/>
        <!-- Line -->
        <line x1="104.0819" y1="55.0947" x2="104.0819" y2="53.0947" style="stroke:#333333;stroke-width:0.0125;"/>
        <!-- Line -->
        <line x1="102.6619" y1="53.0947" x2="104.0819" y2="53.0947" style="stroke:#333333;stroke-width:0.0125;"/>
        <!-- Line -->
        <line x1="103.9319" y1="55.0947" x2="103.9319" y2="53.2447" style="stroke:#333333;stroke-width:0.0125;"/>
        <!-- Line -->
        <line x1="102.6619" y1="53.2447" x2="103.9319" y2="53.2447" style="stroke:#333333;stroke-width:0.0125;"/>
        <!-- Line -->
        <line x1="103.4619" y1="51.2447" x2="104.0819" y2="51.2447" style="stroke:#333333;stroke-width:0.0125;"/>
        <!-- Line -->
        <line x1="103.3119" y1="51.0947" x2="104.0819" y2="51.0947" style="stroke:#333333;stroke-width:0.0125;"/>
        <!-- Line -->
        <line x1="102.6619" y1="53.0947" x2="102.6619" y2="52.9897" style="stroke:#333333;stroke-width:0.0125;"/>
        <!-- Line -->
        <line x1="102.5119" y1="55.2447" x2="102.5119" y2="53.2447" style="stroke:#333333;stroke-width:0.0125;"/>
        <!-- Line -->
        <line x1="103.4619" y1="52.0847" x2="103.4619" y2="51.2447" style="stroke:#333333;stroke-width:0.0125;"/>
        <!-- Line -->
        <line x1="103.3119" y1="51.9347" x2="103.3119" y2="51.0947" style="stroke:#333333;stroke-width:0.0125;"/>
        <!-- Line -->
        <line x1="102.6619" y1="52.0847" x2="103.4619" y2="52.0847" style="stroke:#333333;stroke-width:0.0125;"/>
        <!-- Line -->
        <line x1="102.5119" y1="51.9347" x2="103.3119" y2="51.9347" style="stroke:#333333;stroke-width:0.0125;"/>
        <!-- Line -->
        <line x1="103.4619" y1="52.0847" x2="103.4619" y2="53.0947" style="stroke:#000000;stroke-width:0.0125;"/>
        <!-- Line -->
        <line x1="103.2119" y1="52.0847" x2="103.2119" y2="53.0947" style="stroke:#000000;stroke-width:0.0125;"/>
        <!-- Line -->
        <line x1="102.9619" y1="52.0847" x2="102.9619" y2="53.0947" style="stroke:#000000;stroke-width:0.0125;"/>
        <!-- Line -->
        <line x1="103.7119" y1="52.0847" x2="103.7119" y2="53.0947" style="stroke:#000000;stroke-width:0.0125;"/>
        <!-- Line -->
        <line x1="103.4619" y1="52.0847" x2="103.7119" y2="52.0847" style="stroke:#808080;stroke-width:0.0125;"/>
        <!-- Line -->
        <line x1="104.0819" y1="51.2447" x2="104.0819" y2="51.0947" style="stroke:#333333;stroke-width:0.0125;"/>
        <!-- Line -->
        <line x1="104.0819" y1="51.0947" x2="110.4019" y2="51.0947" style="stroke:#808080;stroke-width:0.0125;"/>
        <!-- Point -->
        <!-- Point -->
        <!-- Line -->
        <line x1="106.1885" y1="51.2447" x2="106.1885" y2="51.0947" style="stroke:#808080;stroke-width:0.0125;"/>
        <!-- Line -->
        <line x1="108.2952" y1="51.2447" x2="108.2952" y2="51.0947" style="stroke:#808080;stroke-width:0.0125;"/>
        <!-- Line -->
        <line x1="104.0819" y1="51.2447" x2="110.4019" y2="51.2447" style="stroke:#808080;stroke-width:0.0125;"/>
        <!-- Line -->
        <line x1="104.0819" y1="51.1697" x2="110.4019" y2="51.1697" style="stroke:#808080;stroke-width:0.0125;"/>
        <!-- Line -->
        <line x1="102.6619" y1="52.9897" x2="102.5119" y2="52.9897" style="stroke:#333333;stroke-width:0.0125;"/>
        <!-- Line -->
        <line x1="102.6619" y1="52.1897" x2="102.5119" y2="52.1897" style="stroke:#333333;stroke-width:0.0125;"/>
        <!-- Line -->
        <line x1="102.6619" y1="52.1897" x2="102.6619" y2="52.0847" style="stroke:#333333;stroke-width:0.0125;"/>
        <!-- Line -->
        <line x1="102.5119" y1="51.9347" x2="102.5119" y2="52.1897" style="stroke:#333333;stroke-width:0.0125;"/>
        <!-- Line -->
        <line x1="102.6619" y1="52.9647" x2="102.5119" y2="52.9647" style="stroke:#808080;stroke-width:0.0125;"/>
        <!-- Line -->
        <line x1="102.6619" y1="52.2147" x2="102.5119" y2="52.2147" style="stroke:#808080;stroke-width:0.0125;"/>
        <!-- Line -->
        <line x1="102.5119" y1="52.9897" x2="102.5119" y2="52.9647" style="stroke:#808080;stroke-width:0.0125;"/>
        <!-- Line -->
        <line x1="102.6619" y1="52.9897" x2="102.6619" y2="52.9647" style="stroke:#808080;stroke-width:0.0125;"/>
        <!-- Line -->
        <line x1="102.6619" y1="52.1897" x2="102.6619" y2="52.2147" style="stroke:#808080;stroke-width:0.0125;"/>
        <!-- Line -->
        <line x1="102.5119" y1="52.1897" x2="102.5119" y2="52.2147" style="stroke:#808080;stroke-width:0.0125;"/>
        <!-- Line -->
        <line x1="101.1919" y1="56.1747" x2="101.1919" y2="52.9947" style="stroke:#333333;stroke-width:0.0125;"/>
        <!-- Line -->
        <line x1="101.0419" y1="56.3247" x2="101.0419" y2="52.9947" style="stroke:#333333;stroke-width:0.0125;"/>
        <!-- Line -->
        <line x1="110.8019" y1="55.2447" x2="102.5119" y2="55.2447" style="stroke:#333333;stroke-width:0.0125;"/>
        <!-- Line -->
        <line x1="102.6619" y1="53.2447" x2="102.6619" y2="55.0947" style="stroke:#333333;stroke-width:0.0125;"/>
        <!-- Line -->
        <line x1="103.9319" y1="55.0947" x2="102.6619" y2="55.0947" style="stroke:#333333;stroke-width:0.0125;"/>
        <!-- Line -->
        <line x1="101.0419" y1="52.9947" x2="101.1919" y2="52.9947" style="stroke:#333333;stroke-width:0.0125;"/>
        <!-- Line -->
        <line x1="116.9919" y1="52.9947" x2="117.1419" y2="52.9947" style="stroke:#333333;stroke-width:0.0125;"/>
        <!-- Line -->
        <line x1="117.1419" y1="51.7447" x2="119.8715" y2="51.7447" style="stroke:#333333;stroke-width:0.0125;"/>
        <!-- Line -->
        <line x1="117.1419" y1="54.9647" x2="117.1419" y2="53.9447" style="stroke:#333333;stroke-width:0.0125;"/>
        <!-- Line -->
        <line x1="116.9919" y1="51.5947" x2="119.7766" y2="51.5947" style="stroke:#333333;stroke-width:0.0125;"/>
        <!-- Line -->
        <line x1="116.9919" y1="52.9947" x2="116.9919" y2="52.8347" style="stroke:#333333;stroke-width:0.0125;"/>
        <!-- Line -->
        <line x1="117.1419" y1="52.9947" x2="117.1419" y2="51.7447" style="stroke:#333333;stroke-width:0.0125;"/>
        <!-- Line -->
        <line x1="116.9919" y1="53.9447" x2="116.9919" y2="53.9047" style="stroke:#808080;stroke-width:0.0125;"/>
        <!-- Line -->
        <line x1="116.9919" y1="53.9047" x2="117.1419" y2="53.9047" style="stroke:#808080;stroke-width:0.0125;"/>
        <!-- Line -->
        <line x1="116.9919" y1="53.0347" x2="117.1419" y2="53.0347" style="stroke:#808080;stroke-width:0.0125;"/>
        <!-- Line -->
        <line x1="117.1419" y1="53.9447" x2="117.1419" y2="53.9047" style="stroke:#808080;stroke-width:0.0125;"/>
        <!-- Line -->
        <line x1="117.1419" y1="53.0347" x2="117.1419" y2="52.9947" style="stroke:#808080;stroke-width:0.0125;"/>
        <!-- Line -->
        <line x1="116.9919" y1="53.0347" x2="116.9919" y2="52.9947" style="stroke:#808080;stroke-width:0.0125;"/>
        <!-- Line -->
        <line x1="116.9919" y1="53.9447" x2="117.1419" y2="53.9447" style="stroke:#333333;stroke-width:0.0125;"/>
        <!-- Line -->
        <line x1="117.1419" y1="53.9047" x2="118.0119" y2="53.9047" style="stroke:#808080;stroke-width:0.0125;"/>
        <!-- Line -->
        <line x1="117.1419" y1="53.8547" x2="118.0119" y2="53.8547" style="stroke:#808080;stroke-width:0.0125;"/>
        <!-- Line -->
        <line x1="117.1419" y1="53.9047" x2="117.1419" y2="53.8547" style="stroke:#808080;stroke-width:0.0125;"/>
        <!-- Line -->
        <line x1="118.0119" y1="53.9047" x2="118.0119" y2="53.8547" style="stroke:#808080;stroke-width:0.0125;"/>
        <!-- Line -->
        <line x1="117.1419" y1="53.0347" x2="118.0119" y2="53.8547" style="stroke:#808080;stroke-width:0.0125;"/>
        <!-- Line -->
        <line x1="117.9169" y1="55.1147" x2="117.9169" y2="54.9647" style="stroke:#808080;stroke-width:0.0125;"/>
        <!-- Line -->
        <line x1="118.6669" y1="55.1147" x2="118.6669" y2="54.9647" style="stroke:#808080;stroke-width:0.0125;"/>
        <!-- Line -->
        <line x1="117.8919" y1="55.1147" x2="117.9169" y2="55.1147" style="stroke:#808080;stroke-width:0.0125;"/>
        <!-- Line -->
        <line x1="118.6669" y1="55.1147" x2="118.6919" y2="55.1147" style="stroke:#808080;stroke-width:0.0125;"/>
        <!-- Line -->
        <line x1="118.6919" y1="54.9647" x2="118.6669" y2="54.9647" style="stroke:#808080;stroke-width:0.0125;"/>
        <!-- Line -->
        <line x1="117.8919" y1="54.9647" x2="117.9169" y2="54.9647" style="stroke:#808080;stroke-width:0.0125;"/>
        <!-- Line -->
        <line x1="118.6669" y1="54.9647" x2="118.6669" y2="54.2147" style="stroke:#808080;stroke-width:0.0125;"/>
        <!-- Line -->
        <line x1="118.6169" y1="54.9647" x2="118.6169" y2="54.2147" style="stroke:#808080;stroke-width:0.0125;"/>
        <!-- Line -->
        <line x1="118.6669" y1="54.9647" x2="118.6169" y2="54.9647" style="stroke:#808080;stroke-width:0.0125;"/>
        <!-- Line -->
        <line x1="118.6669" y1="54.2147" x2="118.6169" y2="54.2147" style="stroke:#808080;stroke-width:0.0125;"/>
        <!-- Line -->
        <line x1="118.6169" y1="54.2147" x2="117.9169" y2="54.9647" style="stroke:#808080;stroke-width:0.0125;"/>
        <!-- Line -->
        <line x1="119.9867" y1="52.2091" x2="119.72" y2="51.8095" style="stroke:#808080;stroke-width:0.0125;"/>
        <!-- Line -->
        <line x1="119.72" y1="51.8095" x2="119.8756" y2="51.7429" style="stroke:#808080;stroke-width:0.0125;"/>
        <!-- Line -->
        <line x1="119.8756" y1="51.7429" x2="119.6089" y2="51.3433" style="stroke:#808080;stroke-width:0.0125;"/>
        <!-- Line -->
        <line x1="116.9919" y1="52.8347" x2="116.8704" y2="52.8347" style="stroke:#333333;stroke-width:0.0125;"/>
        <!-- Line -->
        <line x1="116.9919" y1="52.6847" x2="116.8704" y2="52.6847" style="stroke:#333333;stroke-width:0.0125;"/>
        <!-- Line -->
        <line x1="116.9919" y1="52.6847" x2="116.9919" y2="51.5947" style="stroke:#333333;stroke-width:0.0125;"/>
        <!-- Line -->
        <line x1="116.9919" y1="54.8347" x2="115.4519" y2="54.8347" style="stroke:#333333;stroke-width:0.0125;"/>
        <!-- Line -->
        <line x1="116.9919" y1="54.9847" x2="112.3119" y2="54.9847" style="stroke:#333333;stroke-width:0.0125;"/>
        <!-- Line -->
        <line x1="116.9919" y1="54.8347" x2="116.9919" y2="53.9447" style="stroke:#333333;stroke-width:0.0125;"/>
        <!-- Line -->
        <line x1="115.4519" y1="54.8347" x2="115.4519" y2="54.4347" style="stroke:#333333;stroke-width:0.0125;"/>
        <!-- Line -->
        <line x1="115.0019" y1="54.8347" x2="115.0019" y2="54.4347" style="stroke:#333333;stroke-width:0.0125;"/>
        <!-- Line -->
        <line x1="115.4519" y1="54.4347" x2="115.0019" y2="54.4347" style="stroke:#333333;stroke-width:0.0125;"/>
        <!-- Line -->
        <line x1="115.0019" y1="54.8347" x2="112.1619" y2="54.8347" style="stroke:#333333;stroke-width:0.0125;"/>
        <!-- Line -->
        <line x1="110.6519" y1="51.0947" x2="110.6519" y2="52.9047" style="stroke:#333333;stroke-width:0.0125;"/>
        <!-- Line -->
        <line x1="112.1619" y1="54.8347" x2="112.1619" y2="56.1747" style="stroke:#333333;stroke-width:0.0125;"/>
        <!-- Line -->
        <line x1="112.1619" y1="56.1747" x2="101.1919" y2="56.1747" style="stroke:#333333;stroke-width:0.0125;"/>
        <!-- Line -->
        <line x1="112.3119" y1="56.3247" x2="101.0419" y2="56.3247" style="stroke:#333333;stroke-width:0.0125;"/>
        <!-- Line -->
        <line x1="110.8019" y1="55.0147" x2="110.6519" y2="55.0147" style="stroke:#333333;stroke-width:0.0125;"/>
        <!-- Line -->
        <line x1="110.8019" y1="55.0147" x2="110.8019" y2="55.2447" style="stroke:#333333;stroke-width:0.0125;"/>
        <!-- Line -->
        <line x1="110.4019" y1="51.2447" x2="110.4019" y2="51.0947" style="stroke:#333333;stroke-width:0.0125;"/>
        <!-- Line -->
        <line x1="110.4019" y1="51.2447" x2="110.5019" y2="51.2447" style="stroke:#333333;stroke-width:0.0125;"/>
        <!-- Line -->
        <line x1="110.4019" y1="51.0947" x2="110.6519" y2="51.0947" style="stroke:#333333;stroke-width:0.0125;"/>
        <!-- Line -->
        <line x1="110.6519" y1="52.8347" x2="110.6519" y2="52.9047" style="stroke:#333333;stroke-width:0.0125;"/>
        <!-- Line -->
        <line x1="112.0019" y1="53.7747" x2="110.6519" y2="53.7747" style="stroke:#000000;stroke-width:0.0125;"/>
        <!-- Line -->
        <line x1="111.2519" y1="52.8347" x2="111.2519" y2="53.7747" style="stroke:#000000;stroke-width:0.0125;"/>
        <!-- Line -->
        <line x1="110.6519" y1="52.8347" x2="110.6519" y2="52.9047" style="stroke:#333333;stroke-width:0.0125;"/>
        <!-- Line -->
        <line x1="111.5019" y1="52.8347" x2="111.5019" y2="53.7747" style="stroke:#000000;stroke-width:0.0125;"/>
        <!-- Line -->
        <line x1="111.7519" y1="52.8347" x2="111.7519" y2="53.7747" style="stroke:#000000;stroke-width:0.0125;"/>
        <!-- Line -->
        <line x1="112.0019" y1="52.8347" x2="112.0019" y2="53.7747" style="stroke:#000000;stroke-width:0.0125;"/>
        <!-- Line -->
        <line x1="110.6519" y1="53.7047" x2="110.5019" y2="53.7047" style="stroke:#333333;stroke-width:0.0125;"/>
        <!-- Line -->
        <line x1="110.6519" y1="52.9047" x2="110.5019" y2="52.9047" style="stroke:#333333;stroke-width:0.0125;"/>
        <!-- Line -->
        <line x1="110.5019" y1="52.9047" x2="110.5019" y2="51.2447" style="stroke:#333333;stroke-width:0.0125;"/>
        <!-- Line -->
        <line x1="110.6519" y1="53.6797" x2="110.5019" y2="53.6797" style="stroke:#808080;stroke-width:0.0125;"/>
        <!-- Line -->
        <line x1="110.6519" y1="52.9297" x2="110.5019" y2="52.9297" style="stroke:#808080;stroke-width:0.0125;"/>
        <!-- Line -->
        <line x1="110.5019" y1="53.7047" x2="110.5019" y2="53.6797" style="stroke:#808080;stroke-width:0.0125;"/>
        <!-- Line -->
        <line x1="110.6519" y1="53.7047" x2="110.6519" y2="53.6797" style="stroke:#808080;stroke-width:0.0125;"/>
        <!-- Line -->
        <line x1="110.5019" y1="52.9297" x2="110.5019" y2="52.9047" style="stroke:#808080;stroke-width:0.0125;"/>
        <!-- Line -->
        <line x1="110.6519" y1="52.9297" x2="110.6519" y2="52.9047" style="stroke:#808080;stroke-width:0.0125;"/>
        <!-- Line -->
        <line x1="110.6519" y1="52.9297" x2="111.4519" y2="52.9297" style="stroke:#808080;stroke-width:0.0125;"/>
        <!-- Line -->
        <line x1="110.6519" y1="52.9797" x2="111.4519" y2="52.9797" style="stroke:#808080;stroke-width:0.0125;"/>
        <!-- Line -->
        <line x1="111.4519" y1="52.9297" x2="111.4519" y2="52.9797" style="stroke:#808080;stroke-width:0.0125;"/>
        <!-- Line -->
        <line x1="110.6519" y1="52.9297" x2="110.6519" y2="52.9797" style="stroke:#808080;stroke-width:0.0125;"/>
        <!-- Line -->
        <line x1="111.4519" y1="52.9797" x2="110.6519" y2="53.6797" style="stroke:#000000;stroke-width:0.0125;"/>
        <!-- Text: SALA DE CONTROL -->
        <text x="107.7982" dx="0" y="-52.2954" dy="0.1" font-family="arial" font-size="0.14" line-height="1.1" fill="#333333" transform="scale(1,-1) rotate(360 107.7982,-52.2954)" text-anchor="end">SALA DE CONTROL</text>
        <!-- Text: SALA ELECTRICA -->
        <text x="119.0158" dx="0" y="-58.109" dy="0.1" font-family="arial" font-size="0.14" line-height="1.1" fill="#333333" transform="scale(1,-1) rotate(360 119.0158,-58.109)" text-anchor="end">SALA ELECTRICA</text>
        <!-- Line -->
        <line x1="116.8704" y1="52.8347" x2="116.8704" y2="52.6847" style="stroke:#333333;stroke-width:0.0125;"/>
        <!-- Line -->
        <line x1="115.2504" y1="52.8347" x2="115.2504" y2="52.6847" style="stroke:#333333;stroke-width:0.0125;"/>
        <!-- Line -->
        <line x1="115.0504" y1="52.8347" x2="115.0504" y2="52.6847" style="stroke:#333333;stroke-width:0.0125;"/>
        <!-- Line -->
        <line x1="113.0004" y1="52.8347" x2="113.0004" y2="52.6847" style="stroke:#333333;stroke-width:0.0125;"/>
        <!-- Line -->
        <line x1="113.0004" y1="52.6847" x2="110.6519" y2="52.6847" style="stroke:#333333;stroke-width:0.0125;"/>
        <!-- Line -->
        <line x1="113.0004" y1="52.8347" x2="110.6519" y2="52.8347" style="stroke:#333333;stroke-width:0.0125;"/>
        <!-- Line -->
        <line x1="115.2504" y1="52.8347" x2="115.0504" y2="52.8347" style="stroke:#333333;stroke-width:0.0125;"/>
        <!-- Line -->
        <line x1="115.2504" y1="52.6847" x2="115.0504" y2="52.6847" style="stroke:#333333;stroke-width:0.0125;"/>
        <!-- Line -->
        <line x1="113.0004" y1="52.7597" x2="115.0504" y2="52.7597" style="stroke:#808080;stroke-width:0.0125;"/>
        <!-- Line -->
        <line x1="115.2504" y1="52.7597" x2="116.8704" y2="52.7597" style="stroke:#808080;stroke-width:0.0125;"/>
        <!-- Line -->
        <line x1="113.0004" y1="52.8097" x2="115.0504" y2="52.8097" style="stroke:#808080;stroke-width:0.0125;"/>
        <!-- Line -->
        <line x1="113.0004" y1="52.7097" x2="115.0504" y2="52.7097" style="stroke:#808080;stroke-width:0.0125;"/>
        <!-- Line -->
        <line x1="115.2504" y1="52.8097" x2="116.8704" y2="52.8097" style="stroke:#808080;stroke-width:0.0125;"/>
        <!-- Line -->
        <line x1="115.2504" y1="52.7597" x2="116.8704" y2="52.7597" style="stroke:#808080;stroke-width:0.0125;"/>
        <!-- Line -->
        <line x1="115.2504" y1="52.7097" x2="116.8704" y2="52.7097" style="stroke:#808080;stroke-width:0.0125;"/>
        <!-- Line -->
        <line x1="103.0033" y1="53.3822" x2="103.6033" y2="53.3822" style="stroke:#808080;stroke-width:0.0125;"/>
        <!-- Line -->
        <line x1="103.0033" y1="53.4072" x2="103.6033" y2="53.4072" style="stroke:#808080;stroke-width:0.0125;"/>
        <!-- Line -->
        <line x1="102.9783" y1="53.5447" x2="103.0033" y2="53.5447" style="stroke:#808080;stroke-width:0.0125;"/>
        <!-- Line -->
        <line x1="103.0033" y1="53.5447" x2="103.0033" y2="53.4072" style="stroke:#808080;stroke-width:0.0125;"/>
        <!-- Line -->
        <line x1="102.9783" y1="53.2447" x2="103.0033" y2="53.2447" style="stroke:#808080;stroke-width:0.0125;"/>
        <!-- Line -->
        <line x1="103.0033" y1="53.3822" x2="103.0033" y2="53.2447" style="stroke:#808080;stroke-width:0.0125;"/>
        <!-- Line -->
        <line x1="102.9783" y1="53.5447" x2="102.9783" y2="53.2447" style="stroke:#808080;stroke-width:0.0125;"/>
        <!-- Line -->
        <line x1="103.6033" y1="53.5447" x2="103.6033" y2="53.4072" style="stroke:#808080;stroke-width:0.0125;"/>
        <!-- Line -->
        <line x1="103.6033" y1="53.5447" x2="103.6283" y2="53.5447" style="stroke:#808080;stroke-width:0.0125;"/>
        <!-- Line -->
        <line x1="103.6283" y1="53.2447" x2="103.6033" y2="53.2447" style="stroke:#808080;stroke-width:0.0125;"/>
        <!-- Line -->
        <line x1="103.6283" y1="53.5447" x2="103.6283" y2="53.2447" style="stroke:#808080;stroke-width:0.0125;"/>
        <!-- Line -->
        <line x1="103.6033" y1="53.3822" x2="103.6033" y2="53.2447" style="stroke:#808080;stroke-width:0.0125;"/>
        <!-- Line -->
        <line x1="102.9969" y1="54.9572" x2="103.5969" y2="54.9572" style="stroke:#808080;stroke-width:0.0125;"/>
        <!-- Line -->
        <line x1="102.9969" y1="54.9322" x2="103.5969" y2="54.9322" style="stroke:#808080;stroke-width:0.0125;"/>
        <!-- Line -->
        <line x1="102.9719" y1="54.7947" x2="102.9969" y2="54.7947" style="stroke:#808080;stroke-width:0.0125;"/>
        <!-- Line -->
        <line x1="102.9969" y1="54.9322" x2="102.9969" y2="54.7947" style="stroke:#808080;stroke-width:0.0125;"/>
        <!-- Line -->
        <line x1="103.5969" y1="54.9322" x2="103.5969" y2="54.7947" style="stroke:#808080;stroke-width:0.0125;"/>
        <!-- Line -->
        <line x1="103.6219" y1="54.7947" x2="103.5969" y2="54.7947" style="stroke:#808080;stroke-width:0.0125;"/>
        <!-- Line -->
        <line x1="102.9969" y1="55.0947" x2="102.9969" y2="54.9572" style="stroke:#808080;stroke-width:0.0125;"/>
        <!-- Line -->
        <line x1="102.9719" y1="55.0947" x2="102.9969" y2="55.0947" style="stroke:#808080;stroke-width:0.0125;"/>
        <!-- Line -->
        <line x1="102.9719" y1="55.0947" x2="102.9719" y2="54.7947" style="stroke:#808080;stroke-width:0.0125;"/>
        <!-- Line -->
        <line x1="103.5969" y1="55.0947" x2="103.6219" y2="55.0947" style="stroke:#808080;stroke-width:0.0125;"/>
        <!-- Line -->
        <line x1="103.5969" y1="55.0947" x2="103.5969" y2="54.9572" style="stroke:#808080;stroke-width:0.0125;"/>
        <!-- Line -->
        <line x1="103.6219" y1="55.0947" x2="103.6219" y2="54.7947" style="stroke:#808080;stroke-width:0.0125;"/>
        <!-- Line -->
        <line x1="102.5119" y1="52.9647" x2="101.7619" y2="52.9647" style="stroke:#808080;stroke-width:0.0125;"/>
        <!-- Line -->
        <line x1="102.5119" y1="52.9647" x2="102.5119" y2="52.9147" style="stroke:#808080;stroke-width:0.0125;"/>
        <!-- Line -->
        <line x1="102.5119" y1="52.9147" x2="101.7619" y2="52.9147" style="stroke:#808080;stroke-width:0.0125;"/>
        <!-- Line -->
        <line x1="101.7619" y1="52.9647" x2="101.7619" y2="52.9147" style="stroke:#808080;stroke-width:0.0125;"/>
        <!-- Line -->
        <line x1="101.7619" y1="52.9147" x2="102.5119" y2="52.2147" style="stroke:#000000;stroke-width:0.0125;"/>
        <!-- Line -->
        <line x1="101.9919" y1="53.2447" x2="101.9919" y2="53.0947" style="stroke:#333333;stroke-width:0.0125;"/>
        <!-- Line -->
        <line x1="101.2169" y1="53.2447" x2="101.2169" y2="53.0947" style="stroke:#808080;stroke-width:0.0125;"/>
        <!-- Line -->
        <line x1="101.9669" y1="53.2447" x2="101.9669" y2="53.0947" style="stroke:#808080;stroke-width:0.0125;"/>
        <!-- Line -->
        <line x1="102.5119" y1="53.2447" x2="101.9919" y2="53.2447" style="stroke:#333333;stroke-width:0.0125;"/>
        <!-- Line -->
        <line x1="102.5119" y1="53.0947" x2="101.9919" y2="53.0947" style="stroke:#333333;stroke-width:0.0125;"/>
        <!-- Line -->
        <line x1="102.5119" y1="53.0947" x2="102.5119" y2="52.9897" style="stroke:#333333;stroke-width:0.0125;"/>
        <!-- Line -->
        <line x1="101.9919" y1="53.2447" x2="101.9669" y2="53.2447" style="stroke:#808080;stroke-width:0.0125;"/>
        <!-- Line -->
        <line x1="101.9919" y1="53.0947" x2="101.9669" y2="53.0947" style="stroke:#808080;stroke-width:0.0125;"/>
        <!-- Line -->
        <line x1="101.2169" y1="53.2447" x2="101.1919" y2="53.2447" style="stroke:#808080;stroke-width:0.0125;"/>
        <!-- Line -->
        <line x1="101.2169" y1="53.0947" x2="101.1919" y2="53.0947" style="stroke:#808080;stroke-width:0.0125;"/>
        <!-- Line -->
        <line x1="101.2169" y1="53.2447" x2="101.2169" y2="53.9947" style="stroke:#808080;stroke-width:0.0125;"/>
        <!-- Line -->
        <line x1="101.2169" y1="53.2447" x2="101.2669" y2="53.2447" style="stroke:#808080;stroke-width:0.0125;"/>
        <!-- Line -->
        <line x1="101.2669" y1="53.2447" x2="101.2669" y2="53.9947" style="stroke:#808080;stroke-width:0.0125;"/>
        <!-- Line -->
        <line x1="101.2169" y1="53.9947" x2="101.2669" y2="53.9947" style="stroke:#808080;stroke-width:0.0125;"/>
        <!-- Line -->
        <line x1="101.2669" y1="53.9947" x2="101.9669" y2="53.2447" style="stroke:#000000;stroke-width:0.0125;"/>
        <!-- Text: H:2.87 -->
        <text x="114.5354" dx="0" y="-53.8741" dy="0.1" font-family="arial" font-size="0.14" line-height="1.1" fill="#333333" transform="scale(1,-1) rotate(360 114.5354,-53.8741)" text-anchor="end">H:2.87</text>
        <!-- Text: H:2.76 -->
        <text x="118.5929" dx="0" y="-57.8083" dy="0.1" font-family="arial" font-size="0.14" line-height="1.1" fill="#333333" transform="scale(1,-1) rotate(360 118.5929,-57.8083)" text-anchor="end">H:2.76</text>
        <!-- Line -->
        <line x1="110.6519" y1="55.0147" x2="110.6519" y2="53.7047" style="stroke:#333333;stroke-width:0.0125;"/>
        <!-- Line -->
        <line x1="101.1919" y1="52.1897" x2="101.1919" y2="51.5076" style="stroke:#333333;stroke-width:0.0125;"/>
        <!-- Line -->
        <line x1="101.0419" y1="51.9347" x2="101.0419" y2="51.4345" style="stroke:#333333;stroke-width:0.0125;"/>
        <!-- Line -->
        <line x1="101.1919" y1="52.1897" x2="101.0419" y2="52.1897" style="stroke:#333333;stroke-width:0.0125;"/>
        <!-- Line -->
        <line x1="101.0419" y1="51.4345" x2="101.1285" y2="51.5661" style="stroke:#333333;stroke-width:0.0125;"/>
        <!-- Line -->
        <line x1="101.1285" y1="51.5661" x2="101.1919" y2="51.5076" style="stroke:#333333;stroke-width:0.0125;"/>
        <!-- Line -->
        <line x1="101.0419" y1="51.9347" x2="100.2893" y2="51.9347" style="stroke:#333333;stroke-width:0.0125;"/>
        <!-- Line -->
        <line x1="100.2893" y1="51.9347" x2="100.2893" y2="52.0847" style="stroke:#333333;stroke-width:0.0125;"/>
        <!-- Line -->
        <line x1="100.2893" y1="52.0847" x2="101.0419" y2="52.0847" style="stroke:#333333;stroke-width:0.0125;"/>
        <!-- Line -->
        <line x1="101.0419" y1="52.0847" x2="101.0419" y2="52.1897" style="stroke:#333333;stroke-width:0.0125;"/>
        <!-- Line -->
        <line x1="112.3119" y1="56.3247" x2="112.3119" y2="54.9847" style="stroke:#333333;stroke-width:0.0125;"/>
        <!-- Hatch -->
        <path d="M112.3119,56.3247 L101.0419,56.3247 L101.0419,52.9947 L101.1919,52.9947 L101.1919,56.1747 L112.1619,56.1747 L112.1619,54.8347 L115.0019,54.8347 L115.0019,54.4347 L115.4519,54.4347 L115.4519,54.8347 L116.9919,54.8347 L116.9919,53.9447 L117.1419,53.9447 L117.1419,54.9647 L117.8919,54.9647 L117.8919,55.1147 L117.1419,55.1147 L117.1419,59.0147 L119.4419,59.0147 L119.4419,55.1147 L118.6919,55.1147 L118.6919,54.9647 L119.5919,54.9647 L119.5919,59.1647 L116.9919,59.1647 L116.9919,54.9847 L112.3119,54.9847 Z" style="fill:#000000;fill-rule:evenodd;"/>
        <!-- Hatch -->
        <path d="M101.1919,52.1897 L101.0419,52.1897 L101.0419,52.0847 L100.2893,52.0847 L100.2893,51.9347 L101.0419,51.9347 L101.0419,51.4345 L101.1285,51.5661 L101.1919,51.5076 ZM104.0819,55.0947 L110.5019,55.0947 L110.5019,53.7047 L110.6519,53.7047 L110.6519,55.0147 L110.8019,55.0147 L110.8019,55.2447 L102.5119,55.2447 L102.5119,53.2447 L101.9919,53.2447 L101.9919,53.0947 L102.5119,53.0947 L102.5119,52.9897 L102.6619,52.9897 L102.6619,53.0947 L104.0819,53.0947 ZM102.6619,53.2447 L102.6619,55.0947 L103.9319,55.0947 L103.9319,53.2447 ZM102.9783,53.2447 L102.9783,53.5447 L103.0033,53.5447 L103.0033,53.4072 L103.6033,53.4072 L103.6033,53.5447 L103.6283,53.5447 L103.6283,53.2447 L103.6033,53.2447 L103.6033,53.3822 L103.0033,53.3822 L103.0033,53.2447 ZM102.9719,54.7947 L102.9719,55.0947 L102.9969,55.0947 L102.9969,54.9572 L103.5969,54.9572 L103.5969,55.0947 L103.6219,55.0947 L103.6219,54.7947 L103.5969,54.7947 L103.5969,54.9322 L102.9969,54.9322 L102.9969,54.7947 ZM103.4619,52.0847 L102.6619,52.0847 L102.6619,52.1897 L102.5119,52.1897 L102.5119,51.9347 L103.3119,51.9347 L103.3119,51.0947 L104.0819,51.0947 L104.0819,51.2447 L103.4619,51.2447 ZM110.6519,52.9047 L110.5019,52.9047 L110.5019,51.2447 L110.4019,51.2447 L110.4019,51.0947 L110.6519,51.0947 ZM113.0004,52.8347 L110.6519,52.8347 L110.6519,52.6847 L113.0004,52.6847 ZM117.1419,52.9947 L116.9919,52.9947 L116.9919,52.8347 L116.8704,52.8347 L116.8704,52.6847 L116.9919,52.6847 L116.9919,51.5947 L119.7766,51.5947 L119.8756,51.7429 L119.8715,51.7447 L117.1419,51.7447 Z" style="fill:#000000;fill-rule:evenodd;"/>
        <!-- Hatch -->
        <path d="M106.1885,51.2447 L104.0819,51.2447 L104.0819,51.1697 L106.1885,51.1697 ZM108.2952,51.2447 L106.1885,51.2447 L106.1885,51.1697 L108.2952,51.1697 ZM108.2952,51.1697 L106.1885,51.1697 L106.1885,51.0947 L108.2952,51.0947 ZM106.1885,51.1697 L104.0819,51.1697 L104.0819,51.0947 L106.1885,51.0947 ZM110.4019,51.2447 L108.2952,51.2447 L108.2952,51.1697 L110.4019,51.1697 ZM110.4019,51.1697 L108.2952,51.1697 L108.2952,51.0947 L110.4019,51.0947 ZM115.0504,52.8097 L113.0004,52.8097 L113.0004,52.7597 L115.0504,52.7597 ZM115.0504,52.7597 L113.0004,52.7597 L113.0004,52.7097 L115.0504,52.7097 ZM116.8704,52.8097 L115.2504,52.8097 L115.2504,52.7597 L116.8704,52.7597 ZM116.8704,52.7597 L115.2504,52.7597 L115.2504,52.7097 L116.8704,52.7097 Z" style="fill:#00ff00;fill-rule:evenodd;"/>
        <!-- Hatch -->
        <path d="M115.2504,52.8347 L115.0504,52.8347 L115.0504,52.6847 L115.2504,52.6847 Z" style="fill:#000000;fill-rule:evenodd;"/>
        <!-- Hatch -->
        <path d="M101.2669,53.9947 L101.2169,53.9947 L101.2169,53.2447 L101.2669,53.2447 ZM101.2169,53.2447 L101.1919,53.2447 L101.1919,53.0947 L101.2169,53.0947 ZM101.9919,53.2447 L101.9669,53.2447 L101.9669,53.0947 L101.9919,53.0947 ZM102.6619,52.9897 L102.5119,52.9897 L102.5119,52.9647 L102.6619,52.9647 ZM102.6619,52.2147 L102.5119,52.2147 L102.5119,52.1897 L102.6619,52.1897 ZM102.5119,52.9647 L101.7619,52.9647 L101.7619,52.9147 L102.5119,52.9147 Z" style="fill:#636466;fill-rule:evenodd;"/>
        <!-- Hatch -->
        <path d="M110.6519,53.7047 L110.5019,53.7047 L110.5019,53.6797 L110.6519,53.6797 ZM111.2519,52.9797 L110.6519,52.9797 L110.6519,52.9297 L111.2519,52.9297 ZM110.6519,52.9297 L110.5019,52.9297 L110.5019,52.9047 L110.6519,52.9047 ZM111.4519,52.9797 L111.2519,52.9797 L111.2519,52.9297 L111.4519,52.9297 ZM117.1419,53.9447 L116.9919,53.9447 L116.9919,53.9047 L117.1419,53.9047 ZM118.0119,53.9047 L117.1419,53.9047 L117.1419,53.8547 L118.0119,53.8547 ZM117.1419,53.0347 L116.9919,53.0347 L116.9919,52.9947 L117.1419,52.9947 Z" style="fill:#636466;fill-rule:evenodd;"/>
        <!-- Hatch -->
        <path d="M117.9169,55.1147 L117.8919,55.1147 L117.8919,54.9647 L117.9169,54.9647 ZM118.6919,55.1147 L118.6669,55.1147 L118.6669,54.9647 L118.6919,54.9647 ZM118.6669,54.9647 L118.6169,54.9647 L118.6169,54.2147 L118.6669,54.2147 Z" style="fill:#636466;fill-rule:evenodd;"/>
        <!-- Line -->
        <line x1="117.9169" y1="55.1147" x2="118.6669" y2="55.1147" style="stroke:#ededed;stroke-width:0.0125;"/>
        <!-- Line -->
        <line x1="100.2893" y1="52.0847" x2="100.2893" y2="52.9929" style="stroke:#d7ebd2;stroke-width:0.0125;"/>
        <!-- Line -->
        <line x1="100.2893" y1="52.9929" x2="101.0419" y2="52.9929" style="stroke:#d7ebd2;stroke-width:0.0125;"/>
        <!-- Line -->
        <line x1="103.3119" y1="51.0947" x2="101.0329" y2="51.0947" style="stroke:#d7ebd2;stroke-width:0.0125;"/>
        <!-- Line -->
        <line x1="101.0329" y1="51.0947" x2="101.0419" y2="51.4345" style="stroke:#d7ebd2;stroke-width:0.0125;"/>
        <!-- Line -->
        <line x1="119.5919" y1="54.9647" x2="119.9867" y2="52.2091" style="stroke:#d7ebd2;stroke-width:0.0125;"/>
        <!-- Line -->
        <line x1="101.1919" y1="53.2447" x2="102.5119" y2="53.2447" style="stroke:#000000;stroke-width:0.0125;"/>
        <!-- Line -->
        <line x1="102.5119" y1="53.0947" x2="102.5119" y2="51.0947" style="stroke:#d7ebd2;stroke-width:0.0125;"/>
        <!-- Line -->
        <line x1="101.1919" y1="51.5076" x2="102.5119" y2="51.9347" style="stroke:#d7ebd2;stroke-width:0.0125;"/>
        <!-- Line -->
        <line x1="101.1919" y1="52.9947" x2="101.7619" y2="52.9147" style="stroke:#d7ebd2;stroke-width:0.0125;"/>
        <!-- Line -->
        <line x1="101.0419" y1="52.9929" x2="101.1919" y2="52.9947" style="stroke:#333333;stroke-width:0.0125;"/>
        <!-- Line -->
        <line x1="102.5119" y1="52.2147" x2="102.5119" y2="51.9347" style="stroke:#333333;stroke-width:0.0125;"/>
        <!-- Line -->
        <line x1="101.1919" y1="51.5076" x2="101.1919" y2="52.1897" style="stroke:#333333;stroke-width:0.0125;"/>
        <!-- Line -->
        <line x1="101.1919" y1="52.1897" x2="101.0419" y2="52.1897" style="stroke:#333333;stroke-width:0.0125;"/>
        <!-- Line -->
        <line x1="101.0419" y1="52.1897" x2="101.0419" y2="52.0847" style="stroke:#333333;stroke-width:0.0125;"/>
        <!-- Line -->
        <line x1="101.0419" y1="52.0847" x2="100.2893" y2="52.0847" style="stroke:#333333;stroke-width:0.0125;"/>
        <!-- Line -->
        <line x1="110.5019" y1="53.6797" x2="110.5019" y2="52.9297" style="stroke:#000000;stroke-width:0.0125;"/>
        <!-- Line -->
        <line x1="110.5019" y1="52.9297" x2="110.6519" y2="52.9297" style="stroke:#333333;stroke-width:0.0125;"/>
        <!-- Line -->
        <line x1="110.6519" y1="52.9297" x2="110.6519" y2="53.6797" style="stroke:#000000;stroke-width:0.0125;"/>
        <!-- Line -->
        <line x1="110.6519" y1="53.6797" x2="110.5019" y2="53.6797" style="stroke:#333333;stroke-width:0.0125;"/>
        <!-- Hatch -->
        <path d="M111.2519,53.1547 L111.2519,52.9797 L111.4519,52.9797 Z" style="fill:#c7c8ca;fill-rule:evenodd;"/>
        <!-- Line -->
        <line x1="116.9919" y1="53.9047" x2="116.9919" y2="53.0347" style="stroke:#333333;stroke-width:0.0125;"/>
        <!-- Hatch -->
        <path d="M118.0119,53.8547 L117.1419,53.8547 L117.1419,53.9047 L116.9919,53.9047 L116.9919,53.0347 L117.1419,53.0347 Z" style="fill:#d7ebd2;fill-rule:evenodd;"/>
        <!-- Line -->
        <line x1="117.9169" y1="55.1147" x2="118.6794" y2="55.1147" style="stroke:#333333;stroke-width:0.0125;"/>
        <!-- Hatch -->
        <path d="M118.6169,54.9647 L118.6669,54.9647 L118.6669,55.1147 L117.9169,55.1147 L117.9169,54.9647 L118.6169,54.2147 Z" style="fill:#d7ebd2;fill-rule:evenodd;"/>
        <!-- Hatch -->
        <path d="M98.634,50.0396 L100.3043,49.2139 L100.2953,50.8777 ZM100.2975,50.4618 L100.3021,49.6299 L102.2185,49.637 L102.2154,50.4689 Z" style="fill:#009900;fill-rule:evenodd;"/>
        <!-- Hatch -->
        <path d="M121.1392,50.0672 L119.4689,50.8929 L119.478,49.229 ZM119.4757,49.645 L119.4712,50.4769 L117.5547,50.4697 L117.5579,49.6378 Z" style="fill:#009900;fill-rule:evenodd;"/>
        <!-- Hatch -->
        <!-- Hatch -->
        <path d="M101.7619,52.9147 L101.1919,52.9947 L101.0419,52.9929 L100.2893,52.9929 L100.2893,52.0847 L101.0419,52.0847 L101.0419,52.1897 L101.1919,52.1897 L101.1919,51.5076 L102.5119,51.9347 L102.5119,52.2147 ZM102.5119,51.9347 L101.1919,51.5076 L101.1285,51.5661 L101.0419,51.4345 L101.0329,51.0947 L102.5119,51.0947 ZM103.3119,51.9347 L102.5119,51.9347 L102.5119,51.0947 L103.3119,51.0947 ZM102.9619,53.0947 L102.6619,53.0947 L102.6619,52.9897 L102.6619,52.9647 L102.5119,52.9647 L102.5119,52.2147 L102.6619,52.2147 L102.6619,52.1897 L102.6619,52.0847 L102.9619,52.0847 ZM102.5119,52.9147 L101.7619,52.9147 L102.5119,52.2147 ZM101.9669,53.2447 L101.2169,53.2447 L101.2169,53.0947 L101.1919,53.0947 L101.1919,52.9947 L101.7619,52.9147 L101.7619,52.9647 L102.5119,52.9647 L102.5119,53.0947 L101.9919,53.0947 L101.9669,53.0947 Z" style="fill:#d7ebd2;fill-rule:evenodd;"/>
        <!-- Hatch -->
        <path d="M111.5019,53.7747 L111.2519,53.7747 L111.2519,53.1547 L111.4519,52.9797 L111.4519,52.9297 L111.2519,52.9297 L111.2519,52.8347 L111.5019,52.8347 ZM111.7519,53.7747 L111.5019,53.7747 L111.5019,52.8347 L111.7519,52.8347 ZM112.0019,53.7747 L111.7519,53.7747 L111.7519,52.8347 L112.0019,52.8347 Z" style="fill:#c7c8ca;fill-rule:evenodd;"/>
        <!-- Hatch -->
        <path d="M111.2519,53.7747 L110.6519,53.7747 L110.6519,53.7047 L110.6519,53.6797 L111.2519,53.1547 ZM110.6519,53.6797 L110.6519,52.9797 L111.2519,52.9797 L111.2519,53.1547 ZM111.2519,52.9297 L110.6519,52.9297 L110.6519,52.9047 L110.6519,52.8347 L111.2519,52.8347 ZM110.6519,53.6797 L110.5019,53.6797 L110.5019,52.9297 L110.6519,52.9297 Z" style="fill:#d7ebd2;fill-rule:evenodd;"/>
    </g>
</svg>
