<?xml version="1.0" encoding="UTF-8"?>
<!-- 2020-09-03 18:27:47 Generated by QCAD 3.24.3 SVG Exporter PG -->
<svg width="387.7897mm" height="237.5482mm" viewBox="115.5922 -78.403 19.3895 11.8774" version="1.1" xmlns="http://www.w3.org/2000/svg" style="stroke-linecap:round;stroke-linejoin:round;fill:none">
    <g transform="scale(1,-1)">
        <!-- Line -->
        <line x1="117.8213" y1="69.091" x2="120.4213" y2="69.091" style="stroke:#333333;stroke-width:0.0125;"/>
        <!-- Line -->
        <line x1="116.4384" y1="74.906" x2="134.1355" y2="74.906" style="stroke:#808080;stroke-width:0.0125;stroke-dasharray:0.2381,0.0397,0.0397,0.0397;stroke-dashoffset:0.0216"/>
        <!-- Line -->
        <line x1="131.2513" y1="77.5568" x2="131.2513" y2="67.3718" style="stroke:#808080;stroke-width:0.0125;stroke-dasharray:0.2381,0.0397,0.0397,0.0397;stroke-dashoffset:0.0272"/>
        <!-- Line -->
        <line x1="122.3213" y1="68.951" x2="121.6313" y2="68.951" style="stroke:#333333;stroke-width:0.0125;"/>
        <!-- Line -->
        <line x1="122.2513" y1="77.5567" x2="122.2513" y2="67.3718" style="stroke:#808080;stroke-width:0.0125;stroke-dasharray:0.2381,0.0397,0.0397,0.0397;stroke-dashoffset:0.0272"/>
        <!-- Text: D -->
        <text x="116.251" dx="0" y="-75.0242" dy="0.25" font-family="arial" font-size="0.35" line-height="1.1" fill="#808080" transform="scale(1,-1) rotate(360 116.251,-75.0242)" text-anchor="end">D</text>
        <!-- Circle -->
        <circle cx="116.1653" cy="74.906" r="0.2731" style="stroke:#808080;stroke-width:0.0125;stroke-dasharray:0.2381,0.0397,0.0397,0.0397;stroke-dashoffset:0.154"/>
        <!-- Text: 20 -->
        <text x="122.4391" dx="0" y="-77.9709" dy="0.25" font-family="arial" font-size="0.35" line-height="1.1" fill="#808080" transform="scale(1,-1) rotate(360 122.4391,-77.9709)" text-anchor="end">20</text>
        <!-- Circle -->
        <circle cx="122.2513" cy="77.8299" r="0.2731" style="stroke:#808080;stroke-width:0.0125;stroke-dasharray:0.2381,0.0397,0.0397,0.0397;stroke-dashoffset:0.154"/>
        <!-- Circle -->
        <circle cx="131.2513" cy="77.8299" r="0.2731" style="stroke:#808080;stroke-width:0.0125;stroke-dasharray:0.2381,0.0397,0.0397,0.0397;stroke-dashoffset:0.154"/>
        <!-- Text: 21 -->
        <text x="131.422" dx="0" y="-77.9709" dy="0.25" font-family="arial" font-size="0.35" line-height="1.1" fill="#808080" transform="scale(1,-1) rotate(360 131.422,-77.9709)" text-anchor="end">21</text>
        <!-- Circle -->
        <circle cx="131.2513" cy="67.0987" r="0.2731" style="stroke:#808080;stroke-width:0.0125;stroke-dasharray:0.2381,0.0397,0.0397,0.0397;stroke-dashoffset:0.154"/>
        <!-- Circle -->
        <circle cx="122.2513" cy="67.0987" r="0.2731" style="stroke:#808080;stroke-width:0.0125;stroke-dasharray:0.2381,0.0397,0.0397,0.0397;stroke-dashoffset:0.154"/>
        <!-- Text: 20 -->
        <text x="122.4391" dx="0" y="-67.2397" dy="0.25" font-family="arial" font-size="0.35" line-height="1.1" fill="#808080" transform="scale(1,-1) rotate(360 122.4391,-67.2397)" text-anchor="end">20</text>
        <!-- Text: 21 -->
        <text x="131.422" dx="0" y="-67.2397" dy="0.25" font-family="arial" font-size="0.35" line-height="1.1" fill="#808080" transform="scale(1,-1) rotate(360 131.422,-67.2397)" text-anchor="end">21</text>
        <!-- Text: D -->
        <text x="134.4942" dx="0" y="-75.0242" dy="0.25" font-family="arial" font-size="0.35" line-height="1.1" fill="#808080" transform="scale(1,-1) rotate(360 134.4942,-75.0242)" text-anchor="end">D</text>
        <!-- Circle -->
        <circle cx="134.4086" cy="74.906" r="0.2731" style="stroke:#808080;stroke-width:0.0125;stroke-dasharray:0.2381,0.0397,0.0397,0.0397;stroke-dashoffset:0.154"/>
        <!-- Text: CABINA ELECTRICA Nº8 -->
        <text x="121.3986" dx="0" y="-73.9089" dy="0.15" font-family="arial" font-size="0.21" line-height="1.1" fill="#333333" transform="scale(1,-1) rotate(360 121.3986,-73.9089)" text-anchor="end">CABINA ELECTRICA Nº8</text>
        <!-- Text: VESTUARIO -DEPOSITO -->
        <text x="125.7112" dx="0" y="-72.4554" dy="0.15" font-family="arial" font-size="0.21" line-height="1.1" fill="#333333" transform="scale(1,-1) rotate(360 125.7112,-72.4554)" text-anchor="end">VESTUARIO -DEPOSITO</text>
        <!-- Line -->
        <line x1="117.5313" y1="76.106" x2="117.5313" y2="68.951" style="stroke:#333333;stroke-width:0.0125;"/>
        <!-- Line -->
        <line x1="117.8213" y1="76.106" x2="122.8913" y2="76.106" style="stroke:#333333;stroke-width:0.0125;"/>
        <!-- Line -->
        <line x1="117.8213" y1="75.9733" x2="122.7513" y2="75.966" style="stroke:#333333;stroke-width:0.0125;"/>
        <!-- Line -->
        <line x1="133.5101" y1="76.5549" x2="133.03" y2="75.4489" style="stroke:#808080;stroke-width:0.0125;stroke-dasharray:0.2381,0.0397,0.0397,0.0397;stroke-dashoffset:0.052"/>
        <!-- Hatch -->
        <path d="M131.5763,75.8459 L131.5513,75.8459 L131.5513,75.7084 L130.9513,75.7084 L130.9513,75.8459 L130.9263,75.8459 L130.9263,75.5459 L130.9513,75.5459 L130.9513,75.6834 L131.5513,75.6834 L131.5513,75.5459 L131.5763,75.5459 ZM131.5827,74.2459 L131.5577,74.2459 L131.5577,74.1084 L130.9577,74.1084 L130.9577,74.2459 L130.9327,74.2459 L130.9327,73.9459 L130.9577,73.9459 L130.9577,74.0834 L131.5577,74.0834 L131.5577,73.9459 L131.5827,73.9459 Z" style="fill:#808080;fill-rule:evenodd;"/>
        <!-- Line -->
        <line x1="130.9577" y1="74.0834" x2="131.5577" y2="74.0834" style="stroke:#333333;stroke-width:0.0125;"/>
        <!-- Line -->
        <line x1="130.9577" y1="74.1084" x2="131.5577" y2="74.1084" style="stroke:#333333;stroke-width:0.0125;"/>
        <!-- Line -->
        <line x1="130.9513" y1="75.7084" x2="131.5513" y2="75.7084" style="stroke:#333333;stroke-width:0.0125;"/>
        <!-- Line -->
        <line x1="130.9513" y1="75.6834" x2="131.5513" y2="75.6834" style="stroke:#333333;stroke-width:0.0125;"/>
        <!-- Line -->
        <line x1="130.9513" y1="75.8459" x2="130.9513" y2="75.7084" style="stroke:#333333;stroke-width:0.0125;"/>
        <!-- Line -->
        <line x1="130.9263" y1="75.8459" x2="130.9513" y2="75.8459" style="stroke:#333333;stroke-width:0.0125;"/>
        <!-- Line -->
        <line x1="130.9263" y1="75.5459" x2="130.9513" y2="75.5459" style="stroke:#333333;stroke-width:0.0125;"/>
        <!-- Line -->
        <line x1="130.9513" y1="75.6834" x2="130.9513" y2="75.5459" style="stroke:#333333;stroke-width:0.0125;"/>
        <!-- Line -->
        <line x1="130.9327" y1="74.2459" x2="130.9577" y2="74.2459" style="stroke:#333333;stroke-width:0.0125;"/>
        <!-- Line -->
        <line x1="130.9577" y1="74.2459" x2="130.9577" y2="74.1084" style="stroke:#333333;stroke-width:0.0125;"/>
        <!-- Line -->
        <line x1="130.9327" y1="73.9459" x2="130.9577" y2="73.9459" style="stroke:#333333;stroke-width:0.0125;"/>
        <!-- Line -->
        <line x1="130.9577" y1="74.0834" x2="130.9577" y2="73.9459" style="stroke:#333333;stroke-width:0.0125;"/>
        <!-- Line -->
        <line x1="130.9327" y1="74.2459" x2="130.9327" y2="73.9459" style="stroke:#333333;stroke-width:0.0125;"/>
        <!-- Line -->
        <line x1="130.9263" y1="75.8459" x2="130.9263" y2="75.5459" style="stroke:#333333;stroke-width:0.0125;"/>
        <!-- Line -->
        <line x1="131.5513" y1="75.8459" x2="131.5763" y2="75.8459" style="stroke:#333333;stroke-width:0.0125;"/>
        <!-- Line -->
        <line x1="131.5513" y1="75.8459" x2="131.5513" y2="75.7084" style="stroke:#333333;stroke-width:0.0125;"/>
        <!-- Line -->
        <line x1="131.5513" y1="75.6834" x2="131.5513" y2="75.5459" style="stroke:#333333;stroke-width:0.0125;"/>
        <!-- Line -->
        <line x1="131.5763" y1="75.5459" x2="131.5513" y2="75.5459" style="stroke:#333333;stroke-width:0.0125;"/>
        <!-- Line -->
        <line x1="131.5577" y1="74.2459" x2="131.5577" y2="74.1084" style="stroke:#333333;stroke-width:0.0125;"/>
        <!-- Line -->
        <line x1="131.5577" y1="74.2459" x2="131.5827" y2="74.2459" style="stroke:#333333;stroke-width:0.0125;"/>
        <!-- Line -->
        <line x1="131.5827" y1="73.9459" x2="131.5577" y2="73.9459" style="stroke:#333333;stroke-width:0.0125;"/>
        <!-- Line -->
        <line x1="131.5827" y1="74.2459" x2="131.5827" y2="73.9459" style="stroke:#333333;stroke-width:0.0125;"/>
        <!-- Line -->
        <line x1="131.5577" y1="74.0834" x2="131.5577" y2="73.9459" style="stroke:#333333;stroke-width:0.0125;"/>
        <!-- Line -->
        <line x1="131.5763" y1="75.8459" x2="131.5763" y2="75.5459" style="stroke:#333333;stroke-width:0.0125;"/>
        <!-- Line -->
        <line x1="122.5763" y1="75.8459" x2="122.5763" y2="75.5459" style="stroke:#333333;stroke-width:0.0125;"/>
        <!-- Line -->
        <line x1="122.5577" y1="74.0834" x2="122.5577" y2="73.9459" style="stroke:#333333;stroke-width:0.0125;"/>
        <!-- Line -->
        <line x1="122.5827" y1="74.2459" x2="122.5827" y2="73.9459" style="stroke:#333333;stroke-width:0.0125;"/>
        <!-- Line -->
        <line x1="122.5827" y1="73.9459" x2="122.5577" y2="73.9459" style="stroke:#333333;stroke-width:0.0125;"/>
        <!-- Line -->
        <line x1="122.5577" y1="74.2459" x2="122.5827" y2="74.2459" style="stroke:#333333;stroke-width:0.0125;"/>
        <!-- Line -->
        <line x1="122.5577" y1="74.2459" x2="122.5577" y2="74.1084" style="stroke:#333333;stroke-width:0.0125;"/>
        <!-- Line -->
        <line x1="122.5763" y1="75.5459" x2="122.5513" y2="75.5459" style="stroke:#333333;stroke-width:0.0125;"/>
        <!-- Line -->
        <line x1="122.5513" y1="75.6834" x2="122.5513" y2="75.5459" style="stroke:#333333;stroke-width:0.0125;"/>
        <!-- Line -->
        <line x1="122.5513" y1="75.8459" x2="122.5513" y2="75.7084" style="stroke:#333333;stroke-width:0.0125;"/>
        <!-- Line -->
        <line x1="122.5513" y1="75.8459" x2="122.5763" y2="75.8459" style="stroke:#333333;stroke-width:0.0125;"/>
        <!-- Line -->
        <line x1="121.9263" y1="75.8459" x2="121.9263" y2="75.5459" style="stroke:#333333;stroke-width:0.0125;"/>
        <!-- Line -->
        <line x1="121.9327" y1="74.2459" x2="121.9327" y2="73.9459" style="stroke:#333333;stroke-width:0.0125;"/>
        <!-- Line -->
        <line x1="121.9577" y1="74.0834" x2="121.9577" y2="73.9459" style="stroke:#333333;stroke-width:0.0125;"/>
        <!-- Line -->
        <line x1="121.9327" y1="73.9459" x2="121.9577" y2="73.9459" style="stroke:#333333;stroke-width:0.0125;"/>
        <!-- Line -->
        <line x1="121.9577" y1="74.2459" x2="121.9577" y2="74.1084" style="stroke:#333333;stroke-width:0.0125;"/>
        <!-- Line -->
        <line x1="121.9327" y1="74.2459" x2="121.9577" y2="74.2459" style="stroke:#333333;stroke-width:0.0125;"/>
        <!-- Line -->
        <line x1="121.9513" y1="75.6834" x2="121.9513" y2="75.5459" style="stroke:#333333;stroke-width:0.0125;"/>
        <!-- Line -->
        <line x1="121.9263" y1="75.5459" x2="121.9513" y2="75.5459" style="stroke:#333333;stroke-width:0.0125;"/>
        <!-- Line -->
        <line x1="121.9263" y1="75.8459" x2="121.9513" y2="75.8459" style="stroke:#333333;stroke-width:0.0125;"/>
        <!-- Line -->
        <line x1="121.9513" y1="75.8459" x2="121.9513" y2="75.7084" style="stroke:#333333;stroke-width:0.0125;"/>
        <!-- Line -->
        <line x1="121.9513" y1="75.6834" x2="122.5513" y2="75.6834" style="stroke:#333333;stroke-width:0.0125;"/>
        <!-- Line -->
        <line x1="121.9513" y1="75.7084" x2="122.5513" y2="75.7084" style="stroke:#333333;stroke-width:0.0125;"/>
        <!-- Line -->
        <line x1="121.9577" y1="74.1084" x2="122.5577" y2="74.1084" style="stroke:#333333;stroke-width:0.0125;"/>
        <!-- Line -->
        <line x1="121.9577" y1="74.0834" x2="122.5577" y2="74.0834" style="stroke:#333333;stroke-width:0.0125;"/>
        <!-- Hatch -->
        <path d="M122.5763,75.8459 L122.5513,75.8459 L122.5513,75.7084 L121.9513,75.7084 L121.9513,75.8459 L121.9263,75.8459 L121.9263,75.5459 L121.9513,75.5459 L121.9513,75.6834 L122.5513,75.6834 L122.5513,75.5459 L122.5763,75.5459 ZM122.5827,74.2459 L122.5577,74.2459 L122.5577,74.1084 L121.9577,74.1084 L121.9577,74.2459 L121.9327,74.2459 L121.9327,73.9459 L121.9577,73.9459 L121.9577,74.0834 L122.5577,74.0834 L122.5577,73.9459 L122.5827,73.9459 Z" style="fill:#808080;fill-rule:evenodd;"/>
        <!-- Line -->
        <line x1="117.6513" y1="75.966" x2="117.6513" y2="69.091" style="stroke:#333333;stroke-width:0.0125;"/>
        <!-- Line -->
        <line x1="117.6813" y1="75.966" x2="117.6813" y2="69.091" style="stroke:#333333;stroke-width:0.0125;"/>
        <!-- Line -->
        <line x1="117.8213" y1="75.9733" x2="117.8213" y2="69.091" style="stroke:#333333;stroke-width:0.0125;"/>
        <!-- Line -->
        <line x1="117.6813" y1="69.091" x2="117.6513" y2="69.091" style="stroke:#333333;stroke-width:0.0125;"/>
        <!-- Line -->
        <line x1="117.5313" y1="76.106" x2="117.8213" y2="76.106" style="stroke:#333333;stroke-width:0.0125;"/>
        <!-- Line -->
        <line x1="117.6813" y1="75.966" x2="117.6513" y2="75.966" style="stroke:#333333;stroke-width:0.0125;"/>
        <!-- Line -->
        <line x1="122.1813" y1="73.792" x2="122.1813" y2="69.091" style="stroke:#333333;stroke-width:0.0125;"/>
        <!-- Line -->
        <line x1="122.3213" y1="73.652" x2="122.3213" y2="70.521" style="stroke:#333333;stroke-width:0.0125;"/>
        <!-- Line -->
        <line x1="121.6313" y1="69.091" x2="121.6313" y2="68.951" style="stroke:#333333;stroke-width:0.0125;"/>
        <!-- Line -->
        <line x1="120.4213" y1="69.091" x2="120.4213" y2="68.951" style="stroke:#333333;stroke-width:0.0125;"/>
        <!-- Line -->
        <line x1="121.6313" y1="69.091" x2="122.1813" y2="69.091" style="stroke:#333333;stroke-width:0.0125;"/>
        <!-- Line -->
        <line x1="120.4213" y1="68.951" x2="117.5313" y2="68.951" style="stroke:#333333;stroke-width:0.0125;"/>
        <!-- Line -->
        <line x1="122.7513" y1="75.966" x2="122.7513" y2="73.792" style="stroke:#333333;stroke-width:0.0125;"/>
        <!-- Line -->
        <line x1="122.8913" y1="76.106" x2="122.8913" y2="73.652" style="stroke:#333333;stroke-width:0.0125;"/>
        <!-- Line -->
        <line x1="123.3913" y1="76.106" x2="123.3913" y2="75.966" style="stroke:#333333;stroke-width:0.0125;"/>
        <!-- Line -->
        <line x1="123.3913" y1="75.966" x2="126.6813" y2="75.966" style="stroke:#333333;stroke-width:0.0125;"/>
        <!-- Line -->
        <line x1="123.3913" y1="76.106" x2="133.3153" y2="76.106" style="stroke:#333333;stroke-width:0.0125;"/>
        <!-- Line -->
        <line x1="122.1813" y1="73.792" x2="122.7513" y2="73.792" style="stroke:#333333;stroke-width:0.0125;"/>
        <!-- Line -->
        <line x1="122.3213" y1="73.652" x2="122.8913" y2="73.652" style="stroke:#333333;stroke-width:0.0125;"/>
        <!-- Line -->
        <line x1="126.6813" y1="75.966" x2="126.6813" y2="73.691" style="stroke:#333333;stroke-width:0.0125;"/>
        <!-- Line -->
        <line x1="126.8213" y1="75.966" x2="126.8213" y2="70.381" style="stroke:#333333;stroke-width:0.0125;"/>
        <!-- Line -->
        <line x1="122.3213" y1="70.521" x2="123.5813" y2="70.521" style="stroke:#333333;stroke-width:0.0125;"/>
        <!-- Line -->
        <line x1="122.3213" y1="70.381" x2="123.5813" y2="70.381" style="stroke:#333333;stroke-width:0.0125;"/>
        <!-- Line -->
        <line x1="123.5813" y1="70.521" x2="123.5813" y2="70.381" style="stroke:#333333;stroke-width:0.0125;"/>
        <!-- Line -->
        <line x1="125.3513" y1="70.521" x2="125.3513" y2="70.381" style="stroke:#333333;stroke-width:0.0125;"/>
        <!-- Line -->
        <line x1="125.3513" y1="70.381" x2="126.8213" y2="70.381" style="stroke:#333333;stroke-width:0.0125;"/>
        <!-- Line -->
        <line x1="125.3513" y1="70.521" x2="126.6813" y2="70.521" style="stroke:#333333;stroke-width:0.0125;"/>
        <!-- Line -->
        <line x1="126.8213" y1="75.966" x2="133.2545" y2="75.966" style="stroke:#333333;stroke-width:0.0125;"/>
        <!-- Line -->
        <line x1="122.3213" y1="70.381" x2="122.3213" y2="68.951" style="stroke:#333333;stroke-width:0.0125;"/>
        <!-- Line -->
        <line x1="122.8872" y1="73.691" x2="126.6813" y2="73.691" style="stroke:#333333;stroke-width:0.0125;"/>
        <!-- Line -->
        <line x1="122.323" y1="73.551" x2="126.6813" y2="73.551" style="stroke:#333333;stroke-width:0.0125;"/>
        <!-- Line -->
        <line x1="126.6813" y1="73.551" x2="126.6813" y2="70.521" style="stroke:#333333;stroke-width:0.0125;"/>
        <!-- Hatch -->
        <path d="M117.6813,69.091 L117.6513,69.091 L117.6513,74.906 L117.5313,74.906 L117.5313,68.951 L120.4213,68.951 L120.4213,69.091 L117.8213,69.091 L117.8213,74.906 L117.6813,74.906 ZM117.8213,76.106 L117.5313,76.106 L117.5313,74.906 L117.6513,74.906 L117.6513,75.966 L117.6813,75.966 L117.6813,74.906 L117.8213,74.906 Z" style="fill:#333333;fill-rule:evenodd;"/>
        <!-- Hatch -->
        <path d="M118.7313,76.106 L118.7313,75.972 L122.7513,75.966 L122.7513,73.792 L122.1813,73.792 L122.1813,69.091 L121.6313,69.091 L121.6313,68.951 L122.3213,68.951 L122.3213,70.381 L123.5813,70.381 L123.5813,70.521 L122.3213,70.521 L122.3213,73.652 L122.8913,73.652 L122.8913,76.106 Z" style="fill:#333333;fill-rule:evenodd;"/>
        <!-- Hatch -->
        <path d="M123.3913,76.106 L123.3913,75.966 L126.6813,75.966 L126.6813,74.906 L126.8213,74.906 L126.8213,75.966 L131.2513,75.966 L131.2513,76.106 ZM126.8213,74.906 L126.6813,74.906 L126.6813,73.691 L126.1313,73.691 L126.1313,73.551 L126.6813,73.551 L126.6813,70.521 L125.3513,70.521 L125.3513,70.381 L126.8213,70.381 ZM133.2545,75.966 L133.3153,76.106 L131.2513,76.106 L131.2513,75.966 Z" style="fill:#333333;fill-rule:evenodd;"/>
        <!-- Line -->
        <line x1="123.3663" y1="76.106" x2="123.3663" y2="75.966" style="stroke:#333333;stroke-width:0.0125;"/>
        <!-- Line -->
        <line x1="123.3913" y1="75.966" x2="123.3663" y2="75.966" style="stroke:#333333;stroke-width:0.0125;"/>
        <!-- Line -->
        <line x1="122.8913" y1="75.966" x2="122.9163" y2="75.966" style="stroke:#333333;stroke-width:0.0125;"/>
        <!-- Line -->
        <line x1="122.8913" y1="76.106" x2="122.9163" y2="76.106" style="stroke:#333333;stroke-width:0.0125;"/>
        <!-- Line -->
        <line x1="122.9163" y1="76.106" x2="122.9163" y2="75.966" style="stroke:#333333;stroke-width:0.0125;"/>
        <!-- Line -->
        <line x1="123.3663" y1="76.106" x2="123.3663" y2="76.606" style="stroke:#333333;stroke-width:0.0125;"/>
        <!-- Line -->
        <line x1="123.3663" y1="76.106" x2="123.3163" y2="76.106" style="stroke:#333333;stroke-width:0.0125;"/>
        <!-- Line -->
        <line x1="123.3663" y1="76.606" x2="123.3163" y2="76.606" style="stroke:#333333;stroke-width:0.0125;"/>
        <!-- Line -->
        <line x1="123.3163" y1="76.106" x2="123.3163" y2="76.606" style="stroke:#333333;stroke-width:0.0125;"/>
        <!-- Line -->
        <line x1="123.3163" y1="76.606" x2="122.9163" y2="76.106" style="stroke:#333333;stroke-width:0.0125;"/>
        <!-- Line -->
        <line x1="122.9163" y1="76.106" x2="123.3163" y2="76.106" style="stroke:#333333;stroke-width:0.0125;"/>
        <!-- Line -->
        <line x1="123.3663" y1="75.966" x2="122.9163" y2="75.966" style="stroke:#333333;stroke-width:0.0125;"/>
        <!-- Line -->
        <line x1="123.5813" y1="70.521" x2="125.3513" y2="70.521" style="stroke:#333333;stroke-width:0.0125;"/>
        <!-- Line -->
        <line x1="123.5813" y1="70.381" x2="125.3513" y2="70.381" style="stroke:#333333;stroke-width:0.0125;"/>
        <!-- Line -->
        <line x1="120.4463" y1="69.091" x2="120.4463" y2="68.951" style="stroke:#333333;stroke-width:0.0125;"/>
        <!-- Line -->
        <line x1="121.6063" y1="69.091" x2="121.6063" y2="68.951" style="stroke:#333333;stroke-width:0.0125;"/>
        <!-- Line -->
        <line x1="120.4213" y1="69.091" x2="120.4463" y2="69.091" style="stroke:#333333;stroke-width:0.0125;"/>
        <!-- Line -->
        <line x1="121.6313" y1="69.091" x2="121.6063" y2="69.091" style="stroke:#333333;stroke-width:0.0125;"/>
        <!-- Line -->
        <line x1="120.4213" y1="68.951" x2="120.4463" y2="68.951" style="stroke:#333333;stroke-width:0.0125;"/>
        <!-- Line -->
        <line x1="121.6313" y1="68.951" x2="121.6063" y2="68.951" style="stroke:#333333;stroke-width:0.0125;"/>
        <!-- Line -->
        <line x1="121.6063" y1="68.951" x2="121.6063" y2="68.151" style="stroke:#333333;stroke-width:0.0125;"/>
        <!-- Line -->
        <line x1="121.6063" y1="68.951" x2="121.5563" y2="68.951" style="stroke:#333333;stroke-width:0.0125;"/>
        <!-- Line -->
        <line x1="121.5563" y1="68.951" x2="121.5563" y2="68.151" style="stroke:#333333;stroke-width:0.0125;"/>
        <!-- Line -->
        <line x1="120.4463" y1="68.951" x2="120.4463" y2="68.551" style="stroke:#333333;stroke-width:0.0125;"/>
        <!-- Line -->
        <line x1="120.4463" y1="68.951" x2="120.4963" y2="68.951" style="stroke:#333333;stroke-width:0.0125;"/>
        <!-- Line -->
        <line x1="120.4963" y1="68.951" x2="120.4963" y2="68.551" style="stroke:#333333;stroke-width:0.0125;"/>
        <!-- Line -->
        <line x1="120.4463" y1="69.091" x2="121.6063" y2="69.091" style="stroke:#333333;stroke-width:0.0125;"/>
        <!-- Line -->
        <line x1="121.5563" y1="68.951" x2="120.4963" y2="68.951" style="stroke:#333333;stroke-width:0.0125;"/>
        <!-- Line -->
        <line x1="121.6063" y1="68.151" x2="121.5563" y2="68.151" style="stroke:#333333;stroke-width:0.0125;"/>
        <!-- Line -->
        <line x1="120.4963" y1="68.551" x2="120.4463" y2="68.551" style="stroke:#333333;stroke-width:0.0125;"/>
        <!-- Line -->
        <line x1="120.4963" y1="68.551" x2="120.8424" y2="68.951" style="stroke:#333333;stroke-width:0.0125;"/>
        <!-- Line -->
        <line x1="120.8424" y1="68.951" x2="121.5563" y2="68.151" style="stroke:#333333;stroke-width:0.0125;"/>
        <!-- Line -->
        <line x1="125.1184" y1="70.431" x2="125.1184" y2="70.381" style="stroke:#333333;stroke-width:0.0125;"/>
        <!-- Line -->
        <line x1="124.6184" y1="70.431" x2="124.6184" y2="70.381" style="stroke:#333333;stroke-width:0.0125;"/>
        <!-- Line -->
        <line x1="124.6184" y1="70.431" x2="125.1184" y2="70.431" style="stroke:#333333;stroke-width:0.0125;"/>
        <!-- Line -->
        <line x1="124.6384" y1="70.431" x2="124.6384" y2="70.381" style="stroke:#333333;stroke-width:0.0125;"/>
        <!-- Line -->
        <line x1="125.0984" y1="70.431" x2="125.0984" y2="70.381" style="stroke:#333333;stroke-width:0.0125;"/>
        <!-- Line -->
        <line x1="125.0984" y1="70.381" x2="125.0984" y2="69.881" style="stroke:#333333;stroke-width:0.0125;"/>
        <!-- Line -->
        <line x1="125.0734" y1="70.381" x2="125.0734" y2="69.881" style="stroke:#333333;stroke-width:0.0125;"/>
        <!-- Line -->
        <line x1="125.0734" y1="69.881" x2="125.0984" y2="69.881" style="stroke:#333333;stroke-width:0.0125;"/>
        <!-- Line -->
        <line x1="124.6384" y1="70.381" x2="125.0734" y2="69.881" style="stroke:#333333;stroke-width:0.0125;"/>
        <!-- Text:  A.M. -->
        <text x="120.0993" dx="0" y="-68.8531" dy="0.0852" font-family="standard" font-size="0.1193" line-height="1.1" fill="#c0c0c0" transform="scale(1,-1) rotate(360 120.0993,-68.8531)" text-anchor="start"> A.M.</text>
        <!-- Text:  A.M. -->
        <text x="123.0049" dx="0" y="-70.2726" dy="0.0852" font-family="standard" font-size="0.1193" line-height="1.1" fill="#c0c0c0" transform="scale(1,-1) rotate(360 123.0049,-70.2726)" text-anchor="start"> A.M.</text>
        <!-- Text:  A.M. -->
        <text x="120.0993" dx="0" y="-69.2771" dy="0.0852" font-family="standard" font-size="0.1193" line-height="1.1" fill="#c0c0c0" transform="scale(1,-1) rotate(360 120.0993,-69.2771)" text-anchor="start"> A.M.</text>
        <!-- Line -->
        <line x1="122.8913" y1="73.691" x2="122.8921" y2="73.551" style="stroke:#333333;stroke-width:0.0125;"/>
        <!-- Hatch -->
        <path d="M122.3213,73.551 L122.3213,73.652 L122.8916,73.652 L122.8921,73.551 Z" style="fill:#333333;fill-rule:evenodd;"/>
        <!-- Hatch -->
        <path d="M122.8913,76.106 L117.8213,76.106 L117.5313,76.106 L117.5313,68.951 L120.4213,68.951 L120.4213,69.091 L117.8213,69.091 L117.8213,75.9733 L122.7513,75.966 L122.7513,73.792 L122.1813,73.792 L122.1813,69.091 L121.6313,69.091 L121.6313,68.951 L122.3213,68.951 L122.3213,70.381 L123.5813,70.381 L123.5813,70.521 L122.3213,70.521 L122.3213,73.652 L122.8913,73.652 ZM117.6813,75.966 L117.6813,69.091 L117.6513,69.091 L117.6513,75.966 Z" style="fill:#00ff00;fill-rule:evenodd;"/>
        <!-- Hatch -->
        <path d="M120.4963,68.951 L120.4463,68.951 L120.4463,68.551 L120.4963,68.551 ZM120.4463,69.091 L120.4213,69.091 L120.4213,68.951 L120.4463,68.951 ZM121.6313,69.091 L121.6063,69.091 L121.6063,68.951 L121.6313,68.951 ZM121.6063,68.951 L121.5563,68.951 L121.5563,68.151 L121.6063,68.151 ZM125.0984,70.381 L125.0734,70.381 L125.0734,69.881 L125.0984,69.881 ZM125.1184,70.431 L125.0984,70.431 L125.0984,70.381 L125.1184,70.381 ZM124.6384,70.431 L124.6184,70.431 L124.6184,70.381 L124.6384,70.381 ZM120.2861,68.3411 L121.2194,68.3411 L121.2194,68.6411 L120.2861,68.6411 Z" style="fill:#636466;fill-rule:evenodd;"/>
        <!-- Hatch -->
        <path d="M123.3663,76.606 L123.3163,76.606 L123.3163,76.106 L123.3663,76.106 ZM122.9163,76.106 L122.8913,76.106 L122.8913,75.966 L122.9163,75.966 Z" style="fill:#636466;fill-rule:evenodd;"/>
        <!-- Line -->
        <line x1="123.3663" y1="76.106" x2="123.3913" y2="76.106" style="stroke:#333333;stroke-width:0.0125;"/>
        <!-- Hatch -->
        <path d="M123.3913,76.106 L123.3663,76.106 L123.3663,75.966 L123.3913,75.966 Z" style="fill:#636466;fill-rule:evenodd;"/>
        <!-- Hatch -->
        <path d="M123.3163,76.606 L122.9163,76.106 L123.3163,76.106 ZM123.3663,76.106 L123.3163,76.106 L122.9163,76.106 L122.9163,75.966 L123.3663,75.966 ZM125.0984,70.431 L124.6384,70.431 L124.6384,70.381 L125.0984,70.381 ZM125.0734,70.381 L124.6384,70.381 L125.0734,69.881 ZM121.6063,69.091 L120.4463,69.091 L120.4463,68.951 L120.4963,68.951 L121.5563,68.951 L121.6063,68.951 ZM121.5563,68.951 L120.8424,68.951 L121.5563,68.151 ZM120.8424,68.951 L120.4963,68.951 L120.4963,68.551 Z" style="fill:#d7ebd2;fill-rule:evenodd;"/>
        <!-- Line -->
        <line x1="125.3513" y1="70.521" x2="125.3513" y2="70.381" style="stroke:#333333;stroke-width:0.0125;"/>
        <!-- Hatch -->
        <path d="M124.6184,70.431 L125.1184,70.431 L125.1184,70.381 L125.3513,70.381 L125.3513,70.521 L123.5813,70.521 L123.5813,70.381 L124.6184,70.381 Z" style="fill:#808080;fill-rule:evenodd;"/>
        <!-- Hatch -->
        <path d="M123.138,68.5543 L124.8084,67.7286 L124.7993,69.3925 ZM124.8016,68.9765 L124.8061,68.1446 L126.7225,68.1518 L126.7194,68.9837 Z" style="fill:#009900;fill-rule:evenodd;"/>
    </g>
</svg>
