<?xml version="1.0" encoding="UTF-8"?>
<!-- 2020-09-03 18:22:37 Generated by QCAD 3.24.3 SVG Exporter PG -->
<svg width="260.8166mm" height="260.0853mm" viewBox="-245.4862 -1709.4324 13.0408 13.0043" version="1.1" xmlns="http://www.w3.org/2000/svg" style="stroke-linecap:round;stroke-linejoin:round;fill:none">
    <g transform="scale(1,-1)">
        <!-- Line -->
        <line x1="-233.2916" y1="1698.5355" x2="-244.64" y2="1698.5355" style="stroke:#adadad;stroke-width:0.0125;stroke-dasharray:0.2381,0.0397,0.0397,0.0397;stroke-dashoffset:0.1599"/>
        <!-- Circle -->
        <circle cx="-233.0185" cy="1698.5355" r="0.2731" style="stroke:#adadad;stroke-width:0.0125;stroke-dasharray:0.2381,0.0397,0.0397,0.0397;stroke-dashoffset:0.154"/>
        <!-- Text: E -->
        <text x="-232.9451" dx="0" y="-1698.6405" dy="0.2" font-family="arial" font-size="0.28" line-height="1.1" fill="#adadad" transform="scale(1,-1) rotate(360 -232.9451,-1698.6405)" text-anchor="end">E</text>
        <!-- Line -->
        <line x1="-242.2929" y1="1708.0999" x2="-242.2929" y2="1697.2743" style="stroke:#adadad;stroke-width:0.0125;stroke-dasharray:0.2381,0.0397,0.0397,0.0397;stroke-dashoffset:0.0641"/>
        <!-- Text: 7 -->
        <text x="-242.2162" dx="0" y="-1708.4658" dy="0.2" font-family="arial" font-size="0.28" line-height="1.1" fill="#adadad" transform="scale(1,-1) rotate(360 -242.2162,-1708.4658)" text-anchor="end">7</text>
        <!-- Circle -->
        <circle cx="-242.2929" cy="1708.373" r="0.2731" style="stroke:#adadad;stroke-width:0.0125;stroke-dasharray:0.2381,0.0397,0.0397,0.0397;stroke-dashoffset:0.154"/>
        <!-- Circle -->
        <circle cx="-244.9131" cy="1698.5355" r="0.2731" style="stroke:#adadad;stroke-width:0.0125;stroke-dasharray:0.2381,0.0397,0.0397,0.0397;stroke-dashoffset:0.154"/>
        <!-- Text: E -->
        <text x="-244.8397" dx="0" y="-1698.6405" dy="0.2" font-family="arial" font-size="0.28" line-height="1.1" fill="#adadad" transform="scale(1,-1) rotate(360 -244.8397,-1698.6405)" text-anchor="end">E</text>
        <!-- Circle -->
        <circle cx="-242.2929" cy="1697.0012" r="0.2731" style="stroke:#adadad;stroke-width:0.0125;stroke-dasharray:0.2381,0.0397,0.0397,0.0397;stroke-dashoffset:0.154"/>
        <!-- Text: 7 -->
        <text x="-242.2129" dx="0" y="-1697.098" dy="0.2" font-family="arial" font-size="0.28" line-height="1.1" fill="#adadad" transform="scale(1,-1) rotate(360 -242.2129,-1697.098)" text-anchor="end">7</text>
        <!-- Line -->
        <line x1="-240.3529" y1="1701.6355" x2="-240.2529" y2="1701.6355" style="stroke:#333333;stroke-width:0.0125;"/>
        <!-- Hatch -->
        <path d="M-241.9679,1699.4855 L-241.9929,1699.4855 L-241.9929,1699.348 L-242.5929,1699.348 L-242.5929,1699.4855 L-242.6179,1699.4855 L-242.6179,1699.1855 L-242.5929,1699.1855 L-242.5929,1699.323 L-241.9929,1699.323 L-241.9929,1699.1855 L-241.9679,1699.1855 ZM-241.9615,1697.8855 L-241.9865,1697.8855 L-241.9865,1697.748 L-242.5865,1697.748 L-242.5865,1697.8855 L-242.6115,1697.8855 L-242.6115,1697.5855 L-242.5865,1697.5855 L-242.5865,1697.723 L-241.9865,1697.723 L-241.9865,1697.5855 L-241.9615,1697.5855 Z" style="fill:#ff0000;fill-rule:evenodd;"/>
        <!-- Line -->
        <line x1="-242.5865" y1="1697.723" x2="-241.9865" y2="1697.723" style="stroke:#848484;stroke-width:0.0125;"/>
        <!-- Line -->
        <line x1="-242.5865" y1="1697.748" x2="-241.9865" y2="1697.748" style="stroke:#848484;stroke-width:0.0125;"/>
        <!-- Line -->
        <line x1="-242.5865" y1="1697.723" x2="-242.5865" y2="1697.5855" style="stroke:#848484;stroke-width:0.0125;"/>
        <!-- Line -->
        <line x1="-242.6115" y1="1697.5855" x2="-242.5865" y2="1697.5855" style="stroke:#848484;stroke-width:0.0125;"/>
        <!-- Line -->
        <line x1="-242.6115" y1="1697.8855" x2="-242.6115" y2="1697.5855" style="stroke:#848484;stroke-width:0.0125;"/>
        <!-- Line -->
        <line x1="-242.6115" y1="1697.8855" x2="-242.5865" y2="1697.8855" style="stroke:#848484;stroke-width:0.0125;"/>
        <!-- Line -->
        <line x1="-242.5865" y1="1697.8855" x2="-242.5865" y2="1697.748" style="stroke:#848484;stroke-width:0.0125;"/>
        <!-- Line -->
        <line x1="-241.9615" y1="1697.8855" x2="-241.9615" y2="1697.5855" style="stroke:#848484;stroke-width:0.0125;"/>
        <!-- Line -->
        <line x1="-241.9615" y1="1697.5855" x2="-241.9865" y2="1697.5855" style="stroke:#848484;stroke-width:0.0125;"/>
        <!-- Line -->
        <line x1="-241.9865" y1="1697.723" x2="-241.9865" y2="1697.5855" style="stroke:#848484;stroke-width:0.0125;"/>
        <!-- Line -->
        <line x1="-241.9865" y1="1697.8855" x2="-241.9865" y2="1697.748" style="stroke:#848484;stroke-width:0.0125;"/>
        <!-- Line -->
        <line x1="-241.9865" y1="1697.8855" x2="-241.9615" y2="1697.8855" style="stroke:#848484;stroke-width:0.0125;"/>
        <!-- Line -->
        <line x1="-242.5929" y1="1699.323" x2="-241.9929" y2="1699.323" style="stroke:#848484;stroke-width:0.0125;"/>
        <!-- Line -->
        <line x1="-242.5929" y1="1699.348" x2="-241.9929" y2="1699.348" style="stroke:#848484;stroke-width:0.0125;"/>
        <!-- Line -->
        <line x1="-242.5929" y1="1699.323" x2="-242.5929" y2="1699.1855" style="stroke:#848484;stroke-width:0.0125;"/>
        <!-- Line -->
        <line x1="-242.6179" y1="1699.1855" x2="-242.5929" y2="1699.1855" style="stroke:#848484;stroke-width:0.0125;"/>
        <!-- Line -->
        <line x1="-242.6179" y1="1699.4855" x2="-242.6179" y2="1699.1855" style="stroke:#848484;stroke-width:0.0125;"/>
        <!-- Line -->
        <line x1="-242.6179" y1="1699.4855" x2="-242.5929" y2="1699.4855" style="stroke:#848484;stroke-width:0.0125;"/>
        <!-- Line -->
        <line x1="-242.5929" y1="1699.4855" x2="-242.5929" y2="1699.348" style="stroke:#848484;stroke-width:0.0125;"/>
        <!-- Line -->
        <line x1="-241.9679" y1="1699.4855" x2="-241.9679" y2="1699.1855" style="stroke:#848484;stroke-width:0.0125;"/>
        <!-- Line -->
        <line x1="-241.9679" y1="1699.1855" x2="-241.9929" y2="1699.1855" style="stroke:#848484;stroke-width:0.0125;"/>
        <!-- Line -->
        <line x1="-241.9929" y1="1699.323" x2="-241.9929" y2="1699.1855" style="stroke:#848484;stroke-width:0.0125;"/>
        <!-- Line -->
        <line x1="-241.9929" y1="1699.4855" x2="-241.9929" y2="1699.348" style="stroke:#848484;stroke-width:0.0125;"/>
        <!-- Line -->
        <line x1="-241.9929" y1="1699.4855" x2="-241.9679" y2="1699.4855" style="stroke:#848484;stroke-width:0.0125;"/>
        <!-- Line -->
        <line x1="-240.5729" y1="1708.9993" x2="-240.5729" y2="1703.3155" style="stroke:#333333;stroke-width:0.0125;"/>
        <!-- Line -->
        <line x1="-240.3729" y1="1708.9805" x2="-240.3729" y2="1703.3155" style="stroke:#333333;stroke-width:0.0125;"/>
        <!-- Line -->
        <line x1="-240.3529" y1="1707.7855" x2="-240.3529" y2="1701.6355" style="stroke:#333333;stroke-width:0.0125;"/>
        <!-- Line -->
        <line x1="-240.2529" y1="1707.6855" x2="-240.2529" y2="1703.9355" style="stroke:#333333;stroke-width:0.0125;"/>
        <!-- Line -->
        <line x1="-240.2529" y1="1703.8655" x2="-237.6429" y2="1703.8655" style="stroke:#333333;stroke-width:0.0125;"/>
        <!-- Line -->
        <line x1="-240.2529" y1="1703.9355" x2="-237.5429" y2="1703.9355" style="stroke:#333333;stroke-width:0.0125;"/>
        <!-- Line -->
        <line x1="-240.2529" y1="1707.6855" x2="-238.4529" y2="1707.6855" style="stroke:#333333;stroke-width:0.0125;"/>
        <!-- Line -->
        <line x1="-240.3529" y1="1707.7855" x2="-238.4529" y2="1707.7855" style="stroke:#333333;stroke-width:0.0125;"/>
        <!-- Line -->
        <line x1="-238.4529" y1="1707.7855" x2="-238.4529" y2="1707.6855" style="stroke:#333333;stroke-width:0.0125;"/>
        <!-- Line -->
        <line x1="-238.4529" y1="1707.7855" x2="-238.1329" y2="1707.7855" style="stroke:#848484;stroke-width:0.0125;"/>
        <!-- Line -->
        <line x1="-238.4529" y1="1707.6855" x2="-238.1743" y2="1707.6855" style="stroke:#848484;stroke-width:0.0125;"/>
        <!-- Line -->
        <line x1="-240.7827" y1="1708.8626" x2="-240.487" y2="1709.0553" style="stroke:#848484;stroke-width:0.0125;"/>
        <!-- Line -->
        <line x1="-240.487" y1="1709.0553" x2="-240.4355" y2="1708.9396" style="stroke:#848484;stroke-width:0.0125;"/>
        <!-- Line -->
        <line x1="-240.4355" y1="1708.9396" x2="-240.1398" y2="1709.1324" style="stroke:#848484;stroke-width:0.0125;"/>
        <!-- Line -->
        <line x1="-236.4029" y1="1705.9141" x2="-236.4029" y2="1703.4155" style="stroke:#848484;stroke-width:0.0125;"/>
        <!-- Line -->
        <line x1="-236.3029" y1="1705.9555" x2="-236.3029" y2="1703.4155" style="stroke:#848484;stroke-width:0.0125;"/>
        <!-- Line -->
        <line x1="-238.1329" y1="1707.7855" x2="-236.3029" y2="1705.9555" style="stroke:#848484;stroke-width:0.0125;"/>
        <!-- Line -->
        <line x1="-238.1743" y1="1707.6855" x2="-236.4029" y2="1705.9141" style="stroke:#848484;stroke-width:0.0125;"/>
        <!-- Line -->
        <line x1="-236.4029" y1="1705.6355" x2="-236.3029" y2="1705.6355" style="stroke:#848484;stroke-width:0.0125;"/>
        <!-- Line -->
        <line x1="-236.4029" y1="1705.5355" x2="-236.3029" y2="1705.5355" style="stroke:#848484;stroke-width:0.0125;"/>
        <!-- Line -->
        <line x1="-238.1536" y1="1707.7355" x2="-236.3529" y2="1705.9348" style="stroke:#848484;stroke-width:0.0125;"/>
        <!-- Line -->
        <line x1="-238.4529" y1="1707.7355" x2="-238.1536" y2="1707.7355" style="stroke:#848484;stroke-width:0.0125;"/>
        <!-- Line -->
        <line x1="-236.3529" y1="1705.9348" x2="-236.3529" y2="1705.6355" style="stroke:#848484;stroke-width:0.0125;"/>
        <!-- Line -->
        <line x1="-236.4029" y1="1704.5355" x2="-236.3029" y2="1704.5355" style="stroke:#848484;stroke-width:0.0125;"/>
        <!-- Line -->
        <line x1="-236.4029" y1="1704.4355" x2="-236.3029" y2="1704.4355" style="stroke:#848484;stroke-width:0.0125;"/>
        <!-- Line -->
        <line x1="-237.5429" y1="1703.4155" x2="-236.3029" y2="1703.4155" style="stroke:#333333;stroke-width:0.0125;"/>
        <!-- Line -->
        <line x1="-237.5429" y1="1703.3155" x2="-236.4029" y2="1703.3155" style="stroke:#333333;stroke-width:0.0125;"/>
        <!-- Line -->
        <line x1="-236.3029" y1="1703.4155" x2="-236.3029" y2="1702.5355" style="stroke:#333333;stroke-width:0.0125;"/>
        <!-- Line -->
        <line x1="-236.4029" y1="1703.3155" x2="-236.4029" y2="1702.5355" style="stroke:#333333;stroke-width:0.0125;"/>
        <!-- Line -->
        <line x1="-236.3529" y1="1704.4355" x2="-236.3529" y2="1703.4155" style="stroke:#848484;stroke-width:0.0125;"/>
        <!-- Line -->
        <line x1="-237.5429" y1="1703.9355" x2="-237.5429" y2="1703.4155" style="stroke:#333333;stroke-width:0.0125;"/>
        <!-- Line -->
        <line x1="-237.6429" y1="1703.8655" x2="-237.6429" y2="1701.7355" style="stroke:#333333;stroke-width:0.0125;"/>
        <!-- Line -->
        <line x1="-236.3029" y1="1704.5355" x2="-235.4029" y2="1704.5355" style="stroke:#848484;stroke-width:0.0125;"/>
        <!-- Line -->
        <line x1="-236.3029" y1="1704.5855" x2="-235.4029" y2="1704.5855" style="stroke:#848484;stroke-width:0.0125;"/>
        <!-- Line -->
        <line x1="-235.4029" y1="1704.5855" x2="-235.4029" y2="1704.5355" style="stroke:#848484;stroke-width:0.0125;"/>
        <!-- Line -->
        <line x1="-236.3029" y1="1705.5355" x2="-235.4029" y2="1704.5855" style="stroke:#848484;stroke-width:0.0125;"/>
        <!-- Text: SALA DE CONTROL -->
        <text x="-237.2596" dx="0" y="-1705.1995" dy="0.1201" font-family="arial" font-size="0.1682" line-height="1.1" fill="#000000" transform="scale(1,-1) rotate(360 -237.2596,-1705.1995)" text-anchor="end">SALA DE CONTROL</text>
        <!-- Text: BAÑO -->
        <text x="-236.8198" dx="0" y="-1702.6254" dy="0.08" font-family="arial" font-size="0.112" line-height="1.1" fill="#000000" transform="scale(1,-1) rotate(360 -236.8198,-1702.6254)" text-anchor="end">BAÑO</text>
        <!-- Line -->
        <line x1="-237.3416" y1="1705.6154" x2="-236.7406" y2="1706.2164" style="stroke:#848484;stroke-width:0.0125;"/>
        <!-- Line -->
        <line x1="-238.473" y1="1706.7468" x2="-237.872" y2="1707.3478" style="stroke:#848484;stroke-width:0.0125;"/>
        <!-- Line -->
        <line x1="-237.872" y1="1707.3478" x2="-236.7406" y2="1706.2164" style="stroke:#848484;stroke-width:0.0125;"/>
        <!-- Line -->
        <line x1="-238.473" y1="1706.7468" x2="-237.3416" y2="1705.6154" style="stroke:#848484;stroke-width:0.0125;"/>
        <!-- Text: PUPITRE -->
        <text x="-237.3655" dx="0" y="-1706.3163" dy="0.1007" font-family="arial" font-size="0.141" line-height="1.1" fill="#000000" transform="scale(1,-1) rotate(45 -237.3655,-1706.3163)" text-anchor="end">PUPITRE</text>
        <!-- Line -->
        <line x1="-240.2615" y1="1707.0855" x2="-239.6529" y2="1707.0855" style="stroke:#848484;stroke-width:0.0125;"/>
        <!-- Line -->
        <line x1="-239.6529" y1="1707.0855" x2="-239.6529" y2="1703.9605" style="stroke:#848484;stroke-width:0.0125;"/>
        <!-- Line -->
        <line x1="-240.2529" y1="1703.9605" x2="-239.6529" y2="1703.9605" style="stroke:#848484;stroke-width:0.0125;"/>
        <!-- Line -->
        <line x1="-236.3029" y1="1701.7355" x2="-236.3029" y2="1701.6355" style="stroke:#333333;stroke-width:0.0125;"/>
        <!-- Line -->
        <line x1="-236.4029" y1="1701.7355" x2="-236.4029" y2="1701.6355" style="stroke:#333333;stroke-width:0.0125;"/>
        <!-- Line -->
        <line x1="-236.4029" y1="1701.7355" x2="-236.3029" y2="1701.7355" style="stroke:#333333;stroke-width:0.0125;"/>
        <!-- Line -->
        <line x1="-236.4029" y1="1701.6355" x2="-236.3029" y2="1701.6355" style="stroke:#333333;stroke-width:0.0125;"/>
        <!-- Line -->
        <line x1="-237.2029" y1="1701.7355" x2="-237.2029" y2="1701.6355" style="stroke:#333333;stroke-width:0.0125;"/>
        <!-- Line -->
        <line x1="-236.4029" y1="1702.5355" x2="-236.3029" y2="1702.5355" style="stroke:#333333;stroke-width:0.0125;"/>
        <!-- Line -->
        <line x1="-236.3029" y1="1702.5355" x2="-236.3029" y2="1701.7355" style="stroke:#848484;stroke-width:0.0125;"/>
        <!-- Line -->
        <line x1="-236.4029" y1="1702.5355" x2="-236.4029" y2="1701.7355" style="stroke:#848484;stroke-width:0.0125;"/>
        <!-- Line -->
        <line x1="-236.3529" y1="1701.7355" x2="-236.3529" y2="1702.5355" style="stroke:#848484;stroke-width:0.0125;"/>
        <!-- Line -->
        <line x1="-237.1779" y1="1701.7355" x2="-237.1779" y2="1701.6355" style="stroke:#848484;stroke-width:0.0125;"/>
        <!-- Line -->
        <line x1="-237.2029" y1="1701.7355" x2="-237.1779" y2="1701.7355" style="stroke:#848484;stroke-width:0.0125;"/>
        <!-- Line -->
        <line x1="-237.1779" y1="1701.6355" x2="-237.2029" y2="1701.6355" style="stroke:#848484;stroke-width:0.0125;"/>
        <!-- Line -->
        <line x1="-236.4029" y1="1701.6355" x2="-236.4029" y2="1700.8855" style="stroke:#848484;stroke-width:0.0125;"/>
        <!-- Line -->
        <line x1="-236.4529" y1="1701.6355" x2="-236.4529" y2="1700.8855" style="stroke:#848484;stroke-width:0.0125;"/>
        <!-- Line -->
        <line x1="-236.4029" y1="1701.6355" x2="-236.4529" y2="1701.6355" style="stroke:#848484;stroke-width:0.0125;"/>
        <!-- Line -->
        <line x1="-236.4029" y1="1700.8855" x2="-236.4529" y2="1700.8855" style="stroke:#848484;stroke-width:0.0125;"/>
        <!-- Line -->
        <line x1="-237.1779" y1="1701.6355" x2="-236.4529" y2="1700.8855" style="stroke:#848484;stroke-width:0.0125;"/>
        <!-- Line -->
        <line x1="-237.1779" y1="1701.7355" x2="-236.4029" y2="1701.7355" style="stroke:#848484;stroke-width:0.0125;"/>
        <!-- Line -->
        <line x1="-236.4529" y1="1701.6355" x2="-237.1779" y2="1701.6355" style="stroke:#848484;stroke-width:0.0125;"/>
        <!-- Line -->
        <line x1="-239.0429" y1="1701.7355" x2="-239.0429" y2="1701.6355" style="stroke:#333333;stroke-width:0.0125;"/>
        <!-- Line -->
        <line x1="-238.9429" y1="1701.7355" x2="-238.9429" y2="1701.6355" style="stroke:#333333;stroke-width:0.0125;"/>
        <!-- Line -->
        <line x1="-239.0429" y1="1701.6355" x2="-238.9429" y2="1701.6355" style="stroke:#333333;stroke-width:0.0125;"/>
        <!-- Line -->
        <line x1="-239.0429" y1="1701.7355" x2="-238.9429" y2="1701.7355" style="stroke:#333333;stroke-width:0.0125;"/>
        <!-- Line -->
        <line x1="-239.0429" y1="1701.7355" x2="-240.2529" y2="1701.7355" style="stroke:#848484;stroke-width:0.0125;"/>
        <!-- Line -->
        <line x1="-239.0429" y1="1701.6355" x2="-240.2529" y2="1701.6355" style="stroke:#848484;stroke-width:0.0125;"/>
        <!-- Line -->
        <line x1="-239.0429" y1="1701.6855" x2="-240.2529" y2="1701.6855" style="stroke:#848484;stroke-width:0.0125;"/>
        <!-- Line -->
        <line x1="-238.1429" y1="1701.7355" x2="-238.1429" y2="1701.6355" style="stroke:#333333;stroke-width:0.0125;"/>
        <!-- Line -->
        <line x1="-238.1429" y1="1701.7355" x2="-237.6429" y2="1701.7355" style="stroke:#333333;stroke-width:0.0125;"/>
        <!-- Line -->
        <line x1="-238.1429" y1="1701.6355" x2="-237.2029" y2="1701.6355" style="stroke:#333333;stroke-width:0.0125;"/>
        <!-- Line -->
        <line x1="-238.9179" y1="1701.6355" x2="-238.1929" y2="1700.8855" style="stroke:#848484;stroke-width:0.0125;"/>
        <!-- Line -->
        <line x1="-238.1929" y1="1701.6355" x2="-238.1929" y2="1700.8855" style="stroke:#848484;stroke-width:0.0125;"/>
        <!-- Line -->
        <line x1="-238.1429" y1="1701.6355" x2="-238.1429" y2="1700.8855" style="stroke:#848484;stroke-width:0.0125;"/>
        <!-- Line -->
        <line x1="-238.1429" y1="1700.8855" x2="-238.1929" y2="1700.8855" style="stroke:#848484;stroke-width:0.0125;"/>
        <!-- Line -->
        <line x1="-238.1929" y1="1701.6355" x2="-238.9179" y2="1701.6355" style="stroke:#848484;stroke-width:0.0125;"/>
        <!-- Line -->
        <line x1="-238.9179" y1="1701.7355" x2="-238.1429" y2="1701.7355" style="stroke:#848484;stroke-width:0.0125;"/>
        <!-- Line -->
        <line x1="-238.9179" y1="1701.6355" x2="-238.9429" y2="1701.6355" style="stroke:#848484;stroke-width:0.0125;"/>
        <!-- Line -->
        <line x1="-238.9429" y1="1701.7355" x2="-238.9179" y2="1701.7355" style="stroke:#848484;stroke-width:0.0125;"/>
        <!-- Line -->
        <line x1="-238.9179" y1="1701.7355" x2="-238.9179" y2="1701.6355" style="stroke:#848484;stroke-width:0.0125;"/>
        <!-- Line -->
        <line x1="-238.1429" y1="1701.6355" x2="-238.1929" y2="1701.6355" style="stroke:#848484;stroke-width:0.0125;"/>
        <!-- Line -->
        <line x1="-240.3729" y1="1701.6355" x2="-240.5729" y2="1701.6355" style="stroke:#333333;stroke-width:0.0125;"/>
        <!-- Line -->
        <line x1="-240.3729" y1="1703.3155" x2="-240.5729" y2="1703.3155" style="stroke:#333333;stroke-width:0.0125;"/>
        <!-- Line -->
        <line x1="-240.3729" y1="1703.3155" x2="-240.3729" y2="1701.6355" style="stroke:#333333;stroke-width:0.0125;"/>
        <!-- Line -->
        <line x1="-240.5729" y1="1703.3155" x2="-240.5729" y2="1701.6355" style="stroke:#333333;stroke-width:0.0125;"/>
        <!-- Line -->
        <line x1="-237.5429" y1="1701.7355" x2="-237.2029" y2="1701.7355" style="stroke:#333333;stroke-width:0.0125;"/>
        <!-- Line -->
        <line x1="-237.5429" y1="1703.3155" x2="-237.5429" y2="1701.7355" style="stroke:#333333;stroke-width:0.0125;"/>
        <!-- Line -->
        <line x1="-240.2529" y1="1703.8655" x2="-240.2529" y2="1701.6355" style="stroke:#333333;stroke-width:0.0125;"/>
        <!-- Line -->
        <line x1="-234.6154" y1="1704.0571" x2="-232.9516" y2="1704.06" style="stroke:#009900;stroke-width:0.0125;"/>
        <!-- Line -->
        <line x1="-233.7835" y1="1705.7244" x2="-232.9516" y2="1704.06" style="stroke:#000000;stroke-width:0.0125;"/>
        <!-- Line -->
        <line x1="-233.3675" y1="1704.0593" x2="-233.3675" y2="1702.1414" style="stroke:#000000;stroke-width:0.0125;"/>
        <!-- Line -->
        <line x1="-234.1995" y1="1702.1414" x2="-233.3675" y2="1702.1414" style="stroke:#000000;stroke-width:0.0125;"/>
        <!-- Line -->
        <line x1="-233.7835" y1="1705.7244" x2="-234.6154" y2="1704.0571" style="stroke:#000000;stroke-width:0.0125;"/>
        <!-- Line -->
        <line x1="-234.1995" y1="1704.0578" x2="-234.1995" y2="1702.1414" style="stroke:#000000;stroke-width:0.0125;"/>
        <!-- Hatch -->
        <path d="M-233.7835,1705.7244 L-234.6154,1704.0571 L-232.9516,1704.06 ZM-233.3675,1704.0593 L-234.1995,1704.0578 L-234.1995,1702.1414 L-233.3675,1702.1414 Z" style="fill:#009900;fill-rule:evenodd;"/>
        <!-- Hatch -->
        <path d="M-240.3729,1708.9805 L-240.4355,1708.9396 L-240.487,1709.0553 L-240.5729,1708.9993 L-240.5729,1703.3155 L-240.3729,1703.3155 ZM-240.3729,1703.3155 L-240.5729,1703.3155 L-240.5729,1701.6355 L-240.3729,1701.6355 ZM-238.4529,1707.7855 L-240.3529,1707.7855 L-240.3529,1701.6355 L-240.2529,1701.6355 L-240.2529,1703.8655 L-237.6429,1703.8655 L-237.6429,1701.7355 L-238.1429,1701.7355 L-238.1429,1701.6355 L-237.2029,1701.6355 L-237.2029,1701.7355 L-237.5429,1701.7355 L-237.5429,1703.3155 L-236.4029,1703.3155 L-236.4029,1702.5355 L-236.3029,1702.5355 L-236.3029,1703.4155 L-237.5429,1703.4155 L-237.5429,1703.9355 L-240.2529,1703.9355 L-240.2529,1707.6855 L-238.4529,1707.6855 Z" style="fill:#000000;fill-rule:evenodd;"/>
        <!-- Hatch -->
        <path d="M-238.9429,1701.7355 L-239.0429,1701.7355 L-239.0429,1701.6355 L-238.9429,1701.6355 Z" style="fill:#808080;fill-rule:evenodd;"/>
        <!-- Hatch -->
        <path d="M-238.9429,1701.7355 L-239.0429,1701.7355 L-239.0429,1701.6355 L-238.9429,1701.6355 Z" style="fill:#000000;fill-rule:evenodd;"/>
        <!-- Hatch -->
        <path d="M-238.9179,1701.7355 L-238.9429,1701.7355 L-238.9429,1701.6355 L-238.9179,1701.6355 ZM-238.1429,1701.6355 L-238.1929,1701.6355 L-238.1929,1700.8855 L-238.1429,1700.8855 ZM-237.1779,1701.7355 L-237.2029,1701.7355 L-237.2029,1701.6355 L-237.1779,1701.6355 ZM-236.4029,1701.6355 L-236.4529,1701.6355 L-236.4529,1700.8855 L-236.4029,1700.8855 Z" style="fill:#808080;fill-rule:evenodd;"/>
        <!-- Hatch -->
        <path d="M-236.3029,1701.7355 L-236.4029,1701.7355 L-236.4029,1701.6355 L-236.3029,1701.6355 Z" style="fill:#000000;fill-rule:evenodd;"/>
        <!-- Hatch -->
        <path d="M-236.3529,1702.5355 L-236.4029,1702.5355 L-236.4029,1701.7355 L-236.3529,1701.7355 ZM-236.3029,1702.5355 L-236.3529,1702.5355 L-236.3529,1701.7355 L-236.3029,1701.7355 ZM-236.3529,1704.4355 L-236.4029,1704.4355 L-236.4029,1703.4155 L-236.3529,1703.4155 ZM-236.3029,1704.4355 L-236.3529,1704.4355 L-236.3529,1703.4155 L-236.3029,1703.4155 ZM-236.3529,1705.9348 L-238.1536,1707.7355 L-238.4529,1707.7355 L-238.4529,1707.6855 L-238.1743,1707.6855 L-236.4029,1705.9141 L-236.4029,1705.6355 L-236.3529,1705.6355 ZM-236.3029,1705.9555 L-238.1329,1707.7855 L-238.4529,1707.7855 L-238.4529,1707.7355 L-238.1536,1707.7355 L-236.3529,1705.9348 L-236.3529,1705.6355 L-236.3029,1705.6355 ZM-239.0429,1701.7355 L-240.2529,1701.7355 L-240.2529,1701.6855 L-239.0429,1701.6855 ZM-239.0429,1701.6855 L-240.2529,1701.6855 L-240.2529,1701.6355 L-239.0429,1701.6355 Z" style="fill:#00ff00;fill-rule:evenodd;"/>
        <!-- Hatch -->
        <path d="M-237.872,1707.3478 L-238.473,1706.7468 L-237.3416,1705.6154 L-236.7406,1706.2164 ZM-239.6529,1707.0855 L-240.2529,1707.0855 L-240.2529,1703.9605 L-239.6529,1703.9605 ZM-237.9256,1706.6936 L-237.4391,1706.2071 L-237.3324,1706.3139 L-237.8188,1706.8004 Z" style="fill:#997200;fill-rule:evenodd;"/>
        <!-- Hatch -->
        <path d="M-236.3029,1705.6355 L-236.4029,1705.6355 L-236.4029,1705.5355 L-236.3029,1705.5355 ZM-236.3029,1704.5355 L-236.4029,1704.5355 L-236.4029,1704.4355 L-236.3029,1704.4355 ZM-235.4029,1704.5855 L-236.3029,1704.5855 L-236.3029,1704.5355 L-235.4029,1704.5355 Z" style="fill:#808080;fill-rule:evenodd;"/>
        <!-- Hatch -->
        <path d="M-236.3029,1705.5355 L-236.3029,1704.5855 L-235.4029,1704.5855 ZM-236.3029,1705.5355 L-236.4029,1705.5355 L-236.4029,1704.5355 L-236.3029,1704.5355 ZM-236.4029,1701.7355 L-237.1779,1701.7355 L-237.1779,1701.6355 L-236.4529,1701.6355 L-236.4029,1701.6355 ZM-236.4529,1701.6355 L-237.1779,1701.6355 L-236.4529,1700.8855 ZM-238.1429,1701.7355 L-238.9179,1701.7355 L-238.9179,1701.6355 L-238.1929,1701.6355 L-238.1429,1701.6355 ZM-238.1929,1701.6355 L-238.9179,1701.6355 L-238.1929,1700.8855 Z" style="fill:#d7ebd2;fill-rule:evenodd;"/>
        <!-- Line -->
        <line x1="-238.0033" y1="1700.5785" x2="-238.0004" y2="1698.9147" style="stroke:#009900;stroke-width:0.0125;"/>
        <!-- Line -->
        <line x1="-236.336" y1="1699.7466" x2="-238.0004" y2="1698.9147" style="stroke:#000000;stroke-width:0.0125;"/>
        <!-- Line -->
        <line x1="-238.0011" y1="1699.3307" x2="-239.919" y2="1699.3307" style="stroke:#000000;stroke-width:0.0125;"/>
        <!-- Line -->
        <line x1="-239.919" y1="1700.1626" x2="-239.919" y2="1699.3307" style="stroke:#000000;stroke-width:0.0125;"/>
        <!-- Line -->
        <line x1="-236.336" y1="1699.7466" x2="-238.0033" y2="1700.5785" style="stroke:#000000;stroke-width:0.0125;"/>
        <!-- Line -->
        <line x1="-238.0025" y1="1700.1626" x2="-239.919" y2="1700.1626" style="stroke:#000000;stroke-width:0.0125;"/>
        <!-- Hatch -->
        <path d="M-236.336,1699.7466 L-238.0033,1700.5785 L-238.0004,1698.9147 ZM-238.0011,1699.3307 L-238.0025,1700.1626 L-239.919,1700.1626 L-239.919,1699.3307 Z" style="fill:#009900;fill-rule:evenodd;"/>
    </g>
</svg>
