<?xml version="1.0" encoding="UTF-8"?>
<!-- 2020-09-05 22:24:40 Generated by QCAD 3.24.3 SVG Exporter PG -->
<svg width="279.722mm" height="419.558mm" viewBox="-0.125 -20.8529 13.9861 20.9779" version="1.1" xmlns="http://www.w3.org/2000/svg" style="stroke-linecap:round;stroke-linejoin:round;fill:none">
    <g transform="scale(1,-1)">
        <!-- Hatch -->
        <path d="M3.9704,17.6635 L3.4204,17.6635 L3.4204,3.2265 L3.9704,3.2265 L3.9704,3.3765 L3.5704,3.3765 L3.5704,3.7765 L3.7004,3.7765 L3.7004,9.9635 L3.5704,9.9635 L3.5704,10.3635 L3.7004,10.3635 L3.7004,17.1135 L3.5704,17.1135 L3.5704,17.5135 L3.9704,17.5135 ZM10.7204,17.6635 L8.5704,17.6635 L8.5704,17.3835 L10.7204,17.3835 ZM10.9204,17.6635 L10.7204,17.6635 L10.7204,16.1635 L10.9204,16.1635 L10.9204,16.1635 ZM10.9204,15.0135 L10.7204,15.0135 L10.7204,14.6325 L10.7204,3.5065 L8.5704,3.5065 L8.5704,3.2265 L10.9204,3.2265 ZM10.7204,10.1235 L8.5704,10.1235 L8.5704,9.9635 L10.7204,9.9635 ZM7.6204,10.1235 L4.9204,10.1235 L4.9204,9.9635 L6.1604,9.9635 L6.1604,3.5065 L5.2204,3.5065 L5.2204,3.2265 L7.0704,3.2265 L7.0704,3.5065 L6.3204,3.5065 L6.3204,9.9635 L7.6204,9.9635 ZM5.596,3.602 L6.2417,3.602 L6.2417,3.9111 L5.596,3.9111 Z" style="fill:#000000;fill-rule:evenodd;"/>
        <!-- Line -->
        <line x1="3.4204" y1="17.6635" x2="3.4204" y2="3.2265" style="stroke:#333333;stroke-width:0.0125;"/>
        <!-- Line -->
        <line x1="10.9204" y1="17.6635" x2="10.9204" y2="16.1635" style="stroke:#333333;stroke-width:0.0125;"/>
        <!-- Line -->
        <line x1="3.7004" y1="17.1135" x2="3.7004" y2="10.3635" style="stroke:#333333;stroke-width:0.0125;"/>
        <!-- Line -->
        <line x1="8.5704" y1="17.6635" x2="10.7204" y2="17.6635" style="stroke:#333333;stroke-width:0.0125;"/>
        <!-- Line -->
        <line x1="10.7204" y1="17.6635" x2="10.7204" y2="16.1635" style="stroke:#333333;stroke-width:0.0125;"/>
        <!-- Line -->
        <line x1="8.5704" y1="17.3835" x2="10.7204" y2="17.3835" style="stroke:#333333;stroke-width:0.0125;"/>
        <!-- Hatch -->
        <path d="M3.9704,3.7765 L3.5704,3.7765 L3.5704,3.3765 L3.9704,3.3765 ZM3.9704,10.3635 L3.5704,10.3635 L3.5704,9.9635 L3.9704,9.9635 ZM3.9704,17.5135 L3.5704,17.5135 L3.5704,17.1135 L3.9704,17.1135 ZM7.3479,11.0198 L6.2087,11.0198 L6.2087,10.1235 L6.3272,10.1235 L6.3272,10.8962 L7.2345,10.8962 L7.2345,10.1235 L7.3479,10.1235 Z" style="fill:#00994c;fill-rule:evenodd;"/>
        <!-- Hatch -->
        <path d="M4.0704,11.1235 L4.0204,11.1235 L4.0204,10.1235 L4.0704,10.1235 ZM4.0204,10.1235 L3.9704,10.1235 L3.9704,9.9635 L4.0204,9.9635 ZM4.9204,10.1235 L4.8704,10.1235 L4.8704,9.9635 L4.9204,9.9635 ZM7.6704,10.1235 L7.6204,10.1235 L7.6204,9.9635 L7.6704,9.9635 ZM8.5704,10.1235 L8.5204,10.1235 L8.5204,9.9635 L8.5704,9.9635 ZM8.5204,11.1235 L8.4704,11.1235 L8.4704,10.1235 L8.5204,10.1235 ZM7.2345,10.8962 L6.3272,10.8962 L6.3272,10.2729 L7.2345,10.2729 ZM6.3891,10.3193 L6.3891,10.8447 L7.1778,10.8447 L7.1778,10.3193 ZM7.2345,10.2729 L6.3272,10.2729 L6.3272,10.1235 L6.3891,10.1235 L6.3891,10.2265 L7.1778,10.2265 L7.1778,10.1235 L7.2345,10.1235 Z" style="fill:#636466;fill-rule:evenodd;"/>
        <!-- Line -->
        <line x1="4.9204" y1="10.1235" x2="7.6204" y2="10.1235" style="stroke:#333333;stroke-width:0.0125;"/>
        <!-- Line -->
        <line x1="5.2204" y1="3.5065" x2="6.1604" y2="3.5065" style="stroke:#333333;stroke-width:0.0125;"/>
        <!-- Line -->
        <line x1="7.6204" y1="9.9635" x2="7.6704" y2="9.9635" style="stroke:#808080;stroke-width:0.0125;"/>
        <!-- Line -->
        <line x1="3.4204" y1="3.2265" x2="3.9704" y2="3.2265" style="stroke:#333333;stroke-width:0.0125;"/>
        <!-- Line -->
        <line x1="3.5704" y1="17.5135" x2="3.9704" y2="17.5135" style="stroke:#333333;stroke-width:0.0125;"/>
        <!-- Line -->
        <line x1="4.0204" y1="11.1235" x2="4.0704" y2="11.1235" style="stroke:#808080;stroke-width:0.0125;"/>
        <!-- Line -->
        <line x1="3.5704" y1="17.1135" x2="3.9704" y2="17.1135" style="stroke:#333333;stroke-width:0.0125;"/>
        <!-- Hatch -->
        <path d="M4.058,19.7167 L4.008,19.7167 L4.008,17.5493 L4.058,17.5493 ZM4.008,17.6635 L3.9704,17.6635 L3.9704,17.5493 L4.008,17.5493 ZM4.008,17.5493 L3.9704,17.5493 L3.9704,17.5135 L3.9704,17.3835 L4.008,17.3835 ZM8.5327,19.7167 L8.4827,19.7167 L8.4827,17.5493 L8.5327,17.5493 ZM8.5704,17.6635 L8.5327,17.6635 L8.5327,17.5493 L8.5704,17.5493 ZM8.5704,17.5493 L8.5327,17.5493 L8.5327,17.3835 L8.5704,17.3835 Z" style="fill:#636466;fill-rule:evenodd;"/>
        <!-- Line -->
        <line x1="3.9704" y1="17.5135" x2="3.9704" y2="17.1135" style="stroke:#333333;stroke-width:0.0125;"/>
        <!-- Line -->
        <line x1="3.5704" y1="17.5135" x2="3.5704" y2="17.1135" style="stroke:#333333;stroke-width:0.0125;"/>
        <!-- Line -->
        <line x1="3.5704" y1="10.3635" x2="3.9704" y2="10.3635" style="stroke:#333333;stroke-width:0.0125;"/>
        <!-- Line -->
        <line x1="3.5704" y1="10.3635" x2="3.5704" y2="9.9635" style="stroke:#333333;stroke-width:0.0125;"/>
        <!-- Line -->
        <line x1="3.9704" y1="10.3635" x2="3.9704" y2="9.9635" style="stroke:#333333;stroke-width:0.0125;"/>
        <!-- Line -->
        <line x1="3.5704" y1="9.9635" x2="3.9704" y2="9.9635" style="stroke:#333333;stroke-width:0.0125;"/>
        <!-- Line -->
        <line x1="3.7004" y1="9.9635" x2="3.7004" y2="3.7765" style="stroke:#333333;stroke-width:0.0125;"/>
        <!-- Line -->
        <line x1="4.9204" y1="9.9635" x2="6.1604" y2="9.9635" style="stroke:#333333;stroke-width:0.0125;"/>
        <!-- Line -->
        <line x1="8.5704" y1="17.6635" x2="8.5704" y2="17.3835" style="stroke:#333333;stroke-width:0.0125;"/>
        <!-- Line -->
        <line x1="3.9704" y1="17.5135" x2="3.9704" y2="17.6635" style="stroke:#333333;stroke-width:0.0125;"/>
        <!-- Line -->
        <line x1="3.4204" y1="17.6635" x2="3.9704" y2="17.6635" style="stroke:#333333;stroke-width:0.0125;"/>
        <!-- Line -->
        <line x1="8.5704" y1="17.6635" x2="8.5327" y2="17.6635" style="stroke:#808080;stroke-width:0.0125;"/>
        <!-- Hatch -->
        <path d="M10.9204,16.0635 L10.9204,16.1135 L10.7204,16.1135 L10.7204,15.0635 L10.9204,15.0635 ZM11.9204,16.0635 L10.9204,16.0635 L10.9204,15.0635 ZM4.058,19.7167 L4.058,17.6635 L6.1538,17.6635 ZM8.4827,19.7167 L6.3869,17.6635 L8.4827,17.6635 ZM8.4827,17.6635 L6.3869,17.6635 L6.2704,17.5493 L8.4827,17.5493 ZM6.1538,17.6635 L4.058,17.6635 L4.058,17.5493 L6.2704,17.5493 ZM8.5327,17.5493 L8.4827,17.5493 L6.2704,17.5493 L4.058,17.5493 L4.008,17.5493 L4.008,17.3835 L8.5327,17.3835 ZM6.3869,17.6635 L6.1538,17.6635 L6.2704,17.5493 ZM4.0704,11.1235 L4.0704,10.1235 L4.8704,10.1235 ZM4.8704,10.1235 L4.0704,10.1235 L4.0204,10.1235 L4.0204,9.9635 L4.8704,9.9635 ZM8.4704,11.1235 L7.6704,10.1235 L8.4704,10.1235 ZM8.5204,10.1235 L8.4704,10.1235 L7.6704,10.1235 L7.6704,9.9635 L8.5204,9.9635 Z" style="fill:#d7ebd2;fill-rule:evenodd;"/>
        <!-- Line -->
        <line x1="8.5704" y1="17.3835" x2="3.9704" y2="17.3835" style="stroke:#808080;stroke-width:0.0125;"/>
        <!-- Line -->
        <line x1="4.008" y1="19.7167" x2="4.008" y2="17.3835" style="stroke:#808080;stroke-width:0.0125;"/>
        <!-- Line -->
        <line x1="3.9704" y1="17.5493" x2="4.058" y2="17.5493" style="stroke:#808080;stroke-width:0.0125;"/>
        <!-- Line -->
        <line x1="4.058" y1="19.7167" x2="4.058" y2="17.5493" style="stroke:#808080;stroke-width:0.0125;"/>
        <!-- Line -->
        <line x1="4.008" y1="19.7167" x2="4.058" y2="19.7167" style="stroke:#808080;stroke-width:0.0125;"/>
        <!-- Line -->
        <line x1="5.1204" y1="3.8265" x2="5.1204" y2="3.8265" style="stroke:#808080;stroke-width:0.0125;"/>
        <!-- Line -->
        <line x1="4.008" y1="17.6635" x2="3.9704" y2="17.6635" style="stroke:#808080;stroke-width:0.0125;"/>
        <!-- Line -->
        <line x1="8.4827" y1="19.7167" x2="8.4827" y2="17.5493" style="stroke:#808080;stroke-width:0.0125;"/>
        <!-- Line -->
        <line x1="8.5327" y1="19.7167" x2="8.5327" y2="17.3835" style="stroke:#808080;stroke-width:0.0125;"/>
        <!-- Line -->
        <line x1="8.5327" y1="19.7167" x2="8.4827" y2="19.7167" style="stroke:#808080;stroke-width:0.0125;"/>
        <!-- Line -->
        <line x1="8.5704" y1="17.5493" x2="8.4827" y2="17.5493" style="stroke:#808080;stroke-width:0.0125;"/>
        <!-- Line -->
        <line x1="8.4827" y1="17.6635" x2="4.058" y2="17.6635" style="stroke:#808080;stroke-width:0.0125;"/>
        <!-- Line -->
        <line x1="10.7204" y1="15.0135" x2="10.7204" y2="3.5065" style="stroke:#333333;stroke-width:0.0125;"/>
        <!-- Line -->
        <line x1="10.9204" y1="15.0135" x2="10.9204" y2="3.2265" style="stroke:#333333;stroke-width:0.0125;"/>
        <!-- Hatch -->
        <path d="M4.0704,4.2565 L4.0204,4.2565 L4.0204,3.5065 L4.0704,3.5065 ZM4.0204,3.5065 L3.9704,3.5065 L3.9704,3.3765 L4.0204,3.3765 ZM5.1704,3.8265 L5.1204,3.8265 L5.1204,3.5065 L5.1704,3.5065 ZM5.2204,3.5065 L5.1704,3.5065 L5.1704,3.3765 L5.2204,3.3765 ZM7.1704,4.1765 L7.1204,4.1765 L7.1204,3.5065 L7.1704,3.5065 ZM7.1204,3.5065 L7.0704,3.5065 L7.0704,3.3765 L7.1204,3.3765 ZM8.5204,4.1765 L8.4704,4.1765 L8.4704,3.5065 L8.5204,3.5065 ZM8.5704,3.5065 L8.5204,3.5065 L8.5204,3.3765 L8.5704,3.3765 ZM10.9204,16.1635 L10.7204,16.1635 L10.7204,16.1135 L10.9204,16.1135 ZM11.9204,16.1135 L10.9204,16.1135 L10.9204,16.0635 L11.9204,16.0635 ZM10.9204,15.0635 L10.7204,15.0635 L10.7204,15.0135 L10.9204,15.0135 Z" style="fill:#636466;fill-rule:evenodd;"/>
        <!-- Line -->
        <line x1="10.9204" y1="16.1635" x2="10.7204" y2="16.1635" style="stroke:#333333;stroke-width:0.0125;"/>
        <!-- Line -->
        <line x1="10.9204" y1="15.0135" x2="10.7204" y2="15.0135" style="stroke:#333333;stroke-width:0.0125;"/>
        <!-- Line -->
        <line x1="10.7204" y1="16.1135" x2="10.9204" y2="16.1135" style="stroke:#808080;stroke-width:0.0125;"/>
        <!-- Line -->
        <line x1="10.7204" y1="15.0635" x2="10.9204" y2="15.0635" style="stroke:#808080;stroke-width:0.0125;"/>
        <!-- Line -->
        <line x1="10.9204" y1="16.1135" x2="10.9204" y2="16.1635" style="stroke:#808080;stroke-width:0.0125;"/>
        <!-- Line -->
        <line x1="10.9204" y1="15.0635" x2="10.9204" y2="15.0135" style="stroke:#808080;stroke-width:0.0125;"/>
        <!-- Line -->
        <line x1="10.9204" y1="16.1135" x2="11.9204" y2="16.1135" style="stroke:#808080;stroke-width:0.0125;"/>
        <!-- Line -->
        <line x1="10.9204" y1="16.0635" x2="11.9204" y2="16.0635" style="stroke:#808080;stroke-width:0.0125;"/>
        <!-- Line -->
        <line x1="10.9204" y1="16.1135" x2="10.9204" y2="16.0635" style="stroke:#808080;stroke-width:0.0125;"/>
        <!-- Line -->
        <line x1="10.7204" y1="16.1635" x2="10.7204" y2="16.1135" style="stroke:#808080;stroke-width:0.0125;"/>
        <!-- Line -->
        <line x1="11.9204" y1="16.1135" x2="11.9204" y2="16.1135" style="stroke:#808080;stroke-width:0.0125;"/>
        <!-- Line -->
        <line x1="11.9204" y1="16.1135" x2="11.9204" y2="16.0635" style="stroke:#808080;stroke-width:0.0125;"/>
        <!-- Line -->
        <line x1="10.7204" y1="15.0635" x2="10.7204" y2="15.0135" style="stroke:#808080;stroke-width:0.0125;"/>
        <!-- Line -->
        <line x1="6.3204" y1="9.9635" x2="6.3204" y2="3.5065" style="stroke:#333333;stroke-width:0.0125;"/>
        <!-- Line -->
        <line x1="6.1604" y1="9.9635" x2="6.1604" y2="3.5065" style="stroke:#333333;stroke-width:0.0125;"/>
        <!-- Line -->
        <line x1="6.3204" y1="9.9635" x2="7.6204" y2="9.9635" style="stroke:#333333;stroke-width:0.0125;"/>
        <!-- Line -->
        <line x1="4.9204" y1="10.1235" x2="4.9204" y2="9.9635" style="stroke:#333333;stroke-width:0.0125;"/>
        <!-- Line -->
        <line x1="7.6204" y1="10.1235" x2="7.6204" y2="9.9635" style="stroke:#333333;stroke-width:0.0125;"/>
        <!-- Line -->
        <line x1="8.5704" y1="10.1235" x2="8.5704" y2="9.9635" style="stroke:#333333;stroke-width:0.0125;"/>
        <!-- Line -->
        <line x1="8.5704" y1="9.9635" x2="10.7204" y2="9.9635" style="stroke:#333333;stroke-width:0.0125;"/>
        <!-- Line -->
        <line x1="8.5704" y1="10.1235" x2="10.7204" y2="10.1235" style="stroke:#333333;stroke-width:0.0125;"/>
        <!-- Line -->
        <line x1="4.8704" y1="10.1235" x2="4.8704" y2="9.9635" style="stroke:#808080;stroke-width:0.0125;"/>
        <!-- Line -->
        <line x1="4.8704" y1="10.1235" x2="4.9204" y2="10.1235" style="stroke:#808080;stroke-width:0.0125;"/>
        <!-- Line -->
        <line x1="4.9204" y1="9.9635" x2="4.8704" y2="9.9635" style="stroke:#808080;stroke-width:0.0125;"/>
        <!-- Line -->
        <line x1="4.0204" y1="10.1235" x2="4.0204" y2="9.9635" style="stroke:#808080;stroke-width:0.0125;"/>
        <!-- Line -->
        <line x1="3.9704" y1="9.9635" x2="4.0204" y2="9.9635" style="stroke:#808080;stroke-width:0.0125;"/>
        <!-- Line -->
        <line x1="4.0204" y1="10.1235" x2="3.9704" y2="10.1235" style="stroke:#808080;stroke-width:0.0125;"/>
        <!-- Line -->
        <line x1="8.5204" y1="10.1235" x2="8.5204" y2="9.9635" style="stroke:#808080;stroke-width:0.0125;"/>
        <!-- Line -->
        <line x1="8.5704" y1="9.9635" x2="8.5204" y2="9.9635" style="stroke:#808080;stroke-width:0.0125;"/>
        <!-- Line -->
        <line x1="8.5204" y1="10.1235" x2="8.5704" y2="10.1235" style="stroke:#808080;stroke-width:0.0125;"/>
        <!-- Line -->
        <line x1="7.6704" y1="10.1235" x2="7.6704" y2="9.9635" style="stroke:#808080;stroke-width:0.0125;"/>
        <!-- Line -->
        <line x1="7.6704" y1="10.1235" x2="7.6204" y2="10.1235" style="stroke:#808080;stroke-width:0.0125;"/>
        <!-- Line -->
        <line x1="8.4704" y1="11.1235" x2="8.5204" y2="11.1235" style="stroke:#808080;stroke-width:0.0125;"/>
        <!-- Line -->
        <line x1="4.0704" y1="10.1235" x2="4.0704" y2="11.1235" style="stroke:#808080;stroke-width:0.0125;"/>
        <!-- Line -->
        <line x1="4.0704" y1="10.1235" x2="4.0204" y2="10.1235" style="stroke:#808080;stroke-width:0.0125;"/>
        <!-- Line -->
        <line x1="4.0204" y1="11.1235" x2="4.0204" y2="11.1235" style="stroke:#808080;stroke-width:0.0125;"/>
        <!-- Line -->
        <line x1="4.0204" y1="10.1235" x2="4.0204" y2="11.1235" style="stroke:#808080;stroke-width:0.0125;"/>
        <!-- Line -->
        <line x1="8.5204" y1="10.1235" x2="8.5204" y2="11.1235" style="stroke:#808080;stroke-width:0.0125;"/>
        <!-- Line -->
        <line x1="3.5704" y1="3.7765" x2="3.9704" y2="3.7765" style="stroke:#333333;stroke-width:0.0125;"/>
        <!-- Line -->
        <line x1="8.4704" y1="11.1235" x2="8.4704" y2="11.1235" style="stroke:#808080;stroke-width:0.0125;"/>
        <!-- Line -->
        <line x1="8.5204" y1="10.1235" x2="8.4704" y2="10.1235" style="stroke:#808080;stroke-width:0.0125;"/>
        <!-- Line -->
        <line x1="8.4704" y1="10.1235" x2="8.4704" y2="11.1235" style="stroke:#808080;stroke-width:0.0125;"/>
        <!-- Line -->
        <line x1="3.9704" y1="3.7765" x2="3.9704" y2="3.3765" style="stroke:#333333;stroke-width:0.0125;"/>
        <!-- Line -->
        <line x1="3.5704" y1="3.3765" x2="3.9704" y2="3.3765" style="stroke:#333333;stroke-width:0.0125;"/>
        <!-- Line -->
        <line x1="3.5704" y1="3.7765" x2="3.5704" y2="3.3765" style="stroke:#333333;stroke-width:0.0125;"/>
        <!-- Line -->
        <line x1="6.3204" y1="3.5065" x2="7.0704" y2="3.5065" style="stroke:#333333;stroke-width:0.0125;"/>
        <!-- Line -->
        <line x1="8.5704" y1="3.5065" x2="10.7204" y2="3.5065" style="stroke:#333333;stroke-width:0.0125;"/>
        <!-- Hatch -->
        <path d="M7.1704,4.1765 L7.1704,3.5065 L7.4546,3.5065 L7.4546,3.7621 L7.5569,3.7621 ZM8.4704,4.1765 L8.0529,3.7621 L8.1361,3.7621 L8.1361,3.5065 L8.4704,3.5065 ZM8.5204,3.5065 L7.1204,3.5065 L7.1204,3.3765 L8.5204,3.3765 ZM8.5644,3.3765 L8.5204,3.3765 L7.1204,3.3765 L7.0704,3.3765 L7.0704,3.2265 L8.5704,3.2265 Z" style="fill:#d7ebd2;fill-rule:evenodd;"/>
        <!-- Line -->
        <line x1="7.0704" y1="3.5065" x2="7.0704" y2="3.2265" style="stroke:#333333;stroke-width:0.0125;"/>
        <!-- Line -->
        <line x1="8.5704" y1="3.5065" x2="8.5704" y2="3.2265" style="stroke:#333333;stroke-width:0.0125;"/>
        <!-- Line -->
        <line x1="8.5704" y1="3.2265" x2="10.9204" y2="3.2265" style="stroke:#333333;stroke-width:0.0125;"/>
        <!-- Hatch -->
        <path d="M5.1704,3.5065 L5.1204,3.5065 L4.0704,3.5065 L4.0204,3.5065 L4.0204,3.3765 L5.1704,3.3765 ZM5.2204,3.3765 L3.9704,3.3765 L3.9704,3.2265 L5.2204,3.2265 Z" style="fill:#d7ebd2;fill-rule:evenodd;"/>
        <!-- Line -->
        <line x1="5.2204" y1="3.5065" x2="5.2204" y2="3.2265" style="stroke:#333333;stroke-width:0.0125;"/>
        <!-- Line -->
        <line x1="3.9704" y1="3.3765" x2="3.9704" y2="3.2265" style="stroke:#333333;stroke-width:0.0125;"/>
        <!-- Line -->
        <line x1="5.2204" y1="3.2265" x2="7.0704" y2="3.2265" style="stroke:#333333;stroke-width:0.0125;"/>
        <!-- Line -->
        <line x1="3.9704" y1="3.3765" x2="5.2204" y2="3.3765" style="stroke:#808080;stroke-width:0.0125;"/>
        <!-- Line -->
        <line x1="3.9704" y1="3.2265" x2="5.2204" y2="3.2265" style="stroke:#808080;stroke-width:0.0125;"/>
        <!-- Line -->
        <line x1="5.1704" y1="3.5065" x2="5.1704" y2="3.8265" style="stroke:#808080;stroke-width:0.0125;"/>
        <!-- Line -->
        <line x1="5.1204" y1="3.8265" x2="5.1704" y2="3.8265" style="stroke:#808080;stroke-width:0.0125;"/>
        <!-- Hatch -->
        <path d="M4.0704,4.2565 L4.0704,3.5065 L4.5954,3.5065 ZM5.1204,3.8265 L4.5954,3.5065 L5.1204,3.5065 Z" style="fill:#d7ebd2;fill-rule:evenodd;"/>
        <!-- Line -->
        <line x1="5.1204" y1="3.5065" x2="5.1204" y2="3.8265" style="stroke:#808080;stroke-width:0.0125;"/>
        <!-- Line -->
        <line x1="5.1704" y1="3.5065" x2="5.1204" y2="3.5065" style="stroke:#808080;stroke-width:0.0125;"/>
        <!-- Line -->
        <line x1="5.1704" y1="3.5065" x2="5.1704" y2="3.3765" style="stroke:#808080;stroke-width:0.0125;"/>
        <!-- Line -->
        <line x1="5.2204" y1="3.3765" x2="5.1704" y2="3.3765" style="stroke:#808080;stroke-width:0.0125;"/>
        <!-- Line -->
        <line x1="4.0704" y1="4.2565" x2="4.0704" y2="4.2565" style="stroke:#808080;stroke-width:0.0125;"/>
        <!-- Line -->
        <line x1="5.1704" y1="3.5065" x2="5.2204" y2="3.5065" style="stroke:#808080;stroke-width:0.0125;"/>
        <!-- Line -->
        <line x1="4.0204" y1="3.5065" x2="4.0204" y2="4.2565" style="stroke:#808080;stroke-width:0.0125;"/>
        <!-- Line -->
        <line x1="4.0704" y1="3.5065" x2="4.0704" y2="4.2565" style="stroke:#808080;stroke-width:0.0125;"/>
        <!-- Line -->
        <line x1="4.0704" y1="4.2565" x2="4.0204" y2="4.2565" style="stroke:#808080;stroke-width:0.0125;"/>
        <!-- Line -->
        <line x1="4.0204" y1="3.5065" x2="3.9704" y2="3.5065" style="stroke:#808080;stroke-width:0.0125;"/>
        <!-- Line -->
        <line x1="8.4704" y1="3.5065" x2="8.4704" y2="4.1765" style="stroke:#808080;stroke-width:0.0125;"/>
        <!-- Line -->
        <line x1="4.0204" y1="3.5065" x2="4.0204" y2="3.3765" style="stroke:#808080;stroke-width:0.0125;"/>
        <!-- Line -->
        <line x1="4.0204" y1="3.5065" x2="4.0704" y2="3.5065" style="stroke:#808080;stroke-width:0.0125;"/>
        <!-- Line -->
        <line x1="4.0704" y1="3.5065" x2="5.1204" y2="3.5065" style="stroke:#808080;stroke-width:0.0125;"/>
        <!-- Line -->
        <line x1="8.5204" y1="3.5065" x2="8.5204" y2="4.1765" style="stroke:#808080;stroke-width:0.0125;"/>
        <!-- Line -->
        <line x1="8.4704" y1="3.5065" x2="7.1204" y2="3.5065" style="stroke:#808080;stroke-width:0.0125;"/>
        <!-- Line -->
        <line x1="8.5204" y1="3.5065" x2="8.4704" y2="3.5065" style="stroke:#808080;stroke-width:0.0125;"/>
        <!-- Line -->
        <line x1="8.5204" y1="3.5065" x2="8.5204" y2="3.3765" style="stroke:#808080;stroke-width:0.0125;"/>
        <!-- Line -->
        <line x1="8.5204" y1="3.5065" x2="8.5704" y2="3.5065" style="stroke:#808080;stroke-width:0.0125;"/>
        <!-- Line -->
        <line x1="8.4704" y1="4.1765" x2="8.5204" y2="4.1765" style="stroke:#808080;stroke-width:0.0125;"/>
        <!-- Line -->
        <line x1="8.4704" y1="4.1765" x2="8.4704" y2="4.1765" style="stroke:#808080;stroke-width:0.0125;"/>
        <!-- Line -->
        <line x1="8.5204" y1="3.3765" x2="8.5704" y2="3.3765" style="stroke:#808080;stroke-width:0.0125;"/>
        <!-- Line -->
        <line x1="7.1204" y1="3.5065" x2="7.1204" y2="4.1765" style="stroke:#808080;stroke-width:0.0125;"/>
        <!-- Line -->
        <line x1="7.1704" y1="3.5065" x2="7.1704" y2="4.1765" style="stroke:#808080;stroke-width:0.0125;"/>
        <!-- Line -->
        <line x1="7.1704" y1="4.1765" x2="7.1204" y2="4.1765" style="stroke:#808080;stroke-width:0.0125;"/>
        <!-- Line -->
        <line x1="7.1704" y1="4.1765" x2="7.1704" y2="4.1765" style="stroke:#808080;stroke-width:0.0125;"/>
        <!-- Line -->
        <line x1="7.1204" y1="3.3765" x2="7.0704" y2="3.3765" style="stroke:#808080;stroke-width:0.0125;"/>
        <!-- Line -->
        <line x1="7.1204" y1="3.5065" x2="7.0704" y2="3.5065" style="stroke:#808080;stroke-width:0.0125;"/>
        <!-- Line -->
        <line x1="7.1204" y1="3.5065" x2="7.1204" y2="3.3765" style="stroke:#808080;stroke-width:0.0125;"/>
        <!-- Line -->
        <line x1="7.1204" y1="3.5065" x2="7.1704" y2="3.5065" style="stroke:#808080;stroke-width:0.0125;"/>
        <!-- Line -->
        <line x1="7.1204" y1="3.3765" x2="8.5204" y2="3.3765" style="stroke:#d7ebd2;stroke-width:0.0125;"/>
        <!-- Line -->
        <line x1="7.0704" y1="3.2265" x2="8.5704" y2="3.2265" style="stroke:#808080;stroke-width:0.0125;"/>
        <!-- Text: SALA HIDRAULICA -->
        <text x="7.707" dx="0" y="-16.3223" dy="0.15" font-family="Arial" font-size="0.21" line-height="1.1" fill="#000000" transform="scale(1,-1) rotate(360 7.707,-16.3223)" text-anchor="end">SALA HIDRAULICA</text>
        <!-- Text: SALA DE TABLEROS -->
        <text x="9.7369" dx="0" y="-7.1208" dy="0.15" font-family="Arial" font-size="0.21" line-height="1.1" fill="#000000" transform="scale(1,-1) rotate(360 9.7369,-7.1208)" text-anchor="end">SALA DE TABLEROS</text>
        <!-- Text: EQUIPO HIDRAULICO -->
        <text x="7.3919" dx="0" y="-14.4175" dy="0.1" font-family="Arial" font-size="0.14" line-height="1.1" fill="#000000" transform="scale(1,-1) rotate(360 7.3919,-14.4175)" text-anchor="end">EQUIPO HIDRAULICO</text>
        <!-- Line -->
        <line x1="5.598" y1="15.747" x2="7.598" y2="15.747" style="stroke:#808080;stroke-width:0.0125;"/>
        <!-- Line -->
        <line x1="5.598" y1="11.797" x2="5.598" y2="15.747" style="stroke:#808080;stroke-width:0.0125;"/>
        <!-- Line -->
        <line x1="5.598" y1="11.797" x2="7.598" y2="11.797" style="stroke:#808080;stroke-width:0.0125;"/>
        <!-- Line -->
        <line x1="7.598" y1="11.797" x2="7.598" y2="15.747" style="stroke:#808080;stroke-width:0.0125;"/>
        <!-- Line -->
        <line x1="9.9732" y1="10.8528" x2="9.4132" y2="10.8528" style="stroke:#808080;stroke-width:0.0125;"/>
        <!-- Line -->
        <line x1="9.4132" y1="10.8528" x2="9.4132" y2="12.8528" style="stroke:#808080;stroke-width:0.0125;"/>
        <!-- Line -->
        <line x1="9.9732" y1="10.8528" x2="9.9732" y2="12.8528" style="stroke:#808080;stroke-width:0.0125;"/>
        <!-- Line -->
        <line x1="9.9732" y1="12.8528" x2="9.4132" y2="12.8528" style="stroke:#808080;stroke-width:0.0125;"/>
        <!-- Line -->
        <line x1="6.3329" y1="9.951" x2="6.3329" y2="3.519" style="stroke:#808080;stroke-width:0.0125;"/>
        <!-- Line -->
        <line x1="6.9329" y1="9.951" x2="6.9329" y2="3.519" style="stroke:#808080;stroke-width:0.0125;"/>
        <!-- Line -->
        <line x1="6.3329" y1="9.951" x2="6.9329" y2="9.951" style="stroke:#808080;stroke-width:0.0125;"/>
        <!-- Line -->
        <line x1="6.3329" y1="3.519" x2="6.9329" y2="3.519" style="stroke:#808080;stroke-width:0.0125;"/>
        <!-- Line -->
        <line x1="6.3329" y1="9.0322" x2="6.9329" y2="9.0322" style="stroke:#808080;stroke-width:0.0125;"/>
        <!-- Line -->
        <line x1="6.3329" y1="8.1133" x2="6.9329" y2="8.1133" style="stroke:#808080;stroke-width:0.0125;"/>
        <!-- Line -->
        <line x1="6.3329" y1="7.1945" x2="6.9329" y2="7.1945" style="stroke:#808080;stroke-width:0.0125;"/>
        <!-- Line -->
        <line x1="6.3329" y1="6.2756" x2="6.9329" y2="6.2756" style="stroke:#808080;stroke-width:0.0125;"/>
        <!-- Line -->
        <line x1="6.3329" y1="5.3567" x2="6.9329" y2="5.3567" style="stroke:#808080;stroke-width:0.0125;"/>
        <!-- Line -->
        <line x1="6.3329" y1="4.4379" x2="6.9329" y2="4.4379" style="stroke:#808080;stroke-width:0.0125;"/>
        <!-- Line -->
        <line x1="10.7079" y1="9.1435" x2="10.7079" y2="3.519" style="stroke:#808080;stroke-width:0.0125;"/>
        <!-- Line -->
        <line x1="10.1079" y1="9.1435" x2="10.1079" y2="3.519" style="stroke:#808080;stroke-width:0.0125;"/>
        <!-- Line -->
        <line x1="10.1079" y1="3.519" x2="10.7079" y2="3.519" style="stroke:#808080;stroke-width:0.0125;"/>
        <!-- Line -->
        <line x1="10.1079" y1="9.1435" x2="10.7079" y2="9.1435" style="stroke:#808080;stroke-width:0.0125;"/>
        <!-- Line -->
        <line x1="10.1079" y1="4.144" x2="10.7079" y2="4.144" style="stroke:#808080;stroke-width:0.0125;"/>
        <!-- Line -->
        <line x1="10.1079" y1="4.7689" x2="10.7079" y2="4.7689" style="stroke:#808080;stroke-width:0.0125;"/>
        <!-- Line -->
        <line x1="10.1079" y1="5.3939" x2="10.7079" y2="5.3939" style="stroke:#808080;stroke-width:0.0125;"/>
        <!-- Line -->
        <line x1="10.1079" y1="6.0188" x2="10.7079" y2="6.0188" style="stroke:#808080;stroke-width:0.0125;"/>
        <!-- Line -->
        <line x1="10.1079" y1="6.6437" x2="10.7079" y2="6.6437" style="stroke:#808080;stroke-width:0.0125;"/>
        <!-- Line -->
        <line x1="10.1079" y1="7.2687" x2="10.7079" y2="7.2687" style="stroke:#808080;stroke-width:0.0125;"/>
        <!-- Line -->
        <line x1="10.1079" y1="7.8936" x2="10.7079" y2="7.8936" style="stroke:#808080;stroke-width:0.0125;"/>
        <!-- Line -->
        <line x1="10.1079" y1="8.5186" x2="10.7079" y2="8.5186" style="stroke:#808080;stroke-width:0.0125;"/>
        <!-- Line -->
        <line x1="6.1454" y1="8.1285" x2="6.1454" y2="3.5215" style="stroke:#808080;stroke-width:0.0125;"/>
        <!-- Line -->
        <line x1="5.7254" y1="8.1285" x2="5.7254" y2="3.5215" style="stroke:#808080;stroke-width:0.0125;"/>
        <!-- Line -->
        <line x1="5.7254" y1="9.9485" x2="6.1454" y2="9.9485" style="stroke:#808080;stroke-width:0.0125;"/>
        <!-- Line -->
        <line x1="5.7254" y1="3.5215" x2="6.1454" y2="3.5215" style="stroke:#808080;stroke-width:0.0125;"/>
        <!-- Line -->
        <line x1="5.7254" y1="8.1285" x2="6.1454" y2="8.1285" style="stroke:#808080;stroke-width:0.0125;"/>
        <!-- Line -->
        <line x1="5.7254" y1="8.1285" x2="5.7254" y2="9.9485" style="stroke:#808080;stroke-width:0.0125;"/>
        <!-- Line -->
        <line x1="6.1454" y1="9.9485" x2="6.1454" y2="8.1285" style="stroke:#808080;stroke-width:0.0125;"/>
        <!-- Line -->
        <line x1="4.058" y1="17.5493" x2="8.4827" y2="17.5493" style="stroke:#808080;stroke-width:0.0125;"/>
        <!-- Hatch -->
        <g>
            <path d="M3.9315,17.1135 L3.9704,17.1524" style="stroke:#808080;stroke-width:0.0125;"/>
            <path d="M3.7547,17.1135 L3.9704,17.3292" style="stroke:#808080;stroke-width:0.0125;"/>
            <path d="M3.5779,17.1135 L3.9704,17.5059" style="stroke:#808080;stroke-width:0.0125;"/>
            <path d="M3.5704,17.2827 L3.8012,17.5135" style="stroke:#808080;stroke-width:0.0125;"/>
            <path d="M3.5704,17.4595 L3.6244,17.5135" style="stroke:#808080;stroke-width:0.0125;"/>
        </g>
        <!-- Hatch -->
        <path d="M10.7079,9.9293 L10.3979,9.9293 L10.5529,9.5493 ZM10.7079,9.9293 L10.5529,9.5493 L10.7079,9.1693 ZM10.5529,9.5493 L10.3979,9.1693 L10.7079,9.1693 ZM10.3979,9.9293 L10.3979,9.1693 L10.5529,9.5493 Z" style="fill:#f8f6b0;fill-rule:evenodd;"/>
        <!-- Line -->
        <line x1="10.3979" y1="9.9293" x2="10.3979" y2="9.1693" style="stroke:#808080;stroke-width:0.0125;"/>
        <!-- Line -->
        <line x1="10.3979" y1="9.1693" x2="10.7079" y2="9.1693" style="stroke:#808080;stroke-width:0.0125;"/>
        <!-- Line -->
        <line x1="10.7079" y1="9.9293" x2="10.7079" y2="9.1693" style="stroke:#808080;stroke-width:0.0125;"/>
        <!-- Line -->
        <line x1="10.3979" y1="9.9293" x2="10.7079" y2="9.9293" style="stroke:#808080;stroke-width:0.0125;"/>
        <!-- Line -->
        <line x1="10.3979" y1="9.9293" x2="10.7079" y2="9.1693" style="stroke:#808080;stroke-width:0.0125;"/>
        <!-- Line -->
        <line x1="10.7079" y1="9.9293" x2="10.3979" y2="9.1693" style="stroke:#808080;stroke-width:0.0125;"/>
        <!-- Line -->
        <line x1="4.0704" y1="10.1235" x2="4.8704" y2="10.1235" style="stroke:#808080;stroke-width:0.0125;"/>
        <!-- Line -->
        <line x1="4.0204" y1="9.9635" x2="4.8704" y2="9.9635" style="stroke:#808080;stroke-width:0.0125;"/>
        <!-- Line -->
        <line x1="4.0704" y1="11.1235" x2="4.8704" y2="10.1235" style="stroke:#808080;stroke-width:0.0125;"/>
        <!-- Line -->
        <line x1="7.6704" y1="10.1235" x2="8.4704" y2="10.1235" style="stroke:#808080;stroke-width:0.0125;"/>
        <!-- Line -->
        <line x1="7.6704" y1="9.9635" x2="8.5204" y2="9.9635" style="stroke:#808080;stroke-width:0.0125;"/>
        <!-- Line -->
        <line x1="8.4704" y1="11.1235" x2="7.6704" y2="10.1235" style="stroke:#808080;stroke-width:0.0125;"/>
        <!-- Line -->
        <line x1="4.058" y1="19.7167" x2="6.2704" y2="17.5493" style="stroke:#808080;stroke-width:0.0125;"/>
        <!-- Line -->
        <line x1="6.2704" y1="17.5493" x2="8.4827" y2="19.7167" style="stroke:#808080;stroke-width:0.0125;"/>
        <!-- Line -->
        <line x1="4.0704" y1="4.2565" x2="4.5954" y2="3.5065" style="stroke:#808080;stroke-width:0.0125;"/>
        <!-- Line -->
        <line x1="4.5954" y1="3.5065" x2="5.1204" y2="3.8265" style="stroke:#808080;stroke-width:0.0125;"/>
        <!-- Line -->
        <line x1="7.1704" y1="4.1765" x2="7.7954" y2="3.5065" style="stroke:#808080;stroke-width:0.0125;"/>
        <!-- Line -->
        <line x1="7.7954" y1="3.5065" x2="8.4704" y2="4.1765" style="stroke:#808080;stroke-width:0.0125;"/>
        <!-- Line -->
        <line x1="10.9204" y1="15.0135" x2="10.7204" y2="15.0135" style="stroke:#333333;stroke-width:0.0125;"/>
        <!-- Line -->
        <line x1="10.7204" y1="16.1135" x2="10.7204" y2="15.0635" style="stroke:#808080;stroke-width:0.0125;"/>
        <!-- Line -->
        <line x1="10.9204" y1="16.0635" x2="10.9204" y2="15.0635" style="stroke:#808080;stroke-width:0.0125;"/>
        <!-- Line -->
        <line x1="11.9204" y1="16.0635" x2="10.9204" y2="15.0635" style="stroke:#808080;stroke-width:0.0125;"/>
        <!-- Text: SALA DE 
TABLEROS 
(AUX.) -->
        <text x="5.3004" dx="0" y="-7.3274" dy="0.15" font-family="Arial" font-size="0.21" line-height="1.1" fill="#000000" transform="scale(1,-1) rotate(360 5.3004,-7.3274)" text-anchor="end">SALA DE </text>
        <text x="5.3004" dx="0" y="-7.0959" dy="0.15" font-family="Arial" font-size="0.21" line-height="1.1" fill="#000000" transform="scale(1,-1) rotate(360 5.3004,-7.0959)" text-anchor="end">TABLEROS </text>
        <text x="5.3004" dx="0" y="-6.9057" dy="0.15" font-family="Arial" font-size="0.21" line-height="1.1" fill="#000000" transform="scale(1,-1) rotate(360 5.3004,-6.9057)" text-anchor="end">(AUX.)</text>
        <!-- Line -->
        <line x1="10.7204" y1="17.6635" x2="10.9204" y2="17.6635" style="stroke:#333333;stroke-width:0.0125;"/>
        <!-- Line -->
        <line x1="9.0004" y1="20.1817" x2="9.0004" y2="0.5462" style="stroke:#808080;stroke-width:0.0125;stroke-dasharray:0.2381,0.0397,0.0397,0.0397;stroke-dashoffset:0.124"/>
        <!-- Circle -->
        <circle cx="9.0004" cy="20.4548" r="0.2731" style="stroke:#808080;stroke-width:0.0125;stroke-dasharray:0.2381,0.0397,0.0397,0.0397;stroke-dashoffset:0.154"/>
        <!-- Text: 7 -->
        <text x="9.0708" dx="0" y="-20.5572" dy="0.2" font-family="Arial" font-size="0.28" line-height="1.1" fill="#808080" transform="scale(1,-1) rotate(360 9.0708,-20.5572)" text-anchor="end">7</text>
        <!-- Line -->
        <line x1="13.1899" y1="18.7635" x2="0.5462" y2="18.7635" style="stroke:#808080;stroke-width:0.0125;stroke-dasharray:0.2381,0.0397,0.0397,0.0397;stroke-dashoffset:0.048"/>
        <!-- Circle -->
        <circle cx="0.2731" cy="18.7635" r="0.2731" style="stroke:#808080;stroke-width:0.0125;stroke-dasharray:0.2381,0.0397,0.0397,0.0397;stroke-dashoffset:0.154"/>
        <!-- Text: F -->
        <text x="0.3465" dx="0" y="-18.8685" dy="0.2" font-family="Arial" font-size="0.28" line-height="1.1" fill="#808080" transform="scale(1,-1) rotate(360 0.3465,-18.8685)" text-anchor="end">F</text>
        <!-- Circle -->
        <circle cx="9.0004" cy="0.2731" r="0.2731" style="stroke:#808080;stroke-width:0.0125;stroke-dasharray:0.2381,0.0397,0.0397,0.0397;stroke-dashoffset:0.154"/>
        <!-- Text: 7 -->
        <text x="9.0519" dx="0" y="-0.3755" dy="0.2" font-family="Arial" font-size="0.28" line-height="1.1" fill="#808080" transform="scale(1,-1) rotate(360 9.0519,-0.3755)" text-anchor="end">7</text>
        <!-- Circle -->
        <circle cx="13.463" cy="18.7635" r="0.2731" style="stroke:#808080;stroke-width:0.0125;stroke-dasharray:0.2381,0.0397,0.0397,0.0397;stroke-dashoffset:0.154"/>
        <!-- Text: F -->
        <text x="13.5363" dx="0" y="-18.8685" dy="0.2" font-family="Arial" font-size="0.28" line-height="1.1" fill="#808080" transform="scale(1,-1) rotate(360 13.5363,-18.8685)" text-anchor="end">F</text>
        <!-- Text: 6 -->
        <text x="1.7908" dx="0" y="-0.3857" dy="0.2" font-family="Arial" font-size="0.28" line-height="1.1" fill="#808080" transform="scale(1,-1) rotate(360 1.7908,-0.3857)" text-anchor="end">6</text>
        <!-- Circle -->
        <circle cx="1.7204" cy="0.2731" r="0.2731" style="stroke:#808080;stroke-width:0.0125;stroke-dasharray:0.2381,0.0397,0.0397,0.0397;stroke-dashoffset:0.154"/>
        <!-- Line -->
        <line x1="1.7204" y1="20.1817" x2="1.7204" y2="0.5462" style="stroke:#808080;stroke-width:0.0125;stroke-dasharray:0.2381,0.0397,0.0397,0.0397;stroke-dashoffset:0.124"/>
        <!-- Circle -->
        <circle cx="1.7204" cy="20.4548" r="0.2731" style="stroke:#808080;stroke-width:0.0125;stroke-dasharray:0.2381,0.0397,0.0397,0.0397;stroke-dashoffset:0.154"/>
        <!-- Text: 6 -->
        <text x="1.7908" dx="0" y="-20.5674" dy="0.2" font-family="Arial" font-size="0.28" line-height="1.1" fill="#808080" transform="scale(1,-1) rotate(360 1.7908,-20.5674)" text-anchor="end">6</text>
        <!-- Line -->
        <line x1="13.1899" y1="1.2635" x2="0.5462" y2="1.2635" style="stroke:#808080;stroke-width:0.0125;stroke-dasharray:0.2381,0.0397,0.0397,0.0397;stroke-dashoffset:0.048"/>
        <!-- Text: G -->
        <text x="0.3284" dx="0" y="-1.3788" dy="0.2" font-family="Arial" font-size="0.28" line-height="1.1" fill="#808080" transform="scale(1,-1) rotate(360 0.3284,-1.3788)" text-anchor="end">G</text>
        <!-- Circle -->
        <circle cx="0.2731" cy="1.2635" r="0.2731" style="stroke:#808080;stroke-width:0.0125;stroke-dasharray:0.2381,0.0397,0.0397,0.0397;stroke-dashoffset:0.154"/>
        <!-- Text: G -->
        <text x="13.5363" dx="0" y="-1.3788" dy="0.2" font-family="Arial" font-size="0.28" line-height="1.1" fill="#808080" transform="scale(1,-1) rotate(360 13.5363,-1.3788)" text-anchor="end">G</text>
        <!-- Circle -->
        <circle cx="13.463" cy="1.2635" r="0.2731" style="stroke:#808080;stroke-width:0.0125;stroke-dasharray:0.2381,0.0397,0.0397,0.0397;stroke-dashoffset:0.154"/>
        <!-- Line -->
        <line x1="6.2087" y1="10.1235" x2="6.2087" y2="11.0198" style="stroke:#808080;stroke-width:0.0125;"/>
        <!-- Line -->
        <line x1="6.2087" y1="11.0198" x2="7.3479" y2="11.0198" style="stroke:#808080;stroke-width:0.0125;"/>
        <!-- Line -->
        <line x1="7.3479" y1="11.0198" x2="7.3479" y2="10.1235" style="stroke:#808080;stroke-width:0.0125;"/>
        <!-- Line -->
        <line x1="6.3272" y1="10.1235" x2="6.3272" y2="10.8962" style="stroke:#808080;stroke-width:0.0125;"/>
        <!-- Line -->
        <line x1="6.3272" y1="10.8962" x2="7.2345" y2="10.8962" style="stroke:#808080;stroke-width:0.0125;"/>
        <!-- Line -->
        <line x1="7.2345" y1="10.8962" x2="7.2345" y2="10.1235" style="stroke:#808080;stroke-width:0.0125;"/>
        <!-- Line -->
        <line x1="6.3891" y1="10.3193" x2="6.3891" y2="10.8447" style="stroke:#808080;stroke-width:0.0125;"/>
        <!-- Line -->
        <line x1="6.3891" y1="10.8447" x2="7.1778" y2="10.8447" style="stroke:#808080;stroke-width:0.0125;"/>
        <!-- Line -->
        <line x1="7.1778" y1="10.8447" x2="7.1778" y2="10.3193" style="stroke:#808080;stroke-width:0.0125;"/>
        <!-- Line -->
        <line x1="6.3891" y1="10.3193" x2="7.1778" y2="10.3193" style="stroke:#808080;stroke-width:0.0125;"/>
        <!-- Line -->
        <line x1="6.3272" y1="10.2729" x2="7.2345" y2="10.2729" style="stroke:#808080;stroke-width:0.0125;"/>
        <!-- Line -->
        <line x1="6.3891" y1="10.2265" x2="7.1778" y2="10.2265" style="stroke:#808080;stroke-width:0.0125;"/>
        <!-- Line -->
        <line x1="6.3891" y1="10.2265" x2="6.3891" y2="10.1235" style="stroke:#808080;stroke-width:0.0125;"/>
        <!-- Line -->
        <line x1="7.1778" y1="10.2265" x2="7.1778" y2="10.1235" style="stroke:#808080;stroke-width:0.0125;"/>
        <!-- Text:  A.M. -->
        <text x="5.9137" dx="0" y="-3.1036" dy="0.1143" font-family="Arial" font-size="0.1601" line-height="1.1" fill="#c0c0c0" transform="scale(1,-1) rotate(360 5.9137,-3.1036)" text-anchor="start"> A.M.</text>
        <!-- Point -->
        <!-- Line -->
        <line x1="7.1704" y1="4.1765" x2="7.1704" y2="3.5065" style="stroke:#333333;stroke-width:0.0125;"/>
        <!-- Line -->
        <line x1="7.1704" y1="3.5065" x2="7.1204" y2="3.5065" style="stroke:#333333;stroke-width:0.0125;"/>
        <!-- Line -->
        <line x1="7.1204" y1="3.5065" x2="7.1204" y2="3.3765" style="stroke:#333333;stroke-width:0.0125;"/>
        <!-- Line -->
        <line x1="7.1204" y1="3.3765" x2="7.0704" y2="3.3765" style="stroke:#333333;stroke-width:0.0125;"/>
        <!-- Line -->
        <line x1="7.0704" y1="3.3765" x2="7.0704" y2="3.2265" style="stroke:#333333;stroke-width:0.0125;"/>
        <!-- Line -->
        <line x1="7.0704" y1="3.2265" x2="8.5704" y2="3.2265" style="stroke:#333333;stroke-width:0.0125;"/>
        <!-- Line -->
        <line x1="8.5704" y1="3.2265" x2="8.5644" y2="3.3765" style="stroke:#333333;stroke-width:0.0125;"/>
        <!-- Line -->
        <line x1="8.5644" y1="3.3765" x2="8.5204" y2="3.3765" style="stroke:#333333;stroke-width:0.0125;"/>
        <!-- Line -->
        <line x1="8.5204" y1="3.3765" x2="8.5204" y2="3.5065" style="stroke:#333333;stroke-width:0.0125;"/>
        <!-- Line -->
        <line x1="8.5204" y1="3.5065" x2="7.1204" y2="3.5065" style="stroke:#333333;stroke-width:0.0125;"/>
        <!-- Line -->
        <line x1="7.1204" y1="3.5065" x2="7.1204" y2="3.3765" style="stroke:#333333;stroke-width:0.0125;"/>
        <!-- Line -->
        <line x1="7.1204" y1="3.3765" x2="8.5204" y2="3.3765" style="stroke:#d7ebd2;stroke-width:0.0125;"/>
        <!-- Line -->
        <line x1="8.4704" y1="4.1765" x2="7.7954" y2="3.5065" style="stroke:#333333;stroke-width:0.0125;"/>
        <!-- Line -->
        <line x1="7.7954" y1="3.5065" x2="7.1704" y2="4.1765" style="stroke:#333333;stroke-width:0.0125;"/>
        <!-- Line -->
        <line x1="13.1536" y1="13.0213" x2="11.4897" y2="13.0184" style="stroke:#009900;stroke-width:0.0125;"/>
        <!-- Line -->
        <line x1="12.3216" y1="11.354" x2="11.4897" y2="13.0184" style="stroke:#000000;stroke-width:0.0125;"/>
        <!-- Line -->
        <line x1="11.9057" y1="13.0191" x2="11.9057" y2="14.937" style="stroke:#000000;stroke-width:0.0125;"/>
        <!-- Line -->
        <line x1="12.7376" y1="14.937" x2="11.9057" y2="14.937" style="stroke:#000000;stroke-width:0.0125;"/>
        <!-- Line -->
        <line x1="12.3216" y1="11.354" x2="13.1536" y2="13.0213" style="stroke:#000000;stroke-width:0.0125;"/>
        <!-- Line -->
        <line x1="12.7376" y1="13.0206" x2="12.7376" y2="14.937" style="stroke:#000000;stroke-width:0.0125;"/>
        <!-- Hatch -->
        <path d="M12.3216,11.354 L13.1536,13.0213 L11.4897,13.0184 ZM11.9057,13.0191 L12.7376,13.0206 L12.7376,14.937 L11.9057,14.937 Z" style="fill:#009900;fill-rule:evenodd;"/>
        <!-- Line -->
        <line x1="11.0649" y1="3.0124" x2="11.0678" y2="1.3485" style="stroke:#009900;stroke-width:0.0125;"/>
        <!-- Line -->
        <line x1="12.7321" y1="2.1805" x2="11.0678" y2="1.3485" style="stroke:#000000;stroke-width:0.0125;"/>
        <!-- Line -->
        <line x1="11.067" y1="1.7645" x2="9.1492" y2="1.7645" style="stroke:#000000;stroke-width:0.0125;"/>
        <!-- Line -->
        <line x1="9.1492" y1="2.5964" x2="9.1492" y2="1.7645" style="stroke:#000000;stroke-width:0.0125;"/>
        <!-- Line -->
        <line x1="12.7321" y1="2.1805" x2="11.0649" y2="3.0124" style="stroke:#000000;stroke-width:0.0125;"/>
        <!-- Line -->
        <line x1="11.0656" y1="2.5964" x2="9.1492" y2="2.5964" style="stroke:#000000;stroke-width:0.0125;"/>
        <!-- Hatch -->
        <path d="M12.7321,2.1805 L11.0649,3.0124 L11.0678,1.3485 ZM11.067,1.7645 L11.0656,2.5964 L9.1492,2.5964 L9.1492,1.7645 Z" style="fill:#009900;fill-rule:evenodd;"/>
    </g>
</svg>
