<?xml version="1.0" encoding="UTF-8"?>
<!-- 2020-09-05 22:28:20 Generated by QCAD 3.24.3 SVG Exporter PG -->
<svg width="418.7153mm" height="155.2827mm" viewBox="-0.125 -7.6391 20.9358 7.7641" version="1.1" xmlns="http://www.w3.org/2000/svg" style="stroke-linecap:round;stroke-linejoin:round;fill:none">
    <g transform="scale(1,-1)">
        <!-- Hatch -->
        <path d="M20.6369,3.575 L19.8532,3.575 L19.8532,3.5002 L12.8404,3.5002 L12.8406,0.4976 A0.499998,0.499998 0 0 1 13.3405,0.0004 L20.6858,0.0001 Z" style="fill:#cc9900;fill-rule:evenodd;"/>
        <!-- Line -->
        <line x1="20.6858" y1="0.0001" x2="13.3409" y2="0.0001" style="stroke:#ff0000;stroke-width:0.0125;"/>
        <!-- Hatch -->
        <path d="M5.8283,7.5141 L1.0282,7.5141 L1.0282,4.0002 A3.99998,3.99998 0 0 1 5.0503,0.0003 L6.6781,0.0004 A0.499998,0.499998 0 0 1 7.1781,0.5031 L7.1781,3.5002 L5.8283,3.5002 ZM10.5531,3.5002 L10.1781,3.5002 L10.1781,2.7002 L10.1281,2.7002 L9.4281,3.5002 L9.4031,3.5002 L9.0532,3.5002 L9.0531,0.5003 A0.499998,0.499998 0 0 1 9.5529,0.0003 L10.0528,0.0004 A0.499998,0.499998 0 0 1 10.5531,0.5031 Z" style="fill:#cc9900;fill-rule:evenodd;"/>
        <!-- Line -->
        <line x1="10.5531" y1="3.5004" x2="10.5531" y2="0.5003" style="stroke:#ff0000;stroke-width:0.0125;"/>
        <!-- Line -->
        <line x1="9.0532" y1="3.5003" x2="9.0531" y2="0.5005" style="stroke:#ff0000;stroke-width:0.0125;"/>
        <!-- Line -->
        <line x1="7.1781" y1="3.5004" x2="7.1781" y2="0.5004" style="stroke:#ff0000;stroke-width:0.0125;"/>
        <!-- Line -->
        <line x1="6.6782" y1="0.0003" x2="5.0282" y2="0.0003" style="stroke:#ff0000;stroke-width:0.0125;"/>
        <!-- Line -->
        <line x1="10.0534" y1="0" x2="9.5531" y2="0.0002" style="stroke:#ff0000;stroke-width:0.0125;"/>
        <!-- Hatch -->
        <path d="M6.0283,7.3002 L5.8283,7.5002 L5.8283,3.5002 L6.0283,3.7002 ZM12.8274,7.5002 L5.8283,7.5002 L6.0283,7.3002 L12.6404,7.3002 ZM9.4031,3.7002 L6.0283,3.7002 L5.8283,3.5002 L9.4031,3.5002 ZM12.601,3.7002 L10.2031,3.7002 L10.2031,3.5002 L12.8404,3.5002 L12.8404,3.5004 ZM12.8404,7.5002 L12.8274,7.5002 L12.6404,7.3002 L12.6404,3.7002 L12.601,3.7002 L12.8404,3.5004 Z" style="fill:#000000;fill-rule:evenodd;"/>
        <!-- Line -->
        <line x1="12.8404" y1="3.5004" x2="12.8406" y2="0.5003" style="stroke:#ff0000;stroke-width:0.0125;"/>
        <!-- Line -->
        <line x1="1.0282" y1="7.5002" x2="1.0282" y2="4.0003" style="stroke:#ff0000;stroke-width:0.0125;"/>
        <!-- Arc -->
        <path d="M12.8405,0.5004 A0.5,0.5 0 0,1 13.3406,0.0004" style="stroke:#ff0000;stroke-width:0.0125;"/>
        <!-- Arc -->
        <path d="M10.0532,0.0004 A0.5,0.5 0 0,1 10.5531,0.5004" style="stroke:#ff0000;stroke-width:0.0125;"/>
        <!-- Arc -->
        <path d="M9.0531,0.5003 A0.5,0.5 0 0,1 9.5532,0.0003" style="stroke:#ff0000;stroke-width:0.0125;"/>
        <!-- Arc -->
        <path d="M6.6782,0.0004 A0.5,0.5 0 0,1 7.1781,0.5004" style="stroke:#ff0000;stroke-width:0.0125;"/>
        <!-- Arc -->
        <path d="M1.0282,4.0002 A4,4 0 0,1 5.0282,0.0002" style="stroke:#ff0000;stroke-width:0.0125;"/>
        <!-- Line -->
        <line x1="19.8532" y1="7.5002" x2="19.8532" y2="3.5002" style="stroke:#808080;stroke-width:0.0125;"/>
        <!-- Line -->
        <line x1="19.8532" y1="3.5002" x2="12.8404" y2="3.5002" style="stroke:#808080;stroke-width:0.0125;"/>
        <!-- Line -->
        <line x1="5.8283" y1="3.5002" x2="5.8283" y2="7.5002" style="stroke:#004c26;stroke-width:0.0125;"/>
        <!-- Line -->
        <line x1="19.8532" y1="7.5141" x2="0" y2="7.5141" style="stroke:#808080;stroke-width:0.0125;"/>
        <!-- Line -->
        <line x1="12.8404" y1="3.5004" x2="12.8404" y2="7.5002" style="stroke:#004c26;stroke-width:0.0125;"/>
        <!-- Line -->
        <line x1="5.8283" y1="7.5002" x2="12.8404" y2="7.5002" style="stroke:#004c26;stroke-width:0.0125;"/>
        <!-- Line -->
        <line x1="12.6404" y1="3.7002" x2="12.6404" y2="7.3002" style="stroke:#004c26;stroke-width:0.0125;"/>
        <!-- Line -->
        <line x1="6.0283" y1="7.3002" x2="12.6404" y2="7.3002" style="stroke:#004c26;stroke-width:0.0125;"/>
        <!-- Line -->
        <line x1="12.6404" y1="3.7002" x2="10.2031" y2="3.7002" style="stroke:#004c26;stroke-width:0.0125;"/>
        <!-- Line -->
        <line x1="6.0283" y1="3.7002" x2="6.0283" y2="7.3002" style="stroke:#004c26;stroke-width:0.0125;"/>
        <!-- Line -->
        <line x1="12.8404" y1="3.5002" x2="10.2031" y2="3.5002" style="stroke:#004c26;stroke-width:0.0125;"/>
        <!-- Hatch -->
        <path d="M9.4281,3.5502 L9.4031,3.5502 L9.4031,3.5002 L9.4281,3.5002 ZM10.2031,3.5502 L10.1781,3.5502 L10.1781,3.5002 L10.2031,3.5002 ZM10.1781,3.5002 L10.1281,3.5002 L10.1281,2.7002 L10.1781,2.7002 Z" style="fill:#808080;fill-rule:evenodd;"/>
        <!-- Hatch -->
        <path d="M10.2031,3.7002 L9.4031,3.7002 L9.4031,3.5502 L9.4281,3.5502 L10.1781,3.5502 L10.2031,3.5502 ZM10.1781,3.5502 L9.4281,3.5502 L9.4281,3.5002 L10.1281,3.5002 L10.1781,3.5002 ZM10.1281,3.5002 L9.4281,3.5002 L10.1281,2.7002 Z" style="fill:#d7ebd2;fill-rule:evenodd;"/>
        <!-- Line -->
        <line x1="10.2031" y1="3.7002" x2="10.2031" y2="3.5002" style="stroke:#004c26;stroke-width:0.0125;"/>
        <!-- Line -->
        <line x1="9.4031" y1="3.7002" x2="9.4031" y2="3.5002" style="stroke:#004c26;stroke-width:0.0125;"/>
        <!-- Line -->
        <line x1="9.4031" y1="3.7002" x2="6.0283" y2="3.7002" style="stroke:#004c26;stroke-width:0.0125;"/>
        <!-- Line -->
        <line x1="9.4031" y1="3.5002" x2="5.8283" y2="3.5002" style="stroke:#004c26;stroke-width:0.0125;"/>
        <!-- Line -->
        <line x1="10.1781" y1="3.5502" x2="10.1781" y2="3.5002" style="stroke:#808080;stroke-width:0.0125;"/>
        <!-- Line -->
        <line x1="9.4281" y1="3.5502" x2="9.4281" y2="3.5002" style="stroke:#808080;stroke-width:0.0125;"/>
        <!-- Line -->
        <line x1="9.4031" y1="3.5002" x2="9.4281" y2="3.5002" style="stroke:#808080;stroke-width:0.0125;"/>
        <!-- Line -->
        <line x1="10.2031" y1="3.5002" x2="10.1781" y2="3.5002" style="stroke:#808080;stroke-width:0.0125;"/>
        <!-- Line -->
        <line x1="10.2031" y1="3.5502" x2="10.1781" y2="3.5502" style="stroke:#808080;stroke-width:0.0125;"/>
        <!-- Line -->
        <line x1="9.4281" y1="3.5502" x2="9.4031" y2="3.5502" style="stroke:#808080;stroke-width:0.0125;"/>
        <!-- Line -->
        <line x1="10.1781" y1="3.5002" x2="10.1781" y2="2.7002" style="stroke:#808080;stroke-width:0.0125;"/>
        <!-- Line -->
        <line x1="10.1281" y1="3.5002" x2="10.1281" y2="2.7002" style="stroke:#808080;stroke-width:0.0125;"/>
        <!-- Line -->
        <line x1="10.1781" y1="3.5002" x2="10.1281" y2="3.5002" style="stroke:#808080;stroke-width:0.0125;"/>
        <!-- Line -->
        <line x1="10.1781" y1="2.7002" x2="10.1281" y2="2.7002" style="stroke:#808080;stroke-width:0.0125;"/>
        <!-- Line -->
        <line x1="10.1281" y1="2.7002" x2="9.4281" y2="3.5002" style="stroke:#808080;stroke-width:0.0125;"/>
        <!-- Line -->
        <line x1="9.4031" y1="3.7002" x2="10.2031" y2="3.7002" style="stroke:#808080;stroke-width:0.0125;"/>
        <!-- Line -->
        <line x1="9.4281" y1="3.5502" x2="10.1781" y2="3.5502" style="stroke:#808080;stroke-width:0.0125;"/>
        <!-- Line -->
        <line x1="10.1281" y1="3.5002" x2="9.4281" y2="3.5002" style="stroke:#808080;stroke-width:0.0125;"/>
        <!-- Hatch -->
        <path d="M7.0129,5.2002 L7.0129,5.8002" style="stroke:#7aafdf;stroke-width:0.0125;"/>
        <!-- Line -->
        <line x1="6.7783" y1="5.8002" x2="11.8904" y2="5.8002" style="stroke:#808080;stroke-width:0.0125;"/>
        <!-- Line -->
        <line x1="6.7783" y1="5.2002" x2="11.8904" y2="5.2002" style="stroke:#808080;stroke-width:0.0125;"/>
        <!-- Line -->
        <line x1="11.8904" y1="5.2002" x2="11.8904" y2="5.8002" style="stroke:#808080;stroke-width:0.0125;"/>
        <!-- Line -->
        <line x1="6.7783" y1="5.2002" x2="6.7783" y2="5.8002" style="stroke:#808080;stroke-width:0.0125;"/>
        <!-- Line -->
        <line x1="6.0283" y1="7.3002" x2="5.8283" y2="7.5002" style="stroke:#333333;stroke-width:0.0125;"/>
        <!-- Line -->
        <line x1="12.6404" y1="7.3002" x2="12.8404" y2="7.5141" style="stroke:#333333;stroke-width:0.0125;"/>
        <!-- Line -->
        <line x1="12.8404" y1="3.5004" x2="12.601" y2="3.7002" style="stroke:#333333;stroke-width:0.0125;"/>
        <!-- Line -->
        <line x1="5.8283" y1="3.5002" x2="6.0283" y2="3.7002" style="stroke:#333333;stroke-width:0.0125;"/>
        <!-- Line -->
        <line x1="20.6858" y1="0.0001" x2="20.6369" y2="3.575" style="stroke:#cd2027;stroke-width:0.0125;"/>
        <!-- Line -->
        <line x1="20.6369" y1="3.575" x2="19.8532" y2="3.575" style="stroke:#cd2027;stroke-width:0.0125;"/>
    </g>
</svg>
