<?xml version="1.0" encoding="UTF-8"?>
<!-- 2020-09-05 22:27:07 Generated by QCAD 3.24.3 SVG Exporter PG -->
<svg width="422.4854mm" height="162.0032mm" viewBox="-0.3 -7.8002 21.1243 8.1002" version="1.1" xmlns="http://www.w3.org/2000/svg" style="stroke-linecap:round;stroke-linejoin:round;fill:none">
    <g transform="scale(1,-1)">
        <!-- Hatch -->
        <path d="M20.5243,3.4905 L20.0572,3.4905 L13.0444,3.5002 L13.0445,0.4976 A0.499998,0.499998 0 0 1 13.5445,0.0004 L20.5243,0.0001 Z" style="fill:#cc9900;fill-rule:evenodd;"/>
        <!-- Line -->
        <line x1="20.5243" y1="0.0001" x2="13.5449" y2="0.0001" style="stroke:#ff0000;stroke-width:0.0125;"/>
        <!-- Hatch -->
        <path d="M4.8255,7.5002 L1.2321,7.5002 L1.2322,4.0002 A3.99998,3.99998 0 0 1 5.2543,0.0003 L6.8821,0.0004 A0.499998,0.499998 0 0 1 7.3821,0.5031 L7.3821,3.7002 L6.0823,3.7002 L4.8255,3.7002 ZM10.7327,3.7002 L9.2571,3.7002 L9.2571,0.5003 A0.499998,0.499998 0 0 1 9.7569,0.0003 L10.2568,0.0004 A0.499998,0.499998 0 0 1 10.757,0.5089 Z" style="fill:#cc9900;fill-rule:evenodd;"/>
        <!-- Line -->
        <line x1="10.7327" y1="3.7002" x2="10.7571" y2="0.5003" style="stroke:#ff0000;stroke-width:0.0125;"/>
        <!-- Line -->
        <line x1="9.2571" y1="3.7002" x2="9.2571" y2="0.5005" style="stroke:#ff0000;stroke-width:0.0125;"/>
        <!-- Line -->
        <line x1="7.3821" y1="3.7002" x2="7.3821" y2="0.5004" style="stroke:#ff0000;stroke-width:0.0125;"/>
        <!-- Line -->
        <line x1="6.8821" y1="0.0003" x2="5.2321" y2="0.0003" style="stroke:#ff0000;stroke-width:0.0125;"/>
        <!-- Line -->
        <line x1="10.2574" y1="0" x2="9.7571" y2="0.0002" style="stroke:#ff0000;stroke-width:0.0125;"/>
        <!-- Line -->
        <line x1="13.0444" y1="3.5004" x2="13.0445" y2="0.5003" style="stroke:#ff0000;stroke-width:0.0125;"/>
        <!-- Line -->
        <line x1="1.2321" y1="7.5002" x2="1.2321" y2="4.0003" style="stroke:#ff0000;stroke-width:0.0125;"/>
        <!-- Arc -->
        <path d="M13.0445,0.5004 A0.5,0.5 0 0,1 13.5446,0.0004" style="stroke:#ff0000;stroke-width:0.0125;"/>
        <!-- Arc -->
        <path d="M10.2571,0.0004 A0.5,0.5 0 0,1 10.7571,0.5004" style="stroke:#ff0000;stroke-width:0.0125;"/>
        <!-- Arc -->
        <path d="M9.2571,0.5003 A0.5,0.5 0 0,1 9.7572,0.0003" style="stroke:#ff0000;stroke-width:0.0125;"/>
        <!-- Arc -->
        <path d="M6.8821,0.0004 A0.5,0.5 0 0,1 7.3821,0.5004" style="stroke:#ff0000;stroke-width:0.0125;"/>
        <!-- Arc -->
        <path d="M1.2322,4.0002 A4,4 0 0,1 5.2322,0.0002" style="stroke:#ff0000;stroke-width:0.0125;"/>
        <!-- Line -->
        <line x1="12.1444" y1="4.7301" x2="12.1444" y2="5.0502" style="stroke:#004c26;stroke-width:0.03;"/>
        <!-- Line -->
        <line x1="20.0572" y1="7.5002" x2="20.0572" y2="3.5002" style="stroke:#808080;stroke-width:0.0125;"/>
        <!-- Line -->
        <line x1="20.0572" y1="3.5002" x2="13.0444" y2="3.5002" style="stroke:#808080;stroke-width:0.0125;"/>
        <!-- Hatch -->
        <path d="M9.694,6.9619 L9.7864,7.0002 L11.2024,7.0002 L11.2948,6.9619 L12.1062,6.1506 L12.1444,6.0582 L12.1444,5.8502 L12.1444,5.8252 L12.9444,5.1252 L12.9444,5.0752 L12.1444,5.0752 L12.1444,5.0627 L12.1444,5.0502 L12.1444,4.7002 L12.9944,4.7002 L12.9944,3.7055 L13.0444,3.7055 L13.0444,7.5002 L4.8255,7.5002 L4.8255,3.7002 L6.0823,3.7002 L6.0823,6.0582 L8.8444,6.0582 L8.8827,6.1506 Z" style="fill:#d7ebd2;fill-rule:evenodd;"/>
        <!-- Line -->
        <line x1="13.0444" y1="7.5002" x2="0" y2="7.5002" style="stroke:#808080;stroke-width:0.0125;"/>
        <!-- Line -->
        <line x1="12.8444" y1="3.7002" x2="6.2323" y2="3.7002" style="stroke:#004c26;stroke-width:0.0125;"/>
        <!-- Hatch -->
        <path d="M9.0327,6.0884 L8.8827,6.1506 L8.8444,6.0582 L8.9944,5.996 ZM9.7864,7.0002 L9.694,6.9619 L9.7562,6.8119 L9.8485,6.8502 ZM11.2948,6.9619 L11.2024,7.0002 L11.1403,6.8502 L11.2327,6.8119 ZM12.1062,6.1506 L11.9562,6.0884 L11.9944,5.996 L12.1444,6.0582 ZM12.1444,6.0582 L11.9944,5.996 L11.9944,5.8502 L12.1444,5.8502 Z" style="fill:#000000;fill-rule:evenodd;"/>
        <!-- Line -->
        <line x1="11.9944" y1="5.996" x2="11.9944" y2="5.8502" style="stroke:#004c26;stroke-width:0.0125;"/>
        <!-- Hatch -->
        <path d="M8.9944,5.996 L8.8444,6.0582 L6.0823,6.0582 L6.0823,3.7002 L12.9944,3.7002 L12.9944,4.7002 L12.1444,4.7002 L12.1444,5.0502 L11.9944,5.0502 L11.9944,4.5502 L12.8444,4.5502 L12.8444,3.8502 L8.9944,3.8502 L8.9944,4.1502 L8.8444,4.1502 L8.8444,3.8502 L6.2323,3.8502 L6.2323,5.9082 L8.8444,5.9082 L8.8444,4.9502 L8.9944,4.9502 Z" style="fill:#000000;fill-rule:evenodd;"/>
        <!-- Line -->
        <line x1="8.9944" y1="5.996" x2="8.9944" y2="4.9502" style="stroke:#004c26;stroke-width:0.0125;"/>
        <!-- Hatch -->
        <path d="M9.7562,6.8119 L9.7251,6.8869 L8.9577,6.1195 L9.0327,6.0884 ZM9.7251,6.8869 L9.694,6.9619 L8.8827,6.1506 L8.9577,6.1195 ZM11.2024,7.0002 L9.7864,7.0002 L9.8175,6.9252 L11.1714,6.9252 ZM11.1714,6.9252 L9.8175,6.9252 L9.8485,6.8502 L11.1403,6.8502 ZM11.2948,6.9619 L11.2638,6.8869 L12.0312,6.1195 L12.1062,6.1506 ZM11.2638,6.8869 L11.2327,6.8119 L11.9562,6.0884 L12.0312,6.1195 Z" style="fill:#00ff00;fill-rule:evenodd;"/>
        <!-- Line -->
        <line x1="9.8485" y1="6.8502" x2="11.1403" y2="6.8502" style="stroke:#808080;stroke-width:0.0125;"/>
        <!-- Line -->
        <line x1="9.7562" y1="6.8119" x2="9.0327" y2="6.0884" style="stroke:#808080;stroke-width:0.0125;"/>
        <!-- Line -->
        <line x1="11.2327" y1="6.8119" x2="11.9562" y2="6.0884" style="stroke:#808080;stroke-width:0.0125;"/>
        <!-- Line -->
        <line x1="8.8444" y1="5.9082" x2="8.8444" y2="4.9502" style="stroke:#004c26;stroke-width:0.0125;"/>
        <!-- Line -->
        <line x1="12.1444" y1="6.0582" x2="12.1444" y2="5.8502" style="stroke:#004c26;stroke-width:0.0125;"/>
        <!-- Line -->
        <line x1="11.2948" y1="6.9619" x2="12.1062" y2="6.1506" style="stroke:#808080;stroke-width:0.0125;"/>
        <!-- Line -->
        <line x1="9.7864" y1="7.0002" x2="11.2024" y2="7.0002" style="stroke:#808080;stroke-width:0.0125;"/>
        <!-- Line -->
        <line x1="9.694" y1="6.9619" x2="8.8827" y2="6.1506" style="stroke:#808080;stroke-width:0.0125;"/>
        <!-- Line -->
        <line x1="12.9944" y1="4.7002" x2="12.9944" y2="3.7002" style="stroke:#004c26;stroke-width:0.0125;"/>
        <!-- Line -->
        <line x1="12.1444" y1="4.7002" x2="12.9944" y2="4.7002" style="stroke:#004c26;stroke-width:0.0125;"/>
        <!-- Line -->
        <line x1="11.9944" y1="4.5502" x2="12.8444" y2="4.5502" style="stroke:#004c26;stroke-width:0.0125;"/>
        <!-- Line -->
        <line x1="8.9944" y1="3.8502" x2="12.8444" y2="3.8502" style="stroke:#004c26;stroke-width:0.0125;"/>
        <!-- Line -->
        <line x1="12.8444" y1="4.5502" x2="12.8444" y2="3.8502" style="stroke:#004c26;stroke-width:0.0125;"/>
        <!-- Hatch -->
        <path d="M8.9944,4.9502 L8.8444,4.9502 L8.8444,4.9252 L8.9944,4.9252 ZM8.8444,4.2252 L8.0444,4.2252 L8.0444,4.1752 L8.8444,4.1752 ZM8.9944,4.1752 L8.8444,4.1752 L8.8444,4.1502 L8.9944,4.1502 ZM12.1444,5.8502 L11.9944,5.8502 L11.9944,5.8252 L12.1444,5.8252 ZM12.9444,5.1252 L12.1444,5.1252 L12.1444,5.0752 L12.9444,5.0752 ZM12.1444,5.0752 L11.9944,5.0752 L11.9944,5.0502 L12.1444,5.0502 Z" style="fill:#808080;fill-rule:evenodd;"/>
        <!-- Line -->
        <line x1="8.8444" y1="4.1502" x2="8.9944" y2="4.1502" style="stroke:#004c26;stroke-width:0.0125;"/>
        <!-- Line -->
        <line x1="8.8444" y1="4.9502" x2="8.9944" y2="4.9502" style="stroke:#004c26;stroke-width:0.0125;"/>
        <!-- Line -->
        <line x1="8.8444" y1="4.1502" x2="8.8444" y2="3.8502" style="stroke:#004c26;stroke-width:0.0125;"/>
        <!-- Line -->
        <line x1="8.9944" y1="4.1502" x2="8.9944" y2="3.8502" style="stroke:#004c26;stroke-width:0.0125;"/>
        <!-- Line -->
        <line x1="8.8444" y1="4.1752" x2="8.9944" y2="4.1752" style="stroke:#808080;stroke-width:0.0125;"/>
        <!-- Line -->
        <line x1="8.8444" y1="4.9252" x2="8.9944" y2="4.9252" style="stroke:#808080;stroke-width:0.0125;"/>
        <!-- Line -->
        <line x1="8.8444" y1="4.9502" x2="8.8444" y2="4.9252" style="stroke:#808080;stroke-width:0.0125;"/>
        <!-- Line -->
        <line x1="8.9944" y1="4.9502" x2="8.9944" y2="4.9252" style="stroke:#808080;stroke-width:0.0125;"/>
        <!-- Line -->
        <line x1="8.8444" y1="4.1752" x2="8.8444" y2="4.1502" style="stroke:#808080;stroke-width:0.0125;"/>
        <!-- Line -->
        <line x1="8.9944" y1="4.1752" x2="8.9944" y2="4.1502" style="stroke:#808080;stroke-width:0.0125;"/>
        <!-- Line -->
        <line x1="11.9944" y1="5.8502" x2="12.1444" y2="5.8502" style="stroke:#004c26;stroke-width:0.0125;"/>
        <!-- Line -->
        <line x1="11.9944" y1="5.0502" x2="12.1444" y2="5.0502" style="stroke:#004c26;stroke-width:0.0125;"/>
        <!-- Line -->
        <line x1="11.9944" y1="5.0502" x2="11.9944" y2="4.5502" style="stroke:#004c26;stroke-width:0.0125;"/>
        <!-- Line -->
        <line x1="12.1444" y1="5.0502" x2="12.1444" y2="4.7002" style="stroke:#004c26;stroke-width:0.0125;"/>
        <!-- Line -->
        <line x1="11.1403" y1="6.8502" x2="11.2024" y2="7.0002" style="stroke:#004c26;stroke-width:0.0125;"/>
        <!-- Line -->
        <line x1="11.2327" y1="6.8119" x2="11.2948" y2="6.9619" style="stroke:#004c26;stroke-width:0.0125;"/>
        <!-- Line -->
        <line x1="9.8485" y1="6.8502" x2="9.7864" y2="7.0002" style="stroke:#004c26;stroke-width:0.0125;"/>
        <!-- Line -->
        <line x1="9.7562" y1="6.8119" x2="9.694" y2="6.9619" style="stroke:#004c26;stroke-width:0.0125;"/>
        <!-- Line -->
        <line x1="9.8175" y1="6.9252" x2="11.1714" y2="6.9252" style="stroke:#808080;stroke-width:0.0125;"/>
        <!-- Line -->
        <line x1="9.7864" y1="7.0002" x2="9.694" y2="6.9619" style="stroke:#004c26;stroke-width:0.0125;"/>
        <!-- Line -->
        <line x1="9.8485" y1="6.8502" x2="9.7562" y2="6.8119" style="stroke:#004c26;stroke-width:0.0125;"/>
        <!-- Line -->
        <line x1="11.2024" y1="7.0002" x2="11.2948" y2="6.9619" style="stroke:#004c26;stroke-width:0.0125;"/>
        <!-- Line -->
        <line x1="11.1403" y1="6.8502" x2="11.2327" y2="6.8119" style="stroke:#004c26;stroke-width:0.0125;"/>
        <!-- Line -->
        <line x1="9.0327" y1="6.0884" x2="8.8827" y2="6.1506" style="stroke:#004c26;stroke-width:0.0125;"/>
        <!-- Line -->
        <line x1="8.9944" y1="5.996" x2="8.8444" y2="6.0582" style="stroke:#004c26;stroke-width:0.0125;"/>
        <!-- Line -->
        <line x1="8.8827" y1="6.1506" x2="8.8444" y2="6.0582" style="stroke:#004c26;stroke-width:0.0125;"/>
        <!-- Line -->
        <line x1="9.0327" y1="6.0884" x2="8.9944" y2="5.996" style="stroke:#004c26;stroke-width:0.0125;"/>
        <!-- Line -->
        <line x1="9.7251" y1="6.8869" x2="8.9577" y2="6.1195" style="stroke:#808080;stroke-width:0.0125;"/>
        <!-- Line -->
        <line x1="11.9562" y1="6.0884" x2="12.1062" y2="6.1506" style="stroke:#004c26;stroke-width:0.0125;"/>
        <!-- Line -->
        <line x1="11.9944" y1="5.996" x2="12.1444" y2="6.0582" style="stroke:#004c26;stroke-width:0.0125;"/>
        <!-- Line -->
        <line x1="11.9562" y1="6.0884" x2="11.9944" y2="5.996" style="stroke:#004c26;stroke-width:0.0125;"/>
        <!-- Line -->
        <line x1="12.1062" y1="6.1506" x2="12.1444" y2="6.0582" style="stroke:#004c26;stroke-width:0.0125;"/>
        <!-- Line -->
        <line x1="11.2638" y1="6.8869" x2="12.0312" y2="6.1195" style="stroke:#808080;stroke-width:0.0125;"/>
        <!-- Line -->
        <line x1="8.8444" y1="4.1752" x2="8.0444" y2="4.1752" style="stroke:#808080;stroke-width:0.0125;"/>
        <!-- Line -->
        <line x1="8.8444" y1="4.2252" x2="8.0444" y2="4.2252" style="stroke:#808080;stroke-width:0.0125;"/>
        <!-- Line -->
        <line x1="8.8444" y1="4.1752" x2="8.8444" y2="4.2252" style="stroke:#808080;stroke-width:0.0125;"/>
        <!-- Line -->
        <line x1="8.0444" y1="4.1752" x2="8.0444" y2="4.2252" style="stroke:#808080;stroke-width:0.0125;"/>
        <!-- Line -->
        <line x1="8.8444" y1="4.9252" x2="8.0444" y2="4.2252" style="stroke:#808080;stroke-width:0.0125;"/>
        <!-- Line -->
        <line x1="11.9944" y1="5.8252" x2="12.1444" y2="5.8252" style="stroke:#808080;stroke-width:0.0125;"/>
        <!-- Line -->
        <line x1="11.9944" y1="5.0752" x2="12.1444" y2="5.0752" style="stroke:#808080;stroke-width:0.0125;"/>
        <!-- Line -->
        <line x1="11.9944" y1="5.8502" x2="11.9944" y2="5.8252" style="stroke:#808080;stroke-width:0.0125;"/>
        <!-- Line -->
        <line x1="12.1444" y1="5.8502" x2="12.1444" y2="5.8252" style="stroke:#808080;stroke-width:0.0125;"/>
        <!-- Line -->
        <line x1="12.1444" y1="5.0752" x2="12.1444" y2="5.0502" style="stroke:#808080;stroke-width:0.0125;"/>
        <!-- Line -->
        <line x1="12.1444" y1="5.0752" x2="12.9444" y2="5.0752" style="stroke:#808080;stroke-width:0.0125;"/>
        <!-- Line -->
        <line x1="12.1444" y1="5.1252" x2="12.9444" y2="5.1252" style="stroke:#808080;stroke-width:0.0125;"/>
        <!-- Line -->
        <line x1="12.1444" y1="5.0627" x2="12.1444" y2="5.1252" style="stroke:#808080;stroke-width:0.0125;"/>
        <!-- Line -->
        <line x1="12.9444" y1="5.0752" x2="12.9444" y2="5.1252" style="stroke:#808080;stroke-width:0.0125;"/>
        <!-- Line -->
        <line x1="12.1444" y1="5.8252" x2="12.9444" y2="5.1252" style="stroke:#808080;stroke-width:0.0125;"/>
        <!-- Line -->
        <line x1="8.8444" y1="6.0582" x2="6.0823" y2="6.0582" style="stroke:#004c26;stroke-width:0.0125;"/>
        <!-- Line -->
        <line x1="6.2323" y1="5.9082" x2="6.2323" y2="3.8502" style="stroke:#004c26;stroke-width:0.0125;"/>
        <!-- Line -->
        <line x1="8.8444" y1="5.9082" x2="6.2323" y2="5.9082" style="stroke:#004c26;stroke-width:0.0125;"/>
        <!-- Line -->
        <line x1="6.2323" y1="3.8502" x2="8.8444" y2="3.8502" style="stroke:#004c26;stroke-width:0.0125;"/>
        <!-- Line -->
        <line x1="6.0823" y1="6.0582" x2="6.0823" y2="3.7002" style="stroke:#004c26;stroke-width:0.0125;"/>
        <!-- Line -->
        <line x1="12.9944" y1="3.7002" x2="6.0823" y2="3.7002" style="stroke:#004c26;stroke-width:0.0125;"/>
        <!-- Line -->
        <line x1="13.0444" y1="3.5002" x2="13.0444" y2="7.5002" style="stroke:#808080;stroke-width:0.0125;"/>
        <!-- Line -->
        <line x1="6.0823" y1="3.7002" x2="4.8255" y2="3.7002" style="stroke:#808080;stroke-width:0.0125;"/>
        <!-- Line -->
        <line x1="4.8255" y1="3.7002" x2="4.8255" y2="7.5002" style="stroke:#808080;stroke-width:0.0125;"/>
        <!-- Line -->
        <line x1="12.9944" y1="3.7055" x2="13.0444" y2="3.7055" style="stroke:#808080;stroke-width:0.0125;"/>
        <!-- Line -->
        <line x1="20.5243" y1="0.0001" x2="20.5243" y2="3.4905" style="stroke:#808080;stroke-width:0.0125;"/>
        <!-- Line -->
        <line x1="20.5243" y1="3.4905" x2="20.0572" y2="3.4905" style="stroke:#808080;stroke-width:0.0125;"/>
    </g>
</svg>
