<?xml version="1.0" encoding="UTF-8"?>
<!-- 2020-09-03 18:43:44 Generated by QCAD 3.24.3 SVG Exporter PG -->
<svg width="857.0995mm" height="555.1449mm" viewBox="240.0084 -206.2973 42.855 27.7572" version="1.1" xmlns="http://www.w3.org/2000/svg" style="stroke-linecap:round;stroke-linejoin:round;fill:none">
    <g transform="scale(1,-1)">
        <!-- Line -->
        <line x1="275.9795" y1="190.7544" x2="276.9795" y2="190.7544" style="stroke:#808080;stroke-width:0.0125;"/>
        <!-- Line -->
        <line x1="275.9795" y1="193.2544" x2="276.9795" y2="193.2544" style="stroke:#808080;stroke-width:0.0125;"/>
        <!-- Line -->
        <line x1="269.4895" y1="190.6644" x2="269.4895" y2="189.6644" style="stroke:#808080;stroke-width:0.0125;"/>
        <!-- Line -->
        <line x1="278.9795" y1="195.2544" x2="278.9795" y2="198.627" style="stroke:#808080;stroke-width:0.0125;"/>
        <!-- Line -->
        <line x1="242.4995" y1="198.627" x2="242.4995" y2="191.5044" style="stroke:#808080;stroke-width:0.0125;"/>
        <!-- Line -->
        <line x1="242.4995" y1="185.0044" x2="242.4995" y2="182.5608" style="stroke:#808080;stroke-width:0.0125;"/>
        <!-- Line -->
        <line x1="244.4995" y1="180.5608" x2="274.9795" y2="180.5608" style="stroke:#808080;stroke-width:0.0125;"/>
        <!-- Line -->
        <line x1="278.9795" y1="184.5608" x2="278.9795" y2="188.7544" style="stroke:#808080;stroke-width:0.0125;"/>
        <!-- Line -->
        <line x1="246.4995" y1="202.627" x2="274.9795" y2="202.627" style="stroke:#808080;stroke-width:0.0125;"/>
        <!-- Line -->
        <line x1="245.7795" y1="187.0044" x2="245.7795" y2="186.0044" style="stroke:#333333;stroke-width:0.0125;"/>
        <!-- Line -->
        <line x1="269.5695" y1="189.5044" x2="275.9795" y2="189.5044" style="stroke:#333333;stroke-width:0.0125;"/>
        <!-- Line -->
        <line x1="245.4995" y1="189.7044" x2="244.4995" y2="189.7044" style="stroke:#808080;stroke-width:0.0125;"/>
        <!-- Line -->
        <line x1="275.9795" y1="193.4544" x2="276.9795" y2="193.4544" style="stroke:#808080;stroke-width:0.0125;"/>
        <!-- Line -->
        <line x1="275.9795" y1="190.5544" x2="276.9795" y2="190.5544" style="stroke:#808080;stroke-width:0.0125;"/>
        <!-- Line -->
        <line x1="246.4995" y1="202.427" x2="274.9795" y2="202.427" style="stroke:#808080;stroke-width:0.0125;"/>
        <!-- Line -->
        <line x1="242.6995" y1="198.627" x2="242.6995" y2="191.5044" style="stroke:#808080;stroke-width:0.0125;"/>
        <!-- Line -->
        <line x1="278.7795" y1="195.2544" x2="278.7795" y2="198.627" style="stroke:#808080;stroke-width:0.0125;"/>
        <!-- Line -->
        <line x1="269.4095" y1="189.6644" x2="269.4095" y2="185.6944" style="stroke:#333333;stroke-width:0.0125;"/>
        <!-- Polyline -->
        <path d="M242.6995,185.0044 L242.6995,182.5608 A1.8,1.8 0 0 1 244.4995,180.7608 L274.7795,180.7608 A4,4 0 0 1 278.7795,184.7608 L278.7795,188.7544" style="stroke:#808080;stroke-width:0.0125;"/>
        <!-- Line -->
        <line x1="260.7395" y1="205.4511" x2="260.7395" y2="179.3863" style="stroke:#808080;stroke-width:0.0125;stroke-dasharray:0.2381,0.0397,0.0397,0.0397;stroke-dashoffset:0.124"/>
        <!-- Circle -->
        <circle cx="260.7395" cy="205.7242" r="0.2731" style="stroke:#808080;stroke-width:0.0125;stroke-dasharray:0.2381,0.0397,0.0397,0.0397;stroke-dashoffset:0.154"/>
        <!-- Text: II -->
        <text x="260.8348" dx="0" y="-205.8292" dy="0.2" font-family="arial" font-size="0.28" line-height="1.1" fill="#808080" transform="scale(1,-1) rotate(360 260.8348,-205.8292)" text-anchor="end">II</text>
        <!-- Line -->
        <line x1="261.9095" y1="190.0494" x2="261.9095" y2="185.6944" style="stroke:#333333;stroke-width:0.0125;"/>
        <!-- Line -->
        <line x1="262.0695" y1="190.2094" x2="262.0695" y2="185.6944" style="stroke:#333333;stroke-width:0.0125;"/>
        <!-- Line -->
        <line x1="262.0695" y1="190.2094" x2="245.7795" y2="190.2094" style="stroke:#333333;stroke-width:0.0125;"/>
        <!-- Line -->
        <line x1="261.9095" y1="190.0494" x2="245.7795" y2="190.0494" style="stroke:#333333;stroke-width:0.0125;"/>
        <!-- Line -->
        <line x1="246.9895" y1="185.6944" x2="245.7895" y2="185.6944" style="stroke:#333333;stroke-width:0.0125;"/>
        <!-- Line -->
        <line x1="244.4995" y1="189.5044" x2="245.4995" y2="189.5044" style="stroke:#808080;stroke-width:0.0125;"/>
        <!-- Line -->
        <line x1="282.0172" y1="192.1044" x2="240.8546" y2="192.1044" style="stroke:#808080;stroke-width:0.0125;stroke-dasharray:0.2381,0.0397,0.0397,0.0397;stroke-dashoffset:0.0761"/>
        <!-- Circle -->
        <circle cx="282.2903" cy="192.1044" r="0.2731" style="stroke:#808080;stroke-width:0.0125;stroke-dasharray:0.2381,0.0397,0.0397,0.0397;stroke-dashoffset:0.154"/>
        <!-- Text: I -->
        <text x="282.3272" dx="0" y="-192.2094" dy="0.2" font-family="arial" font-size="0.28" line-height="1.1" fill="#808080" transform="scale(1,-1) rotate(360 282.3272,-192.2094)" text-anchor="end">I</text>
        <!-- Line -->
        <line x1="245.4995" y1="187.0044" x2="245.4995" y2="185.4144" style="stroke:#333333;stroke-width:0.0125;"/>
        <!-- Line -->
        <line x1="246.9895" y1="185.4144" x2="245.4995" y2="185.4144" style="stroke:#333333;stroke-width:0.0125;"/>
        <!-- Line -->
        <line x1="246.9895" y1="185.6944" x2="246.9895" y2="185.4144" style="stroke:#333333;stroke-width:0.0125;"/>
        <!-- Arc -->
        <path d="M244.4995,187.0044 A2,2 0 0,1 242.4995,185.0044" style="stroke:#808080;stroke-width:0.0125;"/>
        <!-- Arc -->
        <path d="M244.4995,186.8044 A1.8,1.8 0 0,1 242.6995,185.0044" style="stroke:#808080;stroke-width:0.0125;"/>
        <!-- Line -->
        <line x1="245.4995" y1="187.0044" x2="245.7795" y2="187.0044" style="stroke:#333333;stroke-width:0.0125;"/>
        <!-- Line -->
        <line x1="254.4895" y1="185.6944" x2="254.4895" y2="185.4144" style="stroke:#333333;stroke-width:0.0125;"/>
        <!-- Line -->
        <line x1="256.9895" y1="185.6944" x2="256.9895" y2="185.4144" style="stroke:#333333;stroke-width:0.0125;"/>
        <!-- Line -->
        <line x1="254.4895" y1="185.4144" x2="256.9895" y2="185.4144" style="stroke:#333333;stroke-width:0.0125;"/>
        <!-- Line -->
        <line x1="254.4895" y1="185.6944" x2="255.6395" y2="185.6944" style="stroke:#333333;stroke-width:0.0125;"/>
        <!-- Line -->
        <line x1="263.2395" y1="185.6944" x2="264.3895" y2="185.6944" style="stroke:#333333;stroke-width:0.0125;"/>
        <!-- Line -->
        <line x1="263.2395" y1="185.4144" x2="265.7395" y2="185.4144" style="stroke:#333333;stroke-width:0.0125;"/>
        <!-- Line -->
        <line x1="263.2395" y1="185.6944" x2="263.2395" y2="185.4144" style="stroke:#333333;stroke-width:0.0125;"/>
        <!-- Line -->
        <line x1="265.7395" y1="185.6944" x2="265.7395" y2="185.4144" style="stroke:#333333;stroke-width:0.0125;"/>
        <!-- Line -->
        <line x1="274.4895" y1="185.4144" x2="275.9795" y2="185.4144" style="stroke:#333333;stroke-width:0.0125;"/>
        <!-- Line -->
        <line x1="274.4895" y1="185.6944" x2="275.6895" y2="185.6944" style="stroke:#333333;stroke-width:0.0125;"/>
        <!-- Line -->
        <line x1="275.9795" y1="187.0044" x2="275.6995" y2="187.0044" style="stroke:#333333;stroke-width:0.0125;"/>
        <!-- Line -->
        <line x1="275.6995" y1="187.0044" x2="275.6995" y2="186.0044" style="stroke:#333333;stroke-width:0.0125;"/>
        <!-- Line -->
        <line x1="275.9795" y1="187.0044" x2="275.9795" y2="185.4144" style="stroke:#333333;stroke-width:0.0125;"/>
        <!-- Line -->
        <line x1="274.4895" y1="185.6944" x2="274.4895" y2="185.4144" style="stroke:#333333;stroke-width:0.0125;"/>
        <!-- Line -->
        <line x1="246.9895" y1="185.4144" x2="254.4895" y2="185.4144" style="stroke:#808080;stroke-width:0.0125;"/>
        <!-- Line -->
        <line x1="256.9895" y1="185.4144" x2="263.2395" y2="185.4144" style="stroke:#808080;stroke-width:0.0125;"/>
        <!-- Line -->
        <line x1="247.0295" y1="185.5844" x2="248.2462" y2="185.5844" style="stroke:#808080;stroke-width:0.0125;"/>
        <!-- Line -->
        <line x1="246.9895" y1="185.4444" x2="254.4895" y2="185.4444" style="stroke:#808080;stroke-width:0.0125;"/>
        <!-- Line -->
        <line x1="246.9895" y1="185.6944" x2="254.4895" y2="185.6944" style="stroke:#808080;stroke-width:0.0125;"/>
        <!-- Line -->
        <line x1="247.0295" y1="185.5444" x2="248.2462" y2="185.5444" style="stroke:#808080;stroke-width:0.0125;"/>
        <!-- Line -->
        <line x1="247.0295" y1="185.6944" x2="247.0295" y2="185.4444" style="stroke:#808080;stroke-width:0.0125;"/>
        <!-- Line -->
        <line x1="248.2462" y1="185.4444" x2="248.2462" y2="185.6944" style="stroke:#808080;stroke-width:0.0125;"/>
        <!-- Line -->
        <line x1="248.2862" y1="185.4444" x2="248.2862" y2="185.6944" style="stroke:#808080;stroke-width:0.0125;"/>
        <!-- Line -->
        <line x1="248.2862" y1="185.5844" x2="249.4829" y2="185.5844" style="stroke:#808080;stroke-width:0.0125;"/>
        <!-- Line -->
        <line x1="248.2862" y1="185.5444" x2="249.4829" y2="185.5444" style="stroke:#808080;stroke-width:0.0125;"/>
        <!-- Line -->
        <line x1="249.5229" y1="185.5844" x2="250.7196" y2="185.5844" style="stroke:#808080;stroke-width:0.0125;"/>
        <!-- Line -->
        <line x1="249.5229" y1="185.5444" x2="250.7196" y2="185.5444" style="stroke:#808080;stroke-width:0.0125;"/>
        <!-- Line -->
        <line x1="254.4495" y1="185.6944" x2="254.4495" y2="185.4444" style="stroke:#808080;stroke-width:0.0125;"/>
        <!-- Line -->
        <line x1="249.5229" y1="185.4444" x2="249.5229" y2="185.6944" style="stroke:#808080;stroke-width:0.0125;"/>
        <!-- Line -->
        <line x1="249.4829" y1="185.4444" x2="249.4829" y2="185.6944" style="stroke:#808080;stroke-width:0.0125;"/>
        <!-- Line -->
        <line x1="250.7596" y1="185.4444" x2="250.7596" y2="185.6944" style="stroke:#808080;stroke-width:0.0125;"/>
        <!-- Line -->
        <line x1="250.7196" y1="185.4444" x2="250.7196" y2="185.6944" style="stroke:#808080;stroke-width:0.0125;"/>
        <!-- Line -->
        <line x1="251.9963" y1="185.4444" x2="251.9963" y2="185.6944" style="stroke:#808080;stroke-width:0.0125;"/>
        <!-- Line -->
        <line x1="251.9563" y1="185.4444" x2="251.9563" y2="185.6944" style="stroke:#808080;stroke-width:0.0125;"/>
        <!-- Line -->
        <line x1="253.233" y1="185.4444" x2="253.233" y2="185.6944" style="stroke:#808080;stroke-width:0.0125;"/>
        <!-- Line -->
        <line x1="253.193" y1="185.4444" x2="253.193" y2="185.6944" style="stroke:#808080;stroke-width:0.0125;"/>
        <!-- Line -->
        <line x1="250.7596" y1="185.5844" x2="251.9563" y2="185.5844" style="stroke:#808080;stroke-width:0.0125;"/>
        <!-- Line -->
        <line x1="250.7596" y1="185.5444" x2="251.9563" y2="185.5444" style="stroke:#808080;stroke-width:0.0125;"/>
        <!-- Line -->
        <line x1="251.9963" y1="185.5844" x2="253.193" y2="185.5844" style="stroke:#808080;stroke-width:0.0125;"/>
        <!-- Line -->
        <line x1="251.9963" y1="185.5444" x2="253.193" y2="185.5444" style="stroke:#808080;stroke-width:0.0125;"/>
        <!-- Line -->
        <line x1="253.233" y1="185.5844" x2="254.4495" y2="185.5844" style="stroke:#808080;stroke-width:0.0125;"/>
        <!-- Line -->
        <line x1="253.233" y1="185.5444" x2="254.4495" y2="185.5444" style="stroke:#808080;stroke-width:0.0125;"/>
        <!-- Line -->
        <line x1="260.7596" y1="185.5444" x2="261.9563" y2="185.5444" style="stroke:#808080;stroke-width:0.0125;"/>
        <!-- Line -->
        <line x1="260.7596" y1="185.5844" x2="261.9563" y2="185.5844" style="stroke:#808080;stroke-width:0.0125;"/>
        <!-- Line -->
        <line x1="256.9895" y1="185.6944" x2="263.2395" y2="185.6944" style="stroke:#808080;stroke-width:0.0125;"/>
        <!-- Line -->
        <line x1="256.9895" y1="185.4144" x2="263.2395" y2="185.4144" style="stroke:#808080;stroke-width:0.0125;"/>
        <!-- Line -->
        <line x1="259.5229" y1="185.5444" x2="260.7196" y2="185.5444" style="stroke:#808080;stroke-width:0.0125;"/>
        <!-- Line -->
        <line x1="259.5229" y1="185.5844" x2="260.7196" y2="185.5844" style="stroke:#808080;stroke-width:0.0125;"/>
        <!-- Line -->
        <line x1="258.2862" y1="185.5444" x2="259.4829" y2="185.5444" style="stroke:#808080;stroke-width:0.0125;"/>
        <!-- Line -->
        <line x1="258.2862" y1="185.5844" x2="259.4829" y2="185.5844" style="stroke:#808080;stroke-width:0.0125;"/>
        <!-- Line -->
        <line x1="260.7196" y1="185.4444" x2="260.7196" y2="185.6944" style="stroke:#808080;stroke-width:0.0125;"/>
        <!-- Line -->
        <line x1="260.7596" y1="185.4444" x2="260.7596" y2="185.6944" style="stroke:#808080;stroke-width:0.0125;"/>
        <!-- Line -->
        <line x1="259.4829" y1="185.4444" x2="259.4829" y2="185.6944" style="stroke:#808080;stroke-width:0.0125;"/>
        <!-- Line -->
        <line x1="259.5229" y1="185.4444" x2="259.5229" y2="185.6944" style="stroke:#808080;stroke-width:0.0125;"/>
        <!-- Line -->
        <line x1="257.0295" y1="185.5444" x2="258.2462" y2="185.5444" style="stroke:#808080;stroke-width:0.0125;"/>
        <!-- Line -->
        <line x1="257.0295" y1="185.5844" x2="258.2462" y2="185.5844" style="stroke:#808080;stroke-width:0.0125;"/>
        <!-- Line -->
        <line x1="258.2862" y1="185.4444" x2="258.2862" y2="185.6944" style="stroke:#808080;stroke-width:0.0125;"/>
        <!-- Line -->
        <line x1="258.2462" y1="185.4444" x2="258.2462" y2="185.6944" style="stroke:#808080;stroke-width:0.0125;"/>
        <!-- Line -->
        <line x1="257.0295" y1="185.6944" x2="257.0295" y2="185.4444" style="stroke:#808080;stroke-width:0.0125;"/>
        <!-- Line -->
        <line x1="261.9963" y1="185.5444" x2="263.206" y2="185.5444" style="stroke:#808080;stroke-width:0.0125;"/>
        <!-- Line -->
        <line x1="261.9963" y1="185.5844" x2="263.206" y2="185.5844" style="stroke:#808080;stroke-width:0.0125;"/>
        <!-- Line -->
        <line x1="263.206" y1="185.4444" x2="263.206" y2="185.6944" style="stroke:#808080;stroke-width:0.0125;"/>
        <!-- Line -->
        <line x1="263.2395" y1="185.4444" x2="263.2395" y2="185.6944" style="stroke:#808080;stroke-width:0.0125;"/>
        <!-- Line -->
        <line x1="261.9563" y1="185.4444" x2="261.9563" y2="185.6944" style="stroke:#808080;stroke-width:0.0125;"/>
        <!-- Line -->
        <line x1="261.9963" y1="185.4444" x2="261.9963" y2="185.6944" style="stroke:#808080;stroke-width:0.0125;"/>
        <!-- Line -->
        <line x1="257.0295" y1="185.4444" x2="263.2395" y2="185.4444" style="stroke:#808080;stroke-width:0.0125;"/>
        <!-- Line -->
        <line x1="269.5096" y1="185.5444" x2="270.7063" y2="185.5444" style="stroke:#808080;stroke-width:0.0125;"/>
        <!-- Line -->
        <line x1="269.5096" y1="185.5844" x2="270.7063" y2="185.5844" style="stroke:#808080;stroke-width:0.0125;"/>
        <!-- Line -->
        <line x1="265.7395" y1="185.6944" x2="274.4895" y2="185.6944" style="stroke:#808080;stroke-width:0.0125;"/>
        <!-- Line -->
        <line x1="265.7395" y1="185.4444" x2="274.4895" y2="185.4444" style="stroke:#808080;stroke-width:0.0125;"/>
        <!-- Line -->
        <line x1="265.7395" y1="185.4144" x2="274.4895" y2="185.4144" style="stroke:#808080;stroke-width:0.0125;"/>
        <!-- Line -->
        <line x1="268.2729" y1="185.5444" x2="269.4696" y2="185.5444" style="stroke:#808080;stroke-width:0.0125;"/>
        <!-- Line -->
        <line x1="268.2729" y1="185.5844" x2="269.4696" y2="185.5844" style="stroke:#808080;stroke-width:0.0125;"/>
        <!-- Line -->
        <line x1="269.4696" y1="185.4444" x2="269.4696" y2="185.6944" style="stroke:#808080;stroke-width:0.0125;"/>
        <!-- Line -->
        <line x1="269.5096" y1="185.4444" x2="269.5096" y2="185.6944" style="stroke:#808080;stroke-width:0.0125;"/>
        <!-- Line -->
        <line x1="271.943" y1="185.4444" x2="271.943" y2="185.6944" style="stroke:#808080;stroke-width:0.0125;"/>
        <!-- Line -->
        <line x1="271.983" y1="185.4444" x2="271.983" y2="185.6944" style="stroke:#808080;stroke-width:0.0125;"/>
        <!-- Line -->
        <line x1="270.7463" y1="185.5444" x2="271.943" y2="185.5444" style="stroke:#808080;stroke-width:0.0125;"/>
        <!-- Line -->
        <line x1="271.983" y1="185.5444" x2="273.2259" y2="185.5444" style="stroke:#808080;stroke-width:0.0125;"/>
        <!-- Line -->
        <line x1="270.7463" y1="185.5844" x2="271.943" y2="185.5844" style="stroke:#808080;stroke-width:0.0125;"/>
        <!-- Line -->
        <line x1="271.983" y1="185.5844" x2="273.2259" y2="185.5844" style="stroke:#808080;stroke-width:0.0125;"/>
        <!-- Line -->
        <line x1="267.0362" y1="185.5444" x2="268.2329" y2="185.5444" style="stroke:#808080;stroke-width:0.0125;"/>
        <!-- Line -->
        <line x1="267.0362" y1="185.5844" x2="268.2329" y2="185.5844" style="stroke:#808080;stroke-width:0.0125;"/>
        <!-- Line -->
        <line x1="268.2329" y1="185.4444" x2="268.2329" y2="185.6944" style="stroke:#808080;stroke-width:0.0125;"/>
        <!-- Line -->
        <line x1="268.2729" y1="185.4444" x2="268.2729" y2="185.6944" style="stroke:#808080;stroke-width:0.0125;"/>
        <!-- Line -->
        <line x1="265.7795" y1="185.5444" x2="266.9962" y2="185.5444" style="stroke:#808080;stroke-width:0.0125;"/>
        <!-- Line -->
        <line x1="265.7795" y1="185.5844" x2="266.9962" y2="185.5844" style="stroke:#808080;stroke-width:0.0125;"/>
        <!-- Line -->
        <line x1="267.0362" y1="185.4444" x2="267.0362" y2="185.6944" style="stroke:#808080;stroke-width:0.0125;"/>
        <!-- Line -->
        <line x1="266.9962" y1="185.4444" x2="266.9962" y2="185.6944" style="stroke:#808080;stroke-width:0.0125;"/>
        <!-- Line -->
        <line x1="270.7063" y1="185.4444" x2="270.7063" y2="185.6944" style="stroke:#808080;stroke-width:0.0125;"/>
        <!-- Line -->
        <line x1="270.7463" y1="185.4444" x2="270.7463" y2="185.6944" style="stroke:#808080;stroke-width:0.0125;"/>
        <!-- Line -->
        <line x1="265.7795" y1="185.6944" x2="265.7795" y2="185.4444" style="stroke:#808080;stroke-width:0.0125;"/>
        <!-- Line -->
        <line x1="273.2659" y1="185.5844" x2="274.4495" y2="185.5844" style="stroke:#808080;stroke-width:0.0125;"/>
        <!-- Line -->
        <line x1="273.2659" y1="185.5444" x2="274.4495" y2="185.5444" style="stroke:#808080;stroke-width:0.0125;"/>
        <!-- Line -->
        <line x1="273.2659" y1="185.4444" x2="273.2659" y2="185.6944" style="stroke:#808080;stroke-width:0.0125;"/>
        <!-- Line -->
        <line x1="273.2259" y1="185.4444" x2="273.2259" y2="185.6944" style="stroke:#808080;stroke-width:0.0125;"/>
        <!-- Line -->
        <line x1="274.4495" y1="185.4444" x2="274.4495" y2="185.6944" style="stroke:#808080;stroke-width:0.0125;"/>
        <!-- Line -->
        <line x1="274.4895" y1="185.4444" x2="274.4895" y2="185.6944" style="stroke:#808080;stroke-width:0.0125;"/>
        <!-- Line -->
        <line x1="269.5695" y1="189.5044" x2="269.5695" y2="185.6944" style="stroke:#333333;stroke-width:0.0125;"/>
        <!-- Line -->
        <line x1="269.4095" y1="189.6644" x2="275.6995" y2="189.6644" style="stroke:#333333;stroke-width:0.0125;"/>
        <!-- Line -->
        <line x1="269.4095" y1="185.6944" x2="269.5695" y2="185.6944" style="stroke:#333333;stroke-width:0.0125;"/>
        <!-- Line -->
        <line x1="269.4895" y1="190.6644" x2="272.7095" y2="190.6644" style="stroke:#808080;stroke-width:0.0125;"/>
        <!-- Line -->
        <line x1="269.4895" y1="190.1644" x2="271.0602" y2="190.1644" style="stroke:#000000;stroke-width:0.0125;"/>
        <!-- Line -->
        <line x1="271.0602" y1="190.1644" x2="270.9603" y2="190.0788" style="stroke:#000000;stroke-width:0.0125;"/>
        <!-- Line -->
        <line x1="271.0602" y1="190.1644" x2="270.9603" y2="190.25" style="stroke:#000000;stroke-width:0.0125;"/>
        <!-- Line -->
        <line x1="269.7195" y1="190.6644" x2="269.7195" y2="189.6644" style="stroke:#000000;stroke-width:0.0125;"/>
        <!-- Line -->
        <line x1="269.9495" y1="190.6644" x2="269.9495" y2="189.6644" style="stroke:#000000;stroke-width:0.0125;"/>
        <!-- Line -->
        <line x1="270.1795" y1="190.6644" x2="270.1795" y2="189.6644" style="stroke:#000000;stroke-width:0.0125;"/>
        <!-- Line -->
        <line x1="270.4095" y1="190.6644" x2="270.4095" y2="189.6644" style="stroke:#000000;stroke-width:0.0125;"/>
        <!-- Line -->
        <line x1="270.6395" y1="190.6644" x2="270.6395" y2="189.6644" style="stroke:#000000;stroke-width:0.0125;"/>
        <!-- Line -->
        <line x1="270.8695" y1="190.6644" x2="270.8695" y2="189.6644" style="stroke:#000000;stroke-width:0.0125;"/>
        <!-- Line -->
        <line x1="271.0995" y1="190.6644" x2="271.0995" y2="189.6644" style="stroke:#000000;stroke-width:0.0125;"/>
        <!-- Line -->
        <line x1="271.3295" y1="190.6644" x2="271.3295" y2="189.6644" style="stroke:#000000;stroke-width:0.0125;"/>
        <!-- Line -->
        <line x1="271.5595" y1="190.6644" x2="271.5595" y2="189.6644" style="stroke:#000000;stroke-width:0.0125;"/>
        <!-- Line -->
        <line x1="271.7895" y1="190.6644" x2="271.7895" y2="189.6644" style="stroke:#000000;stroke-width:0.0125;"/>
        <!-- Line -->
        <line x1="272.0195" y1="190.6644" x2="272.0195" y2="189.6644" style="stroke:#000000;stroke-width:0.0125;"/>
        <!-- Line -->
        <line x1="272.2495" y1="190.6644" x2="272.2495" y2="189.6644" style="stroke:#000000;stroke-width:0.0125;"/>
        <!-- Line -->
        <line x1="272.4795" y1="190.6644" x2="272.4795" y2="189.6644" style="stroke:#000000;stroke-width:0.0125;"/>
        <!-- Line -->
        <line x1="272.7095" y1="190.6644" x2="272.7095" y2="189.6644" style="stroke:#000000;stroke-width:0.0125;"/>
        <!-- Line -->
        <line x1="269.4595" y1="190.7144" x2="272.7095" y2="190.7144" style="stroke:#808080;stroke-width:0.0125;"/>
        <!-- Line -->
        <line x1="269.4095" y1="190.7644" x2="272.7095" y2="190.7644" style="stroke:#808080;stroke-width:0.0125;"/>
        <!-- Line -->
        <line x1="272.7095" y1="190.7144" x2="272.7095" y2="190.7644" style="stroke:#808080;stroke-width:0.0125;"/>
        <!-- Line -->
        <line x1="269.4095" y1="190.7644" x2="269.4095" y2="189.6644" style="stroke:#808080;stroke-width:0.0125;"/>
        <!-- Line -->
        <line x1="269.4595" y1="190.7144" x2="269.4595" y2="189.6644" style="stroke:#808080;stroke-width:0.0125;"/>
        <!-- Line -->
        <line x1="275.9795" y1="190.7544" x2="275.9795" y2="189.5044" style="stroke:#333333;stroke-width:0.0125;"/>
        <!-- Line -->
        <line x1="275.6995" y1="190.7544" x2="275.6995" y2="189.6644" style="stroke:#333333;stroke-width:0.0125;"/>
        <!-- Line -->
        <line x1="275.9795" y1="190.7544" x2="275.6995" y2="190.7544" style="stroke:#333333;stroke-width:0.0125;"/>
        <!-- Line -->
        <line x1="245.4995" y1="190.7544" x2="245.4995" y2="189.5044" style="stroke:#333333;stroke-width:0.0125;"/>
        <!-- Line -->
        <line x1="245.7795" y1="190.7544" x2="245.7795" y2="190.2094" style="stroke:#333333;stroke-width:0.0125;"/>
        <!-- Line -->
        <line x1="245.4995" y1="190.7544" x2="245.7795" y2="190.7544" style="stroke:#333333;stroke-width:0.0125;"/>
        <!-- Line -->
        <line x1="245.4995" y1="189.5044" x2="245.7795" y2="189.5044" style="stroke:#333333;stroke-width:0.0125;"/>
        <!-- Line -->
        <line x1="245.7795" y1="190.0494" x2="245.7795" y2="189.5044" style="stroke:#333333;stroke-width:0.0125;"/>
        <!-- Line -->
        <line x1="275.9795" y1="193.2544" x2="275.9795" y2="196.1944" style="stroke:#333333;stroke-width:0.0125;"/>
        <!-- Line -->
        <line x1="275.6995" y1="194.5044" x2="275.6995" y2="195.5044" style="stroke:#333333;stroke-width:0.0125;"/>
        <!-- Line -->
        <line x1="245.7795" y1="194.5044" x2="245.7795" y2="195.5044" style="stroke:#333333;stroke-width:0.0125;"/>
        <!-- Line -->
        <line x1="245.4995" y1="194.5044" x2="245.4995" y2="196.1944" style="stroke:#333333;stroke-width:0.0125;"/>
        <!-- Line -->
        <line x1="245.7795" y1="194.5044" x2="245.4995" y2="194.5044" style="stroke:#333333;stroke-width:0.0125;"/>
        <!-- Line -->
        <line x1="275.6895" y1="195.9044" x2="245.7895" y2="195.9044" style="stroke:#333333;stroke-width:0.0125;"/>
        <!-- Line -->
        <line x1="275.9795" y1="196.1944" x2="245.4995" y2="196.1944" style="stroke:#333333;stroke-width:0.0125;"/>
        <!-- Line -->
        <line x1="275.8895" y1="196.1044" x2="245.5895" y2="196.1044" style="stroke:#333333;stroke-width:0.0125;"/>
        <!-- Line -->
        <line x1="275.8895" y1="195.5044" x2="275.8895" y2="196.1044" style="stroke:#333333;stroke-width:0.0125;"/>
        <!-- Line -->
        <line x1="275.8895" y1="195.5044" x2="275.6895" y2="195.5044" style="stroke:#333333;stroke-width:0.0125;"/>
        <!-- Line -->
        <line x1="275.6895" y1="195.9044" x2="275.6895" y2="195.5044" style="stroke:#333333;stroke-width:0.0125;"/>
        <!-- Line -->
        <line x1="245.7895" y1="195.5044" x2="245.5895" y2="195.5044" style="stroke:#333333;stroke-width:0.0125;"/>
        <!-- Line -->
        <line x1="245.5895" y1="195.5044" x2="245.5895" y2="196.1044" style="stroke:#333333;stroke-width:0.0125;"/>
        <!-- Line -->
        <line x1="245.7895" y1="195.5044" x2="245.7895" y2="195.9044" style="stroke:#333333;stroke-width:0.0125;"/>
        <!-- Line -->
        <line x1="245.4995" y1="196.8944" x2="245.4995" y2="200.8944" style="stroke:#333333;stroke-width:0.0125;"/>
        <!-- Line -->
        <line x1="245.6195" y1="196.8944" x2="245.6195" y2="200.8944" style="stroke:#333333;stroke-width:0.0125;"/>
        <!-- Arc -->
        <path d="M246.4995,202.627 A4,4 0 0,1 242.4995,198.627" style="stroke:#808080;stroke-width:0.0125;"/>
        <!-- Arc -->
        <path d="M246.4995,202.427 A3.8,3.8 0 0,1 242.6995,198.627" style="stroke:#808080;stroke-width:0.0125;"/>
        <!-- Arc -->
        <path d="M242.4995,191.5044 A2,2 0 0,1 244.4995,189.5044" style="stroke:#808080;stroke-width:0.0125;"/>
        <!-- Arc -->
        <path d="M242.6995,191.5044 A1.8,1.8 0 0,1 244.4995,189.7044" style="stroke:#808080;stroke-width:0.0125;"/>
        <!-- Arc -->
        <path d="M242.4995,182.5608 A2,2 0 0,1 244.4995,180.5608" style="stroke:#808080;stroke-width:0.0125;"/>
        <!-- Line -->
        <line x1="244.4995" y1="187.0044" x2="245.4995" y2="187.0044" style="stroke:#808080;stroke-width:0.0125;"/>
        <!-- Line -->
        <line x1="244.4995" y1="186.8044" x2="245.4995" y2="186.8044" style="stroke:#808080;stroke-width:0.0125;"/>
        <!-- Line -->
        <line x1="250.4195" y1="196.8944" x2="250.4195" y2="200.8944" style="stroke:#333333;stroke-width:0.0125;"/>
        <!-- Line -->
        <line x1="250.5395" y1="196.8944" x2="250.5395" y2="200.8944" style="stroke:#333333;stroke-width:0.0125;"/>
        <!-- Line -->
        <line x1="255.3395" y1="196.8944" x2="255.3395" y2="200.8944" style="stroke:#333333;stroke-width:0.0125;"/>
        <!-- Line -->
        <line x1="255.4595" y1="196.8944" x2="255.4595" y2="200.8944" style="stroke:#333333;stroke-width:0.0125;"/>
        <!-- Line -->
        <line x1="260.2595" y1="196.8944" x2="260.2595" y2="200.8944" style="stroke:#333333;stroke-width:0.0125;"/>
        <!-- Line -->
        <line x1="260.3795" y1="196.8944" x2="260.3795" y2="200.8944" style="stroke:#333333;stroke-width:0.0125;"/>
        <!-- Line -->
        <line x1="265.5795" y1="196.8944" x2="265.5795" y2="200.8944" style="stroke:#333333;stroke-width:0.0125;"/>
        <!-- Line -->
        <line x1="265.4595" y1="196.8944" x2="265.4595" y2="200.8944" style="stroke:#333333;stroke-width:0.0125;"/>
        <!-- Line -->
        <line x1="270.7795" y1="196.8944" x2="270.7795" y2="200.8944" style="stroke:#333333;stroke-width:0.0125;"/>
        <!-- Line -->
        <line x1="270.6595" y1="196.8944" x2="270.6595" y2="200.8944" style="stroke:#333333;stroke-width:0.0125;"/>
        <!-- Line -->
        <line x1="275.9795" y1="196.8944" x2="275.9795" y2="200.8944" style="stroke:#333333;stroke-width:0.0125;"/>
        <!-- Line -->
        <line x1="275.8595" y1="196.8944" x2="275.8595" y2="200.8944" style="stroke:#333333;stroke-width:0.0125;"/>
        <!-- Line -->
        <line x1="277.1795" y1="193.4655" x2="277.1795" y2="201.7254" style="stroke:#808080;stroke-width:0.0125;"/>
        <!-- Line -->
        <line x1="277.2795" y1="193.4796" x2="277.2795" y2="201.6519" style="stroke:#808080;stroke-width:0.0125;"/>
        <!-- Arc -->
        <path d="M278.9795,198.627 A4,4 0 0,1 274.9795,202.627" style="stroke:#808080;stroke-width:0.0125;"/>
        <!-- Arc -->
        <path d="M278.7795,198.627 A3.8,3.8 0 0,1 274.9795,202.427" style="stroke:#808080;stroke-width:0.0125;"/>
        <!-- Arc -->
        <path d="M276.9795,193.2544 A2,2 0 0,1 278.9795,195.2544" style="stroke:#808080;stroke-width:0.0125;"/>
        <!-- Arc -->
        <path d="M276.9795,193.4544 A1.8,1.8 0 0,1 278.7795,195.2544" style="stroke:#808080;stroke-width:0.0125;"/>
        <!-- Arc -->
        <path d="M278.7795,188.7544 A1.8,1.8 0 0,1 276.9795,190.5544" style="stroke:#808080;stroke-width:0.0125;"/>
        <!-- Arc -->
        <path d="M278.9795,188.7544 A2,2 0 0,1 276.9795,190.7544" style="stroke:#808080;stroke-width:0.0125;"/>
        <!-- Arc -->
        <path d="M274.9795,180.5608 A4,4 0 0,1 278.9795,184.5608" style="stroke:#808080;stroke-width:0.0125;"/>
        <!-- Line -->
        <line x1="245.4995" y1="200.8944" x2="245.6195" y2="200.8944" style="stroke:#333333;stroke-width:0.0125;"/>
        <!-- Line -->
        <line x1="260.2595" y1="200.8944" x2="260.3795" y2="200.8944" style="stroke:#333333;stroke-width:0.0125;"/>
        <!-- Line -->
        <line x1="265.4595" y1="200.8944" x2="265.5795" y2="200.8944" style="stroke:#333333;stroke-width:0.0125;"/>
        <!-- Line -->
        <line x1="270.6595" y1="200.8944" x2="270.7795" y2="200.8944" style="stroke:#333333;stroke-width:0.0125;"/>
        <!-- Line -->
        <line x1="275.8595" y1="200.8944" x2="275.9795" y2="200.8944" style="stroke:#333333;stroke-width:0.0125;"/>
        <!-- Line -->
        <line x1="275.9795" y1="196.8944" x2="275.8595" y2="196.8944" style="stroke:#333333;stroke-width:0.0125;"/>
        <!-- Line -->
        <line x1="270.7795" y1="196.8944" x2="270.6595" y2="196.8944" style="stroke:#333333;stroke-width:0.0125;"/>
        <!-- Line -->
        <line x1="265.5795" y1="196.8944" x2="265.4595" y2="196.8944" style="stroke:#333333;stroke-width:0.0125;"/>
        <!-- Line -->
        <line x1="255.3395" y1="196.8944" x2="255.4595" y2="196.8944" style="stroke:#333333;stroke-width:0.0125;"/>
        <!-- Line -->
        <line x1="260.2595" y1="196.8944" x2="260.3795" y2="196.8944" style="stroke:#333333;stroke-width:0.0125;"/>
        <!-- Line -->
        <line x1="245.4995" y1="196.8944" x2="245.6195" y2="196.8944" style="stroke:#333333;stroke-width:0.0125;"/>
        <!-- Line -->
        <line x1="250.4195" y1="196.8944" x2="250.5395" y2="196.8944" style="stroke:#333333;stroke-width:0.0125;"/>
        <!-- Hatch -->
        <path d="M275.8595,196.8944 L275.9795,196.8944 L275.9795,200.8944 L275.8595,200.8944 ZM270.6595,196.8944 L270.7795,196.8944 L270.7795,200.8944 L270.6595,200.8944 ZM265.4595,196.8944 L265.5795,196.8944 L265.5795,200.8944 L265.4595,200.8944 ZM260.2595,196.8944 L260.3795,196.8944 L260.3795,200.8944 L260.2595,200.8944 ZM255.4595,200.8944 L255.3395,200.8944 L255.3395,196.8944 L255.4595,196.8944 ZM250.4195,196.8944 L250.5395,196.8944 L250.5395,200.8944 L250.4195,200.8944 ZM245.4995,196.8944 L245.6195,196.8944 L245.6195,200.8944 L245.4995,200.8944 Z" style="fill:#cc3300;fill-rule:evenodd;"/>
        <!-- Text: SALA DE TABLEROS -->
        <text x="256.4202" dx="0" y="-187.881" dy="0.3727" font-family="arial" font-size="0.5218" line-height="1.1" fill="#000000" transform="scale(1,-1) rotate(360 256.4202,-187.881)" text-anchor="end">SALA DE TABLEROS</text>
        <!-- Text: SALA DE TABLEROS -->
        <text x="263.7987" dx="0" y="-192.9625" dy="0.6474" font-family="arial" font-size="0.9064" line-height="1.1" fill="#000000" transform="scale(1,-1) rotate(360 263.7987,-192.9625)" text-anchor="end">SALA DE TABLEROS</text>
        <!-- Line -->
        <line x1="245.5895" y1="186.0044" x2="245.5895" y2="185.5044" style="stroke:#333333;stroke-width:0.0125;"/>
        <!-- Line -->
        <line x1="245.7895" y1="186.0044" x2="245.7895" y2="185.5044" style="stroke:#333333;stroke-width:0.0125;"/>
        <!-- Line -->
        <line x1="245.7895" y1="185.5044" x2="245.5895" y2="185.5044" style="stroke:#333333;stroke-width:0.0125;"/>
        <!-- Line -->
        <line x1="255.8395" y1="185.5044" x2="255.6395" y2="185.5044" style="stroke:#333333;stroke-width:0.0125;"/>
        <!-- Line -->
        <line x1="255.8395" y1="186.0044" x2="255.8395" y2="185.5044" style="stroke:#333333;stroke-width:0.0125;"/>
        <!-- Line -->
        <line x1="255.6395" y1="186.0044" x2="255.6395" y2="185.5044" style="stroke:#333333;stroke-width:0.0125;"/>
        <!-- Line -->
        <line x1="264.3895" y1="186.0044" x2="264.3895" y2="185.5044" style="stroke:#333333;stroke-width:0.0125;"/>
        <!-- Line -->
        <line x1="264.5895" y1="186.0044" x2="264.5895" y2="185.5044" style="stroke:#333333;stroke-width:0.0125;"/>
        <!-- Line -->
        <line x1="264.5895" y1="185.5044" x2="264.3895" y2="185.5044" style="stroke:#333333;stroke-width:0.0125;"/>
        <!-- Line -->
        <line x1="245.7895" y1="186.0044" x2="245.5895" y2="186.0044" style="stroke:#333333;stroke-width:0.0125;"/>
        <!-- Line -->
        <line x1="255.8395" y1="186.0044" x2="255.6395" y2="186.0044" style="stroke:#333333;stroke-width:0.0125;"/>
        <!-- Line -->
        <line x1="264.5895" y1="186.0044" x2="264.3895" y2="186.0044" style="stroke:#333333;stroke-width:0.0125;"/>
        <!-- Line -->
        <line x1="264.5895" y1="185.6944" x2="265.7395" y2="185.6944" style="stroke:#333333;stroke-width:0.0125;"/>
        <!-- Line -->
        <line x1="255.8395" y1="185.6944" x2="256.9895" y2="185.6944" style="stroke:#333333;stroke-width:0.0125;"/>
        <!-- Line -->
        <line x1="275.8895" y1="186.0044" x2="275.8895" y2="185.5044" style="stroke:#333333;stroke-width:0.0125;"/>
        <!-- Line -->
        <line x1="275.6895" y1="186.0044" x2="275.6895" y2="185.5044" style="stroke:#333333;stroke-width:0.0125;"/>
        <!-- Line -->
        <line x1="275.8895" y1="186.0044" x2="275.6895" y2="186.0044" style="stroke:#333333;stroke-width:0.0125;"/>
        <!-- Line -->
        <line x1="275.8895" y1="185.5044" x2="275.6895" y2="185.5044" style="stroke:#333333;stroke-width:0.0125;"/>
        <!-- Hatch -->
        <g>
            <path d="M275.8458,185.5044 L275.8895,185.5481" style="stroke:#808080;stroke-width:0.0125;"/>
            <path d="M275.6895,185.5277 L275.8895,185.7277" style="stroke:#808080;stroke-width:0.0125;"/>
            <path d="M275.6895,185.7073 L275.8895,185.9073" style="stroke:#808080;stroke-width:0.0125;"/>
            <path d="M275.6895,185.8869 L275.807,186.0044" style="stroke:#808080;stroke-width:0.0125;"/>
            <path d="M264.5307,185.5044 L264.5895,185.5633" style="stroke:#808080;stroke-width:0.0125;"/>
            <path d="M264.3895,185.5429 L264.5895,185.7429" style="stroke:#808080;stroke-width:0.0125;"/>
            <path d="M264.3895,185.7225 L264.5895,185.9225" style="stroke:#808080;stroke-width:0.0125;"/>
            <path d="M264.3895,185.9021 L264.4918,186.0044" style="stroke:#808080;stroke-width:0.0125;"/>
        </g>
        <!-- Hatch -->
        <g>
            <path d="M255.73,185.5044 L255.8395,185.6139" style="stroke:#808080;stroke-width:0.0125;"/>
            <path d="M255.6395,185.5935 L255.8395,185.7935" style="stroke:#808080;stroke-width:0.0125;"/>
            <path d="M255.6395,185.7731 L255.8395,185.9731" style="stroke:#808080;stroke-width:0.0125;"/>
            <path d="M255.6395,185.9527 L255.6912,186.0044" style="stroke:#808080;stroke-width:0.0125;"/>
        </g>
        <!-- Hatch -->
        <g>
            <path d="M245.6721,185.5044 L245.7895,185.6218" style="stroke:#808080;stroke-width:0.0125;"/>
            <path d="M245.5895,185.6014 L245.7895,185.8014" style="stroke:#808080;stroke-width:0.0125;"/>
            <path d="M245.5895,185.781 L245.7895,185.981" style="stroke:#808080;stroke-width:0.0125;"/>
            <path d="M245.5895,185.9606 L245.6333,186.0044" style="stroke:#808080;stroke-width:0.0125;"/>
        </g>
        <!-- Line -->
        <line x1="250.4195" y1="200.8944" x2="250.5395" y2="200.8944" style="stroke:#333333;stroke-width:0.0125;"/>
        <!-- Line -->
        <line x1="255.3395" y1="200.8944" x2="255.4595" y2="200.8944" style="stroke:#333333;stroke-width:0.0125;"/>
        <!-- Line -->
        <line x1="245.7795" y1="194.5044" x2="245.7795" y2="191.951" style="stroke:#808080;stroke-width:0.0125;"/>
        <!-- Line -->
        <line x1="245.5295" y1="194.5044" x2="245.5295" y2="191.951" style="stroke:#808080;stroke-width:0.0125;"/>
        <!-- Line -->
        <line x1="245.4995" y1="194.5044" x2="245.4995" y2="191.951" style="stroke:#808080;stroke-width:0.0125;"/>
        <!-- Line -->
        <line x1="245.6295" y1="194.4644" x2="245.6295" y2="193.2477" style="stroke:#808080;stroke-width:0.0125;"/>
        <!-- Line -->
        <line x1="245.6695" y1="194.4644" x2="245.6695" y2="193.2477" style="stroke:#808080;stroke-width:0.0125;"/>
        <!-- Line -->
        <line x1="245.4995" y1="194.5044" x2="245.7795" y2="194.5044" style="stroke:#808080;stroke-width:0.0125;"/>
        <!-- Line -->
        <line x1="245.5295" y1="194.4644" x2="245.7795" y2="194.4644" style="stroke:#808080;stroke-width:0.0125;"/>
        <!-- Line -->
        <line x1="245.6295" y1="193.2077" x2="245.6295" y2="191.991" style="stroke:#808080;stroke-width:0.0125;"/>
        <!-- Line -->
        <line x1="245.6695" y1="193.2077" x2="245.6695" y2="191.991" style="stroke:#808080;stroke-width:0.0125;"/>
        <!-- Line -->
        <line x1="245.5295" y1="193.2477" x2="245.7795" y2="193.2477" style="stroke:#808080;stroke-width:0.0125;"/>
        <!-- Line -->
        <line x1="245.5295" y1="193.2077" x2="245.7795" y2="193.2077" style="stroke:#808080;stroke-width:0.0125;"/>
        <!-- Line -->
        <line x1="245.5295" y1="191.991" x2="245.7795" y2="191.991" style="stroke:#808080;stroke-width:0.0125;"/>
        <!-- Line -->
        <line x1="245.4995" y1="191.951" x2="245.7795" y2="191.951" style="stroke:#808080;stroke-width:0.0125;"/>
        <!-- Line -->
        <line x1="245.7795" y1="191.951" x2="245.4995" y2="191.951" style="stroke:#808080;stroke-width:0.0125;"/>
        <!-- Line -->
        <line x1="250.3695" y1="200.8944" x2="250.4195" y2="200.8944" style="stroke:#808080;stroke-width:0.0125;"/>
        <!-- Line -->
        <line x1="250.3695" y1="203.2944" x2="250.4195" y2="203.2944" style="stroke:#808080;stroke-width:0.0125;"/>
        <!-- Line -->
        <line x1="250.4195" y1="203.2944" x2="250.4195" y2="200.8944" style="stroke:#808080;stroke-width:0.0125;"/>
        <!-- Line -->
        <line x1="250.3695" y1="203.2944" x2="250.3695" y2="200.8944" style="stroke:#808080;stroke-width:0.0125;"/>
        <!-- Line -->
        <line x1="245.6695" y1="203.2944" x2="245.6195" y2="203.2944" style="stroke:#808080;stroke-width:0.0125;"/>
        <!-- Line -->
        <line x1="245.6695" y1="203.2944" x2="245.6695" y2="200.8944" style="stroke:#808080;stroke-width:0.0125;"/>
        <!-- Line -->
        <line x1="245.6195" y1="203.2944" x2="245.6195" y2="200.8944" style="stroke:#808080;stroke-width:0.0125;"/>
        <!-- Line -->
        <line x1="245.6695" y1="200.8944" x2="245.6195" y2="200.8944" style="stroke:#808080;stroke-width:0.0125;"/>
        <!-- Line -->
        <line x1="245.6695" y1="203.2944" x2="248.0195" y2="200.8944" style="stroke:#808080;stroke-width:0.0125;"/>
        <!-- Line -->
        <line x1="248.0195" y1="200.8944" x2="250.3695" y2="203.2944" style="stroke:#808080;stroke-width:0.0125;"/>
        <!-- Line -->
        <line x1="245.6695" y1="200.8944" x2="250.3695" y2="200.8944" style="stroke:#808080;stroke-width:0.0125;"/>
        <!-- Line -->
        <line x1="250.5895" y1="200.8944" x2="255.2895" y2="200.8944" style="stroke:#808080;stroke-width:0.0125;"/>
        <!-- Line -->
        <line x1="250.5895" y1="203.2944" x2="252.9395" y2="200.8944" style="stroke:#808080;stroke-width:0.0125;"/>
        <!-- Line -->
        <line x1="252.9395" y1="200.8944" x2="255.2895" y2="203.2944" style="stroke:#808080;stroke-width:0.0125;"/>
        <!-- Line -->
        <line x1="250.5895" y1="203.2944" x2="250.5895" y2="200.8944" style="stroke:#808080;stroke-width:0.0125;"/>
        <!-- Line -->
        <line x1="250.5395" y1="203.2944" x2="250.5395" y2="200.8944" style="stroke:#808080;stroke-width:0.0125;"/>
        <!-- Line -->
        <line x1="250.5895" y1="200.8944" x2="250.5395" y2="200.8944" style="stroke:#808080;stroke-width:0.0125;"/>
        <!-- Line -->
        <line x1="250.5895" y1="203.2944" x2="250.5395" y2="203.2944" style="stroke:#808080;stroke-width:0.0125;"/>
        <!-- Line -->
        <line x1="255.2895" y1="203.2944" x2="255.3395" y2="203.2944" style="stroke:#808080;stroke-width:0.0125;"/>
        <!-- Line -->
        <line x1="255.2895" y1="203.2944" x2="255.2895" y2="200.8944" style="stroke:#808080;stroke-width:0.0125;"/>
        <!-- Line -->
        <line x1="255.3395" y1="203.2944" x2="255.3395" y2="200.8944" style="stroke:#808080;stroke-width:0.0125;"/>
        <!-- Line -->
        <line x1="255.2895" y1="200.8944" x2="255.3395" y2="200.8944" style="stroke:#808080;stroke-width:0.0125;"/>
        <!-- Line -->
        <line x1="255.5095" y1="203.2944" x2="257.8595" y2="200.8944" style="stroke:#808080;stroke-width:0.0125;"/>
        <!-- Line -->
        <line x1="257.8595" y1="200.8944" x2="260.2095" y2="203.2944" style="stroke:#808080;stroke-width:0.0125;"/>
        <!-- Line -->
        <line x1="260.2595" y1="203.2944" x2="260.2595" y2="200.8944" style="stroke:#808080;stroke-width:0.0125;"/>
        <!-- Line -->
        <line x1="260.2095" y1="203.2944" x2="260.2095" y2="200.8944" style="stroke:#808080;stroke-width:0.0125;"/>
        <!-- Line -->
        <line x1="260.2095" y1="200.8944" x2="260.2595" y2="200.8944" style="stroke:#808080;stroke-width:0.0125;"/>
        <!-- Line -->
        <line x1="260.2095" y1="203.2944" x2="260.2595" y2="203.2944" style="stroke:#808080;stroke-width:0.0125;"/>
        <!-- Line -->
        <line x1="255.5095" y1="200.8944" x2="260.2095" y2="200.8944" style="stroke:#808080;stroke-width:0.0125;"/>
        <!-- Line -->
        <line x1="255.5095" y1="203.2944" x2="255.4595" y2="203.2944" style="stroke:#808080;stroke-width:0.0125;"/>
        <!-- Line -->
        <line x1="255.5095" y1="200.8944" x2="255.4595" y2="200.8944" style="stroke:#808080;stroke-width:0.0125;"/>
        <!-- Line -->
        <line x1="255.4595" y1="203.2944" x2="255.4595" y2="200.8944" style="stroke:#808080;stroke-width:0.0125;"/>
        <!-- Line -->
        <line x1="255.5095" y1="203.2944" x2="255.5095" y2="200.8944" style="stroke:#808080;stroke-width:0.0125;"/>
        <!-- Line -->
        <line x1="260.4295" y1="200.8944" x2="265.4095" y2="200.8944" style="stroke:#808080;stroke-width:0.0125;"/>
        <!-- Line -->
        <line x1="265.4095" y1="203.2944" x2="265.4095" y2="200.8944" style="stroke:#808080;stroke-width:0.0125;"/>
        <!-- Line -->
        <line x1="265.4595" y1="203.2944" x2="265.4595" y2="200.8944" style="stroke:#808080;stroke-width:0.0125;"/>
        <!-- Line -->
        <line x1="265.4095" y1="203.2944" x2="265.4595" y2="203.2944" style="stroke:#808080;stroke-width:0.0125;"/>
        <!-- Line -->
        <line x1="265.4095" y1="200.8944" x2="265.4595" y2="200.8944" style="stroke:#808080;stroke-width:0.0125;"/>
        <!-- Line -->
        <line x1="260.4295" y1="203.2944" x2="260.4295" y2="200.8944" style="stroke:#808080;stroke-width:0.0125;"/>
        <!-- Line -->
        <line x1="260.3795" y1="203.2944" x2="260.3795" y2="200.8944" style="stroke:#808080;stroke-width:0.0125;"/>
        <!-- Line -->
        <line x1="260.4295" y1="203.2944" x2="260.3795" y2="203.2944" style="stroke:#808080;stroke-width:0.0125;"/>
        <!-- Line -->
        <line x1="260.4295" y1="200.8944" x2="260.3795" y2="200.8944" style="stroke:#808080;stroke-width:0.0125;"/>
        <!-- Line -->
        <line x1="265.4095" y1="203.2944" x2="262.9195" y2="200.8944" style="stroke:#808080;stroke-width:0.0125;"/>
        <!-- Line -->
        <line x1="262.9195" y1="200.8944" x2="260.4295" y2="203.2944" style="stroke:#808080;stroke-width:0.0125;"/>
        <!-- Line -->
        <line x1="270.6095" y1="203.2944" x2="270.6095" y2="200.8944" style="stroke:#808080;stroke-width:0.0125;"/>
        <!-- Line -->
        <line x1="270.6595" y1="203.2944" x2="270.6595" y2="200.8944" style="stroke:#808080;stroke-width:0.0125;"/>
        <!-- Line -->
        <line x1="270.6095" y1="203.2944" x2="268.1195" y2="200.8944" style="stroke:#808080;stroke-width:0.0125;"/>
        <!-- Line -->
        <line x1="270.6095" y1="203.2944" x2="270.6595" y2="203.2944" style="stroke:#808080;stroke-width:0.0125;"/>
        <!-- Line -->
        <line x1="265.6295" y1="200.8944" x2="270.6595" y2="200.8944" style="stroke:#808080;stroke-width:0.0125;"/>
        <!-- Line -->
        <line x1="268.1195" y1="200.8944" x2="265.6295" y2="203.2944" style="stroke:#808080;stroke-width:0.0125;"/>
        <!-- Line -->
        <line x1="265.6295" y1="203.2944" x2="265.5795" y2="203.2944" style="stroke:#808080;stroke-width:0.0125;"/>
        <!-- Line -->
        <line x1="265.5795" y1="203.2944" x2="265.5795" y2="200.8944" style="stroke:#808080;stroke-width:0.0125;"/>
        <!-- Line -->
        <line x1="265.6295" y1="203.2944" x2="265.6295" y2="200.8944" style="stroke:#808080;stroke-width:0.0125;"/>
        <!-- Line -->
        <line x1="265.6295" y1="200.8944" x2="265.5795" y2="200.8944" style="stroke:#808080;stroke-width:0.0125;"/>
        <!-- Line -->
        <line x1="270.8295" y1="200.8944" x2="275.8595" y2="200.8944" style="stroke:#808080;stroke-width:0.0125;"/>
        <!-- Line -->
        <line x1="270.8295" y1="200.8944" x2="270.7795" y2="200.8944" style="stroke:#808080;stroke-width:0.0125;"/>
        <!-- Line -->
        <line x1="270.8295" y1="203.2944" x2="270.8295" y2="200.8944" style="stroke:#808080;stroke-width:0.0125;"/>
        <!-- Line -->
        <line x1="270.7795" y1="203.2944" x2="270.7795" y2="200.8944" style="stroke:#808080;stroke-width:0.0125;"/>
        <!-- Line -->
        <line x1="273.3195" y1="200.8944" x2="270.8295" y2="203.2944" style="stroke:#808080;stroke-width:0.0125;"/>
        <!-- Line -->
        <line x1="275.8095" y1="203.2944" x2="273.3195" y2="200.8944" style="stroke:#808080;stroke-width:0.0125;"/>
        <!-- Line -->
        <line x1="270.8295" y1="203.2944" x2="270.7795" y2="203.2944" style="stroke:#808080;stroke-width:0.0125;"/>
        <!-- Line -->
        <line x1="275.8095" y1="203.2944" x2="275.8595" y2="203.2944" style="stroke:#808080;stroke-width:0.0125;"/>
        <!-- Line -->
        <line x1="275.8595" y1="203.2944" x2="275.8595" y2="200.8944" style="stroke:#808080;stroke-width:0.0125;"/>
        <!-- Line -->
        <line x1="275.8095" y1="203.2944" x2="275.8095" y2="200.8944" style="stroke:#808080;stroke-width:0.0125;"/>
        <!-- Line -->
        <line x1="245.4995" y1="190.7544" x2="244.6995" y2="190.7544" style="stroke:#808080;stroke-width:0.0125;"/>
        <!-- Line -->
        <line x1="245.4995" y1="190.8044" x2="244.6995" y2="190.8044" style="stroke:#808080;stroke-width:0.0125;"/>
        <!-- Line -->
        <line x1="245.4995" y1="190.8044" x2="245.4995" y2="190.7544" style="stroke:#808080;stroke-width:0.0125;"/>
        <!-- Line -->
        <line x1="245.4995" y1="191.951" x2="244.9995" y2="191.951" style="stroke:#808080;stroke-width:0.0125;"/>
        <!-- Line -->
        <line x1="245.4995" y1="191.901" x2="244.9995" y2="191.901" style="stroke:#808080;stroke-width:0.0125;"/>
        <!-- Line -->
        <line x1="245.4995" y1="191.951" x2="245.4995" y2="191.901" style="stroke:#808080;stroke-width:0.0125;"/>
        <!-- Line -->
        <line x1="244.9995" y1="191.951" x2="244.9995" y2="191.901" style="stroke:#808080;stroke-width:0.0125;"/>
        <!-- Line -->
        <line x1="244.6995" y1="190.8044" x2="244.6995" y2="190.7544" style="stroke:#808080;stroke-width:0.0125;"/>
        <!-- Line -->
        <line x1="245.4995" y1="191.901" x2="245.4995" y2="190.8044" style="stroke:#808080;stroke-width:0.0125;"/>
        <!-- Line -->
        <line x1="244.9995" y1="191.901" x2="245.4995" y2="191.3527" style="stroke:#808080;stroke-width:0.0125;"/>
        <!-- Line -->
        <line x1="245.4995" y1="191.3527" x2="244.6995" y2="190.8044" style="stroke:#808080;stroke-width:0.0125;"/>
        <!-- Line -->
        <line x1="245.4995" y1="189.5044" x2="245.4995" y2="189.4044" style="stroke:#808080;stroke-width:0.0125;"/>
        <!-- Line -->
        <line x1="245.4995" y1="189.4544" x2="245.7795" y2="189.4544" style="stroke:#808080;stroke-width:0.0125;"/>
        <!-- Line -->
        <line x1="244.2495" y1="189.4544" x2="244.2495" y2="189.4044" style="stroke:#808080;stroke-width:0.0125;"/>
        <!-- Line -->
        <line x1="245.4995" y1="189.4544" x2="244.2495" y2="189.4544" style="stroke:#808080;stroke-width:0.0125;"/>
        <!-- Line -->
        <line x1="245.7795" y1="189.5044" x2="245.7795" y2="189.4544" style="stroke:#808080;stroke-width:0.0125;"/>
        <!-- Line -->
        <line x1="245.7795" y1="187.0044" x2="245.7795" y2="187.0544" style="stroke:#808080;stroke-width:0.0125;"/>
        <!-- Line -->
        <line x1="245.4995" y1="187.0544" x2="244.2495" y2="187.0544" style="stroke:#808080;stroke-width:0.0125;"/>
        <!-- Line -->
        <line x1="244.2495" y1="187.1044" x2="245.4995" y2="187.1044" style="stroke:#808080;stroke-width:0.0125;"/>
        <!-- Line -->
        <line x1="245.4995" y1="187.0044" x2="245.4995" y2="187.1044" style="stroke:#808080;stroke-width:0.0125;"/>
        <!-- Line -->
        <line x1="245.4995" y1="187.0544" x2="245.7795" y2="187.0544" style="stroke:#808080;stroke-width:0.0125;"/>
        <!-- Line -->
        <line x1="244.2495" y1="187.0544" x2="244.2495" y2="187.1044" style="stroke:#808080;stroke-width:0.0125;"/>
        <!-- Line -->
        <line x1="245.4995" y1="189.4044" x2="245.4995" y2="187.1044" style="stroke:#808080;stroke-width:0.0125;"/>
        <!-- Line -->
        <line x1="245.4995" y1="188.2544" x2="244.2495" y2="187.1044" style="stroke:#808080;stroke-width:0.0125;"/>
        <!-- Line -->
        <line x1="246.7175" y1="188.4694" x2="246.7175" y2="186.8935" style="stroke:#808080;stroke-width:0.0125;"/>
        <!-- Line -->
        <line x1="261.174" y1="188.4694" x2="246.7175" y2="188.4694" style="stroke:#808080;stroke-width:0.0125;"/>
        <!-- Line -->
        <line x1="246.7175" y1="186.8935" x2="261.174" y2="186.8935" style="stroke:#808080;stroke-width:0.0125;"/>
        <!-- Line -->
        <line x1="261.174" y1="188.4694" x2="261.174" y2="186.8935" style="stroke:#808080;stroke-width:0.0125;"/>
        <!-- Line -->
        <line x1="251.1347" y1="191.038" x2="255.3533" y2="191.038" style="stroke:#808080;stroke-width:0.0125;"/>
        <!-- Line -->
        <line x1="251.1347" y1="190.1575" x2="251.1347" y2="191.038" style="stroke:#808080;stroke-width:0.0125;"/>
        <!-- Line -->
        <line x1="246.2101" y1="193.1175" x2="246.2101" y2="194.6891" style="stroke:#808080;stroke-width:0.0125;"/>
        <!-- Line -->
        <line x1="246.2101" y1="194.6891" x2="248.8709" y2="194.6891" style="stroke:#808080;stroke-width:0.0125;"/>
        <!-- Line -->
        <line x1="248.8709" y1="193.1175" x2="246.2101" y2="193.1175" style="stroke:#808080;stroke-width:0.0125;"/>
        <!-- Line -->
        <line x1="248.8709" y1="194.6891" x2="248.8709" y2="193.1175" style="stroke:#808080;stroke-width:0.0125;"/>
        <!-- Line -->
        <line x1="254.2131" y1="194.6891" x2="254.2131" y2="193.1175" style="stroke:#808080;stroke-width:0.0125;"/>
        <!-- Line -->
        <line x1="254.2131" y1="193.1175" x2="251.5523" y2="193.1175" style="stroke:#808080;stroke-width:0.0125;"/>
        <!-- Line -->
        <line x1="251.5523" y1="194.6891" x2="254.2131" y2="194.6891" style="stroke:#808080;stroke-width:0.0125;"/>
        <!-- Line -->
        <line x1="251.5523" y1="193.1175" x2="251.5523" y2="194.6891" style="stroke:#808080;stroke-width:0.0125;"/>
        <!-- Line -->
        <line x1="256.9552" y1="191.038" x2="261.601" y2="191.038" style="stroke:#808080;stroke-width:0.0125;"/>
        <!-- Line -->
        <line x1="256.9552" y1="190.1575" x2="256.9552" y2="191.038" style="stroke:#808080;stroke-width:0.0125;"/>
        <!-- Line -->
        <line x1="255.3533" y1="191.038" x2="255.3533" y2="190.2109" style="stroke:#808080;stroke-width:0.0125;"/>
        <!-- Line -->
        <line x1="261.601" y1="191.038" x2="261.601" y2="190.2109" style="stroke:#808080;stroke-width:0.0125;"/>
        <!-- Line -->
        <line x1="260.5175" y1="193.1175" x2="256.8165" y2="193.1175" style="stroke:#808080;stroke-width:0.0125;"/>
        <!-- Line -->
        <line x1="256.8165" y1="194.6891" x2="260.5175" y2="194.6891" style="stroke:#808080;stroke-width:0.0125;"/>
        <!-- Line -->
        <line x1="256.8165" y1="193.1175" x2="256.8165" y2="194.6891" style="stroke:#808080;stroke-width:0.0125;"/>
        <!-- Line -->
        <line x1="260.5175" y1="194.6891" x2="260.5175" y2="193.1175" style="stroke:#808080;stroke-width:0.0125;"/>
        <!-- Line -->
        <line x1="263.3365" y1="185.9439" x2="267.0744" y2="185.9439" style="stroke:#808080;stroke-width:0.0125;"/>
        <!-- Line -->
        <line x1="263.3365" y1="186.4243" x2="267.0744" y2="186.4243" style="stroke:#808080;stroke-width:0.0125;"/>
        <!-- Line -->
        <line x1="263.3365" y1="185.9439" x2="263.3365" y2="186.4243" style="stroke:#808080;stroke-width:0.0125;"/>
        <!-- Line -->
        <line x1="267.0744" y1="186.4243" x2="267.0744" y2="185.9439" style="stroke:#808080;stroke-width:0.0125;"/>
        <!-- Line -->
        <line x1="270.6633" y1="194.6891" x2="274.3314" y2="194.6891" style="stroke:#808080;stroke-width:0.0125;"/>
        <!-- Line -->
        <line x1="274.3314" y1="193.1175" x2="270.6633" y2="193.1175" style="stroke:#808080;stroke-width:0.0125;"/>
        <!-- Line -->
        <line x1="267.0744" y1="187.8364" x2="263.3365" y2="187.8364" style="stroke:#808080;stroke-width:0.0125;"/>
        <!-- Line -->
        <line x1="267.0744" y1="190.2109" x2="263.3365" y2="190.2109" style="stroke:#808080;stroke-width:0.0125;"/>
        <!-- Line -->
        <line x1="263.3365" y1="188.6635" x2="267.0744" y2="188.6635" style="stroke:#808080;stroke-width:0.0125;"/>
        <!-- Line -->
        <line x1="263.3365" y1="191.038" x2="267.0744" y2="191.038" style="stroke:#808080;stroke-width:0.0125;"/>
        <!-- Line -->
        <line x1="263.3365" y1="187.8364" x2="263.3365" y2="188.6635" style="stroke:#808080;stroke-width:0.0125;"/>
        <!-- Line -->
        <line x1="263.3365" y1="190.2109" x2="263.3365" y2="191.038" style="stroke:#808080;stroke-width:0.0125;"/>
        <!-- Line -->
        <line x1="267.0744" y1="188.6635" x2="267.0744" y2="187.8364" style="stroke:#808080;stroke-width:0.0125;"/>
        <!-- Line -->
        <line x1="267.0744" y1="191.038" x2="267.0744" y2="190.2109" style="stroke:#808080;stroke-width:0.0125;"/>
        <!-- Line -->
        <line x1="263.19" y1="194.6891" x2="267.9637" y2="194.6891" style="stroke:#808080;stroke-width:0.0125;"/>
        <!-- Line -->
        <line x1="267.9637" y1="193.1175" x2="263.19" y2="193.1175" style="stroke:#808080;stroke-width:0.0125;"/>
        <!-- Line -->
        <line x1="263.19" y1="193.1175" x2="263.19" y2="194.6891" style="stroke:#808080;stroke-width:0.0125;"/>
        <!-- Line -->
        <line x1="270.6633" y1="193.1175" x2="270.6633" y2="194.6891" style="stroke:#808080;stroke-width:0.0125;"/>
        <!-- Line -->
        <line x1="267.9637" y1="194.6891" x2="267.9637" y2="193.1175" style="stroke:#808080;stroke-width:0.0125;"/>
        <!-- Line -->
        <line x1="274.3314" y1="194.6891" x2="274.3314" y2="193.1175" style="stroke:#808080;stroke-width:0.0125;"/>
        <!-- Line -->
        <line x1="275.9795" y1="189.4044" x2="275.9795" y2="187.1044" style="stroke:#808080;stroke-width:0.0125;"/>
        <!-- Line -->
        <line x1="275.9795" y1="188.2544" x2="277.2295" y2="187.1044" style="stroke:#808080;stroke-width:0.0125;"/>
        <!-- Line -->
        <line x1="275.9795" y1="189.4544" x2="277.2295" y2="189.4544" style="stroke:#808080;stroke-width:0.0125;"/>
        <!-- Line -->
        <line x1="277.2295" y1="189.4044" x2="275.9795" y2="189.4044" style="stroke:#808080;stroke-width:0.0125;"/>
        <!-- Line -->
        <line x1="277.2295" y1="189.4544" x2="277.2295" y2="189.4044" style="stroke:#808080;stroke-width:0.0125;"/>
        <!-- Line -->
        <line x1="275.6995" y1="189.5044" x2="275.6995" y2="189.4544" style="stroke:#808080;stroke-width:0.0125;"/>
        <!-- Line -->
        <line x1="275.9795" y1="189.5044" x2="275.9795" y2="189.4044" style="stroke:#808080;stroke-width:0.0125;"/>
        <!-- Line -->
        <line x1="275.9795" y1="189.4544" x2="275.6995" y2="189.4544" style="stroke:#808080;stroke-width:0.0125;"/>
        <!-- Line -->
        <line x1="275.9795" y1="191.3527" x2="276.7795" y2="190.8044" style="stroke:#808080;stroke-width:0.0125;"/>
        <!-- Line -->
        <line x1="276.4795" y1="191.901" x2="275.9795" y2="191.3527" style="stroke:#808080;stroke-width:0.0125;"/>
        <!-- Line -->
        <line x1="275.9795" y1="191.901" x2="275.9795" y2="190.8044" style="stroke:#808080;stroke-width:0.0125;"/>
        <!-- Line -->
        <line x1="275.9795" y1="191.901" x2="276.4795" y2="191.901" style="stroke:#808080;stroke-width:0.0125;"/>
        <!-- Line -->
        <line x1="276.4795" y1="191.951" x2="276.4795" y2="191.901" style="stroke:#808080;stroke-width:0.0125;"/>
        <!-- Line -->
        <line x1="275.9795" y1="191.951" x2="275.9795" y2="191.901" style="stroke:#808080;stroke-width:0.0125;"/>
        <!-- Line -->
        <line x1="275.9795" y1="191.951" x2="276.4795" y2="191.951" style="stroke:#808080;stroke-width:0.0125;"/>
        <!-- Line -->
        <line x1="276.7795" y1="190.8044" x2="276.7795" y2="190.7544" style="stroke:#808080;stroke-width:0.0125;"/>
        <!-- Line -->
        <line x1="275.9795" y1="190.7544" x2="276.7795" y2="190.7544" style="stroke:#808080;stroke-width:0.0125;"/>
        <!-- Line -->
        <line x1="275.9795" y1="190.8044" x2="276.7795" y2="190.8044" style="stroke:#808080;stroke-width:0.0125;"/>
        <!-- Line -->
        <line x1="275.9795" y1="190.8044" x2="275.9795" y2="190.7544" style="stroke:#808080;stroke-width:0.0125;"/>
        <!-- Line -->
        <line x1="275.6995" y1="187.0044" x2="275.6995" y2="187.0544" style="stroke:#808080;stroke-width:0.0125;"/>
        <!-- Line -->
        <line x1="275.9795" y1="187.0544" x2="277.2295" y2="187.0544" style="stroke:#808080;stroke-width:0.0125;"/>
        <!-- Line -->
        <line x1="277.2295" y1="187.1044" x2="275.9795" y2="187.1044" style="stroke:#808080;stroke-width:0.0125;"/>
        <!-- Line -->
        <line x1="275.9795" y1="187.0044" x2="275.9795" y2="187.1044" style="stroke:#808080;stroke-width:0.0125;"/>
        <!-- Line -->
        <line x1="275.9795" y1="187.0544" x2="275.6995" y2="187.0544" style="stroke:#808080;stroke-width:0.0125;"/>
        <!-- Line -->
        <line x1="277.2295" y1="187.0544" x2="277.2295" y2="187.1044" style="stroke:#808080;stroke-width:0.0125;"/>
        <!-- Line -->
        <line x1="277.2295" y1="189.4044" x2="275.9795" y2="188.2544" style="stroke:#808080;stroke-width:0.0125;"/>
        <!-- Line -->
        <line x1="244.2495" y1="189.4044" x2="245.4995" y2="188.2544" style="stroke:#808080;stroke-width:0.0125;"/>
        <!-- Line -->
        <line x1="275.8495" y1="194.4644" x2="275.8495" y2="193.2477" style="stroke:#808080;stroke-width:0.0125;"/>
        <!-- Line -->
        <line x1="275.8095" y1="194.4644" x2="275.8095" y2="193.2477" style="stroke:#808080;stroke-width:0.0125;"/>
        <!-- Line -->
        <line x1="275.9495" y1="193.2477" x2="275.6995" y2="193.2477" style="stroke:#808080;stroke-width:0.0125;"/>
        <!-- Line -->
        <line x1="275.9495" y1="193.2077" x2="275.6995" y2="193.2077" style="stroke:#808080;stroke-width:0.0125;"/>
        <!-- Line -->
        <line x1="275.8495" y1="193.2077" x2="275.8495" y2="191.9977" style="stroke:#808080;stroke-width:0.0125;"/>
        <!-- Line -->
        <line x1="275.8095" y1="193.2077" x2="275.8095" y2="191.9977" style="stroke:#808080;stroke-width:0.0125;"/>
        <!-- Line -->
        <line x1="275.9795" y1="194.5044" x2="275.9795" y2="193.2544" style="stroke:#808080;stroke-width:0.0125;"/>
        <!-- Line -->
        <line x1="275.9495" y1="194.5044" x2="275.9495" y2="191.9977" style="stroke:#808080;stroke-width:0.0125;"/>
        <!-- Line -->
        <line x1="275.6995" y1="194.5044" x2="275.6995" y2="191.9577" style="stroke:#808080;stroke-width:0.0125;"/>
        <!-- Line -->
        <line x1="275.9495" y1="194.4644" x2="275.6995" y2="194.4644" style="stroke:#808080;stroke-width:0.0125;"/>
        <!-- Line -->
        <line x1="275.9795" y1="194.5044" x2="275.6995" y2="194.5044" style="stroke:#808080;stroke-width:0.0125;"/>
        <!-- Line -->
        <line x1="275.6995" y1="194.5044" x2="275.9795" y2="194.5044" style="stroke:#333333;stroke-width:0.0125;"/>
        <!-- Line -->
        <line x1="275.9795" y1="191.9577" x2="275.6995" y2="191.9577" style="stroke:#808080;stroke-width:0.0125;"/>
        <!-- Line -->
        <line x1="275.9795" y1="191.9977" x2="275.6995" y2="191.9977" style="stroke:#808080;stroke-width:0.0125;"/>
        <!-- Line -->
        <line x1="275.9795" y1="193.2544" x2="275.9795" y2="191.9577" style="stroke:#808080;stroke-width:0.0125;"/>
        <!-- Text: EQUIPO DE PRESURIZACION -->
        <text x="274.8348" dx="0" y="-188.5908" dy="0.2038" font-family="arial" font-size="0.2853" line-height="1.1" fill="#000000" transform="scale(1,-1) rotate(360 274.8348,-188.5908)" text-anchor="end">EQUIPO DE PRESURIZACION</text>
        <!-- Line -->
        <line x1="245.4995" y1="196.2194" x2="245.4995" y2="196.1944" style="stroke:#808080;stroke-width:0.0125;"/>
        <!-- Line -->
        <line x1="245.5995" y1="196.2194" x2="245.5995" y2="196.1944" style="stroke:#808080;stroke-width:0.0125;"/>
        <!-- Line -->
        <line x1="245.5995" y1="196.2194" x2="245.4995" y2="196.2194" style="stroke:#808080;stroke-width:0.0125;"/>
        <!-- Line -->
        <line x1="245.4995" y1="196.2694" x2="245.4995" y2="196.2194" style="stroke:#808080;stroke-width:0.0125;"/>
        <!-- Line -->
        <line x1="244.7646" y1="196.2694" x2="244.7646" y2="196.2194" style="stroke:#808080;stroke-width:0.0125;"/>
        <!-- Line -->
        <line x1="245.4995" y1="196.2194" x2="244.7646" y2="196.2194" style="stroke:#808080;stroke-width:0.0125;"/>
        <!-- Line -->
        <line x1="245.4995" y1="196.2694" x2="244.7646" y2="196.2694" style="stroke:#808080;stroke-width:0.0125;"/>
        <!-- Line -->
        <line x1="245.5995" y1="196.8694" x2="245.4995" y2="196.8694" style="stroke:#808080;stroke-width:0.0125;"/>
        <!-- Line -->
        <line x1="245.5995" y1="196.8694" x2="245.5995" y2="196.8944" style="stroke:#808080;stroke-width:0.0125;"/>
        <!-- Line -->
        <line x1="245.4995" y1="196.8694" x2="245.4995" y2="196.8944" style="stroke:#808080;stroke-width:0.0125;"/>
        <!-- Line -->
        <line x1="244.7646" y1="196.2694" x2="245.4995" y2="196.8694" style="stroke:#808080;stroke-width:0.0125;"/>
        <!-- Line -->
        <line x1="276.7145" y1="196.2694" x2="275.9795" y2="196.8694" style="stroke:#808080;stroke-width:0.0125;"/>
        <!-- Line -->
        <line x1="275.9795" y1="196.2194" x2="276.7145" y2="196.2194" style="stroke:#808080;stroke-width:0.0125;"/>
        <!-- Line -->
        <line x1="276.7145" y1="196.2694" x2="276.7145" y2="196.2194" style="stroke:#808080;stroke-width:0.0125;"/>
        <!-- Line -->
        <line x1="275.9795" y1="196.2694" x2="276.7145" y2="196.2694" style="stroke:#808080;stroke-width:0.0125;"/>
        <!-- Line -->
        <line x1="275.9795" y1="196.8694" x2="275.9795" y2="196.8944" style="stroke:#808080;stroke-width:0.0125;"/>
        <!-- Line -->
        <line x1="275.8795" y1="196.8694" x2="275.8795" y2="196.8944" style="stroke:#808080;stroke-width:0.0125;"/>
        <!-- Line -->
        <line x1="275.8795" y1="196.8694" x2="275.9795" y2="196.8694" style="stroke:#808080;stroke-width:0.0125;"/>
        <!-- Line -->
        <line x1="275.9795" y1="196.2694" x2="275.9795" y2="196.2194" style="stroke:#808080;stroke-width:0.0125;"/>
        <!-- Line -->
        <line x1="275.8795" y1="196.2194" x2="275.9795" y2="196.2194" style="stroke:#808080;stroke-width:0.0125;"/>
        <!-- Line -->
        <line x1="275.8795" y1="196.2194" x2="275.8795" y2="196.1944" style="stroke:#808080;stroke-width:0.0125;"/>
        <!-- Line -->
        <line x1="275.9795" y1="196.2194" x2="275.9795" y2="196.1944" style="stroke:#808080;stroke-width:0.0125;"/>
        <!-- Text: II -->
        <text x="260.8348" dx="0" y="-179.2182" dy="0.2" font-family="arial" font-size="0.28" line-height="1.1" fill="#808080" transform="scale(1,-1) rotate(360 260.8348,-179.2182)" text-anchor="end">II</text>
        <!-- Circle -->
        <circle cx="260.7395" cy="179.1132" r="0.2731" style="stroke:#808080;stroke-width:0.0125;stroke-dasharray:0.2381,0.0397,0.0397,0.0397;stroke-dashoffset:0.154"/>
        <!-- Circle -->
        <circle cx="240.5815" cy="192.1044" r="0.2731" style="stroke:#808080;stroke-width:0.0125;stroke-dasharray:0.2381,0.0397,0.0397,0.0397;stroke-dashoffset:0.154"/>
        <!-- Text: I -->
        <text x="240.6185" dx="0" y="-192.2094" dy="0.2" font-family="arial" font-size="0.28" line-height="1.1" fill="#808080" transform="scale(1,-1) rotate(360 240.6185,-192.2094)" text-anchor="end">I</text>
        <!-- Line -->
        <line x1="277.2795" y1="184.1144" x2="244.1995" y2="184.1144" style="stroke:#808080;stroke-width:0.0125;"/>
        <!-- Line -->
        <line x1="277.3295" y1="184.0644" x2="244.1495" y2="184.0644" style="stroke:#808080;stroke-width:0.0125;"/>
        <!-- Line -->
        <line x1="244.1995" y1="186.7792" x2="244.1995" y2="184.1144" style="stroke:#808080;stroke-width:0.0125;"/>
        <!-- Line -->
        <line x1="244.1495" y1="186.77" x2="244.1495" y2="184.0644" style="stroke:#808080;stroke-width:0.0125;"/>
        <!-- Line -->
        <line x1="277.2795" y1="190.5292" x2="277.2795" y2="184.1144" style="stroke:#808080;stroke-width:0.0125;"/>
        <!-- Line -->
        <line x1="277.3295" y1="190.52" x2="277.3295" y2="184.0644" style="stroke:#808080;stroke-width:0.0125;"/>
        <!-- Line -->
        <line x1="245.0662" y1="186.8044" x2="245.0662" y2="184.1144" style="stroke:#808080;stroke-width:0.0125;"/>
        <!-- Line -->
        <line x1="244.1995" y1="186.3561" x2="245.4995" y2="186.3561" style="stroke:#808080;stroke-width:0.0125;"/>
        <!-- Line -->
        <line x1="244.1995" y1="185.9077" x2="245.4995" y2="185.9077" style="stroke:#808080;stroke-width:0.0125;"/>
        <!-- Line -->
        <line x1="244.1995" y1="185.4594" x2="245.4995" y2="185.4594" style="stroke:#808080;stroke-width:0.0125;"/>
        <!-- Line -->
        <line x1="244.1995" y1="185.0111" x2="249.0971" y2="185.0111" style="stroke:#808080;stroke-width:0.0125;"/>
        <!-- Line -->
        <line x1="244.1995" y1="184.5627" x2="248.8076" y2="184.5627" style="stroke:#808080;stroke-width:0.0125;"/>
        <!-- Line -->
        <line x1="244.6328" y1="186.8044" x2="244.6328" y2="184.1144" style="stroke:#808080;stroke-width:0.0125;"/>
        <!-- Line -->
        <line x1="245.4995" y1="185.4144" x2="245.4995" y2="184.1144" style="stroke:#808080;stroke-width:0.0125;"/>
        <!-- Line -->
        <line x1="245.9328" y1="185.4144" x2="245.9328" y2="184.1144" style="stroke:#808080;stroke-width:0.0125;"/>
        <!-- Line -->
        <line x1="246.7995" y1="185.4144" x2="246.7995" y2="184.1144" style="stroke:#808080;stroke-width:0.0125;"/>
        <!-- Line -->
        <line x1="246.3662" y1="185.4144" x2="246.3662" y2="184.1144" style="stroke:#808080;stroke-width:0.0125;"/>
        <!-- Line -->
        <line x1="247.2328" y1="185.4144" x2="247.2328" y2="184.1144" style="stroke:#808080;stroke-width:0.0125;"/>
        <!-- Line -->
        <line x1="247.6662" y1="185.4144" x2="247.6662" y2="184.1144" style="stroke:#808080;stroke-width:0.0125;"/>
        <!-- Line -->
        <line x1="248.0995" y1="185.4144" x2="248.0995" y2="184.1144" style="stroke:#808080;stroke-width:0.0125;"/>
        <!-- Line -->
        <line x1="248.5328" y1="185.4144" x2="248.5328" y2="184.1373" style="stroke:#808080;stroke-width:0.0125;"/>
        <!-- Line -->
        <line x1="248.9662" y1="185.4144" x2="248.9662" y2="184.8083" style="stroke:#808080;stroke-width:0.0125;"/>
        <!-- Line -->
        <line x1="245.779" y1="187.0066" x2="245.779" y2="186.0066" style="stroke:#333333;stroke-width:0.0125;"/>
        <!-- Line -->
        <line x1="244.499" y1="187.0066" x2="245.499" y2="187.0066" style="stroke:#808080;stroke-width:0.0125;"/>
        <!-- Line -->
        <line x1="244.499" y1="186.8066" x2="245.499" y2="186.8066" style="stroke:#808080;stroke-width:0.0125;"/>
        <!-- Line -->
        <line x1="245.789" y1="186.0066" x2="245.589" y2="186.0066" style="stroke:#333333;stroke-width:0.0125;"/>
        <!-- Line -->
        <line x1="255.839" y1="186.0066" x2="255.639" y2="186.0066" style="stroke:#333333;stroke-width:0.0125;"/>
        <!-- Line -->
        <line x1="245.499" y1="189.5066" x2="245.499" y2="189.4066" style="stroke:#808080;stroke-width:0.0125;"/>
        <!-- Line -->
        <line x1="244.249" y1="189.4566" x2="244.249" y2="189.4066" style="stroke:#808080;stroke-width:0.0125;"/>
        <!-- Line -->
        <line x1="244.249" y1="189.4066" x2="245.499" y2="189.4066" style="stroke:#808080;stroke-width:0.0125;"/>
        <!-- Line -->
        <line x1="245.779" y1="189.5066" x2="245.779" y2="189.4566" style="stroke:#808080;stroke-width:0.0125;"/>
        <!-- Line -->
        <line x1="245.779" y1="187.0066" x2="245.779" y2="187.0566" style="stroke:#808080;stroke-width:0.0125;"/>
        <!-- Line -->
        <line x1="245.499" y1="187.0066" x2="245.499" y2="187.1066" style="stroke:#808080;stroke-width:0.0125;"/>
        <!-- Line -->
        <line x1="244.249" y1="187.0566" x2="244.249" y2="187.1066" style="stroke:#808080;stroke-width:0.0125;"/>
        <!-- Line -->
        <line x1="246.717" y1="188.4716" x2="246.717" y2="186.8957" style="stroke:#808080;stroke-width:0.0125;"/>
        <!-- Line -->
        <line x1="244.199" y1="186.3583" x2="245.499" y2="186.3583" style="stroke:#808080;stroke-width:0.0125;"/>
        <!-- Hatch -->
        <path d="M245.7795,195.5044 L245.5895,195.5044 L245.5895,196.1044 L275.8895,196.1044 L275.8895,195.5044 L275.6995,195.5044 L275.6995,194.5044 L275.9795,194.5044 L275.9795,196.1944 L245.4995,196.1944 L245.4995,194.5044 L245.7795,194.5044 ZM262.0695,190.2094 L245.7795,190.2094 L245.7795,190.7544 L245.4995,190.7544 L245.4995,189.5044 L245.779,189.5044 L245.779,189.5066 L245.7795,190.0494 L261.9095,190.0494 L261.9095,185.6944 L262.0695,185.6944 ZM255.6395,185.6944 L254.4895,185.6944 L254.4895,185.4144 L256.9895,185.4144 L256.9895,185.6944 L255.8395,185.6944 L255.8395,185.5044 L255.6395,185.5044 ZM245.779,187.0044 L245.4995,187.0044 L245.4995,185.4144 L246.9895,185.4144 L246.9895,185.6944 L245.7895,185.6944 L245.7895,185.5044 L245.5895,185.5044 L245.5895,186.0066 L245.779,186.0066 ZM265.7395,185.6944 L264.5895,185.6944 L264.5895,185.5044 L264.3895,185.5044 L264.3895,185.6944 L263.2395,185.6944 L263.2395,185.4444 L263.2395,185.4144 L263.43,185.4144 L265.7395,185.4144 ZM275.6895,185.6944 L274.4895,185.6944 L274.4895,185.4444 L274.4895,185.4144 L275.9795,185.4144 L275.9795,187.0044 L275.6995,187.0044 L275.6995,186.6233 L275.6995,186.0044 L275.8895,186.0044 L275.8895,185.5044 L275.6895,185.5044 ZM269.5695,189.5044 L275.9795,189.5044 L275.9795,190.7544 L275.6995,190.7544 L275.6995,190.3733 L275.6995,189.6644 L269.4095,189.6644 L269.4095,185.6944 L269.5695,185.6944 Z" style="fill:#000000;fill-rule:evenodd;"/>
        <!-- Hatch -->
        <path d="M245.7895,186.0044 L245.5895,186.0044 L245.5895,185.5044 L245.7895,185.5044 ZM255.8395,186.0044 L255.6395,186.0044 L255.6395,185.5044 L255.8395,185.5044 ZM264.5895,185.9439 L264.3895,185.9439 L264.3895,185.5044 L264.5895,185.5044 ZM264.5895,186.0044 L264.3895,186.0044 L264.3895,185.9439 L264.5895,185.9439 ZM275.8895,186.0044 L275.6895,186.0044 L275.6895,185.5044 L275.8895,185.5044 Z" style="fill:#00994c;fill-rule:evenodd;"/>
        <!-- Line -->
        <line x1="272.7095" y1="190.6644" x2="272.7095" y2="190.7144" style="stroke:#333333;stroke-width:0.0125;"/>
        <!-- Hatch -->
        <path d="M269.4895,190.6644 L272.7095,190.6644 L272.7095,190.7144 L269.4595,190.7144 L269.4595,189.6644 L269.4895,189.6644 Z" style="fill:#00994c;fill-rule:evenodd;"/>
        <!-- Hatch -->
        <path d="M275.8895,196.1044 L245.5895,196.1044 L245.5895,195.5044 L245.7895,195.5044 L245.7895,195.9044 L275.6895,195.9044 L275.6895,195.5044 L275.8895,195.5044 Z" style="fill:#939598;fill-rule:evenodd;"/>
        <!-- Hatch -->
        <path d="M265.5795,200.8944 L265.4595,200.8944 L265.4595,196.8944 L265.5795,196.8944 Z" style="fill:#cc3300;fill-rule:evenodd;"/>
        <!-- Hatch -->
        <path d="M245.6295,194.4644 L245.5295,194.4644 L245.5295,193.2477 L245.6295,193.2477 ZM245.7795,194.4644 L245.6695,194.4644 L245.6695,193.2477 L245.7795,193.2477 ZM245.6295,193.2077 L245.5295,193.2077 L245.5295,191.991 L245.6295,191.991 ZM245.7795,193.2077 L245.6695,193.2077 L245.6695,191.991 L245.7795,191.991 L245.7795,192.6326 ZM248.2462,185.6944 L247.0295,185.6944 L247.0295,185.5844 L248.2462,185.5844 ZM248.2462,185.5444 L247.0295,185.5444 L247.0295,185.4444 L248.2462,185.4444 ZM249.4829,185.6944 L248.2862,185.6944 L248.2862,185.5844 L249.4829,185.5844 ZM249.4829,185.5444 L248.2862,185.5444 L248.2862,185.4444 L249.4829,185.4444 ZM250.7196,185.6944 L249.5229,185.6944 L249.5229,185.5844 L250.7196,185.5844 ZM250.7196,185.5444 L249.5229,185.5444 L249.5229,185.4444 L250.7196,185.4444 ZM251.9563,185.6944 L250.7596,185.6944 L250.7596,185.5844 L251.9563,185.5844 ZM251.9563,185.5444 L250.7596,185.5444 L250.7596,185.4444 L251.9563,185.4444 ZM253.193,185.6944 L251.9963,185.6944 L251.9963,185.5844 L253.193,185.5844 ZM253.193,185.5444 L251.9963,185.5444 L251.9963,185.4444 L253.193,185.4444 ZM254.4495,185.6944 L253.233,185.6944 L253.233,185.5844 L254.4495,185.5844 ZM254.4495,185.5444 L253.233,185.5444 L253.233,185.4444 L254.4495,185.4444 ZM258.2462,185.6944 L257.0295,185.6944 L257.0295,185.5844 L258.2462,185.5844 ZM259.4829,185.6944 L258.2862,185.6944 L258.2862,185.5844 L259.4829,185.5844 ZM259.4829,185.5444 L258.2862,185.5444 L258.2862,185.4444 L259.4829,185.4444 ZM258.2462,185.5444 L257.0295,185.5444 L257.0295,185.4444 L258.2462,185.4444 ZM260.7196,185.6944 L259.5229,185.6944 L259.5229,185.5844 L260.7196,185.5844 ZM261.9563,185.6944 L260.7596,185.6944 L260.7596,185.5844 L261.9563,185.5844 ZM260.7196,185.5444 L259.5229,185.5444 L259.5229,185.4444 L260.7196,185.4444 ZM261.9563,185.5444 L260.7596,185.5444 L260.7596,185.4444 L261.9563,185.4444 ZM263.206,185.5444 L261.9963,185.5444 L261.9963,185.4444 L263.206,185.4444 ZM263.206,185.6944 L261.9963,185.6944 L261.9963,185.5844 L263.206,185.5844 ZM266.9962,185.6944 L265.7795,185.6944 L265.7795,185.5844 L266.9962,185.5844 ZM268.2329,185.6944 L267.0362,185.6944 L267.0362,185.5844 L268.2329,185.5844 ZM269.4696,185.6944 L268.2729,185.6944 L268.2729,185.5844 L269.4696,185.5844 ZM270.7063,185.6944 L269.5096,185.6944 L269.5096,185.5844 L270.7063,185.5844 ZM271.943,185.6944 L270.7463,185.6944 L270.7463,185.5844 L271.943,185.5844 ZM273.2259,185.6944 L271.983,185.6944 L271.983,185.5844 L273.2259,185.5844 ZM274.4495,185.6944 L273.2659,185.6944 L273.2659,185.5844 L274.4495,185.5844 ZM274.4495,185.5444 L273.2659,185.5444 L273.2659,185.4444 L274.4495,185.4444 ZM273.2259,185.5444 L271.983,185.5444 L271.983,185.4444 L273.2259,185.4444 ZM271.943,185.5444 L270.7463,185.5444 L270.7463,185.4444 L271.943,185.4444 ZM270.7063,185.5444 L269.5096,185.5444 L269.5096,185.4444 L270.7063,185.4444 ZM269.4696,185.5444 L268.2729,185.5444 L268.2729,185.4444 L269.4696,185.4444 ZM268.2329,185.5444 L267.0362,185.5444 L267.0362,185.4444 L268.2329,185.4444 ZM266.9962,185.5444 L265.7795,185.5444 L265.7795,185.4444 L266.9962,185.4444 Z" style="fill:#00ff00;fill-rule:evenodd;"/>
        <!-- Hatch -->
        <path d="M275.8095,194.4644 L275.6995,194.4644 L275.6995,193.2477 L275.8095,193.2477 ZM275.9495,194.4644 L275.8495,194.4644 L275.8495,193.2477 L275.9495,193.2477 ZM275.8095,193.2077 L275.6995,193.2077 L275.6995,191.9977 L275.8095,191.9977 ZM275.9495,193.2077 L275.8495,193.2077 L275.8495,191.9977 L275.9495,191.9977 Z" style="fill:#00ff00;fill-rule:evenodd;"/>
        <!-- Hatch -->
        <path d="M275.9495,194.5044 L275.6995,194.5044 L275.6995,194.4644 L275.9495,194.4644 ZM275.8495,194.4644 L275.8095,194.4644 L275.8095,193.2477 L275.8495,193.2477 ZM275.9795,194.5044 L275.9495,194.5044 L275.9495,194.4644 L275.9495,191.9977 L275.9795,191.9977 L275.9795,193.2544 ZM275.9495,193.2477 L275.6995,193.2477 L275.6995,193.2077 L275.9495,193.2077 ZM275.8495,193.2077 L275.8095,193.2077 L275.8095,191.9977 L275.8495,191.9977 ZM275.9795,191.9977 L275.6995,191.9977 L275.6995,191.9577 L275.9795,191.9577 ZM276.4795,191.951 L275.9795,191.951 L275.9795,191.901 L276.4795,191.901 ZM276.7795,190.8044 L275.9795,190.8044 L275.9795,190.7544 L276.7795,190.7544 ZM275.9795,187.0544 L275.6995,187.0544 L275.6995,187.0044 L275.9795,187.0044 ZM277.2295,187.1044 L275.9795,187.1044 L275.9795,187.0544 L277.2295,187.0544 ZM275.9795,189.5044 L275.6995,189.5044 L275.6995,189.4544 L275.9795,189.4544 ZM277.2295,189.4544 L275.9795,189.4544 L275.9795,189.4044 L277.2295,189.4044 ZM272.7095,190.7644 L269.4095,190.7644 L269.4095,189.6644 L269.4595,189.6644 L269.4595,190.7144 L272.7095,190.7144 Z" style="fill:#636466;fill-rule:evenodd;"/>
        <!-- Hatch -->
        <path d="M274.4895,185.4444 L265.7395,185.4444 L265.7395,185.4144 L274.4895,185.4144 ZM269.5096,185.6944 L269.4696,185.6944 L269.4696,185.4444 L269.5096,185.4444 ZM270.7063,185.5844 L269.5096,185.5844 L269.5096,185.5444 L270.7063,185.5444 ZM270.7463,185.6944 L270.7063,185.6944 L270.7063,185.4444 L270.7463,185.4444 ZM271.943,185.5844 L270.7463,185.5844 L270.7463,185.5444 L271.943,185.5444 ZM271.983,185.6944 L271.943,185.6944 L271.943,185.4444 L271.983,185.4444 ZM273.2259,185.5844 L271.983,185.5844 L271.983,185.5444 L273.2259,185.5444 ZM273.2659,185.6944 L273.2259,185.6944 L273.2259,185.4444 L273.2659,185.4444 ZM274.4495,185.5844 L273.2659,185.5844 L273.2659,185.5444 L274.4495,185.5444 Z" style="fill:#636466;fill-rule:evenodd;"/>
        <!-- Hatch -->
        <path d="M274.4895,185.6944 L274.4495,185.6944 L274.4495,185.4444 L274.4895,185.4444 ZM269.4696,185.5844 L268.2729,185.5844 L268.2729,185.5444 L269.4696,185.5444 ZM268.2329,185.5844 L267.0362,185.5844 L267.0362,185.5444 L268.2329,185.5444 ZM268.2729,185.6944 L268.2329,185.6944 L268.2329,185.4444 L268.2729,185.4444 ZM267.0362,185.6944 L266.9962,185.6944 L266.9962,185.4444 L267.0362,185.4444 ZM266.9962,185.5844 L265.7795,185.5844 L265.7795,185.5444 L266.9962,185.5444 ZM265.7795,185.6944 L265.7395,185.6944 L265.7395,185.4444 L265.7795,185.4444 Z" style="fill:#636466;fill-rule:evenodd;"/>
        <!-- Hatch -->
        <path d="M261.9563,185.5844 L260.7596,185.5844 L260.7596,185.5444 L261.9563,185.5444 ZM261.9963,185.6944 L261.9563,185.6944 L261.9563,185.4444 L261.9963,185.4444 ZM263.206,185.5844 L261.9963,185.5844 L261.9963,185.5444 L263.206,185.5444 ZM263.2395,185.6944 L263.206,185.6944 L263.206,185.4444 L263.2395,185.4444 ZM263.2395,185.4444 L263.206,185.4444 L257.0295,185.4444 L257.0295,185.6944 L256.9895,185.6944 L256.9895,185.4144 L263.2395,185.4144 ZM260.7596,185.6944 L260.7196,185.6944 L260.7196,185.4444 L260.7596,185.4444 ZM260.7196,185.5844 L259.5229,185.5844 L259.5229,185.5444 L260.7196,185.5444 ZM259.4829,185.5844 L258.2862,185.5844 L258.2862,185.5444 L259.4829,185.5444 ZM259.5229,185.6944 L259.4829,185.6944 L259.4829,185.4444 L259.5229,185.4444 ZM258.2862,185.6944 L258.2462,185.6944 L258.2462,185.4444 L258.2862,185.4444 ZM258.2462,185.5844 L257.0295,185.5844 L257.0295,185.5444 L258.2462,185.5444 Z" style="fill:#636466;fill-rule:evenodd;"/>
        <!-- Hatch -->
        <path d="M254.4895,185.6944 L254.4495,185.6944 L254.4495,185.4444 L254.4895,185.4444 ZM254.4495,185.5844 L253.233,185.5844 L253.233,185.5444 L254.4495,185.5444 ZM253.233,185.6944 L253.193,185.6944 L253.193,185.4444 L253.233,185.4444 ZM253.193,185.5844 L251.9963,185.5844 L251.9963,185.5444 L253.193,185.5444 ZM250.7596,185.6944 L250.7196,185.6944 L250.7196,185.4444 L250.7596,185.4444 ZM251.9563,185.5844 L250.7596,185.5844 L250.7596,185.5444 L251.9563,185.5444 ZM250.7196,185.5844 L249.5229,185.5844 L249.5229,185.5444 L250.7196,185.5444 ZM254.4895,185.4444 L254.4495,185.4444 L246.9895,185.4444 L246.9895,185.4144 L254.4895,185.4144 ZM249.5229,185.6944 L249.4829,185.6944 L249.4829,185.4444 L249.5229,185.4444 ZM248.2862,185.6944 L248.2462,185.6944 L248.2462,185.4444 L248.2862,185.4444 ZM249.4829,185.5844 L248.2862,185.5844 L248.2862,185.5444 L249.4829,185.5444 ZM248.2462,185.5844 L247.0295,185.5844 L247.0295,185.5444 L248.2462,185.5444 ZM247.0295,185.6944 L246.9895,185.6944 L246.9895,185.4444 L247.0295,185.4444 Z" style="fill:#636466;fill-rule:evenodd;"/>
        <!-- Hatch -->
        <path d="M245.499,189.4544 L244.2495,189.4544 L244.2495,189.4066 L245.499,189.4066 ZM245.499,187.1044 L244.2495,187.1044 L244.2495,187.0544 L245.499,187.0544 ZM245.779,187.0544 L245.4995,187.0544 L245.4995,187.0044 L245.779,187.0044 L245.779,187.0066 Z" style="fill:#636466;fill-rule:evenodd;"/>
        <!-- Line -->
        <line x1="245.499" y1="189.4544" x2="245.499" y2="189.5044" style="stroke:#333333;stroke-width:0.0125;"/>
        <!-- Line -->
        <line x1="245.499" y1="189.5044" x2="245.7795" y2="189.5044" style="stroke:#333333;stroke-width:0.0125;"/>
        <!-- Line -->
        <line x1="245.7795" y1="189.5044" x2="245.779" y2="189.4566" style="stroke:#333333;stroke-width:0.0125;"/>
        <!-- Line -->
        <line x1="245.7795" y1="189.4544" x2="245.4995" y2="189.4544" style="stroke:#333333;stroke-width:0.0125;"/>
        <!-- Hatch -->
        <path d="M245.779,189.5044 L245.4995,189.5044 L245.4995,189.4544 L245.7795,189.4544 Z" style="fill:#636466;fill-rule:evenodd;"/>
        <!-- Hatch -->
        <path d="M275.9795,196.8944 L275.8795,196.8944 L275.8795,196.8694 L275.9795,196.8694 ZM276.7145,196.2694 L275.9795,196.2694 L275.9795,196.2194 L276.7145,196.2194 ZM275.9795,196.2194 L275.8795,196.2194 L275.8795,196.1944 L275.9795,196.1944 ZM245.5995,196.2194 L245.4995,196.2194 L245.4995,196.1944 L245.5995,196.1944 ZM245.5995,196.8944 L245.4995,196.8944 L245.4995,196.8694 L245.5995,196.8694 ZM245.4995,196.2694 L244.7646,196.2694 L244.7646,196.2194 L245.4995,196.2194 Z" style="fill:#636466;fill-rule:evenodd;"/>
        <!-- Hatch -->
        <path d="M245.4995,191.951 L244.9995,191.951 L244.9995,191.901 L245.4995,191.901 ZM245.4995,190.8044 L244.6995,190.8044 L244.6995,190.7544 L245.4995,190.7544 Z" style="fill:#636466;fill-rule:evenodd;"/>
        <!-- Hatch -->
        <path d="M245.7795,193.2477 L245.5295,193.2477 L245.5295,193.2077 L245.7795,193.2077 ZM245.6695,194.4644 L245.6295,194.4644 L245.6295,193.2477 L245.6695,193.2477 ZM245.6695,193.2077 L245.6295,193.2077 L245.6295,191.991 L245.6695,191.991 ZM245.7795,191.991 L245.5295,191.991 L245.5295,191.951 L245.7795,191.951 ZM245.5295,191.991 L245.5295,194.5044 L245.4995,194.5044 L245.4995,191.951 L245.5295,191.951 ZM245.7795,194.5044 L245.5295,194.5044 L245.5295,194.4644 L245.7795,194.4644 Z" style="fill:#636466;fill-rule:evenodd;"/>
        <!-- Hatch -->
        <path d="M245.6695,202.3353 A3.8,3.8 0 0 1 245.6195,202.3237 L245.6195,200.8944 L245.6695,200.8944 ZM245.6695,203.2944 L245.6195,203.2944 L245.6195,202.529 A4,4 0 0 0 245.6695,202.5399 ZM245.6695,202.5399 A4,4 0 0 1 245.6195,202.529 L245.6195,202.3237 A3.8,3.8 0 0 0 245.6695,202.3353 ZM250.4195,202.627 L250.3695,202.627 L250.3695,202.427 L250.4195,202.427 ZM250.5895,202.627 L250.5395,202.627 L250.5395,202.427 L250.5895,202.427 ZM250.5895,203.2944 L250.5395,203.2944 L250.5395,202.627 L250.5895,202.627 ZM250.4195,203.2944 L250.3695,203.2944 L250.3695,202.627 L250.4195,202.627 ZM250.4195,202.427 L250.3695,202.427 L250.3695,200.8944 L250.4195,200.8944 ZM250.5895,202.427 L250.5395,202.427 L250.5395,200.8944 L250.5895,200.8944 ZM255.3395,203.2944 L255.2895,203.2944 L255.2895,202.627 L255.3395,202.627 ZM255.5095,203.2944 L255.4595,203.2944 L255.4595,202.627 L255.5095,202.627 ZM260.2595,203.2944 L260.2095,203.2944 L260.2095,202.627 L260.2595,202.627 ZM260.4295,203.2944 L260.3795,203.2944 L260.3795,202.627 L260.4295,202.627 ZM260.4295,202.627 L260.3795,202.627 L260.3795,202.427 L260.4295,202.427 ZM260.2595,202.627 L260.2095,202.627 L260.2095,202.427 L260.2595,202.427 ZM260.2595,202.427 L260.2095,202.427 L260.2095,200.8944 L260.2595,200.8944 ZM260.4295,202.427 L260.3795,202.427 L260.3795,200.8944 L260.4295,200.8944 ZM255.5095,202.427 L255.4595,202.427 L255.4595,200.8944 L255.5095,200.8944 ZM255.3395,202.427 L255.2895,202.427 L255.2895,200.8944 L255.3395,200.8944 ZM255.3395,202.627 L255.2895,202.627 L255.2895,202.427 L255.3395,202.427 ZM255.5095,202.627 L255.4595,202.627 L255.4595,202.427 L255.5095,202.427 ZM265.4595,203.2944 L265.4095,203.2944 L265.4095,202.627 L265.4595,202.627 ZM265.6295,203.2944 L265.5795,203.2944 L265.5795,202.627 L265.6295,202.627 ZM265.6295,202.627 L265.5795,202.627 L265.5795,202.427 L265.6295,202.427 ZM265.4595,202.627 L265.4095,202.627 L265.4095,202.427 L265.4595,202.427 ZM265.4595,202.427 L265.4095,202.427 L265.4095,200.8944 L265.4595,200.8944 ZM265.6295,202.427 L265.5795,202.427 L265.5795,200.8944 L265.6295,200.8944 ZM270.6595,203.2944 L270.6095,203.2944 L270.6095,202.627 L270.6595,202.627 ZM270.8295,203.2944 L270.7795,203.2944 L270.7795,202.627 L270.8295,202.627 ZM270.6595,202.627 L270.6095,202.627 L270.6095,202.427 L270.6595,202.427 ZM270.8295,202.627 L270.7795,202.627 L270.7795,202.427 L270.8295,202.427 ZM270.8295,202.427 L270.7795,202.427 L270.7795,200.8944 L270.8295,200.8944 ZM270.6595,202.427 L270.6095,202.427 L270.6095,200.8944 L270.6595,200.8944 Z" style="fill:#636466;fill-rule:evenodd;"/>
        <!-- Hatch -->
        <path d="M275.8595,203.2944 L275.8095,203.2944 L275.8095,202.5399 A4,4 0 0 0 275.8595,202.529 ZM275.8595,202.529 A4,4 0 0 1 275.8095,202.5399 L275.8095,202.3353 A3.8,3.8 0 0 0 275.8595,202.3237 ZM275.8595,202.3237 A3.8,3.8 0 0 1 275.8095,202.3353 L275.8095,200.8944 L275.8595,200.8944 Z" style="fill:#636466;fill-rule:evenodd;"/>
        <!-- Line -->
        <line x1="244.1495" y1="184.0644" x2="244.1995" y2="184.1144" style="stroke:#333333;stroke-width:0.0125;"/>
        <!-- Line -->
        <line x1="277.3295" y1="184.0644" x2="277.2795" y2="184.1144" style="stroke:#333333;stroke-width:0.0125;"/>
        <!-- Hatch -->
        <path d="M277.3295,190.52 A1.8,1.8 0 0 1 277.2795,190.5292 L277.2795,184.1144 L277.3295,184.0644 Z" style="fill:#c7c8ca;fill-rule:evenodd;"/>
        <!-- Hatch -->
        <path d="M244.1995,186.7792 A1.8,1.8 0 0 1 244.1495,186.77 L244.1495,184.0644 L244.1995,184.1144 Z" style="fill:#c7c8ca;fill-rule:evenodd;"/>
        <!-- Hatch -->
        <path d="M277.2795,184.1144 L244.1995,184.1144 L244.1495,184.0644 L277.3295,184.0644 Z" style="fill:#c7c8ca;fill-rule:evenodd;"/>
        <!-- Hatch -->
        <path d="M277.2795,201.6519 A3.8,3.8 0 0 1 277.1795,201.7254 L277.1795,193.4655 A1.8,1.8 0 0 1 277.2795,193.4796 Z" style="fill:#c7c8ca;fill-rule:evenodd;"/>
        <!-- Hatch -->
        <path d="M250.4195,200.8944 L250.3695,200.8944 L245.6695,200.8944 L245.6195,200.8944 L245.6195,196.8944 L245.5995,196.8944 L245.5995,196.8694 L245.4995,196.8694 L244.7646,196.2694 L245.4995,196.2694 L245.4995,196.2194 L245.5995,196.2194 L275.8795,196.1945 L275.8795,196.2194 L275.9795,196.2194 L275.9795,196.2694 L276.7145,196.2694 L275.9795,196.8694 L275.8795,196.8694 L275.8595,196.8944 L275.8595,200.8944 L270.8295,200.8944 L270.7795,200.8944 L270.7795,196.8944 L270.6595,196.8944 L270.6595,200.8944 L265.6295,200.8944 L265.5795,200.8944 L265.5795,196.8944 L265.4595,196.8944 L265.4595,200.8944 L265.4095,200.8944 L260.4295,200.8944 L260.3795,200.8944 L260.3795,196.8944 L260.2595,196.8944 L260.2595,200.8944 L260.2095,200.8944 L255.5095,200.8944 L255.4595,200.8944 L255.4595,196.8944 L255.3395,196.8944 L255.3395,200.8944 L255.2895,200.8944 L250.5895,200.8944 L250.5395,200.8944 L250.5395,196.8944 L250.4195,196.8944 Z" style="fill:#ffecb3;fill-rule:evenodd;"/>
        <!-- Hatch -->
        <path d="M269.7195,190.6644 L269.4895,190.6644 L269.4895,190.1644 L269.7195,190.1644 Z" style="fill:#c0c0c0;fill-rule:evenodd;"/>
        <!-- Hatch -->
        <path d="M269.9495,190.6644 L269.7195,190.6644 L269.7195,190.1644 L269.9495,190.1644 ZM270.1795,190.6644 L269.9495,190.6644 L269.9495,190.1644 L270.1795,190.1644 ZM270.4095,190.6644 L270.1795,190.6644 L270.1795,190.1644 L270.4095,190.1644 ZM270.6395,190.6644 L270.4095,190.6644 L270.4095,190.1644 L270.6395,190.1644 ZM270.8695,190.6644 L270.6395,190.6644 L270.6395,190.1644 L270.8695,190.1644 ZM271.0995,190.6644 L270.8695,190.6644 L270.8695,190.1644 L270.8695,189.6644 L271.0995,189.6644 ZM271.3295,190.6644 L271.0995,190.6644 L271.0995,189.6644 L271.3295,189.6644 ZM271.5595,190.6644 L271.3295,190.6644 L271.3295,189.6644 L271.5595,189.6644 ZM271.7895,190.6644 L271.5595,190.6644 L271.5595,189.6644 L271.7895,189.6644 ZM272.0195,190.6644 L271.7895,190.6644 L271.7895,189.6644 L272.0195,189.6644 ZM272.2495,190.6644 L272.0195,190.6644 L272.0195,189.6644 L272.2495,189.6644 ZM272.4795,190.6644 L272.2495,190.6644 L272.2495,189.6644 L272.4795,189.6644 ZM272.7095,190.6644 L272.4795,190.6644 L272.4795,189.6644 L272.7095,189.6644 ZM269.7195,190.1644 L269.4895,190.1644 L269.4895,189.6644 L269.7195,189.6644 ZM269.9495,190.1644 L269.7195,190.1644 L269.7195,189.6644 L269.9495,189.6644 ZM270.1795,190.1644 L269.9495,190.1644 L269.9495,189.6644 L270.1795,189.6644 ZM270.4095,190.1644 L270.1795,190.1644 L270.1795,189.6644 L270.4095,189.6644 ZM270.6395,190.1644 L270.4095,190.1644 L270.4095,189.6644 L270.6395,189.6644 ZM270.8695,190.1644 L270.6395,190.1644 L270.6395,189.6644 L270.8695,189.6644 Z" style="fill:#c0c0c0;fill-rule:evenodd;"/>
        <!-- Hatch -->
        <path d="M276.4795,191.901 L275.9795,191.901 L275.9795,191.3527 ZM275.9795,191.3527 L275.9795,190.8044 L276.7795,190.8044 ZM277.2295,189.4044 L275.9795,189.4044 L275.9795,188.2544 ZM275.9795,188.2544 L275.9795,187.1044 L277.2295,187.1044 ZM245.4995,189.4044 L245.4995,189.4066 L244.2495,189.4066 L244.2495,189.4044 L245.499,188.2549 L245.499,188.5974 ZM245.499,187.9158 L245.499,188.2539 L244.2495,187.1044 L245.499,187.1044 L245.499,187.1066 L245.4992,187.9158 ZM245.4995,191.3527 L244.6995,190.8044 L245.4995,190.8044 ZM245.4995,191.901 L244.9995,191.901 L245.4995,191.3527 Z" style="fill:#d7ebd2;fill-rule:evenodd;"/>
        <!-- Hatch -->
        <path d="M242.6995,198.627 A3.8,3.8 0 0 0 245.6195,202.3237 L245.6195,202.529 A4.00001,4.00001 0 0 1 242.4995,198.627 L242.4995,191.5044 A2,2 0 0 1 244.4995,189.5044 L245.499,189.5044 L245.499,189.5066 L245.4991,189.7044 L244.4995,189.7044 A1.8,1.8 0 0 0 242.6995,191.5044 Z" style="fill:#adadad;fill-rule:evenodd;"/>
        <!-- Hatch -->
        <path d="M246.3267,202.6233 A4.00001,4.00001 0 0 1 245.6695,202.5399 L245.6695,202.3353 A3.8,3.8 0 0 0 246.4995,202.427 L246.5188,202.427 ZM249.716,202.627 L246.4995,202.627 A4.00001,4.00001 0 0 1 246.3267,202.6233 L246.5188,202.427 L249.5202,202.427 ZM250.3695,202.627 L249.716,202.627 L249.5202,202.427 L250.3695,202.427 ZM251.243,202.627 L250.5895,202.627 L250.5895,202.427 L251.4388,202.427 ZM254.636,202.627 L251.243,202.627 L251.4388,202.427 L254.4402,202.427 ZM255.2895,202.627 L254.636,202.627 L254.4402,202.427 L255.2895,202.427 ZM256.163,202.627 L255.5095,202.627 L255.5095,202.427 L256.3588,202.427 ZM259.556,202.627 L256.163,202.627 L256.3588,202.427 L259.3602,202.427 ZM260.2095,202.627 L259.556,202.627 L259.3602,202.427 L260.2095,202.427 ZM261.1219,202.627 L260.4295,202.627 L260.4295,202.427 L261.3294,202.427 ZM264.7171,202.627 L261.1219,202.627 L261.3294,202.427 L264.5096,202.427 ZM265.4095,202.627 L264.7171,202.627 L264.5096,202.427 L265.4095,202.427 ZM266.3219,202.627 L265.6295,202.627 L265.6295,202.427 L266.5294,202.427 ZM269.9171,202.627 L266.3219,202.627 L266.5294,202.427 L269.7096,202.427 ZM270.6095,202.627 L269.9171,202.627 L269.7096,202.427 L270.6095,202.427 ZM271.5219,202.627 L270.8295,202.627 L270.8295,202.427 L271.7294,202.427 ZM275.1147,202.6247 A4,4 0 0 1 274.9795,202.627 L271.5219,202.627 L271.7294,202.427 L274.9096,202.427 ZM275.8095,202.5399 A4,4 0 0 1 275.1147,202.6247 L274.9096,202.427 L274.9795,202.427 A3.8,3.8 0 0 0 275.8095,202.3353 ZM275.8595,202.529 L275.8595,202.3237 A3.8,3.8 0 0 0 278.7795,198.627 L278.7795,195.2544 A1.8,1.8 0 0 0 276.9795,193.4544 L275.9795,193.4544 L275.9795,193.2544 L276.9795,193.2544 A2,2 0 0 1 278.9795,195.2544 L278.9795,198.627 A4,4 0 0 1 275.8595,202.529" style="fill:#adadad;fill-rule:evenodd;"/>
        <!-- Hatch -->
        <path d="M250.5895,202.627 L250.5395,202.627 L250.5395,202.427 L250.5895,202.427 ZM250.5395,202.627 L250.4195,202.627 L250.4195,202.427 L250.5395,202.427 ZM255.4595,202.627 L255.3395,202.627 L255.3395,202.427 L255.4595,202.427 ZM260.3795,202.627 L260.2595,202.627 L260.2595,202.427 L260.3795,202.427 ZM265.5795,202.627 L265.4595,202.627 L265.4595,202.427 L265.5795,202.427 ZM270.7795,202.627 L270.6595,202.627 L270.6595,202.427 L270.7795,202.427 Z" style="fill:#adadad;fill-rule:evenodd;"/>
        <!-- Hatch -->
        <path d="M270.6095,203.2944 L269.9171,202.627 L270.6095,202.627 ZM270.8295,203.2944 L270.8295,202.627 L271.5219,202.627 ZM271.7294,202.427 L270.8295,202.427 L270.8295,200.8944 L273.3195,200.8944 ZM275.8095,202.3353 A3.8,3.8 0 0 1 274.9795,202.427 L274.9096,202.427 L273.3195,200.8944 L275.8095,200.8944 ZM275.8095,203.2944 L275.1147,202.6247 A4,4 0 0 0 275.8095,202.5399 ZM270.6095,202.427 L269.7096,202.427 L268.1195,200.8944 L270.6095,200.8944 ZM266.5294,202.427 L265.6295,202.427 L265.6295,200.8944 L268.1195,200.8944 ZM265.6295,203.2944 L265.6295,202.627 L266.3219,202.627 ZM265.4095,203.2944 L264.7171,202.627 L265.4095,202.627 ZM265.4095,202.427 L264.5096,202.427 L262.9195,200.8944 L265.4095,200.8944 ZM260.2095,202.427 L259.3602,202.427 L257.8595,200.8944 L260.2095,200.8944 ZM261.3294,202.427 L260.4295,202.427 L260.4295,200.8944 L262.9195,200.8944 ZM260.4295,203.2944 L260.4295,202.627 L261.1219,202.627 ZM260.2095,203.2944 L259.556,202.627 L260.2095,202.627 ZM256.3588,202.427 L255.5095,202.427 L255.5095,200.8944 L257.8595,200.8944 ZM255.5095,203.2944 L255.5095,202.627 L256.163,202.627 ZM255.2895,203.2944 L254.636,202.627 L255.2895,202.627 ZM255.2895,202.427 L254.4402,202.427 L252.9395,200.8944 L255.2895,200.8944 ZM251.4388,202.427 L250.5895,202.427 L250.5895,200.8944 L252.9395,200.8944 ZM250.3695,202.427 L249.5202,202.427 L248.0195,200.8944 L250.3695,200.8944 ZM250.5895,203.2944 L250.5895,202.627 L251.243,202.627 ZM250.3695,203.2944 L249.716,202.627 L250.3695,202.627 ZM246.5188,202.427 L246.4995,202.427 A3.8,3.8 0 0 1 245.6695,202.3353 L245.6695,200.8944 L248.0195,200.8944 ZM245.6695,203.2944 L245.6695,202.5399 A4.00001,4.00001 0 0 0 246.3267,202.6233 Z" style="fill:#d7ebd2;fill-rule:evenodd;"/>
        <!-- Hatch -->
        <path d="M245.4995,187.0044 L244.4995,187.0044 A2,2 0 0 1 242.4995,185.0044 L242.4995,182.5608 A2,2 0 0 1 244.4995,180.5608 L274.9795,180.5608 A4,4 0 0 1 278.9795,184.5608 L278.9795,188.7544 A2,2 0 0 1 276.9795,190.7544 L275.9795,190.7544 L275.9795,190.5544 L276.9795,190.5544 A1.8,1.8 0 0 0 278.7795,188.7544 L278.7795,184.7608 A4,4 0 0 0 274.7795,180.7608 L244.4995,180.7608 A1.8,1.8 0 0 0 242.6995,182.5608 L242.6995,185.0044 A1.8,1.8 0 0 0 244.4995,186.8044 L244.499,186.8066 L245.4995,186.8066 Z" style="fill:#adadad;fill-rule:evenodd;"/>
        <!-- Hatch -->
        <path d="M281.7197,191.9656 L280.0493,192.7913 L280.0584,191.1275 ZM280.0562,191.5434 L280.0516,192.3753 L278.1352,192.3682 L278.1383,191.5362 Z" style="fill:#009900;fill-rule:evenodd;"/>
        <!-- Hatch -->
        <path d="M240.4171,191.1993 L242.0875,190.3737 L242.0784,192.0375 ZM242.0806,191.6215 L242.0852,190.7896 L244.0016,190.7968 L243.9985,191.6287 Z" style="fill:#009900;fill-rule:evenodd;"/>
        <!-- Hatch -->
        <path d="M240.5183,188.3008 L242.1887,187.4751 L242.1796,189.1389 ZM242.1819,188.723 L242.1864,187.8911 L244.1028,187.8982 L244.0997,188.7302 Z" style="fill:#009900;fill-rule:evenodd;"/>
        <!-- Hatch -->
        <path d="M248.8709,194.6891 L246.2101,194.6891 L246.2101,193.1175 L248.8709,193.1175 ZM254.2131,194.6891 L251.5523,194.6891 L251.5523,193.1175 L254.2131,193.1175 ZM260.5175,194.6891 L256.8165,194.6891 L256.8165,193.1175 L260.5175,193.1175 ZM267.9637,194.6891 L263.19,194.6891 L263.19,193.1175 L267.9637,193.1175 ZM274.3314,194.6891 L270.6633,194.6891 L270.6633,193.1175 L274.3314,193.1175 ZM267.0744,191.038 L263.3365,191.038 L263.3365,190.2109 L267.0744,190.2109 ZM267.0744,188.6635 L263.3365,188.6635 L263.3365,187.8364 L267.0744,187.8364 ZM267.0744,186.4243 L263.3365,186.4243 L263.3365,185.9439 L264.3895,185.9439 L264.3895,186.0044 L264.5895,186.0044 L264.5895,185.9439 L267.0744,185.9439 ZM260.7395,191.038 L256.9552,191.038 L256.9552,190.2094 L260.7395,190.2094 ZM255.3533,191.038 L251.1347,191.038 L251.1347,190.2094 L255.3533,190.2094 ZM260.7395,188.4694 L246.7175,188.4694 L246.7175,186.8935 L260.7395,186.8935 ZM250.4882,187.3958 L256.5134,187.3958 L256.5134,187.9549 L250.4882,187.9549 Z" style="fill:#7aafdf;fill-rule:evenodd;"/>
    </g>
</svg>
