<?xml version="1.0" encoding="UTF-8"?>
<!-- 2020-09-05 23:27:14 Generated by QCAD 3.24.3 SVG Exporter PG -->
<svg width="1375.3091mm" height="2240.2246mm" viewBox="-0.125 -111.8862 68.7655 112.0112" version="1.1" xmlns="http://www.w3.org/2000/svg" style="stroke-linecap:round;stroke-linejoin:round;fill:none">
    <g transform="scale(1,-1)">
        <!-- Hatch -->
        <path d="M36.1249,23.1646 L35.9249,23.2449 L33.7985,21.0254 L27.9283,21.0254 L27.9283,20.8338 L33.8839,20.8254 ZM38.1449,23.2349 L37.9449,23.1505 L40.3542,20.8054 L42.6247,20.8054 L42.6247,21.0054 L40.4355,21.0054 Z" style="fill:#000000;fill-rule:evenodd;"/>
        <!-- Hatch -->
        <path d="M29.1839,20.3504 L29.1839,20.3754 L29.1839,20.8321 L27.9283,20.8338 L27.9283,20.8335 L27.9294,19.022 L29.1839,19.0227 L29.1839,19.4754 L29.1839,19.5004 L29.1839,19.5504 L28.2839,19.5504 Z" style="fill:#d7ebd2;fill-rule:evenodd;"/>
        <!-- Hatch -->
        <path d="M42.6247,20.8054 L41.4542,20.8054 L41.4542,20.3754 L41.4542,20.3504 L41.4542,19.5004 L41.4542,19.4754 L41.4542,19.0254 L42.6247,19.0254 Z" style="fill:#d7ebd2;fill-rule:evenodd;"/>
        <!-- Line -->
        <line x1="42.6247" y1="20.8054" x2="40.3542" y2="20.8054" style="stroke:#004c26;stroke-width:0.0125;"/>
        <!-- Line -->
        <line x1="37.9449" y1="23.1505" x2="40.3542" y2="20.8054" style="stroke:#004c26;stroke-width:0.0125;"/>
        <!-- Hatch -->
        <path d="M33.8839,19.0254 L27.9282,19.022 L27.9283,18.8254 L33.8037,18.8254 L35.9349,16.7899 L35.9349,11.1996 L36.1349,11.1996 L36.1349,16.8754 ZM40.4302,18.8254 L42.6247,18.8254 L42.6247,19.0254 L40.3542,19.0254 L37.9349,16.8754 L37.9349,11.1996 L38.1349,11.1996 L38.1349,16.7856 Z" style="fill:#000000;fill-rule:evenodd;"/>
        <!-- Line -->
        <line x1="33.8839" y1="19.0254" x2="27.9283" y2="19.022" style="stroke:#004c26;stroke-width:0.0125;"/>
        <!-- Line -->
        <line x1="36.1249" y1="23.1646" x2="33.8839" y2="20.8254" style="stroke:#004c26;stroke-width:0.0125;"/>
        <!-- Line -->
        <line x1="33.8839" y1="20.8254" x2="27.9283" y2="20.8338" style="stroke:#004c26;stroke-width:0.0125;"/>
        <!-- Line -->
        <line x1="42.6247" y1="19.0254" x2="40.3542" y2="19.0254" style="stroke:#004c26;stroke-width:0.0125;"/>
        <!-- Line -->
        <line x1="37.9349" y1="16.8743" x2="37.9349" y2="11.1996" style="stroke:#004c26;stroke-width:0.0125;"/>
        <!-- Line -->
        <line x1="36.1349" y1="16.8743" x2="36.1349" y2="11.1996" style="stroke:#004c26;stroke-width:0.0125;"/>
        <!-- Line -->
        <line x1="33.8839" y1="19.0254" x2="36.1349" y2="16.8754" style="stroke:#004c26;stroke-width:0.0125;"/>
        <!-- Line -->
        <line x1="37.9349" y1="16.8754" x2="40.3542" y2="19.0254" style="stroke:#004c26;stroke-width:0.0125;"/>
        <!-- Line -->
        <line x1="61.7187" y1="27.8754" x2="6" y2="28.0123" style="stroke:#c0c0c0;stroke-width:0.0125;stroke-dasharray:0.2381,0.0397,0.0397,0.0397;stroke-dashoffset:0.1202"/>
        <!-- Line -->
        <line x1="42.6247" y1="21.0054" x2="40.4355" y2="21.0054" style="stroke:#004c26;stroke-width:0.0125;"/>
        <!-- Line -->
        <line x1="42.6247" y1="18.8254" x2="40.4302" y2="18.8254" style="stroke:#004c26;stroke-width:0.0125;"/>
        <!-- Line -->
        <line x1="38.1449" y1="23.2349" x2="40.4355" y2="21.0054" style="stroke:#004c26;stroke-width:0.0125;"/>
        <!-- Line -->
        <line x1="35.9249" y1="23.2449" x2="33.7985" y2="21.0254" style="stroke:#004c26;stroke-width:0.0125;"/>
        <!-- Line -->
        <line x1="33.8037" y1="18.8254" x2="35.9349" y2="16.7899" style="stroke:#004c26;stroke-width:0.0125;"/>
        <!-- Line -->
        <line x1="38.1349" y1="16.7856" x2="40.4302" y2="18.8254" style="stroke:#004c26;stroke-width:0.0125;"/>
        <!-- Line -->
        <line x1="38.1349" y1="16.7841" x2="38.1349" y2="11.1996" style="stroke:#004c26;stroke-width:0.0125;"/>
        <!-- Line -->
        <line x1="35.9349" y1="16.7894" x2="35.9349" y2="11.1996" style="stroke:#004c26;stroke-width:0.0125;"/>
        <!-- Line -->
        <line x1="33.8037" y1="18.8254" x2="27.9283" y2="18.8254" style="stroke:#004c26;stroke-width:0.0125;"/>
        <!-- Line -->
        <line x1="33.7985" y1="21.0254" x2="27.9283" y2="21.0254" style="stroke:#004c26;stroke-width:0.0125;"/>
        <!-- Hatch -->
        <path d="M38.1449,107.9446 L33.7949,107.9446 L33.7949,99.9646 L35.9249,99.9646 L35.9249,29.6258 L36.1249,29.6258 L36.1249,100.1646 L33.9949,100.1646 L33.9949,107.7446 L37.9449,107.7446 L37.9449,23.1505 L38.1449,23.2349 Z" style="fill:#000000;fill-rule:evenodd;"/>
        <!-- Line -->
        <line x1="36.1249" y1="100.1646" x2="33.9949" y2="100.1646" style="stroke:#004c26;stroke-width:0.0125;"/>
        <!-- Line -->
        <line x1="61.9182" y1="101.9154" x2="8.6791" y2="101.7462" style="stroke:#c0c0c0;stroke-width:0.0125;stroke-dasharray:0.2381,0.0397,0.0397,0.0397;stroke-dashoffset:0.1099"/>
        <!-- Text: X=-500.00 -->
        <text x="60.6148" dx="0" y="-103.2496" dy="1" font-family="Arial" font-size="1.4" line-height="1.1" fill="#c0c0c0" transform="scale(1,-1) rotate(360 60.6148,-103.2496)" text-anchor="end">X=-500.00</text>
        <!-- Text: X=-500.00 -->
        <text x="16.0125" dx="0" y="-103.2496" dy="1" font-family="Arial" font-size="1.4" line-height="1.1" fill="#c0c0c0" transform="scale(1,-1) rotate(360 16.0125,-103.2496)" text-anchor="end">X=-500.00</text>
        <!-- Circle -->
        <circle cx="5" cy="28.0123" r="1" style="stroke:#c0c0c0;stroke-width:0.0125;stroke-dasharray:0.2381,0.0397,0.0397,0.0397;stroke-dashoffset:0.0136"/>
        <!-- Text: I -->
        <text x="5.1767" dx="0" y="-28.4713" dy="1" font-family="Arial" font-size="1.4" line-height="1.1" fill="#c0c0c0" transform="scale(1,-1) rotate(360 5.1767,-28.4713)" text-anchor="end">I</text>
        <!-- Text: SUB 10 Bis (X=-425.96) -->
        <text x="28.3155" dx="0" y="-28.0993" dy="1" font-family="Arial" font-size="1.4" line-height="1.1" fill="#c0c0c0" transform="scale(1,-1) rotate(360 28.3155,-28.0993)" text-anchor="end">SUB 10 Bis (X=-425.96)</text>
        <!-- Circle -->
        <circle cx="62.7187" cy="27.8754" r="1" style="stroke:#c0c0c0;stroke-width:0.0125;stroke-dasharray:0.2381,0.0397,0.0397,0.0397;stroke-dashoffset:0.0136"/>
        <!-- Text: I -->
        <text x="62.8955" dx="0" y="-28.3345" dy="1" font-family="Arial" font-size="1.4" line-height="1.1" fill="#c0c0c0" transform="scale(1,-1) rotate(360 62.8955,-28.3345)" text-anchor="end">I</text>
        <!-- Line -->
        <line x1="61.1362" y1="87.6544" x2="8.3167" y2="87.6544" style="stroke:#c0c0c0;stroke-width:0.0125;stroke-dasharray:0.2381,0.0397,0.0397,0.0397;stroke-dashoffset:0.1412"/>
        <!-- Text: EJE TUNEL (X=-485.74) -->
        <text x="27.938" dx="0" y="-89.8745" dy="1" font-family="Arial" font-size="1.4" line-height="1.1" fill="#c0c0c0" transform="scale(1,-1) rotate(360 27.938,-89.8745)" text-anchor="end">EJE TUNEL (X=-485.74)</text>
        <!-- Line -->
        <line x1="61.7187" y1="6.4154" x2="6" y2="6.4154" style="stroke:#c0c0c0;stroke-width:0.0125;stroke-dasharray:0.2381,0.0397,0.0397,0.0397;stroke-dashoffset:0.1203"/>
        <!-- Text: X=-404.50 -->
        <text x="16.4626" dx="0" y="-8.2527" dy="1" font-family="Arial" font-size="1.4" line-height="1.1" fill="#c0c0c0" transform="scale(1,-1) rotate(360 16.4626,-8.2527)" text-anchor="end">X=-404.50</text>
        <!-- Text: E -->
        <text x="4.6844" dx="0" y="-7.4351" dy="2" font-family="Arial" font-size="2.8" line-height="1.1" fill="#c0c0c0" transform="scale(1,-1) rotate(360 4.6844,-7.4351)" text-anchor="end">E</text>
        <!-- Circle -->
        <circle cx="4" cy="6.4154" r="2" style="stroke:#c0c0c0;stroke-width:0.0125;stroke-dasharray:0.2381,0.0397,0.0397,0.0397;stroke-dashoffset:0.0867"/>
        <!-- Line -->
        <line x1="61.7187" y1="29.2154" x2="6.7967" y2="29.2154" style="stroke:#c0c0c0;stroke-width:0.0125;stroke-dasharray:0.2381,0.0397,0.0397,0.0397;stroke-dashoffset:0.1615"/>
        <!-- Text: X=-427.30 -->
        <text x="16.9929" dx="0" y="-30.7142" dy="1" font-family="Arial" font-size="1.4" line-height="1.1" fill="#c0c0c0" transform="scale(1,-1) rotate(360 16.9929,-30.7142)" text-anchor="end">X=-427.30</text>
        <!-- Circle -->
        <circle cx="2" cy="32.1913" r="2" style="stroke:#c0c0c0;stroke-width:0.0125;stroke-dasharray:0.2381,0.0397,0.0397,0.0397;stroke-dashoffset:0.0867"/>
        <!-- Text: D -->
        <text x="2.6844" dx="0" y="-33.211" dy="2" font-family="Arial" font-size="2.8" line-height="1.1" fill="#c0c0c0" transform="scale(1,-1) rotate(360 2.6844,-33.211)" text-anchor="end">D</text>
        <!-- Circle -->
        <circle cx="63.7187" cy="6.4154" r="2" style="stroke:#c0c0c0;stroke-width:0.0125;stroke-dasharray:0.2381,0.0397,0.0397,0.0397;stroke-dashoffset:0.0867"/>
        <!-- Text: E -->
        <text x="64.4031" dx="0" y="-7.4351" dy="2" font-family="Arial" font-size="2.8" line-height="1.1" fill="#c0c0c0" transform="scale(1,-1) rotate(360 64.4031,-7.4351)" text-anchor="end">E</text>
        <!-- Line -->
        <line x1="21.5392" y1="107.7612" x2="21.5392" y2="4" style="stroke:#c0c0c0;stroke-width:0.0125;stroke-dasharray:0.2381,0.0397,0.0397,0.0397;stroke-dashoffset:0.0306"/>
        <!-- Text: 11 -->
        <text x="22.4737" dx="0" y="-110.8502" dy="2" font-family="Arial" font-size="2.8" line-height="1.1" fill="#c0c0c0" transform="scale(1,-1) rotate(360 22.4737,-110.8502)" text-anchor="end">11</text>
        <!-- Circle -->
        <circle cx="21.5392" cy="109.7612" r="2" style="stroke:#c0c0c0;stroke-width:0.0125;stroke-dasharray:0.2381,0.0397,0.0397,0.0397;stroke-dashoffset:0.0867"/>
        <!-- Line -->
        <line x1="6.7967" y1="29.2154" x2="6.7967" y2="32.1913" style="stroke:#808080;stroke-width:0.0125;stroke-dasharray:0.2381,0.0397,0.0397,0.0397;stroke-dashoffset:0.0599"/>
        <!-- Line -->
        <line x1="6.7967" y1="32.1913" x2="4" y2="32.1913" style="stroke:#808080;stroke-width:0.0125;stroke-dasharray:0.2381,0.0397,0.0397,0.0397;stroke-dashoffset:0.1494"/>
        <!-- Circle -->
        <circle cx="66.5155" cy="32.1913" r="2" style="stroke:#c0c0c0;stroke-width:0.0125;stroke-dasharray:0.2381,0.0397,0.0397,0.0397;stroke-dashoffset:0.0867"/>
        <!-- Text: D -->
        <text x="67.1999" dx="0" y="-33.211" dy="2" font-family="Arial" font-size="2.8" line-height="1.1" fill="#c0c0c0" transform="scale(1,-1) rotate(360 67.1999,-33.211)" text-anchor="end">D</text>
        <!-- Line -->
        <line x1="61.7187" y1="29.2154" x2="61.7187" y2="32.1913" style="stroke:#808080;stroke-width:0.0125;stroke-dasharray:0.2381,0.0397,0.0397,0.0397;stroke-dashoffset:0.0599"/>
        <!-- Line -->
        <line x1="61.7187" y1="32.1913" x2="64.5155" y2="32.1913" style="stroke:#808080;stroke-width:0.0125;stroke-dasharray:0.2381,0.0397,0.0397,0.0397;stroke-dashoffset:0.1494"/>
        <!-- Text: Y=360.39 -->
        <text x="20.0612" dx="0" y="-105.9863" dy="1" font-family="Arial" font-size="1.4" line-height="1.1" fill="#c0c0c0" transform="scale(1,-1) rotate(270 20.0612,-105.9863)" text-anchor="end">Y=360.39</text>
        <!-- Circle -->
        <circle cx="21.5392" cy="2" r="2" style="stroke:#c0c0c0;stroke-width:0.0125;stroke-dasharray:0.2381,0.0397,0.0397,0.0397;stroke-dashoffset:0.0867"/>
        <!-- Text: 11 -->
        <text x="22.4737" dx="0" y="-3.089" dy="2" font-family="Arial" font-size="2.8" line-height="1.1" fill="#c0c0c0" transform="scale(1,-1) rotate(360 22.4737,-3.089)" text-anchor="end">11</text>
        <!-- Hatch -->
        <path d="M29.2839,20.3754 L29.1839,20.3754 L29.1839,20.3504 L29.2839,20.3504 ZM29.2839,19.5004 L29.1839,19.5004 L29.1839,19.4754 L29.2839,19.4754 Z" style="fill:#000000;fill-rule:evenodd;"/>
        <!-- Line -->
        <line x1="29.1839" y1="20.3504" x2="29.1839" y2="20.3754" style="stroke:#808080;stroke-width:0.0125;"/>
        <!-- Hatch -->
        <path d="M29.2839,20.3504 L29.1839,20.3504 L29.1839,19.5004 L29.2839,19.5004 ZM29.1839,20.3504 L28.6847,19.9067 L28.6847,19.6456 L29.0839,19.6456 L29.0839,19.5504 L29.1839,19.5504 ZM29.0589,19.6206 L28.6847,19.6206 L28.6847,19.5504 L29.0589,19.5504 ZM29.2856,19.388 L29.2856,20.537 L28.5998,20.537 L28.5998,19.388 Z" style="fill:#d7ebd2;fill-rule:evenodd;"/>
        <!-- Hatch -->
        <path d="M28.4492,19.6456 L28.3909,19.6456 L28.2839,19.5504 L28.4492,19.5504 ZM28.4492,19.6974 L28.3909,19.6456 L28.4492,19.6456 ZM28.675,19.8981 L28.4492,19.6974 L28.4492,19.6456 L28.5857,19.6456 ZM28.5768,19.6206 L28.4492,19.6206 L28.4492,19.5504 L28.552,19.5504 ZM28.6847,19.6206 L28.5768,19.6206 L28.552,19.5504 L28.6847,19.5504 ZM28.6847,19.9067 L28.675,19.8981 L28.5857,19.6456 L28.6847,19.6456 ZM29.0589,19.6206 L28.6847,19.6206 L28.6847,19.5504 L29.0589,19.5504 ZM29.2839,20.3504 L29.1839,20.3504 L29.1839,19.5004 L29.2839,19.5004 ZM29.2856,19.388 L29.2856,20.537 L28.5998,20.537 L28.5998,19.388 Z" style="fill:#d7ebd2;fill-rule:evenodd;"/>
        <!-- Hatch -->
        <path d="M29.2839,20.3504 L29.1839,20.3504 L29.1839,19.5004 L29.2839,19.5004 Z" style="fill:#d7ebd2;fill-rule:evenodd;"/>
        <!-- Line -->
        <line x1="29.1839" y1="20.3504" x2="29.2839" y2="20.3504" style="stroke:#808080;stroke-width:0.0125;"/>
        <!-- Line -->
        <line x1="29.2839" y1="20.3504" x2="29.2839" y2="20.3754" style="stroke:#808080;stroke-width:0.0125;"/>
        <!-- Line -->
        <line x1="29.1839" y1="20.3754" x2="29.2839" y2="20.3754" style="stroke:#808080;stroke-width:0.0125;"/>
        <!-- Line -->
        <line x1="29.1839" y1="19.4754" x2="29.1839" y2="19.5004" style="stroke:#808080;stroke-width:0.0125;"/>
        <!-- Line -->
        <line x1="29.2839" y1="19.5004" x2="29.1839" y2="19.5004" style="stroke:#808080;stroke-width:0.0125;"/>
        <!-- Line -->
        <line x1="29.2839" y1="19.5004" x2="29.2839" y2="19.4754" style="stroke:#808080;stroke-width:0.0125;"/>
        <!-- Line -->
        <line x1="29.1839" y1="19.4754" x2="29.2839" y2="19.4754" style="stroke:#808080;stroke-width:0.0125;"/>
        <!-- Line -->
        <line x1="29.1839" y1="19.5004" x2="28.2839" y2="19.5004" style="stroke:#808080;stroke-width:0.0125;"/>
        <!-- Line -->
        <line x1="29.1839" y1="19.5504" x2="28.2839" y2="19.5504" style="stroke:#808080;stroke-width:0.0125;"/>
        <!-- Line -->
        <line x1="29.1839" y1="20.3504" x2="29.1839" y2="19.5004" style="stroke:#808080;stroke-width:0.0125;"/>
        <!-- Line -->
        <line x1="29.2839" y1="20.3504" x2="29.2839" y2="19.5004" style="stroke:#808080;stroke-width:0.0125;"/>
        <!-- Line -->
        <line x1="28.2839" y1="19.5504" x2="29.1839" y2="20.3504" style="stroke:#808080;stroke-width:0.0125;"/>
        <!-- Hatch -->
        <path d="M34.1593,107.5594 L34.0948,107.5594 L34.0948,106.7918 L34.1593,106.7918 Z" style="fill:#000000;fill-rule:evenodd;"/>
        <!-- Hatch -->
        <path d="M34.0948,106.8667 L33.9949,106.8667 L33.9949,106.8731 L34.0948,106.8731 Z" style="fill:#000000;fill-rule:evenodd;"/>
        <!-- Hatch -->
        <path d="M34.0948,107.4872 L33.9949,107.4872 L33.9949,107.4808 L34.0948,107.4808 Z" style="fill:#000000;fill-rule:evenodd;"/>
        <!-- Line -->
        <line x1="33.9949" y1="100.1646" x2="33.9949" y2="107.7446" style="stroke:#004c26;stroke-width:0.0125;"/>
        <!-- Line -->
        <line x1="37.9449" y1="107.7446" x2="33.9949" y2="107.7446" style="stroke:#004c26;stroke-width:0.0125;"/>
        <!-- Hatch -->
        <path d="M33.7949,107.946 L32.9047,107.946 L32.9047,107.9163 L33.7949,107.9163 Z" style="fill:#000000;fill-rule:evenodd;"/>
        <!-- Hatch -->
        <path d="M33.7949,106.7248 L32.9047,106.7248 L32.9047,107.0413 L32.8224,107.0413 L32.8224,106.6778 L33.7949,106.6778 Z" style="fill:#000000;fill-rule:evenodd;"/>
        <!-- Line -->
        <line x1="33.7949" y1="99.9646" x2="33.7949" y2="107.9446" style="stroke:#004c26;stroke-width:0.0125;"/>
        <!-- Line -->
        <line x1="35.9249" y1="99.9646" x2="33.7949" y2="99.9646" style="stroke:#004c26;stroke-width:0.0125;"/>
        <!-- Line -->
        <line x1="38.1449" y1="107.9446" x2="33.7949" y2="107.9446" style="stroke:#004c26;stroke-width:0.0125;"/>
        <!-- Line -->
        <line x1="37.9449" y1="23.1505" x2="37.9449" y2="107.7446" style="stroke:#004c26;stroke-width:0.0125;"/>
        <!-- Line -->
        <line x1="38.1449" y1="23.2349" x2="38.1449" y2="107.9446" style="stroke:#004c26;stroke-width:0.0125;"/>
        <!-- Hatch -->
        <path d="M36.1249,29.6258 L35.9249,29.6258 L35.0249,29.6258 L35.0249,27.2558 L35.9249,27.2558 L35.9249,23.2449 L36.1249,23.1646 ZM35.9249,27.4558 L35.2249,27.4558 L35.2249,29.4258 L35.9249,29.4258 Z" style="fill:#000000;fill-rule:evenodd;"/>
        <!-- Line -->
        <line x1="35.9249" y1="23.2449" x2="35.9249" y2="27.2558" style="stroke:#004c26;stroke-width:0.0125;"/>
        <!-- Line -->
        <line x1="35.9249" y1="27.4558" x2="35.2249" y2="27.4558" style="stroke:#004c26;stroke-width:0.0125;"/>
        <!-- Line -->
        <line x1="35.9249" y1="29.4258" x2="35.2249" y2="29.4258" style="stroke:#004c26;stroke-width:0.0125;"/>
        <!-- Line -->
        <line x1="35.2249" y1="27.4558" x2="35.2249" y2="29.4258" style="stroke:#004c26;stroke-width:0.0125;"/>
        <!-- Line -->
        <line x1="35.9249" y1="29.6258" x2="35.0249" y2="29.6258" style="stroke:#004c26;stroke-width:0.0125;"/>
        <!-- Line -->
        <line x1="35.0249" y1="27.2558" x2="35.0249" y2="29.6258" style="stroke:#004c26;stroke-width:0.0125;"/>
        <!-- Line -->
        <line x1="35.9249" y1="27.2558" x2="35.0249" y2="27.2558" style="stroke:#004c26;stroke-width:0.0125;"/>
        <!-- Line -->
        <line x1="35.9249" y1="29.6258" x2="35.9249" y2="99.9646" style="stroke:#004c26;stroke-width:0.0125;"/>
        <!-- Line -->
        <line x1="36.1249" y1="23.1646" x2="36.1249" y2="100.1646" style="stroke:#004c26;stroke-width:0.0125;"/>
        <!-- Line -->
        <line x1="35.9249" y1="29.4258" x2="35.9249" y2="27.4558" style="stroke:#004c26;stroke-width:0.0125;"/>
        <!-- Line -->
        <line x1="35.2249" y1="29.4258" x2="35.9249" y2="27.4558" style="stroke:#c0c0c0;stroke-width:0.0125;"/>
        <!-- Line -->
        <line x1="35.9249" y1="29.4258" x2="35.2249" y2="27.4558" style="stroke:#c0c0c0;stroke-width:0.0125;"/>
        <!-- Line -->
        <line x1="36.5849" y1="26.1646" x2="36.1249" y2="26.1646" style="stroke:#ff0000;stroke-width:0.0125;"/>
        <!-- Line -->
        <line x1="36.5849" y1="26.0646" x2="36.1249" y2="26.0646" style="stroke:#ff0000;stroke-width:0.0125;"/>
        <!-- Line -->
        <line x1="37.4849" y1="26.1646" x2="37.9449" y2="26.1646" style="stroke:#ff0000;stroke-width:0.0125;"/>
        <!-- Line -->
        <line x1="37.4849" y1="26.0646" x2="37.9449" y2="26.0646" style="stroke:#ff0000;stroke-width:0.0125;"/>
        <!-- Hatch -->
        <path d="M36.6099,26.1646 L36.5849,26.1646 L36.5849,26.0646 L36.6099,26.0646 ZM37.4849,26.1646 L37.4599,26.1646 L37.4599,26.0646 L37.4849,26.0646 Z" style="fill:#636466;fill-rule:evenodd;"/>
        <!-- Line -->
        <line x1="36.5849" y1="26.1646" x2="36.6099" y2="26.1646" style="stroke:#808080;stroke-width:0.0125;"/>
        <!-- Line -->
        <line x1="37.4599" y1="26.1646" x2="37.4849" y2="26.1646" style="stroke:#808080;stroke-width:0.0125;"/>
        <!-- Hatch -->
        <path d="M37.4599,26.1646 L36.6099,26.1646 L36.6099,26.0646 L37.4599,26.0646 ZM37.0161,26.6638 L36.755,26.6638 L36.755,26.2646 L36.6599,26.2646 L36.6599,26.1646 L37.4599,26.1646 ZM36.73,26.6638 L36.6599,26.6638 L36.6599,26.2896 L36.73,26.2896 ZM36.73,26.7716 L36.6599,26.7964 L36.6599,26.6638 L36.73,26.6638 ZM36.73,26.8992 L36.6599,26.8992 L36.6599,26.7964 L36.73,26.7716 ZM36.73,26.9396 L36.6599,26.9396 L36.6599,26.8992 L36.73,26.8992 ZM36.6599,27.0646 L36.6099,27.0646 L36.6099,26.8992 L36.6599,26.8992 ZM36.6599,27.0646 L36.6599,26.9646 L36.7487,26.9646 ZM36.8068,26.8992 L36.755,26.8992 L36.755,26.7628 L37.0075,26.6734 ZM36.755,26.7628 L36.755,26.6638 L37.0161,26.6638 L37.0075,26.6734 ZM36.7428,26.151 L37.6059,26.151 L37.6059,26.6662 L36.7428,26.6662 Z" style="fill:#d7ebd2;fill-rule:evenodd;"/>
        <!-- Line -->
        <line x1="37.4599" y1="26.1646" x2="37.4599" y2="26.0646" style="stroke:#808080;stroke-width:0.0125;"/>
        <!-- Line -->
        <line x1="36.6099" y1="26.0646" x2="36.6099" y2="26.1646" style="stroke:#808080;stroke-width:0.0125;"/>
        <!-- Line -->
        <line x1="36.6099" y1="26.0646" x2="36.5849" y2="26.0646" style="stroke:#808080;stroke-width:0.0125;"/>
        <!-- Line -->
        <line x1="37.4599" y1="26.0646" x2="37.4849" y2="26.0646" style="stroke:#808080;stroke-width:0.0125;"/>
        <!-- Line -->
        <line x1="37.4849" y1="26.1646" x2="37.4849" y2="26.0646" style="stroke:#808080;stroke-width:0.0125;"/>
        <!-- Line -->
        <line x1="36.5849" y1="26.1646" x2="36.5849" y2="26.0646" style="stroke:#808080;stroke-width:0.0125;"/>
        <!-- Line -->
        <line x1="37.4599" y1="26.1646" x2="36.6099" y2="26.1646" style="stroke:#808080;stroke-width:0.0125;"/>
        <!-- Line -->
        <line x1="37.4599" y1="26.0646" x2="36.6099" y2="26.0646" style="stroke:#808080;stroke-width:0.0125;"/>
        <!-- Line -->
        <line x1="36.6099" y1="26.1646" x2="36.6099" y2="27.0646" style="stroke:#808080;stroke-width:0.0125;"/>
        <!-- Line -->
        <line x1="36.6099" y1="27.0646" x2="36.6599" y2="27.0646" style="stroke:#808080;stroke-width:0.0125;"/>
        <!-- Line -->
        <line x1="36.6599" y1="26.1646" x2="36.6599" y2="27.0646" style="stroke:#808080;stroke-width:0.0125;"/>
        <!-- Line -->
        <line x1="36.5849" y1="100.0646" x2="36.1249" y2="100.0646" style="stroke:#ff0000;stroke-width:0.0125;"/>
        <!-- Line -->
        <line x1="36.5849" y1="100.1646" x2="36.1249" y2="100.1646" style="stroke:#ff0000;stroke-width:0.0125;"/>
        <!-- Line -->
        <line x1="37.4849" y1="100.0646" x2="37.9449" y2="100.0646" style="stroke:#ff0000;stroke-width:0.0125;"/>
        <!-- Line -->
        <line x1="37.4849" y1="100.1646" x2="37.9449" y2="100.1646" style="stroke:#ff0000;stroke-width:0.0125;"/>
        <!-- Hatch -->
        <path d="M37.3147,100.9575 L36.6099,100.1646 L37.4099,100.1646 L37.4099,100.2646 L37.3147,100.2646 ZM37.4099,100.9396 L37.3397,100.9396 L37.3397,100.2896 L37.4099,100.2896 ZM37.4099,101.0646 L37.321,100.9646 L37.4099,100.9646 ZM37.4599,100.1646 L36.6099,100.1646 L36.6099,100.0646 L37.4599,100.0646 Z" style="fill:#d7ebd2;fill-rule:evenodd;"/>
        <!-- Line -->
        <line x1="36.6099" y1="100.1646" x2="37.4599" y2="100.1646" style="stroke:#808080;stroke-width:0.0125;"/>
        <!-- Hatch -->
        <path d="M36.6099,100.1646 L36.5849,100.1646 L36.5849,100.0646 L36.6099,100.0646 ZM37.4849,100.1646 L37.4599,100.1646 L37.4599,100.0646 L37.4849,100.0646 Z" style="fill:#636466;fill-rule:evenodd;"/>
        <!-- Line -->
        <line x1="37.4849" y1="100.1646" x2="37.4849" y2="100.0646" style="stroke:#808080;stroke-width:0.0125;"/>
        <!-- Line -->
        <line x1="37.4599" y1="100.0646" x2="37.4599" y2="100.1646" style="stroke:#808080;stroke-width:0.0125;"/>
        <!-- Line -->
        <line x1="37.4849" y1="100.1646" x2="37.4599" y2="100.1646" style="stroke:#808080;stroke-width:0.0125;"/>
        <!-- Line -->
        <line x1="37.4599" y1="101.0646" x2="37.4099" y2="101.0646" style="stroke:#808080;stroke-width:0.0125;"/>
        <!-- Line -->
        <line x1="37.4099" y1="101.0646" x2="36.6099" y2="100.1646" style="stroke:#808080;stroke-width:0.0125;"/>
        <!-- Line -->
        <line x1="37.4099" y1="100.1646" x2="37.4099" y2="101.0646" style="stroke:#808080;stroke-width:0.0125;"/>
        <!-- Line -->
        <line x1="37.4599" y1="100.1646" x2="37.4599" y2="101.0646" style="stroke:#808080;stroke-width:0.0125;"/>
        <!-- Line -->
        <line x1="36.5849" y1="100.1646" x2="36.5849" y2="100.0646" style="stroke:#808080;stroke-width:0.0125;"/>
        <!-- Line -->
        <line x1="36.6099" y1="100.1646" x2="36.6099" y2="100.0646" style="stroke:#808080;stroke-width:0.0125;"/>
        <!-- Line -->
        <line x1="36.6099" y1="100.1646" x2="36.5849" y2="100.1646" style="stroke:#808080;stroke-width:0.0125;"/>
        <!-- Hatch -->
        <path d="M40.5542,19.6393 L40.4542,19.5504 L40.5542,19.5504 ZM40.6196,19.6206 L40.5792,19.6206 L40.5792,19.5504 L40.6196,19.5504 ZM40.7472,19.6206 L40.6196,19.6206 L40.6196,19.5504 L40.7224,19.5504 ZM40.855,19.6206 L40.7472,19.6206 L40.7224,19.5504 L40.855,19.5504 ZM41.2292,19.6206 L40.855,19.6206 L40.855,19.5504 L41.2292,19.5504 ZM40.855,19.9067 L40.8453,19.8981 L40.756,19.6456 L40.855,19.6456 ZM40.8453,19.8981 L40.6196,19.6974 L40.6196,19.6456 L40.756,19.6456 ZM40.6196,19.6974 L40.5613,19.6456 L40.6196,19.6456 ZM41.3542,20.3504 L40.855,19.9067 L40.855,19.6456 L41.2542,19.6456 L41.2542,19.5504 L41.3542,19.5504 ZM41.4542,20.3504 L41.3542,20.3504 L41.3542,19.5004 L41.4542,19.5004 ZM41.3738,19.6254 L41.3738,20.4884 L40.8586,20.4884 L40.8586,19.6254 Z" style="fill:#d7ebd2;fill-rule:evenodd;"/>
        <!-- Line -->
        <line x1="40.4542" y1="19.5504" x2="41.3542" y2="20.3504" style="stroke:#808080;stroke-width:0.0125;"/>
        <!-- Line -->
        <line x1="41.3542" y1="19.5004" x2="40.4542" y2="19.5004" style="stroke:#808080;stroke-width:0.0125;"/>
        <!-- Line -->
        <line x1="41.3542" y1="19.5504" x2="40.4542" y2="19.5504" style="stroke:#808080;stroke-width:0.0125;"/>
        <!-- Line -->
        <line x1="41.4542" y1="20.3504" x2="41.4542" y2="19.5004" style="stroke:#808080;stroke-width:0.0125;"/>
        <!-- Line -->
        <line x1="41.3542" y1="20.3504" x2="41.3542" y2="19.5004" style="stroke:#808080;stroke-width:0.0125;"/>
        <!-- Hatch -->
        <path d="M41.4542,20.3754 L41.3542,20.3754 L41.3542,20.3504 L41.4542,20.3504 ZM41.4542,19.5004 L41.3542,19.5004 L41.3542,19.4754 L41.4542,19.4754 Z" style="fill:#636466;fill-rule:evenodd;"/>
        <!-- Line -->
        <line x1="41.3542" y1="19.4754" x2="41.4542" y2="19.4754" style="stroke:#808080;stroke-width:0.0125;"/>
        <!-- Line -->
        <line x1="41.4542" y1="19.5004" x2="41.4542" y2="19.4754" style="stroke:#808080;stroke-width:0.0125;"/>
        <!-- Line -->
        <line x1="41.4542" y1="19.5004" x2="41.3542" y2="19.5004" style="stroke:#808080;stroke-width:0.0125;"/>
        <!-- Line -->
        <line x1="41.3542" y1="19.4754" x2="41.3542" y2="19.5004" style="stroke:#808080;stroke-width:0.0125;"/>
        <!-- Line -->
        <line x1="41.3542" y1="20.3754" x2="41.4542" y2="20.3754" style="stroke:#ff0000;stroke-width:0.0125;"/>
        <!-- Line -->
        <line x1="41.4542" y1="20.3504" x2="41.4542" y2="20.3754" style="stroke:#808080;stroke-width:0.0125;"/>
        <!-- Line -->
        <line x1="41.3542" y1="20.3504" x2="41.4542" y2="20.3504" style="stroke:#808080;stroke-width:0.0125;"/>
        <!-- Line -->
        <line x1="41.3542" y1="20.3504" x2="41.3542" y2="20.3754" style="stroke:#808080;stroke-width:0.0125;"/>
        <!-- Line -->
        <line x1="40.4542" y1="19.5504" x2="40.4542" y2="19.5004" style="stroke:#808080;stroke-width:0.0125;"/>
        <!-- Line -->
        <line x1="36.6599" y1="27.0646" x2="37.4599" y2="26.1646" style="stroke:#808080;stroke-width:0.0125;"/>
        <!-- Line -->
        <line x1="36.5849" y1="100.0646" x2="37.4849" y2="100.0646" style="stroke:#808080;stroke-width:0.0125;"/>
        <!-- Solid -->
        <path d="M28.2839,19.5504 L29.1839,19.5504 L29.1839,19.5004 L28.2839,19.5004 Z" style="stroke:#808080;stroke-width:0.0125;fill:#808080;fill-rule:evenodd;"/>
        <!-- Solid -->
        <path d="M36.6099,27.0646 L36.6599,27.0646 L36.6599,26.1646 L36.6099,26.1646 Z" style="stroke:#808080;stroke-width:0.0125;fill:#808080;fill-rule:evenodd;"/>
        <!-- Solid -->
        <path d="M36.1249,26.1646 L36.5849,26.1646 L36.5849,26.0646 L36.1249,26.0646 Z" style="stroke:#ff0000;stroke-width:0.0125;fill:#ff0000;fill-rule:evenodd;"/>
        <!-- Solid -->
        <path d="M37.4849,26.1646 L37.9449,26.1646 L37.9449,26.0646 L37.4849,26.0646 Z" style="stroke:#ff0000;stroke-width:0.0125;fill:#ff0000;fill-rule:evenodd;"/>
        <!-- Solid -->
        <path d="M37.4099,101.0646 L37.4599,101.0646 L37.4599,100.1646 L37.4099,100.1646 Z" style="stroke:#808080;stroke-width:0.0125;fill:#808080;fill-rule:evenodd;"/>
        <!-- Solid -->
        <path d="M36.1249,100.1646 L36.5849,100.1646 L36.5849,100.0646 L36.1249,100.0646 Z" style="stroke:#ff0000;stroke-width:0.0125;fill:#ff0000;fill-rule:evenodd;"/>
        <!-- Solid -->
        <path d="M37.4849,100.1646 L37.9449,100.1646 L37.9449,100.0646 L37.4849,100.0646 Z" style="stroke:#ff0000;stroke-width:0.0125;fill:#ff0000;fill-rule:evenodd;"/>
        <!-- Solid -->
        <path d="M40.4542,19.5504 L41.3542,19.5504 L41.3542,19.5004 L40.4542,19.5004 Z" style="stroke:#808080;stroke-width:0.0125;fill:#808080;fill-rule:evenodd;"/>
        <!-- Line -->
        <line x1="41.3542" y1="20.3754" x2="41.3542" y2="20.8054" style="stroke:#ff0000;stroke-width:0.0125;"/>
        <!-- Line -->
        <line x1="41.4542" y1="20.3754" x2="41.4542" y2="20.8054" style="stroke:#ff0000;stroke-width:0.0125;"/>
        <!-- Hatch -->
        <path d="M41.3542,20.3754 L41.4542,20.3754 L41.4542,20.7207 L41.3542,20.7207 ZM41.4542,20.7207 L41.4542,20.8054 L41.3542,20.8054 L41.3542,20.7207 Z" style="fill:#ff0000;fill-rule:evenodd;"/>
        <!-- Line -->
        <line x1="41.4542" y1="19.4754" x2="41.4542" y2="19.0254" style="stroke:#ff0000;stroke-width:0.0125;"/>
        <!-- Line -->
        <line x1="41.3542" y1="19.4754" x2="41.3542" y2="19.0254" style="stroke:#ff0000;stroke-width:0.0125;"/>
        <!-- Hatch -->
        <path d="M41.4542,19.4754 L41.3542,19.4754 L41.3542,19.0254 L41.4542,19.0254 Z" style="fill:#ff0000;fill-rule:evenodd;"/>
        <!-- Line -->
        <line x1="29.2839" y1="19.4754" x2="29.2839" y2="19.0227" style="stroke:#ff0000;stroke-width:0.0125;"/>
        <!-- Line -->
        <line x1="29.1839" y1="19.4754" x2="29.1839" y2="19.0227" style="stroke:#ff0000;stroke-width:0.0125;"/>
        <!-- Hatch -->
        <path d="M29.2839,19.4754 L29.1839,19.4754 L29.1839,19.0229 L29.2839,19.0226 Z" style="fill:#ff0000;fill-rule:evenodd;"/>
        <!-- Line -->
        <line x1="29.1839" y1="20.3754" x2="29.1839" y2="20.8254" style="stroke:#ff0000;stroke-width:0.0125;"/>
        <!-- Line -->
        <line x1="29.2839" y1="20.3754" x2="29.2839" y2="20.8254" style="stroke:#ff0000;stroke-width:0.0125;"/>
        <!-- Hatch -->
        <path d="M29.2839,20.5189 L29.1839,20.5189 L29.1839,20.3754 L29.2839,20.3754 Z" style="fill:#ff0000;fill-rule:evenodd;"/>
        <!-- Hatch -->
        <path d="M29.2839,20.7904 L29.1839,20.7904 L29.1839,20.5189 L29.2839,20.5189 Z" style="fill:#ff0000;fill-rule:evenodd;"/>
        <!-- Hatch -->
        <path d="M29.1839,20.8254 L29.1839,20.7904 L29.2839,20.7904 L29.2839,20.8254 Z" style="fill:#ff0000;fill-rule:evenodd;"/>
        <!-- Line -->
        <line x1="29.0589" y1="19.5504" x2="29.0589" y2="19.6456" style="stroke:#9f7fff;stroke-width:0.0125;"/>
        <!-- Line -->
        <line x1="29.0839" y1="19.5504" x2="29.0839" y2="19.6456" style="stroke:#9f7fff;stroke-width:0.0125;"/>
        <!-- Hatch -->
        <path d="M29.0589,19.5504 L29.0839,19.5504 L29.0839,19.6456 L29.0589,19.6456 ZM28.3839,19.5504 L28.4089,19.5504 L28.4089,19.6456 L28.3839,19.6456 Z" style="fill:#9f7fff;fill-rule:evenodd;"/>
        <!-- Hatch -->
        <path d="M28.4089,19.6456 L28.4089,19.6206 L29.0589,19.6206 L29.0589,19.6456 Z" style="fill:#9f7fff;fill-rule:evenodd;"/>
        <!-- Line -->
        <line x1="29.0839" y1="19.6456" x2="28.3839" y2="19.6456" style="stroke:#9f7fff;stroke-width:0.0125;"/>
        <!-- Line -->
        <line x1="29.0589" y1="19.6206" x2="28.4089" y2="19.6206" style="stroke:#9f7fff;stroke-width:0.0125;"/>
        <!-- Line -->
        <line x1="41.2292" y1="19.5504" x2="41.2292" y2="19.6456" style="stroke:#9f7fff;stroke-width:0.0125;"/>
        <!-- Line -->
        <line x1="41.2542" y1="19.5504" x2="41.2542" y2="19.6456" style="stroke:#9f7fff;stroke-width:0.0125;"/>
        <!-- Line -->
        <line x1="40.5542" y1="19.5504" x2="40.5542" y2="19.6456" style="stroke:#9f7fff;stroke-width:0.0125;"/>
        <!-- Line -->
        <line x1="40.5792" y1="19.5504" x2="40.5792" y2="19.6456" style="stroke:#9f7fff;stroke-width:0.0125;"/>
        <!-- Hatch -->
        <path d="M41.2292,19.5504 L41.2542,19.5504 L41.2542,19.6456 L41.2292,19.6456 ZM40.5542,19.5504 L40.5792,19.5504 L40.5792,19.6456 L40.5542,19.6456 Z" style="fill:#9f7fff;fill-rule:evenodd;"/>
        <!-- Hatch -->
        <path d="M40.5792,19.6456 L40.5792,19.6206 L41.2292,19.6206 L41.2292,19.6456 Z" style="fill:#9f7fff;fill-rule:evenodd;"/>
        <!-- Line -->
        <line x1="41.2542" y1="19.6456" x2="40.5542" y2="19.6456" style="stroke:#9f7fff;stroke-width:0.0125;"/>
        <!-- Line -->
        <line x1="41.2292" y1="19.6206" x2="40.5792" y2="19.6206" style="stroke:#9f7fff;stroke-width:0.0125;"/>
        <!-- Line -->
        <line x1="36.6599" y1="26.2896" x2="36.755" y2="26.2896" style="stroke:#9f7fff;stroke-width:0.0125;"/>
        <!-- Line -->
        <line x1="36.6599" y1="26.2646" x2="36.755" y2="26.2646" style="stroke:#9f7fff;stroke-width:0.0125;"/>
        <!-- Line -->
        <line x1="36.6599" y1="26.9646" x2="36.755" y2="26.9646" style="stroke:#9f7fff;stroke-width:0.0125;"/>
        <!-- Line -->
        <line x1="36.6599" y1="26.9396" x2="36.755" y2="26.9396" style="stroke:#9f7fff;stroke-width:0.0125;"/>
        <!-- Hatch -->
        <path d="M36.6599,26.2896 L36.6599,26.2646 L36.755,26.2646 L36.755,26.2896 ZM36.6599,26.9646 L36.6599,26.9396 L36.755,26.9396 L36.755,26.9646 Z" style="fill:#9f7fff;fill-rule:evenodd;"/>
        <!-- Hatch -->
        <path d="M36.755,26.9396 L36.73,26.9396 L36.73,26.2896 L36.755,26.2896 Z" style="fill:#9f7fff;fill-rule:evenodd;"/>
        <!-- Line -->
        <line x1="36.755" y1="26.2646" x2="36.755" y2="26.9646" style="stroke:#9f7fff;stroke-width:0.0125;"/>
        <!-- Line -->
        <line x1="36.73" y1="26.2896" x2="36.73" y2="26.9396" style="stroke:#9f7fff;stroke-width:0.0125;"/>
        <!-- Line -->
        <line x1="37.3397" y1="100.9396" x2="37.3397" y2="100.2896" style="stroke:#9f7fff;stroke-width:0.0125;"/>
        <!-- Line -->
        <line x1="37.3147" y1="100.9646" x2="37.3147" y2="100.2646" style="stroke:#9f7fff;stroke-width:0.0125;"/>
        <!-- Hatch -->
        <path d="M37.3147,100.2896 L37.3397,100.2896 L37.3397,100.9396 L37.3147,100.9396 Z" style="fill:#9f7fff;fill-rule:evenodd;"/>
        <!-- Hatch -->
        <path d="M37.4099,100.9396 L37.4099,100.9646 L37.3147,100.9646 L37.3147,100.9396 ZM37.4099,100.2646 L37.4099,100.2896 L37.3147,100.2896 L37.3147,100.2646 Z" style="fill:#9f7fff;fill-rule:evenodd;"/>
        <!-- Line -->
        <line x1="37.4099" y1="100.2896" x2="37.3147" y2="100.2896" style="stroke:#9f7fff;stroke-width:0.0125;"/>
        <!-- Line -->
        <line x1="37.4099" y1="100.2646" x2="37.3147" y2="100.2646" style="stroke:#9f7fff;stroke-width:0.0125;"/>
        <!-- Line -->
        <line x1="37.4099" y1="100.9646" x2="37.3147" y2="100.9646" style="stroke:#9f7fff;stroke-width:0.0125;"/>
        <!-- Line -->
        <line x1="37.4099" y1="100.9396" x2="37.3147" y2="100.9396" style="stroke:#9f7fff;stroke-width:0.0125;"/>
        <!-- Line -->
        <line x1="33.8839" y1="19.0254" x2="33.8839" y2="19.0254" style="stroke:#000000;stroke-width:0.0125;"/>
        <!-- Text: ZONA 8 -->
        <text x="40.6638" dx="0" y="-110.203" dy="5" font-family="Arial" font-size="7" line-height="1.1" fill="#000000" transform="scale(1,-1) rotate(360 40.6638,-110.203)" text-anchor="start">ZONA 8</text>
        <!-- Line -->
        <line x1="46.8535" y1="95.5292" x2="46.8535" y2="94.9141" style="stroke:#ff00ff;stroke-width:0.0125;"/>
        <!-- Circle -->
        <circle cx="44.1199" cy="95.1896" r="3.756" style="stroke:#ff00ff;stroke-width:0.0125;"/>
        <!-- Hatch -->
        <path d="M44.1199,95.4971 L44.1199,94.882 L47.8633,94.882 A3.75599,3.75599 0 0 1 47.8759,95.1896 A3.75599,3.75599 0 0 1 47.8633,95.4971 Z" style="fill:#ff00ff;fill-rule:evenodd;"/>
        <!-- Line -->
        <line x1="44.1199" y1="94.882" x2="47.8633" y2="94.882" style="stroke:#ff00ff;stroke-width:0.0125;"/>
        <!-- Line -->
        <line x1="44.1199" y1="95.4971" x2="47.8633" y2="95.4971" style="stroke:#ff00ff;stroke-width:0.0125;"/>
        <!-- Line -->
        <line x1="44.1199" y1="95.4971" x2="44.1199" y2="94.882" style="stroke:#ff00ff;stroke-width:0.0125;"/>
        <!-- Text: N -->
        <text x="49.3641" dx="0" y="-96.4822" dy="2.6605" font-family="Arial" font-size="3.7247" line-height="1.1" fill="#ff00ff" transform="scale(1,-1) rotate(360 49.3641,-96.4822)" text-anchor="start">N</text>
        <!-- Text: Octogono SUR -->
        <text x="24.6329" dx="0" y="-10.9899" dy="3" font-family="Arial" font-size="4.2" line-height="1.1" fill="#000000" transform="scale(1,-1) rotate(360 24.6329,-10.9899)" text-anchor="start">Octogono SUR</text>
        <!-- Line -->
        <line x1="28.4342" y1="19.0254" x2="28.4342" y2="19.0254" style="stroke:#004c26;stroke-width:0.0125;"/>
        <!-- Hatch -->
        <path d="M46.4731,19.9912 L44.8058,20.8231 L44.8087,19.1593 ZM44.808,19.5752 L44.8065,20.4072 L42.8901,20.4072 L42.8901,19.5752 Z" style="fill:#009900;fill-rule:evenodd;"/>
        <!-- Line -->
        <line x1="44.8058" y1="20.8231" x2="44.8087" y2="19.1593" style="stroke:#009900;stroke-width:0.0125;"/>
        <!-- Line -->
        <line x1="46.4731" y1="19.9912" x2="44.8087" y2="19.1593" style="stroke:#000000;stroke-width:0.0125;"/>
        <!-- Line -->
        <line x1="46.4731" y1="19.9912" x2="44.8058" y2="20.8231" style="stroke:#000000;stroke-width:0.0125;"/>
        <!-- Line -->
        <line x1="44.808" y1="19.5752" x2="42.8901" y2="19.5752" style="stroke:#000000;stroke-width:0.0125;"/>
        <!-- Line -->
        <line x1="44.8065" y1="20.4072" x2="42.8901" y2="20.4072" style="stroke:#000000;stroke-width:0.0125;"/>
        <!-- Line -->
        <line x1="42.8901" y1="20.4072" x2="42.8901" y2="19.5752" style="stroke:#000000;stroke-width:0.0125;"/>
        <!-- Hatch -->
        <path d="M24.2287,19.8915 L25.8959,19.0596 L25.8931,20.7234 ZM25.8938,20.3075 L25.8952,19.4755 L27.8116,19.4755 L27.8116,20.3075 Z" style="fill:#009900;fill-rule:evenodd;"/>
        <!-- Line -->
        <line x1="25.8959" y1="19.0596" x2="25.8931" y2="20.7234" style="stroke:#009900;stroke-width:0.0125;"/>
        <!-- Line -->
        <line x1="24.2287" y1="19.8915" x2="25.8931" y2="20.7234" style="stroke:#000000;stroke-width:0.0125;"/>
        <!-- Line -->
        <line x1="24.2287" y1="19.8915" x2="25.8959" y2="19.0596" style="stroke:#000000;stroke-width:0.0125;"/>
        <!-- Line -->
        <line x1="25.8938" y1="20.3075" x2="27.8116" y2="20.3075" style="stroke:#000000;stroke-width:0.0125;"/>
        <!-- Line -->
        <line x1="25.8952" y1="19.4755" x2="27.8116" y2="19.4755" style="stroke:#000000;stroke-width:0.0125;"/>
        <!-- Line -->
        <line x1="27.8116" y1="19.4755" x2="27.8116" y2="20.3075" style="stroke:#000000;stroke-width:0.0125;"/>
        <!-- Line -->
        <line x1="27.9283" y1="20.8439" x2="27.9283" y2="20.8335" style="stroke:#004c26;stroke-width:0.0125;"/>
        <!-- Line -->
        <line x1="27.9283" y1="20.8335" x2="27.9283" y2="21.0254" style="stroke:#004c26;stroke-width:0.0125;"/>
        <!-- Line -->
        <line x1="27.9283" y1="18.8254" x2="27.9282" y2="19.022" style="stroke:#004c26;stroke-width:0.0125;"/>
        <!-- Line -->
        <line x1="35.9349" y1="11.1996" x2="36.1349" y2="11.1996" style="stroke:#004c26;stroke-width:0.0125;"/>
        <!-- Line -->
        <line x1="37.9349" y1="11.1996" x2="38.1349" y2="11.1996" style="stroke:#004c26;stroke-width:0.0125;"/>
        <!-- Line -->
        <line x1="36.1349" y1="11.1996" x2="37.9349" y2="11.1996" style="stroke:#ededed;stroke-width:0.0125;"/>
        <!-- Line -->
        <line x1="27.9283" y1="20.8335" x2="27.9294" y2="19.022" style="stroke:#ededed;stroke-width:0.0125;"/>
        <!-- Line -->
        <line x1="42.6247" y1="18.8254" x2="42.6247" y2="19.0254" style="stroke:#004c26;stroke-width:0.0125;"/>
        <!-- Line -->
        <line x1="42.6247" y1="21.0054" x2="42.6247" y2="20.8054" style="stroke:#004c26;stroke-width:0.0125;"/>
        <!-- Line -->
        <line x1="35.9249" y1="23.2449" x2="36.1249" y2="23.1646" style="stroke:#004c26;stroke-width:0.0125;"/>
        <!-- Line -->
        <line x1="37.9449" y1="23.1505" x2="38.1449" y2="23.2349" style="stroke:#004c26;stroke-width:0.0125;"/>
        <!-- Line -->
        <line x1="35.9249" y1="29.6258" x2="36.1249" y2="29.6258" style="stroke:#004c26;stroke-width:0.0125;"/>
        <!-- Line -->
        <line x1="42.6247" y1="20.8054" x2="42.6247" y2="19.0254" style="stroke:#d7ebd2;stroke-width:0.0125;"/>
        <!-- Hatch -->
        <path d="M32.9047,107.0663 L32.8047,107.0663 L32.8047,107.0413 L32.9047,107.0413 Z" style="fill:#ff0000;fill-rule:evenodd;"/>
        <!-- Hatch -->
        <path d="M32.9047,107.9163 L32.8047,107.9163 L32.8047,107.0663 L32.9047,107.0663 Z" style="fill:#dcfcd4;fill-rule:evenodd;"/>
        <!-- Line -->
        <line x1="32.8047" y1="107.0413" x2="32.8047" y2="107.9163" style="stroke:#808080;stroke-width:0.0125;"/>
        <!-- Hatch -->
        <path d="M32.9047,107.9413 L32.8047,107.9413 L32.8047,107.9163 L32.9047,107.9163 Z" style="fill:#ff0000;fill-rule:evenodd;"/>
        <!-- Line -->
        <line x1="32.8047" y1="107.9413" x2="32.9047" y2="107.9413" style="stroke:#808080;stroke-width:0.0125;"/>
        <!-- Line -->
        <line x1="32.9047" y1="107.9163" x2="32.8047" y2="107.9163" style="stroke:#808080;stroke-width:0.0125;"/>
        <!-- Line -->
        <line x1="32.8047" y1="107.9413" x2="32.8047" y2="107.9163" style="stroke:#808080;stroke-width:0.0125;"/>
        <!-- Line -->
        <line x1="31.9047" y1="107.8663" x2="32.8047" y2="107.0663" style="stroke:#808080;stroke-width:0.0125;"/>
        <!-- Line -->
        <line x1="32.8047" y1="107.8663" x2="31.9047" y2="107.8663" style="stroke:#808080;stroke-width:0.0125;"/>
        <!-- Line -->
        <line x1="32.8047" y1="107.9163" x2="31.9047" y2="107.9163" style="stroke:#808080;stroke-width:0.0125;"/>
        <!-- Line -->
        <line x1="32.8047" y1="107.0413" x2="32.9047" y2="107.0413" style="stroke:#808080;stroke-width:0.0125;"/>
        <!-- Line -->
        <line x1="32.8047" y1="107.0663" x2="32.9047" y2="107.0663" style="stroke:#808080;stroke-width:0.0125;"/>
        <!-- Line -->
        <line x1="32.9047" y1="107.0413" x2="32.9047" y2="107.9413" style="stroke:#808080;stroke-width:0.0125;"/>
        <!-- Solid -->
        <path d="M31.9047,107.8663 L31.9047,107.9163 L32.8047,107.9163 L32.8047,107.8663 Z" style="stroke:#808080;stroke-width:0.0125;fill:#808080;fill-rule:evenodd;"/>
        <!-- Line -->
        <line x1="32.0297" y1="107.7961" x2="32.6797" y2="107.7961" style="stroke:#9f7fff;stroke-width:0.0125;"/>
        <!-- Line -->
        <line x1="32.0047" y1="107.7711" x2="32.7047" y2="107.7711" style="stroke:#9f7fff;stroke-width:0.0125;"/>
        <!-- Hatch -->
        <path d="M32.6797,107.7711 L32.6797,107.7961 L32.0297,107.7961 L32.0297,107.7711 Z" style="fill:#9f7fff;fill-rule:evenodd;"/>
        <!-- Hatch -->
        <path d="M32.0297,107.8663 L32.0047,107.8663 L32.0047,107.7711 L32.0297,107.7711 ZM32.7047,107.8663 L32.6797,107.8663 L32.6797,107.7711 L32.7047,107.7711 Z" style="fill:#9f7fff;fill-rule:evenodd;"/>
        <!-- Line -->
        <line x1="32.6797" y1="107.8663" x2="32.6797" y2="107.7711" style="stroke:#9f7fff;stroke-width:0.0125;"/>
        <!-- Line -->
        <line x1="32.7047" y1="107.8663" x2="32.7047" y2="107.7711" style="stroke:#9f7fff;stroke-width:0.0125;"/>
        <!-- Line -->
        <line x1="32.0047" y1="107.8663" x2="32.0047" y2="107.7711" style="stroke:#9f7fff;stroke-width:0.0125;"/>
        <!-- Line -->
        <line x1="32.0297" y1="107.8663" x2="32.0297" y2="107.7711" style="stroke:#9f7fff;stroke-width:0.0125;"/>
        <!-- Line -->
        <line x1="34.0948" y1="107.5594" x2="34.0948" y2="106.7918" style="stroke:#004c26;stroke-width:0.0125;"/>
        <!-- Line -->
        <line x1="34.0948" y1="106.7918" x2="34.2648" y2="106.7918" style="stroke:#004c26;stroke-width:0.0125;"/>
        <!-- Line -->
        <line x1="34.1593" y1="106.7918" x2="34.1593" y2="107.5594" style="stroke:#004c26;stroke-width:0.0125;"/>
        <!-- Line -->
        <line x1="34.2648" y1="107.5594" x2="34.0948" y2="107.5594" style="stroke:#004c26;stroke-width:0.0125;"/>
        <!-- Line -->
        <line x1="34.0947" y1="107.4872" x2="33.9949" y2="107.4872" style="stroke:#004c26;stroke-width:0.0125;"/>
        <!-- Line -->
        <line x1="33.9949" y1="107.4872" x2="33.9949" y2="107.4808" style="stroke:#004c26;stroke-width:0.0125;"/>
        <!-- Line -->
        <line x1="33.9949" y1="107.4808" x2="34.0949" y2="107.4808" style="stroke:#004c26;stroke-width:0.0125;"/>
        <!-- Line -->
        <line x1="34.0941" y1="106.8731" x2="33.9943" y2="106.8731" style="stroke:#004c26;stroke-width:0.0125;"/>
        <!-- Line -->
        <line x1="33.9943" y1="106.8667" x2="34.0943" y2="106.8667" style="stroke:#004c26;stroke-width:0.0125;"/>
        <!-- Arc -->
        <path d="M34.2648,106.7918 A0.3843,0.3843 0 1,1 34.2648,107.5594" style="stroke:#004c26;stroke-width:0.0125;"/>
        <!-- Line -->
        <line x1="33.7944" y1="107.946" x2="32.9047" y2="107.946" style="stroke:#004c26;stroke-width:0.0125;"/>
        <!-- Line -->
        <line x1="32.9047" y1="107.946" x2="32.9047" y2="107.9163" style="stroke:#004c26;stroke-width:0.0125;"/>
        <!-- Line -->
        <line x1="32.9047" y1="107.9163" x2="33.7944" y2="107.9163" style="stroke:#004c26;stroke-width:0.0125;"/>
        <!-- Line -->
        <line x1="32.9047" y1="107.0413" x2="32.9047" y2="106.7248" style="stroke:#004c26;stroke-width:0.0125;"/>
        <!-- Line -->
        <line x1="32.9047" y1="106.7248" x2="33.7944" y2="106.7248" style="stroke:#004c26;stroke-width:0.0125;"/>
        <!-- Line -->
        <line x1="33.7937" y1="106.6778" x2="32.8224" y2="106.6778" style="stroke:#004c26;stroke-width:0.0125;"/>
        <!-- Line -->
        <line x1="32.8224" y1="106.6778" x2="32.8224" y2="107.0412" style="stroke:#004c26;stroke-width:0.0125;"/>
    </g>
</svg>
