<?xml version="1.0" encoding="UTF-8"?>
<!-- 2020-09-05 23:27:30 Generated by QCAD 3.24.3 SVG Exporter PG -->
<svg width="1206.486mm" height="1715.6418mm" viewBox="-0.125 -85.6571 60.3243 85.7821" version="1.1" xmlns="http://www.w3.org/2000/svg" style="stroke-linecap:round;stroke-linejoin:round;fill:none">
    <g transform="scale(1,-1)">
        <!-- Hatch -->
        <path d="M29.3722,78.8382 L29.181,78.8382 L29.181,74.064 L27.0547,71.8445 L21.2879,71.8445 L21.2879,71.6445 L27.14,71.6445 L29.3722,73.9744 ZM31.4096,78.8382 L31.1784,78.8363 L31.2184,73.9527 L33.6104,71.6245 L37.8557,71.6245 L37.8557,71.8245 L33.6917,71.8245 L31.4106,74.0439 Z" style="fill:#004c26;fill-rule:evenodd;"/>
        <!-- Hatch -->
        <path d="M22.636,71.1695 L22.636,71.1945 L22.636,71.6445 L21.2879,71.6445 L21.2949,69.822 L22.636,69.8272 L22.636,70.3195 L21.736,70.3195 L21.736,70.3695 L21.836,70.4584 L21.836,70.4647 L21.8431,70.4647 Z" style="fill:#d7ebd2;fill-rule:evenodd;"/>
        <!-- Hatch -->
        <path d="M31.1791,78.7585 L29.3722,78.7637 L29.3722,76.9836 L29.866,76.9836 L29.866,77.8836 L29.916,77.8836 L30.0049,77.7836 L30.0112,77.7836 L30.0112,77.7766 L30.716,76.9836 L30.741,76.9836 L31.1936,76.9836 Z" style="fill:#d7ebd2;fill-rule:evenodd;"/>
        <!-- Hatch -->
        <path d="M37.8557,71.6245 L36.3044,71.6245 L36.3044,71.2012 L36.3044,71.1762 L36.3044,70.3262 L36.3044,70.3012 L36.3044,69.8445 L37.8557,69.8445 Z" style="fill:#d7ebd2;fill-rule:evenodd;"/>
        <!-- Line -->
        <line x1="37.8557" y1="71.6245" x2="33.6104" y2="71.6245" style="stroke:#004c26;stroke-width:0.0125;"/>
        <!-- Line -->
        <line x1="31.2184" y1="73.9527" x2="33.6104" y2="71.6245" style="stroke:#004c26;stroke-width:0.0125;"/>
        <!-- Hatch -->
        <path d="M27.14,69.8445 L21.2879,69.822 L21.2879,69.6445 L27.0599,69.6445 ZM33.6864,69.6445 L37.8557,69.6445 L37.8557,69.8445 L33.6104,69.8445 L31.191,67.6945 L31.191,67.6934 L31.3899,67.6037 Z" style="fill:#004c26;fill-rule:evenodd;"/>
        <!-- Hatch -->
        <path d="M22.736,71.6445 L22.636,71.6445 L22.636,71.1945 L22.736,71.1945 ZM22.736,70.2945 L22.636,70.2945 L22.636,69.8272 L22.7378,69.8276 Z" style="fill:#ff0000;fill-rule:evenodd;"/>
        <!-- Line -->
        <line x1="27.14" y1="69.8445" x2="21.2879" y2="69.822" style="stroke:#004c26;stroke-width:0.0125;"/>
        <!-- Line -->
        <line x1="29.381" y1="73.9836" x2="27.14" y2="71.6445" style="stroke:#004c26;stroke-width:0.0125;"/>
        <!-- Line -->
        <line x1="27.14" y1="71.6445" x2="21.2879" y2="71.6445" style="stroke:#004c26;stroke-width:0.0125;"/>
        <!-- Hatch -->
        <path d="M31.391,67.6032 L31.191,67.6934 L31.191,64.1393 L31.1963,64.1393 L31.1963,63.5439 L31.191,0.7623 L29.391,0.7623 L29.391,67.6934 L29.191,67.6085 L29.191,0.5623 L31.391,0.5623 Z" style="fill:#000000;fill-rule:evenodd;"/>
        <!-- Line -->
        <line x1="31.191" y1="0.7623" x2="29.391" y2="0.7623" style="stroke:#004c26;stroke-width:0.0125;"/>
        <!-- Line -->
        <line x1="37.8557" y1="69.8445" x2="33.6104" y2="69.8445" style="stroke:#004c26;stroke-width:0.0125;"/>
        <!-- Line -->
        <line x1="31.191" y1="67.6934" x2="31.191" y2="0.7623" style="stroke:#004c26;stroke-width:0.0125;"/>
        <!-- Line -->
        <line x1="29.391" y1="67.6934" x2="29.391" y2="0.7623" style="stroke:#004c26;stroke-width:0.0125;"/>
        <!-- Line -->
        <line x1="31.191" y1="67.6945" x2="33.6104" y2="69.8445" style="stroke:#004c26;stroke-width:0.0125;"/>
        <!-- Line -->
        <line x1="53.2776" y1="78.6945" x2="6" y2="78.8314" style="stroke:#c0c0c0;stroke-width:0.0125;stroke-dasharray:0.2381,0.0397,0.0397,0.0397;stroke-dashoffset:0.0546"/>
        <!-- Line -->
        <line x1="37.8557" y1="71.8245" x2="33.6917" y2="71.8245" style="stroke:#004c26;stroke-width:0.0125;"/>
        <!-- Line -->
        <line x1="37.8557" y1="69.6445" x2="33.6864" y2="69.6445" style="stroke:#004c26;stroke-width:0.0125;"/>
        <!-- Line -->
        <line x1="31.4106" y1="74.0439" x2="33.6917" y2="71.8245" style="stroke:#004c26;stroke-width:0.0125;"/>
        <!-- Line -->
        <line x1="29.181" y1="74.064" x2="27.0547" y2="71.8445" style="stroke:#004c26;stroke-width:0.0125;"/>
        <!-- Hatch -->
        <path d="M27.14,69.8445 L27.0599,69.6445 L29.1914,67.6087 L29.391,67.6934 Z" style="fill:#004c26;fill-rule:evenodd;"/>
        <!-- Line -->
        <line x1="27.0599" y1="69.6445" x2="29.191" y2="67.609" style="stroke:#004c26;stroke-width:0.0125;"/>
        <!-- Line -->
        <line x1="31.391" y1="67.6047" x2="33.6864" y2="69.6445" style="stroke:#004c26;stroke-width:0.0125;"/>
        <!-- Line -->
        <line x1="31.391" y1="67.6032" x2="31.391" y2="0.5623" style="stroke:#004c26;stroke-width:0.0125;"/>
        <!-- Line -->
        <line x1="29.191" y1="67.6085" x2="29.191" y2="0.5623" style="stroke:#004c26;stroke-width:0.0125;"/>
        <!-- Line -->
        <line x1="27.0599" y1="69.6445" x2="21.2879" y2="69.6445" style="stroke:#004c26;stroke-width:0.0125;"/>
        <!-- Line -->
        <line x1="27.0547" y1="71.8445" x2="21.2879" y2="71.8445" style="stroke:#004c26;stroke-width:0.0125;"/>
        <!-- Line -->
        <line x1="31.391" y1="0.5623" x2="29.191" y2="0.5623" style="stroke:#004c26;stroke-width:0.0125;"/>
        <!-- Line -->
        <line x1="53.5685" y1="52.7345" x2="5.866" y2="52.7345" style="stroke:#c0c0c0;stroke-width:0.0125;stroke-dasharray:0.2381,0.0397,0.0397,0.0397;stroke-dashoffset:0.0208"/>
        <!-- Text: X=-400.00 -->
        <text x="16.0125" dx="0" y="-53.9192" dy="1" font-family="Arial" font-size="1.4" line-height="1.1" fill="#c0c0c0" transform="scale(1,-1) rotate(360 16.0125,-53.9192)" text-anchor="end">X=-400.00</text>
        <!-- Circle -->
        <circle cx="5" cy="78.8314" r="1" style="stroke:#c0c0c0;stroke-width:0.0125;stroke-dasharray:0.2381,0.0397,0.0397,0.0397;stroke-dashoffset:0.0136"/>
        <!-- Text: I -->
        <text x="5.1767" dx="0" y="-79.2904" dy="1" font-family="Arial" font-size="1.4" line-height="1.1" fill="#c0c0c0" transform="scale(1,-1) rotate(360 5.1767,-79.2904)" text-anchor="end">I</text>
        <!-- Text: SUB 10 Bis (X=-425.96) -->
        <text x="52.2641" dx="0" y="-79.035" dy="1" font-family="Arial" font-size="1.4" line-height="1.1" fill="#c0c0c0" transform="scale(1,-1) rotate(360 52.2641,-79.035)" text-anchor="end">SUB 10 Bis (X=-425.96)</text>
        <!-- Circle -->
        <circle cx="54.2776" cy="78.6945" r="1" style="stroke:#c0c0c0;stroke-width:0.0125;stroke-dasharray:0.2381,0.0397,0.0397,0.0397;stroke-dashoffset:0.0136"/>
        <!-- Text: I -->
        <text x="54.4543" dx="0" y="-79.1536" dy="1" font-family="Arial" font-size="1.4" line-height="1.1" fill="#c0c0c0" transform="scale(1,-1) rotate(360 54.4543,-79.1536)" text-anchor="end">I</text>
        <!-- Line -->
        <line x1="53.2776" y1="57.2345" x2="6" y2="57.2345" style="stroke:#c0c0c0;stroke-width:0.0125;stroke-dasharray:0.2381,0.0397,0.0397,0.0397;stroke-dashoffset:0.0547"/>
        <!-- Text: X=-404.50 -->
        <text x="16.4626" dx="0" y="-59.0718" dy="1" font-family="Arial" font-size="1.4" line-height="1.1" fill="#c0c0c0" transform="scale(1,-1) rotate(360 16.4626,-59.0718)" text-anchor="end">X=-404.50</text>
        <!-- Text: E -->
        <text x="4.6844" dx="0" y="-58.2542" dy="2" font-family="Arial" font-size="2.8" line-height="1.1" fill="#c0c0c0" transform="scale(1,-1) rotate(360 4.6844,-58.2542)" text-anchor="end">E</text>
        <!-- Circle -->
        <circle cx="4" cy="57.2345" r="2" style="stroke:#c0c0c0;stroke-width:0.0125;stroke-dasharray:0.2381,0.0397,0.0397,0.0397;stroke-dashoffset:0.0867"/>
        <!-- Line -->
        <line x1="53.2776" y1="34.4345" x2="6" y2="34.4345" style="stroke:#c0c0c0;stroke-width:0.0125;stroke-dasharray:0.2381,0.0397,0.0397,0.0397;stroke-dashoffset:0.0547"/>
        <!-- Text: X=-381.70 -->
        <text x="16.4626" dx="0" y="-36.2731" dy="1" font-family="Arial" font-size="1.4" line-height="1.1" fill="#c0c0c0" transform="scale(1,-1) rotate(360 16.4626,-36.2731)" text-anchor="end">X=-381.70</text>
        <!-- Line -->
        <line x1="53.2776" y1="16.9345" x2="6" y2="16.9345" style="stroke:#c0c0c0;stroke-width:0.0125;stroke-dasharray:0.2381,0.0397,0.0397,0.0397;stroke-dashoffset:0.0547"/>
        <!-- Text: X=-364.20 -->
        <text x="16.4626" dx="0" y="-18.7731" dy="1" font-family="Arial" font-size="1.4" line-height="1.1" fill="#c0c0c0" transform="scale(1,-1) rotate(360 16.4626,-18.7731)" text-anchor="end">X=-364.20</text>
        <!-- Line -->
        <line x1="53.2776" y1="80.0345" x2="6.7967" y2="80.0345" style="stroke:#c0c0c0;stroke-width:0.0125;stroke-dasharray:0.2381,0.0397,0.0397,0.0397;stroke-dashoffset:0.0958"/>
        <!-- Circle -->
        <circle cx="4" cy="34.4345" r="2" style="stroke:#c0c0c0;stroke-width:0.0125;stroke-dasharray:0.2381,0.0397,0.0397,0.0397;stroke-dashoffset:0.0867"/>
        <!-- Text: F -->
        <text x="4.8978" dx="0" y="-35.3476" dy="2" font-family="Arial" font-size="2.8" line-height="1.1" fill="#c0c0c0" transform="scale(1,-1) rotate(360 4.8978,-35.3476)" text-anchor="end">F</text>
        <!-- Text: G -->
        <text x="4.6617" dx="0" y="-17.9499" dy="2" font-family="Arial" font-size="2.8" line-height="1.1" fill="#c0c0c0" transform="scale(1,-1) rotate(360 4.6617,-17.9499)" text-anchor="end">G</text>
        <!-- Circle -->
        <circle cx="4" cy="16.9345" r="2" style="stroke:#c0c0c0;stroke-width:0.0125;stroke-dasharray:0.2381,0.0397,0.0397,0.0397;stroke-dashoffset:0.0867"/>
        <!-- Circle -->
        <circle cx="2" cy="83.0104" r="2" style="stroke:#c0c0c0;stroke-width:0.0125;stroke-dasharray:0.2381,0.0397,0.0397,0.0397;stroke-dashoffset:0.0867"/>
        <!-- Text: D -->
        <text x="2.6844" dx="0" y="-84.0301" dy="2" font-family="Arial" font-size="2.8" line-height="1.1" fill="#c0c0c0" transform="scale(1,-1) rotate(360 2.6844,-84.0301)" text-anchor="end">D</text>
        <!-- Circle -->
        <circle cx="55.2776" cy="57.2345" r="2" style="stroke:#c0c0c0;stroke-width:0.0125;stroke-dasharray:0.2381,0.0397,0.0397,0.0397;stroke-dashoffset:0.0867"/>
        <!-- Text: E -->
        <text x="55.962" dx="0" y="-58.2542" dy="2" font-family="Arial" font-size="2.8" line-height="1.1" fill="#c0c0c0" transform="scale(1,-1) rotate(360 55.962,-58.2542)" text-anchor="end">E</text>
        <!-- Text: F -->
        <text x="56.1754" dx="0" y="-35.3476" dy="2" font-family="Arial" font-size="2.8" line-height="1.1" fill="#c0c0c0" transform="scale(1,-1) rotate(360 56.1754,-35.3476)" text-anchor="end">F</text>
        <!-- Circle -->
        <circle cx="55.2776" cy="34.4345" r="2" style="stroke:#c0c0c0;stroke-width:0.0125;stroke-dasharray:0.2381,0.0397,0.0397,0.0397;stroke-dashoffset:0.0867"/>
        <!-- Text: G -->
        <text x="55.9393" dx="0" y="-17.9499" dy="2" font-family="Arial" font-size="2.8" line-height="1.1" fill="#c0c0c0" transform="scale(1,-1) rotate(360 55.9393,-17.9499)" text-anchor="end">G</text>
        <!-- Circle -->
        <circle cx="55.2776" cy="16.9345" r="2" style="stroke:#c0c0c0;stroke-width:0.0125;stroke-dasharray:0.2381,0.0397,0.0397,0.0397;stroke-dashoffset:0.0867"/>
        <!-- Line -->
        <line x1="14.7954" y1="80.2799" x2="14.7954" y2="4" style="stroke:#c0c0c0;stroke-width:0.0125;stroke-dasharray:0.2381,0.0397,0.0397,0.0397;stroke-dashoffset:0.0196"/>
        <!-- Text: 11 -->
        <text x="15.7704" dx="0" y="-83.3684" dy="2" font-family="Arial" font-size="2.8" line-height="1.1" fill="#c0c0c0" transform="scale(1,-1) rotate(360 15.7704,-83.3684)" text-anchor="end">11</text>
        <!-- Circle -->
        <circle cx="14.8359" cy="82.2795" r="2" style="stroke:#c0c0c0;stroke-width:0.0125;stroke-dasharray:0.2381,0.0397,0.0397,0.0397;stroke-dashoffset:0.0867"/>
        <!-- Line -->
        <line x1="6.7967" y1="80.0345" x2="6.7967" y2="83.0104" style="stroke:#808080;stroke-width:0.0125;stroke-dasharray:0.2381,0.0397,0.0397,0.0397;stroke-dashoffset:0.0599"/>
        <!-- Line -->
        <line x1="6.7967" y1="83.0104" x2="4" y2="83.0104" style="stroke:#808080;stroke-width:0.0125;stroke-dasharray:0.2381,0.0397,0.0397,0.0397;stroke-dashoffset:0.1494"/>
        <!-- Circle -->
        <circle cx="58.0743" cy="83.0104" r="2" style="stroke:#c0c0c0;stroke-width:0.0125;stroke-dasharray:0.2381,0.0397,0.0397,0.0397;stroke-dashoffset:0.0867"/>
        <!-- Text: D -->
        <text x="58.7587" dx="0" y="-84.0301" dy="2" font-family="Arial" font-size="2.8" line-height="1.1" fill="#c0c0c0" transform="scale(1,-1) rotate(360 58.7587,-84.0301)" text-anchor="end">D</text>
        <!-- Text: X=-427.30 -->
        <text x="51.9868" dx="0" y="-81.5333" dy="1" font-family="Arial" font-size="1.4" line-height="1.1" fill="#c0c0c0" transform="scale(1,-1) rotate(360 51.9868,-81.5333)" text-anchor="end">X=-427.30</text>
        <!-- Line -->
        <line x1="53.2776" y1="80.0345" x2="53.2776" y2="83.0104" style="stroke:#808080;stroke-width:0.0125;stroke-dasharray:0.2381,0.0397,0.0397,0.0397;stroke-dashoffset:0.0599"/>
        <!-- Line -->
        <line x1="53.2776" y1="83.0104" x2="56.0743" y2="83.0104" style="stroke:#808080;stroke-width:0.0125;stroke-dasharray:0.2381,0.0397,0.0397,0.0397;stroke-dashoffset:0.1494"/>
        <!-- Text: Y=360.39 -->
        <text x="13.1361" dx="0" y="-74.8878" dy="1" font-family="Arial" font-size="1.4" line-height="1.1" fill="#c0c0c0" transform="scale(1,-1) rotate(270 13.1361,-74.8878)" text-anchor="end">Y=360.39</text>
        <!-- Circle -->
        <circle cx="14.7954" cy="2" r="2" style="stroke:#c0c0c0;stroke-width:0.0125;stroke-dasharray:0.2381,0.0397,0.0397,0.0397;stroke-dashoffset:0.0867"/>
        <!-- Text: 11 -->
        <text x="15.7299" dx="0" y="-3.089" dy="2" font-family="Arial" font-size="2.8" line-height="1.1" fill="#c0c0c0" transform="scale(1,-1) rotate(360 15.7299,-3.089)" text-anchor="end">11</text>
        <!-- Line -->
        <line x1="29.181" y1="74.064" x2="29.181" y2="78.8382" style="stroke:#004c26;stroke-width:0.0125;"/>
        <!-- Line -->
        <line x1="29.841" y1="76.9836" x2="29.381" y2="76.9836" style="stroke:#ff0000;stroke-width:0.0125;"/>
        <!-- Line -->
        <line x1="29.841" y1="76.8836" x2="29.381" y2="76.8836" style="stroke:#ff0000;stroke-width:0.0125;"/>
        <!-- Line -->
        <line x1="30.741" y1="76.9836" x2="31.201" y2="76.9836" style="stroke:#ff0000;stroke-width:0.0125;"/>
        <!-- Line -->
        <line x1="30.741" y1="76.8836" x2="31.201" y2="76.8836" style="stroke:#ff0000;stroke-width:0.0125;"/>
        <!-- Hatch -->
        <path d="M29.866,76.9836 L29.841,76.9836 L29.841,76.8836 L29.866,76.8836 ZM30.741,76.9836 L30.716,76.9836 L30.716,76.8836 L30.741,76.8836 Z" style="fill:#000000;fill-rule:evenodd;"/>
        <!-- Line -->
        <line x1="29.841" y1="76.9836" x2="29.866" y2="76.9836" style="stroke:#808080;stroke-width:0.0125;"/>
        <!-- Line -->
        <line x1="30.716" y1="76.9836" x2="30.741" y2="76.9836" style="stroke:#808080;stroke-width:0.0125;"/>
        <!-- Hatch -->
        <path d="M30.716,76.9836 L29.866,76.9836 L29.866,76.8836 L30.716,76.8836 ZM30.2723,77.4829 L30.0112,77.4829 L30.0112,77.0836 L29.916,77.0836 L29.916,76.9836 L30.716,76.9836 ZM29.9862,77.4829 L29.916,77.4829 L29.916,77.1086 L29.9862,77.1086 ZM29.9862,77.5907 L29.916,77.6155 L29.916,77.4829 L29.9862,77.4829 ZM29.9862,77.7183 L29.916,77.7183 L29.916,77.6155 L29.9862,77.5907 ZM29.9862,77.7586 L29.916,77.7586 L29.916,77.7183 L29.9862,77.7183 ZM29.916,77.8836 L29.916,77.7836 L30.0049,77.7836 ZM30.0112,77.5818 L30.0112,77.4829 L30.2723,77.4829 L30.2637,77.4925 ZM30.063,77.7183 L30.0112,77.7183 L30.0112,77.5818 L30.2637,77.4925 ZM30.0112,77.7766 L30.0112,77.7183 L30.063,77.7183 ZM29.999,76.9701 L30.8621,76.9701 L30.8621,77.4852 L29.999,77.4852 Z" style="fill:#d7ebd2;fill-rule:evenodd;"/>
        <!-- Line -->
        <line x1="30.716" y1="76.9836" x2="30.716" y2="76.8836" style="stroke:#808080;stroke-width:0.0125;"/>
        <!-- Line -->
        <line x1="29.866" y1="76.8836" x2="29.866" y2="76.9836" style="stroke:#808080;stroke-width:0.0125;"/>
        <!-- Line -->
        <line x1="29.866" y1="76.8836" x2="29.841" y2="76.8836" style="stroke:#808080;stroke-width:0.0125;"/>
        <!-- Line -->
        <line x1="30.716" y1="76.8836" x2="30.741" y2="76.8836" style="stroke:#808080;stroke-width:0.0125;"/>
        <!-- Line -->
        <line x1="30.741" y1="76.9836" x2="30.741" y2="76.8836" style="stroke:#808080;stroke-width:0.0125;"/>
        <!-- Line -->
        <line x1="29.841" y1="76.9836" x2="29.841" y2="76.8836" style="stroke:#808080;stroke-width:0.0125;"/>
        <!-- Line -->
        <line x1="30.716" y1="76.9836" x2="29.866" y2="76.9836" style="stroke:#808080;stroke-width:0.0125;"/>
        <!-- Line -->
        <line x1="30.716" y1="76.8836" x2="29.866" y2="76.8836" style="stroke:#808080;stroke-width:0.0125;"/>
        <!-- Line -->
        <line x1="29.866" y1="76.9836" x2="29.866" y2="77.8836" style="stroke:#808080;stroke-width:0.0125;"/>
        <!-- Line -->
        <line x1="29.866" y1="77.8836" x2="29.916" y2="77.8836" style="stroke:#808080;stroke-width:0.0125;"/>
        <!-- Line -->
        <line x1="29.916" y1="76.9836" x2="29.916" y2="77.8836" style="stroke:#808080;stroke-width:0.0125;"/>
        <!-- Hatch -->
        <path d="M22.736,71.1695 L22.636,71.1695 L22.636,70.3195 L22.736,70.3195 ZM22.511,70.4397 L22.1368,70.4397 L22.1368,70.3695 L22.511,70.3695 ZM22.636,71.1695 L22.1368,70.7258 L22.1368,70.4647 L22.536,70.4647 L22.536,70.3695 L22.636,70.3695 ZM22.1368,70.4397 L22.029,70.4397 L22.0042,70.3695 L22.1368,70.3695 ZM22.029,70.4397 L21.9014,70.4397 L21.9014,70.3695 L22.0042,70.3695 ZM21.9014,70.4397 L21.861,70.4397 L21.861,70.3695 L21.9014,70.3695 ZM21.836,70.4584 L21.736,70.3695 L21.836,70.3695 ZM21.9014,70.5165 L21.8431,70.4647 L21.9014,70.4647 ZM22.1271,70.7172 L21.9014,70.5165 L21.9014,70.4647 L22.0378,70.4647 ZM22.1368,70.7258 L22.1271,70.7172 L22.0378,70.4647 L22.1368,70.4647 Z" style="fill:#d7ebd2;fill-rule:evenodd;"/>
        <!-- Line -->
        <line x1="21.736" y1="70.3695" x2="22.636" y2="71.1695" style="stroke:#808080;stroke-width:0.0125;"/>
        <!-- Line -->
        <line x1="22.636" y1="70.3195" x2="21.736" y2="70.3195" style="stroke:#808080;stroke-width:0.0125;"/>
        <!-- Line -->
        <line x1="22.636" y1="70.3695" x2="21.736" y2="70.3695" style="stroke:#808080;stroke-width:0.0125;"/>
        <!-- Line -->
        <line x1="22.736" y1="71.1695" x2="22.736" y2="70.3195" style="stroke:#808080;stroke-width:0.0125;"/>
        <!-- Line -->
        <line x1="22.636" y1="71.1695" x2="22.636" y2="70.3195" style="stroke:#808080;stroke-width:0.0125;"/>
        <!-- Hatch -->
        <path d="M22.736,71.1945 L22.636,71.1945 L22.636,71.1695 L22.736,71.1695 ZM22.736,70.3195 L22.636,70.3195 L22.636,70.2945 L22.736,70.2945 Z" style="fill:#636466;fill-rule:evenodd;"/>
        <!-- Line -->
        <line x1="22.636" y1="70.2945" x2="22.736" y2="70.2945" style="stroke:#808080;stroke-width:0.0125;"/>
        <!-- Line -->
        <line x1="22.736" y1="70.3195" x2="22.736" y2="70.2945" style="stroke:#808080;stroke-width:0.0125;"/>
        <!-- Line -->
        <line x1="22.736" y1="70.3195" x2="22.636" y2="70.3195" style="stroke:#808080;stroke-width:0.0125;"/>
        <!-- Line -->
        <line x1="22.636" y1="70.2945" x2="22.636" y2="70.3195" style="stroke:#808080;stroke-width:0.0125;"/>
        <!-- Line -->
        <line x1="22.636" y1="71.1945" x2="22.736" y2="71.1945" style="stroke:#ff0000;stroke-width:0.0125;"/>
        <!-- Line -->
        <line x1="22.736" y1="71.1695" x2="22.736" y2="71.1945" style="stroke:#808080;stroke-width:0.0125;"/>
        <!-- Line -->
        <line x1="22.636" y1="71.1695" x2="22.736" y2="71.1695" style="stroke:#808080;stroke-width:0.0125;"/>
        <!-- Line -->
        <line x1="22.636" y1="71.1695" x2="22.636" y2="71.1945" style="stroke:#808080;stroke-width:0.0125;"/>
        <!-- Line -->
        <line x1="21.736" y1="70.3695" x2="21.736" y2="70.3195" style="stroke:#808080;stroke-width:0.0125;"/>
        <!-- Line -->
        <line x1="29.916" y1="77.8836" x2="30.716" y2="76.9836" style="stroke:#808080;stroke-width:0.0125;"/>
        <!-- Solid -->
        <path d="M29.866,77.8836 L29.916,77.8836 L29.916,76.9836 L29.866,76.9836 Z" style="stroke:#808080;stroke-width:0.0125;fill:#808080;fill-rule:evenodd;"/>
        <!-- Solid -->
        <path d="M29.381,76.9836 L29.841,76.9836 L29.841,76.8836 L29.381,76.8836 Z" style="stroke:#ff0000;stroke-width:0.0125;fill:#ff0000;fill-rule:evenodd;"/>
        <!-- Solid -->
        <path d="M30.741,76.9836 L31.201,76.9836 L31.201,76.8836 L30.741,76.8836 Z" style="stroke:#ff0000;stroke-width:0.0125;fill:#ff0000;fill-rule:evenodd;"/>
        <!-- Solid -->
        <path d="M21.736,70.3695 L22.636,70.3695 L22.636,70.3195 L21.736,70.3195 Z" style="stroke:#808080;stroke-width:0.0125;fill:#808080;fill-rule:evenodd;"/>
        <!-- Line -->
        <line x1="22.636" y1="71.1945" x2="22.636" y2="71.6445" style="stroke:#ff0000;stroke-width:0.0125;"/>
        <!-- Line -->
        <line x1="22.736" y1="71.1945" x2="22.736" y2="71.6445" style="stroke:#ff0000;stroke-width:0.0125;"/>
        <!-- Line -->
        <line x1="22.736" y1="70.2945" x2="22.7378" y2="69.8276" style="stroke:#ff0000;stroke-width:0.0125;"/>
        <!-- Line -->
        <line x1="22.636" y1="70.2945" x2="22.636" y2="69.8272" style="stroke:#ff0000;stroke-width:0.0125;"/>
        <!-- Line -->
        <line x1="22.511" y1="70.3695" x2="22.511" y2="70.4647" style="stroke:#9f7fff;stroke-width:0.0125;"/>
        <!-- Line -->
        <line x1="22.536" y1="70.3695" x2="22.536" y2="70.4647" style="stroke:#9f7fff;stroke-width:0.0125;"/>
        <!-- Line -->
        <line x1="21.836" y1="70.3695" x2="21.836" y2="70.4647" style="stroke:#9f7fff;stroke-width:0.0125;"/>
        <!-- Line -->
        <line x1="21.861" y1="70.3695" x2="21.861" y2="70.4647" style="stroke:#9f7fff;stroke-width:0.0125;"/>
        <!-- Hatch -->
        <path d="M22.511,70.3695 L22.536,70.3695 L22.536,70.4647 L22.511,70.4647 ZM21.836,70.3695 L21.861,70.3695 L21.861,70.4647 L21.836,70.4647 Z" style="fill:#9f7fff;fill-rule:evenodd;"/>
        <!-- Hatch -->
        <path d="M21.861,70.4647 L21.861,70.4397 L22.511,70.4397 L22.511,70.4647 Z" style="fill:#9f7fff;fill-rule:evenodd;"/>
        <!-- Line -->
        <line x1="22.536" y1="70.4647" x2="21.836" y2="70.4647" style="stroke:#9f7fff;stroke-width:0.0125;"/>
        <!-- Line -->
        <line x1="22.511" y1="70.4397" x2="21.861" y2="70.4397" style="stroke:#9f7fff;stroke-width:0.0125;"/>
        <!-- Line -->
        <line x1="29.916" y1="77.1086" x2="30.0112" y2="77.1086" style="stroke:#9f7fff;stroke-width:0.0125;"/>
        <!-- Line -->
        <line x1="29.916" y1="77.0836" x2="30.0112" y2="77.0836" style="stroke:#9f7fff;stroke-width:0.0125;"/>
        <!-- Line -->
        <line x1="29.916" y1="77.7836" x2="30.0112" y2="77.7836" style="stroke:#9f7fff;stroke-width:0.0125;"/>
        <!-- Line -->
        <line x1="29.916" y1="77.7586" x2="30.0112" y2="77.7586" style="stroke:#9f7fff;stroke-width:0.0125;"/>
        <!-- Hatch -->
        <path d="M29.916,77.1086 L29.916,77.0836 L30.0112,77.0836 L30.0112,77.1086 ZM29.916,77.7836 L29.916,77.7586 L30.0112,77.7586 L30.0112,77.7836 Z" style="fill:#9f7fff;fill-rule:evenodd;"/>
        <!-- Hatch -->
        <path d="M30.0112,77.7586 L29.9862,77.7586 L29.9862,77.1086 L30.0112,77.1086 Z" style="fill:#9f7fff;fill-rule:evenodd;"/>
        <!-- Line -->
        <line x1="30.0112" y1="77.0836" x2="30.0112" y2="77.7836" style="stroke:#9f7fff;stroke-width:0.0125;"/>
        <!-- Line -->
        <line x1="29.9862" y1="77.1086" x2="29.9862" y2="77.7586" style="stroke:#9f7fff;stroke-width:0.0125;"/>
        <!-- Line -->
        <line x1="27.14" y1="69.8445" x2="27.14" y2="69.8445" style="stroke:#000000;stroke-width:0.0125;"/>
        <!-- Text: ZONA 9 -->
        <text x="35.0128" dx="0" y="-6.1195" dy="5" font-family="Arial" font-size="7" line-height="1.1" fill="#000000" transform="scale(1,-1) rotate(360 35.0128,-6.1195)" text-anchor="start">ZONA 9</text>
        <!-- Line -->
        <line x1="42.1819" y1="63.0179" x2="42.1819" y2="62.4028" style="stroke:#ff00ff;stroke-width:0.0125;"/>
        <!-- Circle -->
        <circle cx="39.4482" cy="62.6783" r="3.756" style="stroke:#ff00ff;stroke-width:0.0125;"/>
        <!-- Hatch -->
        <path d="M39.4482,62.9858 L39.4482,62.3707 L43.1916,62.3707 A3.75599,3.75599 0 0 1 43.2042,62.6783 A3.75599,3.75599 0 0 1 43.1916,62.9858 Z" style="fill:#ff00ff;fill-rule:evenodd;"/>
        <!-- Line -->
        <line x1="39.4482" y1="62.3707" x2="43.1916" y2="62.3707" style="stroke:#ff00ff;stroke-width:0.0125;"/>
        <!-- Line -->
        <line x1="39.4482" y1="62.9858" x2="43.1916" y2="62.9858" style="stroke:#ff00ff;stroke-width:0.0125;"/>
        <!-- Line -->
        <line x1="39.4482" y1="62.9858" x2="39.4482" y2="62.3707" style="stroke:#ff00ff;stroke-width:0.0125;"/>
        <!-- Text: N -->
        <text x="44.6924" dx="0" y="-63.9709" dy="2.6605" font-family="Arial" font-size="3.7247" line-height="1.1" fill="#ff00ff" transform="scale(1,-1) rotate(360 44.6924,-63.9709)" text-anchor="start">N</text>
        <!-- Hatch -->
        <path d="M36.3044,71.1762 L36.2044,71.1762 L36.2044,70.3262 L36.3044,70.3262 ZM36.0794,70.4464 L35.7052,70.4464 L35.7052,70.3762 L36.0794,70.3762 ZM35.7052,70.4464 L35.5974,70.4464 L35.5726,70.3762 L35.7052,70.3762 ZM35.5974,70.4464 L35.4698,70.4464 L35.4698,70.3762 L35.5726,70.3762 ZM35.4698,70.4464 L35.4294,70.4464 L35.4294,70.3762 L35.4698,70.3762 ZM35.4044,70.4651 L35.3044,70.3762 L35.4044,70.3762 ZM35.6956,70.7239 L35.4698,70.5232 L35.4698,70.4714 L35.6063,70.4714 ZM35.7052,70.7325 L35.6956,70.7239 L35.6063,70.4714 L35.7052,70.4714 ZM35.4698,70.5232 L35.4115,70.4714 L35.4698,70.4714 ZM36.2044,71.1762 L35.7052,70.7325 L35.7052,70.4714 L36.1044,70.4714 L36.1044,70.3762 L36.2044,70.3762 ZM36.224,70.4512 L36.224,71.3142 L35.7089,71.3142 L35.7089,70.4512 Z" style="fill:#d7ebd2;fill-rule:evenodd;"/>
        <!-- Line -->
        <line x1="35.3044" y1="70.3762" x2="36.2044" y2="71.1762" style="stroke:#808080;stroke-width:0.0125;"/>
        <!-- Line -->
        <line x1="36.2044" y1="70.3262" x2="35.3044" y2="70.3262" style="stroke:#808080;stroke-width:0.0125;"/>
        <!-- Line -->
        <line x1="36.2044" y1="70.3762" x2="35.3044" y2="70.3762" style="stroke:#808080;stroke-width:0.0125;"/>
        <!-- Line -->
        <line x1="36.3044" y1="71.1762" x2="36.3044" y2="70.3262" style="stroke:#808080;stroke-width:0.0125;"/>
        <!-- Line -->
        <line x1="36.2044" y1="71.1762" x2="36.2044" y2="70.3262" style="stroke:#808080;stroke-width:0.0125;"/>
        <!-- Hatch -->
        <path d="M36.3044,71.2012 L36.2044,71.2012 L36.2044,71.1762 L36.3044,71.1762 ZM36.3044,70.3262 L36.2044,70.3262 L36.2044,70.3012 L36.3044,70.3012 Z" style="fill:#636466;fill-rule:evenodd;"/>
        <!-- Line -->
        <line x1="36.2044" y1="70.3012" x2="36.3044" y2="70.3012" style="stroke:#808080;stroke-width:0.0125;"/>
        <!-- Line -->
        <line x1="36.3044" y1="70.3262" x2="36.3044" y2="70.3012" style="stroke:#808080;stroke-width:0.0125;"/>
        <!-- Line -->
        <line x1="36.3044" y1="70.3262" x2="36.2044" y2="70.3262" style="stroke:#808080;stroke-width:0.0125;"/>
        <!-- Line -->
        <line x1="36.2044" y1="70.3012" x2="36.2044" y2="70.3262" style="stroke:#808080;stroke-width:0.0125;"/>
        <!-- Line -->
        <line x1="36.2044" y1="71.2012" x2="36.3044" y2="71.2012" style="stroke:#ff0000;stroke-width:0.0125;"/>
        <!-- Line -->
        <line x1="36.3044" y1="71.1762" x2="36.3044" y2="71.2012" style="stroke:#808080;stroke-width:0.0125;"/>
        <!-- Line -->
        <line x1="36.2044" y1="71.1762" x2="36.3044" y2="71.1762" style="stroke:#808080;stroke-width:0.0125;"/>
        <!-- Line -->
        <line x1="36.2044" y1="71.1762" x2="36.2044" y2="71.2012" style="stroke:#808080;stroke-width:0.0125;"/>
        <!-- Line -->
        <line x1="35.3044" y1="70.3762" x2="35.3044" y2="70.3262" style="stroke:#808080;stroke-width:0.0125;"/>
        <!-- Solid -->
        <path d="M35.3044,70.3762 L36.2044,70.3762 L36.2044,70.3262 L35.3044,70.3262 Z" style="stroke:#808080;stroke-width:0.0125;fill:#808080;fill-rule:evenodd;"/>
        <!-- Line -->
        <line x1="36.2044" y1="71.2012" x2="36.2044" y2="71.6312" style="stroke:#ff0000;stroke-width:0.0125;"/>
        <!-- Line -->
        <line x1="36.3044" y1="71.2012" x2="36.3044" y2="71.6312" style="stroke:#ff0000;stroke-width:0.0125;"/>
        <!-- Hatch -->
        <path d="M36.2044,71.2012 L36.3044,71.2012 L36.3044,71.5466 L36.2044,71.5465 ZM36.3044,71.5466 L36.3044,71.6312 L36.2044,71.6312 L36.2044,71.5465 Z" style="fill:#ff0000;fill-rule:evenodd;"/>
        <!-- Line -->
        <line x1="36.3044" y1="70.3012" x2="36.3044" y2="69.8512" style="stroke:#ff0000;stroke-width:0.0125;"/>
        <!-- Line -->
        <line x1="36.2044" y1="70.3012" x2="36.2044" y2="69.8512" style="stroke:#ff0000;stroke-width:0.0125;"/>
        <!-- Hatch -->
        <path d="M36.3044,70.3012 L36.2044,70.3012 L36.2044,69.8512 L36.3044,69.8512 Z" style="fill:#ff0000;fill-rule:evenodd;"/>
        <!-- Line -->
        <line x1="36.0794" y1="70.3762" x2="36.0794" y2="70.4714" style="stroke:#9f7fff;stroke-width:0.0125;"/>
        <!-- Line -->
        <line x1="36.1044" y1="70.3762" x2="36.1044" y2="70.4714" style="stroke:#9f7fff;stroke-width:0.0125;"/>
        <!-- Line -->
        <line x1="35.4044" y1="70.3762" x2="35.4044" y2="70.4714" style="stroke:#9f7fff;stroke-width:0.0125;"/>
        <!-- Line -->
        <line x1="35.4294" y1="70.3762" x2="35.4294" y2="70.4714" style="stroke:#9f7fff;stroke-width:0.0125;"/>
        <!-- Hatch -->
        <path d="M36.0794,70.3762 L36.1044,70.3762 L36.1044,70.4714 L36.0794,70.4714 ZM35.4044,70.3762 L35.4294,70.3762 L35.4294,70.4714 L35.4044,70.4714 Z" style="fill:#9f7fff;fill-rule:evenodd;"/>
        <!-- Hatch -->
        <path d="M35.4294,70.4714 L35.4294,70.4464 L36.0794,70.4464 L36.0794,70.4714 Z" style="fill:#9f7fff;fill-rule:evenodd;"/>
        <!-- Line -->
        <line x1="36.1044" y1="70.4714" x2="35.4044" y2="70.4714" style="stroke:#9f7fff;stroke-width:0.0125;"/>
        <!-- Line -->
        <line x1="36.0794" y1="70.4464" x2="35.4294" y2="70.4464" style="stroke:#9f7fff;stroke-width:0.0125;"/>
        <!-- Line -->
        <line x1="29.3722" y1="73.9852" x2="29.3722" y2="78.8382" style="stroke:#004c26;stroke-width:0.0125;"/>
        <!-- Line -->
        <line x1="31.2184" y1="73.9527" x2="31.1784" y2="78.8382" style="stroke:#004c26;stroke-width:0.0125;"/>
        <!-- Line -->
        <line x1="31.4106" y1="74.0439" x2="31.4096" y2="78.8382" style="stroke:#004c26;stroke-width:0.0125;"/>
        <!-- Text: Octogono SUR -->
        <text x="19.4125" dx="0" y="-85.4789" dy="3" font-family="Arial" font-size="4.2" line-height="1.1" fill="#000000" transform="scale(1,-1) rotate(360 19.4125,-85.4789)" text-anchor="start">Octogono SUR</text>
        <!-- Hatch -->
        <path d="M42.8583,70.7749 L41.1911,71.6068 L41.1939,69.943 ZM41.1932,70.3589 L41.1918,71.1909 L39.2753,71.1909 L39.2753,70.3589 Z" style="fill:#009900;fill-rule:evenodd;"/>
        <!-- Line -->
        <line x1="41.1911" y1="71.6068" x2="41.1939" y2="69.943" style="stroke:#009900;stroke-width:0.0125;"/>
        <!-- Line -->
        <line x1="42.8583" y1="70.7749" x2="41.1939" y2="69.943" style="stroke:#000000;stroke-width:0.0125;"/>
        <!-- Line -->
        <line x1="42.8583" y1="70.7749" x2="41.1911" y2="71.6068" style="stroke:#000000;stroke-width:0.0125;"/>
        <!-- Line -->
        <line x1="41.1932" y1="70.3589" x2="39.2753" y2="70.3589" style="stroke:#000000;stroke-width:0.0125;"/>
        <!-- Line -->
        <line x1="41.1918" y1="71.1909" x2="39.2753" y2="71.1909" style="stroke:#000000;stroke-width:0.0125;"/>
        <!-- Line -->
        <line x1="39.2753" y1="71.1909" x2="39.2753" y2="70.3589" style="stroke:#000000;stroke-width:0.0125;"/>
        <!-- Hatch -->
        <path d="M16.3116,70.7456 L17.9788,69.9136 L17.976,71.5775 ZM17.9767,71.1615 L17.9781,70.3296 L19.8946,70.3296 L19.8946,71.1615 Z" style="fill:#009900;fill-rule:evenodd;"/>
        <!-- Line -->
        <line x1="17.9788" y1="69.9136" x2="17.976" y2="71.5775" style="stroke:#009900;stroke-width:0.0125;"/>
        <!-- Line -->
        <line x1="16.3116" y1="70.7456" x2="17.976" y2="71.5775" style="stroke:#000000;stroke-width:0.0125;"/>
        <!-- Line -->
        <line x1="16.3116" y1="70.7456" x2="17.9788" y2="69.9136" style="stroke:#000000;stroke-width:0.0125;"/>
        <!-- Line -->
        <line x1="17.9767" y1="71.1615" x2="19.8946" y2="71.1615" style="stroke:#000000;stroke-width:0.0125;"/>
        <!-- Line -->
        <line x1="17.9781" y1="70.3296" x2="19.8946" y2="70.3296" style="stroke:#000000;stroke-width:0.0125;"/>
        <!-- Line -->
        <line x1="19.8946" y1="70.3296" x2="19.8946" y2="71.1615" style="stroke:#000000;stroke-width:0.0125;"/>
        <!-- Line -->
        <line x1="21.2879" y1="71.8445" x2="21.2879" y2="71.6445" style="stroke:#004c26;stroke-width:0.0125;"/>
        <!-- Line -->
        <line x1="21.2879" y1="69.6445" x2="21.2879" y2="69.822" style="stroke:#004c26;stroke-width:0.0125;"/>
        <!-- Line -->
        <line x1="31.4096" y1="78.8382" x2="31.1784" y2="78.8363" style="stroke:#004c26;stroke-width:0.0125;"/>
        <!-- Line -->
        <line x1="29.181" y1="78.8382" x2="29.3722" y2="78.8382" style="stroke:#004c26;stroke-width:0.0125;"/>
        <!-- Line -->
        <line x1="29.3722" y1="78.8382" x2="31.1784" y2="78.8363" style="stroke:#d7ebd2;stroke-width:0.0125;"/>
        <!-- Line -->
        <line x1="37.8557" y1="71.8245" x2="37.8557" y2="71.6245" style="stroke:#004c26;stroke-width:0.0125;"/>
        <!-- Line -->
        <line x1="37.8557" y1="69.8445" x2="37.8557" y2="69.6445" style="stroke:#004c26;stroke-width:0.0125;"/>
        <!-- Line -->
        <line x1="37.8557" y1="71.6245" x2="37.8557" y2="69.8445" style="stroke:#d7ebd2;stroke-width:0.0125;"/>
        <!-- Line -->
        <line x1="21.2879" y1="71.6445" x2="21.2949" y2="69.822" style="stroke:#d7ebd2;stroke-width:0.0125;"/>
        <!-- Line -->
        <line x1="31.191" y1="67.6934" x2="31.391" y2="67.6032" style="stroke:#004c26;stroke-width:0.0125;"/>
        <!-- Line -->
        <line x1="29.191" y1="67.6085" x2="29.391" y2="67.6934" style="stroke:#004c26;stroke-width:0.0125;"/>
        <!-- Line -->
        <line x1="27.14" y1="69.8445" x2="27.0599" y2="69.6445" style="stroke:#004c26;stroke-width:0.0125;"/>
        <!-- Line -->
        <line x1="29.391" y1="67.6934" x2="27.14" y2="69.8445" style="stroke:#004c26;stroke-width:0.0125;"/>
    </g>
</svg>
