<?xml version="1.0" encoding="UTF-8"?>
<!-- 2020-09-05 23:25:34 Generated by QCAD 3.24.3 SVG Exporter PG -->
<svg width="522.0697mm" height="316.822mm" viewBox="-0.125 -15.7161 26.1035 15.8411" version="1.1" xmlns="http://www.w3.org/2000/svg" style="stroke-linecap:round;stroke-linejoin:round;fill:none">
    <g transform="scale(1,-1)">
        <!-- Hatch -->
        <path d="M3.1476,9.3524 L3.1083,9.3524 L3.1083,8.0301 L3.1476,8.0301 ZM4.1483,8.0301 L3.1476,8.0301 L3.1476,7.9824 L4.1483,7.9824 ZM3.1476,8.0301 L3.1083,8.0301 L3.1083,7.9824 L3.1476,7.9824 ZM3.1476,7.9824 L3.1083,7.9824 L3.1083,7.311 L3.1476,7.311 ZM8.1983,8.0301 L5.0483,8.0301 L5.0483,7.9824 L8.1983,7.9824 ZM6.0983,7.9824 L6.0486,7.9824 L5.9759,7.1702 L6.0268,7.1657 ZM5.9484,6.2691 L5.8957,6.2737 L5.8223,5.4524 L5.8769,5.4524 Z" style="fill:#009926;fill-rule:evenodd;"/>
        <!-- Hatch -->
        <path d="M1.4383,11.142 L1.2383,11.142 L1.2383,5.2524 L11.2596,5.2524 L11.9828,4.9462 L12.0636,5.1341 L11.3003,5.4524 L1.4383,5.4524 ZM3.3083,11.142 L3.1082,11.142 L3.1082,9.3524 L3.1083,9.3524 L8.1983,9.3524 L8.1983,9.1524 L8.3983,9.1524 L8.3983,9.5524 L3.3083,9.5524 ZM11.8496,8.1524 L8.1983,8.1524 L8.1983,7.9824 L11.7383,7.9824 L13.0594,7.4479 L13.1442,7.6449 Z" style="fill:#004c26;fill-rule:evenodd;"/>
        <!-- Line -->
        <line x1="11.3003" y1="5.4524" x2="1.4383" y2="5.4524" style="stroke:#004c26;stroke-width:0.0125;"/>
        <!-- Line -->
        <line x1="1.4383" y1="5.4524" x2="1.4383" y2="11.142" style="stroke:#004c26;stroke-width:0.0125;"/>
        <!-- Line -->
        <line x1="8.1983" y1="9.3524" x2="3.1082" y2="9.3524" style="stroke:#004c26;stroke-width:0.0125;"/>
        <!-- Line -->
        <line x1="8.1983" y1="7.9824" x2="5.0483" y2="7.9824" style="stroke:#004c26;stroke-width:0.0125;"/>
        <!-- Line -->
        <line x1="3.1082" y1="9.3524" x2="3.1082" y2="11.142" style="stroke:#004c26;stroke-width:0.0125;"/>
        <!-- Line -->
        <line x1="3.1083" y1="7.3124" x2="1.4383" y2="7.3124" style="stroke:#000000;stroke-width:0.0125;"/>
        <!-- Line -->
        <line x1="3.1083" y1="9.1624" x2="1.4383" y2="9.1624" style="stroke:#000000;stroke-width:0.0125;"/>
        <!-- Line -->
        <line x1="3.1083" y1="8.9124" x2="1.4383" y2="8.9124" style="stroke:#000000;stroke-width:0.0125;"/>
        <!-- Line -->
        <line x1="3.1083" y1="8.6624" x2="1.4383" y2="8.6624" style="stroke:#000000;stroke-width:0.0125;"/>
        <!-- Line -->
        <line x1="3.1083" y1="8.4124" x2="1.4383" y2="8.4124" style="stroke:#000000;stroke-width:0.0125;"/>
        <!-- Line -->
        <line x1="3.1083" y1="8.1624" x2="1.4383" y2="8.1624" style="stroke:#000000;stroke-width:0.0125;"/>
        <!-- Line -->
        <line x1="3.1083" y1="7.9124" x2="1.4383" y2="7.9124" style="stroke:#000000;stroke-width:0.0125;"/>
        <!-- Line -->
        <line x1="3.1083" y1="7.6624" x2="1.4383" y2="7.6624" style="stroke:#000000;stroke-width:0.0125;"/>
        <!-- Line -->
        <line x1="4.3726" y1="7.5504" x2="4.3726" y2="7.9824" style="stroke:#ff00ff;stroke-width:0.0125;"/>
        <!-- Hatch -->
        <path d="M4.7543,8.0301 L4.1983,8.0301 L4.1983,7.9824 L4.7543,7.9824 ZM4.9983,8.0301 L4.7543,8.0301 L4.7543,7.9824 L4.9983,7.9824 ZM6.0225,7.1159 L5.9715,7.1204 L5.9002,6.3235 L5.9527,6.3189 ZM12.0469,6.9552 L11.9548,6.9942 L11.6227,6.2118 L11.7147,6.1727 ZM8.3983,9.1274 L8.1983,9.1274 L8.1983,8.1774 L8.3983,8.1774 ZM2.6983,10.3524 L1.8483,10.3524 L1.8483,10.2524 L2.6983,10.2524 Z" style="fill:#636466;fill-rule:evenodd;"/>
        <!-- Line -->
        <line x1="4.7543" y1="7.9824" x2="4.7543" y2="8.502" style="stroke:#ff00ff;stroke-width:0.0125;"/>
        <!-- Line -->
        <line x1="4.3726" y1="7.9824" x2="4.7543" y2="7.9824" style="stroke:#ff00ff;stroke-width:0.0125;"/>
        <!-- Line -->
        <line x1="11.2596" y1="5.2524" x2="1.2383" y2="5.2524" style="stroke:#004c26;stroke-width:0.0125;"/>
        <!-- Line -->
        <line x1="3.3083" y1="9.5524" x2="3.3083" y2="11.142" style="stroke:#004c26;stroke-width:0.0125;"/>
        <!-- Line -->
        <line x1="8.3983" y1="9.5524" x2="3.3083" y2="9.5524" style="stroke:#004c26;stroke-width:0.0125;"/>
        <!-- Line -->
        <line x1="8.3983" y1="9.1524" x2="8.3983" y2="9.5524" style="stroke:#004c26;stroke-width:0.0125;"/>
        <!-- Hatch -->
        <path d="M9.1983,8.9774 L9.1983,8.9823 L8.4983,8.9823 L8.4983,9.0774 L8.3983,9.0774 L8.3983,8.1774 ZM9.1733,9.0774 L8.5233,9.0774 L8.5233,9.0073 L9.1733,9.0073 ZM9.2983,9.0774 L9.1983,9.0774 L9.1983,8.9823 L9.1983,8.9774 ZM8.3983,9.0774 L8.3983,9.1274 L8.1983,9.1274 L8.1983,8.1774 L8.3983,8.1774 ZM12.0469,6.9552 L11.9548,6.9942 L11.6227,6.2118 L11.7147,6.1727 Z" style="fill:#d7ebd2;fill-rule:evenodd;"/>
        <!-- Line -->
        <line x1="8.1983" y1="8.1524" x2="8.1983" y2="9.1524" style="stroke:#808080;stroke-width:0.0125;"/>
        <!-- Line -->
        <line x1="8.3983" y1="9.1524" x2="8.3983" y2="8.1524" style="stroke:#808080;stroke-width:0.0125;"/>
        <!-- Line -->
        <line x1="8.3983" y1="9.1524" x2="8.1983" y2="9.1524" style="stroke:#004c26;stroke-width:0.0125;"/>
        <!-- Line -->
        <line x1="8.1983" y1="8.1524" x2="11.8496" y2="8.1524" style="stroke:#004c26;stroke-width:0.0125;"/>
        <!-- Line -->
        <line x1="8.1983" y1="7.9824" x2="11.7383" y2="7.9824" style="stroke:#004c26;stroke-width:0.0125;"/>
        <!-- Line -->
        <line x1="13.0594" y1="7.4479" x2="11.7383" y2="7.9824" style="stroke:#004c26;stroke-width:0.0125;"/>
        <!-- Line -->
        <line x1="12.0636" y1="5.1341" x2="11.3003" y2="5.4524" style="stroke:#004c26;stroke-width:0.0125;"/>
        <!-- Line -->
        <line x1="11.9828" y1="4.9462" x2="11.2596" y2="5.2524" style="stroke:#004c26;stroke-width:0.0125;"/>
        <!-- Line -->
        <line x1="13.1442" y1="7.6449" x2="11.8496" y2="8.1524" style="stroke:#004c26;stroke-width:0.0125;"/>
        <!-- Line -->
        <line x1="8.3983" y1="9.1274" x2="8.1983" y2="9.1274" style="stroke:#808080;stroke-width:0.0125;"/>
        <!-- Line -->
        <line x1="8.1983" y1="8.1774" x2="8.3983" y2="8.1774" style="stroke:#808080;stroke-width:0.0125;"/>
        <!-- Line -->
        <line x1="8.3983" y1="9.1274" x2="8.3983" y2="9.0774" style="stroke:#808080;stroke-width:0.0125;"/>
        <!-- Line -->
        <line x1="8.3983" y1="9.1274" x2="9.2983" y2="9.1274" style="stroke:#808080;stroke-width:0.0125;"/>
        <!-- Line -->
        <line x1="9.2983" y1="9.1274" x2="9.2983" y2="9.0774" style="stroke:#808080;stroke-width:0.0125;"/>
        <!-- Line -->
        <line x1="8.3983" y1="9.0774" x2="9.2983" y2="9.0774" style="stroke:#808080;stroke-width:0.0125;"/>
        <!-- Line -->
        <line x1="9.2983" y1="9.0774" x2="8.3983" y2="8.1774" style="stroke:#808080;stroke-width:0.0125;"/>
        <!-- Line -->
        <line x1="8.1983" y1="8.1524" x2="8.1983" y2="7.9824" style="stroke:#004c26;stroke-width:0.0125;"/>
        <!-- Hatch -->
        <path d="M4.1983,8.2324 L4.1483,8.2324 L4.1483,6.8824 L4.1983,6.8824 ZM5.0483,8.2324 L4.9983,8.2324 L4.9983,6.8824 L5.0483,6.8824 Z" style="fill:#009900;fill-rule:evenodd;"/>
        <!-- Line -->
        <line x1="4.1983" y1="6.8824" x2="4.1983" y2="8.2324" style="stroke:#808080;stroke-width:0.0125;"/>
        <!-- Line -->
        <line x1="4.9983" y1="6.8824" x2="4.9983" y2="8.2324" style="stroke:#808080;stroke-width:0.0125;"/>
        <!-- Line -->
        <line x1="4.9983" y1="7.7324" x2="4.1983" y2="7.7324" style="stroke:#000000;stroke-width:0.0125;"/>
        <!-- Line -->
        <line x1="4.9983" y1="7.4824" x2="4.1983" y2="7.4824" style="stroke:#000000;stroke-width:0.0125;"/>
        <!-- Line -->
        <line x1="4.9983" y1="7.2324" x2="4.1983" y2="7.2324" style="stroke:#000000;stroke-width:0.0125;"/>
        <!-- Line -->
        <line x1="4.9983" y1="6.9824" x2="4.1983" y2="6.9824" style="stroke:#000000;stroke-width:0.0125;"/>
        <!-- Line -->
        <line x1="5.0483" y1="6.8824" x2="5.0483" y2="8.2324" style="stroke:#808080;stroke-width:0.0125;"/>
        <!-- Line -->
        <line x1="4.1483" y1="6.8824" x2="4.1483" y2="8.2324" style="stroke:#808080;stroke-width:0.0125;"/>
        <!-- Line -->
        <line x1="5.0483" y1="8.2324" x2="4.9983" y2="8.2324" style="stroke:#808080;stroke-width:0.0125;"/>
        <!-- Line -->
        <line x1="4.1983" y1="8.2324" x2="4.1483" y2="8.2324" style="stroke:#808080;stroke-width:0.0125;"/>
        <!-- Line -->
        <line x1="4.9983" y1="7.9824" x2="4.1983" y2="7.9824" style="stroke:#004c26;stroke-width:0.0125;"/>
        <!-- Line -->
        <line x1="4.1483" y1="7.9824" x2="3.1083" y2="7.9824" style="stroke:#004c26;stroke-width:0.0125;"/>
        <!-- Line -->
        <line x1="4.1983" y1="6.8824" x2="4.1483" y2="6.8824" style="stroke:#808080;stroke-width:0.0125;"/>
        <!-- Line -->
        <line x1="4.9983" y1="6.8824" x2="5.0483" y2="6.8824" style="stroke:#808080;stroke-width:0.0125;"/>
        <!-- Line -->
        <line x1="3.1083" y1="9.3524" x2="3.1083" y2="7.3124" style="stroke:#004c26;stroke-width:0.0125;"/>
        <!-- Line -->
        <line x1="5.873" y1="7.129" x2="9.4494" y2="6.8161" style="stroke:#808080;stroke-width:0.0125;"/>
        <!-- Line -->
        <line x1="5.8033" y1="6.332" x2="9.3797" y2="6.0191" style="stroke:#808080;stroke-width:0.0125;"/>
        <!-- Line -->
        <line x1="5.8774" y1="7.1788" x2="9.4537" y2="6.8659" style="stroke:#808080;stroke-width:0.0125;"/>
        <!-- Line -->
        <line x1="5.799" y1="6.2822" x2="9.3753" y2="5.9693" style="stroke:#808080;stroke-width:0.0125;"/>
        <!-- Line -->
        <line x1="5.8769" y1="5.4524" x2="5.9484" y2="6.2691" style="stroke:#004c26;stroke-width:0.0125;"/>
        <!-- Line -->
        <line x1="5.799" y1="6.2822" x2="5.8033" y2="6.332" style="stroke:#808080;stroke-width:0.0125;"/>
        <!-- Line -->
        <line x1="5.9527" y1="6.3189" x2="6.0225" y2="7.1159" style="stroke:#004c26;stroke-width:0.0125;"/>
        <!-- Line -->
        <line x1="6.0268" y1="7.1657" x2="6.0983" y2="7.9824" style="stroke:#004c26;stroke-width:0.0125;"/>
        <!-- Line -->
        <line x1="2.7233" y1="10.3524" x2="3.1083" y2="10.3524" style="stroke:#ff0000;stroke-width:0.0125;"/>
        <!-- Line -->
        <line x1="2.7233" y1="10.2524" x2="3.1083" y2="10.2524" style="stroke:#ff0000;stroke-width:0.0125;"/>
        <!-- Hatch -->
        <path d="M2.6983,10.3524 L1.8483,10.3524 L1.8483,10.2524 L2.6983,10.2524 ZM2.5531,10.1524 L2.6483,10.1524 L2.6483,10.2524 L1.8483,10.2524 L1.8233,10.2524 L2.5531,9.4562 ZM2.6483,10.1274 L2.5781,10.1274 L2.5781,9.4774 L2.6483,9.4774 ZM2.6483,9.4524 L2.5566,9.4524 L2.6483,9.3524 Z" style="fill:#d7ebd2;fill-rule:evenodd;"/>
        <!-- Line -->
        <line x1="1.8483" y1="10.3524" x2="2.6983" y2="10.3524" style="stroke:#808080;stroke-width:0.0125;"/>
        <!-- Line -->
        <line x1="1.8483" y1="10.2524" x2="2.6983" y2="10.2524" style="stroke:#808080;stroke-width:0.0125;"/>
        <!-- Hatch -->
        <g>
            <path d="M2.6983,10.304 L2.7233,10.329" style="stroke:#004c26;stroke-width:0.0125;"/>
            <path d="M1.8233,10.3129 L1.8483,10.3379" style="stroke:#004c26;stroke-width:0.0125;"/>
        </g>
        <!-- Line -->
        <line x1="2.7233" y1="10.2524" x2="2.7233" y2="10.3524" style="stroke:#808080;stroke-width:0.0125;"/>
        <!-- Line -->
        <line x1="2.6983" y1="10.3524" x2="2.7233" y2="10.3524" style="stroke:#808080;stroke-width:0.0125;"/>
        <!-- Line -->
        <line x1="2.6983" y1="10.3524" x2="2.6983" y2="10.2524" style="stroke:#808080;stroke-width:0.0125;"/>
        <!-- Line -->
        <line x1="2.7233" y1="10.2524" x2="2.6983" y2="10.2524" style="stroke:#808080;stroke-width:0.0125;"/>
        <!-- Line -->
        <line x1="1.8233" y1="10.2524" x2="1.8233" y2="10.3524" style="stroke:#808080;stroke-width:0.0125;"/>
        <!-- Line -->
        <line x1="1.8483" y1="10.3524" x2="1.8233" y2="10.3524" style="stroke:#808080;stroke-width:0.0125;"/>
        <!-- Line -->
        <line x1="1.8483" y1="10.2524" x2="1.8483" y2="10.3524" style="stroke:#808080;stroke-width:0.0125;"/>
        <!-- Line -->
        <line x1="1.8483" y1="10.2524" x2="1.8233" y2="10.2524" style="stroke:#808080;stroke-width:0.0125;"/>
        <!-- Line -->
        <line x1="1.8233" y1="10.3524" x2="1.4383" y2="10.3524" style="stroke:#ff0000;stroke-width:0.0125;"/>
        <!-- Line -->
        <line x1="1.8233" y1="10.2524" x2="1.4383" y2="10.2524" style="stroke:#ff0000;stroke-width:0.0125;"/>
        <!-- Line -->
        <line x1="2.6983" y1="9.3524" x2="2.6483" y2="9.3524" style="stroke:#808080;stroke-width:0.0125;"/>
        <!-- Line -->
        <line x1="2.6483" y1="9.3524" x2="1.8233" y2="10.2524" style="stroke:#808080;stroke-width:0.0125;"/>
        <!-- Line -->
        <line x1="2.6483" y1="10.2524" x2="2.6483" y2="9.3524" style="stroke:#808080;stroke-width:0.0125;"/>
        <!-- Line -->
        <line x1="2.6983" y1="10.2524" x2="2.6983" y2="9.3524" style="stroke:#808080;stroke-width:0.0125;"/>
        <!-- Line -->
        <line x1="6.1321" y1="6.3033" x2="6.2018" y2="7.1002" style="stroke:#000000;stroke-width:0.0125;"/>
        <!-- Line -->
        <line x1="6.3114" y1="6.2876" x2="6.3811" y2="7.0845" style="stroke:#000000;stroke-width:0.0125;"/>
        <!-- Line -->
        <line x1="6.4907" y1="6.2719" x2="6.5604" y2="7.0688" style="stroke:#000000;stroke-width:0.0125;"/>
        <!-- Line -->
        <line x1="6.67" y1="6.2562" x2="6.7397" y2="7.0531" style="stroke:#000000;stroke-width:0.0125;"/>
        <!-- Line -->
        <line x1="6.8493" y1="6.2405" x2="6.919" y2="7.0375" style="stroke:#000000;stroke-width:0.0125;"/>
        <!-- Line -->
        <line x1="7.0286" y1="6.2248" x2="7.0984" y2="7.0218" style="stroke:#000000;stroke-width:0.0125;"/>
        <!-- Line -->
        <line x1="7.208" y1="6.2091" x2="7.2777" y2="7.0061" style="stroke:#000000;stroke-width:0.0125;"/>
        <!-- Line -->
        <line x1="7.3873" y1="6.1934" x2="7.457" y2="6.9904" style="stroke:#000000;stroke-width:0.0125;"/>
        <!-- Line -->
        <line x1="7.5666" y1="6.1777" x2="7.6363" y2="6.9747" style="stroke:#000000;stroke-width:0.0125;"/>
        <!-- Line -->
        <line x1="7.7459" y1="6.1621" x2="7.8156" y2="6.959" style="stroke:#000000;stroke-width:0.0125;"/>
        <!-- Line -->
        <line x1="7.9252" y1="6.1464" x2="7.9949" y2="6.9433" style="stroke:#000000;stroke-width:0.0125;"/>
        <!-- Line -->
        <line x1="8.1045" y1="6.1307" x2="8.1743" y2="6.9276" style="stroke:#000000;stroke-width:0.0125;"/>
        <!-- Line -->
        <line x1="8.2838" y1="6.115" x2="8.3536" y2="6.912" style="stroke:#000000;stroke-width:0.0125;"/>
        <!-- Line -->
        <line x1="8.4632" y1="6.0993" x2="8.5329" y2="6.8963" style="stroke:#000000;stroke-width:0.0125;"/>
        <!-- Line -->
        <line x1="8.6425" y1="6.0836" x2="8.7122" y2="6.8806" style="stroke:#000000;stroke-width:0.0125;"/>
        <!-- Line -->
        <line x1="8.8218" y1="6.0679" x2="8.8915" y2="6.8649" style="stroke:#000000;stroke-width:0.0125;"/>
        <!-- Line -->
        <line x1="9.0011" y1="6.0522" x2="9.0708" y2="6.8492" style="stroke:#000000;stroke-width:0.0125;"/>
        <!-- Line -->
        <line x1="9.1804" y1="6.0366" x2="9.2501" y2="6.8335" style="stroke:#000000;stroke-width:0.0125;"/>
        <!-- Line -->
        <line x1="9.3753" y1="5.9693" x2="9.3797" y2="6.0191" style="stroke:#808080;stroke-width:0.0125;"/>
        <!-- Line -->
        <line x1="9.4494" y1="6.8161" x2="9.4537" y2="6.8659" style="stroke:#808080;stroke-width:0.0125;"/>
        <!-- Line -->
        <line x1="12.0469" y1="6.9552" x2="11.7147" y2="6.1727" style="stroke:#808080;stroke-width:0.0125;"/>
        <!-- Hatch -->
        <path d="M11.9548,6.9942 L10.9495,6.6553 L11.5873,6.3845 L11.5501,6.2969 L11.6422,6.2579 ZM10.9562,6.6253 L10.9288,6.5607 L11.5271,6.3067 L11.5545,6.3713 ZM10.9405,6.6523 L10.8138,6.6095 L10.9058,6.5705 Z" style="fill:#d7ebd2;fill-rule:evenodd;"/>
        <!-- Line -->
        <line x1="11.9548" y1="6.9942" x2="11.6227" y2="6.2118" style="stroke:#808080;stroke-width:0.0125;"/>
        <!-- Line -->
        <line x1="10.8138" y1="6.6095" x2="11.9548" y2="6.9942" style="stroke:#808080;stroke-width:0.0125;"/>
        <!-- Line -->
        <line x1="11.9646" y1="7.0173" x2="12.0566" y2="6.9782" style="stroke:#808080;stroke-width:0.0125;"/>
        <!-- Line -->
        <line x1="12.0469" y1="6.9552" x2="12.0566" y2="6.9782" style="stroke:#808080;stroke-width:0.0125;"/>
        <!-- Line -->
        <line x1="11.9548" y1="6.9942" x2="12.0469" y2="6.9552" style="stroke:#808080;stroke-width:0.0125;"/>
        <!-- Line -->
        <line x1="11.9548" y1="6.9942" x2="11.9646" y2="7.0173" style="stroke:#808080;stroke-width:0.0125;"/>
        <!-- Line -->
        <line x1="11.9646" y1="7.0173" x2="12.2772" y2="7.7537" style="stroke:#ff0000;stroke-width:0.0125;"/>
        <!-- Line -->
        <line x1="11.6129" y1="6.1888" x2="11.7049" y2="6.1497" style="stroke:#808080;stroke-width:0.0125;"/>
        <!-- Line -->
        <line x1="11.7147" y1="6.1727" x2="11.7049" y2="6.1497" style="stroke:#808080;stroke-width:0.0125;"/>
        <!-- Line -->
        <line x1="11.7147" y1="6.1727" x2="11.6227" y2="6.2118" style="stroke:#808080;stroke-width:0.0125;"/>
        <!-- Line -->
        <line x1="11.6129" y1="6.1888" x2="11.6227" y2="6.2118" style="stroke:#808080;stroke-width:0.0125;"/>
        <!-- Line -->
        <line x1="11.6422" y1="6.2579" x2="10.8138" y2="6.6095" style="stroke:#808080;stroke-width:0.0125;"/>
        <!-- Line -->
        <line x1="11.6227" y1="6.2118" x2="10.7942" y2="6.5635" style="stroke:#808080;stroke-width:0.0125;"/>
        <!-- Line -->
        <line x1="11.6129" y1="6.1888" x2="11.3003" y2="5.4524" style="stroke:#ff0000;stroke-width:0.0125;"/>
        <!-- Line -->
        <line x1="11.7049" y1="6.1497" x2="11.3923" y2="5.4133" style="stroke:#ff0000;stroke-width:0.0125;"/>
        <!-- Line -->
        <line x1="10.8138" y1="6.6095" x2="10.7942" y2="6.5635" style="stroke:#808080;stroke-width:0.0125;"/>
        <!-- Line -->
        <line x1="12.0566" y1="6.9782" x2="12.3692" y2="7.7146" style="stroke:#ff0000;stroke-width:0.0125;"/>
        <!-- Line -->
        <line x1="1.2383" y1="5.2524" x2="1.2383" y2="11.142" style="stroke:#004c26;stroke-width:0.0125;"/>
        <!-- Solid -->
        <path d="M1.4383,10.3524 L1.8233,10.3524 L1.8233,10.2524 L1.4383,10.2524 Z" style="stroke:#ff0000;stroke-width:0.0125;fill:#ff0000;fill-rule:evenodd;"/>
        <!-- Solid -->
        <path d="M2.7233,10.3524 L3.1083,10.3524 L3.1082,10.2524 L2.7233,10.2524 Z" style="stroke:#ff0000;stroke-width:0.0125;fill:#ff0000;fill-rule:evenodd;"/>
        <!-- Solid -->
        <path d="M2.6483,10.2524 L2.6983,10.2524 L2.6983,9.3524 L2.6483,9.3524 Z" style="stroke:#808080;stroke-width:0.0125;fill:#808080;fill-rule:evenodd;"/>
        <!-- Solid -->
        <path d="M11.6129,6.1888 L11.7049,6.1497 L11.3923,5.4133 L11.3003,5.4524 Z" style="stroke:#ff0000;stroke-width:0.0125;fill:#ff0000;fill-rule:evenodd;"/>
        <!-- Solid -->
        <path d="M12.2772,7.7537 L12.3692,7.7146 L12.0566,6.9782 L11.9646,7.0173 Z" style="stroke:#ff0000;stroke-width:0.0125;fill:#ff0000;fill-rule:evenodd;"/>
        <!-- Solid -->
        <path d="M10.7942,6.5635 L10.8138,6.6095 L11.6422,6.2579 L11.6227,6.2118 Z" style="stroke:#808080;stroke-width:0.0125;fill:#808080;fill-rule:evenodd;"/>
        <!-- Hatch -->
        <path d="M9.2983,9.1274 L8.3983,9.1274 L8.3983,9.0774 L9.2983,9.0774 Z" style="fill:#808080;fill-rule:evenodd;"/>
        <!-- Line -->
        <line x1="9.1983" y1="9.0774" x2="9.1983" y2="8.9823" style="stroke:#9f7fff;stroke-width:0.0125;"/>
        <!-- Line -->
        <line x1="8.4983" y1="9.0774" x2="8.4983" y2="8.9823" style="stroke:#9f7fff;stroke-width:0.0125;"/>
        <!-- Line -->
        <line x1="8.4983" y1="8.9823" x2="9.1983" y2="8.9823" style="stroke:#9f7fff;stroke-width:0.0125;"/>
        <!-- Line -->
        <line x1="8.5233" y1="9.0073" x2="9.1733" y2="9.0073" style="stroke:#9f7fff;stroke-width:0.0125;"/>
        <!-- Line -->
        <line x1="8.5233" y1="9.0774" x2="8.5233" y2="8.9823" style="stroke:#9f7fff;stroke-width:0.0125;"/>
        <!-- Line -->
        <line x1="9.1733" y1="9.0774" x2="9.1733" y2="8.9823" style="stroke:#9f7fff;stroke-width:0.0125;"/>
        <!-- Hatch -->
        <path d="M8.5233,8.9823 L9.1733,8.9823 L9.1733,9.0073 L8.5233,9.0073 Z" style="fill:#9f7fff;fill-rule:evenodd;"/>
        <!-- Hatch -->
        <path d="M8.5233,9.0774 L8.4983,9.0774 L8.4983,8.9823 L8.5233,8.9823 ZM9.1983,9.0774 L9.1733,9.0774 L9.1733,8.9823 L9.1983,8.9823 Z" style="fill:#9f7fff;fill-rule:evenodd;"/>
        <!-- Hatch -->
        <path d="M2.5531,9.4774 L2.5781,9.4774 L2.5781,10.1274 L2.5531,10.1274 Z" style="fill:#9f7fff;fill-rule:evenodd;"/>
        <!-- Line -->
        <line x1="2.6483" y1="10.1524" x2="2.5531" y2="10.1524" style="stroke:#009999;stroke-width:0.0125;"/>
        <!-- Line -->
        <line x1="2.6483" y1="10.1274" x2="2.5531" y2="10.1274" style="stroke:#9f7fff;stroke-width:0.0125;"/>
        <!-- Hatch -->
        <path d="M2.6483,10.1274 L2.6483,10.1524 L2.5531,10.1524 L2.5531,10.1274 ZM2.6483,9.4524 L2.6483,9.4774 L2.5531,9.4774 L2.5531,9.4524 Z" style="fill:#9f7fff;fill-rule:evenodd;"/>
        <!-- Line -->
        <line x1="2.6483" y1="9.4774" x2="2.5531" y2="9.4774" style="stroke:#9f7fff;stroke-width:0.0125;"/>
        <!-- Line -->
        <line x1="2.5781" y1="10.1274" x2="2.5781" y2="9.4774" style="stroke:#9f7fff;stroke-width:0.0125;"/>
        <!-- Line -->
        <line x1="2.5531" y1="10.1524" x2="2.5531" y2="9.4524" style="stroke:#9f7fff;stroke-width:0.0125;"/>
        <!-- Line -->
        <line x1="2.6483" y1="9.4524" x2="2.5531" y2="9.4524" style="stroke:#9f7fff;stroke-width:0.0125;"/>
        <!-- Line -->
        <line x1="11.5271" y1="6.3067" x2="11.5643" y2="6.3943" style="stroke:#9f7fff;stroke-width:0.0125;"/>
        <!-- Line -->
        <line x1="11.5545" y1="6.3713" x2="10.9562" y2="6.6253" style="stroke:#9f7fff;stroke-width:0.0125;"/>
        <!-- Line -->
        <line x1="11.5873" y1="6.3845" x2="10.943" y2="6.658" style="stroke:#9f7fff;stroke-width:0.0125;"/>
        <!-- Line -->
        <line x1="11.5501" y1="6.2969" x2="11.5873" y2="6.3845" style="stroke:#9f7fff;stroke-width:0.0125;"/>
        <!-- Line -->
        <line x1="10.9058" y1="6.5705" x2="10.943" y2="6.658" style="stroke:#9f7fff;stroke-width:0.0125;"/>
        <!-- Line -->
        <line x1="10.9288" y1="6.5607" x2="10.966" y2="6.6483" style="stroke:#9f7fff;stroke-width:0.0125;"/>
        <!-- Hatch -->
        <path d="M10.966,6.6483 L10.9562,6.6253 L11.5545,6.3713 L11.5643,6.3943 Z" style="fill:#9f7fff;fill-rule:evenodd;"/>
        <!-- Hatch -->
        <path d="M11.5271,6.3067 L11.5501,6.2969 L11.5873,6.3845 L11.5643,6.3943 ZM10.9058,6.5705 L10.9288,6.5607 L10.966,6.6483 L10.943,6.658 Z" style="fill:#9f7fff;fill-rule:evenodd;"/>
        <!-- Solid -->
        <path d="M8.1983,9.1523 L8.3983,9.1524 L8.3983,9.1274 L8.1983,9.1274 Z" style="stroke:#ff0000;stroke-width:0.0125;fill:#ff0000;fill-rule:evenodd;"/>
        <!-- Solid -->
        <path d="M8.1983,8.1774 L8.3983,8.1774 L8.3983,8.1524 L8.1983,8.1524 Z" style="stroke:#ff0000;stroke-width:0.0125;fill:#ff0000;fill-rule:evenodd;"/>
        <!-- Line -->
        <line x1="8.1983" y1="9.3524" x2="8.1983" y2="9.1523" style="stroke:#004c26;stroke-width:0.0125;"/>
        <!-- Text: ZONA 2 -->
        <text x="0" dx="0" y="-2.4161" dy="2.3755" font-family="Arial" font-size="3.3258" line-height="1.1" fill="#000000" transform="scale(1,-1) rotate(360 0,-2.4161)" text-anchor="start">ZONA 2</text>
        <!-- Line -->
        <line x1="19.3014" y1="12.5129" x2="19.3014" y2="11.9639" style="stroke:#ff00ff;stroke-width:0.0125;"/>
        <!-- Line -->
        <line x1="19.3014" y1="12.5129" x2="22.6428" y2="12.5129" style="stroke:#ff00ff;stroke-width:0.0125;"/>
        <!-- Hatch -->
        <path d="M19.3014,12.5129 L19.3014,11.9639 L22.6428,11.9639 A3.35268,3.35268 0 0 1 22.6541,12.2384 A3.35268,3.35268 0 0 1 22.6428,12.5129 Z" style="fill:#ff00ff;fill-rule:evenodd;"/>
        <!-- Line -->
        <line x1="1.2383" y1="11.142" x2="1.4383" y2="11.142" style="stroke:#004c26;stroke-width:0.0125;"/>
        <!-- Line -->
        <line x1="13.0594" y1="7.4479" x2="13.1442" y2="7.6449" style="stroke:#004c26;stroke-width:0.0125;"/>
        <!-- Line -->
        <line x1="5.873" y1="7.129" x2="5.8774" y2="7.1788" style="stroke:#004c26;stroke-width:0.0125;"/>
        <!-- Line -->
        <line x1="8.1983" y1="8.0301" x2="3.1083" y2="8.0301" style="stroke:#004c26;stroke-width:0.0125;"/>
        <!-- Circle -->
        <circle cx="19.3014" cy="12.2384" r="3.3527" style="stroke:#ff00ff;stroke-width:0.0125;"/>
        <!-- Line -->
        <line x1="19.3014" y1="11.9639" x2="22.6428" y2="11.9639" style="stroke:#ff00ff;stroke-width:0.0125;"/>
        <!-- Text: N -->
        <text x="23.9825" dx="0" y="-13.3923" dy="2.3748" font-family="Arial" font-size="3.3247" line-height="1.1" fill="#ff00ff" transform="scale(1,-1) rotate(360 23.9825,-13.3923)" text-anchor="start">N</text>
        <!-- Line -->
        <line x1="11.9828" y1="4.9462" x2="12.0636" y2="5.1341" style="stroke:#004c26;stroke-width:0.0125;"/>
        <!-- Line -->
        <line x1="12.2833" y1="7.7619" x2="11.9668" y2="7.0163" style="stroke:#004c26;stroke-width:0.0125;"/>
        <!-- Line -->
        <line x1="3.1082" y1="11.142" x2="3.3083" y2="11.142" style="stroke:#004c26;stroke-width:0.0125;"/>
        <!-- Line -->
        <line x1="3.1476" y1="7.311" x2="3.1083" y2="7.311" style="stroke:#004c26;stroke-width:0.0125;"/>
        <!-- Line -->
        <line x1="6.0486" y1="7.9824" x2="5.8223" y2="5.4524" style="stroke:#004c26;stroke-width:0.0125;"/>
        <!-- Line -->
        <line x1="3.1476" y1="7.9824" x2="3.1476" y2="9.3524" style="stroke:#004c26;stroke-width:0.0125;"/>
        <!-- Line -->
        <line x1="3.1476" y1="7.9824" x2="3.1476" y2="7.311" style="stroke:#004c26;stroke-width:0.0125;"/>
        <!-- Hatch -->
        <path d="M13.6821,9.1608 L12.0149,9.9927 L12.0177,8.3288 ZM12.017,8.7448 L12.0156,9.5767 L10.0992,9.5767 L10.0992,8.7448 Z" style="fill:#009900;fill-rule:evenodd;"/>
        <!-- Line -->
        <line x1="12.0149" y1="9.9927" x2="12.0177" y2="8.3288" style="stroke:#009900;stroke-width:0.0125;"/>
        <!-- Line -->
        <line x1="13.6821" y1="9.1608" x2="12.0177" y2="8.3288" style="stroke:#000000;stroke-width:0.0125;"/>
        <!-- Line -->
        <line x1="13.6821" y1="9.1608" x2="12.0149" y2="9.9927" style="stroke:#000000;stroke-width:0.0125;"/>
        <!-- Line -->
        <line x1="12.017" y1="8.7448" x2="10.0992" y2="8.7448" style="stroke:#000000;stroke-width:0.0125;"/>
        <!-- Line -->
        <line x1="12.0156" y1="9.5767" x2="10.0992" y2="9.5767" style="stroke:#000000;stroke-width:0.0125;"/>
        <!-- Line -->
        <line x1="10.0992" y1="9.5767" x2="10.0992" y2="8.7448" style="stroke:#000000;stroke-width:0.0125;"/>
        <!-- Hatch -->
        <path d="M2.3507,15.0148 L1.5188,13.3475 L3.1826,13.3504 ZM2.7667,13.3497 L1.9347,13.3482 L1.9347,11.4318 L2.7667,11.4318 Z" style="fill:#ff0000;fill-rule:evenodd;"/>
        <!-- Line -->
        <line x1="1.5188" y1="13.3475" x2="3.1826" y2="13.3504" style="stroke:#009900;stroke-width:0.0125;"/>
        <!-- Line -->
        <line x1="2.3507" y1="15.0148" x2="3.1826" y2="13.3504" style="stroke:#000000;stroke-width:0.0125;"/>
        <!-- Line -->
        <line x1="2.3507" y1="15.0148" x2="1.5188" y2="13.3475" style="stroke:#000000;stroke-width:0.0125;"/>
        <!-- Line -->
        <line x1="2.7667" y1="13.3497" x2="2.7667" y2="11.4318" style="stroke:#000000;stroke-width:0.0125;"/>
        <!-- Line -->
        <line x1="1.9347" y1="13.3482" x2="1.9347" y2="11.4318" style="stroke:#000000;stroke-width:0.0125;"/>
        <!-- Line -->
        <line x1="1.9347" y1="11.4318" x2="2.7667" y2="11.4318" style="stroke:#000000;stroke-width:0.0125;"/>
    </g>
</svg>
